M48
INCH
T01C0.015
T02C0.0354
T03C0.038
T04C0.0551
T05C0.063
T06C0.0709
T07C0.0807
%
T01
X+016417Y+022137
X+016097Y+023657
X+016297Y+024297
X+016597Y+025037
X+017277Y+025577
X+017457Y+026517
X+017297Y+027997
X+016917Y+027997
X+016537Y+027997
X+015377Y+028257
X+015243Y+027192
X+014117Y+027257
X+014537Y+024997
X+014457Y+024577
X+014477Y+024097
X+011557Y+022617
X+008837Y+021397
X+006937Y+022697
X+007097Y+024897
X+008817Y+027577
X+011317Y+027677
X+011477Y+029477
X+014237Y+030797
X+016437Y+032977
X+019577Y+031357
X+019917Y+030977
X+019917Y+029157
X+018177Y+029197
X+017796Y+028036
X+020097Y+026897
X+021257Y+026097
X+021237Y+025477
X+020477Y+023597
X+019745Y+023237
X+019857Y+022737
X+020537Y+022537
X+021217Y+021617
X+021897Y+020957
X+022697Y+021477
X+023037Y+022617
X+023037Y+023397
X+023057Y+024017
X+023037Y+024497
X+021897Y+022737
X+024277Y+021837
X+023597Y+020557
X+023857Y+017077
X+025737Y+017077
X+024937Y+015177
X+024257Y+014477
X+023637Y+014477
X+022997Y+014477
X+023617Y+015157
X+022277Y+015157
X+022397Y+013557
X+024897Y+013497
X+028437Y+010657
X+026777Y+005937
X+020817Y+005957
X+018817Y+009877
X+016697Y+012657
X+018897Y+015237
X+019937Y+019137
X+019297Y+020157
X+018117Y+020097
X+016737Y+020377
X+015657Y+020217
X+015297Y+019377
X+016717Y+019177
X+017977Y+021657
X+018697Y+023898
X+018837Y+024477
X+019077Y+025079
X+018797Y+025477
X+018237Y+024837
X+021817Y+028617
X+025937Y+027437
X+026537Y+030277
X+028857Y+029957
X+031477Y+030537
X+033017Y+029557
X+033037Y+028177
X+032597Y+026477
X+033477Y+026457
X+033057Y+025417
X+033017Y+023917
X+032997Y+021797
X+032897Y+020797
X+029397Y+020937
X+029697Y+018457
X+030397Y+017657
X+029817Y+016617
X+028997Y+017417
X+030317Y+015317
X+032877Y+014697
X+033097Y+016917
X+032597Y+016917
X+033597Y+016897
X+034077Y+016917
X+034377Y+016457
X+035137Y+015637
X+035957Y+018537
X+039917Y+021737
X+036637Y+025457
X+036377Y+027017
X+035777Y+028417
X+035437Y+030537
X+035877Y+031717
X+034257Y+032357
X+034257Y+033477
X+033037Y+033497
X+032977Y+032337
X+033324Y+034717
X+035777Y+034287
X+036297Y+034317
X+037537Y+034337
X+038357Y+033017
X+040457Y+035597
X+039997Y+038057
X+036937Y+040897
X+035177Y+037317
X+033457Y+037277
X+032157Y+038197
X+029757Y+040257
X+025577Y+036977
X+026237Y+034477
X+026197Y+032737
X+029497Y+032637
X+029657Y+033598
X+029717Y+027037
X+029197Y+025297
X+040457Y+028317
X+040517Y+014677
X+040357Y+008877
X+036317Y+010297
X+035777Y+010277
X+034497Y+009897
X+033997Y+005897
X+015057Y+005857
X+012917Y+010557
X+011637Y+014897
X+007337Y+015097
X+005737Y+018417
X+008837Y+018917
X+011577Y+019577
X+008077Y+010117
X+006697Y+032497
X+010717Y+032737
X+010697Y+036077
X+010677Y+036737
X+009157Y+036217
X+011377Y+038537
X+013477Y+035957
X+014457Y+037137
X+016237Y+040157
X+017997Y+036517
X+021697Y+035517
X+020697Y+033598
X+006597Y+038537
T02
X+036535Y+005522
X+038268Y+005522
X+023622Y+038437
X+022622Y+038437
T03
X+024622Y+007818
X+023622Y+007818
X+022622Y+007818
T04
X+006117Y+021117
X+006117Y+022495
X+006117Y+023873
X+006117Y+025251
X+006117Y+026629
X+006117Y+028007
T05
X+009843Y+005837
T06
X+009843Y+007609
T07
X+021622Y+040437
X+025622Y+040438
T00
M30
