G04 DipTrace 3.0.0.2*
G04 SDR_Transmitter.GBL*
%MOIN*%
G04 #@! TF.FileFunction,Copper,L4,Bot*
G04 #@! TF.Part,Single*
G04 #@! TA.AperFunction,Conductor*
%ADD13C,0.006*%
G04 #@! TA.AperFunction,CopperBalancing*
%ADD14C,0.01*%
G04 #@! TA.AperFunction,Conductor*
%ADD16C,0.013801*%
%ADD18C,0.02*%
G04 #@! TA.AperFunction,CopperBalancing*
%ADD21C,0.012*%
G04 #@! TA.AperFunction,ComponentPad*
%ADD25C,0.06*%
%ADD31R,0.06X0.06*%
%ADD32R,0.059055X0.059055*%
%ADD34C,0.059055*%
%ADD35C,0.120079*%
%ADD37C,0.070866*%
G04 #@! TA.AperFunction,ViaPad*
%ADD56C,0.024*%
%FSLAX26Y26*%
G04*
G70*
G90*
G75*
G01*
G04 Bottom*
%LPD*%
X1723906Y469906D2*
D16*
X1764000Y510000D1*
X1916000D1*
X1430000Y346000D2*
D13*
X1390000Y386000D1*
Y1052000D1*
X1290000Y1152000D1*
X1454000Y452000D2*
Y780000D1*
X1598000Y924000D1*
X1632000D1*
X1356000Y700000D2*
X1210000Y846000D1*
Y1970000D1*
X1366000Y2126000D1*
X2072000Y494000D2*
D16*
X2178000Y600000D1*
Y1824000D1*
X2036000Y1966000D1*
X1560000Y676000D2*
D13*
X1840000D1*
X1948000Y568000D1*
X1414000Y2193682D2*
D18*
Y1806000D1*
X1432000Y1788000D1*
X1714000D1*
X800000Y644000D2*
X798000Y642000D1*
X724000D1*
X698000Y668000D1*
Y2032000D1*
X796000Y2130000D1*
X1414000Y2193682D2*
X859682D1*
X796000Y2130000D1*
X1478000Y752000D2*
D13*
X1946000D1*
X1260000Y1520000D2*
D16*
X1450992D1*
X1535008D2*
X1724000D1*
X1512000Y306000D2*
D13*
X1820000D1*
X2104000Y590000D1*
Y1446000D1*
X1530000Y702000D2*
X1876000D1*
X1948000Y630000D1*
X2074000Y1134008D2*
X1772008D1*
X1422000Y784000D1*
Y510000D1*
X1504000Y728000D2*
X1884000D1*
X1920000Y692000D1*
X1948000D1*
X1584000Y332110D2*
X1474110D1*
X1184000Y42000D1*
X866000D1*
X826000Y82000D1*
X828000Y84000D1*
X2080000Y922000D2*
Y598000D1*
X1814110Y332110D1*
X1584000D1*
X1556000Y2192000D2*
X1660000D1*
X1776000Y2084000D2*
X1668000Y2192000D1*
X1660000D1*
X1778000Y1888000D2*
Y2084000D1*
X1776000D1*
X2070201Y278000D2*
X1472000D1*
X1726000Y2196000D2*
X1942000D1*
X2246000Y1892000D1*
Y453799D1*
X2070201Y278000D1*
X1490000Y68000D2*
X1646000Y224000D1*
X2128000D1*
X2130000D1*
X2033039Y2152961D2*
X2268000Y1918000D1*
Y364000D1*
X2128000Y224000D1*
X1192000Y136000D2*
X580000D1*
X528000Y84000D1*
X1330000Y664000D2*
X1190000Y804000D1*
Y2084063D1*
X800000Y744000D2*
D18*
X1032000D1*
X1078000Y790000D1*
Y1434000D1*
X2074000Y1822000D2*
D16*
X1754000D1*
X1522000Y2054000D1*
Y2188000D1*
X1510000Y2200000D1*
D56*
X1723906Y469906D3*
X1916000Y510000D3*
D3*
X1430000Y346000D3*
X1290000Y1152000D3*
X1454000Y452000D3*
X1632000Y924000D3*
X1356000Y700000D3*
X1366000Y2126000D3*
X2072000Y494000D3*
X2036000Y1966000D3*
X1560000Y676000D3*
X1948000Y568000D3*
X1414000Y2193682D3*
X1714000Y1788000D3*
X796000Y2130000D3*
X1414000Y2193682D3*
Y1806000D3*
X1478000Y752000D3*
X1946000D3*
X1260000Y1520000D3*
X1450992D3*
X1535008D3*
X1724000D3*
X1512000Y306000D3*
X2104000Y1446000D3*
X1530000Y702000D3*
X1948000Y630000D3*
X2074000Y1134008D3*
X1422000Y510000D3*
X1504000Y728000D3*
X1948000Y692000D3*
X1584000Y332110D3*
X2080000Y922000D3*
X1584000Y332110D3*
X1556000Y2192000D3*
X1660000D3*
X1776000Y2084000D3*
X1778000Y1888000D3*
X1776000Y2084000D3*
X1660000Y2192000D3*
X2070201Y278000D3*
X1472000D3*
X1726000Y2196000D3*
X2070201Y278000D3*
X1490000Y68000D3*
X2130000Y224000D3*
X2033039Y2152961D3*
X1192000Y136000D3*
X1330000Y664000D3*
X1190000Y2084063D3*
X1078000Y1434000D3*
X2074000Y1822000D3*
X1510000Y2200000D3*
X802000Y1058000D3*
Y980000D3*
Y900000D3*
X1332000Y496000D3*
X2222000Y94000D3*
X1824000Y118000D3*
X2012000Y330000D3*
X1704000Y896000D3*
X1576000Y496000D3*
X1158000Y198000D3*
X2032000Y1050000D3*
X2034000Y1320000D3*
X1960000Y360000D3*
X1944000Y1022000D3*
X1630000Y776000D3*
X1618000Y644000D3*
X1734000Y568000D3*
X1702000Y842000D3*
X1530000Y950000D3*
X1162000Y562000D3*
X1398000Y204000D3*
X1382000Y316000D3*
X1570000Y226000D3*
X1502000Y506000D3*
X1878000Y454000D3*
X1598000Y2098000D3*
X1662000Y2020000D3*
X1474000Y1982000D3*
X1564000Y1894000D3*
X1330000Y1944000D3*
X1494000Y1568000D3*
X1568000Y1744000D3*
X1396000Y1746000D3*
X1842000Y1780000D3*
X1854000Y1700000D3*
X1892000Y2084000D3*
X2214000Y1300000D3*
X1140000Y1154000D3*
X1278000Y878000D3*
X2232000Y386000D3*
X2138000Y1028000D3*
X1494000Y1230000D3*
X1224000Y174000D3*
X1324000Y418000D3*
X946000Y2112000D3*
X920000Y1610000D3*
X906000Y1180000D3*
X466000Y618000D3*
X526000Y378000D3*
X1026000Y386000D3*
X2274000Y178000D3*
X1804000Y1226000D3*
X1848000Y2288000D3*
X2212000Y1858000D3*
X290000Y1550000D3*
X1572000Y50000D3*
X506000Y2182000D3*
X218000Y1092000D3*
X1736000Y252000D3*
X1954000Y114000D3*
X2334000Y1060000D3*
X916000Y1074000D3*
X918000Y882000D3*
X20199Y2369131D2*
D21*
X2379797D1*
X20199Y2357262D2*
X2379797D1*
X20199Y2345394D2*
X2379797D1*
X20199Y2333525D2*
X2379797D1*
X20199Y2321656D2*
X1312289D1*
X1331727D2*
X2379797D1*
X20199Y2309787D2*
X1289694D1*
X1354322D2*
X2379797D1*
X20199Y2297919D2*
X1281022D1*
X1362970D2*
X2379797D1*
X20199Y2286050D2*
X1277062D1*
X1366954D2*
X2379797D1*
X20199Y2274181D2*
X1276476D1*
X1367517D2*
X2379797D1*
X20199Y2262312D2*
X1279171D1*
X1364822D2*
X2379797D1*
X20199Y2250444D2*
X1285874D1*
X1358118D2*
X2379797D1*
X20199Y2238575D2*
X1300194D1*
X1343798D2*
X2379797D1*
X20199Y2226706D2*
X2379797D1*
X20199Y2214837D2*
X250171D1*
X309642D2*
X846186D1*
X1431126D2*
X1486874D1*
X1533126D2*
X1541388D1*
X1570602D2*
X1645406D1*
X1674594D2*
X1706178D1*
X1745822D2*
X2379797D1*
X20199Y2202969D2*
X230671D1*
X329142D2*
X833155D1*
X1440009D2*
X1482491D1*
X1685306D2*
X1699265D1*
X1960930D2*
X2379797D1*
X20199Y2191100D2*
X219374D1*
X340438D2*
X821297D1*
X1441555D2*
X1483850D1*
X1972814D2*
X2379797D1*
X20199Y2179231D2*
X212014D1*
X347798D2*
X809437D1*
X1439657D2*
X1492382D1*
X1984673D2*
X2028514D1*
X2037550D2*
X2379797D1*
X20199Y2167362D2*
X207304D1*
X352509D2*
X797554D1*
X869165D2*
X1388343D1*
X1439657D2*
X1499437D1*
X1566899D2*
X1649085D1*
X1718539D2*
X1944726D1*
X1996531D2*
X2009625D1*
X2056462D2*
X2379797D1*
X20199Y2155493D2*
X204797D1*
X355017D2*
X785694D1*
X857306D2*
X1388343D1*
X1439657D2*
X1499437D1*
X1544563D2*
X1678593D1*
X1730399D2*
X1956609D1*
X2060587D2*
X2379797D1*
X20199Y2143625D2*
X204234D1*
X355579D2*
X772101D1*
X845423D2*
X1345030D1*
X1439657D2*
X1499437D1*
X1544563D2*
X1690476D1*
X1742282D2*
X1968469D1*
X2068274D2*
X2379797D1*
X20199Y2131756D2*
X205570D1*
X354243D2*
X761953D1*
X833563D2*
X1338961D1*
X1439657D2*
X1499437D1*
X1544563D2*
X1702335D1*
X1754142D2*
X1980350D1*
X2080157D2*
X2379797D1*
X20199Y2119887D2*
X208921D1*
X350891D2*
X750093D1*
X821681D2*
X1333991D1*
X1439657D2*
X1499437D1*
X1544563D2*
X1714218D1*
X1766024D2*
X1992210D1*
X2092017D2*
X2379797D1*
X20199Y2108018D2*
X214593D1*
X345219D2*
X738210D1*
X811954D2*
X1177522D1*
X1202493D2*
X1322109D1*
X1439657D2*
X1499437D1*
X1544563D2*
X1726077D1*
X1788360D2*
X2004070D1*
X2103875D2*
X2379797D1*
X20199Y2096150D2*
X223312D1*
X336501D2*
X726350D1*
X797962D2*
X1165241D1*
X1214751D2*
X1310249D1*
X1362055D2*
X1388343D1*
X1439657D2*
X1499437D1*
X1544563D2*
X1737937D1*
X1800735D2*
X2015953D1*
X2115759D2*
X2379797D1*
X20199Y2084281D2*
X236953D1*
X322860D2*
X714469D1*
X786079D2*
X1162312D1*
X1217681D2*
X1298390D1*
X1350173D2*
X1388343D1*
X1439657D2*
X1499437D1*
X1544563D2*
X1748319D1*
X1803688D2*
X2027812D1*
X2127618D2*
X2379797D1*
X20199Y2072412D2*
X266953D1*
X292860D2*
X702609D1*
X774219D2*
X1165030D1*
X1214986D2*
X1286507D1*
X1338314D2*
X1388343D1*
X1439657D2*
X1499437D1*
X1544563D2*
X1750991D1*
X1801017D2*
X2039694D1*
X2139501D2*
X2379797D1*
X20199Y2060543D2*
X690749D1*
X762337D2*
X1171335D1*
X1208657D2*
X1274648D1*
X1326454D2*
X1388343D1*
X1439657D2*
X1499437D1*
X1546883D2*
X1759335D1*
X1796657D2*
X2051554D1*
X2151360D2*
X2379797D1*
X20199Y2048675D2*
X678890D1*
X750478D2*
X1171335D1*
X1208657D2*
X1262765D1*
X1314571D2*
X1388343D1*
X1439657D2*
X1500117D1*
X1558743D2*
X1759335D1*
X1796657D2*
X2063413D1*
X2163219D2*
X2379797D1*
X20199Y2036806D2*
X672819D1*
X738618D2*
X1171335D1*
X1208657D2*
X1250906D1*
X1302711D2*
X1388343D1*
X1439657D2*
X1507781D1*
X1570602D2*
X1759335D1*
X1796657D2*
X2075297D1*
X2175102D2*
X2379797D1*
X20199Y2024937D2*
X672327D1*
X726735D2*
X1171335D1*
X1208657D2*
X1239046D1*
X1290829D2*
X1388343D1*
X1439657D2*
X1519640D1*
X1582486D2*
X1759335D1*
X1796657D2*
X2087155D1*
X2186962D2*
X2379797D1*
X20199Y2013068D2*
X672327D1*
X723665D2*
X1171335D1*
X1208657D2*
X1227163D1*
X1278970D2*
X1388343D1*
X1439657D2*
X1531522D1*
X1594345D2*
X1759335D1*
X1796657D2*
X2099038D1*
X2198845D2*
X2379797D1*
X20199Y2001199D2*
X672327D1*
X723665D2*
X1171335D1*
X1208657D2*
X1215298D1*
X1267110D2*
X1388343D1*
X1439657D2*
X1543382D1*
X1606227D2*
X1759335D1*
X1796657D2*
X2110898D1*
X2210703D2*
X2379797D1*
X20199Y1989331D2*
X454030D1*
X506001D2*
X672327D1*
X723665D2*
X1171335D1*
X1255227D2*
X1388343D1*
X1439657D2*
X1555241D1*
X1618087D2*
X1759335D1*
X1796657D2*
X2022281D1*
X2049735D2*
X2122757D1*
X2222563D2*
X2379797D1*
X20199Y1977462D2*
X440062D1*
X519970D2*
X672327D1*
X723665D2*
X1171335D1*
X1243367D2*
X1388343D1*
X1439657D2*
X1567125D1*
X1629946D2*
X1759335D1*
X1796657D2*
X2010937D1*
X2061079D2*
X2134640D1*
X2234446D2*
X2379797D1*
X20199Y1965593D2*
X432913D1*
X527118D2*
X672327D1*
X723665D2*
X1171335D1*
X1231486D2*
X1388343D1*
X1439657D2*
X1578983D1*
X1641829D2*
X1759335D1*
X1796657D2*
X2008312D1*
X2067829D2*
X2146499D1*
X2246306D2*
X2379797D1*
X20199Y1953724D2*
X429514D1*
X530517D2*
X672327D1*
X723665D2*
X1171335D1*
X1228673D2*
X1388343D1*
X1439657D2*
X1590866D1*
X1653688D2*
X1759335D1*
X1796657D2*
X2011335D1*
X2079688D2*
X2158382D1*
X2258188D2*
X2379797D1*
X20199Y1941856D2*
X429070D1*
X530962D2*
X672327D1*
X723665D2*
X1171335D1*
X1228673D2*
X1388343D1*
X1439657D2*
X1602726D1*
X1665571D2*
X1759335D1*
X1796657D2*
X2023921D1*
X2091571D2*
X2170241D1*
X2270047D2*
X2379797D1*
X20199Y1929987D2*
X431530D1*
X528501D2*
X672327D1*
X723665D2*
X1171335D1*
X1228673D2*
X1388343D1*
X1439657D2*
X1614585D1*
X1677430D2*
X1759335D1*
X1796657D2*
X2040585D1*
X2103430D2*
X2182101D1*
X2281907D2*
X2379797D1*
X20199Y1918118D2*
X437413D1*
X522618D2*
X672327D1*
X723665D2*
X1171335D1*
X1228673D2*
X1388343D1*
X1439657D2*
X1626469D1*
X1689290D2*
X1759335D1*
X1796657D2*
X2052469D1*
X2115290D2*
X2193983D1*
X2286665D2*
X2379797D1*
X20199Y1906249D2*
X448640D1*
X511391D2*
X672327D1*
X723665D2*
X1171335D1*
X1228673D2*
X1388343D1*
X1439657D2*
X1638327D1*
X1701173D2*
X1757625D1*
X1798391D2*
X2064327D1*
X2127173D2*
X2205843D1*
X2286665D2*
X2379797D1*
X20199Y1894381D2*
X466546D1*
X493486D2*
X672327D1*
X723665D2*
X1171335D1*
X1228673D2*
X1388343D1*
X1439657D2*
X1650210D1*
X1713031D2*
X1751109D1*
X1804907D2*
X2076210D1*
X2139031D2*
X2217726D1*
X2286665D2*
X2379797D1*
X20199Y1882512D2*
X444773D1*
X515259D2*
X672327D1*
X723665D2*
X1171335D1*
X1228673D2*
X1388343D1*
X1439657D2*
X1662070D1*
X1724915D2*
X1750898D1*
X1805094D2*
X2088070D1*
X2150915D2*
X2227335D1*
X2286665D2*
X2379797D1*
X20199Y1870643D2*
X435421D1*
X524610D2*
X672327D1*
X723665D2*
X1171335D1*
X1228673D2*
X1388343D1*
X1439657D2*
X1673929D1*
X1736774D2*
X1756804D1*
X1799188D2*
X2099929D1*
X2162774D2*
X2227335D1*
X2286665D2*
X2379797D1*
X20199Y1858774D2*
X430570D1*
X529462D2*
X672327D1*
X723665D2*
X1171335D1*
X1228673D2*
X1388343D1*
X1439657D2*
X1685812D1*
X1748634D2*
X2111812D1*
X2174634D2*
X2227335D1*
X2286665D2*
X2379797D1*
X20199Y1846906D2*
X428906D1*
X531126D2*
X672327D1*
X723665D2*
X1171335D1*
X1228673D2*
X1388343D1*
X1439657D2*
X1697671D1*
X1760517D2*
X2063812D1*
X2084188D2*
X2123671D1*
X2186517D2*
X2227335D1*
X2286665D2*
X2379797D1*
X20199Y1835037D2*
X430125D1*
X529907D2*
X672327D1*
X723665D2*
X1171335D1*
X1228673D2*
X1388343D1*
X1439657D2*
X1709554D1*
X2098251D2*
X2135554D1*
X2197486D2*
X2227335D1*
X2286665D2*
X2379797D1*
X20199Y1823168D2*
X434437D1*
X525594D2*
X672327D1*
X723665D2*
X1171335D1*
X1228673D2*
X1388343D1*
X1439657D2*
X1721413D1*
X2101650D2*
X2147413D1*
X2200579D2*
X2227335D1*
X2286665D2*
X2379797D1*
X20199Y1811299D2*
X242906D1*
X317094D2*
X442945D1*
X517087D2*
X672327D1*
X723665D2*
X1171335D1*
X1228673D2*
X1386866D1*
X2099423D2*
X2155429D1*
X2200579D2*
X2227335D1*
X2286665D2*
X2379797D1*
X20199Y1799430D2*
X226850D1*
X333150D2*
X460850D1*
X499181D2*
X672327D1*
X723665D2*
X1171335D1*
X1228673D2*
X1387148D1*
X1739094D2*
X2058961D1*
X2089039D2*
X2155429D1*
X2200579D2*
X2227335D1*
X2286665D2*
X2379797D1*
X20199Y1787562D2*
X216937D1*
X343063D2*
X672327D1*
X723665D2*
X1171335D1*
X1228673D2*
X1393804D1*
X1741673D2*
X2155429D1*
X2200579D2*
X2227335D1*
X2286665D2*
X2379797D1*
X20199Y1775693D2*
X210445D1*
X349555D2*
X672327D1*
X723665D2*
X1171335D1*
X1228673D2*
X1408499D1*
X1738650D2*
X2155429D1*
X2200579D2*
X2227335D1*
X2286665D2*
X2379797D1*
X20199Y1763824D2*
X206437D1*
X353563D2*
X672327D1*
X723665D2*
X1171335D1*
X1228673D2*
X1427038D1*
X1725993D2*
X2155429D1*
X2200579D2*
X2227335D1*
X2286665D2*
X2379797D1*
X20199Y1751955D2*
X204514D1*
X355486D2*
X672327D1*
X723665D2*
X1171335D1*
X1228673D2*
X2155429D1*
X2200579D2*
X2227335D1*
X2286665D2*
X2379797D1*
X20199Y1740087D2*
X204514D1*
X355486D2*
X672327D1*
X723665D2*
X1171335D1*
X1228673D2*
X2155429D1*
X2200579D2*
X2227335D1*
X2286665D2*
X2379797D1*
X20199Y1728218D2*
X206437D1*
X353563D2*
X672327D1*
X723665D2*
X1171335D1*
X1228673D2*
X2155429D1*
X2200579D2*
X2227335D1*
X2286665D2*
X2379797D1*
X20199Y1716349D2*
X210445D1*
X349555D2*
X672327D1*
X723665D2*
X1171335D1*
X1228673D2*
X2155429D1*
X2200579D2*
X2227335D1*
X2286665D2*
X2379797D1*
X20199Y1704480D2*
X216913D1*
X343087D2*
X672327D1*
X723665D2*
X1171335D1*
X1228673D2*
X2155429D1*
X2200579D2*
X2227335D1*
X2286665D2*
X2379797D1*
X20199Y1692612D2*
X226804D1*
X333196D2*
X672327D1*
X723665D2*
X1171335D1*
X1228673D2*
X2155429D1*
X2200579D2*
X2227335D1*
X2286665D2*
X2379797D1*
X20199Y1680743D2*
X242812D1*
X317188D2*
X672327D1*
X723665D2*
X1171335D1*
X1228673D2*
X2155429D1*
X2200579D2*
X2227335D1*
X2286665D2*
X2379797D1*
X20199Y1668874D2*
X672327D1*
X723665D2*
X1171335D1*
X1228673D2*
X2155429D1*
X2200579D2*
X2227335D1*
X2286665D2*
X2379797D1*
X20199Y1657005D2*
X672327D1*
X723665D2*
X1171335D1*
X1228673D2*
X2155429D1*
X2200579D2*
X2227335D1*
X2286665D2*
X2379797D1*
X20199Y1645136D2*
X672327D1*
X723665D2*
X1171335D1*
X1228673D2*
X2155429D1*
X2200579D2*
X2227335D1*
X2286665D2*
X2379797D1*
X20199Y1633268D2*
X672327D1*
X723665D2*
X1171335D1*
X1228673D2*
X2155429D1*
X2200579D2*
X2227335D1*
X2286665D2*
X2379797D1*
X20199Y1621399D2*
X672327D1*
X723665D2*
X1171335D1*
X1228673D2*
X2155429D1*
X2200579D2*
X2227335D1*
X2286665D2*
X2379797D1*
X20199Y1609530D2*
X672327D1*
X723665D2*
X1171335D1*
X1228673D2*
X2155429D1*
X2200579D2*
X2227335D1*
X2286665D2*
X2379797D1*
X20199Y1597661D2*
X672327D1*
X723665D2*
X1171335D1*
X1228673D2*
X2155429D1*
X2200579D2*
X2227335D1*
X2286665D2*
X2379797D1*
X20199Y1585793D2*
X672327D1*
X723665D2*
X1171335D1*
X1228673D2*
X2155429D1*
X2200579D2*
X2227335D1*
X2286665D2*
X2379797D1*
X20199Y1573924D2*
X672327D1*
X723665D2*
X1171335D1*
X1228673D2*
X2155429D1*
X2200579D2*
X2227335D1*
X2286665D2*
X2379797D1*
X20199Y1562055D2*
X672327D1*
X723665D2*
X1171335D1*
X1228673D2*
X2155429D1*
X2200579D2*
X2227335D1*
X2286665D2*
X2379797D1*
X20199Y1550186D2*
X672327D1*
X723665D2*
X1171335D1*
X1228673D2*
X2155429D1*
X2200579D2*
X2227335D1*
X2286665D2*
X2379797D1*
X20199Y1538318D2*
X672327D1*
X723665D2*
X1171335D1*
X1228673D2*
X1239678D1*
X1471322D2*
X1514694D1*
X1744322D2*
X2155429D1*
X2200579D2*
X2227335D1*
X2286665D2*
X2379797D1*
X20199Y1526449D2*
X672327D1*
X723665D2*
X1171335D1*
X1477883D2*
X1508133D1*
X1750883D2*
X2155429D1*
X2200579D2*
X2227335D1*
X2286665D2*
X2379797D1*
X20199Y1514580D2*
X672327D1*
X723665D2*
X1171335D1*
X1478118D2*
X1507898D1*
X1751118D2*
X2155429D1*
X2200579D2*
X2227335D1*
X2286665D2*
X2379797D1*
X20199Y1502711D2*
X672327D1*
X723665D2*
X1171335D1*
X1228673D2*
X1238741D1*
X1472259D2*
X1513757D1*
X1745259D2*
X2155429D1*
X2200579D2*
X2227335D1*
X2286665D2*
X2379797D1*
X20199Y1490843D2*
X672327D1*
X723665D2*
X1171335D1*
X1228673D2*
X2155429D1*
X2200579D2*
X2227335D1*
X2286665D2*
X2379797D1*
X20199Y1478974D2*
X672327D1*
X723665D2*
X1171335D1*
X1228673D2*
X2155429D1*
X2200579D2*
X2227335D1*
X2286665D2*
X2379797D1*
X20199Y1467105D2*
X672327D1*
X723665D2*
X1171335D1*
X1228673D2*
X2086804D1*
X2121196D2*
X2155429D1*
X2200579D2*
X2227335D1*
X2286665D2*
X2379797D1*
X20199Y1455236D2*
X672327D1*
X723665D2*
X1060991D1*
X1095009D2*
X1171335D1*
X1228673D2*
X2077991D1*
X2130009D2*
X2155429D1*
X2200579D2*
X2227335D1*
X2286665D2*
X2379797D1*
X20199Y1443367D2*
X672327D1*
X723665D2*
X1052038D1*
X1103962D2*
X1171335D1*
X1228673D2*
X2076445D1*
X2131555D2*
X2155429D1*
X2200579D2*
X2227335D1*
X2286665D2*
X2379797D1*
X20199Y1431499D2*
X672327D1*
X723665D2*
X1050445D1*
X1105555D2*
X1171335D1*
X1228673D2*
X2080640D1*
X2127360D2*
X2155429D1*
X2200579D2*
X2227335D1*
X2286665D2*
X2379797D1*
X20199Y1419630D2*
X672327D1*
X723665D2*
X1052343D1*
X1103657D2*
X1171335D1*
X1228673D2*
X2085327D1*
X2122673D2*
X2155429D1*
X2200579D2*
X2227335D1*
X2286665D2*
X2379797D1*
X20199Y1407761D2*
X672327D1*
X723665D2*
X1052343D1*
X1103657D2*
X1171335D1*
X1228673D2*
X2085327D1*
X2122673D2*
X2155429D1*
X2200579D2*
X2227335D1*
X2286665D2*
X2379797D1*
X20199Y1395892D2*
X672327D1*
X723665D2*
X1052343D1*
X1103657D2*
X1171335D1*
X1228673D2*
X2085327D1*
X2122673D2*
X2155429D1*
X2200579D2*
X2227335D1*
X2286665D2*
X2379797D1*
X20199Y1384024D2*
X672327D1*
X723665D2*
X1052343D1*
X1103657D2*
X1171335D1*
X1228673D2*
X2085327D1*
X2122673D2*
X2155429D1*
X2200579D2*
X2227335D1*
X2286665D2*
X2379797D1*
X20199Y1372155D2*
X672327D1*
X723665D2*
X1052343D1*
X1103657D2*
X1171335D1*
X1228673D2*
X2085327D1*
X2122673D2*
X2155429D1*
X2200579D2*
X2227335D1*
X2286665D2*
X2379797D1*
X20199Y1360286D2*
X672327D1*
X723665D2*
X1052343D1*
X1103657D2*
X1171335D1*
X1228673D2*
X2085327D1*
X2122673D2*
X2155429D1*
X2200579D2*
X2227335D1*
X2286665D2*
X2379797D1*
X20199Y1348417D2*
X672327D1*
X723665D2*
X1052343D1*
X1103657D2*
X1171335D1*
X1228673D2*
X2085327D1*
X2122673D2*
X2155429D1*
X2200579D2*
X2227335D1*
X2286665D2*
X2379797D1*
X20199Y1336549D2*
X672327D1*
X723665D2*
X1052343D1*
X1103657D2*
X1171335D1*
X1228673D2*
X2012133D1*
X2055875D2*
X2085327D1*
X2122673D2*
X2155429D1*
X2200579D2*
X2227335D1*
X2286665D2*
X2379797D1*
X20199Y1324680D2*
X672327D1*
X723665D2*
X1052343D1*
X1103657D2*
X1171335D1*
X1228673D2*
X2006741D1*
X2061266D2*
X2085327D1*
X2122673D2*
X2155429D1*
X2200579D2*
X2227335D1*
X2286665D2*
X2379797D1*
X20199Y1312811D2*
X672327D1*
X723665D2*
X1052343D1*
X1103657D2*
X1171335D1*
X1228673D2*
X2007304D1*
X2060681D2*
X2085327D1*
X2122673D2*
X2155429D1*
X2200579D2*
X2227335D1*
X2286665D2*
X2379797D1*
X20199Y1300942D2*
X672327D1*
X723665D2*
X1052343D1*
X1103657D2*
X1171335D1*
X1228673D2*
X2014406D1*
X2053579D2*
X2085327D1*
X2122673D2*
X2155429D1*
X2200579D2*
X2227335D1*
X2286665D2*
X2379797D1*
X20199Y1289073D2*
X672327D1*
X723665D2*
X1052343D1*
X1103657D2*
X1171335D1*
X1228673D2*
X2085327D1*
X2122673D2*
X2155429D1*
X2200579D2*
X2227335D1*
X2286665D2*
X2379797D1*
X20199Y1277205D2*
X672327D1*
X723665D2*
X1052343D1*
X1103657D2*
X1171335D1*
X1228673D2*
X2085327D1*
X2122673D2*
X2155429D1*
X2200579D2*
X2227335D1*
X2286665D2*
X2379797D1*
X20199Y1265336D2*
X672327D1*
X723665D2*
X1052343D1*
X1103657D2*
X1171335D1*
X1228673D2*
X2085327D1*
X2122673D2*
X2155429D1*
X2200579D2*
X2227335D1*
X2286665D2*
X2379797D1*
X20199Y1253467D2*
X672327D1*
X723665D2*
X1052343D1*
X1103657D2*
X1171335D1*
X1228673D2*
X2085327D1*
X2122673D2*
X2155429D1*
X2200579D2*
X2227335D1*
X2286665D2*
X2379797D1*
X20199Y1241598D2*
X672327D1*
X723665D2*
X1052343D1*
X1103657D2*
X1171335D1*
X1228673D2*
X2085327D1*
X2122673D2*
X2155429D1*
X2200579D2*
X2227335D1*
X2286665D2*
X2379797D1*
X20199Y1229730D2*
X672327D1*
X723665D2*
X1052343D1*
X1103657D2*
X1171335D1*
X1228673D2*
X2085327D1*
X2122673D2*
X2155429D1*
X2200579D2*
X2227335D1*
X2286665D2*
X2379797D1*
X20199Y1217861D2*
X672327D1*
X723665D2*
X1052343D1*
X1103657D2*
X1171335D1*
X1228673D2*
X2085327D1*
X2122673D2*
X2155429D1*
X2200579D2*
X2227335D1*
X2286665D2*
X2379797D1*
X20199Y1205992D2*
X672327D1*
X723665D2*
X1052343D1*
X1103657D2*
X1171335D1*
X1228673D2*
X2085327D1*
X2122673D2*
X2155429D1*
X2200579D2*
X2227335D1*
X2286665D2*
X2379797D1*
X20199Y1194123D2*
X672327D1*
X723665D2*
X1052343D1*
X1103657D2*
X1171335D1*
X1228673D2*
X2085327D1*
X2122673D2*
X2155429D1*
X2200579D2*
X2227335D1*
X2286665D2*
X2379797D1*
X20199Y1182255D2*
X672327D1*
X723665D2*
X1052343D1*
X1103657D2*
X1171335D1*
X1228673D2*
X2085327D1*
X2122673D2*
X2155429D1*
X2200579D2*
X2227335D1*
X2286665D2*
X2379797D1*
X20199Y1170386D2*
X672327D1*
X723665D2*
X1052343D1*
X1103657D2*
X1171335D1*
X1228673D2*
X1269749D1*
X1310259D2*
X2085327D1*
X2122673D2*
X2155429D1*
X2200579D2*
X2227335D1*
X2286665D2*
X2379797D1*
X20199Y1158517D2*
X672327D1*
X723665D2*
X1052343D1*
X1103657D2*
X1171335D1*
X1228673D2*
X1263140D1*
X1316867D2*
X2062781D1*
X2122673D2*
X2155429D1*
X2200579D2*
X2227335D1*
X2286665D2*
X2379797D1*
X20199Y1146648D2*
X101133D1*
X158867D2*
X278297D1*
X336031D2*
X672327D1*
X723665D2*
X1052343D1*
X1103657D2*
X1171335D1*
X1228673D2*
X1262858D1*
X1321251D2*
X1758749D1*
X2122673D2*
X2155429D1*
X2200579D2*
X2227335D1*
X2286665D2*
X2379797D1*
X20199Y1134780D2*
X84961D1*
X175039D2*
X262125D1*
X352203D2*
X672327D1*
X723665D2*
X1052343D1*
X1103657D2*
X1171335D1*
X1228673D2*
X1268694D1*
X1333134D2*
X1746866D1*
X2122673D2*
X2155429D1*
X2200579D2*
X2227335D1*
X2286665D2*
X2379797D1*
X20199Y1122911D2*
X75913D1*
X184087D2*
X253077D1*
X361251D2*
X672327D1*
X723665D2*
X1052343D1*
X1103657D2*
X1171335D1*
X1228673D2*
X1293186D1*
X1344993D2*
X1735007D1*
X2122673D2*
X2155429D1*
X2200579D2*
X2227335D1*
X2286665D2*
X2379797D1*
X20199Y1111042D2*
X70593D1*
X189407D2*
X247757D1*
X366571D2*
X672327D1*
X723665D2*
X1052343D1*
X1103657D2*
X1171335D1*
X1228673D2*
X1305046D1*
X1356852D2*
X1723148D1*
X1774954D2*
X2059617D1*
X2122673D2*
X2155429D1*
X2200579D2*
X2227335D1*
X2286665D2*
X2379797D1*
X20199Y1099173D2*
X67969D1*
X192031D2*
X245133D1*
X369196D2*
X672327D1*
X723665D2*
X906585D1*
X925415D2*
X1052343D1*
X1103657D2*
X1171335D1*
X1228673D2*
X1316929D1*
X1368735D2*
X1711265D1*
X1763071D2*
X2085327D1*
X2122673D2*
X2155429D1*
X2200579D2*
X2227335D1*
X2286665D2*
X2379797D1*
X20199Y1087304D2*
X67734D1*
X192266D2*
X244898D1*
X369430D2*
X672327D1*
X723665D2*
X891913D1*
X940087D2*
X1052343D1*
X1103657D2*
X1171335D1*
X1228673D2*
X1328789D1*
X1380594D2*
X1699406D1*
X1751211D2*
X2085327D1*
X2122673D2*
X2155429D1*
X2200579D2*
X2227335D1*
X2286665D2*
X2379797D1*
X20199Y1075436D2*
X69843D1*
X190157D2*
X247007D1*
X367322D2*
X672327D1*
X723665D2*
X780866D1*
X823134D2*
X888350D1*
X943650D2*
X1052343D1*
X1103657D2*
X1171335D1*
X1228673D2*
X1340671D1*
X1392478D2*
X1687522D1*
X1739329D2*
X2023429D1*
X2040571D2*
X2085327D1*
X2122673D2*
X2155429D1*
X2200579D2*
X2227335D1*
X2286665D2*
X2379797D1*
X20199Y1063567D2*
X74554D1*
X185446D2*
X251718D1*
X362610D2*
X672327D1*
X723665D2*
X774913D1*
X829087D2*
X890461D1*
X941539D2*
X1052343D1*
X1103657D2*
X1171335D1*
X1228673D2*
X1352530D1*
X1404290D2*
X1675663D1*
X1727470D2*
X2008054D1*
X2055946D2*
X2085327D1*
X2122673D2*
X2155429D1*
X2200579D2*
X2227335D1*
X2286665D2*
X2379797D1*
X20199Y1051698D2*
X82686D1*
X177314D2*
X259850D1*
X354478D2*
X672327D1*
X723665D2*
X775077D1*
X828923D2*
X900514D1*
X931486D2*
X1052343D1*
X1103657D2*
X1171335D1*
X1228673D2*
X1364390D1*
X1408673D2*
X1663804D1*
X1715610D2*
X2004374D1*
X2059626D2*
X2085327D1*
X2122673D2*
X2155429D1*
X2200579D2*
X2227335D1*
X2286665D2*
X2379797D1*
X20199Y1039829D2*
X96702D1*
X163298D2*
X273866D1*
X340462D2*
X672327D1*
X723665D2*
X781546D1*
X822454D2*
X1052343D1*
X1103657D2*
X1171335D1*
X1228673D2*
X1371327D1*
X1408673D2*
X1651921D1*
X1703727D2*
X2006343D1*
X2057657D2*
X2085327D1*
X2122673D2*
X2155429D1*
X2200579D2*
X2227335D1*
X2286665D2*
X2379797D1*
X20199Y1027961D2*
X672327D1*
X723665D2*
X1052343D1*
X1103657D2*
X1171335D1*
X1228673D2*
X1371327D1*
X1408673D2*
X1640062D1*
X1691867D2*
X2016117D1*
X2047883D2*
X2085327D1*
X2122673D2*
X2155429D1*
X2200579D2*
X2227335D1*
X2286665D2*
X2379797D1*
X20199Y1016092D2*
X672327D1*
X723665D2*
X1052343D1*
X1103657D2*
X1171335D1*
X1228673D2*
X1371327D1*
X1408673D2*
X1628178D1*
X1679986D2*
X2085327D1*
X2122673D2*
X2155429D1*
X2200579D2*
X2227335D1*
X2286665D2*
X2379797D1*
X20199Y1004223D2*
X672327D1*
X723665D2*
X790101D1*
X813899D2*
X1052343D1*
X1103657D2*
X1171335D1*
X1228673D2*
X1371327D1*
X1408673D2*
X1616319D1*
X1668126D2*
X2085327D1*
X2122673D2*
X2155429D1*
X2200579D2*
X2227335D1*
X2286665D2*
X2379797D1*
X20199Y992354D2*
X672327D1*
X723665D2*
X777374D1*
X826626D2*
X1052343D1*
X1103657D2*
X1171335D1*
X1228673D2*
X1371327D1*
X1408673D2*
X1604461D1*
X1656266D2*
X2085327D1*
X2122673D2*
X2155429D1*
X2200579D2*
X2227335D1*
X2286665D2*
X2379797D1*
X20199Y980486D2*
X672327D1*
X723665D2*
X774327D1*
X829673D2*
X1052343D1*
X1103657D2*
X1171335D1*
X1228673D2*
X1371327D1*
X1408673D2*
X1592577D1*
X1644383D2*
X2085327D1*
X2122673D2*
X2155429D1*
X2200579D2*
X2227335D1*
X2286665D2*
X2379797D1*
X20199Y968617D2*
X672327D1*
X723665D2*
X776882D1*
X827118D2*
X1052343D1*
X1103657D2*
X1171335D1*
X1228673D2*
X1371327D1*
X1408673D2*
X1580718D1*
X1632524D2*
X2085327D1*
X2122673D2*
X2155429D1*
X2200579D2*
X2227335D1*
X2286665D2*
X2379797D1*
X20199Y956748D2*
X672327D1*
X723665D2*
X788133D1*
X815867D2*
X1052343D1*
X1103657D2*
X1171335D1*
X1228673D2*
X1371327D1*
X1408673D2*
X1568835D1*
X1620642D2*
X2085327D1*
X2122673D2*
X2155429D1*
X2200579D2*
X2227335D1*
X2286665D2*
X2379797D1*
X20199Y944879D2*
X672327D1*
X723665D2*
X1052343D1*
X1103657D2*
X1171335D1*
X1228673D2*
X1371327D1*
X1408673D2*
X1556976D1*
X1649493D2*
X2065476D1*
X2122673D2*
X2155429D1*
X2200579D2*
X2227335D1*
X2286665D2*
X2379797D1*
X20199Y933010D2*
X672327D1*
X723665D2*
X1052343D1*
X1103657D2*
X1171335D1*
X1228673D2*
X1371327D1*
X1408673D2*
X1545117D1*
X1658094D2*
X2054718D1*
X2122673D2*
X2155429D1*
X2200579D2*
X2227335D1*
X2286665D2*
X2379797D1*
X20199Y921142D2*
X672327D1*
X723665D2*
X784850D1*
X819150D2*
X1052343D1*
X1103657D2*
X1171335D1*
X1228673D2*
X1371327D1*
X1408673D2*
X1533234D1*
X1659524D2*
X1694483D1*
X1713501D2*
X2052327D1*
X2122673D2*
X2155429D1*
X2200579D2*
X2227335D1*
X2286665D2*
X2379797D1*
X20199Y909273D2*
X672327D1*
X723665D2*
X775991D1*
X828009D2*
X1052343D1*
X1103657D2*
X1171335D1*
X1228673D2*
X1371327D1*
X1408673D2*
X1521374D1*
X1655211D2*
X1679882D1*
X1728102D2*
X2055585D1*
X2122673D2*
X2155429D1*
X2200579D2*
X2227335D1*
X2286665D2*
X2379797D1*
X20199Y897404D2*
X672327D1*
X723665D2*
X774445D1*
X829555D2*
X895265D1*
X940743D2*
X1052343D1*
X1103657D2*
X1171335D1*
X1228673D2*
X1371327D1*
X1408673D2*
X1509491D1*
X1597298D2*
X1676366D1*
X1731642D2*
X2061327D1*
X2122673D2*
X2155429D1*
X2200579D2*
X2227335D1*
X2286665D2*
X2379797D1*
X20199Y885535D2*
X672327D1*
X723665D2*
X778617D1*
X825383D2*
X890554D1*
X945454D2*
X1052343D1*
X1103657D2*
X1171335D1*
X1228673D2*
X1371327D1*
X1408673D2*
X1497633D1*
X1585438D2*
X1678476D1*
X1729531D2*
X2061327D1*
X2122673D2*
X2155429D1*
X2200579D2*
X2227335D1*
X2286665D2*
X2379797D1*
X20199Y873667D2*
X672327D1*
X723665D2*
X891655D1*
X944329D2*
X1052343D1*
X1103657D2*
X1171335D1*
X1228673D2*
X1371327D1*
X1408673D2*
X1485773D1*
X1573579D2*
X1688577D1*
X1719430D2*
X2061327D1*
X2122673D2*
X2155429D1*
X2200579D2*
X2227335D1*
X2286665D2*
X2379797D1*
X20199Y861798D2*
X672327D1*
X723665D2*
X899671D1*
X936314D2*
X1052343D1*
X1103657D2*
X1171335D1*
X1228673D2*
X1371327D1*
X1408673D2*
X1473890D1*
X1561696D2*
X2061327D1*
X2122673D2*
X2155429D1*
X2200579D2*
X2227335D1*
X2286665D2*
X2379797D1*
X20199Y849929D2*
X672327D1*
X723665D2*
X1052343D1*
X1103657D2*
X1171335D1*
X1231978D2*
X1371327D1*
X1408673D2*
X1462030D1*
X1549837D2*
X2061327D1*
X2122673D2*
X2155429D1*
X2200579D2*
X2227335D1*
X2286665D2*
X2379797D1*
X20199Y838060D2*
X672327D1*
X723665D2*
X1052343D1*
X1103657D2*
X1171335D1*
X1243837D2*
X1371327D1*
X1408673D2*
X1450148D1*
X1537954D2*
X2061327D1*
X2122673D2*
X2155429D1*
X2200579D2*
X2227335D1*
X2286665D2*
X2379797D1*
X20199Y826192D2*
X672327D1*
X723665D2*
X1052343D1*
X1103657D2*
X1171335D1*
X1255719D2*
X1371327D1*
X1408673D2*
X1438289D1*
X1526094D2*
X2061327D1*
X2122673D2*
X2155429D1*
X2200579D2*
X2227335D1*
X2286665D2*
X2379797D1*
X20199Y814323D2*
X672327D1*
X723665D2*
X1052343D1*
X1103657D2*
X1171335D1*
X1267579D2*
X1371327D1*
X1408673D2*
X1426429D1*
X1514235D2*
X2061327D1*
X2122673D2*
X2155429D1*
X2200579D2*
X2227335D1*
X2286665D2*
X2379797D1*
X20199Y802454D2*
X672327D1*
X723665D2*
X1052343D1*
X1103657D2*
X1171406D1*
X1279438D2*
X1371327D1*
X1502352D2*
X2061327D1*
X2122673D2*
X2155429D1*
X2200579D2*
X2227335D1*
X2286665D2*
X2379797D1*
X20199Y790585D2*
X672327D1*
X723665D2*
X1042781D1*
X1103657D2*
X1177522D1*
X1291322D2*
X1371327D1*
X1490493D2*
X2061327D1*
X2122673D2*
X2155429D1*
X2200579D2*
X2227335D1*
X2286665D2*
X2379797D1*
X20199Y778717D2*
X672327D1*
X723665D2*
X770999D1*
X829017D2*
X1030921D1*
X1100915D2*
X1189382D1*
X1303181D2*
X1371327D1*
X1478610D2*
X2061327D1*
X2122673D2*
X2155429D1*
X2200579D2*
X2227335D1*
X2286665D2*
X2379797D1*
X20199Y766848D2*
X672327D1*
X723665D2*
X760640D1*
X1090650D2*
X1201241D1*
X1315063D2*
X1371327D1*
X1969134D2*
X2061327D1*
X2122673D2*
X2155429D1*
X2200579D2*
X2227335D1*
X2286665D2*
X2379797D1*
X20199Y754979D2*
X672327D1*
X723665D2*
X755694D1*
X1078790D2*
X1213125D1*
X1326923D2*
X1371327D1*
X1973517D2*
X2061327D1*
X2122673D2*
X2155429D1*
X2200579D2*
X2227335D1*
X2286665D2*
X2379797D1*
X20199Y743110D2*
X672327D1*
X723665D2*
X754335D1*
X1066907D2*
X1224983D1*
X1338782D2*
X1371327D1*
X1972134D2*
X2061327D1*
X2122673D2*
X2155429D1*
X2200579D2*
X2227335D1*
X2286665D2*
X2379797D1*
X20199Y731241D2*
X672327D1*
X723665D2*
X756186D1*
X1055047D2*
X1236866D1*
X1350665D2*
X1371327D1*
X1906650D2*
X1928366D1*
X1963650D2*
X2061327D1*
X2122673D2*
X2155429D1*
X2200579D2*
X2227335D1*
X2286665D2*
X2379797D1*
X20199Y719373D2*
X672327D1*
X723665D2*
X761765D1*
X838251D2*
X1248726D1*
X1918531D2*
X2061327D1*
X2122673D2*
X2155429D1*
X2200579D2*
X2227335D1*
X2286665D2*
X2379797D1*
X20199Y707504D2*
X672327D1*
X723665D2*
X773366D1*
X826626D2*
X1260585D1*
X1472657D2*
X1486030D1*
X1970657D2*
X2061327D1*
X2122673D2*
X2155429D1*
X2200579D2*
X2227335D1*
X2286665D2*
X2379797D1*
X20199Y695635D2*
X672327D1*
X723665D2*
X1272469D1*
X1472657D2*
X1503093D1*
X1975438D2*
X2061327D1*
X2122673D2*
X2155429D1*
X2200579D2*
X2227335D1*
X2286665D2*
X2379797D1*
X20199Y683766D2*
X672327D1*
X723665D2*
X778874D1*
X821118D2*
X1284327D1*
X1472657D2*
X1509609D1*
X1858134D2*
X1868343D1*
X1974360D2*
X2061327D1*
X2122673D2*
X2155429D1*
X2200579D2*
X2227335D1*
X2286665D2*
X2379797D1*
X20199Y671898D2*
X672327D1*
X729899D2*
X764155D1*
X835837D2*
X1296210D1*
X1356478D2*
X1371327D1*
X1472657D2*
X1532648D1*
X1869993D2*
X1880202D1*
X1966438D2*
X2061327D1*
X2122673D2*
X2155429D1*
X2200579D2*
X2227335D1*
X2286665D2*
X2379797D1*
X20199Y660029D2*
X673663D1*
X842681D2*
X1302609D1*
X1357391D2*
X1371327D1*
X1472657D2*
X1537686D1*
X1881875D2*
X1892062D1*
X1943867D2*
X2061327D1*
X2122673D2*
X2155429D1*
X2200579D2*
X2227335D1*
X2286665D2*
X2379797D1*
X20199Y648160D2*
X682030D1*
X845493D2*
X1307577D1*
X1352423D2*
X1371327D1*
X1472657D2*
X1841929D1*
X1893735D2*
X1903945D1*
X1968478D2*
X2061327D1*
X2122673D2*
X2155429D1*
X2200579D2*
X2227335D1*
X2286665D2*
X2379797D1*
X20199Y636291D2*
X693913D1*
X845001D2*
X1371327D1*
X1472657D2*
X1853812D1*
X1905618D2*
X1915804D1*
X1974923D2*
X2061327D1*
X2122673D2*
X2155429D1*
X2200579D2*
X2227335D1*
X2286665D2*
X2379797D1*
X20199Y624423D2*
X705773D1*
X841134D2*
X1371327D1*
X1472657D2*
X1865671D1*
X1975087D2*
X2061327D1*
X2122673D2*
X2155429D1*
X2200579D2*
X2227335D1*
X2286665D2*
X2379797D1*
X20199Y612554D2*
X767343D1*
X832650D2*
X1371327D1*
X1472657D2*
X1877554D1*
X1969110D2*
X2061327D1*
X2122673D2*
X2155429D1*
X2200579D2*
X2227335D1*
X2286665D2*
X2379797D1*
X20199Y600685D2*
X788694D1*
X811322D2*
X1371327D1*
X1472657D2*
X1889413D1*
X1941219D2*
X2056781D1*
X2122673D2*
X2147273D1*
X2200579D2*
X2227335D1*
X2286665D2*
X2379797D1*
X20199Y588816D2*
X1371327D1*
X1472657D2*
X1901273D1*
X1965571D2*
X2044921D1*
X2122626D2*
X2135390D1*
X2197415D2*
X2227335D1*
X2286665D2*
X2379797D1*
X20199Y576948D2*
X754312D1*
X845681D2*
X1371327D1*
X1472657D2*
X1913155D1*
X1974126D2*
X2033038D1*
X2116860D2*
X2123526D1*
X2186375D2*
X2227335D1*
X2286665D2*
X2379797D1*
X20199Y565079D2*
X754312D1*
X845681D2*
X1371327D1*
X1472657D2*
X1920491D1*
X1975509D2*
X2021178D1*
X2104978D2*
X2111675D1*
X2174493D2*
X2227335D1*
X2286665D2*
X2379797D1*
X20199Y553210D2*
X754312D1*
X845681D2*
X1371327D1*
X1472657D2*
X1924827D1*
X1971173D2*
X2009319D1*
X2093118D2*
X2099782D1*
X2162634D2*
X2227335D1*
X2286665D2*
X2379797D1*
X20199Y541341D2*
X754312D1*
X845681D2*
X1371327D1*
X1472657D2*
X1997437D1*
X2081235D2*
X2087929D1*
X2150751D2*
X2227335D1*
X2286665D2*
X2379797D1*
X20199Y529472D2*
X754312D1*
X845681D2*
X1371327D1*
X1472657D2*
X1754014D1*
X1935150D2*
X1985577D1*
X2069375D2*
X2076046D1*
X2138891D2*
X2227335D1*
X2286665D2*
X2379797D1*
X20199Y517604D2*
X147633D1*
X185306D2*
X754312D1*
X845681D2*
X1315499D1*
X1348509D2*
X1371327D1*
X1472657D2*
X1559483D1*
X1592517D2*
X1740186D1*
X1942555D2*
X1973694D1*
X2127031D2*
X2227335D1*
X2286665D2*
X2379797D1*
X20199Y505735D2*
X135163D1*
X197774D2*
X754312D1*
X845681D2*
X1306171D1*
X1357837D2*
X1371327D1*
X1472657D2*
X1550178D1*
X1601822D2*
X1728327D1*
X1943329D2*
X1961835D1*
X2115150D2*
X2227335D1*
X2286665D2*
X2379797D1*
X20199Y493866D2*
X130358D1*
X202579D2*
X1304413D1*
X1359594D2*
X1371327D1*
X1472657D2*
X1548398D1*
X1603602D2*
X1711429D1*
X1938196D2*
X1949976D1*
X2033774D2*
X2044312D1*
X2103290D2*
X2227335D1*
X2286665D2*
X2379797D1*
X20199Y481997D2*
X129913D1*
X203024D2*
X1308327D1*
X1355681D2*
X1371327D1*
X1408673D2*
X1435335D1*
X1472657D2*
X1552335D1*
X1599665D2*
X1699148D1*
X1767407D2*
X1938093D1*
X2021891D2*
X2047194D1*
X2096798D2*
X2227335D1*
X2286665D2*
X2379797D1*
X20199Y470129D2*
X133640D1*
X199274D2*
X1325155D1*
X1338852D2*
X1371327D1*
X1408673D2*
X1433507D1*
X1474509D2*
X1569163D1*
X1582837D2*
X1696218D1*
X1755547D2*
X1926234D1*
X2010031D2*
X2059335D1*
X2084657D2*
X2227335D1*
X2286665D2*
X2379797D1*
X20199Y458260D2*
X143648D1*
X189290D2*
X1371327D1*
X1408673D2*
X1427062D1*
X1480930D2*
X1698913D1*
X1748891D2*
X1914350D1*
X1998173D2*
X2224570D1*
X2286665D2*
X2379797D1*
X20199Y446391D2*
X871335D1*
X900665D2*
X1371327D1*
X1408673D2*
X1426921D1*
X1481071D2*
X1710538D1*
X1737290D2*
X1902491D1*
X1986290D2*
X2212686D1*
X2286665D2*
X2379797D1*
X20199Y434522D2*
X852445D1*
X919555D2*
X1371327D1*
X1408673D2*
X1432898D1*
X1475094D2*
X1890633D1*
X1974430D2*
X2200827D1*
X2286665D2*
X2379797D1*
X20199Y422654D2*
X844429D1*
X927571D2*
X1371327D1*
X1408673D2*
X1878749D1*
X1962547D2*
X2188945D1*
X2240751D2*
X2249331D1*
X2286665D2*
X2379797D1*
X20199Y410785D2*
X840843D1*
X931157D2*
X1371327D1*
X1408673D2*
X1866890D1*
X1950688D2*
X2177085D1*
X2228891D2*
X2249343D1*
X2286665D2*
X2379797D1*
X20199Y398916D2*
X840609D1*
X931391D2*
X1371327D1*
X1408673D2*
X1855007D1*
X1938829D2*
X2165226D1*
X2217009D2*
X2249343D1*
X2286665D2*
X2379797D1*
X20199Y387047D2*
X843678D1*
X928322D2*
X1371327D1*
X1414860D2*
X1843148D1*
X1926946D2*
X2153343D1*
X2205150D2*
X2249343D1*
X2286665D2*
X2379797D1*
X20199Y375178D2*
X850921D1*
X921079D2*
X1375101D1*
X1426719D2*
X1831265D1*
X1915087D2*
X2141483D1*
X2193290D2*
X2249343D1*
X2286665D2*
X2379797D1*
X20199Y363310D2*
X866835D1*
X905165D2*
X1386797D1*
X1451235D2*
X1819406D1*
X1903203D2*
X2129601D1*
X2181407D2*
X2241398D1*
X2286665D2*
X2379797D1*
X20199Y351441D2*
X1398655D1*
X1457118D2*
X1564710D1*
X1603298D2*
X1807546D1*
X1891345D2*
X1995257D1*
X2028735D2*
X2117741D1*
X2169547D2*
X2229538D1*
X2281345D2*
X2379797D1*
X20199Y339572D2*
X141070D1*
X191867D2*
X1403109D1*
X1879486D2*
X1986117D1*
X2037899D2*
X2105882D1*
X2157665D2*
X2217678D1*
X2269486D2*
X2379797D1*
X20199Y327703D2*
X132609D1*
X200329D2*
X1409648D1*
X1867602D2*
X1984429D1*
X2039587D2*
X2093999D1*
X2145806D2*
X2205797D1*
X2257602D2*
X2379797D1*
X20199Y315835D2*
X129678D1*
X203235D2*
X1431937D1*
X1855743D2*
X1988437D1*
X2035579D2*
X2082140D1*
X2133946D2*
X2193937D1*
X2245743D2*
X2379797D1*
X20199Y303966D2*
X130874D1*
X202063D2*
X1420054D1*
X1843860D2*
X2005969D1*
X2018028D2*
X2063812D1*
X2122063D2*
X2182054D1*
X2233860D2*
X2379797D1*
X20199Y292097D2*
X136663D1*
X196274D2*
X1408194D1*
X2110203D2*
X2170194D1*
X2222001D2*
X2379797D1*
X20199Y280228D2*
X152155D1*
X180782D2*
X1396335D1*
X2098322D2*
X2158335D1*
X2210142D2*
X2379797D1*
X20199Y268360D2*
X1384453D1*
X1436259D2*
X1446140D1*
X2096071D2*
X2146453D1*
X2198259D2*
X2379797D1*
X20199Y256491D2*
X1372593D1*
X1424399D2*
X1455350D1*
X1488642D2*
X2053546D1*
X2086837D2*
X2134593D1*
X2186399D2*
X2379797D1*
X20199Y244622D2*
X1360710D1*
X1412517D2*
X2112186D1*
X2174517D2*
X2379797D1*
X20199Y232753D2*
X1348850D1*
X1400657D2*
X1628858D1*
X2162657D2*
X2379797D1*
X20199Y220885D2*
X1143469D1*
X1172517D2*
X1336991D1*
X1388798D2*
X1616976D1*
X2157501D2*
X2379797D1*
X20199Y209016D2*
X1132710D1*
X1183274D2*
X1325109D1*
X1376915D2*
X1605117D1*
X2153024D2*
X2379797D1*
X20199Y197147D2*
X1130343D1*
X1185665D2*
X1313249D1*
X1365055D2*
X1593234D1*
X1645039D2*
X2379797D1*
X20199Y185278D2*
X1133577D1*
X1182430D2*
X1301366D1*
X1353173D2*
X1581374D1*
X1633181D2*
X2379797D1*
X20199Y173409D2*
X1146983D1*
X1169024D2*
X1289507D1*
X1341314D2*
X1569514D1*
X1621322D2*
X2379797D1*
X20199Y161541D2*
X1183804D1*
X1200196D2*
X1277648D1*
X1329454D2*
X1557633D1*
X1609438D2*
X2379797D1*
X20199Y149672D2*
X567937D1*
X1215875D2*
X1265765D1*
X1317571D2*
X1545773D1*
X1597579D2*
X2379797D1*
X20199Y137803D2*
X555890D1*
X1219626D2*
X1253906D1*
X1305711D2*
X1533890D1*
X1585696D2*
X1805226D1*
X1842782D2*
X2379797D1*
X20199Y125934D2*
X382804D1*
X473211D2*
X513445D1*
X1217681D2*
X1242022D1*
X1293829D2*
X1522030D1*
X1573837D2*
X1797538D1*
X1850470D2*
X2379797D1*
X20199Y114066D2*
X382804D1*
X473211D2*
X494671D1*
X583978D2*
X594655D1*
X661345D2*
X694663D1*
X761329D2*
X794671D1*
X961345D2*
X1175976D1*
X1208024D2*
X1230163D1*
X1281970D2*
X1510171D1*
X1561978D2*
X1796625D1*
X1851383D2*
X2203522D1*
X2240470D2*
X2379797D1*
X20199Y102197D2*
X382804D1*
X473211D2*
X486726D1*
X572094D2*
X586734D1*
X669266D2*
X686741D1*
X769274D2*
X786726D1*
X969266D2*
X1218304D1*
X1270110D2*
X1498289D1*
X1550094D2*
X1801546D1*
X1846438D2*
X2195625D1*
X2248367D2*
X2379797D1*
X20199Y90328D2*
X382804D1*
X473211D2*
X483257D1*
X572751D2*
X583241D1*
X672759D2*
X683249D1*
X772743D2*
X783257D1*
X972759D2*
X1206421D1*
X1258227D2*
X1474570D1*
X1538235D2*
X2194570D1*
X2249423D2*
X2379797D1*
X20199Y78459D2*
X382804D1*
X473211D2*
X483140D1*
X572867D2*
X583148D1*
X672852D2*
X683133D1*
X772860D2*
X783140D1*
X972852D2*
X1194562D1*
X1246367D2*
X1464469D1*
X1526352D2*
X2199350D1*
X2244642D2*
X2379797D1*
X20199Y66591D2*
X382804D1*
X473211D2*
X486374D1*
X569610D2*
X586382D1*
X669618D2*
X686390D1*
X769626D2*
X786374D1*
X969618D2*
X1182678D1*
X1234486D2*
X1462358D1*
X1517634D2*
X2379797D1*
X20199Y54722D2*
X382804D1*
X473211D2*
X493945D1*
X562063D2*
X593953D1*
X662047D2*
X693937D1*
X762055D2*
X793945D1*
X1222626D2*
X1465898D1*
X1514118D2*
X2379797D1*
X20199Y42853D2*
X382804D1*
X473211D2*
X511194D1*
X544814D2*
X611202D1*
X644798D2*
X711186D1*
X744806D2*
X811194D1*
X1210766D2*
X1480499D1*
X1499493D2*
X2379797D1*
X20199Y30984D2*
X851109D1*
X1198883D2*
X2379797D1*
X20199Y19115D2*
X2379797D1*
X930343Y400510D2*
X929251Y393617D1*
X927094Y386978D1*
X923925Y380760D1*
X919823Y375113D1*
X914887Y370177D1*
X909240Y366075D1*
X903022Y362906D1*
X896383Y360749D1*
X889490Y359657D1*
X882510D1*
X875617Y360749D1*
X868978Y362906D1*
X862760Y366075D1*
X857113Y370177D1*
X852177Y375113D1*
X848075Y380760D1*
X844906Y386978D1*
X842749Y393617D1*
X841657Y400510D1*
Y407490D1*
X842749Y414383D1*
X844906Y421022D1*
X848075Y427240D1*
X852177Y432887D1*
X857113Y437823D1*
X862760Y441925D1*
X868978Y445094D1*
X875617Y447251D1*
X882510Y448343D1*
X889490D1*
X896383Y447251D1*
X903022Y445094D1*
X909240Y441925D1*
X914887Y437823D1*
X919823Y432887D1*
X923925Y427240D1*
X927094Y421022D1*
X929251Y414383D1*
X930343Y407490D1*
Y400510D1*
X202013Y483816D2*
X201138Y478290D1*
X199409Y472969D1*
X196869Y467983D1*
X193580Y463455D1*
X189623Y459499D1*
X185096Y456210D1*
X180110Y453669D1*
X174789Y451941D1*
X169262Y451066D1*
X163667D1*
X158140Y451941D1*
X152819Y453669D1*
X147833Y456210D1*
X143306Y459499D1*
X139349Y463455D1*
X136060Y467983D1*
X133520Y472969D1*
X131791Y478290D1*
X130916Y483816D1*
Y489412D1*
X131791Y494938D1*
X133520Y500260D1*
X136060Y505245D1*
X139349Y509773D1*
X143306Y513730D1*
X147833Y517018D1*
X152819Y519559D1*
X158140Y521287D1*
X163667Y522163D1*
X169262D1*
X174789Y521287D1*
X180110Y519559D1*
X185096Y517018D1*
X189623Y513730D1*
X193580Y509773D1*
X196869Y505245D1*
X199409Y500260D1*
X201138Y494938D1*
X202013Y489412D1*
Y483816D1*
Y310588D2*
X201138Y305062D1*
X199409Y299740D1*
X196869Y294755D1*
X193580Y290227D1*
X189623Y286270D1*
X185096Y282982D1*
X180110Y280441D1*
X174789Y278713D1*
X169262Y277837D1*
X163667D1*
X158140Y278713D1*
X152819Y280441D1*
X147833Y282982D1*
X143306Y286270D1*
X139349Y290227D1*
X136060Y294755D1*
X133520Y299740D1*
X131791Y305062D1*
X130916Y310588D1*
Y316184D1*
X131791Y321710D1*
X133520Y327031D1*
X136060Y332017D1*
X139349Y336545D1*
X143306Y340501D1*
X147833Y343790D1*
X152819Y346331D1*
X158140Y348059D1*
X163667Y348934D1*
X169262D1*
X174789Y348059D1*
X180110Y346331D1*
X185096Y343790D1*
X189623Y340501D1*
X193580Y336545D1*
X196869Y332017D1*
X199409Y327031D1*
X201138Y321710D1*
X202013Y316184D1*
Y310588D1*
X191060Y1087194D2*
X190495Y1082419D1*
X189556Y1077702D1*
X188252Y1073073D1*
X186587Y1068560D1*
X184573Y1064193D1*
X182223Y1059997D1*
X179551Y1055999D1*
X176575Y1052222D1*
X173310Y1048690D1*
X169778Y1045425D1*
X166001Y1042449D1*
X162003Y1039777D1*
X157807Y1037427D1*
X153440Y1035413D1*
X148927Y1033748D1*
X144298Y1032444D1*
X139581Y1031505D1*
X134806Y1030940D1*
X130000Y1030751D1*
X125194Y1030940D1*
X120419Y1031505D1*
X115702Y1032444D1*
X111073Y1033748D1*
X106560Y1035413D1*
X102193Y1037427D1*
X97997Y1039777D1*
X93999Y1042449D1*
X90222Y1045425D1*
X86690Y1048690D1*
X83425Y1052222D1*
X80449Y1055999D1*
X77777Y1059997D1*
X75427Y1064193D1*
X73413Y1068560D1*
X71748Y1073073D1*
X70444Y1077702D1*
X69505Y1082419D1*
X68940Y1087194D1*
X68751Y1092000D1*
X68940Y1096806D1*
X69505Y1101581D1*
X70444Y1106298D1*
X71748Y1110927D1*
X73413Y1115440D1*
X75427Y1119807D1*
X77777Y1124003D1*
X80449Y1128001D1*
X83425Y1131778D1*
X86690Y1135310D1*
X90222Y1138575D1*
X93999Y1141551D1*
X97997Y1144223D1*
X102193Y1146573D1*
X106560Y1148587D1*
X111073Y1150252D1*
X115702Y1151556D1*
X120419Y1152495D1*
X125194Y1153060D1*
X130000Y1153249D1*
X134806Y1153060D1*
X139581Y1152495D1*
X144298Y1151556D1*
X148927Y1150252D1*
X153440Y1148587D1*
X157807Y1146573D1*
X162003Y1144223D1*
X166001Y1141551D1*
X169778Y1138575D1*
X173310Y1135310D1*
X176575Y1131778D1*
X179551Y1128001D1*
X182223Y1124003D1*
X184573Y1119807D1*
X186587Y1115440D1*
X188252Y1110927D1*
X189556Y1106298D1*
X190495Y1101581D1*
X191060Y1096806D1*
X191249Y1092000D1*
X191060Y1087194D1*
X368226D2*
X367660Y1082419D1*
X366722Y1077702D1*
X365417Y1073073D1*
X363752Y1068560D1*
X361739Y1064193D1*
X359388Y1059997D1*
X356717Y1055999D1*
X353740Y1052222D1*
X350475Y1048690D1*
X346944Y1045425D1*
X343167Y1042449D1*
X339168Y1039777D1*
X334972Y1037427D1*
X330605Y1035413D1*
X326092Y1033748D1*
X321463Y1032444D1*
X316747Y1031505D1*
X311971Y1030940D1*
X307165Y1030751D1*
X302360Y1030940D1*
X297584Y1031505D1*
X292867Y1032444D1*
X288239Y1033748D1*
X283726Y1035413D1*
X279358Y1037427D1*
X275163Y1039777D1*
X271164Y1042449D1*
X267387Y1045425D1*
X263856Y1048690D1*
X260591Y1052222D1*
X257614Y1055999D1*
X254942Y1059997D1*
X252592Y1064193D1*
X250579Y1068560D1*
X248913Y1073073D1*
X247609Y1077702D1*
X246671Y1082419D1*
X246105Y1087194D1*
X245916Y1092000D1*
X246105Y1096806D1*
X246671Y1101581D1*
X247609Y1106298D1*
X248913Y1110927D1*
X250579Y1115440D1*
X252592Y1119807D1*
X254942Y1124003D1*
X257614Y1128001D1*
X260591Y1131778D1*
X263856Y1135310D1*
X267387Y1138575D1*
X271164Y1141551D1*
X275163Y1144223D1*
X279358Y1146573D1*
X283726Y1148587D1*
X288239Y1150252D1*
X292867Y1151556D1*
X297584Y1152495D1*
X302360Y1153060D1*
X307165Y1153249D1*
X311971Y1153060D1*
X316747Y1152495D1*
X321463Y1151556D1*
X326092Y1150252D1*
X330605Y1148587D1*
X334972Y1146573D1*
X339168Y1144223D1*
X343167Y1141551D1*
X346944Y1138575D1*
X350475Y1135310D1*
X353740Y1131778D1*
X356717Y1128001D1*
X359388Y1124003D1*
X361739Y1119807D1*
X363752Y1115440D1*
X365417Y1110927D1*
X366722Y1106298D1*
X367660Y1101581D1*
X368226Y1096806D1*
X368415Y1092000D1*
X368226Y1087194D1*
X761520Y588480D2*
X844480D1*
Y499520D1*
X755520D1*
Y588480D1*
X761520D1*
X844343Y640510D2*
X843251Y633617D1*
X841094Y626978D1*
X837925Y620760D1*
X833823Y615113D1*
X828887Y610177D1*
X823240Y606075D1*
X817022Y602906D1*
X810383Y600749D1*
X803490Y599657D1*
X796510D1*
X789617Y600749D1*
X782978Y602906D1*
X776760Y606075D1*
X771113Y610177D1*
X766177Y615113D1*
X764277Y617524D1*
X722079Y617596D1*
X718285Y618197D1*
X714633Y619383D1*
X711209Y621127D1*
X708101Y623386D1*
X698205Y633176D1*
X679386Y652101D1*
X677127Y655209D1*
X675383Y658633D1*
X674197Y662285D1*
X673596Y666079D1*
X673520Y680000D1*
X673596Y2033921D1*
X674197Y2037715D1*
X675383Y2041367D1*
X677127Y2044791D1*
X679386Y2047899D1*
X689176Y2057795D1*
X771559Y2140178D1*
X773423Y2143836D1*
X775865Y2147197D1*
X778803Y2150135D1*
X782164Y2152577D1*
X785860Y2154461D1*
X843783Y2212297D1*
X846891Y2214555D1*
X850314Y2216299D1*
X853967Y2217486D1*
X857761Y2218087D1*
X871682Y2218163D1*
X1403925D1*
X1407819Y2219430D1*
X1411923Y2220081D1*
X1416077D1*
X1420181Y2219430D1*
X1424134Y2218147D1*
X1427836Y2216260D1*
X1431197Y2213818D1*
X1434135Y2210879D1*
X1436577Y2207518D1*
X1438465Y2203816D1*
X1439748Y2199864D1*
X1440399Y2195760D1*
Y2191605D1*
X1439748Y2187501D1*
X1438467Y2183556D1*
X1438480Y1816127D1*
X1442165Y1812455D1*
X1703899Y1812480D1*
X1707819Y1813748D1*
X1711923Y1814399D1*
X1716077D1*
X1720181Y1813748D1*
X1724134Y1812465D1*
X1727836Y1810577D1*
X1731197Y1808135D1*
X1734135Y1805197D1*
X1736577Y1801836D1*
X1738465Y1798134D1*
X1739748Y1794181D1*
X1740399Y1790077D1*
Y1785923D1*
X1739748Y1781819D1*
X1738465Y1777866D1*
X1736577Y1774164D1*
X1734135Y1770803D1*
X1731197Y1767865D1*
X1727836Y1765423D1*
X1724134Y1763535D1*
X1720181Y1762252D1*
X1716077Y1761601D1*
X1711923D1*
X1707819Y1762252D1*
X1703874Y1763533D1*
X1430079Y1763596D1*
X1426285Y1764197D1*
X1422633Y1765383D1*
X1419209Y1767127D1*
X1416101Y1769386D1*
X1406205Y1779175D1*
X1403835Y1781545D1*
X1400164Y1783423D1*
X1396803Y1785865D1*
X1393865Y1788803D1*
X1391423Y1792164D1*
X1389535Y1795866D1*
X1388252Y1799819D1*
X1387601Y1803923D1*
Y1808077D1*
X1388252Y1812181D1*
X1389533Y1816126D1*
X1389520Y2113852D1*
X1387423Y2110436D1*
X1384724Y2107276D1*
X1381564Y2104577D1*
X1378022Y2102406D1*
X1374182Y2100816D1*
X1370142Y2099846D1*
X1366000Y2099520D1*
X1364287Y2099588D1*
X1227465Y1962744D1*
X1227480Y853227D1*
X1354297Y726424D1*
X1358077Y726399D1*
X1362181Y725748D1*
X1366134Y724465D1*
X1369836Y722577D1*
X1372528Y720664D1*
X1372520Y1044757D1*
X1291710Y1125570D1*
X1287923Y1125601D1*
X1283819Y1126252D1*
X1279866Y1127535D1*
X1276164Y1129423D1*
X1272803Y1131865D1*
X1269865Y1134803D1*
X1267423Y1138164D1*
X1265535Y1141866D1*
X1264252Y1145819D1*
X1263601Y1149923D1*
Y1154077D1*
X1264252Y1158181D1*
X1265535Y1162134D1*
X1267423Y1165836D1*
X1269865Y1169197D1*
X1272803Y1172135D1*
X1276164Y1174577D1*
X1279866Y1176465D1*
X1283819Y1177748D1*
X1287923Y1178399D1*
X1292077D1*
X1296181Y1177748D1*
X1300134Y1176465D1*
X1303836Y1174577D1*
X1307197Y1172135D1*
X1310135Y1169197D1*
X1312577Y1165836D1*
X1314465Y1162134D1*
X1315748Y1158181D1*
X1316399Y1154077D1*
X1316412Y1150287D1*
X1403291Y1063353D1*
X1404904Y1061134D1*
X1406150Y1058689D1*
X1406997Y1056080D1*
X1407427Y1053371D1*
X1407480Y1028000D1*
Y793696D1*
X1409639Y796361D1*
X1760655Y1147301D1*
X1762874Y1148912D1*
X1765319Y1150157D1*
X1767928Y1151005D1*
X1770636Y1151434D1*
X1796008Y1151488D1*
X2054125D1*
X2056803Y1154143D1*
X2060164Y1156585D1*
X2063866Y1158472D1*
X2067819Y1159756D1*
X2071923Y1160407D1*
X2076077D1*
X2080181Y1159756D1*
X2084134Y1158472D1*
X2086539Y1157312D1*
X2086520Y1426133D1*
X2083865Y1428803D1*
X2081423Y1432164D1*
X2079535Y1435866D1*
X2078252Y1439819D1*
X2077601Y1443923D1*
Y1448077D1*
X2078252Y1452181D1*
X2079535Y1456134D1*
X2081423Y1459836D1*
X2083865Y1463197D1*
X2086803Y1466135D1*
X2090164Y1468577D1*
X2093866Y1470465D1*
X2097819Y1471748D1*
X2101923Y1472399D1*
X2106077D1*
X2110181Y1471748D1*
X2114134Y1470465D1*
X2117836Y1468577D1*
X2121197Y1466135D1*
X2124135Y1463197D1*
X2126577Y1459836D1*
X2128465Y1456134D1*
X2129748Y1452181D1*
X2130399Y1448077D1*
Y1443923D1*
X2129748Y1439819D1*
X2128465Y1435866D1*
X2126577Y1432164D1*
X2124135Y1428803D1*
X2121466Y1426113D1*
X2121427Y588629D1*
X2120997Y585920D1*
X2120150Y583311D1*
X2118904Y580866D1*
X2117291Y578647D1*
X2099390Y560669D1*
X1834182Y295462D1*
X2050320Y295480D1*
X2053004Y298135D1*
X2056365Y300577D1*
X2060067Y302465D1*
X2064020Y303748D1*
X2068123Y304399D1*
X2071913Y304412D1*
X2228524Y461043D1*
X2228520Y1884776D1*
X1934749Y2178530D1*
X1745899Y2178520D1*
X1743197Y2175865D1*
X1739836Y2173423D1*
X1736134Y2171535D1*
X1732181Y2170252D1*
X1728077Y2169601D1*
X1723923D1*
X1719819Y2170252D1*
X1715866Y2171535D1*
X1712164Y2173423D1*
X1708962Y2175739D1*
X1774311Y2110409D1*
X1778077Y2110399D1*
X1782181Y2109748D1*
X1786134Y2108465D1*
X1789836Y2106577D1*
X1793197Y2104135D1*
X1796135Y2101197D1*
X1798577Y2097836D1*
X1800465Y2094134D1*
X1801748Y2090181D1*
X1802399Y2086077D1*
Y2081923D1*
X1801748Y2077819D1*
X1800465Y2073866D1*
X1798577Y2070164D1*
X1796135Y2066803D1*
X1795480Y2066000D1*
Y1907867D1*
X1798135Y1905197D1*
X1800577Y1901836D1*
X1802465Y1898134D1*
X1803748Y1894181D1*
X1804399Y1890077D1*
Y1885923D1*
X1803748Y1881819D1*
X1802465Y1877866D1*
X1800577Y1874164D1*
X1798135Y1870803D1*
X1795197Y1867865D1*
X1791836Y1865423D1*
X1788134Y1863535D1*
X1784181Y1862252D1*
X1780077Y1861601D1*
X1775923D1*
X1771819Y1862252D1*
X1767866Y1863535D1*
X1764164Y1865423D1*
X1760803Y1867865D1*
X1757865Y1870803D1*
X1755423Y1874164D1*
X1753535Y1877866D1*
X1752252Y1881819D1*
X1751601Y1885923D1*
Y1890077D1*
X1752252Y1894181D1*
X1753535Y1898134D1*
X1755423Y1901836D1*
X1757865Y1905197D1*
X1760534Y1907887D1*
X1760436Y2062577D1*
X1757276Y2065276D1*
X1754577Y2068436D1*
X1752406Y2071978D1*
X1750816Y2075818D1*
X1749846Y2079858D1*
X1749520Y2084000D1*
X1749588Y2085713D1*
X1668396Y2166883D1*
X1664142Y2165846D1*
X1660000Y2165520D1*
X1655858Y2165846D1*
X1651818Y2166816D1*
X1647978Y2168406D1*
X1644436Y2170577D1*
X1641276Y2173276D1*
X1640113Y2174534D1*
X1575883Y2174520D1*
X1573197Y2171865D1*
X1569836Y2169423D1*
X1566134Y2167535D1*
X1562181Y2166252D1*
X1558077Y2165601D1*
X1553923D1*
X1549819Y2166252D1*
X1545866Y2167535D1*
X1543362Y2168752D1*
X1543381Y2062820D1*
X1762857Y1843379D1*
X2058436Y1843423D1*
X2061978Y1845594D1*
X2065818Y1847184D1*
X2069858Y1848154D1*
X2074000Y1848480D1*
X2078142Y1848154D1*
X2082182Y1847184D1*
X2086022Y1845594D1*
X2089564Y1843423D1*
X2092724Y1840724D1*
X2095423Y1837564D1*
X2097594Y1834022D1*
X2099184Y1830182D1*
X2100154Y1826142D1*
X2100480Y1822000D1*
X2100154Y1817858D1*
X2099184Y1813818D1*
X2097594Y1809978D1*
X2095423Y1806436D1*
X2092724Y1803276D1*
X2089564Y1800577D1*
X2086022Y1798406D1*
X2082182Y1796816D1*
X2078142Y1795846D1*
X2074000Y1795520D1*
X2069858Y1795846D1*
X2065818Y1796816D1*
X2061978Y1798406D1*
X2058365Y1800633D1*
X1752323Y1800685D1*
X1749009Y1801210D1*
X1745818Y1802247D1*
X1742829Y1803770D1*
X1740114Y1805743D1*
X1726154Y1819610D1*
X1505743Y2040114D1*
X1503770Y2042829D1*
X1502247Y2045818D1*
X1501210Y2049009D1*
X1500685Y2052323D1*
X1500619Y2072000D1*
Y2175243D1*
X1497978Y2176406D1*
X1494436Y2178577D1*
X1491276Y2181276D1*
X1488577Y2184436D1*
X1486406Y2187978D1*
X1484816Y2191818D1*
X1483846Y2195858D1*
X1483520Y2200000D1*
X1483846Y2204142D1*
X1484816Y2208182D1*
X1486406Y2212022D1*
X1488577Y2215564D1*
X1491276Y2218724D1*
X1494436Y2221423D1*
X1497978Y2223594D1*
X1501818Y2225184D1*
X1505858Y2226154D1*
X1510000Y2226480D1*
X1514142Y2226154D1*
X1518182Y2225184D1*
X1522022Y2223594D1*
X1525564Y2221423D1*
X1528724Y2218724D1*
X1531423Y2215564D1*
X1533594Y2212022D1*
X1535136Y2208312D1*
X1537276Y2210724D1*
X1540436Y2213423D1*
X1543978Y2215594D1*
X1547818Y2217184D1*
X1551858Y2218154D1*
X1556000Y2218480D1*
X1560142Y2218154D1*
X1564182Y2217184D1*
X1568022Y2215594D1*
X1571564Y2213423D1*
X1574724Y2210724D1*
X1575887Y2209466D1*
X1640117Y2209480D1*
X1642803Y2212135D1*
X1646164Y2214577D1*
X1649866Y2216465D1*
X1653819Y2217748D1*
X1657923Y2218399D1*
X1662077D1*
X1666181Y2217748D1*
X1670134Y2216465D1*
X1673836Y2214577D1*
X1677197Y2212135D1*
X1680135Y2209197D1*
X1682577Y2205836D1*
X1684465Y2202134D1*
X1685446Y2199252D1*
X1705601Y2179119D1*
X1703423Y2182164D1*
X1701535Y2185866D1*
X1700252Y2189819D1*
X1699601Y2193923D1*
Y2198077D1*
X1700252Y2202181D1*
X1701535Y2206134D1*
X1703423Y2209836D1*
X1705865Y2213197D1*
X1708803Y2216135D1*
X1712164Y2218577D1*
X1715866Y2220465D1*
X1719819Y2221748D1*
X1723923Y2222399D1*
X1728077D1*
X1732181Y2221748D1*
X1736134Y2220465D1*
X1739836Y2218577D1*
X1743197Y2216135D1*
X1745887Y2213466D1*
X1943371Y2213427D1*
X1946080Y2212997D1*
X1948689Y2212150D1*
X1951134Y2210904D1*
X1953353Y2209291D1*
X1971331Y2191390D1*
X2006747Y2155974D1*
X2007291Y2159142D1*
X2008575Y2163094D1*
X2010462Y2166797D1*
X2012904Y2170157D1*
X2015843Y2173096D1*
X2019203Y2175538D1*
X2022906Y2177425D1*
X2026858Y2178709D1*
X2030962Y2179360D1*
X2035117D1*
X2039220Y2178709D1*
X2043173Y2177425D1*
X2046875Y2175538D1*
X2050236Y2173096D1*
X2053175Y2170157D1*
X2055617Y2166797D1*
X2057504Y2163094D1*
X2058787Y2159142D1*
X2059438Y2155038D1*
X2059451Y2151248D1*
X2281291Y1929352D1*
X2282904Y1927134D1*
X2284150Y1924689D1*
X2284997Y1922080D1*
X2285427Y1919371D1*
X2285480Y1894000D1*
X2285427Y362629D1*
X2284997Y359920D1*
X2284150Y357311D1*
X2282904Y354866D1*
X2281291Y352648D1*
X2263390Y334669D1*
X2156247Y227526D1*
X2156480Y224000D1*
X2156154Y219858D1*
X2155184Y215818D1*
X2153594Y211978D1*
X2151423Y208436D1*
X2148724Y205276D1*
X2145564Y202577D1*
X2142022Y200406D1*
X2138182Y198816D1*
X2134142Y197846D1*
X2130000Y197520D1*
X2125858Y197846D1*
X2121818Y198816D1*
X2117978Y200406D1*
X2114436Y202577D1*
X2111276Y205276D1*
X2110000Y206520D1*
X1653227D1*
X1516415Y69693D1*
X1516399Y65923D1*
X1515748Y61819D1*
X1514465Y57866D1*
X1512577Y54164D1*
X1510135Y50803D1*
X1507197Y47865D1*
X1503836Y45423D1*
X1500134Y43535D1*
X1496181Y42252D1*
X1492077Y41601D1*
X1487923D1*
X1483819Y42252D1*
X1479866Y43535D1*
X1476164Y45423D1*
X1472803Y47865D1*
X1469865Y50803D1*
X1467423Y54164D1*
X1465535Y57866D1*
X1464252Y61819D1*
X1463601Y65923D1*
Y70077D1*
X1464252Y74181D1*
X1465535Y78134D1*
X1467423Y81836D1*
X1469865Y85197D1*
X1472803Y88135D1*
X1476164Y90577D1*
X1479866Y92465D1*
X1483819Y93748D1*
X1487923Y94399D1*
X1491713Y94412D1*
X1634647Y237293D1*
X1636866Y238904D1*
X1639311Y240150D1*
X1641920Y240997D1*
X1644629Y241427D1*
X1670000Y241480D1*
X2110133D1*
X2112803Y244135D1*
X2116164Y246577D1*
X2119866Y248465D1*
X2123819Y249748D1*
X2127923Y250399D1*
X2129765Y250471D1*
X2250526Y371247D1*
X2250520Y433633D1*
X2096626Y279705D1*
X2096600Y275923D1*
X2095949Y271819D1*
X2094665Y267866D1*
X2092778Y264164D1*
X2090336Y260803D1*
X2087398Y257865D1*
X2084037Y255423D1*
X2080335Y253535D1*
X2076382Y252252D1*
X2072278Y251601D1*
X2068123D1*
X2064020Y252252D1*
X2060067Y253535D1*
X2056365Y255423D1*
X2053004Y257865D1*
X2050314Y260534D1*
X1491881Y260520D1*
X1489197Y257865D1*
X1485836Y255423D1*
X1482134Y253535D1*
X1478181Y252252D1*
X1474077Y251601D1*
X1469923D1*
X1465819Y252252D1*
X1461866Y253535D1*
X1458164Y255423D1*
X1454803Y257865D1*
X1451865Y260803D1*
X1449423Y264164D1*
X1447535Y267866D1*
X1446252Y271819D1*
X1445601Y275923D1*
X1445554Y278852D1*
X1195352Y28709D1*
X1193134Y27096D1*
X1190689Y25850D1*
X1188080Y25003D1*
X1185371Y24573D1*
X1160000Y24520D1*
X864629Y24573D1*
X861920Y25003D1*
X859311Y25850D1*
X856866Y27096D1*
X854647Y28709D1*
X841260Y42020D1*
X834885Y40534D1*
X828000Y39992D1*
X821115Y40534D1*
X814400Y42146D1*
X808021Y44789D1*
X802133Y48398D1*
X796882Y52882D1*
X792398Y58133D1*
X788789Y64021D1*
X786146Y70400D1*
X784534Y77115D1*
X783992Y84000D1*
X784534Y90885D1*
X786146Y97600D1*
X788789Y103979D1*
X792398Y109867D1*
X796882Y115118D1*
X800765Y118525D1*
X755289Y118520D1*
X759118Y115118D1*
X763602Y109867D1*
X767211Y103979D1*
X769854Y97600D1*
X771466Y90885D1*
X772008Y84000D1*
X771466Y77115D1*
X769854Y70400D1*
X767211Y64021D1*
X763602Y58133D1*
X759118Y52882D1*
X753867Y48398D1*
X747979Y44789D1*
X741600Y42146D1*
X734885Y40534D1*
X728000Y39992D1*
X721115Y40534D1*
X714400Y42146D1*
X708021Y44789D1*
X702133Y48398D1*
X696882Y52882D1*
X692398Y58133D1*
X688789Y64021D1*
X686146Y70400D1*
X684534Y77115D1*
X683992Y84000D1*
X684534Y90885D1*
X686146Y97600D1*
X688789Y103979D1*
X692398Y109867D1*
X696882Y115118D1*
X700765Y118525D1*
X655304Y118520D1*
X659438Y114794D1*
X662604Y111189D1*
X665358Y107260D1*
X667668Y103055D1*
X669507Y98625D1*
X670852Y94018D1*
X671688Y89295D1*
X672008Y84000D1*
X671745Y79210D1*
X670965Y74476D1*
X669672Y69856D1*
X667886Y65403D1*
X665623Y61172D1*
X662915Y57213D1*
X659791Y53571D1*
X656290Y50291D1*
X652453Y47412D1*
X648324Y44967D1*
X643955Y42987D1*
X639395Y41493D1*
X634701Y40505D1*
X629927Y40034D1*
X625129Y40087D1*
X620366Y40660D1*
X615693Y41748D1*
X611167Y43339D1*
X606841Y45413D1*
X602766Y47946D1*
X598991Y50907D1*
X595562Y54261D1*
X592517Y57969D1*
X589894Y61987D1*
X587724Y66265D1*
X586033Y70755D1*
X584841Y75402D1*
X584161Y80151D1*
X584003Y84946D1*
X584367Y89730D1*
X585251Y94445D1*
X586642Y99037D1*
X588524Y103450D1*
X590875Y107631D1*
X593669Y111533D1*
X596870Y115106D1*
X600726Y118531D1*
X587243Y118520D1*
X568909Y100189D1*
X570791Y94273D1*
X571871Y87453D1*
Y80547D1*
X570791Y73727D1*
X568657Y67159D1*
X565522Y61007D1*
X561463Y55420D1*
X556580Y50537D1*
X550993Y46478D1*
X544841Y43343D1*
X538273Y41209D1*
X531453Y40129D1*
X524547D1*
X517727Y41209D1*
X511159Y43343D1*
X505007Y46478D1*
X499420Y50537D1*
X494537Y55420D1*
X490478Y61007D1*
X487343Y67159D1*
X485209Y73727D1*
X484129Y80547D1*
Y87453D1*
X485209Y94273D1*
X487343Y100841D1*
X490478Y106993D1*
X494537Y112580D1*
X499420Y117463D1*
X505007Y121522D1*
X511159Y124657D1*
X517727Y126791D1*
X524547Y127871D1*
X531453D1*
X538273Y126791D1*
X544196Y124896D1*
X568647Y149291D1*
X570866Y150904D1*
X573311Y152150D1*
X575920Y152997D1*
X578629Y153427D1*
X604000Y153480D1*
X1172101D1*
X1174803Y156135D1*
X1178164Y158577D1*
X1181866Y160465D1*
X1185819Y161748D1*
X1189923Y162399D1*
X1194077D1*
X1198181Y161748D1*
X1202134Y160465D1*
X1205836Y158577D1*
X1209197Y156135D1*
X1212135Y153197D1*
X1214577Y149836D1*
X1216465Y146134D1*
X1217748Y142181D1*
X1218399Y138077D1*
Y133923D1*
X1217748Y129819D1*
X1216465Y125866D1*
X1214577Y122164D1*
X1212135Y118803D1*
X1209197Y115865D1*
X1205836Y113423D1*
X1202134Y111535D1*
X1198181Y110252D1*
X1194077Y109601D1*
X1189923D1*
X1185819Y110252D1*
X1181866Y111535D1*
X1178164Y113423D1*
X1174803Y115865D1*
X1172113Y118534D1*
X955304Y118520D1*
X959118Y115118D1*
X963602Y109867D1*
X967211Y103979D1*
X969854Y97600D1*
X971466Y90885D1*
X972008Y84000D1*
X971466Y77115D1*
X969854Y70400D1*
X967211Y64021D1*
X964495Y59469D1*
X1176757Y59480D1*
X1438047Y320768D1*
X1434142Y319846D1*
X1430000Y319520D1*
X1425858Y319846D1*
X1421818Y320816D1*
X1417978Y322406D1*
X1414436Y324577D1*
X1411276Y327276D1*
X1408577Y330436D1*
X1406406Y333978D1*
X1404816Y337818D1*
X1403846Y341858D1*
X1403520Y346000D1*
X1403588Y347713D1*
X1376709Y374647D1*
X1375096Y376866D1*
X1373850Y379311D1*
X1373003Y381920D1*
X1372573Y384629D1*
X1372520Y410000D1*
Y679320D1*
X1369836Y677423D1*
X1366134Y675535D1*
X1362181Y674252D1*
X1358077Y673601D1*
X1354693Y673571D1*
X1355748Y670181D1*
X1356399Y666077D1*
Y661923D1*
X1355748Y657819D1*
X1354465Y653866D1*
X1352577Y650164D1*
X1350135Y646803D1*
X1347197Y643865D1*
X1343836Y641423D1*
X1340134Y639535D1*
X1336181Y638252D1*
X1332077Y637601D1*
X1327923D1*
X1323819Y638252D1*
X1319866Y639535D1*
X1316164Y641423D1*
X1312803Y643865D1*
X1309865Y646803D1*
X1307423Y650164D1*
X1305535Y653866D1*
X1304252Y657819D1*
X1303601Y661923D1*
X1303588Y665713D1*
X1176709Y792647D1*
X1175096Y794866D1*
X1173850Y797311D1*
X1173003Y799920D1*
X1172573Y802629D1*
X1172520Y828000D1*
Y2064164D1*
X1169865Y2066866D1*
X1167423Y2070227D1*
X1165535Y2073929D1*
X1164252Y2077882D1*
X1163601Y2081986D1*
Y2086140D1*
X1164252Y2090244D1*
X1165535Y2094197D1*
X1167423Y2097899D1*
X1169865Y2101260D1*
X1172803Y2104198D1*
X1176164Y2106640D1*
X1179866Y2108528D1*
X1183819Y2109811D1*
X1187923Y2110462D1*
X1192077D1*
X1196181Y2109811D1*
X1200134Y2108528D1*
X1203836Y2106640D1*
X1207197Y2104198D1*
X1210135Y2101260D1*
X1212577Y2097899D1*
X1214465Y2094197D1*
X1215748Y2090244D1*
X1216399Y2086140D1*
Y2081986D1*
X1215748Y2077882D1*
X1214465Y2073929D1*
X1212577Y2070227D1*
X1210135Y2066866D1*
X1207466Y2064176D1*
X1207480Y1992164D1*
X1339585Y2124307D1*
X1339601Y2128077D1*
X1340252Y2132181D1*
X1341535Y2136134D1*
X1343423Y2139836D1*
X1345865Y2143197D1*
X1348803Y2146135D1*
X1352164Y2148577D1*
X1355866Y2150465D1*
X1359819Y2151748D1*
X1363923Y2152399D1*
X1368077D1*
X1372181Y2151748D1*
X1376134Y2150465D1*
X1379836Y2148577D1*
X1383197Y2146135D1*
X1386135Y2143197D1*
X1388577Y2139836D1*
X1389534Y2138129D1*
X1389520Y2169211D1*
X869804Y2169202D1*
X820462Y2119843D1*
X818577Y2116164D1*
X816135Y2112803D1*
X813197Y2109865D1*
X809836Y2107423D1*
X806140Y2105539D1*
X722474Y2021854D1*
X722480Y678133D1*
X734154Y666467D1*
X761617Y666480D1*
X764014Y670144D1*
X768547Y675453D1*
X773856Y679986D1*
X779807Y683633D1*
X786255Y686303D1*
X793042Y687932D1*
X800000Y688480D1*
X806958Y687932D1*
X813745Y686303D1*
X820193Y683633D1*
X826144Y679986D1*
X831453Y675453D1*
X835986Y670144D1*
X839633Y664193D1*
X842303Y657745D1*
X843932Y650958D1*
X844480Y644000D1*
X844343Y640510D1*
X837100Y719522D2*
X833823Y715113D1*
X828887Y710177D1*
X823240Y706075D1*
X817022Y702906D1*
X810383Y700749D1*
X803490Y699657D1*
X796510D1*
X789617Y700749D1*
X782978Y702906D1*
X776760Y706075D1*
X771113Y710177D1*
X766177Y715113D1*
X762075Y720760D1*
X758906Y726978D1*
X756749Y733617D1*
X755657Y740510D1*
Y747490D1*
X756749Y754383D1*
X758906Y761022D1*
X762075Y767240D1*
X766177Y772887D1*
X771113Y777823D1*
X776760Y781925D1*
X782978Y785094D1*
X789617Y787251D1*
X796510Y788343D1*
X803490D1*
X810383Y787251D1*
X817022Y785094D1*
X823240Y781925D1*
X828887Y777823D1*
X833823Y772887D1*
X837100Y768478D1*
X1021883Y768480D1*
X1053520Y800140D1*
Y1423915D1*
X1052252Y1427819D1*
X1051601Y1431923D1*
Y1436077D1*
X1052252Y1440181D1*
X1053535Y1444134D1*
X1055423Y1447836D1*
X1057865Y1451197D1*
X1060803Y1454135D1*
X1064164Y1456577D1*
X1067866Y1458465D1*
X1071819Y1459748D1*
X1075923Y1460399D1*
X1080077D1*
X1084181Y1459748D1*
X1088134Y1458465D1*
X1091836Y1456577D1*
X1095197Y1454135D1*
X1098135Y1451197D1*
X1100577Y1447836D1*
X1102465Y1444134D1*
X1103748Y1440181D1*
X1104399Y1436077D1*
Y1431923D1*
X1103748Y1427819D1*
X1102467Y1423874D1*
X1102404Y788079D1*
X1101803Y784285D1*
X1100617Y780631D1*
X1098873Y777209D1*
X1096614Y774101D1*
X1086824Y764205D1*
X1047899Y725386D1*
X1044791Y723127D1*
X1041369Y721383D1*
X1037715Y720197D1*
X1033921Y719596D1*
X1020000Y719520D1*
X837117D1*
X389992Y128008D2*
X472008D1*
Y39992D1*
X383992D1*
Y128008D1*
X389992D1*
X354290Y1740154D2*
X353602Y1734343D1*
X352461Y1728604D1*
X350873Y1722972D1*
X348846Y1717483D1*
X346398Y1712169D1*
X343538Y1707064D1*
X340287Y1702198D1*
X336665Y1697604D1*
X332693Y1693307D1*
X328396Y1689335D1*
X323802Y1685713D1*
X318936Y1682462D1*
X313831Y1679602D1*
X308517Y1677154D1*
X303028Y1675127D1*
X297396Y1673539D1*
X291657Y1672398D1*
X285846Y1671710D1*
X280000Y1671480D1*
X274154Y1671710D1*
X268343Y1672398D1*
X262604Y1673539D1*
X256972Y1675127D1*
X251483Y1677154D1*
X246169Y1679602D1*
X241064Y1682462D1*
X236198Y1685713D1*
X231604Y1689335D1*
X227307Y1693307D1*
X223335Y1697604D1*
X219713Y1702198D1*
X216462Y1707064D1*
X213602Y1712169D1*
X211154Y1717483D1*
X209127Y1722972D1*
X207539Y1728604D1*
X206398Y1734343D1*
X205710Y1740154D1*
X205480Y1746000D1*
X205710Y1751846D1*
X206398Y1757657D1*
X207539Y1763396D1*
X209127Y1769028D1*
X211154Y1774517D1*
X213602Y1779831D1*
X216462Y1784936D1*
X219713Y1789802D1*
X223335Y1794396D1*
X227307Y1798693D1*
X231604Y1802665D1*
X236198Y1806287D1*
X241064Y1809538D1*
X246169Y1812398D1*
X251483Y1814846D1*
X256972Y1816873D1*
X262604Y1818461D1*
X268343Y1819602D1*
X274154Y1820290D1*
X280000Y1820520D1*
X285846Y1820290D1*
X291657Y1819602D1*
X297396Y1818461D1*
X303028Y1816873D1*
X308517Y1814846D1*
X313831Y1812398D1*
X318936Y1809538D1*
X323802Y1806287D1*
X328396Y1802665D1*
X332693Y1798693D1*
X336665Y1794396D1*
X340287Y1789802D1*
X343538Y1784936D1*
X346398Y1779831D1*
X348846Y1774517D1*
X350873Y1769028D1*
X352461Y1763396D1*
X353602Y1757657D1*
X354290Y1751846D1*
X354520Y1746000D1*
X354290Y1740154D1*
X354196Y2140154D2*
X353508Y2134343D1*
X352366Y2128604D1*
X350778Y2122972D1*
X348752Y2117483D1*
X346303Y2112169D1*
X343444Y2107064D1*
X340193Y2102198D1*
X336571Y2097604D1*
X332598Y2093307D1*
X328302Y2089335D1*
X323707Y2085713D1*
X318841Y2082462D1*
X313736Y2079602D1*
X308423Y2077154D1*
X302933Y2075127D1*
X297302Y2073539D1*
X291563Y2072398D1*
X285752Y2071710D1*
X279906Y2071480D1*
X274059Y2071710D1*
X268248Y2072398D1*
X262509Y2073539D1*
X256878Y2075127D1*
X251388Y2077154D1*
X246075Y2079602D1*
X240970Y2082462D1*
X236104Y2085713D1*
X231509Y2089335D1*
X227213Y2093307D1*
X223240Y2097604D1*
X219618Y2102198D1*
X216367Y2107064D1*
X213508Y2112169D1*
X211059Y2117483D1*
X209033Y2122972D1*
X207445Y2128604D1*
X206303Y2134343D1*
X205615Y2140154D1*
X205386Y2146000D1*
X205615Y2151846D1*
X206303Y2157657D1*
X207445Y2163396D1*
X209033Y2169028D1*
X211059Y2174517D1*
X213508Y2179831D1*
X216367Y2184936D1*
X219618Y2189802D1*
X223240Y2194396D1*
X227213Y2198693D1*
X231509Y2202665D1*
X236104Y2206287D1*
X240970Y2209538D1*
X246075Y2212398D1*
X251388Y2214846D1*
X256878Y2216873D1*
X262509Y2218461D1*
X268248Y2219602D1*
X274059Y2220290D1*
X279906Y2220520D1*
X285752Y2220290D1*
X291563Y2219602D1*
X297302Y2218461D1*
X302933Y2216873D1*
X308423Y2214846D1*
X313736Y2212398D1*
X318841Y2209538D1*
X323707Y2206287D1*
X328302Y2202665D1*
X332598Y2198693D1*
X336571Y2194396D1*
X340193Y2189802D1*
X343444Y2184936D1*
X346303Y2179831D1*
X348752Y2174517D1*
X350778Y2169028D1*
X352366Y2163396D1*
X353508Y2157657D1*
X354196Y2151846D1*
X354425Y2146000D1*
X354196Y2140154D1*
X529776Y1942084D2*
X529315Y1938192D1*
X528550Y1934348D1*
X527486Y1930576D1*
X526130Y1926899D1*
X524488Y1923340D1*
X522573Y1919920D1*
X520396Y1916661D1*
X517970Y1913584D1*
X515310Y1910706D1*
X512432Y1908046D1*
X509354Y1905619D1*
X506096Y1903442D1*
X502676Y1901528D1*
X499117Y1899886D1*
X495440Y1898530D1*
X491668Y1897466D1*
X487824Y1896701D1*
X483932Y1896240D1*
X480016Y1896087D1*
X476100Y1896240D1*
X472207Y1896701D1*
X468364Y1897466D1*
X464592Y1898530D1*
X460915Y1899886D1*
X457356Y1901528D1*
X453936Y1903442D1*
X450677Y1905619D1*
X447600Y1908046D1*
X444722Y1910706D1*
X442062Y1913584D1*
X439635Y1916661D1*
X437458Y1919920D1*
X435543Y1923340D1*
X433902Y1926899D1*
X432546Y1930576D1*
X431482Y1934348D1*
X430717Y1938192D1*
X430256Y1942084D1*
X430102Y1946000D1*
X430256Y1949916D1*
X430717Y1953808D1*
X431482Y1957652D1*
X432546Y1961424D1*
X433902Y1965101D1*
X435543Y1968660D1*
X437458Y1972080D1*
X439635Y1975339D1*
X442062Y1978416D1*
X444722Y1981294D1*
X447600Y1983954D1*
X450677Y1986381D1*
X453936Y1988558D1*
X457356Y1990472D1*
X460915Y1992114D1*
X464592Y1993470D1*
X468364Y1994534D1*
X472207Y1995299D1*
X476100Y1995760D1*
X480016Y1995913D1*
X483932Y1995760D1*
X487824Y1995299D1*
X491668Y1994534D1*
X495440Y1993470D1*
X499117Y1992114D1*
X502676Y1990472D1*
X506096Y1988558D1*
X509354Y1986381D1*
X512432Y1983954D1*
X515310Y1981294D1*
X517970Y1978416D1*
X520396Y1975339D1*
X522573Y1972080D1*
X524488Y1968660D1*
X526130Y1965101D1*
X527486Y1961424D1*
X528550Y1957652D1*
X529315Y1953808D1*
X529776Y1949916D1*
X529929Y1946000D1*
X529776Y1942084D1*
X529915Y1844801D2*
X529411Y1838825D1*
X528193Y1832953D1*
X526281Y1827270D1*
X523701Y1821857D1*
X520491Y1816793D1*
X516697Y1812150D1*
X512373Y1807995D1*
X507581Y1804390D1*
X502392Y1801383D1*
X496881Y1799022D1*
X491125Y1797339D1*
X485210Y1796358D1*
X479219Y1796093D1*
X473240Y1796549D1*
X467358Y1797718D1*
X461660Y1799584D1*
X456227Y1802121D1*
X451136Y1805290D1*
X446463Y1809047D1*
X442273Y1813337D1*
X438629Y1818100D1*
X435581Y1823264D1*
X433176Y1828756D1*
X431446Y1834497D1*
X430417Y1840406D1*
X430104Y1846394D1*
X430512Y1852377D1*
X431634Y1858266D1*
X433454Y1863980D1*
X435946Y1869434D1*
X439073Y1874550D1*
X442793Y1879253D1*
X447050Y1883478D1*
X451782Y1887160D1*
X456921Y1890249D1*
X462394Y1892699D1*
X468122Y1894475D1*
X474021Y1895551D1*
X480007Y1895913D1*
X485992Y1895554D1*
X491891Y1894480D1*
X497619Y1892706D1*
X503093Y1890259D1*
X508234Y1887171D1*
X512967Y1883490D1*
X517226Y1879268D1*
X520946Y1874566D1*
X524076Y1869451D1*
X526571Y1863999D1*
X528394Y1858286D1*
X529517Y1852395D1*
X529927Y1846413D1*
X529915Y1844801D1*
X1366343Y2274510D2*
X1365251Y2267617D1*
X1363094Y2260978D1*
X1359925Y2254760D1*
X1355823Y2249113D1*
X1350887Y2244177D1*
X1345240Y2240075D1*
X1339022Y2236906D1*
X1332383Y2234749D1*
X1325490Y2233657D1*
X1318510D1*
X1311617Y2234749D1*
X1304978Y2236906D1*
X1298760Y2240075D1*
X1293113Y2244177D1*
X1288177Y2249113D1*
X1284075Y2254760D1*
X1280906Y2260978D1*
X1278749Y2267617D1*
X1277657Y2274510D1*
Y2281490D1*
X1278749Y2288383D1*
X1280906Y2295022D1*
X1284075Y2301240D1*
X1288177Y2306887D1*
X1293113Y2311823D1*
X1298760Y2315925D1*
X1304978Y2319094D1*
X1311617Y2321251D1*
X1318510Y2322343D1*
X1325490D1*
X1332383Y2321251D1*
X1339022Y2319094D1*
X1345240Y2315925D1*
X1350887Y2311823D1*
X1355823Y2306887D1*
X1359925Y2301240D1*
X1363094Y2295022D1*
X1365251Y2288383D1*
X1366343Y2281490D1*
Y2274510D1*
X828399Y1055923D2*
X827748Y1051819D1*
X826465Y1047866D1*
X824577Y1044164D1*
X822135Y1040803D1*
X819197Y1037865D1*
X815836Y1035423D1*
X812134Y1033535D1*
X808181Y1032252D1*
X804077Y1031601D1*
X799923D1*
X795819Y1032252D1*
X791866Y1033535D1*
X788164Y1035423D1*
X784803Y1037865D1*
X781865Y1040803D1*
X779423Y1044164D1*
X777535Y1047866D1*
X776252Y1051819D1*
X775601Y1055923D1*
Y1060077D1*
X776252Y1064181D1*
X777535Y1068134D1*
X779423Y1071836D1*
X781865Y1075197D1*
X784803Y1078135D1*
X788164Y1080577D1*
X791866Y1082465D1*
X795819Y1083748D1*
X799923Y1084399D1*
X804077D1*
X808181Y1083748D1*
X812134Y1082465D1*
X815836Y1080577D1*
X819197Y1078135D1*
X822135Y1075197D1*
X824577Y1071836D1*
X826465Y1068134D1*
X827748Y1064181D1*
X828399Y1060077D1*
Y1055923D1*
Y977923D2*
X827748Y973819D1*
X826465Y969866D1*
X824577Y966164D1*
X822135Y962803D1*
X819197Y959865D1*
X815836Y957423D1*
X812134Y955535D1*
X808181Y954252D1*
X804077Y953601D1*
X799923D1*
X795819Y954252D1*
X791866Y955535D1*
X788164Y957423D1*
X784803Y959865D1*
X781865Y962803D1*
X779423Y966164D1*
X777535Y969866D1*
X776252Y973819D1*
X775601Y977923D1*
Y982077D1*
X776252Y986181D1*
X777535Y990134D1*
X779423Y993836D1*
X781865Y997197D1*
X784803Y1000135D1*
X788164Y1002577D1*
X791866Y1004465D1*
X795819Y1005748D1*
X799923Y1006399D1*
X804077D1*
X808181Y1005748D1*
X812134Y1004465D1*
X815836Y1002577D1*
X819197Y1000135D1*
X822135Y997197D1*
X824577Y993836D1*
X826465Y990134D1*
X827748Y986181D1*
X828399Y982077D1*
Y977923D1*
Y897923D2*
X827748Y893819D1*
X826465Y889866D1*
X824577Y886164D1*
X822135Y882803D1*
X819197Y879865D1*
X815836Y877423D1*
X812134Y875535D1*
X808181Y874252D1*
X804077Y873601D1*
X799923D1*
X795819Y874252D1*
X791866Y875535D1*
X788164Y877423D1*
X784803Y879865D1*
X781865Y882803D1*
X779423Y886164D1*
X777535Y889866D1*
X776252Y893819D1*
X775601Y897923D1*
Y902077D1*
X776252Y906181D1*
X777535Y910134D1*
X779423Y913836D1*
X781865Y917197D1*
X784803Y920135D1*
X788164Y922577D1*
X791866Y924465D1*
X795819Y925748D1*
X799923Y926399D1*
X804077D1*
X808181Y925748D1*
X812134Y924465D1*
X815836Y922577D1*
X819197Y920135D1*
X822135Y917197D1*
X824577Y913836D1*
X826465Y910134D1*
X827748Y906181D1*
X828399Y902077D1*
Y897923D1*
X1358399Y493923D2*
X1357748Y489819D1*
X1356465Y485866D1*
X1354577Y482164D1*
X1352135Y478803D1*
X1349197Y475865D1*
X1345836Y473423D1*
X1342134Y471535D1*
X1338181Y470252D1*
X1334077Y469601D1*
X1329923D1*
X1325819Y470252D1*
X1321866Y471535D1*
X1318164Y473423D1*
X1314803Y475865D1*
X1311865Y478803D1*
X1309423Y482164D1*
X1307535Y485866D1*
X1306252Y489819D1*
X1305601Y493923D1*
Y498077D1*
X1306252Y502181D1*
X1307535Y506134D1*
X1309423Y509836D1*
X1311865Y513197D1*
X1314803Y516135D1*
X1318164Y518577D1*
X1321866Y520465D1*
X1325819Y521748D1*
X1329923Y522399D1*
X1334077D1*
X1338181Y521748D1*
X1342134Y520465D1*
X1345836Y518577D1*
X1349197Y516135D1*
X1352135Y513197D1*
X1354577Y509836D1*
X1356465Y506134D1*
X1357748Y502181D1*
X1358399Y498077D1*
Y493923D1*
X2248399Y91923D2*
X2247748Y87819D1*
X2246465Y83866D1*
X2244577Y80164D1*
X2242135Y76803D1*
X2239197Y73865D1*
X2235836Y71423D1*
X2232134Y69535D1*
X2228181Y68252D1*
X2224077Y67601D1*
X2219923D1*
X2215819Y68252D1*
X2211866Y69535D1*
X2208164Y71423D1*
X2204803Y73865D1*
X2201865Y76803D1*
X2199423Y80164D1*
X2197535Y83866D1*
X2196252Y87819D1*
X2195601Y91923D1*
Y96077D1*
X2196252Y100181D1*
X2197535Y104134D1*
X2199423Y107836D1*
X2201865Y111197D1*
X2204803Y114135D1*
X2208164Y116577D1*
X2211866Y118465D1*
X2215819Y119748D1*
X2219923Y120399D1*
X2224077D1*
X2228181Y119748D1*
X2232134Y118465D1*
X2235836Y116577D1*
X2239197Y114135D1*
X2242135Y111197D1*
X2244577Y107836D1*
X2246465Y104134D1*
X2247748Y100181D1*
X2248399Y96077D1*
Y91923D1*
X1850399Y115923D2*
X1849748Y111819D1*
X1848465Y107866D1*
X1846577Y104164D1*
X1844135Y100803D1*
X1841197Y97865D1*
X1837836Y95423D1*
X1834134Y93535D1*
X1830181Y92252D1*
X1826077Y91601D1*
X1821923D1*
X1817819Y92252D1*
X1813866Y93535D1*
X1810164Y95423D1*
X1806803Y97865D1*
X1803865Y100803D1*
X1801423Y104164D1*
X1799535Y107866D1*
X1798252Y111819D1*
X1797601Y115923D1*
Y120077D1*
X1798252Y124181D1*
X1799535Y128134D1*
X1801423Y131836D1*
X1803865Y135197D1*
X1806803Y138135D1*
X1810164Y140577D1*
X1813866Y142465D1*
X1817819Y143748D1*
X1821923Y144399D1*
X1826077D1*
X1830181Y143748D1*
X1834134Y142465D1*
X1837836Y140577D1*
X1841197Y138135D1*
X1844135Y135197D1*
X1846577Y131836D1*
X1848465Y128134D1*
X1849748Y124181D1*
X1850399Y120077D1*
Y115923D1*
X2038399Y327923D2*
X2037748Y323819D1*
X2036465Y319866D1*
X2034577Y316164D1*
X2032135Y312803D1*
X2029197Y309865D1*
X2025836Y307423D1*
X2022134Y305535D1*
X2018181Y304252D1*
X2014077Y303601D1*
X2009923D1*
X2005819Y304252D1*
X2001866Y305535D1*
X1998164Y307423D1*
X1994803Y309865D1*
X1991865Y312803D1*
X1989423Y316164D1*
X1987535Y319866D1*
X1986252Y323819D1*
X1985601Y327923D1*
Y332077D1*
X1986252Y336181D1*
X1987535Y340134D1*
X1989423Y343836D1*
X1991865Y347197D1*
X1994803Y350135D1*
X1998164Y352577D1*
X2001866Y354465D1*
X2005819Y355748D1*
X2009923Y356399D1*
X2014077D1*
X2018181Y355748D1*
X2022134Y354465D1*
X2025836Y352577D1*
X2029197Y350135D1*
X2032135Y347197D1*
X2034577Y343836D1*
X2036465Y340134D1*
X2037748Y336181D1*
X2038399Y332077D1*
Y327923D1*
X1730399Y893923D2*
X1729748Y889819D1*
X1728465Y885866D1*
X1726577Y882164D1*
X1724135Y878803D1*
X1721197Y875865D1*
X1717836Y873423D1*
X1714134Y871535D1*
X1710181Y870252D1*
X1706077Y869601D1*
X1701923D1*
X1697819Y870252D1*
X1693866Y871535D1*
X1690164Y873423D1*
X1686803Y875865D1*
X1683865Y878803D1*
X1681423Y882164D1*
X1679535Y885866D1*
X1678252Y889819D1*
X1677601Y893923D1*
Y898077D1*
X1678252Y902181D1*
X1679535Y906134D1*
X1681423Y909836D1*
X1683865Y913197D1*
X1686803Y916135D1*
X1690164Y918577D1*
X1693866Y920465D1*
X1697819Y921748D1*
X1701923Y922399D1*
X1706077D1*
X1710181Y921748D1*
X1714134Y920465D1*
X1717836Y918577D1*
X1721197Y916135D1*
X1724135Y913197D1*
X1726577Y909836D1*
X1728465Y906134D1*
X1729748Y902181D1*
X1730399Y898077D1*
Y893923D1*
X1602399Y493923D2*
X1601748Y489819D1*
X1600465Y485866D1*
X1598577Y482164D1*
X1596135Y478803D1*
X1593197Y475865D1*
X1589836Y473423D1*
X1586134Y471535D1*
X1582181Y470252D1*
X1578077Y469601D1*
X1573923D1*
X1569819Y470252D1*
X1565866Y471535D1*
X1562164Y473423D1*
X1558803Y475865D1*
X1555865Y478803D1*
X1553423Y482164D1*
X1551535Y485866D1*
X1550252Y489819D1*
X1549601Y493923D1*
Y498077D1*
X1550252Y502181D1*
X1551535Y506134D1*
X1553423Y509836D1*
X1555865Y513197D1*
X1558803Y516135D1*
X1562164Y518577D1*
X1565866Y520465D1*
X1569819Y521748D1*
X1573923Y522399D1*
X1578077D1*
X1582181Y521748D1*
X1586134Y520465D1*
X1589836Y518577D1*
X1593197Y516135D1*
X1596135Y513197D1*
X1598577Y509836D1*
X1600465Y506134D1*
X1601748Y502181D1*
X1602399Y498077D1*
Y493923D1*
X1184399Y195923D2*
X1183748Y191819D1*
X1182465Y187866D1*
X1180577Y184164D1*
X1178135Y180803D1*
X1175197Y177865D1*
X1171836Y175423D1*
X1168134Y173535D1*
X1164181Y172252D1*
X1160077Y171601D1*
X1155923D1*
X1151819Y172252D1*
X1147866Y173535D1*
X1144164Y175423D1*
X1140803Y177865D1*
X1137865Y180803D1*
X1135423Y184164D1*
X1133535Y187866D1*
X1132252Y191819D1*
X1131601Y195923D1*
Y200077D1*
X1132252Y204181D1*
X1133535Y208134D1*
X1135423Y211836D1*
X1137865Y215197D1*
X1140803Y218135D1*
X1144164Y220577D1*
X1147866Y222465D1*
X1151819Y223748D1*
X1155923Y224399D1*
X1160077D1*
X1164181Y223748D1*
X1168134Y222465D1*
X1171836Y220577D1*
X1175197Y218135D1*
X1178135Y215197D1*
X1180577Y211836D1*
X1182465Y208134D1*
X1183748Y204181D1*
X1184399Y200077D1*
Y195923D1*
X2058399Y1047923D2*
X2057748Y1043819D1*
X2056465Y1039866D1*
X2054577Y1036164D1*
X2052135Y1032803D1*
X2049197Y1029865D1*
X2045836Y1027423D1*
X2042134Y1025535D1*
X2038181Y1024252D1*
X2034077Y1023601D1*
X2029923D1*
X2025819Y1024252D1*
X2021866Y1025535D1*
X2018164Y1027423D1*
X2014803Y1029865D1*
X2011865Y1032803D1*
X2009423Y1036164D1*
X2007535Y1039866D1*
X2006252Y1043819D1*
X2005601Y1047923D1*
Y1052077D1*
X2006252Y1056181D1*
X2007535Y1060134D1*
X2009423Y1063836D1*
X2011865Y1067197D1*
X2014803Y1070135D1*
X2018164Y1072577D1*
X2021866Y1074465D1*
X2025819Y1075748D1*
X2029923Y1076399D1*
X2034077D1*
X2038181Y1075748D1*
X2042134Y1074465D1*
X2045836Y1072577D1*
X2049197Y1070135D1*
X2052135Y1067197D1*
X2054577Y1063836D1*
X2056465Y1060134D1*
X2057748Y1056181D1*
X2058399Y1052077D1*
Y1047923D1*
X2060399Y1317923D2*
X2059748Y1313819D1*
X2058465Y1309866D1*
X2056577Y1306164D1*
X2054135Y1302803D1*
X2051197Y1299865D1*
X2047836Y1297423D1*
X2044134Y1295535D1*
X2040181Y1294252D1*
X2036077Y1293601D1*
X2031923D1*
X2027819Y1294252D1*
X2023866Y1295535D1*
X2020164Y1297423D1*
X2016803Y1299865D1*
X2013865Y1302803D1*
X2011423Y1306164D1*
X2009535Y1309866D1*
X2008252Y1313819D1*
X2007601Y1317923D1*
Y1322077D1*
X2008252Y1326181D1*
X2009535Y1330134D1*
X2011423Y1333836D1*
X2013865Y1337197D1*
X2016803Y1340135D1*
X2020164Y1342577D1*
X2023866Y1344465D1*
X2027819Y1345748D1*
X2031923Y1346399D1*
X2036077D1*
X2040181Y1345748D1*
X2044134Y1344465D1*
X2047836Y1342577D1*
X2051197Y1340135D1*
X2054135Y1337197D1*
X2056577Y1333836D1*
X2058465Y1330134D1*
X2059748Y1326181D1*
X2060399Y1322077D1*
Y1317923D1*
X942399Y1071923D2*
X941748Y1067819D1*
X940465Y1063866D1*
X938577Y1060164D1*
X936135Y1056803D1*
X933197Y1053865D1*
X929836Y1051423D1*
X926134Y1049535D1*
X922181Y1048252D1*
X918077Y1047601D1*
X913923D1*
X909819Y1048252D1*
X905866Y1049535D1*
X902164Y1051423D1*
X898803Y1053865D1*
X895865Y1056803D1*
X893423Y1060164D1*
X891535Y1063866D1*
X890252Y1067819D1*
X889601Y1071923D1*
Y1076077D1*
X890252Y1080181D1*
X891535Y1084134D1*
X893423Y1087836D1*
X895865Y1091197D1*
X898803Y1094135D1*
X902164Y1096577D1*
X905866Y1098465D1*
X909819Y1099748D1*
X913923Y1100399D1*
X918077D1*
X922181Y1099748D1*
X926134Y1098465D1*
X929836Y1096577D1*
X933197Y1094135D1*
X936135Y1091197D1*
X938577Y1087836D1*
X940465Y1084134D1*
X941748Y1080181D1*
X942399Y1076077D1*
Y1071923D1*
X944399Y879923D2*
X943748Y875819D1*
X942465Y871866D1*
X940577Y868164D1*
X938135Y864803D1*
X935197Y861865D1*
X931836Y859423D1*
X928134Y857535D1*
X924181Y856252D1*
X920077Y855601D1*
X915923D1*
X911819Y856252D1*
X907866Y857535D1*
X904164Y859423D1*
X900803Y861865D1*
X897865Y864803D1*
X895423Y868164D1*
X893535Y871866D1*
X892252Y875819D1*
X891601Y879923D1*
Y884077D1*
X892252Y888181D1*
X893535Y892134D1*
X895423Y895836D1*
X897865Y899197D1*
X900803Y902135D1*
X904164Y904577D1*
X907866Y906465D1*
X911819Y907748D1*
X915923Y908399D1*
X920077D1*
X924181Y907748D1*
X928134Y906465D1*
X931836Y904577D1*
X935197Y902135D1*
X938135Y899197D1*
X940577Y895836D1*
X942465Y892134D1*
X943748Y888181D1*
X944399Y884077D1*
Y879923D1*
X1719841Y496077D2*
X1750114Y526257D1*
X1752829Y528230D1*
X1755818Y529753D1*
X1759009Y530790D1*
X1762323Y531315D1*
X1782000Y531381D1*
X1900436Y531423D1*
X1903978Y533594D1*
X1907818Y535184D1*
X1911858Y536154D1*
X1916000Y536480D1*
X1920142Y536154D1*
X1924182Y535184D1*
X1928022Y533594D1*
X1931564Y531423D1*
X1934724Y528724D1*
X1937423Y525564D1*
X1939594Y522022D1*
X1941184Y518182D1*
X1942154Y514142D1*
X1942480Y510000D1*
X1942154Y505858D1*
X1941184Y501818D1*
X1939594Y497978D1*
X1937423Y494436D1*
X1934724Y491276D1*
X1931564Y488577D1*
X1928022Y486406D1*
X1924182Y484816D1*
X1920142Y483846D1*
X1916000Y483520D1*
X1911858Y483846D1*
X1907818Y484816D1*
X1903978Y486406D1*
X1900365Y488633D1*
X1772820Y488619D1*
X1750059Y465764D1*
X1749089Y461723D1*
X1747500Y457883D1*
X1745328Y454341D1*
X1742630Y451181D1*
X1739470Y448483D1*
X1735928Y446311D1*
X1732088Y444722D1*
X1728047Y443752D1*
X1723906Y443425D1*
X1719764Y443752D1*
X1715723Y444722D1*
X1711883Y446311D1*
X1708341Y448483D1*
X1705181Y451181D1*
X1702483Y454341D1*
X1700311Y457883D1*
X1698722Y461723D1*
X1697752Y465764D1*
X1697425Y469906D1*
X1697752Y474047D1*
X1698722Y478088D1*
X1700311Y481928D1*
X1702483Y485470D1*
X1705181Y488630D1*
X1708341Y491328D1*
X1711883Y493500D1*
X1715723Y495089D1*
X1719852Y496070D1*
X1900365Y531367D2*
X1903978Y533594D1*
X1907818Y535184D1*
X1911858Y536154D1*
X1916000Y536480D1*
X1920142Y536154D1*
X1924182Y535184D1*
X1928022Y533594D1*
X1931564Y531423D1*
X1934724Y528724D1*
X1937423Y525564D1*
X1939594Y522022D1*
X1941184Y518182D1*
X1942154Y514142D1*
X1942480Y510000D1*
X1942154Y505858D1*
X1941184Y501818D1*
X1939594Y497978D1*
X1937423Y494436D1*
X1934724Y491276D1*
X1931564Y488577D1*
X1928022Y486406D1*
X1924182Y484816D1*
X1920142Y483846D1*
X1916000Y483520D1*
X1911858Y483846D1*
X1907818Y484816D1*
X1903978Y486406D1*
X1900365Y488633D1*
X1407482Y393239D2*
X1428297Y372424D1*
X1432077Y372399D1*
X1436181Y371748D1*
X1440134Y370465D1*
X1443836Y368577D1*
X1447197Y366135D1*
X1450135Y363197D1*
X1452577Y359836D1*
X1454465Y356134D1*
X1455748Y352181D1*
X1456399Y348077D1*
Y343923D1*
X1455748Y339819D1*
X1455213Y337919D1*
X1462759Y345402D1*
X1464976Y347014D1*
X1467421Y348260D1*
X1470030Y349108D1*
X1472739Y349537D1*
X1498110Y349591D1*
X1564087D1*
X1566803Y352245D1*
X1570164Y354688D1*
X1573866Y356575D1*
X1577819Y357858D1*
X1581923Y358509D1*
X1586077D1*
X1590181Y357858D1*
X1594134Y356575D1*
X1597836Y354688D1*
X1601197Y352245D1*
X1603887Y349576D1*
X1806867Y349591D1*
X2062524Y605244D1*
X2062520Y902101D1*
X2059865Y904803D1*
X2057423Y908164D1*
X2055535Y911866D1*
X2054252Y915819D1*
X2053601Y919923D1*
Y924077D1*
X2054252Y928181D1*
X2055535Y932134D1*
X2057423Y935836D1*
X2059865Y939197D1*
X2062803Y942135D1*
X2066164Y944577D1*
X2069866Y946465D1*
X2073819Y947748D1*
X2077923Y948399D1*
X2082077D1*
X2086533Y947650D1*
X2086520Y1110664D1*
X2082182Y1108824D1*
X2078142Y1107854D1*
X2074000Y1107528D1*
X2069858Y1107854D1*
X2065818Y1108824D1*
X2061978Y1110413D1*
X2058436Y1112585D1*
X2055276Y1115283D1*
X2054113Y1116542D1*
X1779227Y1116528D1*
X1604172Y941451D1*
X1612133Y941480D1*
X1614803Y944135D1*
X1618164Y946577D1*
X1621866Y948465D1*
X1625819Y949748D1*
X1629923Y950399D1*
X1634077D1*
X1638181Y949748D1*
X1642134Y948465D1*
X1645836Y946577D1*
X1649197Y944135D1*
X1652135Y941197D1*
X1654577Y937836D1*
X1656465Y934134D1*
X1657748Y930181D1*
X1658399Y926077D1*
Y921923D1*
X1657748Y917819D1*
X1656465Y913866D1*
X1654577Y910164D1*
X1652135Y906803D1*
X1649197Y903865D1*
X1645836Y901423D1*
X1642134Y899535D1*
X1638181Y898252D1*
X1634077Y897601D1*
X1629923D1*
X1625819Y898252D1*
X1621866Y899535D1*
X1618164Y901423D1*
X1614803Y903865D1*
X1612113Y906534D1*
X1605211Y906520D1*
X1477198Y778478D1*
X1482142Y778154D1*
X1486182Y777184D1*
X1490022Y775594D1*
X1493564Y773423D1*
X1496724Y770724D1*
X1497887Y769466D1*
X1926101Y769480D1*
X1928803Y772135D1*
X1932164Y774577D1*
X1935866Y776465D1*
X1939819Y777748D1*
X1943923Y778399D1*
X1948077D1*
X1952181Y777748D1*
X1956134Y776465D1*
X1959836Y774577D1*
X1963197Y772135D1*
X1966135Y769197D1*
X1968577Y765836D1*
X1970465Y762134D1*
X1971748Y758181D1*
X1972399Y754077D1*
Y749923D1*
X1971748Y745819D1*
X1970465Y741866D1*
X1968577Y738164D1*
X1966135Y734803D1*
X1963197Y731865D1*
X1959836Y729423D1*
X1956134Y727535D1*
X1952181Y726252D1*
X1948077Y725601D1*
X1943923D1*
X1939819Y726252D1*
X1935866Y727535D1*
X1932164Y729423D1*
X1928803Y731865D1*
X1926113Y734534D1*
X1902196Y734520D1*
X1927269Y709451D1*
X1929276Y710724D1*
X1932436Y713423D1*
X1935978Y715594D1*
X1939818Y717184D1*
X1943858Y718154D1*
X1948000Y718480D1*
X1952142Y718154D1*
X1956182Y717184D1*
X1960022Y715594D1*
X1963564Y713423D1*
X1966724Y710724D1*
X1969423Y707564D1*
X1971594Y704022D1*
X1973184Y700182D1*
X1974154Y696142D1*
X1974480Y692000D1*
X1974154Y687858D1*
X1973184Y683818D1*
X1971594Y679978D1*
X1969423Y676436D1*
X1966724Y673276D1*
X1963564Y670577D1*
X1960022Y668406D1*
X1956182Y666816D1*
X1952142Y665846D1*
X1948000Y665520D1*
X1943858Y665846D1*
X1939818Y666816D1*
X1935978Y668406D1*
X1932436Y670577D1*
X1930962Y671739D1*
X1946282Y656438D1*
X1950077Y656399D1*
X1954181Y655748D1*
X1958134Y654465D1*
X1961836Y652577D1*
X1965197Y650135D1*
X1968135Y647197D1*
X1970577Y643836D1*
X1972465Y640134D1*
X1973748Y636181D1*
X1974399Y632077D1*
Y627923D1*
X1973748Y623819D1*
X1972465Y619866D1*
X1970577Y616164D1*
X1968135Y612803D1*
X1965197Y609865D1*
X1961836Y607423D1*
X1958134Y605535D1*
X1954181Y604252D1*
X1950077Y603601D1*
X1945923D1*
X1941819Y604252D1*
X1937866Y605535D1*
X1934164Y607423D1*
X1930962Y609739D1*
X1946311Y594409D1*
X1950077Y594399D1*
X1954181Y593748D1*
X1958134Y592465D1*
X1961836Y590577D1*
X1965197Y588135D1*
X1968135Y585197D1*
X1970577Y581836D1*
X1972465Y578134D1*
X1973748Y574181D1*
X1974399Y570077D1*
Y565923D1*
X1973748Y561819D1*
X1972465Y557866D1*
X1970577Y554164D1*
X1968135Y550803D1*
X1965197Y547865D1*
X1961836Y545423D1*
X1958134Y543535D1*
X1954181Y542252D1*
X1950077Y541601D1*
X1945923D1*
X1941819Y542252D1*
X1937866Y543535D1*
X1934164Y545423D1*
X1930803Y547865D1*
X1927865Y550803D1*
X1925423Y554164D1*
X1923535Y557866D1*
X1922252Y561819D1*
X1921601Y565923D1*
X1921588Y569713D1*
X1832739Y658541D1*
X1579867Y658520D1*
X1577197Y655865D1*
X1573836Y653423D1*
X1570134Y651535D1*
X1566181Y650252D1*
X1562077Y649601D1*
X1557923D1*
X1553819Y650252D1*
X1549866Y651535D1*
X1546164Y653423D1*
X1542803Y655865D1*
X1539865Y658803D1*
X1537423Y662164D1*
X1535535Y665866D1*
X1534252Y669819D1*
X1533601Y673923D1*
X1533530Y675748D1*
X1530000Y675520D1*
X1525858Y675846D1*
X1521818Y676816D1*
X1517978Y678406D1*
X1514436Y680577D1*
X1511276Y683276D1*
X1508577Y686436D1*
X1506406Y689978D1*
X1504816Y693818D1*
X1503846Y697858D1*
X1503539Y701521D1*
X1499858Y701846D1*
X1495818Y702816D1*
X1491978Y704406D1*
X1488436Y706577D1*
X1485276Y709276D1*
X1482577Y712436D1*
X1480406Y715978D1*
X1478816Y719818D1*
X1477846Y723858D1*
X1477648Y725528D1*
X1473858Y725846D1*
X1471467Y726350D1*
X1471480Y471867D1*
X1474135Y469197D1*
X1476577Y465836D1*
X1478465Y462134D1*
X1479748Y458181D1*
X1480399Y454077D1*
Y449923D1*
X1479748Y445819D1*
X1478465Y441866D1*
X1476577Y438164D1*
X1474135Y434803D1*
X1471197Y431865D1*
X1467836Y429423D1*
X1464134Y427535D1*
X1460181Y426252D1*
X1456077Y425601D1*
X1451923D1*
X1447819Y426252D1*
X1443866Y427535D1*
X1440164Y429423D1*
X1436803Y431865D1*
X1433865Y434803D1*
X1431423Y438164D1*
X1429535Y441866D1*
X1428252Y445819D1*
X1427601Y449923D1*
Y454077D1*
X1428252Y458181D1*
X1429535Y462134D1*
X1431423Y465836D1*
X1433865Y469197D1*
X1436534Y471887D1*
X1436520Y487836D1*
X1432134Y485535D1*
X1428181Y484252D1*
X1424077Y483601D1*
X1419923D1*
X1415819Y484252D1*
X1411866Y485535D1*
X1408164Y487423D1*
X1407469Y487887D1*
X1407480Y393243D1*
X2067936Y520172D2*
X2156634Y608870D1*
X2156619Y1815164D1*
X2031858Y1939846D1*
X2027818Y1940816D1*
X2023978Y1942406D1*
X2020436Y1944577D1*
X2017276Y1947276D1*
X2014577Y1950436D1*
X2012406Y1953978D1*
X2010816Y1957818D1*
X2009846Y1961858D1*
X2009520Y1966000D1*
X2009846Y1970142D1*
X2010816Y1974182D1*
X2012406Y1978022D1*
X2014577Y1981564D1*
X2017276Y1984724D1*
X2020436Y1987423D1*
X2023978Y1989594D1*
X2027818Y1991184D1*
X2031858Y1992154D1*
X2036000Y1992480D1*
X2040142Y1992154D1*
X2044182Y1991184D1*
X2048022Y1989594D1*
X2051564Y1987423D1*
X2054724Y1984724D1*
X2057423Y1981564D1*
X2059594Y1978022D1*
X2061184Y1974182D1*
X2062164Y1970054D1*
X2194257Y1837886D1*
X2196230Y1835171D1*
X2197753Y1832182D1*
X2198790Y1828991D1*
X2199315Y1825677D1*
X2199381Y1806000D1*
X2199315Y598323D1*
X2198790Y595009D1*
X2197753Y591818D1*
X2196230Y588829D1*
X2194257Y586114D1*
X2180390Y572154D1*
X2098154Y489858D1*
X2097184Y485818D1*
X2095594Y481978D1*
X2093423Y478436D1*
X2090724Y475276D1*
X2087564Y472577D1*
X2084022Y470406D1*
X2080182Y468816D1*
X2076142Y467846D1*
X2072000Y467520D1*
X2067858Y467846D1*
X2063818Y468816D1*
X2059978Y470406D1*
X2056436Y472577D1*
X2053276Y475276D1*
X2050577Y478436D1*
X2048406Y481978D1*
X2046816Y485818D1*
X2045846Y489858D1*
X2045520Y494000D1*
X2045846Y498142D1*
X2046816Y502182D1*
X2048406Y506022D1*
X2050577Y509564D1*
X2053276Y512724D1*
X2056436Y515423D1*
X2059978Y517594D1*
X2063818Y519184D1*
X2067946Y520164D1*
X1856189Y684531D2*
X1927584Y613136D1*
X1925423Y616164D1*
X1923535Y619866D1*
X1922252Y623819D1*
X1921601Y627923D1*
X1921588Y631713D1*
X1868735Y684545D1*
X1856196Y684520D1*
X1403874Y2218150D2*
X1407819Y2219430D1*
X1411923Y2220081D1*
X1416077D1*
X1420181Y2219430D1*
X1424134Y2218147D1*
X1427836Y2216260D1*
X1431197Y2213818D1*
X1434135Y2210879D1*
X1436577Y2207518D1*
X1438465Y2203816D1*
X1439748Y2199864D1*
X1440399Y2195760D1*
Y2191605D1*
X1439748Y2187501D1*
X1438467Y2183556D1*
X1275633Y1541381D2*
X1435428Y1541423D1*
X1438970Y1543594D1*
X1442810Y1545184D1*
X1446850Y1546154D1*
X1450992Y1546480D1*
X1455134Y1546154D1*
X1459175Y1545184D1*
X1463014Y1543594D1*
X1466556Y1541423D1*
X1469717Y1538724D1*
X1472415Y1535564D1*
X1474587Y1532022D1*
X1476176Y1528182D1*
X1477146Y1524142D1*
X1477472Y1520000D1*
X1477146Y1515858D1*
X1476176Y1511818D1*
X1474587Y1507978D1*
X1472415Y1504436D1*
X1469717Y1501276D1*
X1466556Y1498577D1*
X1463014Y1496406D1*
X1459175Y1494816D1*
X1455134Y1493846D1*
X1450992Y1493520D1*
X1446850Y1493846D1*
X1442810Y1494816D1*
X1438970Y1496406D1*
X1435357Y1498633D1*
X1275564Y1498577D1*
X1272022Y1496406D1*
X1268182Y1494816D1*
X1264142Y1493846D1*
X1260000Y1493520D1*
X1255858Y1493846D1*
X1251818Y1494816D1*
X1247978Y1496406D1*
X1244436Y1498577D1*
X1241276Y1501276D1*
X1238577Y1504436D1*
X1236406Y1507978D1*
X1234816Y1511818D1*
X1233846Y1515858D1*
X1233520Y1520000D1*
X1233846Y1524142D1*
X1234816Y1528182D1*
X1236406Y1532022D1*
X1238577Y1535564D1*
X1241276Y1538724D1*
X1244436Y1541423D1*
X1247978Y1543594D1*
X1251818Y1545184D1*
X1255858Y1546154D1*
X1260000Y1546480D1*
X1264142Y1546154D1*
X1268182Y1545184D1*
X1272022Y1543594D1*
X1275635Y1541367D1*
X1550640Y1541381D2*
X1708436Y1541423D1*
X1711978Y1543594D1*
X1715818Y1545184D1*
X1719858Y1546154D1*
X1724000Y1546480D1*
X1728142Y1546154D1*
X1732182Y1545184D1*
X1736022Y1543594D1*
X1739564Y1541423D1*
X1742724Y1538724D1*
X1745423Y1535564D1*
X1747594Y1532022D1*
X1749184Y1528182D1*
X1750154Y1524142D1*
X1750480Y1520000D1*
X1750154Y1515858D1*
X1749184Y1511818D1*
X1747594Y1507978D1*
X1745423Y1504436D1*
X1742724Y1501276D1*
X1739564Y1498577D1*
X1736022Y1496406D1*
X1732182Y1494816D1*
X1728142Y1493846D1*
X1724000Y1493520D1*
X1719858Y1493846D1*
X1715818Y1494816D1*
X1711978Y1496406D1*
X1708365Y1498633D1*
X1550572Y1498577D1*
X1547030Y1496406D1*
X1543190Y1494816D1*
X1539150Y1493846D1*
X1535008Y1493520D1*
X1530866Y1493846D1*
X1526825Y1494816D1*
X1522986Y1496406D1*
X1519444Y1498577D1*
X1516283Y1501276D1*
X1513585Y1504436D1*
X1511413Y1507978D1*
X1509824Y1511818D1*
X1508854Y1515858D1*
X1508528Y1520000D1*
X1508854Y1524142D1*
X1509824Y1528182D1*
X1511413Y1532022D1*
X1513585Y1535564D1*
X1516283Y1538724D1*
X1519444Y1541423D1*
X1522986Y1543594D1*
X1526825Y1545184D1*
X1530866Y1546154D1*
X1535008Y1546480D1*
X1539150Y1546154D1*
X1543190Y1545184D1*
X1547030Y1543594D1*
X1550643Y1541367D1*
X1564113Y349576D2*
X1566803Y352245D1*
X1570164Y354688D1*
X1573866Y356575D1*
X1577819Y357858D1*
X1581923Y358509D1*
X1586077D1*
X1590181Y357858D1*
X1594134Y356575D1*
X1597836Y354688D1*
X1601197Y352245D1*
X1603887Y349576D1*
X1774287Y2110412D2*
X1778077Y2110399D1*
X1782181Y2109748D1*
X1786134Y2108465D1*
X1789836Y2106577D1*
X1793197Y2104135D1*
X1796135Y2101197D1*
X1798577Y2097836D1*
X1800465Y2094134D1*
X1801748Y2090181D1*
X1802399Y2086077D1*
Y2081923D1*
X1801748Y2077819D1*
X1800465Y2073866D1*
X1798577Y2070164D1*
X1796135Y2066803D1*
X1795469Y2066081D1*
X1640113Y2209466D2*
X1642803Y2212135D1*
X1646164Y2214577D1*
X1649866Y2216465D1*
X1653819Y2217748D1*
X1657923Y2218399D1*
X1662077D1*
X1666181Y2217748D1*
X1670134Y2216465D1*
X1673836Y2214577D1*
X1677197Y2212135D1*
X1680135Y2209197D1*
X1682577Y2205836D1*
X1684465Y2202134D1*
X1685446Y2199252D1*
X2096600Y275923D2*
X2095949Y271819D1*
X2094665Y267866D1*
X2092778Y264164D1*
X2090336Y260803D1*
X2087398Y257865D1*
X2084037Y255423D1*
X2080335Y253535D1*
X2076382Y252252D1*
X2072278Y251601D1*
X2068123D1*
X2064020Y252252D1*
X2060067Y253535D1*
X2056365Y255423D1*
X2053004Y257865D1*
X2050314Y260534D1*
X18976Y19000D2*
X2381000D1*
Y2381000D1*
X19000D1*
Y18992D1*
X628000Y84000D2*
D14*
Y40016D1*
X584016Y84000D2*
X671984D1*
X480016Y1895890D2*
Y1796110D1*
X430126Y1846000D2*
X529906D1*
D25*
X886000Y404000D3*
D31*
X800000Y544000D3*
D25*
Y644000D3*
Y744000D3*
D32*
X428000Y84000D3*
D34*
X528000D3*
X628000D3*
X728000D3*
X828000D3*
X928000D3*
D35*
X280000Y1746000D3*
X279906Y2146000D3*
D37*
X480016Y1946000D3*
Y1846000D3*
D25*
X1322000Y2278000D3*
M02*
