G04 DipTrace 3.0.0.2*
G04 SDR_Transmitter.GTL*
%MOIN*%
G04 #@! TF.FileFunction,Copper,L1,Top*
G04 #@! TF.Part,Single*
%AMOUTLINE0*5,1,4,0,0,0.055678,-135.0*%
%AMOUTLINE3*5,1,4,0,0,0.055678,-45.0*%
%AMOUTLINE6*5,1,4,0,0,0.055678,45.0*%
%AMOUTLINE9*
4,1,4,
-0.031496,-0.005906,
-0.031496,0.005906,
0.031496,0.005906,
0.031496,-0.005906,
-0.031496,-0.005906,
0*%
%AMOUTLINE12*
4,1,4,
0.005906,-0.031496,
-0.005906,-0.031496,
-0.005906,0.031496,
0.005906,0.031496,
0.005906,-0.031496,
0*%
%AMOUTLINE15*
4,1,10,
-0.019685,0.100394,
-0.019685,0.033465,
-0.043307,0.009843,
-0.043307,-0.076772,
-0.019685,-0.100394,
0.019685,-0.100394,
0.043307,-0.076772,
0.043307,0.009843,
0.019685,0.033465,
0.019685,0.100394,
-0.019685,0.100394,
0*%
G04 #@! TA.AperFunction,Conductor*
%ADD13C,0.006*%
G04 #@! TA.AperFunction,CopperBalancing*
%ADD14C,0.01*%
G04 #@! TA.AperFunction,Conductor*
%ADD15C,0.011811*%
%ADD16C,0.013801*%
G04 #@! TA.AperFunction,CopperBalancing*
%ADD17C,0.008*%
G04 #@! TA.AperFunction,Conductor*
%ADD18C,0.02*%
%ADD19C,0.0115*%
%ADD20C,0.019685*%
G04 #@! TA.AperFunction,CopperBalancing*
%ADD21C,0.012*%
%ADD22R,0.03937X0.03937*%
%ADD23R,0.043307X0.03937*%
%ADD24R,0.03937X0.043307*%
G04 #@! TA.AperFunction,ComponentPad*
%ADD25C,0.06*%
%ADD27R,0.088583X0.019685*%
%ADD28R,0.137795X0.080709*%
%ADD29R,0.15748X0.080709*%
%ADD30R,0.094488X0.110236*%
G04 #@! TA.AperFunction,ComponentPad*
%ADD31R,0.06X0.06*%
%ADD32R,0.059055X0.059055*%
%ADD34C,0.059055*%
%ADD35C,0.120079*%
%ADD37C,0.070866*%
%ADD39R,0.062992X0.224409*%
%ADD40R,0.066929X0.031496*%
%ADD42R,0.03937X0.027559*%
%ADD43R,0.015748X0.070866*%
%ADD45R,0.011811X0.055118*%
%ADD47R,0.084646X0.037402*%
%ADD48R,0.084646X0.127953*%
%ADD50O,0.011811X0.033465*%
%ADD51O,0.033465X0.011811*%
%ADD52R,0.259843X0.259843*%
%ADD54R,0.03937X0.059055*%
%ADD55R,0.042913X0.033465*%
G04 #@! TA.AperFunction,ViaPad*
%ADD56C,0.024*%
%ADD123OUTLINE0*%
%ADD126OUTLINE3*%
%ADD129OUTLINE6*%
%ADD132OUTLINE9*%
%ADD135OUTLINE12*%
%ADD138OUTLINE15*%
%FSLAX26Y26*%
G04*
G70*
G90*
G75*
G01*
G04 Top*
%LPD*%
X1658677Y870000D2*
D13*
Y874000D1*
X1704000D1*
X1756000D1*
X1453953Y1153465D2*
Y1090047D1*
X1596000Y948000D1*
X1756000D1*
Y938000D1*
X916346Y981449D2*
X926000D1*
Y1048000D1*
X972000Y1094000D1*
X1013008D1*
X916346Y981449D2*
D14*
X926000D1*
Y908000D1*
X962000Y872000D1*
X1012000D1*
X1823528Y186000D2*
D13*
X1806000D1*
X1780000Y160000D1*
X1728000D1*
X1666000Y214000D2*
Y159999D1*
X1664000D1*
X1589228Y137228D2*
X1613228D1*
X1635999Y159999D1*
X1664000D1*
X688000Y981449D2*
X800551D1*
X802000Y980000D1*
X916346Y981449D2*
X803449D1*
X802000Y980000D1*
X1664000Y159999D2*
X1728000Y160000D1*
X2102000Y95008D2*
X2164992D1*
X2165496Y94504D1*
X2221496D1*
X2222000Y94000D1*
X1823528Y186000D2*
Y118472D1*
X1824000Y118000D1*
X1756000Y874000D2*
Y938000D1*
X1293953Y586047D2*
Y534047D1*
X1332000Y496000D1*
X1217181Y214000D2*
X1174000D1*
X1158000Y198000D1*
X2032000Y1050000D2*
Y1050142D1*
X2080000Y1098142D1*
X2034000Y1320000D2*
Y1320142D1*
X2080000Y1366142D1*
X1704000Y896000D2*
Y874000D1*
X1672000Y564001D2*
X1644001D1*
X1576000Y496000D1*
X1621780Y450220D1*
X1666000D1*
X1576000Y496000D2*
X1549858Y522142D1*
Y586047D1*
X1110000Y156000D2*
X1116000D1*
X1158000Y198000D1*
X2011146Y222854D2*
Y329146D1*
X2012000Y330000D1*
X2070201Y396083D2*
Y330000D1*
X2012000D1*
X2172000Y324000D2*
Y330000D1*
X2012000D1*
X1666000Y469906D2*
D15*
X1704396D1*
D16*
X1723906D1*
X1916000Y510000D2*
X1888000Y538000D1*
Y672000D1*
X1754000Y806000D1*
X1610000D1*
X1607496Y808504D1*
Y870000D1*
X1581906D2*
Y834094D1*
X1607496Y808504D1*
X2011146Y396083D2*
D15*
Y482854D1*
D16*
X1984000Y510000D1*
X1916000D1*
X1996000Y1750000D2*
X1934000D1*
X1996000D2*
X2054992D1*
X2056000Y1748992D1*
X1601480Y1838000D2*
D15*
Y1814367D1*
D16*
Y1800520D1*
X1652000Y1750000D1*
X1934000D1*
X1666000Y351795D2*
D13*
X1781795D1*
X1832000Y402000D1*
Y630000D1*
X1714000Y748000D1*
X1614000D1*
X1556315Y805685D1*
Y870000D1*
X1666000Y371480D2*
X1673480D1*
X1674000Y372000D1*
X1772000D1*
X1816000Y416000D1*
Y614000D1*
X1704000Y726000D1*
X1614000D1*
X1530000Y810000D1*
Y869276D1*
X1530724Y870000D1*
X1666000Y391165D2*
Y392000D1*
X1760000D1*
X1798000Y430000D1*
Y604000D1*
X1700000Y702000D1*
X1608000D1*
X1506000Y804000D1*
Y869134D1*
X1505134Y870000D1*
X1666000Y410850D2*
Y410000D1*
X1750000D1*
X1782000Y442000D1*
Y590000D1*
X1696000Y676000D1*
X1604000D1*
X1480000Y800000D1*
Y869543D1*
X1479543Y870000D1*
X1451433Y586047D2*
Y817528D1*
X1453953Y820047D1*
Y870000D1*
X1428362D2*
Y817638D1*
X1431748Y814252D1*
Y586047D1*
X1402772Y870000D2*
Y814772D1*
X1268000Y680000D1*
X1168000D1*
X1122000Y634000D1*
Y464000D1*
X1156000Y430000D1*
X1216646D1*
X1217181Y430535D1*
X1377181Y870000D2*
Y817181D1*
X1264000Y704000D1*
X1162000D1*
X1102000Y644000D1*
Y458000D1*
X1150000Y410000D1*
X1216331D1*
X1217181Y410850D1*
X1351591Y870000D2*
Y817591D1*
X1262000Y728000D1*
X1160000D1*
X1082000Y650000D1*
Y452000D1*
X1142000Y392000D1*
X1216346D1*
X1217181Y391165D1*
X1326000Y870000D2*
Y822000D1*
X1256000Y752000D1*
X1160000D1*
X1064000Y656000D1*
Y444000D1*
X1136520Y371480D1*
X1217181D1*
X1431748Y137228D2*
X1430000D1*
Y346000D1*
X1290000Y1152000D2*
X1326000D1*
Y1153465D1*
X1333323Y137228D2*
X1334000D1*
Y332000D1*
X1454000Y452000D1*
X1632000Y924000D2*
Y871087D1*
X1633087Y870000D1*
X1217181Y332110D2*
D17*
X957890D1*
X886000Y404000D1*
X1463685Y1838000D2*
D14*
Y1819685D1*
X1456000Y1812000D1*
D16*
Y1630000D1*
X1322992Y1496992D1*
Y1470000D1*
X1264000Y1410992D2*
X1266992D1*
X1267984Y1410000D1*
X1324000D1*
X1322992Y1470000D2*
Y1410000D1*
X1324000D1*
X1377181Y1153465D2*
Y1208819D1*
X1324992Y1261008D1*
Y1290000D1*
Y1347079D1*
X1324102Y1347969D1*
X1264000Y1348000D2*
Y1347969D1*
X1324102D1*
X1414472Y2103748D2*
D13*
X1386252D1*
X1364000Y2126000D1*
X1366000D1*
X1358000Y2134000D1*
X1310000D1*
X1412063Y586047D2*
Y643937D1*
X1356000Y700000D1*
X2030831Y396083D2*
D14*
Y452831D1*
X2072000Y494000D1*
X2036000Y1966000D2*
D16*
X1992000Y2010000D1*
X1952000D1*
X1950000Y2008000D1*
X1414467Y2123433D2*
D13*
X1404567D1*
X1380000Y2148000D1*
Y2220000D1*
X1322000Y2278000D1*
X1542425Y1838000D2*
Y1965955D1*
X1571950Y1995480D1*
X1414472Y1906898D2*
X1483367D1*
X1571950Y1995480D1*
X1414472Y1926583D2*
X1503052D1*
X1571950Y1995480D1*
X1414472Y1946268D2*
X1522738D1*
X1571950Y1995480D1*
X1414472Y1965953D2*
X1542423D1*
X1414472Y1985638D2*
X1474000D1*
X1562108D1*
X1571950Y1995480D1*
X1414472Y2005323D2*
X1562108D1*
X1571950Y1995480D1*
X1414472Y2044693D2*
X1522738D1*
X1571950Y1995480D1*
X1414472Y2064378D2*
X1503052D1*
X1571950Y1995480D1*
X1729433Y1926583D2*
X1640848D1*
X1571950Y1995480D1*
X1729433Y1946268D2*
X1621163D1*
X1571950Y1995480D1*
X1729433Y1965953D2*
X1601478D1*
X1571950Y1995480D1*
X1729433Y1985638D2*
X1581793D1*
X1571950Y1995480D1*
X1729433Y2005323D2*
X1581793D1*
X1571950Y1995480D1*
X1729433Y2025008D2*
X1662000D1*
X1601478D1*
X1571950Y1995480D1*
X1729433Y2044693D2*
X1621163D1*
X1571950Y1995480D1*
X1729433Y2103748D2*
X1680218D1*
X1571950Y1995480D1*
X1640850Y2152961D2*
Y2064381D1*
X1571950Y1995480D1*
X1542425Y2152961D2*
Y2025005D1*
X1571950Y1995480D1*
X1503055Y2152961D2*
Y2064375D1*
X1483370Y2152961D2*
Y2084060D1*
X1571950Y1995480D1*
X1662000Y2020000D2*
Y2025008D1*
X1474000Y1982000D2*
Y1985638D1*
X1996000Y1687008D2*
Y1624000D1*
X1884992Y1886000D2*
X1946000D1*
X1948000Y1884000D1*
X1884992Y1886000D2*
Y1826000D1*
X1562110Y1838000D2*
Y1801890D1*
X1656000Y1708000D1*
X1768992D1*
X1772000Y1704992D1*
X1621165Y2152961D2*
Y2191165D1*
X1662000Y2232000D1*
Y2249969D1*
X1601480Y2152961D2*
Y2249449D1*
X1602000Y2249969D1*
X1581795Y2152961D2*
Y2206205D1*
X1542000Y2246000D1*
Y2249969D1*
X1530173Y586047D2*
Y646173D1*
X1560000Y676000D1*
X1948000Y568000D2*
X1991969D1*
Y572000D1*
X688000Y704000D2*
D18*
Y644000D1*
X687984D1*
Y584255D1*
X688000Y524000D2*
Y584255D1*
X687984D1*
X800000Y644000D2*
X687984D1*
X1444000Y2152961D2*
D13*
X1463685D1*
X1640850Y1838000D2*
D14*
Y1813150D1*
X1666000Y1788000D1*
X1714000D1*
D18*
X1758000D1*
X1796000Y1826000D1*
X1822000D1*
X1352000Y1869969D2*
D13*
X1348031Y1866000D1*
X1444000Y2152961D2*
D14*
Y2193682D1*
Y2241969D1*
X688000Y890898D2*
D18*
Y704000D1*
X796571Y2035815D2*
X760000D1*
X729563D1*
X1444000Y2193682D2*
D14*
X1414000D1*
X796000Y2130000D2*
D18*
Y2035815D1*
X1352000Y1866000D2*
X1348031D1*
X1414472Y1867528D2*
D14*
Y1887213D1*
Y1867528D2*
X1414000D1*
Y1838000D1*
Y1806000D1*
X1444000Y1838000D2*
X1414000D1*
X1414472Y1867528D2*
D15*
X1387740D1*
D14*
X1349559D1*
D18*
X1348031Y1866000D1*
X962000Y2025701D2*
D16*
X963039Y2026740D1*
X1023039D1*
X1024000Y2025780D1*
Y1959732D1*
X2131071Y572000D2*
D13*
X2054961D1*
X2056000Y632000D2*
X2131071D1*
X1886000Y1946000D2*
D16*
X1888000D1*
Y1946992D1*
X1948000D1*
X1886000Y1946000D2*
Y2006992D1*
X1887008Y2008000D1*
X1933008Y1624000D2*
Y1686016D1*
X1934000Y1687008D1*
X1076000Y1094000D2*
D13*
Y1052000D1*
X1042000Y1018000D1*
X1018000D1*
Y1018929D1*
X2056000Y1686000D2*
D16*
X2119008D1*
X2120000Y1685008D1*
X2118000Y1624000D2*
Y1683008D1*
X2120000Y1685008D1*
X1471118Y586047D2*
D13*
Y745118D1*
X1478000Y752000D1*
X1946000D2*
X1993039D1*
X1247008Y2134000D2*
Y2132000D1*
X1134929D1*
X1414472Y2025008D2*
D15*
X1390840D1*
D16*
X1331008D1*
X1304000Y1998000D1*
X1260000Y1470000D2*
Y1520000D1*
X1450992D2*
Y1470000D1*
X1535008D2*
Y1520000D1*
X1724000D2*
Y1470000D1*
X1217181Y233685D2*
D13*
X1145685D1*
X1132000Y220000D1*
X1109999D1*
X1313638Y586047D2*
Y632362D1*
X1294000Y652000D1*
X1242001D1*
X1218000Y627999D1*
X1923504Y1466496D2*
X1983504D1*
X1510488Y137228D2*
X1512000D1*
Y306000D1*
X2104000Y1446000D2*
X2083504Y1466496D1*
X2080000Y1470000D1*
Y1500000D1*
X1983504Y1466496D2*
X2083504D1*
X1633087Y1153465D2*
X1632000D1*
Y1114000D1*
X1652000Y1094000D1*
X1682000D1*
X1718000Y1130000D1*
X1756000D1*
X1351591Y1153465D2*
Y1111591D1*
X1280000Y1040000D1*
X1222000D1*
X1479543Y1153465D2*
Y1100457D1*
X1608000Y972000D1*
X1814000D1*
X1828000Y958000D1*
Y938000D1*
X1818992D1*
X1530724Y1153465D2*
Y1113276D1*
X1578000Y1066000D1*
X1756000D1*
X1505134Y1153465D2*
X1504000D1*
Y1110000D1*
X1612000Y1002000D1*
X1755008D1*
X1729433Y1906898D2*
D19*
X1756898D1*
D16*
X1796000Y1946000D1*
X1823008D1*
X666571Y2035815D2*
Y1961815D1*
X662634D1*
X725890Y1962000D2*
X662634D1*
Y1961815D1*
X844000Y1962000D2*
X962000D1*
Y1962709D1*
X1510488Y586047D2*
D13*
Y682488D1*
X1530000Y702000D1*
X1948000Y630000D2*
X1993008D1*
Y632000D1*
X864575Y1253197D2*
Y1252000D1*
D14*
X956000D1*
X1086031Y2026740D2*
D16*
X1086000Y1959732D1*
X1086031Y2026740D2*
Y2024000D1*
X1215008D1*
X1241008Y1998000D1*
X1985000Y1134008D2*
D13*
X2074000D1*
X1422000Y510000D2*
X1392378Y539622D1*
Y586047D1*
X2080000Y1232000D2*
Y1140008D1*
X2074000Y1134008D1*
X1925000D2*
X1985000D1*
X1490803Y586047D2*
X1492000Y587244D1*
Y716000D1*
X1504000Y728000D1*
X1948000Y692000D2*
X1993039D1*
X599642Y1961815D2*
D16*
X480016D1*
Y1946000D1*
X2056031Y692000D2*
D13*
X2131071D1*
X2056031Y752000D2*
X2131071D1*
X778000Y1290598D2*
D18*
X800598D1*
X823008Y1313008D1*
Y1412000D1*
X824000Y1624000D2*
Y1412992D1*
X823008Y1412000D1*
X1018000Y1316000D2*
D14*
X956000D1*
Y1314992D1*
Y1370000D1*
X864575Y1328000D2*
D18*
X886000Y1349425D1*
Y1412000D1*
X864575Y1290598D2*
D14*
X840598D1*
X822000Y1272000D1*
Y1230000D1*
X781969Y1189969D1*
X690000D1*
X778000Y1253197D2*
D18*
X777764Y1252961D1*
X690000D1*
Y1313008D2*
Y1252961D1*
X370157Y1308535D2*
X690000D1*
Y1252961D1*
X130000Y1308535D2*
X370157D1*
X1666000Y332110D2*
D13*
X1584000D1*
X1978000Y922000D2*
X2080000D1*
Y960000D2*
Y922000D1*
X1660000Y1412000D2*
D16*
X1661008Y1413008D1*
Y1470000D1*
X1522740Y1838000D2*
D14*
Y1817260D1*
X1530000Y1810000D1*
D16*
Y1630000D1*
X1661008Y1498992D1*
Y1470000D1*
X1722000Y1410992D2*
X1721008D1*
X1720000Y1412000D2*
X1660000D1*
X1607496Y1153465D2*
Y1209496D1*
X1661236Y1263236D1*
Y1290000D1*
X1722000Y1348000D2*
X1661031D1*
X1661236Y1290000D2*
Y1347795D1*
X1660535Y1838000D2*
D14*
X1680220D1*
X1699906D1*
X1729433Y1867528D1*
Y1887213D1*
X1562110Y2152961D2*
D13*
Y2185890D1*
X1556000Y2192000D1*
X1660000D2*
Y2153496D1*
X1660535Y2152961D1*
X1729433Y2064378D2*
Y2084063D1*
Y2084000D1*
X1776000D1*
X1729433Y1887213D2*
Y1888000D1*
D14*
X1778000D1*
X1722000Y2249969D2*
D13*
Y2248000D1*
X1666000Y2192000D1*
X1660000D1*
X1822000Y1886000D2*
D14*
X1776000D1*
X1778000Y1888000D1*
X2070201Y222854D2*
D13*
X2071146D1*
Y184854D1*
X2098000Y158000D1*
X2102000D1*
X2070201Y222854D2*
Y278000D1*
X1472000D2*
Y138110D1*
X1471118Y137228D1*
X1680220Y2152961D2*
Y2178220D1*
X1698000Y2196000D1*
X1726000D1*
X1490803Y137228D2*
X1490000Y138031D1*
Y68000D1*
X2130000Y224000D2*
X2131146Y222854D1*
X2089886D1*
X1699906Y2152961D2*
X2033039D1*
X2165496Y157496D2*
Y188504D1*
X2131146Y222854D1*
X1293953Y137228D2*
X1190772D1*
X1192000Y136000D1*
X1217181Y253370D2*
X897370D1*
X728000Y84000D1*
X1412063Y137228D2*
Y96063D1*
X1400000Y84000D1*
X928000D1*
X1666000Y292740D2*
D15*
X1704396D1*
D16*
X1822787D1*
X1823528Y293480D1*
X2030831Y222854D2*
D14*
Y180831D1*
D16*
X2022000Y172000D1*
X2008000D1*
X1928000Y252000D1*
X1846000D1*
X1826000Y272000D1*
Y291008D1*
X1823528Y293480D1*
X1372693Y586047D2*
D13*
Y621307D1*
X1330000Y664000D1*
X1190000Y2084063D2*
X1414472D1*
X258000Y462992D2*
D20*
X409008D1*
D18*
X718992D1*
X800000Y544000D1*
X258000Y431496D2*
D13*
X364504D1*
X504000Y292000D1*
X1216441D1*
X1217181Y292740D1*
Y273055D2*
Y274000D1*
X494000D1*
X368000Y400000D1*
X258000D1*
X1018000Y1434000D2*
D18*
Y1624000D1*
X1009039D1*
X956000Y1432992D2*
X957008Y1434000D1*
X1018000D1*
X1078000D2*
X1018000D1*
X2182000Y1748000D2*
D16*
X2120000D1*
Y1776000D1*
X2074000Y1822000D1*
X1510000Y2200000D2*
X1522740Y2187260D1*
Y2176593D1*
D15*
Y2152961D1*
X1386992Y1410000D2*
D16*
X1388000Y1411008D1*
Y1470000D1*
X1483370Y1838000D2*
D14*
Y1811370D1*
X1480000Y1808000D1*
D16*
Y1616000D1*
X1388000Y1524000D1*
Y1470000D1*
X1446000Y1410992D2*
X1387984D1*
X1402772Y1153465D2*
Y1227228D1*
X1388000Y1242000D1*
Y1290000D1*
X1387094Y1347969D2*
X1445969D1*
X1446000Y1348000D1*
X1388000Y1290000D2*
Y1347063D1*
X1387094Y1347969D1*
X1597008Y1412000D2*
X1598000Y1412992D1*
Y1470000D1*
X1503055Y1838000D2*
D14*
Y1810945D1*
X1506000Y1808000D1*
D16*
Y1616000D1*
X1598000Y1524000D1*
Y1470000D1*
X1538000Y1410992D2*
X1538992D1*
X1540000Y1412000D2*
X1597008D1*
X1581906Y1153465D2*
Y1219906D1*
X1598228Y1236228D1*
Y1290000D1*
Y1347811D1*
X1598039Y1348000D1*
X1538000D2*
X1598039D1*
D56*
X1723906Y469906D3*
X1916000Y510000D3*
D3*
X1430000Y346000D3*
X1290000Y1152000D3*
X1454000Y452000D3*
X1632000Y924000D3*
X1356000Y700000D3*
X1366000Y2126000D3*
X2072000Y494000D3*
X2036000Y1966000D3*
X1560000Y676000D3*
X1948000Y568000D3*
X1414000Y2193682D3*
X1714000Y1788000D3*
X796000Y2130000D3*
X1414000Y2193682D3*
Y1806000D3*
X1478000Y752000D3*
X1946000D3*
X1260000Y1520000D3*
X1450992D3*
X1535008D3*
X1724000D3*
X1512000Y306000D3*
X2104000Y1446000D3*
X1530000Y702000D3*
X1948000Y630000D3*
X2074000Y1134008D3*
X1422000Y510000D3*
X1504000Y728000D3*
X1948000Y692000D3*
X1584000Y332110D3*
X2080000Y922000D3*
X1584000Y332110D3*
X1556000Y2192000D3*
X1660000D3*
X1776000Y2084000D3*
X1778000Y1888000D3*
X1776000Y2084000D3*
X1660000Y2192000D3*
X2070201Y278000D3*
X1472000D3*
X1726000Y2196000D3*
X2070201Y278000D3*
X1490000Y68000D3*
X2130000Y224000D3*
X2033039Y2152961D3*
X1192000Y136000D3*
X1330000Y664000D3*
X1190000Y2084063D3*
X1078000Y1434000D3*
X2074000Y1822000D3*
X1510000Y2200000D3*
X802000Y1058000D3*
Y980000D3*
Y900000D3*
X1332000Y496000D3*
X2222000Y94000D3*
X1824000Y118000D3*
X2012000Y330000D3*
X1704000Y896000D3*
X1576000Y496000D3*
X1158000Y198000D3*
X2032000Y1050000D3*
X2034000Y1320000D3*
X1960000Y360000D3*
X1944000Y1022000D3*
X1630000Y776000D3*
X1618000Y644000D3*
X1734000Y568000D3*
X1702000Y842000D3*
X1530000Y950000D3*
X1162000Y562000D3*
X1398000Y204000D3*
X1382000Y316000D3*
X1570000Y226000D3*
X1502000Y506000D3*
X1878000Y454000D3*
X1598000Y2098000D3*
X1662000Y2020000D3*
X1474000Y1982000D3*
X1564000Y1894000D3*
X1330000Y1944000D3*
X1494000Y1568000D3*
X1568000Y1744000D3*
X1396000Y1746000D3*
X1842000Y1780000D3*
X1854000Y1700000D3*
X1892000Y2084000D3*
X2214000Y1300000D3*
X1140000Y1154000D3*
X1278000Y878000D3*
X2232000Y386000D3*
X2138000Y1028000D3*
X1494000Y1230000D3*
X1224000Y174000D3*
X1324000Y418000D3*
X946000Y2112000D3*
X920000Y1610000D3*
X906000Y1180000D3*
X466000Y618000D3*
X526000Y378000D3*
X1026000Y386000D3*
X2274000Y178000D3*
X1804000Y1226000D3*
X1848000Y2288000D3*
X2212000Y1858000D3*
X290000Y1550000D3*
X1572000Y50000D3*
X506000Y2182000D3*
X218000Y1092000D3*
X1736000Y252000D3*
X1954000Y114000D3*
X2334000Y1060000D3*
X916000Y1074000D3*
X918000Y882000D3*
X20199Y2369131D2*
D21*
X2379797D1*
X20199Y2357262D2*
X2379797D1*
X20199Y2345394D2*
X1504640D1*
X1759367D2*
X2379797D1*
X20199Y2333525D2*
X1406625D1*
X1481375D2*
X1504640D1*
X1759367D2*
X2379797D1*
X20199Y2321656D2*
X1304835D1*
X1339157D2*
X1406625D1*
X1481375D2*
X1504640D1*
X1759367D2*
X2379797D1*
X20199Y2309787D2*
X1286882D1*
X1357110D2*
X1406625D1*
X1481375D2*
X1504640D1*
X1759367D2*
X2379797D1*
X20199Y2297919D2*
X1278797D1*
X1365196D2*
X1406625D1*
X1481375D2*
X1504640D1*
X1759367D2*
X2379797D1*
X20199Y2286050D2*
X1275022D1*
X1368970D2*
X1406625D1*
X1481375D2*
X1504640D1*
X1759367D2*
X2379797D1*
X20199Y2274181D2*
X1274483D1*
X1369531D2*
X1406625D1*
X1481375D2*
X1504640D1*
X1759367D2*
X2379797D1*
X20199Y2262312D2*
X1277038D1*
X1366954D2*
X1406625D1*
X1481375D2*
X1504640D1*
X1759367D2*
X2379797D1*
X20199Y2250444D2*
X1283366D1*
X1378298D2*
X1406625D1*
X1481375D2*
X1504640D1*
X1759367D2*
X2379797D1*
X20199Y2238575D2*
X1296186D1*
X1390157D2*
X1406625D1*
X1481375D2*
X1504640D1*
X1759367D2*
X2379797D1*
X20199Y2226706D2*
X1344562D1*
X1399486D2*
X1406625D1*
X1481375D2*
X1498898D1*
X1759367D2*
X2379797D1*
X20199Y2214837D2*
X245297D1*
X314517D2*
X1356421D1*
X1759367D2*
X2379797D1*
X20199Y2202969D2*
X227625D1*
X332188D2*
X1359327D1*
X1466657D2*
X1480476D1*
X1754822D2*
X2379797D1*
X20199Y2191100D2*
X216890D1*
X342923D2*
X1359327D1*
X1466657D2*
X1481741D1*
X1755266D2*
X2379797D1*
X20199Y2179231D2*
X209789D1*
X350024D2*
X1359327D1*
X1750227D2*
X2020850D1*
X2045235D2*
X2379797D1*
X20199Y2167362D2*
X205218D1*
X354571D2*
X1028671D1*
X1174274D2*
X1209633D1*
X1347360D2*
X1359327D1*
X2058806D2*
X2379797D1*
X20199Y2155493D2*
X202781D1*
X357031D2*
X782109D1*
X809891D2*
X1028671D1*
X1174274D2*
X1209633D1*
X1347360D2*
X1359327D1*
X2062602D2*
X2379797D1*
X20199Y2143625D2*
X202218D1*
X357594D2*
X769781D1*
X822219D2*
X1028671D1*
X2061150D2*
X2379797D1*
X20199Y2131756D2*
X203530D1*
X356282D2*
X766382D1*
X825618D2*
X1028671D1*
X1762251D2*
X2012835D1*
X2053251D2*
X2379797D1*
X20199Y2119887D2*
X206789D1*
X353024D2*
X768186D1*
X823814D2*
X1028671D1*
X1763563D2*
X2379797D1*
X20199Y2108018D2*
X212273D1*
X347539D2*
X768327D1*
X823673D2*
X1028671D1*
X1792509D2*
X2379797D1*
X20199Y2096150D2*
X220663D1*
X339150D2*
X768327D1*
X823673D2*
X1028671D1*
X1802962D2*
X2379797D1*
X20199Y2084281D2*
X233483D1*
X326329D2*
X768327D1*
X823673D2*
X1160319D1*
X1805681D2*
X2379797D1*
X20199Y2072412D2*
X257718D1*
X302071D2*
X768327D1*
X823673D2*
X1162804D1*
X1803219D2*
X2379797D1*
X20199Y2060543D2*
X629202D1*
X896938D2*
X924633D1*
X1123391D2*
X1172741D1*
X1207251D2*
X1380398D1*
X1793352D2*
X2379797D1*
X20199Y2048675D2*
X629202D1*
X896938D2*
X924633D1*
X1123391D2*
X1380421D1*
X1763493D2*
X2379797D1*
X20199Y2036806D2*
X629202D1*
X896938D2*
X924633D1*
X1236454D2*
X1308562D1*
X1762415D2*
X1849640D1*
X1987367D2*
X2379797D1*
X20199Y2024937D2*
X629202D1*
X896938D2*
X924633D1*
X1763845D2*
X1849640D1*
X2011298D2*
X2379797D1*
X20199Y2013068D2*
X629202D1*
X896938D2*
X924633D1*
X1762462D2*
X1849640D1*
X2023181D2*
X2379797D1*
X20199Y2001199D2*
X629202D1*
X896938D2*
X924633D1*
X1341454D2*
X1380445D1*
X1763470D2*
X1849640D1*
X2035039D2*
X2379797D1*
X20199Y1989331D2*
X450234D1*
X509798D2*
X562289D1*
X881375D2*
X924633D1*
X1123367D2*
X1203633D1*
X1341360D2*
X1380374D1*
X1763539D2*
X1849640D1*
X2053531D2*
X2379797D1*
X20199Y1977462D2*
X437530D1*
X1123367D2*
X1203633D1*
X1341360D2*
X1381617D1*
X1762298D2*
X1785633D1*
X2063282D2*
X2379797D1*
X20199Y1965593D2*
X430734D1*
X1123367D2*
X1203633D1*
X1341360D2*
X1380070D1*
X1763845D2*
X1782070D1*
X1985375D2*
X2002171D1*
X2065673D2*
X2379797D1*
X20199Y1953724D2*
X427476D1*
X1123367D2*
X1381335D1*
X1762555D2*
X1769480D1*
X1985375D2*
X2009109D1*
X2062907D2*
X2379797D1*
X20199Y1941856D2*
X427077D1*
X1123367D2*
X1380491D1*
X1985375D2*
X2019702D1*
X2052314D2*
X2379797D1*
X20199Y1929987D2*
X429445D1*
X530587D2*
X562289D1*
X881375D2*
X924633D1*
X1123367D2*
X1380327D1*
X1985375D2*
X2379797D1*
X20199Y1918118D2*
X435022D1*
X525009D2*
X688522D1*
X881375D2*
X986625D1*
X1123367D2*
X1381734D1*
X1985375D2*
X2379797D1*
X20199Y1906249D2*
X445429D1*
X514602D2*
X724827D1*
X845047D2*
X986625D1*
X1123367D2*
X1380070D1*
X1985375D2*
X2379797D1*
X20199Y1894381D2*
X459983D1*
X500047D2*
X723961D1*
X845915D2*
X986625D1*
X1123367D2*
X1247671D1*
X1985375D2*
X2379797D1*
X20199Y1882512D2*
X441913D1*
X518118D2*
X723961D1*
X845915D2*
X986625D1*
X1123367D2*
X1247671D1*
X1985375D2*
X2379797D1*
X20199Y1870643D2*
X433125D1*
X526907D2*
X723961D1*
X845915D2*
X986625D1*
X1123367D2*
X1247671D1*
X1985375D2*
X2379797D1*
X20199Y1858774D2*
X428507D1*
X531524D2*
X723961D1*
X845915D2*
X1247671D1*
X1985375D2*
X2379797D1*
X20199Y1846906D2*
X426913D1*
X533118D2*
X723961D1*
X845915D2*
X1247671D1*
X1922352D2*
X2058983D1*
X2089017D2*
X2379797D1*
X20199Y1835037D2*
X428085D1*
X531970D2*
X723961D1*
X845915D2*
X1247671D1*
X1922352D2*
X2047476D1*
X2100524D2*
X2379797D1*
X20199Y1823168D2*
X432186D1*
X527845D2*
X723961D1*
X845915D2*
X1390077D1*
X1922352D2*
X2044335D1*
X2107087D2*
X2379797D1*
X20199Y1811299D2*
X238921D1*
X321079D2*
X440202D1*
X519829D2*
X724265D1*
X845634D2*
X1384827D1*
X1922352D2*
X2046398D1*
X2118946D2*
X2379797D1*
X20199Y1799430D2*
X224014D1*
X335986D2*
X455882D1*
X504150D2*
X732093D1*
X837806D2*
X1385085D1*
X1922352D2*
X2055421D1*
X2130806D2*
X2379797D1*
X20199Y1787562D2*
X214546D1*
X345454D2*
X743953D1*
X825946D2*
X1391085D1*
X1796188D2*
X2074194D1*
X2141517D2*
X2379797D1*
X20199Y1775693D2*
X208289D1*
X351711D2*
X757382D1*
X812517D2*
X1431421D1*
X1784329D2*
X1896633D1*
X2219375D2*
X2379797D1*
X20199Y1763824D2*
X204374D1*
X355626D2*
X1431421D1*
X1554571D2*
X1571437D1*
X2219375D2*
X2379797D1*
X20199Y1751955D2*
X202522D1*
X357478D2*
X774819D1*
X873173D2*
X959858D1*
X1058211D2*
X1431421D1*
X1554571D2*
X1583319D1*
X2219375D2*
X2379797D1*
X20199Y1740087D2*
X202499D1*
X357501D2*
X774819D1*
X873173D2*
X959858D1*
X1058211D2*
X1431421D1*
X1554571D2*
X1595178D1*
X2219375D2*
X2379797D1*
X20199Y1728218D2*
X204374D1*
X355626D2*
X774819D1*
X873173D2*
X959858D1*
X1058211D2*
X1431421D1*
X1554571D2*
X1607062D1*
X2219375D2*
X2379797D1*
X20199Y1716349D2*
X208265D1*
X351735D2*
X774819D1*
X873173D2*
X959858D1*
X1058211D2*
X1431421D1*
X1554571D2*
X1618921D1*
X1809360D2*
X1896633D1*
X2219375D2*
X2379797D1*
X20199Y1704480D2*
X214522D1*
X345478D2*
X774819D1*
X873173D2*
X959858D1*
X1058211D2*
X1431421D1*
X1554571D2*
X1630781D1*
X1809360D2*
X1896633D1*
X2219375D2*
X2379797D1*
X20199Y1692612D2*
X223991D1*
X336009D2*
X774819D1*
X873173D2*
X959858D1*
X1058211D2*
X1431421D1*
X1554571D2*
X1642874D1*
X1809360D2*
X1896633D1*
X2219375D2*
X2379797D1*
X20199Y1680743D2*
X238850D1*
X321150D2*
X774819D1*
X873173D2*
X959858D1*
X1058211D2*
X1431421D1*
X1554571D2*
X1734633D1*
X1809360D2*
X1896633D1*
X2219375D2*
X2379797D1*
X20199Y1668874D2*
X774819D1*
X873173D2*
X959858D1*
X1058211D2*
X1431421D1*
X1554571D2*
X1734633D1*
X1809360D2*
X1896633D1*
X2219375D2*
X2379797D1*
X20199Y1657005D2*
X774819D1*
X873173D2*
X959858D1*
X1058211D2*
X1431421D1*
X1554571D2*
X1734633D1*
X1809360D2*
X1895648D1*
X2219375D2*
X2379797D1*
X20199Y1645136D2*
X774819D1*
X873173D2*
X959858D1*
X1058211D2*
X1431421D1*
X1554571D2*
X1734633D1*
X1809360D2*
X1895648D1*
X2155367D2*
X2379797D1*
X20199Y1633268D2*
X774819D1*
X873173D2*
X959858D1*
X1058211D2*
X1425022D1*
X1560970D2*
X1734633D1*
X1809360D2*
X1895648D1*
X2155367D2*
X2379797D1*
X20199Y1621399D2*
X774819D1*
X873173D2*
X959858D1*
X1058211D2*
X1413163D1*
X1572852D2*
X1734633D1*
X1809360D2*
X1895648D1*
X2155367D2*
X2379797D1*
X20199Y1609530D2*
X774819D1*
X873173D2*
X959858D1*
X1058211D2*
X1401281D1*
X1584711D2*
X1734633D1*
X1809360D2*
X1895648D1*
X2155367D2*
X2379797D1*
X20199Y1597661D2*
X774819D1*
X873173D2*
X959858D1*
X1058211D2*
X1389421D1*
X1596594D2*
X1895648D1*
X2155367D2*
X2379797D1*
X20199Y1585793D2*
X774819D1*
X873173D2*
X959858D1*
X1058211D2*
X1377538D1*
X1484047D2*
X1501969D1*
X1608454D2*
X2379797D1*
X20199Y1573924D2*
X774819D1*
X873173D2*
X959858D1*
X1058211D2*
X1365678D1*
X1472165D2*
X1513827D1*
X1620314D2*
X2379797D1*
X20199Y1562055D2*
X774819D1*
X873173D2*
X959858D1*
X1058211D2*
X1353819D1*
X1460306D2*
X1525710D1*
X1632196D2*
X2379797D1*
X20199Y1550186D2*
X774819D1*
X873173D2*
X959858D1*
X1058211D2*
X1341937D1*
X1448423D2*
X1537570D1*
X1644055D2*
X2379797D1*
X20199Y1538318D2*
X774819D1*
X873173D2*
X959858D1*
X1058211D2*
X1236983D1*
X1283001D2*
X1330077D1*
X1473993D2*
X1511999D1*
X1655938D2*
X1700999D1*
X1747017D2*
X2379797D1*
X20199Y1526449D2*
X774819D1*
X873173D2*
X959858D1*
X1058211D2*
X1231054D1*
X1288930D2*
X1318194D1*
X1479923D2*
X1506070D1*
X1667798D2*
X1695070D1*
X1752946D2*
X2028866D1*
X2131134D2*
X2379797D1*
X20199Y1514580D2*
X774819D1*
X873173D2*
X959858D1*
X1058211D2*
X1230843D1*
X1289165D2*
X1306335D1*
X1480157D2*
X1505858D1*
X1679610D2*
X1694835D1*
X1753157D2*
X2028866D1*
X2131134D2*
X2379797D1*
X20199Y1502711D2*
X774819D1*
X873173D2*
X959858D1*
X1058211D2*
X1222640D1*
X1488360D2*
X1497633D1*
X1761360D2*
X2028866D1*
X2131134D2*
X2379797D1*
X20199Y1490843D2*
X796335D1*
X851657D2*
X990327D1*
X1045673D2*
X1222640D1*
X1488360D2*
X1497633D1*
X1761360D2*
X1886133D1*
X2020860D2*
X2028866D1*
X2131134D2*
X2379797D1*
X20199Y1478974D2*
X796335D1*
X851657D2*
X990327D1*
X1045673D2*
X1222640D1*
X1488360D2*
X1497633D1*
X1761360D2*
X1886133D1*
X2131134D2*
X2379797D1*
X20199Y1467105D2*
X796335D1*
X851657D2*
X918633D1*
X1055375D2*
X1222640D1*
X1488360D2*
X1497633D1*
X1761360D2*
X1886133D1*
X2124314D2*
X2379797D1*
X20199Y1455236D2*
X796335D1*
X851657D2*
X918633D1*
X1098173D2*
X1222640D1*
X1488360D2*
X1497633D1*
X1761360D2*
X1886133D1*
X2132142D2*
X2379797D1*
X20199Y1443367D2*
X785648D1*
X1106094D2*
X1222640D1*
X1488360D2*
X1497633D1*
X1761360D2*
X1886133D1*
X2020860D2*
X2074453D1*
X2133547D2*
X2379797D1*
X20199Y1431499D2*
X785648D1*
X1107571D2*
X1226625D1*
X1483367D2*
X1500633D1*
X1759367D2*
X1886133D1*
X2020860D2*
X2078297D1*
X2129703D2*
X2379797D1*
X20199Y1419630D2*
X785648D1*
X1103798D2*
X1226625D1*
X1483367D2*
X1500633D1*
X1759367D2*
X1886133D1*
X2020860D2*
X2092054D1*
X2115946D2*
X2379797D1*
X20199Y1407761D2*
X652640D1*
X727367D2*
X785648D1*
X1090274D2*
X1226625D1*
X1483367D2*
X1500633D1*
X1759367D2*
X1886133D1*
X2020860D2*
X2379797D1*
X20199Y1395892D2*
X652640D1*
X727367D2*
X785648D1*
X1055375D2*
X1226625D1*
X1483367D2*
X1500633D1*
X1759367D2*
X1886133D1*
X2020860D2*
X2028866D1*
X2131134D2*
X2379797D1*
X20199Y1384024D2*
X652640D1*
X727367D2*
X785648D1*
X1055375D2*
X1226625D1*
X1483367D2*
X1500633D1*
X1759367D2*
X1886133D1*
X2020860D2*
X2028866D1*
X2131134D2*
X2379797D1*
X20199Y1372155D2*
X65085D1*
X194915D2*
X305226D1*
X435079D2*
X652640D1*
X727367D2*
X795350D1*
X1055375D2*
X1226625D1*
X1483367D2*
X1500633D1*
X1759367D2*
X1886133D1*
X2020860D2*
X2028866D1*
X2131134D2*
X2379797D1*
X20199Y1360286D2*
X65085D1*
X194915D2*
X305226D1*
X435079D2*
X652640D1*
X727367D2*
X795350D1*
X1055375D2*
X1226625D1*
X1483367D2*
X1500633D1*
X1759367D2*
X2028866D1*
X2131134D2*
X2379797D1*
X20199Y1348417D2*
X65085D1*
X194915D2*
X305226D1*
X435079D2*
X652640D1*
X727367D2*
X740625D1*
X1055375D2*
X1226625D1*
X1483367D2*
X1500633D1*
X1759367D2*
X2028866D1*
X2131134D2*
X2379797D1*
X20199Y1336549D2*
X65085D1*
X194915D2*
X305226D1*
X435079D2*
X652640D1*
X727367D2*
X740625D1*
X1055375D2*
X1226625D1*
X1483367D2*
X1500633D1*
X1759367D2*
X2009625D1*
X2131134D2*
X2379797D1*
X20199Y1324680D2*
X65085D1*
X727367D2*
X740625D1*
X1055375D2*
X1224633D1*
X1488360D2*
X1497866D1*
X1761594D2*
X2004702D1*
X2067266D2*
X2379797D1*
X20199Y1312811D2*
X65085D1*
X727367D2*
X740625D1*
X1055375D2*
X1224633D1*
X1488360D2*
X1497866D1*
X1761594D2*
X2005241D1*
X2062766D2*
X2379797D1*
X20199Y1300942D2*
X65085D1*
X727367D2*
X740625D1*
X1055375D2*
X1224633D1*
X1488360D2*
X1497866D1*
X1761594D2*
X2011640D1*
X2056367D2*
X2379797D1*
X20199Y1289073D2*
X65085D1*
X727367D2*
X740625D1*
X1055375D2*
X1224633D1*
X1488360D2*
X1497866D1*
X1761594D2*
X2379797D1*
X20199Y1277205D2*
X65085D1*
X194915D2*
X305226D1*
X435079D2*
X652640D1*
X1055375D2*
X1224633D1*
X1488360D2*
X1497866D1*
X1761594D2*
X2379797D1*
X20199Y1265336D2*
X65085D1*
X194915D2*
X305226D1*
X435079D2*
X652640D1*
X1055375D2*
X1224633D1*
X1488360D2*
X1497866D1*
X1761594D2*
X2379797D1*
X20199Y1253467D2*
X65085D1*
X194915D2*
X305226D1*
X435079D2*
X652640D1*
X1055375D2*
X1301671D1*
X1412563D2*
X1573663D1*
X1683665D2*
X2028866D1*
X2131134D2*
X2379797D1*
X20199Y1241598D2*
X65085D1*
X194915D2*
X305226D1*
X435079D2*
X652640D1*
X1055375D2*
X1310155D1*
X1422407D2*
X1569350D1*
X1673845D2*
X2028866D1*
X2131134D2*
X2379797D1*
X20199Y1229730D2*
X652640D1*
X901930D2*
X918633D1*
X1055375D2*
X1322014D1*
X1427211D2*
X1559507D1*
X1661986D2*
X1887633D1*
X2022360D2*
X2028866D1*
X2131134D2*
X2379797D1*
X20199Y1217861D2*
X652640D1*
X840899D2*
X918633D1*
X1055375D2*
X1333898D1*
X1427329D2*
X1557327D1*
X1650102D2*
X1887633D1*
X2022360D2*
X2028866D1*
X2131134D2*
X2379797D1*
X20199Y1205992D2*
X652640D1*
X829555D2*
X1345757D1*
X1427329D2*
X1557327D1*
X1638243D2*
X1887633D1*
X2022360D2*
X2028866D1*
X2131134D2*
X2379797D1*
X20199Y1194123D2*
X652640D1*
X817673D2*
X1300453D1*
X1684227D2*
X1887633D1*
X2022360D2*
X2059335D1*
X2100665D2*
X2379797D1*
X20199Y1182255D2*
X652640D1*
X805814D2*
X1300453D1*
X1684227D2*
X1887633D1*
X2022360D2*
X2059335D1*
X2100665D2*
X2379797D1*
X20199Y1170386D2*
X652640D1*
X791962D2*
X1267054D1*
X1684227D2*
X1887633D1*
X2022360D2*
X2059335D1*
X2100665D2*
X2379797D1*
X20199Y1158517D2*
X652640D1*
X727367D2*
X1261077D1*
X1684227D2*
X1718625D1*
X1856352D2*
X1887633D1*
X2022360D2*
X2058304D1*
X2100665D2*
X2379797D1*
X20199Y1146648D2*
X101133D1*
X158867D2*
X278297D1*
X336031D2*
X1260819D1*
X1684227D2*
X1706718D1*
X1856352D2*
X1887633D1*
X2100711D2*
X2379797D1*
X20199Y1134780D2*
X84961D1*
X175039D2*
X262125D1*
X352203D2*
X1266117D1*
X1684227D2*
X1694038D1*
X1856352D2*
X1887633D1*
X2103665D2*
X2379797D1*
X20199Y1122911D2*
X75913D1*
X184087D2*
X253077D1*
X361251D2*
X732961D1*
X1113360D2*
X1300453D1*
X1856352D2*
X1887633D1*
X2131134D2*
X2379797D1*
X20199Y1111042D2*
X70593D1*
X189407D2*
X247757D1*
X366571D2*
X730335D1*
X1113360D2*
X1300453D1*
X1856352D2*
X1887633D1*
X2022360D2*
X2028866D1*
X2131134D2*
X2379797D1*
X20199Y1099173D2*
X67969D1*
X192031D2*
X245133D1*
X369196D2*
X628007D1*
X1113360D2*
X1310437D1*
X1367774D2*
X1433297D1*
X1856352D2*
X1887633D1*
X2022360D2*
X2028866D1*
X2131134D2*
X2379797D1*
X20199Y1087304D2*
X67734D1*
X192266D2*
X244898D1*
X369430D2*
X628007D1*
X1113360D2*
X1298577D1*
X1356031D2*
X1433483D1*
X1856352D2*
X2028866D1*
X2131134D2*
X2379797D1*
X20199Y1075436D2*
X69843D1*
X190157D2*
X247007D1*
X367322D2*
X628007D1*
X1113360D2*
X1184625D1*
X1259375D2*
X1286694D1*
X1344173D2*
X1439835D1*
X1856352D2*
X2017991D1*
X2131134D2*
X2379797D1*
X20199Y1063567D2*
X74554D1*
X185446D2*
X251718D1*
X362610D2*
X628007D1*
X1113360D2*
X1184625D1*
X1259375D2*
X1274835D1*
X1332290D2*
X1451694D1*
X1856352D2*
X2005757D1*
X2074157D2*
X2379797D1*
X20199Y1051698D2*
X82686D1*
X177314D2*
X259850D1*
X354478D2*
X628007D1*
X1096673D2*
X1184625D1*
X1320430D2*
X1463577D1*
X1856352D2*
X2002382D1*
X2062298D2*
X2379797D1*
X20199Y1039829D2*
X96702D1*
X163298D2*
X273866D1*
X340462D2*
X628007D1*
X1092383D2*
X1184625D1*
X1308571D2*
X1475437D1*
X1856352D2*
X2004186D1*
X2059814D2*
X2379797D1*
X20199Y1027961D2*
X730335D1*
X1080688D2*
X1184625D1*
X1296688D2*
X1487319D1*
X1855367D2*
X2012765D1*
X2051235D2*
X2379797D1*
X20199Y1016092D2*
X628007D1*
X1068829D2*
X1184625D1*
X1259375D2*
X1499178D1*
X1855367D2*
X2379797D1*
X20199Y1004223D2*
X628007D1*
X1056946D2*
X1184625D1*
X1259375D2*
X1511038D1*
X1855367D2*
X2379797D1*
X20199Y992354D2*
X628007D1*
X1055375D2*
X1184625D1*
X1259375D2*
X1522921D1*
X1855367D2*
X2379797D1*
X20199Y980486D2*
X628007D1*
X1055375D2*
X1184625D1*
X1259375D2*
X1534781D1*
X1855367D2*
X2028866D1*
X2131134D2*
X2379797D1*
X20199Y968617D2*
X628007D1*
X1055375D2*
X1184625D1*
X1259375D2*
X1546663D1*
X1856352D2*
X2028866D1*
X2131134D2*
X2379797D1*
X20199Y956748D2*
X628007D1*
X1055375D2*
X1184625D1*
X1259375D2*
X1558522D1*
X1856352D2*
X1940625D1*
X2015375D2*
X2028866D1*
X2131134D2*
X2379797D1*
X20199Y944879D2*
X65085D1*
X194915D2*
X305226D1*
X435079D2*
X730335D1*
X1055375D2*
X1184625D1*
X1259375D2*
X1570382D1*
X1856352D2*
X1940625D1*
X2015375D2*
X2028866D1*
X2131134D2*
X2379797D1*
X20199Y933010D2*
X65085D1*
X194915D2*
X305226D1*
X435079D2*
X730335D1*
X1055375D2*
X1582382D1*
X1856352D2*
X1940625D1*
X2131134D2*
X2379797D1*
X20199Y921142D2*
X65085D1*
X194915D2*
X305226D1*
X435079D2*
X628007D1*
X1055375D2*
X1300453D1*
X1856352D2*
X1940625D1*
X2109665D2*
X2379797D1*
X20199Y909273D2*
X65085D1*
X194915D2*
X305226D1*
X435079D2*
X628007D1*
X991673D2*
X1300453D1*
X1856352D2*
X1940625D1*
X2106688D2*
X2379797D1*
X20199Y897404D2*
X65085D1*
X194915D2*
X305226D1*
X435079D2*
X628007D1*
X1112352D2*
X1300453D1*
X1856352D2*
X1940625D1*
X2015375D2*
X2064445D1*
X2095555D2*
X2379797D1*
X20199Y885535D2*
X65085D1*
X194915D2*
X305226D1*
X435079D2*
X628007D1*
X1112352D2*
X1300453D1*
X1856352D2*
X1940625D1*
X2015375D2*
X2379797D1*
X20199Y873667D2*
X65085D1*
X194915D2*
X305226D1*
X435079D2*
X628007D1*
X1112352D2*
X1300453D1*
X1856352D2*
X1940625D1*
X2015375D2*
X2379797D1*
X20199Y861798D2*
X65085D1*
X194915D2*
X305226D1*
X435079D2*
X628007D1*
X1112352D2*
X1300453D1*
X1856352D2*
X1940625D1*
X2015375D2*
X2379797D1*
X20199Y849929D2*
X65085D1*
X194915D2*
X305226D1*
X435079D2*
X660327D1*
X715673D2*
X730453D1*
X1112352D2*
X1300453D1*
X1684227D2*
X1718625D1*
X1856352D2*
X1940625D1*
X2015375D2*
X2028866D1*
X2131134D2*
X2379797D1*
X20199Y838060D2*
X65085D1*
X194915D2*
X305226D1*
X435079D2*
X660327D1*
X715673D2*
X738022D1*
X1112352D2*
X1300453D1*
X1684227D2*
X1718625D1*
X1856352D2*
X1940625D1*
X2015375D2*
X2028866D1*
X2131134D2*
X2379797D1*
X20199Y826192D2*
X65085D1*
X194915D2*
X305226D1*
X435079D2*
X660327D1*
X715673D2*
X1300453D1*
X1766962D2*
X1940625D1*
X2015375D2*
X2028866D1*
X2131134D2*
X2379797D1*
X20199Y814323D2*
X65085D1*
X194915D2*
X305226D1*
X435079D2*
X660327D1*
X715673D2*
X1289601D1*
X1779923D2*
X2028866D1*
X2131134D2*
X2379797D1*
X20199Y802454D2*
X660327D1*
X715673D2*
X1277718D1*
X1791782D2*
X2028866D1*
X2131134D2*
X2379797D1*
X20199Y790585D2*
X660327D1*
X715673D2*
X1265858D1*
X1803665D2*
X2379797D1*
X20199Y778717D2*
X660327D1*
X715673D2*
X767906D1*
X832110D2*
X1253976D1*
X1612017D2*
X1747030D1*
X1815524D2*
X1934929D1*
X2237329D2*
X2379797D1*
X20199Y766848D2*
X660327D1*
X715673D2*
X758319D1*
X841673D2*
X1146210D1*
X1720063D2*
X1758913D1*
X1827407D2*
X1920491D1*
X2237329D2*
X2379797D1*
X20199Y754979D2*
X660327D1*
X715673D2*
X753633D1*
X846360D2*
X1134257D1*
X1735743D2*
X1770773D1*
X1839266D2*
X1916483D1*
X2237329D2*
X2379797D1*
X20199Y743110D2*
X660327D1*
X715673D2*
X752319D1*
X847673D2*
X1122374D1*
X1747626D2*
X1782633D1*
X1851126D2*
X1917749D1*
X2237329D2*
X2379797D1*
X20199Y731241D2*
X587648D1*
X725375D2*
X754101D1*
X845891D2*
X1110514D1*
X1759486D2*
X1794514D1*
X1863009D2*
X1925297D1*
X2237329D2*
X2379797D1*
X20199Y719373D2*
X587648D1*
X725375D2*
X759374D1*
X840618D2*
X1098633D1*
X1771367D2*
X1806374D1*
X1874867D2*
X1938937D1*
X2237329D2*
X2379797D1*
X20199Y707504D2*
X587648D1*
X725375D2*
X770014D1*
X829978D2*
X1086773D1*
X1783227D2*
X1818257D1*
X1886751D2*
X1922906D1*
X2237329D2*
X2379797D1*
X20199Y695635D2*
X587648D1*
X725375D2*
X1074913D1*
X1795087D2*
X1830117D1*
X1898610D2*
X1918546D1*
X2237329D2*
X2379797D1*
X20199Y683766D2*
X587648D1*
X725375D2*
X774726D1*
X825266D2*
X1063030D1*
X1806970D2*
X1841976D1*
X1909391D2*
X1919530D1*
X2237329D2*
X2379797D1*
X20199Y671898D2*
X587648D1*
X725375D2*
X761625D1*
X838367D2*
X1051171D1*
X1818829D2*
X1853858D1*
X1912579D2*
X1926633D1*
X2237329D2*
X2379797D1*
X20199Y660029D2*
X587648D1*
X844837D2*
X1043765D1*
X1176759D2*
X1186218D1*
X1584782D2*
X1591663D1*
X1830711D2*
X1863421D1*
X1912579D2*
X1955648D1*
X2237329D2*
X2379797D1*
X345571Y648160D2*
X587648D1*
X847486D2*
X1043343D1*
X1164899D2*
X1180663D1*
X1567203D2*
X1634718D1*
X1842571D2*
X1863421D1*
X1912579D2*
X1924850D1*
X2237329D2*
X2379797D1*
X345571Y636291D2*
X587648D1*
X847039D2*
X1043343D1*
X1153017D2*
X1180640D1*
X1550845D2*
X1634648D1*
X1851618D2*
X1863421D1*
X1912579D2*
X1919030D1*
X2237329D2*
X2379797D1*
X345571Y624423D2*
X587648D1*
X843360D2*
X1043343D1*
X1142657D2*
X1180640D1*
X1255345D2*
X1271882D1*
X1611290D2*
X1634648D1*
X1709352D2*
X1718858D1*
X1852673D2*
X1863421D1*
X1912579D2*
X1918879D1*
X2237329D2*
X2379797D1*
X345571Y612554D2*
X587625D1*
X725375D2*
X764577D1*
X835438D2*
X1043343D1*
X1142657D2*
X1180640D1*
X1255345D2*
X1270382D1*
X1612790D2*
X1634648D1*
X1709352D2*
X1730718D1*
X1852673D2*
X1863421D1*
X1912579D2*
X1924289D1*
X2237329D2*
X2379797D1*
X345571Y600685D2*
X587625D1*
X725352D2*
X781945D1*
X818047D2*
X1043343D1*
X1142657D2*
X1182514D1*
X1253470D2*
X1270382D1*
X1612790D2*
X1636030D1*
X1707970D2*
X1742577D1*
X1852673D2*
X1863421D1*
X1912579D2*
X1954593D1*
X2237329D2*
X2379797D1*
X345571Y588816D2*
X587625D1*
X725352D2*
X752319D1*
X847673D2*
X1043343D1*
X1142657D2*
X1181178D1*
X1254829D2*
X1270382D1*
X1612790D2*
X1635469D1*
X1708531D2*
X1754461D1*
X1852673D2*
X1863421D1*
X1912579D2*
X1927358D1*
X2237329D2*
X2379797D1*
X345571Y576948D2*
X587625D1*
X725352D2*
X752319D1*
X847673D2*
X1043343D1*
X1142657D2*
X1180640D1*
X1255345D2*
X1270382D1*
X1612790D2*
X1628226D1*
X1709352D2*
X1761327D1*
X1852673D2*
X1863421D1*
X1912579D2*
X1919744D1*
X2237329D2*
X2379797D1*
X345571Y565079D2*
X587625D1*
X725352D2*
X752319D1*
X847673D2*
X1043343D1*
X1142657D2*
X1180640D1*
X1255345D2*
X1270382D1*
X1709352D2*
X1761327D1*
X1852673D2*
X1863421D1*
X2237329D2*
X2379797D1*
X345571Y553210D2*
X587625D1*
X725375D2*
X752319D1*
X847673D2*
X1043343D1*
X1142657D2*
X1180640D1*
X1255345D2*
X1270429D1*
X1709352D2*
X1761327D1*
X1852673D2*
X1863421D1*
X1912579D2*
X1922461D1*
X2237329D2*
X2379797D1*
X345571Y541341D2*
X587648D1*
X725375D2*
X752319D1*
X847673D2*
X1043343D1*
X1142657D2*
X1181133D1*
X1254852D2*
X1273289D1*
X1709071D2*
X1761327D1*
X1852673D2*
X1863421D1*
X1918907D2*
X1936781D1*
X2237329D2*
X2379797D1*
X75454Y529472D2*
X587648D1*
X725375D2*
X746835D1*
X847673D2*
X1043343D1*
X1142657D2*
X1176304D1*
X1258063D2*
X1273827D1*
X1327251D2*
X1374562D1*
X1443993D2*
X1529202D1*
X1706867D2*
X1761327D1*
X1852673D2*
X1865038D1*
X1998126D2*
X2379797D1*
X77282Y517604D2*
X147633D1*
X185306D2*
X587648D1*
X725375D2*
X734976D1*
X847673D2*
X1043343D1*
X1142657D2*
X1168194D1*
X1266173D2*
X1281655D1*
X1351766D2*
X1385671D1*
X1450650D2*
X1529718D1*
X1714978D2*
X1761327D1*
X1852673D2*
X1874155D1*
X2010642D2*
X2054858D1*
X2089134D2*
X2379797D1*
X77282Y505735D2*
X135163D1*
X197774D2*
X587648D1*
X847673D2*
X1043343D1*
X1142657D2*
X1168007D1*
X1266337D2*
X1293538D1*
X1359970D2*
X1392633D1*
X1451352D2*
X1537546D1*
X1715165D2*
X1761327D1*
X1852673D2*
X1886014D1*
X2022501D2*
X2044850D1*
X2099142D2*
X2379797D1*
X77282Y493866D2*
X130358D1*
X202579D2*
X587648D1*
X788493D2*
X1043343D1*
X1142657D2*
X1168007D1*
X1266337D2*
X1302398D1*
X1361610D2*
X1397319D1*
X1446665D2*
X1546406D1*
X1740501D2*
X1761327D1*
X1852673D2*
X1891335D1*
X2032954D2*
X2040304D1*
X2101673D2*
X2379797D1*
X77282Y481997D2*
X129913D1*
X776634D2*
X1043343D1*
X1142657D2*
X1168101D1*
X1266266D2*
X1306007D1*
X1358001D2*
X1415601D1*
X1428383D2*
X1549991D1*
X1750883D2*
X1761327D1*
X1852673D2*
X1909617D1*
X1922399D2*
X1977749D1*
X2099024D2*
X2379797D1*
X77282Y470129D2*
X133640D1*
X764751D2*
X1043343D1*
X1144602D2*
X1168007D1*
X1266337D2*
X1318898D1*
X1345110D2*
X1430835D1*
X1477157D2*
X1562882D1*
X1753579D2*
X1761327D1*
X1852673D2*
X1987570D1*
X2088735D2*
X2379797D1*
X77282Y458260D2*
X143648D1*
X189290D2*
X196031D1*
X752891D2*
X1043343D1*
X1156462D2*
X1168148D1*
X1266196D2*
X1425022D1*
X1482993D2*
X1585007D1*
X1751094D2*
X1761327D1*
X1852673D2*
X1987570D1*
X2067829D2*
X2379797D1*
X77282Y446391D2*
X196030D1*
X741031D2*
X865734D1*
X906266D2*
X1043343D1*
X1266337D2*
X1419655D1*
X1483134D2*
X1596890D1*
X1741181D2*
X1757671D1*
X1852673D2*
X1987570D1*
X2055946D2*
X2379797D1*
X77282Y434522D2*
X196030D1*
X390219D2*
X849749D1*
X922251D2*
X1045804D1*
X1266337D2*
X1407797D1*
X1477696D2*
X1609077D1*
X1715165D2*
X1745789D1*
X1852673D2*
X1987570D1*
X2113462D2*
X2379797D1*
X77282Y422654D2*
X196030D1*
X402079D2*
X842226D1*
X929774D2*
X1056609D1*
X1266219D2*
X1395913D1*
X1453391D2*
X1616953D1*
X1852673D2*
X1987570D1*
X2113462D2*
X2379797D1*
X77282Y410785D2*
X196030D1*
X413938D2*
X838827D1*
X933173D2*
X1068491D1*
X1266337D2*
X1384054D1*
X1441509D2*
X1616835D1*
X1852673D2*
X1987570D1*
X2113462D2*
X2379797D1*
X77282Y398916D2*
X196030D1*
X425822D2*
X838593D1*
X933407D2*
X1080350D1*
X1266243D2*
X1372194D1*
X1429650D2*
X1616953D1*
X1852415D2*
X1987570D1*
X2113462D2*
X2379797D1*
X77282Y387047D2*
X196030D1*
X437681D2*
X841522D1*
X933102D2*
X1092234D1*
X1266337D2*
X1360312D1*
X1417766D2*
X1616835D1*
X1845782D2*
X1987570D1*
X2113462D2*
X2379797D1*
X77282Y375178D2*
X196030D1*
X319978D2*
X364101D1*
X449563D2*
X848343D1*
X944962D2*
X1104093D1*
X1266337D2*
X1348453D1*
X1405907D2*
X1616835D1*
X1833899D2*
X1987570D1*
X2113462D2*
X2379797D1*
X77282Y363310D2*
X196030D1*
X319978D2*
X375961D1*
X461423D2*
X862335D1*
X956845D2*
X1115953D1*
X1266196D2*
X1336570D1*
X1394047D2*
X1406178D1*
X1453814D2*
X1616999D1*
X1822039D2*
X1987570D1*
X2113462D2*
X2379797D1*
X77282Y351441D2*
X196030D1*
X319978D2*
X387819D1*
X473282D2*
X908413D1*
X1266337D2*
X1324710D1*
X1382165D2*
X1400835D1*
X1459157D2*
X1561874D1*
X1810181D2*
X1992046D1*
X2090867D2*
X2134640D1*
X2272367D2*
X2379797D1*
X77282Y339572D2*
X141070D1*
X319978D2*
X399702D1*
X485165D2*
X920273D1*
X1266266D2*
X1314866D1*
X1370306D2*
X1401046D1*
X1458946D2*
X1555312D1*
X1798298D2*
X1983983D1*
X2272367D2*
X2379797D1*
X77282Y327703D2*
X132609D1*
X319978D2*
X411562D1*
X497024D2*
X932155D1*
X1266337D2*
X1313343D1*
X1358423D2*
X1406976D1*
X1453017D2*
X1492358D1*
X1531650D2*
X1554655D1*
X1715165D2*
X1982413D1*
X2272367D2*
X2379797D1*
X77282Y315835D2*
X129678D1*
X319978D2*
X423445D1*
X508907D2*
X944273D1*
X1266337D2*
X1313343D1*
X1354673D2*
X1409343D1*
X1450673D2*
X1484062D1*
X1539923D2*
X1559437D1*
X1933134D2*
X1986093D1*
X2272367D2*
X2379797D1*
X77282Y303966D2*
X130874D1*
X202063D2*
X435304D1*
X1266150D2*
X1313343D1*
X1354673D2*
X1409343D1*
X1450673D2*
X1459101D1*
X1541610D2*
X1578445D1*
X1589560D2*
X1617046D1*
X1933134D2*
X1990476D1*
X2031806D2*
X2057297D1*
X2083110D2*
X2134640D1*
X2272367D2*
X2379797D1*
X77282Y292097D2*
X136663D1*
X196274D2*
X447163D1*
X1266337D2*
X1313343D1*
X1354673D2*
X1409343D1*
X1538047D2*
X1616835D1*
X1933134D2*
X1990476D1*
X2031806D2*
X2044265D1*
X2096142D2*
X2134640D1*
X2272367D2*
X2379797D1*
X77282Y280228D2*
X152155D1*
X180782D2*
X459046D1*
X1266290D2*
X1313343D1*
X1354673D2*
X1409343D1*
X1532657D2*
X1616882D1*
X1933134D2*
X1990476D1*
X2031806D2*
X2040609D1*
X2099798D2*
X2379797D1*
X74071Y268360D2*
X470906D1*
X1266337D2*
X1313343D1*
X1354673D2*
X1409343D1*
X1532657D2*
X1616835D1*
X1715165D2*
X1784390D1*
X1945883D2*
X1990476D1*
X2031806D2*
X2042202D1*
X2098203D2*
X2379797D1*
X345571Y256491D2*
X484289D1*
X1266337D2*
X1313343D1*
X1354673D2*
X1409343D1*
X1532657D2*
X1616835D1*
X1715165D2*
X1807312D1*
X1957766D2*
X1987570D1*
X2113462D2*
X2379797D1*
X345571Y244622D2*
X859898D1*
X1266102D2*
X1313343D1*
X1354673D2*
X1409343D1*
X1532657D2*
X1617093D1*
X1714907D2*
X1819125D1*
X1969626D2*
X1987570D1*
X2150845D2*
X2379797D1*
X345571Y232753D2*
X848014D1*
X905493D2*
X1009663D1*
X1266337D2*
X1313343D1*
X1354673D2*
X1409343D1*
X1532657D2*
X1616835D1*
X1715165D2*
X1831546D1*
X1981486D2*
X1987570D1*
X2158298D2*
X2379797D1*
X345571Y220885D2*
X836155D1*
X893610D2*
X1009663D1*
X1266314D2*
X1313343D1*
X1354673D2*
X1409343D1*
X1532657D2*
X1616858D1*
X1715142D2*
X1924874D1*
X2161837D2*
X2379797D1*
X345571Y209016D2*
X824297D1*
X881751D2*
X1009663D1*
X1266337D2*
X1313343D1*
X1354673D2*
X1409343D1*
X1532657D2*
X1616835D1*
X1715165D2*
X1784390D1*
X2173719D2*
X2379797D1*
X345571Y197147D2*
X812413D1*
X869867D2*
X1009969D1*
X1262188D2*
X1313343D1*
X1354673D2*
X1409343D1*
X1532657D2*
X1621007D1*
X1710993D2*
X1784390D1*
X1933134D2*
X1948617D1*
X2184150D2*
X2379797D1*
X345571Y185278D2*
X800554D1*
X858009D2*
X1012734D1*
X1184681D2*
X1313343D1*
X1354673D2*
X1409343D1*
X1532657D2*
X1627617D1*
X1765367D2*
X1776538D1*
X1933134D2*
X1960476D1*
X2202852D2*
X2379797D1*
X345571Y173409D2*
X788671D1*
X846150D2*
X1009663D1*
X1173571D2*
X1271062D1*
X1612110D2*
X1620678D1*
X1933134D2*
X1972335D1*
X2202852D2*
X2379797D1*
X345571Y161541D2*
X776812D1*
X834266D2*
X1009663D1*
X1150274D2*
X1178202D1*
X1205798D2*
X1270382D1*
X1933134D2*
X1984218D1*
X2045798D2*
X2064633D1*
X2202852D2*
X2379797D1*
X345571Y149672D2*
X764953D1*
X822407D2*
X1009663D1*
X1147345D2*
X1165827D1*
X1844188D2*
X1999898D1*
X2030094D2*
X2064633D1*
X2202852D2*
X2379797D1*
X20199Y137803D2*
X753070D1*
X810524D2*
X1009663D1*
X1147345D2*
X1162382D1*
X1765367D2*
X1802343D1*
X1845665D2*
X2064633D1*
X2202852D2*
X2379797D1*
X20199Y125934D2*
X380789D1*
X475203D2*
X507866D1*
X548118D2*
X607874D1*
X648126D2*
X707882D1*
X798665D2*
X807866D1*
X848118D2*
X907874D1*
X948126D2*
X1013343D1*
X1143665D2*
X1164163D1*
X1765367D2*
X1795453D1*
X1852555D2*
X2064633D1*
X2202852D2*
X2379797D1*
X20199Y114066D2*
X380789D1*
X475203D2*
X491976D1*
X564031D2*
X591983D1*
X664017D2*
X691969D1*
X864031D2*
X891983D1*
X964017D2*
X1172625D1*
X1211375D2*
X1270382D1*
X1612790D2*
X1626655D1*
X1765367D2*
X1794585D1*
X1853399D2*
X2064633D1*
X2243399D2*
X2379797D1*
X20199Y102197D2*
X380789D1*
X475203D2*
X484546D1*
X571462D2*
X584554D1*
X671446D2*
X684538D1*
X774923D2*
X784546D1*
X871462D2*
X884554D1*
X1612415D2*
X1626655D1*
X1765367D2*
X1799109D1*
X1848899D2*
X2064633D1*
X2250478D2*
X2379797D1*
X20199Y90328D2*
X380789D1*
X475203D2*
X481241D1*
X574766D2*
X581228D1*
X674774D2*
X681234D1*
X774759D2*
X781241D1*
X874766D2*
X881228D1*
X1602150D2*
X1626655D1*
X1765367D2*
X1816054D1*
X1831930D2*
X2064633D1*
X2251438D2*
X2379797D1*
X20199Y78459D2*
X380789D1*
X574883D2*
X581127D1*
X674867D2*
X681122D1*
X774875D2*
X781125D1*
X874883D2*
X881127D1*
X1423181D2*
X1462312D1*
X1517681D2*
X1626655D1*
X1765367D2*
X2064633D1*
X2247055D2*
X2379797D1*
X20199Y66591D2*
X380789D1*
X475203D2*
X484218D1*
X571790D2*
X584202D1*
X671798D2*
X684210D1*
X771782D2*
X784218D1*
X871790D2*
X884202D1*
X1409915D2*
X1460366D1*
X1519650D2*
X1630617D1*
X1765367D2*
X2064633D1*
X2202852D2*
X2213062D1*
X2230930D2*
X2379797D1*
X20199Y54722D2*
X380789D1*
X475203D2*
X491319D1*
X564688D2*
X591304D1*
X664696D2*
X691312D1*
X764681D2*
X791319D1*
X864688D2*
X891304D1*
X964696D2*
X1463601D1*
X1516391D2*
X2379797D1*
X20199Y42853D2*
X380789D1*
X475203D2*
X506226D1*
X549782D2*
X606210D1*
X649790D2*
X706218D1*
X749774D2*
X806226D1*
X849782D2*
X906210D1*
X949790D2*
X1475437D1*
X1504579D2*
X2379797D1*
X20199Y30984D2*
X2379797D1*
X20199Y19115D2*
X2379797D1*
X850467Y1448165D2*
X919843D1*
X919835Y1469157D1*
X981827D1*
X981835Y1470165D1*
X991514D1*
X991520Y1495336D1*
X961063Y1495315D1*
Y1752685D1*
X1057016D1*
Y1495315D1*
X1044476D1*
X1044480Y1470180D1*
X1054165Y1470165D1*
Y1460486D1*
X1067524Y1460480D1*
X1071352Y1461693D1*
X1075765Y1462392D1*
X1080235D1*
X1084648Y1461693D1*
X1088899Y1460312D1*
X1092881Y1458283D1*
X1096496Y1455656D1*
X1099656Y1452496D1*
X1102283Y1448881D1*
X1104312Y1444899D1*
X1105693Y1440648D1*
X1106392Y1436235D1*
Y1431765D1*
X1105693Y1427352D1*
X1104312Y1423101D1*
X1102283Y1419119D1*
X1099656Y1415504D1*
X1096496Y1412344D1*
X1092881Y1409717D1*
X1088899Y1407688D1*
X1084648Y1406307D1*
X1080235Y1405608D1*
X1075765D1*
X1071352Y1406307D1*
X1067520Y1407534D1*
X1054164Y1407520D1*
X1054165Y1216843D1*
X992164D1*
X992165Y1215835D1*
X919835D1*
Y1230530D1*
X900757Y1230520D1*
X900740Y1222937D1*
X842264D1*
X841139Y1220248D1*
X839378Y1217374D1*
X837189Y1214811D1*
X795919Y1173635D1*
X793192Y1171654D1*
X790189Y1170123D1*
X786983Y1169081D1*
X783654Y1168555D1*
X763969Y1168488D1*
X726164D1*
X726165Y1153803D1*
X653835D1*
Y1282070D1*
X433899Y1282055D1*
X433882Y1236937D1*
X306433D1*
Y1282054D1*
X193743Y1282055D1*
X193724Y1236937D1*
X66276D1*
Y1380134D1*
X193724D1*
Y1335016D1*
X306415D1*
X306433Y1380134D1*
X433882D1*
Y1335016D1*
X653822D1*
X653835Y1412165D1*
X726165D1*
Y1279446D1*
X741820Y1279441D1*
X741835Y1358260D1*
X796543D1*
X796528Y1375844D1*
X786843Y1375835D1*
Y1448165D1*
X797554D1*
X797520Y1495328D1*
X776024Y1495315D1*
Y1752685D1*
X871976D1*
Y1495315D1*
X850484D1*
X850480Y1448148D1*
X859173Y1448142D1*
X1855156Y1102165D2*
X1855157Y1029835D1*
X1854165Y1029765D1*
Y974167D1*
X1855157Y974165D1*
Y837835D1*
X1719835D1*
Y854546D1*
X1683024Y854520D1*
X1683031Y829358D1*
X1755835Y829308D1*
X1759458Y828735D1*
X1762948Y827601D1*
X1766217Y825934D1*
X1769184Y823778D1*
X1779017Y814047D1*
X1905778Y687184D1*
X1907934Y684217D1*
X1909601Y680948D1*
X1910735Y677458D1*
X1911308Y673835D1*
X1911381Y660000D1*
Y547664D1*
X1921022Y538042D1*
X1924801Y537087D1*
X1928929Y535375D1*
X1932253Y533366D1*
X1985835Y533308D1*
X1989458Y532735D1*
X1992948Y531601D1*
X1996217Y529934D1*
X1999184Y527778D1*
X2009017Y518047D1*
X2028924Y498038D1*
X2031080Y495071D1*
X2032747Y491802D1*
X2033881Y488312D1*
X2034223Y486589D1*
X2043600Y495978D1*
X2044307Y500648D1*
X2045688Y504899D1*
X2047717Y508881D1*
X2050344Y512496D1*
X2053504Y515656D1*
X2057119Y518283D1*
X2061101Y520312D1*
X2065352Y521693D1*
X2069765Y522392D1*
X2074235D1*
X2078648Y521693D1*
X2082899Y520312D1*
X2086881Y518283D1*
X2090496Y515656D1*
X2093656Y512496D1*
X2096283Y508881D1*
X2098312Y504899D1*
X2099693Y500648D1*
X2100392Y496235D1*
Y491765D1*
X2099693Y487352D1*
X2098312Y483101D1*
X2096283Y479119D1*
X2093656Y475504D1*
X2090496Y472344D1*
X2086881Y469717D1*
X2082899Y467688D1*
X2078648Y466307D1*
X2073965Y465597D1*
X2052303Y443925D1*
X2052311Y440104D1*
X2092587Y440098D1*
X2112272Y440122D1*
Y352043D1*
X2089655D1*
X2090000Y349480D1*
X2135820D1*
X2135835Y360165D1*
X2271157D1*
Y287835D1*
X2135835D1*
Y310546D1*
X2032757Y310520D1*
X2030618Y308457D1*
X2030760Y266894D1*
X2043997D1*
X2042508Y271352D1*
X2041808Y275765D1*
Y280235D1*
X2042508Y284648D1*
X2043888Y288899D1*
X2045917Y292881D1*
X2048545Y296496D1*
X2051705Y299656D1*
X2055320Y302283D1*
X2059302Y304312D1*
X2063552Y305693D1*
X2067966Y306392D1*
X2072436D1*
X2076849Y305693D1*
X2081100Y304312D1*
X2085081Y302283D1*
X2088697Y299656D1*
X2091857Y296496D1*
X2094484Y292881D1*
X2096513Y288899D1*
X2097894Y284648D1*
X2098593Y280235D1*
Y275765D1*
X2097894Y271352D1*
X2096415Y266887D1*
X2112272Y266894D1*
Y246291D1*
X2115119Y248283D1*
X2119101Y250312D1*
X2123352Y251693D1*
X2127765Y252392D1*
X2132235D1*
X2136648Y251693D1*
X2140899Y250312D1*
X2144881Y248283D1*
X2148496Y245656D1*
X2151656Y242496D1*
X2154283Y238881D1*
X2156312Y234899D1*
X2157693Y230648D1*
X2158392Y226235D1*
X2158444Y223084D1*
X2180308Y201155D1*
X2182105Y198682D1*
X2183493Y195958D1*
X2184157Y194046D1*
X2189331Y193661D1*
X2201661D1*
Y113958D1*
X2205260Y117041D1*
X2209071Y119375D1*
X2213199Y121087D1*
X2217545Y122130D1*
X2222000Y122480D1*
X2226455Y122130D1*
X2230801Y121087D1*
X2234929Y119375D1*
X2238740Y117041D1*
X2242138Y114138D1*
X2245041Y110740D1*
X2247375Y106929D1*
X2249087Y102801D1*
X2250130Y98455D1*
X2250480Y94000D1*
X2250130Y89545D1*
X2249087Y85199D1*
X2247375Y81071D1*
X2245041Y77260D1*
X2242138Y73862D1*
X2238740Y70959D1*
X2234929Y68625D1*
X2230801Y66913D1*
X2226455Y65870D1*
X2222000Y65520D1*
X2217545Y65870D1*
X2213199Y66913D1*
X2209071Y68625D1*
X2205260Y70959D1*
X2201665Y74073D1*
X2201661Y58339D1*
X2129331D1*
Y58831D1*
X2065835Y58843D1*
Y162639D1*
X2056333Y172203D1*
X2054537Y174676D1*
X2053726Y176146D1*
X2052432Y171883D1*
X2050765Y168614D1*
X2048609Y165647D1*
X2038533Y155467D1*
X2035743Y153085D1*
X2032614Y151168D1*
X2029224Y149764D1*
X2025657Y148908D1*
X2022000Y148619D1*
X2006165Y148692D1*
X2002542Y149265D1*
X1999052Y150399D1*
X1995783Y152066D1*
X1992816Y154222D1*
X1982983Y163953D1*
X1931921Y215013D1*
X1931937Y152787D1*
X1842972D1*
X1843008Y139196D1*
X1845656Y136496D1*
X1848283Y132881D1*
X1850312Y128899D1*
X1851693Y124648D1*
X1852392Y120235D1*
Y115765D1*
X1851693Y111352D1*
X1850312Y107101D1*
X1848283Y103119D1*
X1845656Y99504D1*
X1842496Y96344D1*
X1838881Y93717D1*
X1834899Y91688D1*
X1830648Y90307D1*
X1826235Y89608D1*
X1821765D1*
X1817352Y90307D1*
X1813101Y91688D1*
X1809119Y93717D1*
X1805504Y96344D1*
X1802344Y99504D1*
X1799717Y103119D1*
X1797688Y107101D1*
X1796307Y111352D1*
X1795608Y115765D1*
Y120235D1*
X1796307Y124648D1*
X1797688Y128899D1*
X1799717Y132881D1*
X1802344Y136496D1*
X1804060Y138323D1*
X1804047Y152808D1*
X1800316Y152787D1*
X1792651Y145188D1*
X1790178Y143391D1*
X1787455Y142003D1*
X1784547Y141058D1*
X1781529Y140580D1*
X1764180Y140520D1*
X1764165Y60843D1*
X1691835D1*
Y63013D1*
X1689071Y61747D1*
X1685568Y60949D1*
X1682486Y60841D1*
X1643115Y60885D1*
X1639583Y61535D1*
X1636274Y62936D1*
X1633348Y65021D1*
X1630942Y67690D1*
X1629173Y70816D1*
X1628123Y74253D1*
X1627848Y77915D1*
X1627878Y117891D1*
X1628529Y121424D1*
X1629929Y124732D1*
X1632014Y127659D1*
X1632828Y128508D1*
X1632438Y128902D1*
X1632362Y128037D1*
X1628560Y125010D1*
X1624678Y121469D1*
X1622072Y119871D1*
X1619248Y118702D1*
X1616276Y117988D1*
X1613228Y117748D1*
X1611612D1*
X1611563Y104440D1*
X1611159Y101885D1*
X1610360Y99425D1*
X1609185Y97122D1*
X1607665Y95029D1*
X1605837Y93201D1*
X1603744Y91681D1*
X1601441Y90507D1*
X1598982Y89707D1*
X1596427Y89303D1*
X1583323Y89252D1*
X1580745Y89455D1*
X1579190Y89682D1*
X1575449Y89252D1*
X1562438Y89295D1*
X1559612Y89707D1*
X1557056Y89303D1*
X1542660D1*
X1539927Y89707D1*
X1537371Y89303D1*
X1522975D1*
X1520241Y89707D1*
X1517686Y89303D1*
X1509463Y89252D1*
X1510138Y88138D1*
X1513041Y84740D1*
X1515375Y80929D1*
X1517087Y76801D1*
X1518130Y72455D1*
X1518480Y68000D1*
X1518130Y63545D1*
X1517087Y59199D1*
X1515375Y55071D1*
X1513041Y51260D1*
X1510138Y47862D1*
X1506740Y44959D1*
X1502929Y42625D1*
X1498801Y40913D1*
X1494455Y39870D1*
X1490000Y39520D1*
X1485545Y39870D1*
X1481199Y40913D1*
X1477071Y42625D1*
X1473260Y44959D1*
X1469862Y47862D1*
X1466959Y51260D1*
X1464625Y55071D1*
X1462913Y59199D1*
X1461870Y63545D1*
X1461520Y68000D1*
X1461870Y72455D1*
X1462913Y76801D1*
X1464625Y80929D1*
X1466959Y84740D1*
X1469862Y88138D1*
X1470535Y88761D1*
X1462635Y89455D1*
X1461186Y89707D1*
X1458631Y89303D1*
X1444235D1*
X1441501Y89707D1*
X1438946Y89303D1*
X1430314Y89252D1*
X1428672Y85885D1*
X1426875Y83412D1*
X1413774Y70226D1*
X1411450Y68240D1*
X1408844Y66643D1*
X1406020Y65474D1*
X1403047Y64760D1*
X1400000Y64520D1*
X969664D1*
X967228Y59961D1*
X962984Y54121D1*
X957879Y49016D1*
X952039Y44772D1*
X945606Y41495D1*
X938740Y39264D1*
X931610Y38134D1*
X924390D1*
X917260Y39264D1*
X910394Y41495D1*
X903961Y44772D1*
X898121Y49016D1*
X893016Y54121D1*
X888772Y59961D1*
X885495Y66394D1*
X883264Y73260D1*
X882134Y80390D1*
Y87610D1*
X883264Y94740D1*
X885495Y101606D1*
X888772Y108039D1*
X893016Y113879D1*
X898121Y118984D1*
X903961Y123228D1*
X910394Y126505D1*
X917260Y128736D1*
X924390Y129866D1*
X931610D1*
X938740Y128736D1*
X945606Y126505D1*
X952039Y123228D1*
X957879Y118984D1*
X962984Y113879D1*
X967228Y108039D1*
X969648Y103465D1*
X1271757Y103480D1*
X1271567Y105732D1*
Y117756D1*
X1213867Y117748D1*
X1210496Y114344D1*
X1206881Y111717D1*
X1202899Y109688D1*
X1198648Y108307D1*
X1194235Y107608D1*
X1189765D1*
X1185352Y108307D1*
X1181101Y109688D1*
X1177119Y111717D1*
X1173504Y114344D1*
X1170344Y117504D1*
X1167717Y121119D1*
X1165688Y125101D1*
X1164307Y129352D1*
X1163608Y133765D1*
Y138235D1*
X1164307Y142648D1*
X1165688Y146899D1*
X1167717Y150881D1*
X1170344Y154496D1*
X1173504Y157656D1*
X1177119Y160283D1*
X1181101Y162312D1*
X1185352Y163693D1*
X1189765Y164392D1*
X1194235D1*
X1198648Y163693D1*
X1202899Y162312D1*
X1206881Y160283D1*
X1210496Y157656D1*
X1211542Y156690D1*
X1271560Y156709D1*
X1271618Y170017D1*
X1272022Y172572D1*
X1272822Y175031D1*
X1273996Y177335D1*
X1275516Y179428D1*
X1277344Y181256D1*
X1279437Y182776D1*
X1281740Y183950D1*
X1284199Y184749D1*
X1286755Y185154D1*
X1299858Y185205D1*
X1302436Y185001D1*
X1303885Y184749D1*
X1306440Y185154D1*
X1314520Y185228D1*
X1314580Y333529D1*
X1315058Y336547D1*
X1316003Y339454D1*
X1317391Y342178D1*
X1319188Y344651D1*
X1332954Y358503D1*
X1425546Y451094D1*
X1425608Y454235D1*
X1426307Y458648D1*
X1427688Y462899D1*
X1429717Y466881D1*
X1432344Y470496D1*
X1435504Y473656D1*
X1439119Y476283D1*
X1443101Y478312D1*
X1447352Y479693D1*
X1451765Y480392D1*
X1456235D1*
X1460648Y479693D1*
X1464899Y478312D1*
X1468881Y476283D1*
X1472496Y473656D1*
X1475656Y470496D1*
X1478283Y466881D1*
X1480312Y462899D1*
X1481693Y458648D1*
X1482392Y454235D1*
Y449765D1*
X1481693Y445352D1*
X1480312Y441101D1*
X1478283Y437119D1*
X1475656Y433504D1*
X1472496Y430344D1*
X1468881Y427717D1*
X1464899Y425688D1*
X1460648Y424307D1*
X1456235Y423608D1*
X1453084Y423556D1*
X1353472Y323923D1*
X1353480Y185211D1*
X1360206Y185154D1*
X1362940Y184749D1*
X1365495Y185154D1*
X1378598Y185205D1*
X1381176Y185001D1*
X1382625Y184749D1*
X1385180Y185154D1*
X1398283Y185205D1*
X1400861Y185001D1*
X1402310Y184749D1*
X1404865Y185154D1*
X1410520Y185228D1*
Y325220D1*
X1408344Y327504D1*
X1405717Y331119D1*
X1403688Y335101D1*
X1402307Y339352D1*
X1401608Y343765D1*
Y348235D1*
X1402307Y352648D1*
X1403688Y356899D1*
X1405717Y360881D1*
X1408344Y364496D1*
X1411504Y367656D1*
X1415119Y370283D1*
X1419101Y372312D1*
X1423352Y373693D1*
X1427765Y374392D1*
X1432235D1*
X1436648Y373693D1*
X1440899Y372312D1*
X1444881Y370283D1*
X1448496Y367656D1*
X1451656Y364496D1*
X1454283Y360881D1*
X1456312Y356899D1*
X1457693Y352648D1*
X1458392Y348235D1*
Y343765D1*
X1457693Y339352D1*
X1456312Y335101D1*
X1454283Y331119D1*
X1451656Y327504D1*
X1449465Y325239D1*
X1449480Y295445D1*
X1451862Y298138D1*
X1455260Y301041D1*
X1459071Y303375D1*
X1463199Y305087D1*
X1467545Y306130D1*
X1472000Y306480D1*
X1476455Y306130D1*
X1480801Y305087D1*
X1483589Y303993D1*
X1483608Y308235D1*
X1484307Y312648D1*
X1485688Y316899D1*
X1487717Y320881D1*
X1490344Y324496D1*
X1493504Y327656D1*
X1497119Y330283D1*
X1501101Y332312D1*
X1505352Y333693D1*
X1509765Y334392D1*
X1514235D1*
X1518648Y333693D1*
X1522899Y332312D1*
X1526881Y330283D1*
X1530496Y327656D1*
X1533656Y324496D1*
X1536283Y320881D1*
X1538312Y316899D1*
X1539693Y312648D1*
X1540392Y308235D1*
Y303765D1*
X1539693Y299352D1*
X1538312Y295101D1*
X1536283Y291119D1*
X1533656Y287504D1*
X1531465Y285239D1*
X1531480Y185180D1*
X1537371Y185154D1*
X1540105Y184749D1*
X1542660Y185154D1*
X1555764Y185205D1*
X1558341Y185001D1*
X1559896Y184774D1*
X1563638Y185205D1*
X1576648Y185161D1*
X1579475Y184749D1*
X1582030Y185154D1*
X1595134Y185205D1*
X1597711Y185001D1*
X1600227Y184398D1*
X1602615Y183408D1*
X1604820Y182056D1*
X1606787Y180378D1*
X1608466Y178411D1*
X1609818Y176206D1*
X1610807Y173818D1*
X1611411Y171302D1*
X1611614Y168724D1*
Y163123D1*
X1623348Y174811D1*
X1625820Y176608D1*
X1627605Y177563D1*
X1628038Y182261D1*
X1628642Y184777D1*
X1629631Y187165D1*
X1630983Y189370D1*
X1633045Y191690D1*
X1632661Y191337D1*
X1633045Y191690D1*
X1629411Y192421D1*
X1627022Y193411D1*
X1624818Y194762D1*
X1622850Y196441D1*
X1621172Y198408D1*
X1619820Y200613D1*
X1618831Y203001D1*
X1618227Y205517D1*
X1618024Y208094D1*
X1618075Y221198D1*
X1618479Y223932D1*
X1618075Y226487D1*
Y240883D1*
X1618479Y243617D1*
X1618075Y246172D1*
Y260568D1*
X1618479Y263302D1*
X1618075Y265857D1*
Y280253D1*
X1618479Y282987D1*
X1618075Y285542D1*
Y299938D1*
X1618479Y302672D1*
X1618075Y305227D1*
X1618000Y312630D1*
X1604757D1*
X1602496Y310454D1*
X1598881Y307827D1*
X1594899Y305798D1*
X1590648Y304417D1*
X1586235Y303718D1*
X1581765D1*
X1577352Y304417D1*
X1573101Y305798D1*
X1569119Y307827D1*
X1565504Y310454D1*
X1562344Y313614D1*
X1559717Y317230D1*
X1557688Y321211D1*
X1556307Y325462D1*
X1555608Y329875D1*
Y334345D1*
X1556307Y338759D1*
X1557688Y343009D1*
X1559717Y346991D1*
X1562344Y350606D1*
X1565504Y353766D1*
X1569119Y356394D1*
X1573101Y358423D1*
X1577352Y359803D1*
X1581765Y360503D1*
X1586235D1*
X1590648Y359803D1*
X1594899Y358423D1*
X1598881Y356394D1*
X1602496Y353766D1*
X1604761Y351575D1*
X1618055Y351591D1*
X1618075Y358993D1*
X1618479Y361727D1*
X1618075Y364282D1*
Y378678D1*
X1618479Y381412D1*
X1618075Y383967D1*
Y398364D1*
X1618479Y401097D1*
X1618075Y403652D1*
Y418049D1*
X1618510Y420715D1*
X1618081Y423259D1*
X1618024Y431122D1*
X1614325Y432223D1*
X1611601Y433612D1*
X1609129Y435408D1*
X1576930Y467520D1*
X1571545Y467870D1*
X1567199Y468913D1*
X1563071Y470625D1*
X1559260Y472959D1*
X1555862Y475862D1*
X1552959Y479260D1*
X1550625Y483071D1*
X1548913Y487199D1*
X1547870Y491545D1*
X1547520Y496000D1*
X1547556Y496916D1*
X1535046Y509491D1*
X1533249Y511963D1*
X1531861Y514688D1*
X1530916Y517594D1*
X1530438Y520613D1*
X1530378Y538102D1*
X1522975Y538122D1*
X1520241Y538526D1*
X1517686Y538122D1*
X1503290D1*
X1500556Y538526D1*
X1498001Y538122D1*
X1483605D1*
X1480871Y538526D1*
X1478316Y538122D1*
X1463920D1*
X1461186Y538526D1*
X1458631Y538122D1*
X1445528Y538071D1*
X1442950Y538274D1*
X1441501Y538526D1*
X1438946Y538122D1*
X1426819Y538071D1*
X1430801Y537087D1*
X1434929Y535375D1*
X1438740Y533041D1*
X1442138Y530138D1*
X1445041Y526740D1*
X1447375Y522929D1*
X1449087Y518801D1*
X1450130Y514455D1*
X1450480Y510000D1*
X1450130Y505545D1*
X1449087Y501199D1*
X1447375Y497071D1*
X1445041Y493260D1*
X1442138Y489862D1*
X1438740Y486959D1*
X1434929Y484625D1*
X1430801Y482913D1*
X1426455Y481870D1*
X1422000Y481520D1*
X1417545Y481870D1*
X1413199Y482913D1*
X1409071Y484625D1*
X1405260Y486959D1*
X1401862Y489862D1*
X1398959Y493260D1*
X1396625Y497071D1*
X1394913Y501199D1*
X1393870Y505545D1*
X1393520Y510000D1*
X1393556Y510916D1*
X1377566Y526971D1*
X1375769Y529444D1*
X1374381Y532168D1*
X1373436Y535075D1*
X1373080Y537067D1*
X1372598Y538071D1*
X1365495Y538122D1*
X1362761Y538526D1*
X1360206Y538122D1*
X1345810D1*
X1343076Y538526D1*
X1340521Y538122D1*
X1326125D1*
X1323391Y538526D1*
X1320836Y538122D1*
X1317458Y538071D1*
X1331079Y524471D1*
X1334235Y524392D1*
X1338648Y523693D1*
X1342899Y522312D1*
X1346881Y520283D1*
X1350496Y517656D1*
X1353656Y514496D1*
X1356283Y510881D1*
X1358312Y506899D1*
X1359693Y502648D1*
X1360392Y498235D1*
Y493765D1*
X1359693Y489352D1*
X1358312Y485101D1*
X1356283Y481119D1*
X1353656Y477504D1*
X1350496Y474344D1*
X1346881Y471717D1*
X1342899Y469688D1*
X1338648Y468307D1*
X1334235Y467608D1*
X1329765D1*
X1325352Y468307D1*
X1321101Y469688D1*
X1317119Y471717D1*
X1313504Y474344D1*
X1310344Y477504D1*
X1307717Y481119D1*
X1305688Y485101D1*
X1304307Y489352D1*
X1303608Y493765D1*
X1303556Y496916D1*
X1279140Y521396D1*
X1277344Y523869D1*
X1275955Y526593D1*
X1275010Y529500D1*
X1274533Y532518D1*
X1274472Y545227D1*
X1272822Y548244D1*
X1272022Y550703D1*
X1271618Y553259D1*
X1271567Y584551D1*
X1271618Y618836D1*
X1272022Y621391D1*
X1272822Y623850D1*
X1273996Y626154D1*
X1275516Y628247D1*
X1277344Y630075D1*
X1279437Y631594D1*
X1281231Y632534D1*
X1254133Y632520D1*
X1254114Y607021D1*
X1253710Y604466D1*
X1252911Y602007D1*
X1251736Y599703D1*
X1250217Y597610D1*
X1249164Y596499D1*
X1251058Y594323D1*
X1252827Y591197D1*
X1253877Y587760D1*
X1254152Y584098D1*
X1254122Y544122D1*
X1253471Y540589D1*
X1252071Y537281D1*
X1249986Y534354D1*
X1247316Y531949D1*
X1246883Y531648D1*
X1251255Y531458D1*
X1253770Y530854D1*
X1256159Y529865D1*
X1258364Y528514D1*
X1260331Y526835D1*
X1262010Y524867D1*
X1263361Y522663D1*
X1264350Y520274D1*
X1264954Y517759D1*
X1265157Y515181D1*
X1265106Y502077D1*
X1264702Y499344D1*
X1265106Y496789D1*
X1265157Y483685D1*
X1264954Y481108D1*
X1264702Y479659D1*
X1265106Y477104D1*
X1265157Y464000D1*
X1264954Y461423D1*
X1264702Y459974D1*
X1265106Y457419D1*
X1265157Y444315D1*
X1264954Y441738D1*
X1264702Y440289D1*
X1265106Y437734D1*
X1265157Y424630D1*
X1264954Y422052D1*
X1264702Y420604D1*
X1265106Y418049D1*
X1265157Y404945D1*
X1264954Y402367D1*
X1264702Y400919D1*
X1265106Y398364D1*
X1265157Y385260D1*
X1264954Y382682D1*
X1264702Y381234D1*
X1265106Y378678D1*
X1265157Y365575D1*
X1264954Y362997D1*
X1264702Y361549D1*
X1265106Y358993D1*
X1265157Y345890D1*
X1264954Y343312D1*
X1264702Y341864D1*
X1265106Y339308D1*
X1265157Y326205D1*
X1264954Y323627D1*
X1264702Y322178D1*
X1265106Y319623D1*
X1265157Y306520D1*
X1264954Y303942D1*
X1264702Y302493D1*
X1265106Y299938D1*
Y285542D1*
X1264702Y282808D1*
X1265106Y280253D1*
X1265157Y267150D1*
X1264954Y264572D1*
X1264702Y263123D1*
X1265106Y260568D1*
X1265157Y247465D1*
X1264954Y244887D1*
X1264702Y243438D1*
X1265106Y240883D1*
X1265157Y227780D1*
X1264954Y225202D1*
X1264702Y223753D1*
X1265106Y221198D1*
X1265157Y208094D1*
X1264954Y205517D1*
X1264350Y203001D1*
X1263361Y200613D1*
X1262010Y198408D1*
X1260331Y196441D1*
X1258364Y194761D1*
X1256159Y193411D1*
X1253770Y192421D1*
X1251255Y191818D1*
X1248677Y191614D1*
X1185744D1*
X1184312Y187101D1*
X1182283Y183119D1*
X1179656Y179504D1*
X1176496Y176344D1*
X1172881Y173717D1*
X1168899Y171688D1*
X1164648Y170307D1*
X1160235Y169608D1*
X1157084Y169556D1*
X1146136Y158588D1*
X1146114Y135022D1*
X1145710Y132467D1*
X1144911Y130008D1*
X1143736Y127705D1*
X1142217Y125612D1*
X1140388Y123783D1*
X1138295Y122264D1*
X1135992Y121089D1*
X1133533Y120290D1*
X1130978Y119886D1*
X1099685Y119835D1*
X1089022Y119886D1*
X1086467Y120290D1*
X1084008Y121089D1*
X1081705Y122264D1*
X1079612Y123783D1*
X1078500Y124836D1*
X1076324Y122942D1*
X1073198Y121173D1*
X1069761Y120123D1*
X1066100Y119848D1*
X1026123Y119878D1*
X1022591Y120529D1*
X1019282Y121929D1*
X1016356Y124014D1*
X1013950Y126684D1*
X1012181Y129810D1*
X1011131Y133247D1*
X1010856Y136907D1*
X1010886Y176885D1*
X1011537Y180417D1*
X1012937Y183726D1*
X1015022Y186652D1*
X1016354Y188014D1*
X1013949Y190684D1*
X1012180Y193810D1*
X1011130Y197247D1*
X1010854Y200907D1*
X1010841Y233900D1*
X905438Y233890D1*
X771253Y99705D1*
X772736Y94740D1*
X773866Y87610D1*
Y80390D1*
X772736Y73260D1*
X770505Y66394D1*
X767228Y59961D1*
X762984Y54121D1*
X757879Y49016D1*
X752039Y44772D1*
X745606Y41495D1*
X738740Y39264D1*
X731610Y38134D1*
X724390D1*
X717260Y39264D1*
X710394Y41495D1*
X703961Y44772D1*
X698121Y49016D1*
X693016Y54121D1*
X688772Y59961D1*
X685495Y66394D1*
X683264Y73260D1*
X682134Y80390D1*
Y87610D1*
X683264Y94740D1*
X685495Y101606D1*
X688772Y108039D1*
X693016Y113879D1*
X698121Y118984D1*
X703961Y123228D1*
X710394Y126505D1*
X717260Y128736D1*
X724390Y129866D1*
X731610D1*
X738740Y128736D1*
X743686Y127214D1*
X870988Y254537D1*
X492471Y254580D1*
X489453Y255058D1*
X486545Y256003D1*
X483822Y257391D1*
X481349Y259188D1*
X467497Y272953D1*
X359924Y380528D1*
X318772Y380427D1*
Y310685D1*
X202013Y310588D1*
X201138Y305062D1*
X199409Y299740D1*
X196869Y294755D1*
X193580Y290227D1*
X189623Y286270D1*
X185096Y282982D1*
X180110Y280441D1*
X174789Y278713D1*
X169262Y277837D1*
X163667D1*
X158140Y278713D1*
X152819Y280441D1*
X147833Y282982D1*
X143306Y286270D1*
X139349Y290227D1*
X136060Y294755D1*
X133520Y299740D1*
X131791Y305062D1*
X130916Y310588D1*
Y316184D1*
X131791Y321710D1*
X133520Y327031D1*
X136060Y332017D1*
X139349Y336545D1*
X143306Y340501D1*
X147833Y343790D1*
X152819Y346331D1*
X158140Y348059D1*
X163667Y348934D1*
X169262D1*
X174789Y348059D1*
X180110Y346331D1*
X185096Y343790D1*
X189623Y340501D1*
X193580Y336545D1*
X196869Y332017D1*
X197227Y331378D1*
X197228Y468568D1*
X195314Y465655D1*
X191680Y461399D1*
X187424Y457765D1*
X182654Y454843D1*
X177484Y452701D1*
X172043Y451395D1*
X166465Y450955D1*
X160886Y451395D1*
X155445Y452701D1*
X150276Y454843D1*
X145505Y457765D1*
X141249Y461399D1*
X137615Y465655D1*
X134693Y470425D1*
X132551Y475594D1*
X131245Y481035D1*
X130806Y486614D1*
X131245Y492193D1*
X132551Y497634D1*
X134693Y502803D1*
X137615Y507573D1*
X141249Y511829D1*
X145505Y515463D1*
X150276Y518386D1*
X155445Y520528D1*
X160886Y521833D1*
X166465Y522273D1*
X172043Y521833D1*
X177484Y520528D1*
X182654Y518386D1*
X187424Y515463D1*
X191680Y511829D1*
X195314Y507573D1*
X198236Y502803D1*
X200378Y497634D1*
X201684Y492193D1*
X202017Y489314D1*
X406930Y489391D1*
X433008Y489472D1*
X588844D1*
X588843Y740165D1*
X661514D1*
X661520Y855711D1*
X629197Y855717D1*
Y926079D1*
X731549D1*
X731520Y946289D1*
X629197Y946268D1*
Y1016630D1*
X731549D1*
X731520Y1036804D1*
X629197Y1036819D1*
Y1107181D1*
X731530D1*
X731571Y1115293D1*
X731975Y1117848D1*
X732774Y1120307D1*
X733949Y1122610D1*
X735469Y1124703D1*
X737297Y1126531D1*
X739390Y1128051D1*
X741693Y1129226D1*
X744152Y1130025D1*
X746707Y1130429D1*
X778000Y1130480D1*
X975293Y1130429D1*
X977148Y1130164D1*
X1112165Y1130165D1*
Y1057835D1*
X1095454D1*
X1095420Y1050471D1*
X1094942Y1047453D1*
X1093997Y1044546D1*
X1092609Y1041822D1*
X1090812Y1039349D1*
X1077047Y1025497D1*
X1054262Y1002881D1*
X1054651Y1003188D1*
X1054262Y1002881D1*
X1054165Y980533D1*
Y913866D1*
X990467D1*
X990480Y908148D1*
X1111157Y908165D1*
Y835835D1*
X976577Y835723D1*
X974000Y835520D1*
X746707Y835571D1*
X744152Y835975D1*
X741693Y836774D1*
X739390Y837949D1*
X737297Y839469D1*
X735469Y841297D1*
X733949Y843390D1*
X732774Y845693D1*
X731975Y848152D1*
X731571Y850707D1*
X731520Y855727D1*
X714483Y855717D1*
X714480Y740171D1*
X724165Y740165D1*
Y670486D1*
X761789Y670480D1*
X764656Y674186D1*
X769814Y679344D1*
X775714Y683631D1*
X782213Y686942D1*
X789150Y689196D1*
X796353Y690337D1*
X803647D1*
X810850Y689196D1*
X817787Y686942D1*
X824286Y683631D1*
X830186Y679344D1*
X835344Y674186D1*
X839631Y668286D1*
X842942Y661787D1*
X845196Y654850D1*
X846337Y647647D1*
Y640353D1*
X845196Y633150D1*
X842942Y626213D1*
X839631Y619714D1*
X835344Y613814D1*
X830186Y608656D1*
X824286Y604369D1*
X817787Y601058D1*
X810850Y598804D1*
X803647Y597663D1*
X796353D1*
X789150Y598804D1*
X782213Y601058D1*
X775714Y604369D1*
X769814Y608656D1*
X764656Y613814D1*
X761835Y617521D1*
X724180Y617520D1*
X724165Y505579D1*
X753516Y534965D1*
X753520Y590480D1*
X846480D1*
Y497520D1*
X790957D1*
X736189Y442857D1*
X732828Y440415D1*
X729126Y438528D1*
X725173Y437244D1*
X721070Y436593D1*
X706992Y436512D1*
X406930Y436593D1*
X391008Y436669D1*
X386860D1*
X512071Y311478D1*
X1169227Y311480D1*
X1163181Y311630D1*
X956283Y311693D1*
X953109Y312196D1*
X950052Y313189D1*
X947189Y314648D1*
X944589Y316537D1*
X930680Y330357D1*
X901031Y360005D1*
X896850Y358804D1*
X889647Y357663D1*
X882353D1*
X875150Y358804D1*
X868213Y361058D1*
X861714Y364369D1*
X855814Y368656D1*
X850656Y373814D1*
X846369Y379714D1*
X843058Y386213D1*
X840804Y393150D1*
X839663Y400353D1*
Y407647D1*
X840804Y414850D1*
X843058Y421787D1*
X846369Y428286D1*
X850656Y434186D1*
X855814Y439344D1*
X861714Y443631D1*
X868213Y446942D1*
X875150Y449196D1*
X882353Y450337D1*
X889647D1*
X896850Y449196D1*
X903787Y446942D1*
X910286Y443631D1*
X916186Y439344D1*
X921344Y434186D1*
X925631Y428286D1*
X928942Y421787D1*
X931196Y414850D1*
X932337Y407647D1*
Y400353D1*
X931196Y393150D1*
X929963Y388982D1*
X966391Y352571D1*
X1131819Y352591D1*
X1129066Y353483D1*
X1126341Y354871D1*
X1123869Y356668D1*
X1088804Y391647D1*
X1049188Y431349D1*
X1047391Y433822D1*
X1046003Y436546D1*
X1045058Y439453D1*
X1044580Y442471D1*
X1044520Y462000D1*
X1044580Y657529D1*
X1045058Y660547D1*
X1046003Y663454D1*
X1047391Y666178D1*
X1049188Y668651D1*
X1062954Y682503D1*
X1147349Y766812D1*
X1149822Y768609D1*
X1152546Y769997D1*
X1155453Y770942D1*
X1158471Y771420D1*
X1178000Y771480D1*
X1247961D1*
X1301639Y825188D1*
X1301646Y921913D1*
X1427126D1*
X1503898Y921890D1*
X1580669D1*
X1603606Y921913D1*
X1603608Y926235D1*
X1603886Y928533D1*
X1594471Y928580D1*
X1591453Y929058D1*
X1588546Y930003D1*
X1585822Y931391D1*
X1583349Y933188D1*
X1569497Y946954D1*
X1439140Y1077396D1*
X1437344Y1079869D1*
X1435955Y1082593D1*
X1435010Y1085500D1*
X1434533Y1088518D1*
X1434472Y1101555D1*
X1368277Y1101551D1*
X1366403Y1098940D1*
X1352638Y1085088D1*
X1292651Y1025188D1*
X1290178Y1023391D1*
X1287454Y1022003D1*
X1284547Y1021058D1*
X1281529Y1020580D1*
X1258180Y1020520D1*
X1258165Y940843D1*
X1185835D1*
Y1076165D1*
X1258165D1*
Y1059454D1*
X1271945Y1059480D1*
X1314005Y1101554D1*
X1301646Y1101551D1*
Y1125996D1*
X1296648Y1124307D1*
X1292235Y1123608D1*
X1287765D1*
X1283352Y1124307D1*
X1279101Y1125688D1*
X1275119Y1127717D1*
X1271504Y1130344D1*
X1268344Y1133504D1*
X1265717Y1137119D1*
X1263688Y1141101D1*
X1262307Y1145352D1*
X1261608Y1149765D1*
Y1154235D1*
X1262307Y1158648D1*
X1263688Y1162899D1*
X1265717Y1166881D1*
X1268344Y1170496D1*
X1271504Y1173656D1*
X1275119Y1176283D1*
X1279101Y1178312D1*
X1283352Y1179693D1*
X1287765Y1180392D1*
X1292235D1*
X1296648Y1179693D1*
X1300899Y1178312D1*
X1301652Y1177965D1*
X1301646Y1205378D1*
X1347558D1*
X1307214Y1245824D1*
X1305058Y1248791D1*
X1303391Y1252060D1*
X1302743Y1253831D1*
X1225835Y1253835D1*
Y1326165D1*
X1227837D1*
X1227835Y1433819D1*
X1223835Y1433835D1*
Y1506165D1*
X1235109D1*
X1233688Y1509101D1*
X1232307Y1513352D1*
X1231608Y1517765D1*
Y1522235D1*
X1232307Y1526648D1*
X1233688Y1530899D1*
X1235717Y1534881D1*
X1238344Y1538496D1*
X1241504Y1541656D1*
X1245119Y1544283D1*
X1249101Y1546312D1*
X1253352Y1547693D1*
X1257765Y1548392D1*
X1262235D1*
X1266648Y1547693D1*
X1270899Y1546312D1*
X1274881Y1544283D1*
X1278496Y1541656D1*
X1281656Y1538496D1*
X1284283Y1534881D1*
X1286312Y1530899D1*
X1287693Y1526648D1*
X1288392Y1522235D1*
Y1517765D1*
X1287693Y1513352D1*
X1286312Y1509101D1*
X1284867Y1506164D1*
X1301522Y1506165D1*
X1303056Y1509209D1*
X1305214Y1512176D1*
X1327673Y1534738D1*
X1432629Y1639693D1*
X1432619Y1784429D1*
X1428881Y1781717D1*
X1424899Y1779688D1*
X1420648Y1778307D1*
X1416235Y1777608D1*
X1411765D1*
X1407352Y1778307D1*
X1403101Y1779688D1*
X1399119Y1781717D1*
X1395504Y1784344D1*
X1392344Y1787504D1*
X1389717Y1791119D1*
X1387688Y1795101D1*
X1386307Y1799352D1*
X1385608Y1803765D1*
Y1808235D1*
X1386307Y1812648D1*
X1387688Y1816899D1*
X1389717Y1820881D1*
X1392528Y1824696D1*
X1392520Y1845148D1*
X1385984Y1845211D1*
X1384192Y1845427D1*
X1384197Y1829835D1*
X1248874D1*
Y1902165D1*
X1381781D1*
X1381343Y1904974D1*
X1381323Y1908570D1*
X1381878Y1912123D1*
X1382996Y1915541D1*
X1383542Y1916739D1*
X1382262Y1919957D1*
X1381478Y1923467D1*
X1381265Y1927056D1*
X1381630Y1930634D1*
X1382563Y1934108D1*
X1383542Y1936424D1*
X1382262Y1939642D1*
X1381478Y1943152D1*
X1381265Y1946741D1*
X1381630Y1950319D1*
X1382563Y1953793D1*
X1383542Y1956109D1*
X1382262Y1959327D1*
X1381478Y1962837D1*
X1381265Y1966427D1*
X1381630Y1970004D1*
X1382563Y1973478D1*
X1383542Y1975794D1*
X1382262Y1979012D1*
X1381478Y1982522D1*
X1381265Y1986112D1*
X1381630Y1989689D1*
X1382563Y1993163D1*
X1383542Y1995479D1*
X1382262Y1998697D1*
X1381573Y2001638D1*
X1340660Y2001627D1*
X1340165Y1998165D1*
Y1961835D1*
X1204843D1*
Y2000623D1*
X1122219Y2000619D1*
X1122165Y1923567D1*
Y1860575D1*
X987835D1*
Y1926542D1*
X925835Y1926543D1*
Y1938614D1*
X880180Y1938619D1*
X880165Y1915992D1*
X836648Y1915887D1*
X841472Y1910815D1*
X843291Y1907717D1*
X844394Y1904297D1*
X844730Y1900719D1*
X844689Y1813163D1*
X844038Y1809630D1*
X842638Y1806322D1*
X840552Y1803395D1*
X816283Y1779087D1*
X813480Y1776839D1*
X810257Y1775251D1*
X806768Y1774399D1*
X804630Y1774260D1*
X764060Y1774303D1*
X760528Y1774954D1*
X757219Y1776354D1*
X754293Y1778440D1*
X729984Y1802709D1*
X727736Y1805512D1*
X726148Y1808735D1*
X725297Y1812224D1*
X725157Y1814362D1*
X725201Y1902176D1*
X725852Y1905709D1*
X727252Y1909017D1*
X729337Y1911944D1*
X733349Y1915993D1*
X689724Y1915992D1*
Y1925672D1*
X563476Y1925650D1*
Y1938470D1*
X531369Y1938434D1*
X530495Y1933881D1*
X529388Y1929958D1*
X527978Y1926134D1*
X526270Y1922432D1*
X524280Y1918875D1*
X522014Y1915487D1*
X519491Y1912285D1*
X516724Y1909291D1*
X513731Y1906525D1*
X510529Y1904001D1*
X507140Y1901736D1*
X503584Y1899745D1*
X499882Y1898038D1*
X493896Y1896018D1*
X498936Y1894343D1*
X504383Y1891839D1*
X509508Y1888723D1*
X514238Y1885037D1*
X518510Y1880829D1*
X522270Y1876157D1*
X525466Y1871084D1*
X528056Y1865675D1*
X530004Y1860004D1*
X531286Y1854146D1*
X531883Y1848178D1*
X531804Y1842403D1*
X531043Y1836454D1*
X529602Y1830634D1*
X527500Y1825018D1*
X524764Y1819682D1*
X521429Y1814697D1*
X517543Y1810130D1*
X513156Y1806042D1*
X508328Y1802487D1*
X503121Y1799512D1*
X497605Y1797157D1*
X491856Y1795455D1*
X485948Y1794427D1*
X479961Y1794087D1*
X473974Y1794440D1*
X468068Y1795480D1*
X462323Y1797196D1*
X456812Y1799562D1*
X451612Y1802547D1*
X446790Y1806113D1*
X442412Y1810210D1*
X438535Y1814785D1*
X435213Y1819777D1*
X432487Y1825119D1*
X430396Y1830739D1*
X428967Y1836563D1*
X428220Y1842513D1*
X428163Y1848509D1*
X428799Y1854472D1*
X430117Y1860322D1*
X432102Y1865980D1*
X434726Y1871373D1*
X437954Y1876427D1*
X441743Y1881075D1*
X446043Y1885253D1*
X450797Y1888909D1*
X455940Y1891993D1*
X461404Y1894462D1*
X466054Y1895999D1*
X460150Y1898038D1*
X456448Y1899745D1*
X452891Y1901736D1*
X449503Y1904001D1*
X446301Y1906525D1*
X443307Y1909291D1*
X440541Y1912285D1*
X438017Y1915487D1*
X435752Y1918875D1*
X433761Y1922432D1*
X432054Y1926134D1*
X430643Y1929958D1*
X429537Y1933881D1*
X428741Y1937879D1*
X428262Y1941927D1*
X428102Y1946000D1*
X428262Y1950073D1*
X428741Y1954121D1*
X429537Y1958119D1*
X430643Y1962042D1*
X432054Y1965866D1*
X433761Y1969568D1*
X435752Y1973125D1*
X438017Y1976513D1*
X440541Y1979715D1*
X443307Y1982709D1*
X446301Y1985475D1*
X449503Y1987999D1*
X452891Y1990264D1*
X456448Y1992255D1*
X460150Y1993962D1*
X463974Y1995373D1*
X467896Y1996479D1*
X471895Y1997274D1*
X475942Y1997753D1*
X480016Y1997913D1*
X484089Y1997753D1*
X488136Y1997274D1*
X492135Y1996479D1*
X496058Y1995373D1*
X499882Y1993962D1*
X503584Y1992255D1*
X507140Y1990264D1*
X510529Y1987999D1*
X514046Y1985184D1*
X563476Y1985196D1*
Y1997980D1*
X635807Y1997957D1*
X636736Y1999650D1*
X630406D1*
Y2071980D1*
X769524D1*
X769520Y2119510D1*
X768307Y2123352D1*
X767608Y2127765D1*
Y2132235D1*
X768307Y2136648D1*
X769688Y2140899D1*
X771717Y2144881D1*
X774344Y2148496D1*
X777504Y2151656D1*
X781119Y2154283D1*
X785101Y2156312D1*
X789352Y2157693D1*
X793765Y2158392D1*
X798235D1*
X802648Y2157693D1*
X806899Y2156312D1*
X810881Y2154283D1*
X814496Y2151656D1*
X817656Y2148496D1*
X820283Y2144881D1*
X822312Y2140899D1*
X823693Y2136648D1*
X824392Y2132235D1*
Y2127765D1*
X823693Y2123352D1*
X822466Y2119520D1*
X822480Y2071992D1*
X895728Y2071980D1*
Y1999650D1*
X880161D1*
X880165Y1985390D1*
X925820Y1985381D1*
X925835Y2061866D1*
X986890D1*
X986874Y2062906D1*
X1122197D1*
Y2047366D1*
X1216843Y2047308D1*
X1220466Y2046735D1*
X1223955Y2045601D1*
X1227224Y2043934D1*
X1230192Y2041778D1*
X1237921Y2034152D1*
X1307140Y2034165D1*
X1315824Y2042786D1*
X1318791Y2044942D1*
X1322060Y2046609D1*
X1325550Y2047743D1*
X1329173Y2048316D1*
X1343008Y2048388D1*
X1381563D1*
X1382563Y2052218D1*
X1383542Y2054534D1*
X1382262Y2057752D1*
X1381478Y2061262D1*
X1381266Y2064594D1*
X1210777Y2064583D1*
X1208496Y2062407D1*
X1204881Y2059780D1*
X1200899Y2057751D1*
X1196648Y2056370D1*
X1192235Y2055671D1*
X1187765D1*
X1183352Y2056370D1*
X1179101Y2057751D1*
X1175119Y2059780D1*
X1171504Y2062407D1*
X1168344Y2065567D1*
X1165717Y2069182D1*
X1163688Y2073164D1*
X1162307Y2077415D1*
X1161608Y2081828D1*
Y2086298D1*
X1162307Y2090711D1*
X1163688Y2094962D1*
X1164094Y2095843D1*
X1029866Y2095835D1*
Y2168165D1*
X1173063D1*
Y2151454D1*
X1210844Y2151480D1*
X1210843Y2170165D1*
X1346165D1*
Y2153454D1*
X1358459Y2153462D1*
X1360520Y2154000D1*
Y2211961D1*
X1338068Y2234383D1*
X1332850Y2232804D1*
X1325647Y2231663D1*
X1318353D1*
X1311150Y2232804D1*
X1304213Y2235058D1*
X1297714Y2238369D1*
X1291814Y2242656D1*
X1286656Y2247814D1*
X1282369Y2253714D1*
X1279058Y2260213D1*
X1276804Y2267150D1*
X1275663Y2274353D1*
Y2281647D1*
X1276804Y2288850D1*
X1279058Y2295787D1*
X1282369Y2302286D1*
X1286656Y2308186D1*
X1291814Y2313344D1*
X1297714Y2317631D1*
X1304213Y2320942D1*
X1311150Y2323196D1*
X1318353Y2324337D1*
X1325647D1*
X1332850Y2323196D1*
X1339787Y2320942D1*
X1346286Y2317631D1*
X1352186Y2313344D1*
X1357344Y2308186D1*
X1361631Y2302286D1*
X1364942Y2295787D1*
X1367196Y2288850D1*
X1368337Y2281647D1*
Y2274353D1*
X1367196Y2267150D1*
X1365579Y2261938D1*
X1394812Y2232651D1*
X1396609Y2230178D1*
X1397997Y2227454D1*
X1398942Y2224547D1*
X1399420Y2221529D1*
X1399480Y2218196D1*
X1403101Y2219995D1*
X1407840Y2221472D1*
X1407835Y2341126D1*
X1480165D1*
Y2205803D1*
X1465470D1*
X1465480Y2186112D1*
X1468911Y2185554D1*
X1472252Y2184469D1*
X1473517Y2183886D1*
X1476399Y2185060D1*
X1479895Y2185902D1*
X1483480Y2186173D1*
X1485143Y2186094D1*
X1483688Y2189101D1*
X1482307Y2193352D1*
X1481608Y2197765D1*
Y2202235D1*
X1482307Y2206648D1*
X1483688Y2210899D1*
X1485717Y2214881D1*
X1488344Y2218496D1*
X1491504Y2221656D1*
X1495119Y2224283D1*
X1499101Y2226312D1*
X1503352Y2227693D1*
X1505831Y2228163D1*
X1505835Y2349126D1*
X1758165D1*
Y2213803D1*
X1748251D1*
X1750283Y2210881D1*
X1752312Y2206899D1*
X1753693Y2202648D1*
X1754392Y2198235D1*
Y2193765D1*
X1753693Y2189352D1*
X1752312Y2185101D1*
X1750283Y2181119D1*
X1747656Y2177504D1*
X1744496Y2174344D1*
X1741949Y2172430D1*
X2012257Y2172441D1*
X2014543Y2174617D1*
X2018159Y2177244D1*
X2022140Y2179273D1*
X2026391Y2180654D1*
X2030804Y2181353D1*
X2035274D1*
X2039688Y2180654D1*
X2043938Y2179273D1*
X2047920Y2177244D1*
X2051535Y2174617D1*
X2054696Y2171457D1*
X2057323Y2167841D1*
X2059352Y2163860D1*
X2060732Y2159609D1*
X2061432Y2155196D1*
Y2150726D1*
X2060732Y2146312D1*
X2059352Y2142062D1*
X2057323Y2138080D1*
X2054696Y2134465D1*
X2051535Y2131304D1*
X2047920Y2128677D1*
X2043938Y2126648D1*
X2039688Y2125268D1*
X2035274Y2124568D1*
X2030804D1*
X2026391Y2125268D1*
X2022140Y2126648D1*
X2018159Y2128677D1*
X2014543Y2131304D1*
X2012278Y2133496D1*
X1760251Y2133480D1*
X1761550Y2130350D1*
X1762370Y2126934D1*
X1762646Y2123433D1*
X1762370Y2119932D1*
X1761550Y2116516D1*
X1760358Y2113601D1*
X1761778Y2109920D1*
X1762058Y2108835D1*
X1765101Y2110312D1*
X1769352Y2111693D1*
X1773765Y2112392D1*
X1778235D1*
X1782648Y2111693D1*
X1786899Y2110312D1*
X1790881Y2108283D1*
X1794496Y2105656D1*
X1797656Y2102496D1*
X1800283Y2098881D1*
X1802312Y2094899D1*
X1803693Y2090648D1*
X1804392Y2086235D1*
Y2081765D1*
X1803693Y2077352D1*
X1802312Y2073101D1*
X1800283Y2069119D1*
X1797656Y2065504D1*
X1794496Y2062344D1*
X1790881Y2059717D1*
X1786899Y2057688D1*
X1782648Y2056307D1*
X1778235Y2055608D1*
X1773765D1*
X1769352Y2056307D1*
X1765101Y2057688D1*
X1762026Y2059152D1*
X1760941Y2055811D1*
X1760358Y2054546D1*
X1761778Y2050865D1*
X1762488Y2047339D1*
X1762613Y2043493D1*
X1762133Y2039929D1*
X1761088Y2036488D1*
X1760361Y2034858D1*
X1761778Y2031180D1*
X1762488Y2027654D1*
X1762613Y2023808D1*
X1762133Y2020244D1*
X1761088Y2016803D1*
X1760361Y2015173D1*
X1761778Y2011495D1*
X1762488Y2007969D1*
X1762613Y2004123D1*
X1762133Y2000559D1*
X1761088Y1997118D1*
X1760361Y1995488D1*
X1761778Y1991810D1*
X1762488Y1988283D1*
X1762613Y1984438D1*
X1762133Y1980874D1*
X1761088Y1977433D1*
X1760361Y1975803D1*
X1761778Y1972125D1*
X1762488Y1968598D1*
X1762613Y1964753D1*
X1762133Y1961189D1*
X1761088Y1957748D1*
X1760361Y1956118D1*
X1761778Y1952440D1*
X1762488Y1948913D1*
X1762630Y1945673D1*
X1780816Y1963778D1*
X1783783Y1965934D1*
X1785782Y1967016D1*
X1786843Y1969835D1*
Y1982165D1*
X1850843D1*
Y2044165D1*
X1986165D1*
Y2033361D1*
X1993835Y2033308D1*
X1997458Y2032735D1*
X2000948Y2031601D1*
X2004217Y2029936D1*
X2007184Y2027778D1*
X2017018Y2018047D1*
X2041031Y1994033D1*
X2044801Y1993087D1*
X2048929Y1991375D1*
X2052740Y1989041D1*
X2056138Y1986138D1*
X2059041Y1982740D1*
X2061375Y1978929D1*
X2063087Y1974801D1*
X2064130Y1970455D1*
X2064480Y1966000D1*
X2064130Y1961545D1*
X2063087Y1957199D1*
X2061375Y1953071D1*
X2059041Y1949260D1*
X2056138Y1945862D1*
X2052740Y1942959D1*
X2048929Y1940625D1*
X2044801Y1938913D1*
X2040455Y1937870D1*
X2036000Y1937520D1*
X2031545Y1937870D1*
X2027199Y1938913D1*
X2023071Y1940625D1*
X2019260Y1942959D1*
X2015862Y1945862D1*
X2012959Y1949260D1*
X2010625Y1953071D1*
X2008913Y1957199D1*
X2007984Y1960971D1*
X1986173Y1982762D1*
X1986165Y1971835D1*
X1984173D1*
X1984165Y1847835D1*
X1921157Y1847765D1*
Y1789835D1*
X1797251D1*
X1780799Y1773352D1*
X1897836Y1773381D1*
X1897835Y1786165D1*
X2032165D1*
Y1785157D1*
X2077797D1*
X2068979Y1793955D1*
X2065199Y1794913D1*
X2061071Y1796625D1*
X2057260Y1798959D1*
X2053862Y1801862D1*
X2050959Y1805260D1*
X2048625Y1809071D1*
X2046913Y1813199D1*
X2045870Y1817545D1*
X2045520Y1822000D1*
X2045870Y1826455D1*
X2046913Y1830801D1*
X2048625Y1834929D1*
X2050959Y1838740D1*
X2053862Y1842138D1*
X2057260Y1845041D1*
X2061071Y1847375D1*
X2065199Y1849087D1*
X2069545Y1850130D1*
X2074000Y1850480D1*
X2078455Y1850130D1*
X2082801Y1849087D1*
X2086929Y1847375D1*
X2090740Y1845041D1*
X2094138Y1842138D1*
X2097041Y1838740D1*
X2099375Y1834929D1*
X2101087Y1830801D1*
X2102016Y1827029D1*
X2137778Y1791184D1*
X2139934Y1788217D1*
X2141752Y1784537D1*
X2141601Y1784948D1*
X2141752Y1784537D1*
X2143835Y1784165D1*
X2218165D1*
Y1648843D1*
X2154167D1*
X2154165Y1587835D1*
X1896843D1*
Y1660165D1*
X1897850D1*
X1897835Y1726655D1*
X1808164Y1726619D1*
X1808165Y1605835D1*
X1735835D1*
Y1688538D1*
X1654471Y1688580D1*
X1651453Y1689058D1*
X1648546Y1690003D1*
X1645822Y1691391D1*
X1643349Y1693188D1*
X1629497Y1706954D1*
X1553379Y1783072D1*
X1553381Y1639680D1*
X1678786Y1514176D1*
X1680942Y1511209D1*
X1682609Y1507940D1*
X1683257Y1506169D1*
X1697173Y1506142D1*
X1698625Y1507071D1*
X1696913Y1511199D1*
X1695870Y1515545D1*
X1695520Y1520000D1*
X1695870Y1524455D1*
X1696913Y1528801D1*
X1698625Y1532929D1*
X1700959Y1536740D1*
X1703862Y1540138D1*
X1707260Y1543041D1*
X1711071Y1545375D1*
X1715199Y1547087D1*
X1719545Y1548130D1*
X1724000Y1548480D1*
X1728455Y1548130D1*
X1732801Y1547087D1*
X1736929Y1545375D1*
X1740740Y1543041D1*
X1744138Y1540138D1*
X1747041Y1536740D1*
X1749375Y1532929D1*
X1751087Y1528801D1*
X1752130Y1524455D1*
X1752480Y1520000D1*
X1752130Y1515545D1*
X1751087Y1511199D1*
X1749375Y1507071D1*
X1748867Y1506164D1*
X1760165Y1506165D1*
Y1433835D1*
X1758173D1*
X1758165Y1326157D1*
X1760394Y1326165D1*
Y1253835D1*
X1682613D1*
X1681171Y1251020D1*
X1679014Y1248052D1*
X1656555Y1225491D1*
X1636453Y1205387D1*
X1683031Y1205386D1*
Y1122562D1*
X1705349Y1144812D1*
X1707822Y1146609D1*
X1710546Y1147997D1*
X1713453Y1148942D1*
X1716471Y1149420D1*
X1719852Y1149480D1*
X1719835Y1166165D1*
X1855157D1*
X1855152Y1093835D1*
X1708828Y196165D2*
X1764165D1*
Y179454D1*
X1771945Y179480D1*
X1785600Y193148D1*
X1785591Y219213D1*
X1927759D1*
X1918299Y228636D1*
X1844165Y228692D1*
X1840542Y229265D1*
X1837052Y230399D1*
X1833783Y232066D1*
X1830816Y234222D1*
X1820983Y243953D1*
X1808222Y256816D1*
X1805852Y260165D1*
X1806066Y259783D1*
X1805852Y260165D1*
X1785591Y260268D1*
Y269385D1*
X1713967Y269360D1*
X1713773Y264572D1*
X1713521Y263123D1*
X1713925Y260568D1*
X1713976Y247465D1*
X1713773Y244887D1*
X1713521Y243438D1*
X1713925Y240883D1*
X1713976Y227780D1*
X1713773Y225202D1*
X1713521Y223753D1*
X1713925Y221198D1*
Y206802D1*
X1713521Y204247D1*
X1712722Y201787D1*
X1711547Y199484D1*
X1710028Y197391D1*
X1708849Y196164D1*
X1640837Y595497D2*
X1638942Y597677D1*
X1637173Y600803D1*
X1636123Y604239D1*
X1635848Y607900D1*
X1635879Y647878D1*
X1636529Y651411D1*
X1637929Y654719D1*
X1639117Y656530D1*
X1602471Y656580D1*
X1599453Y657058D1*
X1596546Y658003D1*
X1593822Y659391D1*
X1591349Y661188D1*
X1586596Y665854D1*
X1585375Y663071D1*
X1583041Y659260D1*
X1580138Y655862D1*
X1576740Y652959D1*
X1572929Y650625D1*
X1568801Y648913D1*
X1564455Y647870D1*
X1560000Y647520D1*
X1559084Y647556D1*
X1549627Y638079D1*
X1549654Y634009D1*
X1557056Y633972D1*
X1559723Y633537D1*
X1562265Y633966D1*
X1575449Y634024D1*
X1579020Y633631D1*
X1579475Y633568D1*
X1582030Y633972D1*
X1595134Y634024D1*
X1597711Y633820D1*
X1600227Y633217D1*
X1602615Y632227D1*
X1604820Y630875D1*
X1606787Y629197D1*
X1608466Y627230D1*
X1609818Y625025D1*
X1610807Y622636D1*
X1611411Y620121D1*
X1611614Y617543D1*
Y559160D1*
X1631350Y578814D1*
X1633823Y580610D1*
X1635608Y581566D1*
X1636038Y586264D1*
X1636642Y588780D1*
X1637631Y591168D1*
X1638982Y593373D1*
X1640836Y595501D1*
X1638650Y598098D1*
X1636978Y601278D1*
X1636035Y604745D1*
X1635835Y607308D1*
X1635848Y635461D1*
X1708152Y607794D2*
X1707908Y604411D1*
X1706895Y600963D1*
X1705159Y597818D1*
X1703160Y595495D1*
X1705018Y593373D1*
X1706369Y591168D1*
X1707358Y588780D1*
X1707962Y586264D1*
X1708165Y583686D1*
X1708114Y543024D1*
X1707710Y540469D1*
X1706911Y538009D1*
X1705736Y535706D1*
X1704217Y533613D1*
X1701567Y531136D1*
X1702388Y531785D1*
X1701567Y531136D1*
X1704978Y529865D1*
X1707182Y528514D1*
X1709150Y526835D1*
X1710829Y524867D1*
X1712180Y522663D1*
X1713169Y520274D1*
X1713773Y517759D1*
X1713976Y515181D1*
X1713925Y502077D1*
X1713521Y499344D1*
X1713933Y496581D1*
X1717257Y497598D1*
X1721671Y498298D1*
X1726140D1*
X1730554Y497598D1*
X1734804Y496218D1*
X1738786Y494189D1*
X1742402Y491562D1*
X1745562Y488402D1*
X1748189Y484786D1*
X1750218Y480804D1*
X1751598Y476554D1*
X1752298Y472140D1*
Y467671D1*
X1751598Y463257D1*
X1750218Y459007D1*
X1748189Y455025D1*
X1745562Y451409D1*
X1742402Y448249D1*
X1738786Y445622D1*
X1734804Y443593D1*
X1730554Y442213D1*
X1726140Y441513D1*
X1721671D1*
X1717257Y442213D1*
X1713933Y443252D1*
X1713490Y440356D1*
X1713919Y437812D1*
X1714000Y429480D1*
X1741961D1*
X1762526Y450076D1*
X1762520Y581945D1*
X1708150Y636302D1*
X1708121Y606109D1*
X1707471Y602576D1*
X1706071Y599268D1*
X1703986Y596341D1*
X1703172Y595492D1*
X1705018Y593373D1*
X1706369Y591168D1*
X1707358Y588780D1*
X1707962Y586264D1*
X1708165Y583686D1*
Y577686D1*
X1953339Y1502661D2*
X2019669D1*
Y1485950D1*
X2030075Y1485976D1*
X2030055Y1532228D1*
X2129945D1*
Y1467772D1*
X2122496Y1467656D1*
X2125656Y1464496D1*
X2128283Y1460881D1*
X2130312Y1456899D1*
X2131693Y1452648D1*
X2132392Y1448235D1*
Y1443765D1*
X2131693Y1439352D1*
X2130312Y1435101D1*
X2128283Y1431119D1*
X2125656Y1427504D1*
X2122496Y1424344D1*
X2118881Y1421717D1*
X2114899Y1419688D1*
X2110648Y1418307D1*
X2106235Y1417608D1*
X2101765D1*
X2097352Y1418307D1*
X2093101Y1419688D1*
X2089119Y1421717D1*
X2085504Y1424344D1*
X2082344Y1427504D1*
X2079717Y1431119D1*
X2077688Y1435101D1*
X2076307Y1439352D1*
X2075608Y1443765D1*
X2075556Y1446916D1*
X2047504Y1447016D1*
X2019684D1*
X2019669Y1367339D1*
X1887339D1*
Y1502661D1*
X1959669Y1502638D1*
X1947835Y958165D2*
X2014165D1*
Y941454D1*
X2030055Y941480D1*
Y992228D1*
X2129945D1*
Y927772D1*
X2107890D1*
X2108392Y924235D1*
Y919765D1*
X2107693Y915352D1*
X2106312Y911101D1*
X2104283Y907119D1*
X2101656Y903504D1*
X2098496Y900344D1*
X2094881Y897717D1*
X2090899Y895688D1*
X2086648Y894307D1*
X2082235Y893608D1*
X2077765D1*
X2073352Y894307D1*
X2069101Y895688D1*
X2065119Y897717D1*
X2061504Y900344D1*
X2059239Y902535D1*
X2014164Y902520D1*
X2014165Y822843D1*
X1941835D1*
Y958165D1*
X1947835D1*
X2021164Y1170173D2*
X2021165Y1153462D1*
X2053227Y1153488D1*
X2055504Y1155664D1*
X2059119Y1158291D1*
X2060529Y1159080D1*
X2060520Y1199751D1*
X2030055Y1199772D1*
Y1264228D1*
X2129945D1*
Y1199772D1*
X2099453D1*
X2099480Y1146711D1*
X2101087Y1142808D1*
X2102130Y1138463D1*
X2102480Y1134008D1*
X2102227Y1130377D1*
X2129945Y1130370D1*
Y1065913D1*
X2075312D1*
X2060446Y1051039D1*
X2060392Y1047765D1*
X2059693Y1043352D1*
X2058312Y1039101D1*
X2056283Y1035119D1*
X2053656Y1031504D1*
X2050496Y1028344D1*
X2046881Y1025717D1*
X2042899Y1023688D1*
X2038648Y1022307D1*
X2034235Y1021608D1*
X2029765D1*
X2025352Y1022307D1*
X2021101Y1023688D1*
X2017119Y1025717D1*
X2013504Y1028344D1*
X2010344Y1031504D1*
X2007717Y1035119D1*
X2005688Y1039101D1*
X2004307Y1043352D1*
X2003608Y1047765D1*
Y1052235D1*
X2004307Y1056648D1*
X2005688Y1060899D1*
X2007717Y1064881D1*
X2010344Y1068496D1*
X2013504Y1071656D1*
X2017119Y1074283D1*
X2021101Y1076312D1*
X2025352Y1077693D1*
X2030054Y1078403D1*
X2030055Y1114546D1*
X2021148Y1114528D1*
X2021165Y1097843D1*
X1888835D1*
Y1233165D1*
X2021165D1*
X2021160Y1160835D1*
X1181835Y614314D2*
X1181886Y648976D1*
X1182290Y651531D1*
X1183089Y653991D1*
X1184264Y656294D1*
X1185783Y658387D1*
X1188013Y660531D1*
X1187612Y660215D1*
X1188013Y660531D1*
X1176055Y660520D1*
X1141453Y625904D1*
X1141480Y472071D1*
X1164097Y449451D1*
X1169196Y449480D1*
X1169256Y457419D1*
X1169660Y460152D1*
X1169256Y462707D1*
Y477104D1*
X1169660Y479837D1*
X1169256Y482392D1*
Y496789D1*
X1169660Y499522D1*
X1169256Y502077D1*
Y516474D1*
X1169660Y519029D1*
X1170459Y521488D1*
X1171634Y523791D1*
X1173154Y525885D1*
X1174982Y527713D1*
X1177075Y529232D1*
X1179378Y530407D1*
X1181837Y531206D1*
X1184392Y531610D1*
X1189130Y531661D1*
X1186970Y533369D1*
X1184650Y536112D1*
X1182978Y539291D1*
X1182035Y542759D1*
X1181835Y546521D1*
X1181879Y585891D1*
X1182529Y589424D1*
X1183929Y592732D1*
X1186014Y595659D1*
X1186828Y596508D1*
X1184982Y598627D1*
X1183631Y600832D1*
X1182642Y603220D1*
X1182038Y605736D1*
X1181835Y608314D1*
Y614314D1*
X2236131Y608165D2*
X2236134Y535835D1*
X2092937D1*
Y552546D1*
X2091126Y548165D1*
Y535835D1*
X1955803D1*
Y540593D1*
X1952455Y539870D1*
X1948000Y539520D1*
X1943545Y539870D1*
X1939199Y540913D1*
X1935071Y542625D1*
X1931260Y544959D1*
X1927862Y547862D1*
X1924959Y551260D1*
X1922625Y555071D1*
X1920913Y559199D1*
X1919870Y563545D1*
X1919520Y568000D1*
X1919870Y572455D1*
X1920913Y576801D1*
X1922625Y580929D1*
X1924959Y584740D1*
X1927862Y588138D1*
X1931260Y591041D1*
X1935071Y593375D1*
X1939199Y595087D1*
X1943545Y596130D1*
X1948000Y596480D1*
X1952455Y596130D1*
X1955801Y595369D1*
X1955803Y602608D1*
X1952455Y601870D1*
X1948000Y601520D1*
X1943545Y601870D1*
X1939199Y602913D1*
X1935071Y604625D1*
X1931260Y606959D1*
X1927862Y609862D1*
X1924959Y613260D1*
X1922625Y617071D1*
X1920913Y621199D1*
X1919870Y625545D1*
X1919520Y630000D1*
X1919870Y634455D1*
X1920913Y638801D1*
X1922625Y642929D1*
X1924959Y646740D1*
X1927862Y650138D1*
X1931260Y653041D1*
X1935071Y655375D1*
X1939199Y657087D1*
X1943545Y658130D1*
X1948000Y658480D1*
X1952455Y658130D1*
X1956841Y657071D1*
X1956801Y664913D1*
X1952455Y663870D1*
X1948000Y663520D1*
X1943545Y663870D1*
X1939199Y664913D1*
X1935071Y666625D1*
X1931260Y668959D1*
X1927862Y671862D1*
X1924959Y675260D1*
X1922625Y679071D1*
X1920913Y683199D1*
X1919870Y687545D1*
X1919520Y692000D1*
X1919870Y696455D1*
X1920913Y700801D1*
X1922625Y704929D1*
X1924959Y708740D1*
X1927862Y712138D1*
X1931260Y715041D1*
X1935071Y717375D1*
X1939199Y719087D1*
X1943545Y720130D1*
X1948000Y720480D1*
X1952455Y720130D1*
X1956874Y719059D1*
Y725655D1*
X1952648Y724307D1*
X1948235Y723608D1*
X1943765D1*
X1939352Y724307D1*
X1935101Y725688D1*
X1931119Y727717D1*
X1927504Y730344D1*
X1924344Y733504D1*
X1921717Y737119D1*
X1919688Y741101D1*
X1918307Y745352D1*
X1917608Y749765D1*
Y754235D1*
X1918307Y758648D1*
X1919688Y762899D1*
X1921717Y766881D1*
X1924344Y770496D1*
X1927504Y773656D1*
X1931119Y776283D1*
X1935101Y778312D1*
X1939352Y779693D1*
X1943765Y780392D1*
X1948235D1*
X1952648Y779693D1*
X1956874Y778322D1*
Y788165D1*
X2092197D1*
Y771454D1*
X2092937Y775835D1*
Y788165D1*
X2236134D1*
X2236129Y595835D1*
X174807Y650732D2*
X344362D1*
Y537063D1*
X65490D1*
X68496Y535642D1*
X71436Y533325D1*
X73752Y530386D1*
X75319Y526987D1*
X76050Y523316D1*
X76098Y492067D1*
X76050Y276684D1*
X75319Y273013D1*
X73752Y269614D1*
X71436Y266675D1*
X68496Y264358D1*
X65496Y262938D1*
X344362Y262937D1*
Y149268D1*
X18990D1*
X19000Y19000D1*
X2381000D1*
Y2381000D1*
X19000D1*
Y650727D1*
X186882D1*
X67476Y947063D2*
X193724D1*
Y803866D1*
X66276D1*
Y947063D1*
X67476D1*
X307634D2*
X433882D1*
Y803866D1*
X306433D1*
Y947063D1*
X307634D1*
X191060Y1087194D2*
X190495Y1082419D1*
X189556Y1077702D1*
X188252Y1073073D1*
X186587Y1068560D1*
X184573Y1064193D1*
X182223Y1059997D1*
X179551Y1055999D1*
X176575Y1052222D1*
X173310Y1048690D1*
X169778Y1045425D1*
X166001Y1042449D1*
X162003Y1039777D1*
X157807Y1037427D1*
X153440Y1035413D1*
X148927Y1033748D1*
X144298Y1032444D1*
X139581Y1031505D1*
X134806Y1030940D1*
X130000Y1030751D1*
X125194Y1030940D1*
X120419Y1031505D1*
X115702Y1032444D1*
X111073Y1033748D1*
X106560Y1035413D1*
X102193Y1037427D1*
X97997Y1039777D1*
X93999Y1042449D1*
X90222Y1045425D1*
X86690Y1048690D1*
X83425Y1052222D1*
X80449Y1055999D1*
X77777Y1059997D1*
X75427Y1064193D1*
X73413Y1068560D1*
X71748Y1073073D1*
X70444Y1077702D1*
X69505Y1082419D1*
X68940Y1087194D1*
X68751Y1092000D1*
X68940Y1096806D1*
X69505Y1101581D1*
X70444Y1106298D1*
X71748Y1110927D1*
X73413Y1115440D1*
X75427Y1119807D1*
X77777Y1124003D1*
X80449Y1128001D1*
X83425Y1131778D1*
X86690Y1135310D1*
X90222Y1138575D1*
X93999Y1141551D1*
X97997Y1144223D1*
X102193Y1146573D1*
X106560Y1148587D1*
X111073Y1150252D1*
X115702Y1151556D1*
X120419Y1152495D1*
X125194Y1153060D1*
X130000Y1153249D1*
X134806Y1153060D1*
X139581Y1152495D1*
X144298Y1151556D1*
X148927Y1150252D1*
X153440Y1148587D1*
X157807Y1146573D1*
X162003Y1144223D1*
X166001Y1141551D1*
X169778Y1138575D1*
X173310Y1135310D1*
X176575Y1131778D1*
X179551Y1128001D1*
X182223Y1124003D1*
X184573Y1119807D1*
X186587Y1115440D1*
X188252Y1110927D1*
X189556Y1106298D1*
X190495Y1101581D1*
X191060Y1096806D1*
X191249Y1092000D1*
X191060Y1087194D1*
X368226D2*
X367660Y1082419D1*
X366722Y1077702D1*
X365417Y1073073D1*
X363752Y1068560D1*
X361739Y1064193D1*
X359388Y1059997D1*
X356717Y1055999D1*
X353740Y1052222D1*
X350475Y1048690D1*
X346944Y1045425D1*
X343167Y1042449D1*
X339168Y1039777D1*
X334972Y1037427D1*
X330605Y1035413D1*
X326092Y1033748D1*
X321463Y1032444D1*
X316747Y1031505D1*
X311971Y1030940D1*
X307165Y1030751D1*
X302360Y1030940D1*
X297584Y1031505D1*
X292867Y1032444D1*
X288239Y1033748D1*
X283726Y1035413D1*
X279358Y1037427D1*
X275163Y1039777D1*
X271164Y1042449D1*
X267387Y1045425D1*
X263856Y1048690D1*
X260591Y1052222D1*
X257614Y1055999D1*
X254942Y1059997D1*
X252592Y1064193D1*
X250579Y1068560D1*
X248913Y1073073D1*
X247609Y1077702D1*
X246671Y1082419D1*
X246105Y1087194D1*
X245916Y1092000D1*
X246105Y1096806D1*
X246671Y1101581D1*
X247609Y1106298D1*
X248913Y1110927D1*
X250579Y1115440D1*
X252592Y1119807D1*
X254942Y1124003D1*
X257614Y1128001D1*
X260591Y1131778D1*
X263856Y1135310D1*
X267387Y1138575D1*
X271164Y1141551D1*
X275163Y1144223D1*
X279358Y1146573D1*
X283726Y1148587D1*
X288239Y1150252D1*
X292867Y1151556D1*
X297584Y1152495D1*
X302360Y1153060D1*
X307165Y1153249D1*
X311971Y1153060D1*
X316747Y1152495D1*
X321463Y1151556D1*
X326092Y1150252D1*
X330605Y1148587D1*
X334972Y1146573D1*
X339168Y1144223D1*
X343167Y1141551D1*
X346944Y1138575D1*
X350475Y1135310D1*
X353740Y1131778D1*
X356717Y1128001D1*
X359388Y1124003D1*
X361739Y1119807D1*
X363752Y1115440D1*
X365417Y1110927D1*
X366722Y1106298D1*
X367660Y1101581D1*
X368226Y1096806D1*
X368415Y1092000D1*
X368226Y1087194D1*
X846337Y740353D2*
X845196Y733150D1*
X842942Y726213D1*
X839631Y719714D1*
X835344Y713814D1*
X830186Y708656D1*
X824286Y704369D1*
X817787Y701058D1*
X810850Y698804D1*
X803647Y697663D1*
X796353D1*
X789150Y698804D1*
X782213Y701058D1*
X775714Y704369D1*
X769814Y708656D1*
X764656Y713814D1*
X760369Y719714D1*
X757058Y726213D1*
X754804Y733150D1*
X753663Y740353D1*
Y747647D1*
X754804Y754850D1*
X757058Y761787D1*
X760369Y768286D1*
X764656Y774186D1*
X769814Y779344D1*
X775714Y783631D1*
X782213Y786942D1*
X789150Y789196D1*
X796353Y790337D1*
X803647D1*
X810850Y789196D1*
X817787Y786942D1*
X824286Y783631D1*
X830186Y779344D1*
X835344Y774186D1*
X839631Y768286D1*
X842942Y761787D1*
X845196Y754850D1*
X846337Y747647D1*
Y740353D1*
X387992Y130008D2*
X474008D1*
Y37992D1*
X381992D1*
Y130008D1*
X387992D1*
X573866Y80390D2*
X572736Y73260D1*
X570505Y66394D1*
X567228Y59961D1*
X562984Y54121D1*
X557879Y49016D1*
X552039Y44772D1*
X545606Y41495D1*
X538740Y39264D1*
X531610Y38134D1*
X524390D1*
X517260Y39264D1*
X510394Y41495D1*
X503961Y44772D1*
X498121Y49016D1*
X493016Y54121D1*
X488772Y59961D1*
X485495Y66394D1*
X483264Y73260D1*
X482134Y80390D1*
Y87610D1*
X483264Y94740D1*
X485495Y101606D1*
X488772Y108039D1*
X493016Y113879D1*
X498121Y118984D1*
X503961Y123228D1*
X510394Y126505D1*
X517260Y128736D1*
X524390Y129866D1*
X531610D1*
X538740Y128736D1*
X545606Y126505D1*
X552039Y123228D1*
X557879Y118984D1*
X562984Y113879D1*
X567228Y108039D1*
X570505Y101606D1*
X572736Y94740D1*
X573866Y87610D1*
Y80390D1*
X673992Y82801D2*
X673617Y78017D1*
X672745Y73299D1*
X671388Y68697D1*
X669559Y64262D1*
X667277Y60041D1*
X664568Y56081D1*
X661462Y52425D1*
X657992Y49112D1*
X654196Y46178D1*
X650114Y43656D1*
X645793Y41572D1*
X641277Y39950D1*
X636617Y38807D1*
X631864Y38155D1*
X627068Y38001D1*
X622283Y38349D1*
X617560Y39193D1*
X612950Y40524D1*
X608505Y42327D1*
X604270Y44584D1*
X600295Y47269D1*
X596621Y50354D1*
X593287Y53806D1*
X590332Y57584D1*
X587785Y61651D1*
X585677Y65961D1*
X584028Y70466D1*
X582858Y75119D1*
X582178Y79869D1*
X581997Y84663D1*
X582316Y89450D1*
X583133Y94178D1*
X584436Y98795D1*
X586214Y103252D1*
X588446Y107499D1*
X591109Y111490D1*
X594172Y115182D1*
X597604Y118535D1*
X601365Y121513D1*
X605416Y124084D1*
X609714Y126218D1*
X614210Y127892D1*
X618856Y129089D1*
X623601Y129797D1*
X628395Y130005D1*
X633184Y129715D1*
X637916Y128927D1*
X642541Y127650D1*
X647008Y125898D1*
X651268Y123690D1*
X655274Y121051D1*
X658984Y118009D1*
X662358Y114598D1*
X665357Y110853D1*
X667951Y106816D1*
X670110Y102533D1*
X671811Y98046D1*
X673035Y93407D1*
X673770Y88665D1*
X673992Y82801D1*
X873866Y80390D2*
X872736Y73260D1*
X870505Y66394D1*
X867228Y59961D1*
X862984Y54121D1*
X857879Y49016D1*
X852039Y44772D1*
X845606Y41495D1*
X838740Y39264D1*
X831610Y38134D1*
X824390D1*
X817260Y39264D1*
X810394Y41495D1*
X803961Y44772D1*
X798121Y49016D1*
X793016Y54121D1*
X788772Y59961D1*
X785495Y66394D1*
X783264Y73260D1*
X782134Y80390D1*
Y87610D1*
X783264Y94740D1*
X785495Y101606D1*
X788772Y108039D1*
X793016Y113879D1*
X798121Y118984D1*
X803961Y123228D1*
X810394Y126505D1*
X817260Y128736D1*
X824390Y129866D1*
X831610D1*
X838740Y128736D1*
X845606Y126505D1*
X852039Y123228D1*
X857879Y118984D1*
X862984Y113879D1*
X867228Y108039D1*
X870505Y101606D1*
X872736Y94740D1*
X873866Y87610D1*
Y80390D1*
X356285Y1740007D2*
X355580Y1734049D1*
X354412Y1728165D1*
X352786Y1722391D1*
X350714Y1716762D1*
X348206Y1711314D1*
X345280Y1706077D1*
X341951Y1701087D1*
X338243Y1696371D1*
X334177Y1691962D1*
X329777Y1687885D1*
X325072Y1684164D1*
X320091Y1680823D1*
X314861Y1677883D1*
X309419Y1675362D1*
X303795Y1673274D1*
X298025Y1671634D1*
X292144Y1670450D1*
X286189Y1669731D1*
X280197Y1669480D1*
X274202Y1669701D1*
X268243Y1670390D1*
X262357Y1671542D1*
X256579Y1673154D1*
X250944Y1675211D1*
X245488Y1677705D1*
X240245Y1680618D1*
X235245Y1683933D1*
X230521Y1687630D1*
X226101Y1691685D1*
X222012Y1696073D1*
X218280Y1700769D1*
X214927Y1705743D1*
X211972Y1710963D1*
X209437Y1716400D1*
X207336Y1722018D1*
X205681Y1727783D1*
X204482Y1733661D1*
X203748Y1739614D1*
X203482Y1745608D1*
X203686Y1751602D1*
X204360Y1757563D1*
X205497Y1763453D1*
X207093Y1769235D1*
X209138Y1774874D1*
X211617Y1780336D1*
X214517Y1785587D1*
X217819Y1790594D1*
X221503Y1795328D1*
X225547Y1799759D1*
X229925Y1803860D1*
X234612Y1807604D1*
X239576Y1810970D1*
X244790Y1813937D1*
X250219Y1816487D1*
X255832Y1818602D1*
X261593Y1820273D1*
X267467Y1821486D1*
X273419Y1822236D1*
X279411Y1822517D1*
X285407Y1822328D1*
X291369Y1821671D1*
X297261Y1820547D1*
X303047Y1818966D1*
X308692Y1816937D1*
X314160Y1814471D1*
X319419Y1811585D1*
X324436Y1808295D1*
X329178Y1804623D1*
X333619Y1800591D1*
X337731Y1796223D1*
X341487Y1791547D1*
X344866Y1786591D1*
X347846Y1781385D1*
X350409Y1775962D1*
X352541Y1770354D1*
X354224Y1764597D1*
X355454Y1758726D1*
X356219Y1752777D1*
X356520Y1746000D1*
X356285Y1740007D1*
X356190Y2140007D2*
X355486Y2134049D1*
X354318Y2128165D1*
X352692Y2122391D1*
X350619Y2116762D1*
X348112Y2111314D1*
X345185Y2106077D1*
X341857Y2101087D1*
X338148Y2096371D1*
X334083Y2091962D1*
X329682Y2087885D1*
X324978Y2084164D1*
X319996Y2080823D1*
X314766Y2077883D1*
X309324Y2075362D1*
X303701Y2073274D1*
X297930Y2071634D1*
X292050Y2070450D1*
X286094Y2069731D1*
X280102Y2069480D1*
X274108Y2069701D1*
X268148Y2070390D1*
X262262Y2071542D1*
X256484Y2073154D1*
X250849Y2075211D1*
X245394Y2077705D1*
X240151Y2080618D1*
X235151Y2083933D1*
X230427Y2087630D1*
X226007Y2091685D1*
X221917Y2096073D1*
X218185Y2100769D1*
X214832Y2105743D1*
X211878Y2110963D1*
X209343Y2116400D1*
X207241Y2122018D1*
X205587Y2127783D1*
X204387Y2133661D1*
X203654Y2139614D1*
X203387Y2145608D1*
X203592Y2151602D1*
X204265Y2157563D1*
X205403Y2163453D1*
X206999Y2169235D1*
X209043Y2174874D1*
X211522Y2180336D1*
X214423Y2185587D1*
X217724Y2190594D1*
X221408Y2195328D1*
X225453Y2199759D1*
X229831Y2203860D1*
X234517Y2207604D1*
X239482Y2210970D1*
X244696Y2213937D1*
X250125Y2216487D1*
X255738Y2218602D1*
X261499Y2220273D1*
X267373Y2221486D1*
X273324Y2222236D1*
X279316Y2222517D1*
X285312Y2222328D1*
X291274Y2221671D1*
X297167Y2220547D1*
X302953Y2218966D1*
X308597Y2216937D1*
X314066Y2214471D1*
X319324Y2211585D1*
X324341Y2208295D1*
X329084Y2204623D1*
X333525Y2200591D1*
X337636Y2196223D1*
X341392Y2191547D1*
X344772Y2186591D1*
X347752Y2181385D1*
X350315Y2175962D1*
X352446Y2170354D1*
X354130Y2164597D1*
X355360Y2158726D1*
X356125Y2152777D1*
X356425Y2146000D1*
X356190Y2140007D1*
X1482164Y1384165D2*
X1482165Y1326157D1*
X1487157Y1326165D1*
Y1253835D1*
X1411345D1*
X1413017Y1250047D1*
X1420550Y1242412D1*
X1422706Y1239445D1*
X1424373Y1236176D1*
X1425507Y1232686D1*
X1426080Y1229063D1*
X1426152Y1215228D1*
Y1205361D1*
X1478307Y1205378D1*
X1555079Y1205354D1*
X1558559Y1205378D1*
X1558597Y1221740D1*
X1559171Y1225364D1*
X1560304Y1228853D1*
X1561970Y1232122D1*
X1564127Y1235089D1*
X1574869Y1245934D1*
X1574848Y1253829D1*
X1499071Y1253835D1*
Y1326165D1*
X1501832D1*
X1501835Y1433819D1*
X1498843Y1433835D1*
Y1506165D1*
X1510117D1*
X1508696Y1509101D1*
X1507315Y1513352D1*
X1506615Y1517765D1*
Y1522235D1*
X1507315Y1526648D1*
X1508696Y1530899D1*
X1510724Y1534881D1*
X1513352Y1538496D1*
X1516512Y1541656D1*
X1520127Y1544283D1*
X1524109Y1546312D1*
X1528360Y1547693D1*
X1532773Y1548392D1*
X1537243D1*
X1541168Y1547790D1*
X1492986Y1595950D1*
X1444875Y1547810D1*
X1448757Y1548392D1*
X1453227D1*
X1457640Y1547693D1*
X1461891Y1546312D1*
X1465873Y1544283D1*
X1469488Y1541656D1*
X1472648Y1538496D1*
X1475276Y1534881D1*
X1477304Y1530899D1*
X1478685Y1526648D1*
X1479385Y1522235D1*
Y1517765D1*
X1478685Y1513352D1*
X1477304Y1509101D1*
X1475860Y1506164D1*
X1487157Y1506165D1*
Y1433835D1*
X1482165D1*
X1482142Y1374827D1*
X2036055Y1398370D2*
X2129945D1*
Y1333913D1*
X2075312D1*
X2062469Y1321062D1*
X2062392Y1317765D1*
X2061693Y1313352D1*
X2060312Y1309101D1*
X2058283Y1305119D1*
X2055656Y1301504D1*
X2052496Y1298344D1*
X2048881Y1295717D1*
X2044899Y1293688D1*
X2040648Y1292307D1*
X2036235Y1291608D1*
X2031765D1*
X2027352Y1292307D1*
X2023101Y1293688D1*
X2019119Y1295717D1*
X2015504Y1298344D1*
X2012344Y1301504D1*
X2009717Y1305119D1*
X2007688Y1309101D1*
X2006307Y1313352D1*
X2005608Y1317765D1*
Y1322235D1*
X2006307Y1326648D1*
X2007688Y1330899D1*
X2009717Y1334881D1*
X2012344Y1338496D1*
X2015504Y1341656D1*
X2019119Y1344283D1*
X2023101Y1346312D1*
X2027352Y1347693D1*
X2030056Y1348190D1*
X2030055Y1398370D1*
X2036055D1*
X2031256Y858370D2*
X2129945D1*
Y793913D1*
X2030055D1*
Y858370D1*
X2031256D1*
X1991677Y310060D2*
X1988959Y313260D1*
X1986625Y317071D1*
X1984913Y321199D1*
X1983870Y325545D1*
X1983520Y330000D1*
X1983870Y334455D1*
X1984913Y338801D1*
X1986625Y342929D1*
X1988959Y346740D1*
X1991862Y350138D1*
X1993991Y352041D1*
X1988760Y352043D1*
Y472184D1*
X1974311Y486623D1*
X1932273Y486619D1*
X1928929Y484625D1*
X1924801Y482913D1*
X1920455Y481870D1*
X1916000Y481520D1*
X1911545Y481870D1*
X1907199Y482913D1*
X1903071Y484625D1*
X1899260Y486959D1*
X1895862Y489862D1*
X1892959Y493260D1*
X1890625Y497071D1*
X1888913Y501199D1*
X1887984Y504971D1*
X1870222Y522816D1*
X1868064Y525783D1*
X1866399Y529052D1*
X1865265Y532542D1*
X1864692Y536165D1*
X1864619Y550000D1*
Y662336D1*
X1744304Y782631D1*
X1608165Y782692D1*
X1607731Y782743D1*
X1608165Y782692D1*
X1607731Y782743D1*
X1608273Y781276D1*
X1622079Y767471D1*
X1715529Y767420D1*
X1718547Y766942D1*
X1721455Y765997D1*
X1724178Y764609D1*
X1726651Y762812D1*
X1740503Y749047D1*
X1846812Y642651D1*
X1848609Y640178D1*
X1849997Y637455D1*
X1850942Y634547D1*
X1851420Y631529D1*
X1851480Y612000D1*
X1851420Y400471D1*
X1850942Y397453D1*
X1849997Y394545D1*
X1848609Y391822D1*
X1846812Y389349D1*
X1833047Y375497D1*
X1794446Y336983D1*
X1791974Y335186D1*
X1789251Y333798D1*
X1786343Y332853D1*
X1783324Y332375D1*
X1763795Y332315D1*
X1713944D1*
X1713925Y324912D1*
X1713521Y322178D1*
X1713925Y319623D1*
X1713976Y316104D1*
X1785608Y316121D1*
X1785591Y326693D1*
X1931937D1*
Y275031D1*
X1935224Y274236D1*
X1938614Y272832D1*
X1941743Y270915D1*
X1944533Y268533D1*
X1988765Y224299D1*
X1988760Y266894D1*
X1991690D1*
X1991665Y310066D1*
X2030594Y266894D2*
X2043953D1*
X2042508Y271352D1*
X2041808Y275765D1*
Y280235D1*
X2042508Y284648D1*
X2043888Y288899D1*
X2045917Y292881D1*
X2048545Y296496D1*
X2051705Y299656D1*
X2055320Y302283D1*
X2059302Y304312D1*
X2063552Y305693D1*
X2067966Y306392D1*
X2072436D1*
X2076849Y305693D1*
X2081100Y304312D1*
X2085081Y302283D1*
X2088697Y299656D1*
X2091857Y296496D1*
X2094484Y292881D1*
X2096513Y288899D1*
X2097894Y284648D1*
X2098593Y280235D1*
Y275765D1*
X2097894Y271352D1*
X2096415Y266887D1*
X839509Y1913008D2*
X841211Y1911157D1*
X843110Y1908106D1*
X844302Y1904717D1*
X844732Y1900976D1*
X844719Y1825580D1*
X816661Y1779483D2*
X814811Y1777781D1*
X811760Y1775882D1*
X808370Y1774690D1*
X804630Y1774260D1*
X764060Y1774303D1*
X760528Y1774954D1*
X757219Y1776354D1*
X754293Y1778440D1*
X753286Y1779427D1*
X1932253Y486634D2*
X1928929Y484625D1*
X1924801Y482913D1*
X1920455Y481870D1*
X1916000Y481520D1*
X1911545Y481870D1*
X1907199Y482913D1*
X1903071Y484625D1*
X1899260Y486959D1*
X1895862Y489862D1*
X1892959Y493260D1*
X1890625Y497071D1*
X1888913Y501199D1*
X1887984Y504971D1*
X1604761Y312646D2*
X1602496Y310454D1*
X1598881Y307827D1*
X1594899Y305798D1*
X1590648Y304417D1*
X1586235Y303718D1*
X1581765D1*
X1577352Y304417D1*
X1573101Y305798D1*
X1569119Y307827D1*
X1565504Y310454D1*
X1562344Y313614D1*
X1559717Y317230D1*
X1557688Y321211D1*
X1556307Y325462D1*
X1555608Y329875D1*
Y334345D1*
X1556307Y338759D1*
X1557688Y343009D1*
X1559717Y346991D1*
X1562344Y350606D1*
X1565504Y353766D1*
X1569119Y356394D1*
X1573101Y358423D1*
X1577352Y359803D1*
X1581765Y360503D1*
X1586235D1*
X1590648Y359803D1*
X1594899Y358423D1*
X1598881Y356394D1*
X1602496Y353766D1*
X1604761Y351575D1*
X1762072Y2108816D2*
X1765101Y2110312D1*
X1769352Y2111693D1*
X1773765Y2112392D1*
X1778235D1*
X1782648Y2111693D1*
X1786899Y2110312D1*
X1790881Y2108283D1*
X1794496Y2105656D1*
X1797656Y2102496D1*
X1800283Y2098881D1*
X1802312Y2094899D1*
X1803693Y2090648D1*
X1804392Y2086235D1*
Y2081765D1*
X1803693Y2077352D1*
X1802312Y2073101D1*
X1800283Y2069119D1*
X1797656Y2065504D1*
X1794496Y2062344D1*
X1790881Y2059717D1*
X1786899Y2057688D1*
X1782648Y2056307D1*
X1778235Y2055608D1*
X1773765D1*
X1769352Y2056307D1*
X1765101Y2057688D1*
X1762042Y2059201D1*
X690000Y1412142D2*
D17*
Y1376000D1*
X653858D2*
X726142D1*
X1018000Y1371008D2*
X1054142D1*
X1818992Y1066000D2*
X1855134D1*
X1222000Y977008D2*
Y940866D1*
X1185858Y977008D2*
X1258142D1*
X1818992Y1166142D2*
Y1130000D1*
X1855134D1*
X625008Y740142D2*
Y704000D1*
X588866D2*
X625008D1*
X588866Y644000D2*
X625008D1*
X588850Y584255D2*
X624992D1*
X588866Y524000D2*
X625008D1*
X1818992Y874000D2*
Y837858D1*
Y874000D2*
X1855134D1*
X1047008Y156000D2*
Y119831D1*
X1010839Y156000D2*
X1047008D1*
X1728000Y97008D2*
Y60866D1*
Y97008D2*
X1764142D1*
X1664000Y97007D2*
Y60839D1*
X1627831Y97007D2*
X1664000D1*
X1635831Y626993D2*
X1708169D1*
X2234992Y360142D2*
Y287858D1*
Y324000D2*
X2271134D1*
X1983504Y1403504D2*
Y1367362D1*
Y1403504D2*
X2019646D1*
X1978000Y859008D2*
Y822866D1*
X1941858Y859008D2*
X2014142D1*
X1985000Y1233142D2*
Y1197000D1*
X2021142D1*
X1181832Y565007D2*
X1254168D1*
X1010837Y220000D2*
X1047007D1*
X1722000Y2349102D2*
Y2312961D1*
X1758142D1*
X2055008Y1624000D2*
Y1587858D1*
X1074992Y908142D2*
Y835858D1*
Y872000D2*
X1111134D1*
X2182000Y1685008D2*
Y1648866D1*
Y1685008D2*
X2218142D1*
X1884992Y1826000D2*
Y1789858D1*
Y1826000D2*
X1921134D1*
X1444000Y2341102D2*
Y2304961D1*
X1407858D2*
X1480142D1*
X1285039Y1902142D2*
Y1829858D1*
X1248898Y1866000D2*
X1285039D1*
X859563Y2071957D2*
Y2035815D1*
X895705D1*
X1662000Y2349102D2*
Y2312961D1*
X1602000Y2349102D2*
Y2312961D1*
X1542000Y2349102D2*
Y2312961D1*
X1505858D2*
X1542000D1*
X2198000Y572000D2*
Y535858D1*
Y572000D2*
X2236110D1*
X2198000Y632000D2*
X2236110D1*
X2198000Y692000D2*
X2236110D1*
X2198000Y788142D2*
Y752000D1*
X2236110D1*
X1018000Y952000D2*
Y913890D1*
Y952000D2*
X1054142D1*
X1068000Y2168142D2*
Y2095858D1*
X1029890Y2132000D2*
X1068000D1*
X197252Y368504D2*
X318748D1*
X258000Y337008D2*
Y310709D1*
X197252Y337008D2*
X318748D1*
X258984Y650709D2*
Y537087D1*
Y593898D2*
X344339D1*
X258984Y262913D2*
Y149291D1*
Y206102D2*
X344339D1*
X91661Y650709D2*
Y537087D1*
Y262913D2*
Y149291D1*
X130000Y947039D2*
Y803890D1*
X66299Y875465D2*
X193701D1*
X370157Y947039D2*
Y803890D1*
X306457Y875465D2*
X433858D1*
X595484Y116516D2*
X660516Y51484D1*
Y116516D2*
X595484Y51484D1*
X443324Y1882692D2*
X516707Y1809308D1*
Y1882692D2*
X443324Y1809308D1*
X1018000Y1253008D2*
Y1216866D1*
Y1253008D2*
X1054142D1*
X1818000Y1002000D2*
X1854142D1*
X1923504Y1403504D2*
Y1367362D1*
X1887362Y1403504D2*
X1923504D1*
X1925000Y1233142D2*
Y1197000D1*
X1888858D2*
X1925000D1*
X1996000Y1624000D2*
Y1587858D1*
X1262000Y1290000D2*
Y1253858D1*
X1225858Y1290000D2*
X1262000D1*
X1450992D2*
Y1253858D1*
Y1290000D2*
X1487134D1*
X1948000Y1884000D2*
Y1847858D1*
Y1884000D2*
X1984142D1*
X1724228Y1290000D2*
Y1253858D1*
Y1290000D2*
X1760370D1*
X1086000Y1896740D2*
Y1860598D1*
Y1896740D2*
X1122142D1*
X1024000D2*
Y1860598D1*
X987858Y1896740D2*
X1024000D1*
X1772000Y1642000D2*
Y1605858D1*
X1735858Y1642000D2*
X1808142D1*
X1535236Y1290000D2*
Y1253858D1*
X1499094Y1290000D2*
X1535236D1*
X2080000Y858346D2*
Y793937D1*
X2030079Y826142D2*
X2129921D1*
X778000Y1358236D2*
Y1328000D1*
X741858D2*
X778000D1*
X1658677Y1205362D2*
Y1153472D1*
X1683008D1*
X1556315Y1205354D2*
Y1153465D1*
X1428362Y1205354D2*
Y1101575D1*
X1618021Y430535D2*
X1713979D1*
X1569543Y634028D2*
Y586047D1*
Y185209D2*
Y89248D1*
X2050516Y440098D2*
Y396083D1*
X688000Y1107157D2*
Y1036843D1*
X629220Y1072000D2*
X688000D1*
X1729433Y1946268D2*
X1762622D1*
X1729433Y1965953D2*
X1762622D1*
X1729433Y1985638D2*
X1762622D1*
X1729433Y2005323D2*
X1762622D1*
X1729433Y2025008D2*
X1762622D1*
X1729433Y2044693D2*
X1762622D1*
X1483370Y2186150D2*
Y2152961D1*
X1381283Y2064378D2*
X1414472D1*
X1381283Y2044693D2*
X1414472D1*
X1381283Y2005323D2*
X1414472D1*
X1381283Y1985638D2*
X1414472D1*
X1381283Y1965953D2*
X1414472D1*
X1381283Y1946268D2*
X1414472D1*
X1381283Y1926583D2*
X1414472D1*
X1381283Y1906898D2*
X1414472D1*
X784945Y1891134D2*
Y1774257D1*
X725154Y1891134D2*
X844736D1*
X1894000Y326669D2*
Y293480D1*
X1931913D1*
X754000Y1099131D2*
D14*
X968005D1*
X754000Y1089262D2*
X968005D1*
X754000Y1079394D2*
X968005D1*
X754000Y1069525D2*
X968005D1*
X754000Y1059656D2*
X968005D1*
X754000Y1049787D2*
X968005D1*
X754000Y1039919D2*
X968005D1*
X754000Y1030050D2*
X968005D1*
X754000Y1020181D2*
X968005D1*
X754000Y1010312D2*
X968005D1*
X754000Y1000444D2*
X968005D1*
X754000Y990575D2*
X968005D1*
X754000Y980706D2*
X968005D1*
X754000Y970837D2*
X968005D1*
X754000Y960969D2*
X968005D1*
X754000Y951100D2*
X968005D1*
X754000Y941231D2*
X968005D1*
X754000Y931362D2*
X968005D1*
X754000Y921493D2*
X968005D1*
X754000Y911625D2*
X968005D1*
X754000Y901756D2*
X968005D1*
X754000Y891887D2*
X968005D1*
X754000Y882018D2*
X968005D1*
X754000Y872150D2*
X968005D1*
X754000Y862281D2*
X968005D1*
X964000Y1109000D2*
X753000D1*
Y857000D1*
X969000D1*
Y1109000D1*
X964000D1*
D22*
X886000Y1412000D3*
X823008D3*
X690000Y1313008D3*
Y1376000D3*
X1018000Y1434000D3*
Y1371008D3*
X1756000Y1066000D3*
X1818992D3*
X1222000Y1040000D3*
Y977008D3*
X1756000Y938000D3*
X1818992D3*
X1756000Y1130000D3*
X1818992D3*
X688000Y704000D3*
X625008D3*
X688000Y644000D3*
X625008D3*
X687984Y584255D3*
X624992D3*
X688000Y524000D3*
X625008D3*
X1756000Y874000D3*
X1818992D3*
D123*
X1110000Y156000D3*
X1047008D3*
D22*
X1728000Y160000D3*
Y97008D3*
D126*
X1664000Y159999D3*
Y97007D3*
X1672000Y564001D3*
Y626993D3*
D22*
X2172000Y324000D3*
X2234992D3*
X1983504Y1466496D3*
Y1403504D3*
X1978000Y922000D3*
Y859008D3*
X1985000Y1134008D3*
Y1197000D3*
D126*
X1218000Y627999D3*
Y565007D3*
D129*
X1109999Y220000D3*
X1047007D3*
D22*
X1722000Y2249969D3*
Y2312961D3*
X1822000Y1886000D3*
X1884992D3*
X1934000Y1750000D3*
Y1687008D3*
X2118000Y1624000D3*
X2055008D3*
X1012000Y872000D3*
X1074992D3*
X2182000Y1748000D3*
Y1685008D3*
X1996000Y1750000D3*
Y1687008D3*
X1822000Y1826000D3*
X1884992D3*
X1444000Y2241969D3*
Y2304961D3*
X1348031Y1866000D3*
X1285039D3*
X1324102Y1347969D3*
X1387094D3*
X1324000Y1410000D3*
X1386992D3*
X1950000Y2008000D3*
X1887008D3*
X1886000Y1946000D3*
X1823008D3*
X796571Y2035815D3*
X859563D3*
X1304000Y1998000D3*
X1241008D3*
X962000Y1962709D3*
Y2025701D3*
X662634Y1961815D3*
X599642D3*
X1662000Y2249969D3*
Y2312961D3*
X1602000Y2249969D3*
Y2312961D3*
X1542000Y2249969D3*
Y2312961D3*
X1661031Y1348000D3*
X1598039D3*
X1660000Y1412000D3*
X1597008D3*
D23*
X2198000Y572000D3*
X2131071D3*
X2198000Y632000D3*
X2131071D3*
X2198000Y692000D3*
X2131071D3*
X2198000Y752000D3*
X2131071D3*
D24*
X1018000Y952000D3*
Y1018929D3*
D23*
X1068000Y2132000D3*
X1134929D3*
D25*
X886000Y404000D3*
D27*
X258000Y462992D3*
Y431496D3*
Y400000D3*
Y368504D3*
Y337008D3*
D28*
X258984Y593898D3*
Y206102D3*
D29*
X91661Y593898D3*
Y206102D3*
D30*
X130000Y1308535D3*
X370157D3*
X130000Y875465D3*
X370157D3*
D31*
X800000Y544000D3*
D25*
Y644000D3*
Y744000D3*
D32*
X428000Y84000D3*
D34*
X528000D3*
X628000D3*
X728000D3*
X828000D3*
X928000D3*
D35*
X280000Y1746000D3*
X279906Y2146000D3*
D37*
X480016Y1946000D3*
Y1846000D3*
D39*
X824000Y1624000D3*
X1009039D3*
D22*
X1264000Y1348000D3*
Y1410992D3*
X1446000Y1348000D3*
Y1410992D3*
X1722000Y1348000D3*
Y1410992D3*
X1538000Y1348000D3*
Y1410992D3*
D25*
X1322000Y2278000D3*
D22*
X690000Y1189969D3*
Y1252961D3*
X956000Y1432992D3*
Y1370000D3*
Y1314992D3*
Y1252000D3*
X1018000Y1316000D3*
Y1253008D3*
X1818000Y1002000D3*
X1755008D3*
X2165496Y157496D3*
Y94504D3*
X2102000Y158000D3*
Y95008D3*
X1923504Y1403504D3*
Y1466496D3*
X2054961Y572000D3*
X1991969D3*
X2056000Y632000D3*
X1993008D3*
X2056031Y692000D3*
X1993039D3*
X2056031Y752000D3*
X1993039D3*
X1925000Y1197000D3*
Y1134008D3*
X2120000Y1748000D3*
Y1685008D3*
X2056000Y1686000D3*
Y1748992D3*
X1076000Y1094000D3*
X1013008D3*
X1996000Y1624000D3*
X1933008D3*
X1262000Y1290000D3*
X1324992D3*
X1260000Y1470000D3*
X1322992D3*
X1388000Y1290000D3*
X1450992D3*
X1388000Y1470000D3*
X1450992D3*
X1948000Y1884000D3*
Y1946992D3*
X666571Y2035815D3*
X729563D3*
X1310000Y2134000D3*
X1247008D3*
X1086031Y2026740D3*
X1023039D3*
X1724228Y1290000D3*
X1661236D3*
X1724000Y1470000D3*
X1661008D3*
X1086000Y1896740D3*
Y1959732D3*
X1024000Y1896740D3*
Y1959732D3*
X1772000Y1642000D3*
Y1704992D3*
X1598228Y1290000D3*
X1535236D3*
X1598000Y1470000D3*
X1535008D3*
D40*
X2080000Y1232000D3*
Y1098142D3*
Y1500000D3*
Y1366142D3*
Y960000D3*
Y826142D3*
D42*
X778000Y1328000D3*
Y1290598D3*
Y1253197D3*
X864575D3*
Y1290598D3*
Y1328000D3*
D43*
X1326000Y870000D3*
X1351591D3*
X1377181D3*
X1402772D3*
X1428362D3*
X1453953D3*
X1479543D3*
X1505134D3*
X1530724D3*
X1556315D3*
X1581906D3*
X1607496D3*
X1633087D3*
X1658677D3*
Y1153472D3*
X1633087Y1153465D3*
X1607496D3*
X1581906D3*
X1556315D3*
X1530724D3*
X1505134D3*
X1479543D3*
X1453953D3*
X1428362D3*
X1402772D3*
X1377181D3*
X1351591D3*
X1326000D3*
D132*
X1666000Y214000D3*
Y233685D3*
Y253370D3*
Y273055D3*
Y292740D3*
Y312425D3*
Y332110D3*
Y351795D3*
Y371480D3*
Y391165D3*
Y410850D3*
Y430535D3*
Y450220D3*
Y469906D3*
Y489591D3*
Y509276D3*
D135*
X1589228Y586047D3*
X1569543D3*
X1549858D3*
X1530173D3*
X1510488D3*
X1490803D3*
X1471118D3*
X1451433D3*
X1431748D3*
X1412063D3*
X1392378D3*
X1372693D3*
X1353008D3*
X1333323D3*
X1313638D3*
X1293953D3*
D132*
X1217181Y509276D3*
Y489591D3*
Y469906D3*
Y450220D3*
Y430535D3*
Y410850D3*
Y391165D3*
Y371480D3*
Y351795D3*
Y332110D3*
Y312425D3*
Y292740D3*
Y273055D3*
Y253370D3*
Y233685D3*
Y214000D3*
D135*
X1293953Y137228D3*
X1313638D3*
X1333323D3*
X1353008D3*
X1372693D3*
X1392378D3*
X1412063D3*
X1431748D3*
X1451433D3*
X1471118D3*
X1490803D3*
X1510488D3*
X1530173D3*
X1549858D3*
X1569543D3*
X1589228D3*
D45*
X2011146Y222854D3*
X2030831D3*
X2050516D3*
X2070201D3*
X2089886D3*
Y396083D3*
X2070201D3*
X2050516D3*
X2030831D3*
X2011146D3*
D47*
X688000Y1072000D3*
Y981449D3*
Y890898D3*
D48*
X916346Y981449D3*
D50*
X1444000Y1838000D3*
X1463685D3*
X1483370D3*
X1503055D3*
X1522740D3*
X1542425D3*
X1562110D3*
X1581795D3*
X1601480D3*
X1621165D3*
X1640850D3*
X1660535D3*
X1680220D3*
X1699906D3*
D51*
X1729433Y1867528D3*
Y1887213D3*
Y1906898D3*
Y1926583D3*
Y1946268D3*
Y1965953D3*
Y1985638D3*
Y2005323D3*
Y2025008D3*
Y2044693D3*
Y2064378D3*
Y2084063D3*
Y2103748D3*
Y2123433D3*
D50*
X1699906Y2152961D3*
X1680220D3*
X1660535D3*
X1640850D3*
X1621165D3*
X1601480D3*
X1581795D3*
X1562110D3*
X1542425D3*
X1522740D3*
X1503055D3*
X1483370D3*
X1463685D3*
X1444000D3*
D51*
X1414467Y2123433D3*
X1414472Y2103748D3*
Y2084063D3*
Y2064378D3*
Y2044693D3*
Y2025008D3*
Y2005323D3*
Y1985638D3*
Y1965953D3*
Y1946268D3*
Y1926583D3*
Y1906898D3*
Y1887213D3*
Y1867528D3*
D52*
X1571950Y1995480D3*
D54*
X844000Y1962000D3*
D138*
X784945Y1891134D3*
D54*
X725890Y1962000D3*
D55*
X1894000Y186000D3*
Y293480D3*
X1823528D3*
Y186000D3*
M02*
