G04 DipTrace 3.0.0.2*
G04 SDR_Transmitter.GBL*
%MOIN*%
G04 #@! TF.FileFunction,Copper,L4,Bot*
G04 #@! TF.Part,Single*
G04 #@! TA.AperFunction,CopperBalancing*
%ADD13C,0.01*%
G04 #@! TA.AperFunction,Conductor*
%ADD18C,0.025*%
%ADD19C,0.01378*%
G04 #@! TA.AperFunction,ComponentPad*
%ADD29R,0.06X0.06*%
%ADD30C,0.06*%
%ADD31R,0.090551X0.090551*%
%ADD33C,0.090551*%
%ADD34C,0.120079*%
%ADD36C,0.070866*%
G04 #@! TA.AperFunction,ViaPad*
%ADD58C,0.03*%
%FSLAX26Y26*%
G04*
G70*
G90*
G75*
G01*
G04 Bottom*
%LPD*%
X3543701Y3053701D2*
D18*
X3147701D1*
X3753701D1*
Y957701D1*
X3693701Y897701D1*
X2401701D1*
X2362205Y858205D1*
Y781811D1*
X3543701Y3053701D2*
X3753701D1*
Y3433701D1*
X1907701Y2507906D2*
D19*
Y3251701D1*
X1445701Y3713701D1*
X1453701Y2499701D2*
D13*
X1483701Y2529701D1*
X1687701D1*
X2207701Y2009701D1*
X3089701D1*
X3407701Y1691701D1*
X1659701Y2503701D2*
X2189701Y1973701D1*
X3075701D1*
X3359701Y1689701D1*
X1445701Y2457701D2*
X1455701Y2467701D1*
X1645701D1*
X2175701Y1937701D1*
X3063701D1*
X3309701Y1691701D1*
X1629701Y2429701D2*
X1631701D1*
X2165701Y1895701D1*
X3055701D1*
X3259701Y1691701D1*
X2899701Y1741701D2*
X2900701Y1742701D1*
X2981701Y1661701D1*
X2269701Y2147701D2*
X2268701Y2146701D1*
X2359701Y2055701D1*
X2189701Y2273701D2*
Y2095701D1*
X2385701Y1707701D2*
X2573701D1*
X1529701Y1937701D2*
X1621701Y1845701D1*
X2969701D1*
X3259701Y2647701D2*
D19*
X3203701Y2703701D1*
X2971701D1*
X3347701Y2645701D2*
X3403701Y2701701D1*
X3637701D1*
X1147701Y2947701D2*
D13*
Y2949701D1*
X1503701D1*
X1653701Y2799701D1*
X3587701Y3171701D2*
D19*
Y3182599D1*
X2054803D1*
X1799701Y3437701D1*
Y3651701D1*
X1883701Y2447701D2*
D13*
Y2449701D1*
X2303701D1*
X1869701Y2389795D2*
X2293795D1*
X2305701Y2401701D1*
X1797701Y2165701D2*
X1771701Y2139701D1*
X883701D1*
X2047701Y2359701D2*
X2283701D1*
X2303701Y2339701D1*
X1974520Y2323701D2*
X2241701D1*
X2303701Y2261701D1*
X1729701Y2799701D2*
Y3011701D1*
X1067701Y3673701D1*
X3629701Y3431701D2*
Y3265701D1*
X3667701Y3227701D1*
Y3143701D1*
X3621701Y3097701D1*
X1991701D1*
X1691701Y2799701D2*
Y2985701D1*
X1069701Y3607701D1*
X3577701Y3428662D2*
Y3257701D1*
X3625701Y3209701D1*
Y3157701D1*
X3603701Y3135701D1*
X1957701D1*
X1727701Y2557701D2*
X919906D1*
X611701Y2249496D1*
X1879701Y2547701D2*
X1821701Y2605701D1*
X692315D1*
X611701Y2525087D1*
X1779638Y2803638D2*
X1633701Y2657701D1*
X754677D1*
X611701Y2800677D1*
X2069701Y3359764D2*
X2965701D1*
X3577701Y1027701D2*
D19*
Y1575701D1*
X2605701Y2547701D1*
X2123701D1*
X3631701Y1029701D2*
Y1597701D1*
X2619701Y2609701D1*
X2125701D1*
X3332441Y3471701D2*
X3429701D1*
X3478819Y3520819D1*
Y3522819D1*
X3515701Y3559701D1*
X4045701D1*
D58*
X3543701Y3053701D3*
X3147701D3*
X3753701Y3433701D3*
X3543701Y3053701D3*
X1907701Y2507906D3*
X1445701Y3713701D3*
X1453701Y2499701D3*
X3407701Y1691701D3*
X1659701Y2503701D3*
X3359701Y1689701D3*
X1445701Y2457701D3*
X3309701Y1691701D3*
X1629701Y2429701D3*
X3259701Y1691701D3*
X2899701Y1741701D3*
X2981701Y1661701D3*
X2269701Y2147701D3*
X2359701Y2055701D3*
X2189701Y2273701D3*
Y2095701D3*
X2385701Y1707701D3*
X2573701D3*
X1529701Y1937701D3*
X2969701Y1845701D3*
X3259701Y2647701D3*
X2971701Y2703701D3*
X3347701Y2645701D3*
X3637701Y2701701D3*
X1147701Y2947701D3*
X1653701Y2799701D3*
X3587701Y3171701D3*
X1799701Y3651701D3*
X1883701Y2447701D3*
X2303701Y2449701D3*
X1869701Y2389795D3*
X2305701Y2401701D3*
X1797701Y2165701D3*
X883701Y2139701D3*
X2047701Y2359701D3*
X2303701Y2339701D3*
X1974520Y2323701D3*
X2303701Y2261701D3*
X1729701Y2799701D3*
X3629701Y3431701D3*
X1991701Y3097701D3*
X1691701Y2799701D3*
X3577701Y3428662D3*
X1957701Y3135701D3*
X1727701Y2557701D3*
X1879701Y2547701D3*
X1779638Y2803638D3*
X2069701Y3359764D3*
X2965701D3*
X3577701Y1027701D3*
X2123701Y2547701D3*
X3631701Y1029701D3*
X2125701Y2609701D3*
X3332441Y3471701D3*
X4045701Y3559701D3*
X1641701Y2213701D3*
X1447701Y2409701D3*
X1985701Y2273701D3*
X1524292Y2719236D3*
X2009701Y2689701D3*
X2363701Y1447701D3*
X1137701Y3853701D3*
X915701Y3621701D3*
X2299701Y1447701D3*
X2425701D3*
X2227701Y1515701D3*
X2493701Y1517701D3*
X2361701Y1515701D3*
X2239701Y1355701D3*
X2489701Y1349701D3*
X883701Y1891701D3*
X881701Y2757701D3*
X3289701Y2079701D3*
X3513701Y1563701D3*
X1347701Y3595701D3*
X1069701Y3607701D3*
X1067701Y3673701D3*
X3303701Y3349701D3*
X3425701Y3347701D3*
X3215701Y3819701D3*
X3345701Y3727701D3*
X3517701Y3731701D3*
X3577701Y2841701D3*
X3835701Y3301701D3*
X3297701Y3233701D3*
X3425701Y3235701D3*
X3301701Y2955701D3*
X3999701Y3805701D3*
X2885701Y2995701D3*
X2623701Y3447701D3*
X2619701Y3273701D3*
X3303701Y2817701D3*
X1673701Y2037701D3*
X1609701Y2365701D3*
X2653701Y3027701D3*
X2593701Y2743701D3*
X807701Y1011701D3*
X2949701Y3263701D3*
X3305701Y2541701D3*
X1565701Y2021701D3*
X1823701Y2483701D3*
X1155701Y2261701D3*
X3663701Y2545701D3*
X1991701Y2915701D3*
X1817701Y2919701D3*
X3301701Y2391701D3*
X1131701Y2767701D3*
X1745701Y2651701D3*
X733701Y1509701D3*
X3991701Y2173701D3*
X2919701Y2529701D3*
X1157701Y1957701D3*
X3299701Y2179701D3*
X1071701Y3273701D3*
X1643701Y3297701D3*
X2677701Y593701D3*
X2081701Y595701D3*
X1889701Y1523701D3*
X1881701Y987701D3*
X1929701Y2015701D3*
X2121701Y2161701D3*
X2053701Y2253701D3*
X1163701Y1489701D3*
X3399701Y589701D3*
X3449701Y989701D3*
X4035701Y887701D3*
X1671701Y1917701D3*
X1993701Y1913701D3*
X1811701Y2009701D3*
X2939701Y2093701D3*
X3437701Y1645701D3*
X3039701Y1765701D3*
X1291701Y1055701D3*
X4045701Y2831701D3*
X2975701Y4025701D3*
X669701Y3249701D3*
X1411701Y2725701D3*
X709701Y2489701D3*
X3693701Y4089701D3*
X659701Y3853701D3*
X2427701Y2183701D3*
X2181701Y2861701D3*
X693701Y2269701D3*
X2169701Y3551701D3*
X1623701Y4015701D3*
X573701Y1841701D3*
X1669701Y1265701D3*
X1537701Y2825701D3*
X4051701Y1467701D3*
X1423701Y3079701D3*
X1505701Y585701D3*
X2843701Y1065701D3*
X2557701Y3697701D3*
X3595701Y1853701D3*
X3031701Y1531701D3*
X3287701Y1469701D3*
X424701Y4290840D2*
D13*
X4299702D1*
X424701Y4280971D2*
X4299702D1*
X424701Y4271103D2*
X4299702D1*
X424701Y4261234D2*
X4299702D1*
X424701Y4251365D2*
X4299702D1*
X424701Y4241496D2*
X4299702D1*
X424701Y4231628D2*
X4299702D1*
X424701Y4221759D2*
X4299702D1*
X424701Y4211890D2*
X4299702D1*
X424701Y4202021D2*
X4299702D1*
X424701Y4192152D2*
X4299702D1*
X424701Y4182284D2*
X4299702D1*
X424701Y4172415D2*
X4299702D1*
X424701Y4162546D2*
X4299702D1*
X424701Y4152677D2*
X4299702D1*
X424701Y4142809D2*
X4299702D1*
X424701Y4132940D2*
X4299702D1*
X424701Y4123071D2*
X4299702D1*
X424701Y4113202D2*
X2131813D1*
X2192582D2*
X2531597D1*
X2592816D2*
X4299702D1*
X424701Y4103334D2*
X2114977D1*
X2209437D2*
X2514860D1*
X2609554D2*
X4299702D1*
X424701Y4093465D2*
X2104488D1*
X2219925D2*
X2504410D1*
X2620004D2*
X4299702D1*
X424701Y4083596D2*
X2097164D1*
X2227250D2*
X2497105D1*
X2627309D2*
X4299702D1*
X424701Y4073727D2*
X2091988D1*
X2232425D2*
X2491949D1*
X2632465D2*
X4299702D1*
X424701Y4063858D2*
X2088512D1*
X2235902D2*
X2488473D1*
X2635941D2*
X4299702D1*
X424701Y4053990D2*
X2086461D1*
X2237933D2*
X2486461D1*
X2637953D2*
X4299702D1*
X424701Y4044121D2*
X2085757D1*
X2238637D2*
X2485757D1*
X2638637D2*
X4299702D1*
X424701Y4034252D2*
X2086364D1*
X2238050D2*
X2486382D1*
X2638032D2*
X4299702D1*
X424701Y4024383D2*
X2088277D1*
X2236117D2*
X2488316D1*
X2636097D2*
X4299702D1*
X424701Y4014515D2*
X2091656D1*
X2232757D2*
X2491696D1*
X2632718D2*
X4299702D1*
X424701Y4004646D2*
X2096676D1*
X2227738D2*
X2496734D1*
X2627680D2*
X4299702D1*
X424701Y3994777D2*
X2103805D1*
X2220609D2*
X2503882D1*
X2620532D2*
X4299702D1*
X424701Y3984908D2*
X2113961D1*
X2210453D2*
X2514078D1*
X2610336D2*
X4299702D1*
X424701Y3975040D2*
X2129996D1*
X2194418D2*
X2530210D1*
X2594202D2*
X4299702D1*
X424701Y3965171D2*
X4299702D1*
X424701Y3955302D2*
X4299702D1*
X424701Y3945433D2*
X4299702D1*
X424701Y3935565D2*
X4299702D1*
X424701Y3925696D2*
X4299702D1*
X424701Y3915827D2*
X4299702D1*
X424701Y3905958D2*
X4299702D1*
X424701Y3896089D2*
X4299702D1*
X424701Y3886221D2*
X2233336D1*
X2291078D2*
X2333336D1*
X2391078D2*
X4299702D1*
X424701Y3876352D2*
X1116421D1*
X1158969D2*
X2222242D1*
X2302172D2*
X2322242D1*
X2402172D2*
X4299702D1*
X424701Y3866483D2*
X1109117D1*
X1166293D2*
X2215757D1*
X2308656D2*
X2315757D1*
X2408656D2*
X4299702D1*
X424701Y3856614D2*
X1106441D1*
X1168969D2*
X2212046D1*
X2412368D2*
X4299702D1*
X424701Y3846746D2*
X1107105D1*
X1168285D2*
X2210465D1*
X2413949D2*
X4299702D1*
X424701Y3836877D2*
X1111382D1*
X1164028D2*
X2210836D1*
X2413578D2*
X4299702D1*
X424701Y3827008D2*
X1122145D1*
X1153246D2*
X2213200D1*
X2411214D2*
X4299702D1*
X424701Y3817139D2*
X2217868D1*
X2306546D2*
X2317868D1*
X2406546D2*
X4299702D1*
X424701Y3807271D2*
X2225757D1*
X2298656D2*
X2325757D1*
X2398656D2*
X4299702D1*
X424701Y3797402D2*
X2240230D1*
X2284184D2*
X2340230D1*
X2384184D2*
X4299702D1*
X424701Y3787533D2*
X4299702D1*
X424701Y3777664D2*
X4299702D1*
X424701Y3767795D2*
X4299702D1*
X424701Y3757927D2*
X4299702D1*
X424701Y3748058D2*
X4299702D1*
X424701Y3738189D2*
X1426696D1*
X1464710D2*
X4299702D1*
X424701Y3728320D2*
X1418042D1*
X1473364D2*
X4299702D1*
X424701Y3718452D2*
X1414684D1*
X1476722D2*
X4299702D1*
X424701Y3708583D2*
X1414742D1*
X1483324D2*
X4299702D1*
X424701Y3698714D2*
X1049429D1*
X1085981D2*
X1418257D1*
X1493188D2*
X4299702D1*
X424701Y3688845D2*
X1040348D1*
X1095062D2*
X1427202D1*
X1503070D2*
X4299702D1*
X424701Y3678977D2*
X1036753D1*
X1098637D2*
X1447925D1*
X1512933D2*
X1785269D1*
X1814125D2*
X4299702D1*
X424701Y3669108D2*
X1036656D1*
X1102133D2*
X1457789D1*
X1522797D2*
X1773785D1*
X1825629D2*
X4299702D1*
X424701Y3659239D2*
X1039957D1*
X1111996D2*
X1467652D1*
X1532660D2*
X1769253D1*
X1830160D2*
X4299702D1*
X424701Y3649370D2*
X902105D1*
X929301D2*
X1048473D1*
X1121860D2*
X1477534D1*
X1542542D2*
X1768394D1*
X1831020D2*
X4299702D1*
X424701Y3639502D2*
X890054D1*
X941352D2*
X1072066D1*
X1131722D2*
X1487398D1*
X1552406D2*
X1770856D1*
X1828538D2*
X4299702D1*
X424701Y3629633D2*
X885348D1*
X946038D2*
X1047652D1*
X1141605D2*
X1497261D1*
X1562269D2*
X1776421D1*
X1822973D2*
X4299702D1*
X424701Y3619764D2*
X884370D1*
X947034D2*
X1040797D1*
X1151469D2*
X1328121D1*
X1367269D2*
X1507125D1*
X1572133D2*
X1776421D1*
X1822973D2*
X4299702D1*
X424701Y3609895D2*
X886696D1*
X944710D2*
X1038374D1*
X1161332D2*
X1319820D1*
X1375589D2*
X1517008D1*
X1582016D2*
X1776421D1*
X1822973D2*
X4299702D1*
X424701Y3600026D2*
X893394D1*
X938012D2*
X1039293D1*
X1171214D2*
X1316617D1*
X1378793D2*
X1526870D1*
X1591878D2*
X1776421D1*
X1822973D2*
X4299702D1*
X424701Y3590158D2*
X1043882D1*
X1181078D2*
X1316813D1*
X1378597D2*
X1536734D1*
X1601742D2*
X1776421D1*
X1822973D2*
X4299702D1*
X424701Y3580289D2*
X1055562D1*
X1190941D2*
X1320504D1*
X1374906D2*
X1546617D1*
X1611625D2*
X1776421D1*
X1822973D2*
X3506188D1*
X4069066D2*
X4299702D1*
X424701Y3570420D2*
X1077145D1*
X1200805D2*
X1329820D1*
X1365589D2*
X1556481D1*
X1621488D2*
X1776421D1*
X1822973D2*
X3493921D1*
X4075141D2*
X4299702D1*
X424701Y3560551D2*
X1087028D1*
X1210688D2*
X1566344D1*
X1631352D2*
X1776421D1*
X1822973D2*
X3484038D1*
X4077093D2*
X4299702D1*
X424701Y3550683D2*
X1096890D1*
X1220550D2*
X1576206D1*
X1641214D2*
X1776421D1*
X1822973D2*
X3474176D1*
X4075726D2*
X4299702D1*
X424701Y3540814D2*
X1106753D1*
X1230414D2*
X1586089D1*
X1651097D2*
X1776421D1*
X1822973D2*
X3464313D1*
X4070532D2*
X4299702D1*
X424701Y3530945D2*
X1116617D1*
X1240297D2*
X1595953D1*
X1660961D2*
X1776421D1*
X1822973D2*
X3456441D1*
X3519457D2*
X4034840D1*
X4056566D2*
X4299702D1*
X424701Y3521076D2*
X1126500D1*
X1250160D2*
X1605816D1*
X1670824D2*
X1776421D1*
X1822973D2*
X3446578D1*
X3509574D2*
X4299702D1*
X424701Y3511208D2*
X1136364D1*
X1260024D2*
X1615700D1*
X1680706D2*
X1776421D1*
X1822973D2*
X3436696D1*
X3499906D2*
X4299702D1*
X424701Y3501339D2*
X1146226D1*
X1269886D2*
X1625562D1*
X1690570D2*
X1776421D1*
X1822973D2*
X3324684D1*
X3340200D2*
X3426832D1*
X3491840D2*
X4299702D1*
X424701Y3491470D2*
X1156109D1*
X1279769D2*
X1635425D1*
X1700433D2*
X1776421D1*
X1822973D2*
X3308356D1*
X3481977D2*
X4299702D1*
X424701Y3481601D2*
X1165973D1*
X1289633D2*
X1645289D1*
X1710297D2*
X1776421D1*
X1822973D2*
X3302692D1*
X3472113D2*
X4299702D1*
X424701Y3471732D2*
X1175836D1*
X1299496D2*
X1655172D1*
X1720180D2*
X1776421D1*
X1822973D2*
X3301050D1*
X3462230D2*
X4299702D1*
X424701Y3461864D2*
X1185700D1*
X1309378D2*
X1665034D1*
X1730042D2*
X1776421D1*
X1822973D2*
X3302672D1*
X3452368D2*
X3624918D1*
X3634503D2*
X3741246D1*
X3766156D2*
X4299702D1*
X424701Y3451995D2*
X1195582D1*
X1319242D2*
X1674898D1*
X1739906D2*
X1776421D1*
X1822973D2*
X3308297D1*
X3441097D2*
X3557222D1*
X3598188D2*
X3606070D1*
X3653344D2*
X3728414D1*
X3778988D2*
X4299702D1*
X424701Y3442126D2*
X1205445D1*
X1329105D2*
X1684781D1*
X1749789D2*
X1776421D1*
X1827777D2*
X3324410D1*
X3340473D2*
X3549449D1*
X3659261D2*
X3723492D1*
X3783910D2*
X4299702D1*
X424701Y3432257D2*
X1215309D1*
X1338969D2*
X1694645D1*
X1759652D2*
X1777105D1*
X1837641D2*
X3546520D1*
X3661097D2*
X3722340D1*
X3785062D2*
X4299702D1*
X424701Y3422389D2*
X1225192D1*
X1348852D2*
X1704508D1*
X1769516D2*
X1782516D1*
X1847524D2*
X3546949D1*
X3659633D2*
X3724488D1*
X3782914D2*
X4299702D1*
X424701Y3412520D2*
X1235054D1*
X1358714D2*
X1714370D1*
X1779378D2*
X1792378D1*
X1857386D2*
X3550933D1*
X3654281D2*
X3724820D1*
X3782582D2*
X4299702D1*
X424701Y3402651D2*
X1244918D1*
X1368578D2*
X1724253D1*
X1789261D2*
X1802242D1*
X1867250D2*
X3556305D1*
X3651097D2*
X3724820D1*
X3782582D2*
X4299702D1*
X424701Y3392782D2*
X1254781D1*
X1378461D2*
X1734117D1*
X1799125D2*
X1812125D1*
X1877133D2*
X3556305D1*
X3651097D2*
X3724820D1*
X3782582D2*
X4299702D1*
X424701Y3382914D2*
X1264664D1*
X1388324D2*
X1743981D1*
X1808988D2*
X1821988D1*
X1886996D2*
X2049000D1*
X2090414D2*
X2944996D1*
X2986410D2*
X3556305D1*
X3651097D2*
X3724820D1*
X3782582D2*
X4299702D1*
X424701Y3373045D2*
X1274528D1*
X1398188D2*
X1753844D1*
X1818870D2*
X1831852D1*
X1896860D2*
X2041364D1*
X2994046D2*
X3556305D1*
X3651097D2*
X3724820D1*
X3782582D2*
X4299702D1*
X424701Y3363176D2*
X1284390D1*
X1408050D2*
X1763726D1*
X1828734D2*
X1841714D1*
X1906722D2*
X2038492D1*
X2996918D2*
X3556305D1*
X3651097D2*
X3724820D1*
X3782582D2*
X4299702D1*
X424701Y3353307D2*
X1294253D1*
X1417933D2*
X1773589D1*
X1838597D2*
X1851597D1*
X1916605D2*
X2039000D1*
X2996410D2*
X3556305D1*
X3651097D2*
X3724820D1*
X3782582D2*
X4299702D1*
X424701Y3343439D2*
X1304137D1*
X1427797D2*
X1783453D1*
X1848461D2*
X1861461D1*
X1926469D2*
X2043062D1*
X2992348D2*
X3556305D1*
X3651097D2*
X3724820D1*
X3782582D2*
X4299702D1*
X424701Y3333570D2*
X1314000D1*
X1437660D2*
X1793336D1*
X1858344D2*
X1871324D1*
X1936332D2*
X2053277D1*
X2086137D2*
X2949273D1*
X2982133D2*
X3556305D1*
X3651097D2*
X3724820D1*
X3782582D2*
X4299702D1*
X424701Y3323701D2*
X1323864D1*
X1447524D2*
X1803200D1*
X1868206D2*
X1881188D1*
X1946214D2*
X3556305D1*
X3651097D2*
X3724820D1*
X3782582D2*
X4299702D1*
X424701Y3313832D2*
X1333746D1*
X1457406D2*
X1813062D1*
X1878070D2*
X1891070D1*
X1956078D2*
X3556305D1*
X3651097D2*
X3724820D1*
X3782582D2*
X4299702D1*
X424701Y3303963D2*
X1343609D1*
X1467269D2*
X1822925D1*
X1887933D2*
X1900933D1*
X1965941D2*
X3556305D1*
X3651097D2*
X3724820D1*
X3782582D2*
X4299702D1*
X424701Y3294095D2*
X1353473D1*
X1477133D2*
X1832809D1*
X1897816D2*
X1910797D1*
X1975805D2*
X3556305D1*
X3651097D2*
X3724820D1*
X3782582D2*
X4299702D1*
X424701Y3284226D2*
X1363336D1*
X1487016D2*
X1842672D1*
X1907680D2*
X1920680D1*
X1985688D2*
X3556305D1*
X3651097D2*
X3724820D1*
X3782582D2*
X4299702D1*
X424701Y3274357D2*
X1373218D1*
X1496878D2*
X1852534D1*
X1917542D2*
X1930542D1*
X1995550D2*
X3556305D1*
X3651097D2*
X3724820D1*
X3782582D2*
X4299702D1*
X424701Y3264488D2*
X1383082D1*
X1506742D2*
X1862418D1*
X1926937D2*
X1940406D1*
X2005414D2*
X3556305D1*
X3660746D2*
X3724820D1*
X3782582D2*
X4299702D1*
X424701Y3254620D2*
X1392945D1*
X1516605D2*
X1872281D1*
X1930785D2*
X1950269D1*
X2015277D2*
X3556538D1*
X3670609D2*
X3724820D1*
X3782582D2*
X4299702D1*
X424701Y3244751D2*
X1402828D1*
X1526488D2*
X1882145D1*
X1930981D2*
X1960152D1*
X2025160D2*
X3560953D1*
X3680492D2*
X3724820D1*
X3782582D2*
X4299702D1*
X424701Y3234882D2*
X1412692D1*
X1536352D2*
X1884429D1*
X1930981D2*
X1970016D1*
X2035024D2*
X3570680D1*
X3687777D2*
X3724820D1*
X3782582D2*
X4299702D1*
X424701Y3225013D2*
X1422554D1*
X1546214D2*
X1884429D1*
X1930981D2*
X1979878D1*
X2044886D2*
X3580562D1*
X3689086D2*
X3724820D1*
X3782582D2*
X4299702D1*
X424701Y3215145D2*
X1432418D1*
X1556097D2*
X1884429D1*
X1930981D2*
X1989761D1*
X2054769D2*
X3590425D1*
X3689086D2*
X3724820D1*
X3782582D2*
X4299702D1*
X424701Y3205276D2*
X1442301D1*
X1565961D2*
X1884429D1*
X1930981D2*
X1999625D1*
X2064633D2*
X3600289D1*
X3689086D2*
X3724820D1*
X3782582D2*
X4299702D1*
X424701Y3195407D2*
X1452164D1*
X1575824D2*
X1884429D1*
X1930981D2*
X2009488D1*
X3689086D2*
X3724820D1*
X3782582D2*
X4299702D1*
X424701Y3185538D2*
X1462028D1*
X1585688D2*
X1884429D1*
X1930981D2*
X2019352D1*
X3689086D2*
X3724820D1*
X3782582D2*
X4299702D1*
X424701Y3175670D2*
X1471910D1*
X1595570D2*
X1884429D1*
X1930981D2*
X2029234D1*
X3689086D2*
X3724820D1*
X3782582D2*
X4299702D1*
X424701Y3165801D2*
X1481773D1*
X1605433D2*
X1884429D1*
X1930981D2*
X1952437D1*
X1962953D2*
X2039176D1*
X3689086D2*
X3724820D1*
X3782582D2*
X4299702D1*
X424701Y3155932D2*
X1491637D1*
X1615297D2*
X1884429D1*
X3689086D2*
X3724820D1*
X3782582D2*
X4299702D1*
X424701Y3146063D2*
X1501500D1*
X1625180D2*
X1884429D1*
X3689086D2*
X3724820D1*
X3782582D2*
X4299702D1*
X424701Y3136194D2*
X1511382D1*
X1635042D2*
X1884429D1*
X3687660D2*
X3724820D1*
X3782582D2*
X4299702D1*
X424701Y3126326D2*
X1521246D1*
X1644906D2*
X1884429D1*
X3680160D2*
X3724820D1*
X3782582D2*
X4299702D1*
X424701Y3116457D2*
X1531109D1*
X1654769D2*
X1884429D1*
X3670297D2*
X3724820D1*
X3782582D2*
X4299702D1*
X424701Y3106588D2*
X1540992D1*
X1664652D2*
X1884429D1*
X1930981D2*
X1947945D1*
X3660414D2*
X3724820D1*
X3782582D2*
X4299702D1*
X424701Y3096719D2*
X1550856D1*
X1674516D2*
X1884429D1*
X1930981D2*
X1960309D1*
X3650550D2*
X3724820D1*
X3782582D2*
X4299702D1*
X424701Y3086851D2*
X1560718D1*
X1684378D2*
X1884429D1*
X1930981D2*
X1962301D1*
X3640688D2*
X3724820D1*
X3782582D2*
X4299702D1*
X424701Y3076982D2*
X1570582D1*
X1694242D2*
X1884429D1*
X1930981D2*
X1968453D1*
X2014945D2*
X3127145D1*
X3782582D2*
X4299702D1*
X424701Y3067113D2*
X1580465D1*
X1704125D2*
X1884429D1*
X1930981D2*
X3119410D1*
X3782582D2*
X4299702D1*
X424701Y3057244D2*
X1590328D1*
X1713988D2*
X1884429D1*
X1930981D2*
X3116500D1*
X3782582D2*
X4299702D1*
X424701Y3047376D2*
X1600192D1*
X1723852D2*
X1884429D1*
X1930981D2*
X3116969D1*
X3782582D2*
X4299702D1*
X424701Y3037507D2*
X1610054D1*
X1733734D2*
X1884429D1*
X1930981D2*
X3120973D1*
X3782582D2*
X4299702D1*
X424701Y3027638D2*
X1619937D1*
X1743597D2*
X1884429D1*
X1930981D2*
X3131050D1*
X3782582D2*
X4299702D1*
X424701Y3017769D2*
X1629801D1*
X1750160D2*
X1884429D1*
X1930981D2*
X3724820D1*
X3782582D2*
X4299702D1*
X424701Y3007900D2*
X1639664D1*
X1751097D2*
X1884429D1*
X1930981D2*
X3724820D1*
X3782582D2*
X4299702D1*
X424701Y2998032D2*
X1649546D1*
X1751097D2*
X1884429D1*
X1930981D2*
X3724820D1*
X3782582D2*
X4299702D1*
X424701Y2988163D2*
X1659410D1*
X1751097D2*
X1884429D1*
X1930981D2*
X3724820D1*
X3782582D2*
X4299702D1*
X424701Y2978294D2*
X1669273D1*
X1751097D2*
X1884429D1*
X1930981D2*
X3724820D1*
X3782582D2*
X4299702D1*
X424701Y2968425D2*
X1124469D1*
X1512757D2*
X1670309D1*
X1751097D2*
X1884429D1*
X1930981D2*
X3724820D1*
X3782582D2*
X4299702D1*
X424701Y2958557D2*
X1118297D1*
X1524672D2*
X1670309D1*
X1751097D2*
X1884429D1*
X1930981D2*
X3724820D1*
X3782582D2*
X4299702D1*
X424701Y2948688D2*
X1116324D1*
X1534554D2*
X1670309D1*
X1751097D2*
X1884429D1*
X1930981D2*
X3724820D1*
X3782582D2*
X4299702D1*
X424701Y2938819D2*
X1117633D1*
X1544418D2*
X1670309D1*
X1751097D2*
X1884429D1*
X1930981D2*
X3724820D1*
X3782582D2*
X4299702D1*
X424701Y2928950D2*
X1122769D1*
X1172621D2*
X1494625D1*
X1554281D2*
X1670309D1*
X1751097D2*
X1884429D1*
X1930981D2*
X3724820D1*
X3782582D2*
X4299702D1*
X424701Y2919082D2*
X1136441D1*
X1158949D2*
X1504488D1*
X1564145D2*
X1670309D1*
X1751097D2*
X1884429D1*
X1930981D2*
X3724820D1*
X3782582D2*
X4299702D1*
X424701Y2909213D2*
X1514352D1*
X1574028D2*
X1670309D1*
X1751097D2*
X1884429D1*
X1930981D2*
X3724820D1*
X3782582D2*
X4299702D1*
X424701Y2899344D2*
X1524234D1*
X1583890D2*
X1670309D1*
X1751097D2*
X1884429D1*
X1930981D2*
X3724820D1*
X3782582D2*
X4299702D1*
X424701Y2889475D2*
X1534097D1*
X1593753D2*
X1670309D1*
X1751097D2*
X1884429D1*
X1930981D2*
X3724820D1*
X3782582D2*
X4299702D1*
X424701Y2879607D2*
X1543961D1*
X1603637D2*
X1670309D1*
X1751097D2*
X1884429D1*
X1930981D2*
X3724820D1*
X3782582D2*
X4299702D1*
X424701Y2869738D2*
X1553824D1*
X1613500D2*
X1670309D1*
X1751097D2*
X1884429D1*
X1930981D2*
X3724820D1*
X3782582D2*
X4299702D1*
X424701Y2859869D2*
X597360D1*
X626038D2*
X1563706D1*
X1623364D2*
X1670309D1*
X1751097D2*
X1884429D1*
X1930981D2*
X3724820D1*
X3782582D2*
X4299702D1*
X424701Y2850000D2*
X575368D1*
X648032D2*
X1573570D1*
X1633226D2*
X1670309D1*
X1751097D2*
X1884429D1*
X1930981D2*
X3724820D1*
X3782582D2*
X4299702D1*
X424701Y2840131D2*
X564605D1*
X658793D2*
X1583433D1*
X1643109D2*
X1670309D1*
X1751097D2*
X1884429D1*
X1930981D2*
X3724820D1*
X3782582D2*
X4299702D1*
X424701Y2830263D2*
X557730D1*
X665668D2*
X1593316D1*
X1652973D2*
X1670309D1*
X1751097D2*
X1763961D1*
X1795316D2*
X1884429D1*
X1930981D2*
X3724820D1*
X3782582D2*
X4299702D1*
X424701Y2820394D2*
X553316D1*
X670082D2*
X1603180D1*
X1806000D2*
X1884429D1*
X1930981D2*
X3724820D1*
X3782582D2*
X4299702D1*
X424701Y2810525D2*
X550836D1*
X672562D2*
X1613042D1*
X1810238D2*
X1884429D1*
X1930981D2*
X3724820D1*
X3782582D2*
X4299702D1*
X424701Y2800656D2*
X550034D1*
X673382D2*
X1622320D1*
X1810882D2*
X1884429D1*
X1930981D2*
X3724820D1*
X3782582D2*
X4299702D1*
X424701Y2790788D2*
X550836D1*
X672562D2*
X1623629D1*
X1808188D2*
X1884429D1*
X1930981D2*
X3724820D1*
X3782582D2*
X4299702D1*
X424701Y2780919D2*
X553336D1*
X670062D2*
X861070D1*
X902328D2*
X1628805D1*
X1800844D2*
X1884429D1*
X1930981D2*
X3724820D1*
X3782582D2*
X4299702D1*
X424701Y2771050D2*
X557750D1*
X671156D2*
X853394D1*
X910004D2*
X1642534D1*
X1664868D2*
X1680542D1*
X1702856D2*
X1717222D1*
X1776878D2*
X1884429D1*
X1930981D2*
X3724820D1*
X3782582D2*
X4299702D1*
X424701Y2761181D2*
X564645D1*
X681020D2*
X850504D1*
X912894D2*
X1707360D1*
X1767016D2*
X1884429D1*
X1930981D2*
X3724820D1*
X3782582D2*
X4299702D1*
X424701Y2751313D2*
X575425D1*
X690902D2*
X850973D1*
X912425D2*
X1697477D1*
X1757152D2*
X1884429D1*
X1930981D2*
X3724820D1*
X3782582D2*
X4299702D1*
X424701Y2741444D2*
X597554D1*
X625844D2*
X641109D1*
X700765D2*
X855016D1*
X908382D2*
X1502534D1*
X1546058D2*
X1687613D1*
X1747269D2*
X1884429D1*
X1930981D2*
X3724820D1*
X3782582D2*
X4299702D1*
X424701Y2731575D2*
X650973D1*
X710629D2*
X865152D1*
X898246D2*
X1495504D1*
X1553070D2*
X1677750D1*
X1737406D2*
X1884429D1*
X1930981D2*
X2958570D1*
X2984828D2*
X3631070D1*
X3644340D2*
X3724820D1*
X3782582D2*
X4299702D1*
X424701Y2721706D2*
X595836D1*
X627582D2*
X660836D1*
X720512D2*
X1492984D1*
X1555589D2*
X1667868D1*
X1727542D2*
X1884429D1*
X1930981D2*
X2946206D1*
X3217816D2*
X3392906D1*
X3661586D2*
X3724820D1*
X3782582D2*
X4299702D1*
X424701Y2711837D2*
X574860D1*
X648538D2*
X670718D1*
X730374D2*
X1493805D1*
X1554769D2*
X1658004D1*
X1717660D2*
X1884429D1*
X1930981D2*
X1987868D1*
X2031528D2*
X2941402D1*
X3228070D2*
X3381324D1*
X3667368D2*
X3724820D1*
X3782582D2*
X4299702D1*
X424701Y2701969D2*
X564293D1*
X659105D2*
X680582D1*
X740238D2*
X1498277D1*
X1550316D2*
X1648141D1*
X1707797D2*
X1884429D1*
X1930981D2*
X1980894D1*
X2038520D2*
X2940348D1*
X3237933D2*
X3371461D1*
X3669105D2*
X3724820D1*
X3782582D2*
X4299702D1*
X424701Y2692100D2*
X557516D1*
X665882D2*
X690445D1*
X750101D2*
X1509586D1*
X1538988D2*
X1638277D1*
X1697933D2*
X1884429D1*
X1930981D2*
X1978394D1*
X2041000D2*
X2942593D1*
X3247797D2*
X3361597D1*
X3667542D2*
X3724820D1*
X3782582D2*
X4299702D1*
X424701Y2682231D2*
X553200D1*
X670200D2*
X700309D1*
X759984D2*
X1628394D1*
X1688070D2*
X1884429D1*
X1930981D2*
X1979234D1*
X2040160D2*
X2949176D1*
X3257680D2*
X3351734D1*
X3662054D2*
X3724820D1*
X3782582D2*
X4299702D1*
X424701Y2672362D2*
X550777D1*
X672641D2*
X710192D1*
X1678188D2*
X1884429D1*
X1930981D2*
X1983726D1*
X2035668D2*
X3202534D1*
X3278481D2*
X3332086D1*
X3406860D2*
X3628746D1*
X3646664D2*
X3724820D1*
X3782582D2*
X4299702D1*
X424701Y2662494D2*
X550034D1*
X673382D2*
X720054D1*
X1668324D2*
X1884429D1*
X1930981D2*
X1995133D1*
X2024261D2*
X3212398D1*
X3287250D2*
X3321364D1*
X3396996D2*
X3724820D1*
X3782582D2*
X4299702D1*
X424701Y2652625D2*
X550894D1*
X672504D2*
X729918D1*
X1658461D2*
X1884429D1*
X1930981D2*
X3222281D1*
X3290706D2*
X3317105D1*
X3387133D2*
X3724820D1*
X3782582D2*
X4299702D1*
X424701Y2642756D2*
X553453D1*
X669945D2*
X739820D1*
X1648558D2*
X1884429D1*
X1930981D2*
X3228706D1*
X3290688D2*
X3316441D1*
X3378949D2*
X3724820D1*
X3782582D2*
X4299702D1*
X424701Y2632887D2*
X557965D1*
X665453D2*
X1884429D1*
X1930981D2*
X2105034D1*
X2146370D2*
X3232164D1*
X3287250D2*
X3319137D1*
X3376273D2*
X3724820D1*
X3782582D2*
X4299702D1*
X424701Y2623019D2*
X564957D1*
X658441D2*
X680562D1*
X1833461D2*
X1884429D1*
X1930981D2*
X2097378D1*
X2638890D2*
X3240953D1*
X3278441D2*
X3326461D1*
X3368949D2*
X3724820D1*
X3782582D2*
X4299702D1*
X424701Y2613150D2*
X575933D1*
X647465D2*
X669937D1*
X1844086D2*
X1884429D1*
X1930981D2*
X2094488D1*
X2648753D2*
X3724820D1*
X3782582D2*
X4299702D1*
X424701Y2603281D2*
X599332D1*
X624066D2*
X660054D1*
X1853949D2*
X1884429D1*
X1930981D2*
X2094996D1*
X2658617D2*
X3724820D1*
X3782582D2*
X4299702D1*
X424701Y2593412D2*
X650192D1*
X1863813D2*
X1884429D1*
X1930981D2*
X2099038D1*
X2668500D2*
X3724820D1*
X3782582D2*
X4299702D1*
X424701Y2583544D2*
X594449D1*
X628969D2*
X640328D1*
X699984D2*
X1710700D1*
X1744710D2*
X1814020D1*
X1873696D2*
X1884429D1*
X1930981D2*
X2109214D1*
X2142192D2*
X2613356D1*
X2678364D2*
X3724820D1*
X3782582D2*
X4299702D1*
X424701Y2573675D2*
X574352D1*
X690121D2*
X906246D1*
X1754574D2*
X1823902D1*
X1930981D2*
X2106910D1*
X2140492D2*
X2623218D1*
X2688226D2*
X3724820D1*
X3782582D2*
X4299702D1*
X424701Y2563806D2*
X563981D1*
X680257D2*
X896188D1*
X1758481D2*
X1833765D1*
X1930981D2*
X2096910D1*
X2622093D2*
X2633101D1*
X2698109D2*
X3724820D1*
X3782582D2*
X4299702D1*
X424701Y2553937D2*
X557320D1*
X670374D2*
X886305D1*
X1758870D2*
X1843629D1*
X1930981D2*
X2092945D1*
X2631977D2*
X2642965D1*
X2707973D2*
X3724820D1*
X3782582D2*
X4299702D1*
X424701Y2544068D2*
X553062D1*
X670336D2*
X876441D1*
X1755864D2*
X1848512D1*
X1930981D2*
X2092516D1*
X2641840D2*
X2652828D1*
X2717836D2*
X3724820D1*
X3782582D2*
X4299702D1*
X424701Y2534200D2*
X550718D1*
X672680D2*
X866578D1*
X926234D2*
X1458374D1*
X1747992D2*
X1851461D1*
X1930981D2*
X2095465D1*
X2651702D2*
X2662692D1*
X2727700D2*
X3724820D1*
X3782582D2*
X4299702D1*
X424701Y2524331D2*
X550034D1*
X673364D2*
X856696D1*
X916370D2*
X1434878D1*
X1722894D2*
X1859253D1*
X1934281D2*
X2103257D1*
X2144145D2*
X2596558D1*
X2661566D2*
X2672574D1*
X2737582D2*
X3724820D1*
X3782582D2*
X4299702D1*
X424701Y2514462D2*
X550973D1*
X672445D2*
X846832D1*
X906508D2*
X1426129D1*
X1732777D2*
X1877008D1*
X1938382D2*
X2606441D1*
X2671449D2*
X2682437D1*
X2747445D2*
X3724820D1*
X3782582D2*
X4299702D1*
X424701Y2504593D2*
X553589D1*
X669809D2*
X836969D1*
X896625D2*
X1422692D1*
X1742641D2*
X1876481D1*
X1938929D2*
X2616305D1*
X2681313D2*
X2692301D1*
X2757309D2*
X3724820D1*
X3782582D2*
X4299702D1*
X424701Y2494725D2*
X558160D1*
X665238D2*
X827105D1*
X886761D2*
X1422710D1*
X1752504D2*
X1879313D1*
X1936097D2*
X2626168D1*
X2691176D2*
X2702164D1*
X2767172D2*
X3724820D1*
X3782582D2*
X4299702D1*
X424701Y2484856D2*
X565289D1*
X658129D2*
X817222D1*
X876898D2*
X1426168D1*
X1762386D2*
X1886870D1*
X1928520D2*
X2636050D1*
X2701058D2*
X2712046D1*
X2777054D2*
X3724820D1*
X3782582D2*
X4299702D1*
X424701Y2474987D2*
X576481D1*
X646937D2*
X807360D1*
X867016D2*
X1419702D1*
X1772250D2*
X1869293D1*
X1898109D2*
X2285816D1*
X2321586D2*
X2645914D1*
X2710921D2*
X2721910D1*
X2786918D2*
X3724820D1*
X3782582D2*
X4299702D1*
X424701Y2465118D2*
X601461D1*
X621937D2*
X797496D1*
X857152D2*
X1415210D1*
X1782113D2*
X1857789D1*
X2330902D2*
X2655777D1*
X2720785D2*
X2731773D1*
X2796781D2*
X3724820D1*
X3782582D2*
X4299702D1*
X424701Y2455250D2*
X787613D1*
X847289D2*
X1414390D1*
X1791977D2*
X1853257D1*
X2334593D2*
X2665641D1*
X2730649D2*
X2741656D1*
X2806664D2*
X3724820D1*
X3782582D2*
X4299702D1*
X424701Y2445381D2*
X593180D1*
X630218D2*
X777750D1*
X837425D2*
X1416910D1*
X1474496D2*
X1602652D1*
X1801860D2*
X1852398D1*
X2334789D2*
X2675524D1*
X2740532D2*
X2751520D1*
X2816528D2*
X3724820D1*
X3782582D2*
X4299702D1*
X424701Y2435512D2*
X573882D1*
X649534D2*
X767886D1*
X827542D2*
X1423921D1*
X1467484D2*
X1598864D1*
X1811722D2*
X1854860D1*
X2331586D2*
X2685386D1*
X2750394D2*
X2761382D1*
X2826390D2*
X3724820D1*
X3782582D2*
X4299702D1*
X424701Y2425643D2*
X563688D1*
X659710D2*
X758024D1*
X817680D2*
X1420816D1*
X1474593D2*
X1598570D1*
X1821586D2*
X1861773D1*
X2325433D2*
X2695250D1*
X2760257D2*
X2771246D1*
X2836253D2*
X3724820D1*
X3782582D2*
X4299702D1*
X424701Y2415774D2*
X557125D1*
X666273D2*
X748141D1*
X807816D2*
X1416910D1*
X1478481D2*
X1601676D1*
X1831469D2*
X1852906D1*
X2333656D2*
X2705133D1*
X2770141D2*
X2781129D1*
X2846137D2*
X3724820D1*
X3782582D2*
X4299702D1*
X424701Y2405906D2*
X552945D1*
X670453D2*
X738277D1*
X797933D2*
X1416538D1*
X1478870D2*
X1609781D1*
X2336801D2*
X2714996D1*
X2780004D2*
X2790992D1*
X2856000D2*
X3724820D1*
X3782582D2*
X4299702D1*
X424701Y2396037D2*
X550660D1*
X672738D2*
X728414D1*
X788070D2*
X1419546D1*
X1475864D2*
X1635542D1*
X2336566D2*
X2724860D1*
X2789868D2*
X2800856D1*
X2865864D2*
X3724820D1*
X3782582D2*
X4299702D1*
X424701Y2386168D2*
X550034D1*
X673364D2*
X718550D1*
X778206D2*
X1427457D1*
X1467953D2*
X1645406D1*
X2332836D2*
X2734722D1*
X2799730D2*
X2810738D1*
X2875746D2*
X3724820D1*
X3782582D2*
X4299702D1*
X424701Y2376299D2*
X551032D1*
X672368D2*
X708668D1*
X768344D2*
X1655269D1*
X2323402D2*
X2744605D1*
X2809613D2*
X2820601D1*
X2885609D2*
X3724820D1*
X3782582D2*
X4299702D1*
X424701Y2366431D2*
X553726D1*
X669672D2*
X698805D1*
X758461D2*
X1665133D1*
X2319184D2*
X2754469D1*
X2819477D2*
X2830465D1*
X2895473D2*
X3724820D1*
X3782582D2*
X4299702D1*
X424701Y2356562D2*
X558374D1*
X665024D2*
X688941D1*
X748597D2*
X1675016D1*
X2330004D2*
X2764332D1*
X2829340D2*
X2840328D1*
X2905336D2*
X3724820D1*
X3782582D2*
X4299702D1*
X424701Y2346693D2*
X565601D1*
X657797D2*
X679058D1*
X738734D2*
X1684878D1*
X2334281D2*
X2774214D1*
X2839222D2*
X2850210D1*
X2915218D2*
X3724820D1*
X3782582D2*
X4299702D1*
X424701Y2336824D2*
X577028D1*
X646390D2*
X669196D1*
X728852D2*
X1694742D1*
X2258402D2*
X2272437D1*
X2334965D2*
X2784078D1*
X2849086D2*
X2860074D1*
X2925082D2*
X3724820D1*
X3782582D2*
X4299702D1*
X424701Y2326956D2*
X604293D1*
X619105D2*
X659332D1*
X718988D2*
X1704605D1*
X2268285D2*
X2275093D1*
X2332309D2*
X2793941D1*
X2858949D2*
X2869937D1*
X2934945D2*
X3724820D1*
X3782582D2*
X4299702D1*
X424701Y2317087D2*
X649469D1*
X709125D2*
X1714488D1*
X2325024D2*
X2803805D1*
X2868813D2*
X2879820D1*
X2944828D2*
X3724820D1*
X3782582D2*
X4299702D1*
X424701Y2307218D2*
X592008D1*
X631410D2*
X639586D1*
X699261D2*
X1724352D1*
X2288012D2*
X2813688D1*
X2878696D2*
X2889684D1*
X2954692D2*
X3724820D1*
X3782582D2*
X4299702D1*
X424701Y2297349D2*
X573394D1*
X689378D2*
X1734214D1*
X2005805D2*
X2169605D1*
X2209809D2*
X2238218D1*
X2297874D2*
X2823550D1*
X2888558D2*
X2899546D1*
X2964554D2*
X3724820D1*
X3782582D2*
X4299702D1*
X424701Y2287481D2*
X563394D1*
X679516D2*
X1744097D1*
X2013793D2*
X2161597D1*
X2217797D2*
X2248082D1*
X2320805D2*
X2833414D1*
X2898421D2*
X2909410D1*
X2974418D2*
X3724820D1*
X3782582D2*
X4299702D1*
X424701Y2277612D2*
X556929D1*
X669652D2*
X1753961D1*
X2016840D2*
X2158550D1*
X2220844D2*
X2257965D1*
X2330609D2*
X2843277D1*
X2908285D2*
X2919293D1*
X2984301D2*
X3724820D1*
X3782582D2*
X4299702D1*
X424701Y2267743D2*
X552828D1*
X670570D2*
X1763824D1*
X2016508D2*
X2158882D1*
X2220512D2*
X2267828D1*
X2334496D2*
X2853160D1*
X2918168D2*
X2929156D1*
X2994164D2*
X3724820D1*
X3782582D2*
X4299702D1*
X424701Y2257874D2*
X550601D1*
X672797D2*
X1773688D1*
X2012660D2*
X2162750D1*
X2216664D2*
X2272534D1*
X2334868D2*
X2863024D1*
X2928032D2*
X2939020D1*
X3004028D2*
X3724820D1*
X3782582D2*
X4299702D1*
X424701Y2248005D2*
X550034D1*
X673364D2*
X1783570D1*
X2002953D2*
X2168316D1*
X2211097D2*
X2275562D1*
X2331840D2*
X2872886D1*
X2937894D2*
X2948902D1*
X3013910D2*
X3724820D1*
X3782582D2*
X4299702D1*
X424701Y2238137D2*
X551089D1*
X672309D2*
X1622613D1*
X1660785D2*
X1793433D1*
X2009105D2*
X2168316D1*
X2211097D2*
X2283492D1*
X2323910D2*
X2882769D1*
X2947777D2*
X2958765D1*
X3023773D2*
X3724820D1*
X3782582D2*
X4299702D1*
X424701Y2228268D2*
X553864D1*
X669534D2*
X1614020D1*
X1669378D2*
X1803297D1*
X2018969D2*
X2168316D1*
X2211097D2*
X2892633D1*
X2957641D2*
X2968629D1*
X3033637D2*
X3724820D1*
X3782582D2*
X4299702D1*
X424701Y2218399D2*
X558609D1*
X664809D2*
X1610660D1*
X1672738D2*
X1813180D1*
X2028832D2*
X2168316D1*
X2211097D2*
X2902496D1*
X2967504D2*
X2978492D1*
X3043500D2*
X3724820D1*
X3782582D2*
X4299702D1*
X424701Y2208530D2*
X565933D1*
X657465D2*
X1610738D1*
X1672660D2*
X1823042D1*
X2038696D2*
X2168316D1*
X2211097D2*
X2912360D1*
X2977368D2*
X2988374D1*
X3053382D2*
X3724820D1*
X3782582D2*
X4299702D1*
X424701Y2198662D2*
X577574D1*
X645824D2*
X1614273D1*
X1669125D2*
X1832906D1*
X2048578D2*
X2168316D1*
X2211097D2*
X2922242D1*
X2987250D2*
X2998238D1*
X3063246D2*
X3724820D1*
X3782582D2*
X4299702D1*
X424701Y2188793D2*
X1623277D1*
X1660121D2*
X1776929D1*
X1818481D2*
X1842769D1*
X2058441D2*
X2168316D1*
X2211097D2*
X2932105D1*
X2997113D2*
X3008101D1*
X3073109D2*
X3724820D1*
X3782582D2*
X4299702D1*
X424701Y2178924D2*
X1769332D1*
X1826078D2*
X1852652D1*
X2068305D2*
X2168316D1*
X2211097D2*
X2941969D1*
X3006977D2*
X3017965D1*
X3082973D2*
X3724820D1*
X3782582D2*
X4299702D1*
X424701Y2169055D2*
X550034D1*
X673382D2*
X874801D1*
X892601D2*
X1766481D1*
X1828910D2*
X1862516D1*
X2078188D2*
X2168316D1*
X2211097D2*
X2247066D1*
X2292328D2*
X2951852D1*
X3016860D2*
X3027848D1*
X3092856D2*
X3724820D1*
X3782582D2*
X4299702D1*
X424701Y2159187D2*
X550034D1*
X673382D2*
X859370D1*
X1828402D2*
X1872378D1*
X2088050D2*
X2168316D1*
X2211097D2*
X2240562D1*
X2298852D2*
X2961714D1*
X3026722D2*
X3037710D1*
X3102718D2*
X3724820D1*
X3782582D2*
X4299702D1*
X424701Y2149318D2*
X550034D1*
X673382D2*
X853864D1*
X1824301D2*
X1882261D1*
X2097914D2*
X2168316D1*
X2211097D2*
X2238336D1*
X2301058D2*
X2971578D1*
X3036586D2*
X3047574D1*
X3112582D2*
X3724820D1*
X3782582D2*
X4299702D1*
X424701Y2139449D2*
X550034D1*
X673382D2*
X852301D1*
X1814028D2*
X1892125D1*
X2107777D2*
X2168316D1*
X2211097D2*
X2239449D1*
X2305785D2*
X2981441D1*
X3046449D2*
X3057457D1*
X3122465D2*
X3724820D1*
X3782582D2*
X4299702D1*
X424701Y2129580D2*
X550034D1*
X673382D2*
X854038D1*
X1791410D2*
X1901988D1*
X2117660D2*
X2168316D1*
X2211097D2*
X2244293D1*
X2315649D2*
X2991324D1*
X3056332D2*
X3067320D1*
X3132328D2*
X3724820D1*
X3782582D2*
X4299702D1*
X424701Y2119711D2*
X550034D1*
X673382D2*
X859801D1*
X1776702D2*
X1911852D1*
X2127524D2*
X2168316D1*
X2211097D2*
X2256832D1*
X2325532D2*
X3001188D1*
X3066196D2*
X3077184D1*
X3142192D2*
X3724820D1*
X3782582D2*
X4299702D1*
X424701Y2109843D2*
X550034D1*
X673382D2*
X876988D1*
X890414D2*
X1921734D1*
X2137386D2*
X2161793D1*
X2217621D2*
X2275718D1*
X2335394D2*
X3011050D1*
X3076058D2*
X3087046D1*
X3152054D2*
X3284742D1*
X3294654D2*
X3724820D1*
X3782582D2*
X4299702D1*
X424701Y2099974D2*
X550034D1*
X673382D2*
X1931597D1*
X2147269D2*
X2158609D1*
X2220805D2*
X2285601D1*
X2345257D2*
X3020933D1*
X3085941D2*
X3096929D1*
X3161937D2*
X3266050D1*
X3313364D2*
X3724820D1*
X3782582D2*
X4299702D1*
X424701Y2090105D2*
X550034D1*
X673382D2*
X1941461D1*
X2220589D2*
X2295465D1*
X2355121D2*
X3030797D1*
X3095805D2*
X3106793D1*
X3171801D2*
X3260133D1*
X3319261D2*
X3724820D1*
X3782582D2*
X4299702D1*
X424701Y2080236D2*
X550034D1*
X673382D2*
X1951344D1*
X2216878D2*
X2305328D1*
X2378656D2*
X3040660D1*
X3105668D2*
X3116656D1*
X3181664D2*
X3258297D1*
X3321097D2*
X3724820D1*
X3782582D2*
X4299702D1*
X424701Y2070368D2*
X550034D1*
X673382D2*
X1961206D1*
X2207504D2*
X2315210D1*
X2387328D2*
X3050524D1*
X3115532D2*
X3126538D1*
X3191546D2*
X3259761D1*
X3319633D2*
X3724820D1*
X3782582D2*
X4299702D1*
X424701Y2060499D2*
X550034D1*
X673382D2*
X1971070D1*
X2186742D2*
X2325074D1*
X2390726D2*
X3060406D1*
X3125414D2*
X3136402D1*
X3201410D2*
X3265133D1*
X3314261D2*
X3724820D1*
X3782582D2*
X4299702D1*
X424701Y2050630D2*
X1980933D1*
X2196605D2*
X2328726D1*
X2390668D2*
X3070269D1*
X3135277D2*
X3146265D1*
X3211273D2*
X3279820D1*
X3299593D2*
X3724820D1*
X3782582D2*
X4299702D1*
X424701Y2040761D2*
X1990816D1*
X2206469D2*
X2332222D1*
X2387172D2*
X3080133D1*
X3145141D2*
X3156129D1*
X3221137D2*
X3724820D1*
X3782582D2*
X4299702D1*
X424701Y2030893D2*
X2000680D1*
X2216332D2*
X2341129D1*
X2378265D2*
X3089996D1*
X3155004D2*
X3166012D1*
X3231020D2*
X3724820D1*
X3782582D2*
X4299702D1*
X424701Y2021024D2*
X2010542D1*
X3164886D2*
X3175874D1*
X3240882D2*
X3724820D1*
X3782582D2*
X4299702D1*
X424701Y2011155D2*
X2020406D1*
X3174750D2*
X3185738D1*
X3250746D2*
X3724820D1*
X3782582D2*
X4299702D1*
X424701Y2001286D2*
X2030289D1*
X3184613D2*
X3195621D1*
X3260629D2*
X3724820D1*
X3782582D2*
X4299702D1*
X424701Y1991418D2*
X2040152D1*
X3194496D2*
X3205484D1*
X3270492D2*
X3724820D1*
X3782582D2*
X4299702D1*
X424701Y1981549D2*
X2050016D1*
X3204360D2*
X3215348D1*
X3280356D2*
X3724820D1*
X3782582D2*
X4299702D1*
X424701Y1971680D2*
X2059898D1*
X3214222D2*
X3225210D1*
X3290218D2*
X3724820D1*
X3782582D2*
X4299702D1*
X424701Y1961811D2*
X1510192D1*
X1549222D2*
X2069761D1*
X3224086D2*
X3235093D1*
X3300101D2*
X3724820D1*
X3782582D2*
X4299702D1*
X424701Y1951942D2*
X1501852D1*
X1557562D2*
X2079625D1*
X3233969D2*
X3244957D1*
X3309965D2*
X3724820D1*
X3782582D2*
X4299702D1*
X424701Y1942074D2*
X1498609D1*
X1560785D2*
X2089488D1*
X3243832D2*
X3254820D1*
X3319828D2*
X3724820D1*
X3782582D2*
X4299702D1*
X424701Y1932205D2*
X1498805D1*
X1565024D2*
X2099370D1*
X3253696D2*
X3264684D1*
X3329710D2*
X3724820D1*
X3782582D2*
X4299702D1*
X424701Y1922336D2*
X1502477D1*
X1574906D2*
X2109234D1*
X3263578D2*
X3274566D1*
X3339574D2*
X3724820D1*
X3782582D2*
X4299702D1*
X424701Y1912467D2*
X860504D1*
X906898D2*
X1511753D1*
X1584769D2*
X2119097D1*
X3273441D2*
X3284429D1*
X3349437D2*
X3724820D1*
X3782582D2*
X4299702D1*
X424701Y1902599D2*
X854313D1*
X913089D2*
X1534977D1*
X1594633D2*
X2128981D1*
X3283305D2*
X3294293D1*
X3359301D2*
X3724820D1*
X3782582D2*
X4299702D1*
X424701Y1892730D2*
X852320D1*
X915082D2*
X1544840D1*
X1604496D2*
X2138844D1*
X3293168D2*
X3304176D1*
X3369184D2*
X3724820D1*
X3782582D2*
X4299702D1*
X424701Y1882861D2*
X853609D1*
X913793D2*
X1554702D1*
X1614378D2*
X2148706D1*
X3303050D2*
X3314038D1*
X3379046D2*
X3724820D1*
X3782582D2*
X4299702D1*
X424701Y1872992D2*
X858746D1*
X908656D2*
X1564586D1*
X1624242D2*
X2955309D1*
X2984086D2*
X3048570D1*
X3312914D2*
X3323902D1*
X3388910D2*
X3724820D1*
X3782582D2*
X4299702D1*
X424701Y1863124D2*
X872340D1*
X895062D2*
X1574449D1*
X2995609D2*
X3058453D1*
X3322777D2*
X3333765D1*
X3398773D2*
X3724820D1*
X3782582D2*
X4299702D1*
X424701Y1853255D2*
X1584313D1*
X3000141D2*
X3068316D1*
X3332660D2*
X3343649D1*
X3408656D2*
X3724820D1*
X3782582D2*
X4299702D1*
X424701Y1843386D2*
X1594176D1*
X3001020D2*
X3078180D1*
X3342524D2*
X3353512D1*
X3418520D2*
X3724820D1*
X3782582D2*
X4299702D1*
X424701Y1833517D2*
X1604058D1*
X2998558D2*
X3088062D1*
X3352386D2*
X3363374D1*
X3428382D2*
X3724820D1*
X3782582D2*
X4299702D1*
X424701Y1823649D2*
X2947769D1*
X2991625D2*
X3097925D1*
X3362250D2*
X3373257D1*
X3438265D2*
X3724820D1*
X3782582D2*
X4299702D1*
X424701Y1813780D2*
X3107789D1*
X3372133D2*
X3383121D1*
X3448129D2*
X3724820D1*
X3782582D2*
X4299702D1*
X424701Y1803911D2*
X3117652D1*
X3381996D2*
X3392984D1*
X3457992D2*
X3724820D1*
X3782582D2*
X4299702D1*
X424701Y1794042D2*
X3127534D1*
X3391860D2*
X3402848D1*
X3467856D2*
X3724820D1*
X3782582D2*
X4299702D1*
X424701Y1784173D2*
X3137398D1*
X3401742D2*
X3412730D1*
X3477738D2*
X3724820D1*
X3782582D2*
X4299702D1*
X424701Y1774305D2*
X3147261D1*
X3411605D2*
X3422593D1*
X3487601D2*
X3724820D1*
X3782582D2*
X4299702D1*
X424701Y1764436D2*
X2878512D1*
X2920882D2*
X3157145D1*
X3421469D2*
X3432457D1*
X3497465D2*
X3724820D1*
X3782582D2*
X4299702D1*
X424701Y1754567D2*
X2871168D1*
X2928246D2*
X3167008D1*
X3431332D2*
X3442340D1*
X3507348D2*
X3724820D1*
X3782582D2*
X4299702D1*
X424701Y1744698D2*
X2868453D1*
X2930961D2*
X3176870D1*
X3441214D2*
X3452202D1*
X3517210D2*
X3724820D1*
X3782582D2*
X4299702D1*
X424701Y1734830D2*
X2370992D1*
X2400414D2*
X2558981D1*
X2588421D2*
X2869097D1*
X2938402D2*
X3186734D1*
X3451078D2*
X3462066D1*
X3527074D2*
X3724820D1*
X3782582D2*
X4299702D1*
X424701Y1724961D2*
X2359684D1*
X2599730D2*
X2873316D1*
X2948265D2*
X3196617D1*
X3460941D2*
X3471929D1*
X3536937D2*
X3724820D1*
X3782582D2*
X4299702D1*
X424701Y1715092D2*
X2355210D1*
X2604184D2*
X2884000D1*
X2958149D2*
X3206481D1*
X3470805D2*
X3481813D1*
X3546820D2*
X3724820D1*
X3782582D2*
X4299702D1*
X424701Y1705223D2*
X2354410D1*
X2605004D2*
X2908356D1*
X2968012D2*
X3216344D1*
X3480688D2*
X3491676D1*
X3556684D2*
X3724820D1*
X3782582D2*
X4299702D1*
X424701Y1695355D2*
X2356929D1*
X2602484D2*
X2918218D1*
X2977874D2*
X3226206D1*
X3490550D2*
X3501538D1*
X3566546D2*
X3724820D1*
X3782582D2*
X4299702D1*
X424701Y1685486D2*
X2363941D1*
X2407445D2*
X2551949D1*
X2595453D2*
X2928082D1*
X3001625D2*
X3228941D1*
X3500414D2*
X3511421D1*
X3576429D2*
X3724820D1*
X3782582D2*
X4299702D1*
X424701Y1675617D2*
X2937945D1*
X3009730D2*
X3232906D1*
X3434496D2*
X3445289D1*
X3510297D2*
X3521285D1*
X3586293D2*
X3724820D1*
X3782582D2*
X4299702D1*
X424701Y1665748D2*
X2947828D1*
X3012836D2*
X3242868D1*
X3276528D2*
X3292868D1*
X3326528D2*
X3339977D1*
X3379418D2*
X3390874D1*
X3424534D2*
X3455152D1*
X3520160D2*
X3531149D1*
X3596156D2*
X3724820D1*
X3782582D2*
X4299702D1*
X424701Y1655879D2*
X2950856D1*
X3012542D2*
X3465016D1*
X3530024D2*
X3541012D1*
X3606020D2*
X3724820D1*
X3782582D2*
X4299702D1*
X424701Y1646011D2*
X2954664D1*
X3008734D2*
X3474878D1*
X3539886D2*
X3550894D1*
X3615902D2*
X3724820D1*
X3782582D2*
X4299702D1*
X424701Y1636142D2*
X2964234D1*
X2999164D2*
X3484761D1*
X3549769D2*
X3560757D1*
X3625765D2*
X3724820D1*
X3782582D2*
X4299702D1*
X424701Y1626273D2*
X3494625D1*
X3559633D2*
X3570621D1*
X3635629D2*
X3724820D1*
X3782582D2*
X4299702D1*
X424701Y1616404D2*
X3504488D1*
X3569496D2*
X3580484D1*
X3645492D2*
X3724820D1*
X3782582D2*
X4299702D1*
X424701Y1606536D2*
X3514370D1*
X3579378D2*
X3590368D1*
X3653149D2*
X3724820D1*
X3782582D2*
X4299702D1*
X424701Y1596667D2*
X3524234D1*
X3589242D2*
X3600230D1*
X3654984D2*
X3724820D1*
X3782582D2*
X4299702D1*
X424701Y1586798D2*
X3492945D1*
X3598012D2*
X3608433D1*
X3654984D2*
X3724820D1*
X3782582D2*
X4299702D1*
X424701Y1576929D2*
X3485328D1*
X3600941D2*
X3608433D1*
X3654984D2*
X3724820D1*
X3782582D2*
X4299702D1*
X424701Y1567061D2*
X3482496D1*
X3544906D2*
X3553844D1*
X3600981D2*
X3608433D1*
X3654984D2*
X3724820D1*
X3782582D2*
X4299702D1*
X424701Y1557192D2*
X3483004D1*
X3544398D2*
X3554429D1*
X3600981D2*
X3608433D1*
X3654984D2*
X3724820D1*
X3782582D2*
X4299702D1*
X424701Y1547323D2*
X2485874D1*
X2501528D2*
X3487086D1*
X3540316D2*
X3554429D1*
X3600981D2*
X3608433D1*
X3654984D2*
X3724820D1*
X3782582D2*
X4299702D1*
X424701Y1537454D2*
X2205465D1*
X2249945D2*
X2339469D1*
X2383929D2*
X2469586D1*
X2517816D2*
X3497360D1*
X3530042D2*
X3554429D1*
X3600981D2*
X3608433D1*
X3654984D2*
X3724820D1*
X3782582D2*
X4299702D1*
X424701Y1527586D2*
X2198726D1*
X2256684D2*
X2332710D1*
X2390688D2*
X2463961D1*
X2523441D2*
X3554429D1*
X3600981D2*
X3608433D1*
X3654984D2*
X3724820D1*
X3782582D2*
X4299702D1*
X424701Y1517717D2*
X2196364D1*
X2259028D2*
X2330368D1*
X2393032D2*
X2462301D1*
X2525101D2*
X3554429D1*
X3600981D2*
X3608433D1*
X3654984D2*
X3724820D1*
X3782582D2*
X4299702D1*
X424701Y1507848D2*
X2197340D1*
X2258070D2*
X2331324D1*
X2392074D2*
X2463941D1*
X2523461D2*
X3554429D1*
X3600981D2*
X3608433D1*
X3654984D2*
X3724820D1*
X3782582D2*
X4299702D1*
X424701Y1497979D2*
X2202008D1*
X2253402D2*
X2335992D1*
X2387406D2*
X2469566D1*
X2517836D2*
X3554429D1*
X3600981D2*
X3608433D1*
X3654984D2*
X3724820D1*
X3782582D2*
X4299702D1*
X424701Y1488110D2*
X2213941D1*
X2241469D2*
X2347945D1*
X2375473D2*
X2485738D1*
X2501664D2*
X3554429D1*
X3600981D2*
X3608433D1*
X3654984D2*
X3724820D1*
X3782582D2*
X4299702D1*
X424701Y1478242D2*
X3554429D1*
X3600981D2*
X3608433D1*
X3654984D2*
X3724820D1*
X3782582D2*
X4299702D1*
X424701Y1468373D2*
X2276402D1*
X2322992D2*
X2340406D1*
X2386996D2*
X2402418D1*
X2448988D2*
X3554429D1*
X3600981D2*
X3608433D1*
X3654984D2*
X3724820D1*
X3782582D2*
X4299702D1*
X424701Y1458504D2*
X2270289D1*
X2329125D2*
X2334293D1*
X2455121D2*
X3554429D1*
X3600981D2*
X3608433D1*
X3654984D2*
X3724820D1*
X3782582D2*
X4299702D1*
X424701Y1448635D2*
X2268316D1*
X2457093D2*
X3554429D1*
X3600981D2*
X3608433D1*
X3654984D2*
X3724820D1*
X3782582D2*
X4299702D1*
X424701Y1438767D2*
X2269645D1*
X2455765D2*
X3554429D1*
X3600981D2*
X3608433D1*
X3654984D2*
X3724820D1*
X3782582D2*
X4299702D1*
X424701Y1428898D2*
X2274820D1*
X2324593D2*
X2338805D1*
X2388597D2*
X2400816D1*
X2450589D2*
X3554429D1*
X3600981D2*
X3608433D1*
X3654984D2*
X3724820D1*
X3782582D2*
X4299702D1*
X424701Y1419029D2*
X2288589D1*
X2310805D2*
X2352593D1*
X2374809D2*
X2414605D1*
X2436801D2*
X3554429D1*
X3600981D2*
X3608433D1*
X3654984D2*
X3724820D1*
X3782582D2*
X4299702D1*
X424701Y1409160D2*
X3554429D1*
X3600981D2*
X3608433D1*
X3654984D2*
X3724820D1*
X3782582D2*
X4299702D1*
X424701Y1399292D2*
X3554429D1*
X3600981D2*
X3608433D1*
X3654984D2*
X3724820D1*
X3782582D2*
X4299702D1*
X424701Y1389423D2*
X3554429D1*
X3600981D2*
X3608433D1*
X3654984D2*
X3724820D1*
X3782582D2*
X4299702D1*
X424701Y1379554D2*
X2219860D1*
X2259554D2*
X2482965D1*
X2496449D2*
X3554429D1*
X3600981D2*
X3608433D1*
X3654984D2*
X3724820D1*
X3782582D2*
X4299702D1*
X424701Y1369685D2*
X2211714D1*
X2267700D2*
X2465797D1*
X2513617D2*
X3554429D1*
X3600981D2*
X3608433D1*
X3654984D2*
X3724820D1*
X3782582D2*
X4299702D1*
X424701Y1359816D2*
X2208589D1*
X2270824D2*
X2460034D1*
X2519360D2*
X3554429D1*
X3600981D2*
X3608433D1*
X3654984D2*
X3724820D1*
X3782582D2*
X4299702D1*
X424701Y1349948D2*
X2208844D1*
X2270550D2*
X2458297D1*
X2521097D2*
X3554429D1*
X3600981D2*
X3608433D1*
X3654984D2*
X3724820D1*
X3782582D2*
X4299702D1*
X424701Y1340079D2*
X2212613D1*
X2266781D2*
X2459860D1*
X2519534D2*
X3554429D1*
X3600981D2*
X3608433D1*
X3654984D2*
X3724820D1*
X3782582D2*
X4299702D1*
X424701Y1330210D2*
X2222145D1*
X2257269D2*
X2465368D1*
X2514028D2*
X3554429D1*
X3600981D2*
X3608433D1*
X3654984D2*
X3724820D1*
X3782582D2*
X4299702D1*
X424701Y1320341D2*
X2480816D1*
X2498578D2*
X3554429D1*
X3600981D2*
X3608433D1*
X3654984D2*
X3724820D1*
X3782582D2*
X4299702D1*
X424701Y1310473D2*
X3554429D1*
X3600981D2*
X3608433D1*
X3654984D2*
X3724820D1*
X3782582D2*
X4299702D1*
X424701Y1300604D2*
X3554429D1*
X3600981D2*
X3608433D1*
X3654984D2*
X3724820D1*
X3782582D2*
X4299702D1*
X424701Y1290735D2*
X3554429D1*
X3600981D2*
X3608433D1*
X3654984D2*
X3724820D1*
X3782582D2*
X4299702D1*
X424701Y1280866D2*
X3554429D1*
X3600981D2*
X3608433D1*
X3654984D2*
X3724820D1*
X3782582D2*
X4299702D1*
X424701Y1270998D2*
X3554429D1*
X3600981D2*
X3608433D1*
X3654984D2*
X3724820D1*
X3782582D2*
X4299702D1*
X424701Y1261129D2*
X3554429D1*
X3600981D2*
X3608433D1*
X3654984D2*
X3724820D1*
X3782582D2*
X4299702D1*
X424701Y1251260D2*
X3554429D1*
X3600981D2*
X3608433D1*
X3654984D2*
X3724820D1*
X3782582D2*
X4299702D1*
X424701Y1241391D2*
X3554429D1*
X3600981D2*
X3608433D1*
X3654984D2*
X3724820D1*
X3782582D2*
X4299702D1*
X424701Y1231523D2*
X3554429D1*
X3600981D2*
X3608433D1*
X3654984D2*
X3724820D1*
X3782582D2*
X4299702D1*
X424701Y1221654D2*
X3554429D1*
X3600981D2*
X3608433D1*
X3654984D2*
X3724820D1*
X3782582D2*
X4299702D1*
X424701Y1211785D2*
X3554429D1*
X3600981D2*
X3608433D1*
X3654984D2*
X3724820D1*
X3782582D2*
X4299702D1*
X424701Y1201916D2*
X3554429D1*
X3600981D2*
X3608433D1*
X3654984D2*
X3724820D1*
X3782582D2*
X4299702D1*
X424701Y1192047D2*
X3554429D1*
X3600981D2*
X3608433D1*
X3654984D2*
X3724820D1*
X3782582D2*
X4299702D1*
X424701Y1182179D2*
X3554429D1*
X3600981D2*
X3608433D1*
X3654984D2*
X3724820D1*
X3782582D2*
X4299702D1*
X424701Y1172310D2*
X3554429D1*
X3600981D2*
X3608433D1*
X3654984D2*
X3724820D1*
X3782582D2*
X4299702D1*
X424701Y1162441D2*
X3554429D1*
X3600981D2*
X3608433D1*
X3654984D2*
X3724820D1*
X3782582D2*
X4299702D1*
X424701Y1152572D2*
X3554429D1*
X3600981D2*
X3608433D1*
X3654984D2*
X3724820D1*
X3782582D2*
X4299702D1*
X424701Y1142704D2*
X3554429D1*
X3600981D2*
X3608433D1*
X3654984D2*
X3724820D1*
X3782582D2*
X4299702D1*
X424701Y1132835D2*
X3554429D1*
X3600981D2*
X3608433D1*
X3654984D2*
X3724820D1*
X3782582D2*
X4299702D1*
X424701Y1122966D2*
X3554429D1*
X3600981D2*
X3608433D1*
X3654984D2*
X3724820D1*
X3782582D2*
X4299702D1*
X424701Y1113097D2*
X3554429D1*
X3600981D2*
X3608433D1*
X3654984D2*
X3724820D1*
X3782582D2*
X4299702D1*
X424701Y1103229D2*
X3554429D1*
X3600981D2*
X3608433D1*
X3654984D2*
X3724820D1*
X3782582D2*
X4299702D1*
X424701Y1093360D2*
X3554429D1*
X3600981D2*
X3608433D1*
X3654984D2*
X3724820D1*
X3782582D2*
X4299702D1*
X424701Y1083491D2*
X3554429D1*
X3600981D2*
X3608433D1*
X3654984D2*
X3724820D1*
X3782582D2*
X4299702D1*
X424701Y1073622D2*
X3554429D1*
X3600981D2*
X3608433D1*
X3654984D2*
X3724820D1*
X3782582D2*
X4299702D1*
X424701Y1063753D2*
X3554429D1*
X3600981D2*
X3608433D1*
X3654984D2*
X3724820D1*
X3782582D2*
X4299702D1*
X424701Y1053885D2*
X3554429D1*
X3600981D2*
X3608433D1*
X3654984D2*
X3724820D1*
X3782582D2*
X4299702D1*
X424701Y1044016D2*
X3551050D1*
X3659516D2*
X3724820D1*
X3782582D2*
X4299702D1*
X424701Y1034147D2*
X3546988D1*
X3662777D2*
X3724820D1*
X3782582D2*
X4299702D1*
X424701Y1024278D2*
X3546500D1*
X3662621D2*
X3724820D1*
X3782582D2*
X4299702D1*
X424701Y1014410D2*
X3549352D1*
X3658969D2*
X3724820D1*
X3782582D2*
X4299702D1*
X424701Y1004541D2*
X3557008D1*
X3598402D2*
X3613649D1*
X3649769D2*
X3724820D1*
X3782582D2*
X4299702D1*
X424701Y994672D2*
X3724820D1*
X3782582D2*
X4299702D1*
X424701Y984803D2*
X3724820D1*
X3782582D2*
X4299702D1*
X424701Y974935D2*
X3724820D1*
X3782582D2*
X4299702D1*
X424701Y965066D2*
X3720621D1*
X3782582D2*
X4299702D1*
X424701Y955197D2*
X3710757D1*
X3782484D2*
X4299702D1*
X424701Y945328D2*
X3700894D1*
X3779692D2*
X4299702D1*
X424701Y935460D2*
X3691032D1*
X3771898D2*
X4299702D1*
X424701Y925591D2*
X3681149D1*
X3762034D2*
X4299702D1*
X424701Y915722D2*
X2379293D1*
X3752152D2*
X4299702D1*
X424701Y905853D2*
X2369410D1*
X3742289D2*
X4299702D1*
X424701Y895984D2*
X2359546D1*
X3732425D2*
X4299702D1*
X424701Y886116D2*
X2349684D1*
X3722562D2*
X4299702D1*
X424701Y876247D2*
X2339937D1*
X3712524D2*
X4299702D1*
X424701Y866378D2*
X2334546D1*
X2410824D2*
X4299702D1*
X424701Y856509D2*
X2333316D1*
X2400941D2*
X4299702D1*
X424701Y846641D2*
X2333316D1*
X2391097D2*
X4299702D1*
X424701Y836772D2*
X2333316D1*
X2391097D2*
X4299702D1*
X424701Y826903D2*
X2255933D1*
X2268481D2*
X2333316D1*
X2391097D2*
X2415797D1*
X2508597D2*
X4299702D1*
X424701Y817034D2*
X961461D1*
X1007054D2*
X2232554D1*
X2291840D2*
X2332554D1*
X2391840D2*
X2415797D1*
X2508597D2*
X4299702D1*
X424701Y807166D2*
X944702D1*
X1023813D2*
X2223550D1*
X2300864D2*
X2323550D1*
X2400864D2*
X2415797D1*
X2508597D2*
X4299702D1*
X424701Y797297D2*
X935269D1*
X1033246D2*
X2218532D1*
X2305882D2*
X2318532D1*
X2405882D2*
X2415797D1*
X2508597D2*
X4299702D1*
X424701Y787428D2*
X929176D1*
X1039340D2*
X2216149D1*
X2308265D2*
X2316149D1*
X2408265D2*
X2415797D1*
X2508597D2*
X4299702D1*
X424701Y777559D2*
X925368D1*
X1043149D2*
X2216012D1*
X2308402D2*
X2316012D1*
X2408402D2*
X2415797D1*
X2508597D2*
X4299702D1*
X424701Y767691D2*
X923394D1*
X1045121D2*
X2218062D1*
X2306352D2*
X2318062D1*
X2406352D2*
X2415797D1*
X2508597D2*
X4299702D1*
X424701Y757822D2*
X923082D1*
X1045433D2*
X2222652D1*
X2301742D2*
X2322652D1*
X2401742D2*
X2415797D1*
X2508597D2*
X4299702D1*
X424701Y747953D2*
X924410D1*
X1044105D2*
X2230953D1*
X2293441D2*
X2330953D1*
X2393441D2*
X2415797D1*
X2508597D2*
X4299702D1*
X424701Y738084D2*
X927477D1*
X1041020D2*
X2249000D1*
X2275414D2*
X2349000D1*
X2375414D2*
X2415797D1*
X2508597D2*
X4299702D1*
X424701Y728215D2*
X932613D1*
X1035882D2*
X4299702D1*
X424701Y718347D2*
X940562D1*
X1027933D2*
X4299702D1*
X424701Y708478D2*
X953492D1*
X1015004D2*
X4299702D1*
X424701Y698609D2*
X4299702D1*
X424701Y688740D2*
X4299702D1*
X424701Y678872D2*
X4299702D1*
X424701Y669003D2*
X4299702D1*
X424701Y659134D2*
X4299702D1*
X424701Y649265D2*
X4299702D1*
X424701Y639397D2*
X960269D1*
X1008226D2*
X4299702D1*
X424701Y629528D2*
X944137D1*
X1024360D2*
X4299702D1*
X424701Y619659D2*
X934918D1*
X1033597D2*
X4299702D1*
X424701Y609790D2*
X928941D1*
X1039554D2*
X4299702D1*
X424701Y599921D2*
X925230D1*
X1043285D2*
X4299702D1*
X424701Y590053D2*
X923336D1*
X1045160D2*
X4299702D1*
X424701Y580184D2*
X923101D1*
X1045394D2*
X3632145D1*
X3674945D2*
X3805368D1*
X3848168D2*
X4299702D1*
X424701Y570315D2*
X924508D1*
X1043988D2*
X3623024D1*
X3684066D2*
X3796246D1*
X3857289D2*
X4299702D1*
X424701Y560446D2*
X927672D1*
X1040824D2*
X3618882D1*
X3688206D2*
X3792125D1*
X3861429D2*
X4299702D1*
X424701Y550578D2*
X932925D1*
X1035570D2*
X3617925D1*
X3689164D2*
X3791149D1*
X3862386D2*
X4299702D1*
X424701Y540709D2*
X941050D1*
X1027465D2*
X3619840D1*
X3687250D2*
X3793062D1*
X3860473D2*
X4299702D1*
X424701Y530840D2*
X954352D1*
X1014164D2*
X3625230D1*
X3681860D2*
X3798453D1*
X3855101D2*
X4299702D1*
X424701Y520971D2*
X3637437D1*
X3669652D2*
X3810660D1*
X3842874D2*
X4299702D1*
X424701Y511103D2*
X4299702D1*
X424701Y501234D2*
X4299702D1*
X424701Y491365D2*
X4299702D1*
X424701Y481496D2*
X4299702D1*
X424701Y471628D2*
X4299702D1*
X424701Y461759D2*
X4299702D1*
X424701Y451890D2*
X4299702D1*
X424701Y442021D2*
X4299702D1*
X424701Y432152D2*
X4299702D1*
X3688096Y549446D2*
X3687244Y544075D1*
X3685565Y538902D1*
X3683095Y534057D1*
X3679898Y529656D1*
X3676053Y525811D1*
X3671652Y522614D1*
X3666807Y520145D1*
X3661634Y518465D1*
X3656263Y517613D1*
X3650824D1*
X3645453Y518465D1*
X3640280Y520145D1*
X3635435Y522614D1*
X3631034Y525811D1*
X3627189Y529656D1*
X3623992Y534057D1*
X3621523Y538902D1*
X3619843Y544075D1*
X3618991Y549446D1*
Y554885D1*
X3619843Y560256D1*
X3621523Y565429D1*
X3623992Y570274D1*
X3627189Y574675D1*
X3631034Y578520D1*
X3635435Y581717D1*
X3640280Y584187D1*
X3645453Y585866D1*
X3650824Y586718D1*
X3656263D1*
X3661634Y585866D1*
X3666807Y584187D1*
X3671652Y581717D1*
X3676053Y578520D1*
X3679898Y574675D1*
X3683095Y570274D1*
X3685565Y565429D1*
X3687244Y560256D1*
X3688096Y554885D1*
Y549446D1*
X3861324D2*
X3860473Y544075D1*
X3858793Y538902D1*
X3856323Y534057D1*
X3853126Y529656D1*
X3849281Y525811D1*
X3844881Y522614D1*
X3840036Y520145D1*
X3834862Y518465D1*
X3829491Y517613D1*
X3824053D1*
X3818681Y518465D1*
X3813508Y520145D1*
X3808663Y522614D1*
X3804263Y525811D1*
X3800418Y529656D1*
X3797221Y534057D1*
X3794751Y538902D1*
X3793071Y544075D1*
X3792219Y549446D1*
Y554885D1*
X3793071Y560256D1*
X3794751Y565429D1*
X3797221Y570274D1*
X3800418Y574675D1*
X3804263Y578520D1*
X3808663Y581717D1*
X3813508Y584187D1*
X3818681Y585866D1*
X3824053Y586718D1*
X3829491D1*
X3834862Y585866D1*
X3840036Y584187D1*
X3844881Y581717D1*
X3849281Y578520D1*
X3853126Y574675D1*
X3856323Y570274D1*
X3858793Y565429D1*
X3860473Y560256D1*
X3861324Y554885D1*
Y549446D1*
X1044315Y578974D2*
X1043760Y574276D1*
X1042837Y569637D1*
X1041553Y565083D1*
X1039915Y560645D1*
X1037935Y556348D1*
X1035624Y552221D1*
X1032995Y548288D1*
X1030066Y544572D1*
X1026855Y541099D1*
X1023381Y537887D1*
X1019666Y534958D1*
X1015732Y532330D1*
X1011605Y530019D1*
X1007309Y528038D1*
X1002870Y526400D1*
X998316Y525116D1*
X993677Y524193D1*
X988979Y523638D1*
X984252Y523452D1*
X979525Y523638D1*
X974827Y524193D1*
X970188Y525116D1*
X965634Y526400D1*
X961196Y528038D1*
X956899Y530019D1*
X952772Y532330D1*
X948839Y534958D1*
X945124Y537887D1*
X941650Y541099D1*
X938439Y544572D1*
X935509Y548288D1*
X932881Y552221D1*
X930570Y556348D1*
X928589Y560645D1*
X926952Y565083D1*
X925667Y569637D1*
X924744Y574276D1*
X924189Y578974D1*
X924003Y583701D1*
X924189Y588428D1*
X924744Y593126D1*
X925667Y597765D1*
X926952Y602319D1*
X928589Y606757D1*
X930570Y611054D1*
X932881Y615181D1*
X935509Y619114D1*
X938439Y622830D1*
X941650Y626303D1*
X945124Y629515D1*
X948839Y632444D1*
X952772Y635072D1*
X956899Y637383D1*
X961196Y639364D1*
X965634Y641002D1*
X970188Y642286D1*
X974827Y643209D1*
X979525Y643764D1*
X984252Y643950D1*
X988979Y643764D1*
X993677Y643209D1*
X998316Y642286D1*
X1002870Y641002D1*
X1007309Y639364D1*
X1011605Y637383D1*
X1015732Y635072D1*
X1019666Y632444D1*
X1023381Y629515D1*
X1026855Y626303D1*
X1030066Y622830D1*
X1032995Y619114D1*
X1035624Y615181D1*
X1037935Y611054D1*
X1039915Y606757D1*
X1041553Y602319D1*
X1042837Y597765D1*
X1043760Y593126D1*
X1044315Y588428D1*
X1044502Y583701D1*
X1044315Y578974D1*
Y756139D2*
X1043760Y751441D1*
X1042837Y746802D1*
X1041553Y742248D1*
X1039915Y737810D1*
X1037935Y733513D1*
X1035624Y729386D1*
X1032995Y725453D1*
X1030066Y721738D1*
X1026855Y718264D1*
X1023381Y715053D1*
X1019666Y712124D1*
X1015732Y709495D1*
X1011605Y707184D1*
X1007309Y705204D1*
X1002870Y703566D1*
X998316Y702281D1*
X993677Y701358D1*
X988979Y700803D1*
X984252Y700617D1*
X979525Y700803D1*
X974827Y701358D1*
X970188Y702281D1*
X965634Y703566D1*
X961196Y705204D1*
X956899Y707184D1*
X952772Y709495D1*
X948839Y712124D1*
X945124Y715053D1*
X941650Y718264D1*
X938439Y721738D1*
X935509Y725453D1*
X932881Y729386D1*
X930570Y733513D1*
X928589Y737810D1*
X926952Y742248D1*
X925667Y746802D1*
X924744Y751441D1*
X924189Y756139D1*
X924003Y760866D1*
X924189Y765593D1*
X924744Y770292D1*
X925667Y774931D1*
X926952Y779484D1*
X928589Y783923D1*
X930570Y788219D1*
X932881Y792347D1*
X935509Y796280D1*
X938439Y799995D1*
X941650Y803469D1*
X945124Y806680D1*
X948839Y809609D1*
X952772Y812238D1*
X956899Y814549D1*
X961196Y816529D1*
X965634Y818167D1*
X970188Y819452D1*
X974827Y820374D1*
X979525Y820929D1*
X984252Y821116D1*
X988979Y820929D1*
X993677Y820374D1*
X998316Y819452D1*
X1002870Y818167D1*
X1007309Y816529D1*
X1011605Y814549D1*
X1015732Y812238D1*
X1019666Y809609D1*
X1023381Y806680D1*
X1026855Y803469D1*
X1030066Y799995D1*
X1032995Y796280D1*
X1035624Y792347D1*
X1037935Y788219D1*
X1039915Y783923D1*
X1041553Y779484D1*
X1042837Y774931D1*
X1043760Y770292D1*
X1044315Y765593D1*
X1044502Y760866D1*
X1044315Y756139D1*
X2421805Y827211D2*
X2507605D1*
Y736411D1*
X2416805D1*
Y827211D1*
X2421805D1*
X2407465Y778250D2*
X2407046Y774709D1*
X2406351Y771213D1*
X2405383Y767782D1*
X2404149Y764437D1*
X2402656Y761200D1*
X2400915Y758089D1*
X2398935Y755126D1*
X2396727Y752326D1*
X2394307Y749709D1*
X2391691Y747289D1*
X2388890Y745082D1*
X2385927Y743101D1*
X2382816Y741360D1*
X2379579Y739868D1*
X2376234Y738633D1*
X2372803Y737666D1*
X2369307Y736970D1*
X2365767Y736551D1*
X2362205Y736411D1*
X2358643Y736551D1*
X2355103Y736970D1*
X2351607Y737666D1*
X2348176Y738633D1*
X2344831Y739868D1*
X2341593Y741360D1*
X2338483Y743101D1*
X2335520Y745082D1*
X2332719Y747289D1*
X2330103Y749709D1*
X2327683Y752326D1*
X2325475Y755126D1*
X2323495Y758089D1*
X2321753Y761200D1*
X2320261Y764437D1*
X2319026Y767782D1*
X2318059Y771213D1*
X2317364Y774709D1*
X2316945Y778250D1*
X2316805Y781811D1*
X2316945Y785373D1*
X2317364Y788914D1*
X2318059Y792410D1*
X2319026Y795840D1*
X2320261Y799185D1*
X2321753Y802423D1*
X2323495Y805533D1*
X2325475Y808496D1*
X2327683Y811297D1*
X2330103Y813914D1*
X2334327Y817601D1*
X2334391Y860394D1*
X2335076Y864718D1*
X2336428Y868882D1*
X2338416Y872782D1*
X2340990Y876324D1*
X2346012Y881469D1*
X2383582Y918916D1*
X2387124Y921490D1*
X2391024Y923478D1*
X2395188Y924830D1*
X2399512Y925515D1*
X2406701Y925601D1*
X3682150D1*
X3725805Y969261D1*
X3725801Y3025806D1*
X3555790Y3025801D1*
X3550798Y3024141D1*
X3546086Y3023395D1*
X3541316D1*
X3536604Y3024141D1*
X3532067Y3025616D1*
X3531635Y3025814D1*
X3159776Y3025801D1*
X3157095Y3024789D1*
X3152457Y3023675D1*
X3147701Y3023301D1*
X3142945Y3023675D1*
X3138307Y3024789D1*
X3133899Y3026614D1*
X3129832Y3029107D1*
X3126205Y3032205D1*
X3123107Y3035832D1*
X3120614Y3039899D1*
X3118789Y3044307D1*
X3117675Y3048945D1*
X3117301Y3053701D1*
X3117675Y3058457D1*
X3118789Y3063095D1*
X3120614Y3067503D1*
X3123107Y3071570D1*
X3126205Y3075197D1*
X3128595Y3077319D1*
X2014221Y3077301D1*
X2011444Y3074584D1*
X2007586Y3071781D1*
X2003335Y3069616D1*
X1998798Y3068141D1*
X1994086Y3067395D1*
X1989316D1*
X1984604Y3068141D1*
X1980067Y3069616D1*
X1975816Y3071781D1*
X1971958Y3074584D1*
X1968584Y3077958D1*
X1965781Y3081816D1*
X1963616Y3086067D1*
X1962141Y3090604D1*
X1961395Y3095316D1*
Y3100086D1*
X1962141Y3104798D1*
X1962386Y3105668D1*
X1957701Y3105301D1*
X1952945Y3105675D1*
X1948307Y3106789D1*
X1943899Y3108614D1*
X1939832Y3111107D1*
X1936205Y3114205D1*
X1933107Y3117832D1*
X1930614Y3121899D1*
X1929978Y3123280D1*
X1929991Y2528596D1*
X1932295Y2525774D1*
X1934788Y2521708D1*
X1936613Y2517299D1*
X1937727Y2512662D1*
X1938101Y2507906D1*
X1937727Y2503150D1*
X1936613Y2498512D1*
X1934788Y2494104D1*
X1932295Y2490037D1*
X1929197Y2486410D1*
X1925570Y2483311D1*
X1921503Y2480819D1*
X1917095Y2478994D1*
X1912457Y2477879D1*
X1907701Y2477505D1*
X1902945Y2477879D1*
X1898307Y2478994D1*
X1893899Y2480819D1*
X1889832Y2483311D1*
X1886205Y2486410D1*
X1883107Y2490037D1*
X1880614Y2494104D1*
X1878789Y2498512D1*
X1877675Y2503150D1*
X1877301Y2507906D1*
X1877675Y2512662D1*
X1878792Y2517309D1*
X1874945Y2517675D1*
X1870307Y2518789D1*
X1865899Y2520614D1*
X1861832Y2523107D1*
X1858205Y2526205D1*
X1855107Y2529832D1*
X1852614Y2533899D1*
X1850789Y2538307D1*
X1849675Y2542945D1*
X1849301Y2547701D1*
X1849360Y2549201D1*
X1813251Y2585301D1*
X1740432D1*
X1743586Y2583621D1*
X1747444Y2580818D1*
X1750818Y2577444D1*
X1753621Y2573586D1*
X1755786Y2569335D1*
X1757261Y2564798D1*
X1758007Y2560086D1*
Y2555316D1*
X1757261Y2550604D1*
X1755786Y2546067D1*
X1753621Y2541816D1*
X1750818Y2537958D1*
X1747444Y2534584D1*
X1743586Y2531781D1*
X1739335Y2529616D1*
X1734798Y2528141D1*
X1730086Y2527395D1*
X1725316D1*
X1720604Y2528141D1*
X1716933Y2529295D1*
X1842622Y2403630D1*
X1845107Y2407664D1*
X1848205Y2411292D1*
X1851832Y2414390D1*
X1855899Y2416882D1*
X1860307Y2418708D1*
X1864945Y2419822D1*
X1869701Y2420196D1*
X1870847Y2420150D1*
X1867816Y2421781D1*
X1863958Y2424584D1*
X1860584Y2427958D1*
X1857781Y2431816D1*
X1855616Y2436067D1*
X1854141Y2440604D1*
X1853395Y2445316D1*
Y2450086D1*
X1854141Y2454798D1*
X1855616Y2459335D1*
X1857781Y2463586D1*
X1860584Y2467444D1*
X1863958Y2470818D1*
X1867816Y2473621D1*
X1872067Y2475786D1*
X1876604Y2477261D1*
X1881316Y2478007D1*
X1886086D1*
X1890798Y2477261D1*
X1895335Y2475786D1*
X1899586Y2473621D1*
X1903444Y2470818D1*
X1904231Y2470089D1*
X2281181Y2470101D1*
X2283958Y2472818D1*
X2287816Y2475621D1*
X2292067Y2477786D1*
X2296604Y2479261D1*
X2301316Y2480007D1*
X2306086D1*
X2310798Y2479261D1*
X2315335Y2477786D1*
X2319586Y2475621D1*
X2323444Y2472818D1*
X2326818Y2469444D1*
X2329621Y2465586D1*
X2331786Y2461335D1*
X2333261Y2456798D1*
X2334007Y2452086D1*
Y2447316D1*
X2333261Y2442604D1*
X2331786Y2438067D1*
X2329621Y2433816D1*
X2326818Y2429958D1*
X2323305Y2426475D1*
X2325444Y2424818D1*
X2328818Y2421444D1*
X2331621Y2417586D1*
X2333786Y2413335D1*
X2335261Y2408798D1*
X2336007Y2404086D1*
Y2399316D1*
X2335261Y2394604D1*
X2333786Y2390067D1*
X2331621Y2385816D1*
X2328818Y2381958D1*
X2325444Y2378584D1*
X2321586Y2375781D1*
X2317335Y2373616D1*
X2312798Y2372141D1*
X2308086Y2371395D1*
X2303316D1*
X2302714Y2371466D1*
X2301373Y2370864D1*
X2302200Y2370051D1*
X2306086Y2370007D1*
X2310798Y2369261D1*
X2315335Y2367786D1*
X2319586Y2365621D1*
X2323444Y2362818D1*
X2326818Y2359444D1*
X2329621Y2355586D1*
X2331786Y2351335D1*
X2333261Y2346798D1*
X2334007Y2342086D1*
Y2337316D1*
X2333261Y2332604D1*
X2331786Y2328067D1*
X2329621Y2323816D1*
X2326818Y2319958D1*
X2323444Y2316584D1*
X2319586Y2313781D1*
X2315335Y2311616D1*
X2310798Y2310141D1*
X2306086Y2309395D1*
X2301316D1*
X2296604Y2310141D1*
X2292067Y2311616D1*
X2287816Y2313781D1*
X2283958Y2316584D1*
X2280584Y2319958D1*
X2277781Y2323816D1*
X2275616Y2328067D1*
X2274141Y2332604D1*
X2273395Y2337316D1*
X2273316Y2339319D1*
X2254950Y2339213D1*
X2263197Y2331055D1*
X2302185Y2292067D1*
X2306086Y2292007D1*
X2310798Y2291261D1*
X2315335Y2289786D1*
X2319586Y2287621D1*
X2323444Y2284818D1*
X2326818Y2281444D1*
X2329621Y2277586D1*
X2331786Y2273335D1*
X2333261Y2268798D1*
X2334007Y2264086D1*
Y2259316D1*
X2333261Y2254604D1*
X2331786Y2250067D1*
X2329621Y2245816D1*
X2326818Y2241958D1*
X2323444Y2238584D1*
X2319586Y2235781D1*
X2315335Y2233616D1*
X2310798Y2232141D1*
X2306086Y2231395D1*
X2301316D1*
X2296604Y2232141D1*
X2292067Y2233616D1*
X2287816Y2235781D1*
X2283958Y2238584D1*
X2280584Y2241958D1*
X2277781Y2245816D1*
X2275616Y2250067D1*
X2274141Y2254604D1*
X2273395Y2259316D1*
X2273360Y2263201D1*
X2233246Y2303306D1*
X2196798Y2303261D1*
X2201335Y2301786D1*
X2205586Y2299621D1*
X2209444Y2296818D1*
X2212818Y2293444D1*
X2215621Y2289586D1*
X2217786Y2285335D1*
X2219261Y2280798D1*
X2220007Y2276086D1*
Y2271316D1*
X2219261Y2266604D1*
X2217786Y2262067D1*
X2215621Y2257816D1*
X2212818Y2253958D1*
X2210095Y2251187D1*
X2210101Y2118252D1*
X2212818Y2115444D1*
X2215621Y2111586D1*
X2217786Y2107335D1*
X2219261Y2102798D1*
X2220007Y2098086D1*
Y2093316D1*
X2219261Y2088604D1*
X2217786Y2084067D1*
X2215621Y2079816D1*
X2212818Y2075958D1*
X2209444Y2072584D1*
X2205586Y2069781D1*
X2201335Y2067616D1*
X2196798Y2066141D1*
X2192086Y2065395D1*
X2187316D1*
X2182604Y2066141D1*
X2178933Y2067295D1*
X2216173Y2030079D1*
X2343306Y2030101D1*
X2339958Y2032584D1*
X2336584Y2035958D1*
X2333781Y2039816D1*
X2331616Y2044067D1*
X2330141Y2048604D1*
X2329395Y2053316D1*
X2329360Y2057201D1*
X2269248Y2117303D1*
X2264945Y2117675D1*
X2260307Y2118789D1*
X2255899Y2120614D1*
X2251832Y2123107D1*
X2248205Y2126205D1*
X2245107Y2129832D1*
X2242614Y2133899D1*
X2240789Y2138307D1*
X2239675Y2142945D1*
X2239301Y2147701D1*
X2239675Y2152457D1*
X2240789Y2157095D1*
X2242614Y2161503D1*
X2245107Y2165570D1*
X2248205Y2169197D1*
X2251832Y2172295D1*
X2255899Y2174788D1*
X2260307Y2176613D1*
X2264945Y2177727D1*
X2269701Y2178101D1*
X2274457Y2177727D1*
X2279095Y2176613D1*
X2283503Y2174788D1*
X2287570Y2172295D1*
X2291197Y2169197D1*
X2294295Y2165570D1*
X2296788Y2161503D1*
X2298613Y2157095D1*
X2299727Y2152457D1*
X2300101Y2147701D1*
X2299893Y2144344D1*
X2358187Y2086065D1*
X2362086Y2086007D1*
X2366798Y2085261D1*
X2371335Y2083786D1*
X2375586Y2081621D1*
X2379444Y2078818D1*
X2382818Y2075444D1*
X2385621Y2071586D1*
X2387786Y2067335D1*
X2389261Y2062798D1*
X2390007Y2058086D1*
Y2053316D1*
X2389261Y2048604D1*
X2387786Y2044067D1*
X2385621Y2039816D1*
X2382818Y2035958D1*
X2379444Y2032584D1*
X2376042Y2030087D1*
X3089701Y2030101D1*
X3091768Y2029983D1*
X3088179Y2033701D1*
X2596449Y2525431D1*
X2144353Y2525411D1*
X2141570Y2523107D1*
X2137503Y2520614D1*
X2133095Y2518789D1*
X2128457Y2517675D1*
X2123701Y2517301D1*
X2118945Y2517675D1*
X2114307Y2518789D1*
X2109899Y2520614D1*
X2105832Y2523107D1*
X2102205Y2526205D1*
X2099107Y2529832D1*
X2096614Y2533899D1*
X2094789Y2538307D1*
X2093675Y2542945D1*
X2093301Y2547701D1*
X2093675Y2552457D1*
X2094789Y2557095D1*
X2096614Y2561503D1*
X2099107Y2565570D1*
X2102205Y2569197D1*
X2105832Y2572295D1*
X2109899Y2574788D1*
X2114307Y2576613D1*
X2118945Y2577727D1*
X2123701Y2578101D1*
X2128457Y2577727D1*
X2133095Y2576613D1*
X2137503Y2574788D1*
X2141570Y2572295D1*
X2144355Y2569975D1*
X2605701Y2569991D1*
X2609188Y2569717D1*
X2612589Y2568900D1*
X2615820Y2567562D1*
X2618802Y2565734D1*
X2621689Y2563217D1*
X3593462Y1591462D1*
X3595734Y1588802D1*
X3597562Y1585820D1*
X3598900Y1582589D1*
X3599717Y1579188D1*
X3599978Y1575366D1*
X3599991Y1048377D1*
X3602295Y1045570D1*
X3604172Y1042600D1*
X3605781Y1045586D1*
X3608584Y1049444D1*
X3609427Y1050355D1*
X3609411Y1588470D1*
X2610453Y2587427D1*
X2146361Y2587411D1*
X2143570Y2585107D1*
X2139503Y2582614D1*
X2135095Y2580789D1*
X2130457Y2579675D1*
X2125701Y2579301D1*
X2120945Y2579675D1*
X2116307Y2580789D1*
X2111899Y2582614D1*
X2107832Y2585107D1*
X2104205Y2588205D1*
X2101107Y2591832D1*
X2098614Y2595899D1*
X2096789Y2600307D1*
X2095675Y2604945D1*
X2095301Y2609701D1*
X2095675Y2614457D1*
X2096789Y2619095D1*
X2098614Y2623503D1*
X2101107Y2627570D1*
X2104205Y2631197D1*
X2107832Y2634295D1*
X2111899Y2636788D1*
X2116307Y2638613D1*
X2120945Y2639727D1*
X2125701Y2640101D1*
X2130457Y2639727D1*
X2135095Y2638613D1*
X2139503Y2636788D1*
X2143570Y2634295D1*
X2146355Y2631975D1*
X2619701Y2631991D1*
X2623188Y2631717D1*
X2626589Y2630900D1*
X2629820Y2629562D1*
X2632802Y2627734D1*
X2635689Y2625217D1*
X3647462Y1613462D1*
X3649734Y1610802D1*
X3651562Y1607820D1*
X3652900Y1604589D1*
X3653717Y1601188D1*
X3653978Y1597366D1*
X3653991Y1050377D1*
X3656295Y1047570D1*
X3658788Y1043503D1*
X3660613Y1039095D1*
X3661727Y1034457D1*
X3662101Y1029701D1*
X3661727Y1024945D1*
X3660613Y1020307D1*
X3658788Y1015899D1*
X3656295Y1011832D1*
X3653197Y1008205D1*
X3649570Y1005107D1*
X3645503Y1002614D1*
X3641095Y1000789D1*
X3636457Y999675D1*
X3631701Y999301D1*
X3626945Y999675D1*
X3622307Y1000789D1*
X3617899Y1002614D1*
X3613832Y1005107D1*
X3610205Y1008205D1*
X3607107Y1011832D1*
X3605230Y1014802D1*
X3603621Y1011816D1*
X3600818Y1007958D1*
X3597444Y1004584D1*
X3593586Y1001781D1*
X3589335Y999616D1*
X3584798Y998141D1*
X3580086Y997395D1*
X3575316D1*
X3570604Y998141D1*
X3566067Y999616D1*
X3561816Y1001781D1*
X3557958Y1004584D1*
X3554584Y1007958D1*
X3551781Y1011816D1*
X3549616Y1016067D1*
X3548141Y1020604D1*
X3547395Y1025316D1*
Y1030086D1*
X3548141Y1034798D1*
X3549616Y1039335D1*
X3551781Y1043586D1*
X3554584Y1047444D1*
X3555427Y1048355D1*
X3555411Y1566470D1*
X3437261Y1684604D1*
X3435786Y1680067D1*
X3433621Y1675816D1*
X3430818Y1671958D1*
X3427444Y1668584D1*
X3423586Y1665781D1*
X3419335Y1663616D1*
X3414798Y1662141D1*
X3410086Y1661395D1*
X3405316D1*
X3400604Y1662141D1*
X3396067Y1663616D1*
X3391816Y1665781D1*
X3387958Y1668584D1*
X3384475Y1672097D1*
X3382818Y1669958D1*
X3379444Y1666584D1*
X3375586Y1663781D1*
X3371335Y1661616D1*
X3366798Y1660141D1*
X3362086Y1659395D1*
X3357316D1*
X3352604Y1660141D1*
X3348067Y1661616D1*
X3343816Y1663781D1*
X3339958Y1666584D1*
X3336584Y1669958D1*
X3334024Y1673453D1*
X3331197Y1670205D1*
X3327570Y1667107D1*
X3323503Y1664614D1*
X3319095Y1662789D1*
X3314457Y1661675D1*
X3309701Y1661301D1*
X3304945Y1661675D1*
X3300307Y1662789D1*
X3295899Y1664614D1*
X3291832Y1667107D1*
X3288205Y1670205D1*
X3285107Y1673832D1*
X3284708Y1674429D1*
X3282818Y1671958D1*
X3279444Y1668584D1*
X3275586Y1665781D1*
X3271335Y1663616D1*
X3266798Y1662141D1*
X3262086Y1661395D1*
X3257316D1*
X3252604Y1662141D1*
X3248067Y1663616D1*
X3243816Y1665781D1*
X3239958Y1668584D1*
X3236584Y1671958D1*
X3233781Y1675816D1*
X3231616Y1680067D1*
X3230141Y1684604D1*
X3229395Y1689316D1*
X3229360Y1693201D1*
X3047244Y1875307D1*
X2976798Y1875261D1*
X2981335Y1873786D1*
X2985586Y1871621D1*
X2989444Y1868818D1*
X2992818Y1865444D1*
X2995621Y1861586D1*
X2997786Y1857335D1*
X2999261Y1852798D1*
X3000007Y1848086D1*
Y1843316D1*
X2999261Y1838604D1*
X2997786Y1834067D1*
X2995621Y1829816D1*
X2992818Y1825958D1*
X2989444Y1822584D1*
X2985586Y1819781D1*
X2981335Y1817616D1*
X2976798Y1816141D1*
X2972086Y1815395D1*
X2967316D1*
X2962604Y1816141D1*
X2958067Y1817616D1*
X2953816Y1819781D1*
X2949958Y1822584D1*
X2947187Y1825307D1*
X1620100Y1825364D1*
X1616939Y1825865D1*
X1613894Y1826853D1*
X1611042Y1828307D1*
X1608452Y1830189D1*
X1600205Y1838347D1*
X1531221Y1907331D1*
X1527316Y1907395D1*
X1522604Y1908141D1*
X1518067Y1909616D1*
X1513816Y1911781D1*
X1509958Y1914584D1*
X1506584Y1917958D1*
X1503781Y1921816D1*
X1501616Y1926067D1*
X1500141Y1930604D1*
X1499395Y1935316D1*
Y1940086D1*
X1500141Y1944798D1*
X1501616Y1949335D1*
X1503781Y1953586D1*
X1506584Y1957444D1*
X1509958Y1960818D1*
X1513816Y1963621D1*
X1518067Y1965786D1*
X1522604Y1967261D1*
X1527316Y1968007D1*
X1532086D1*
X1536798Y1967261D1*
X1541335Y1965786D1*
X1545586Y1963621D1*
X1549444Y1960818D1*
X1552818Y1957444D1*
X1555621Y1953586D1*
X1557786Y1949335D1*
X1559261Y1944798D1*
X1560007Y1940086D1*
X1560042Y1936201D1*
X1630152Y1866100D1*
X2947150Y1866101D1*
X2949958Y1868818D1*
X2953816Y1871621D1*
X2958067Y1873786D1*
X2962869Y1875314D1*
X2165701Y1875301D1*
X2162509Y1875553D1*
X2159397Y1876299D1*
X2156440Y1877524D1*
X2153710Y1879197D1*
X2151051Y1881520D1*
X1633058Y2399494D1*
X1629701Y2399301D1*
X1624945Y2399675D1*
X1620307Y2400789D1*
X1615899Y2402614D1*
X1611832Y2405107D1*
X1608205Y2408205D1*
X1605107Y2411832D1*
X1602614Y2415899D1*
X1600789Y2420307D1*
X1599675Y2424945D1*
X1599301Y2429701D1*
X1599675Y2434457D1*
X1600789Y2439095D1*
X1602614Y2443503D1*
X1604936Y2447314D1*
X1474276Y2447301D1*
X1472788Y2443899D1*
X1470295Y2439832D1*
X1467197Y2436205D1*
X1465305Y2434475D1*
X1467444Y2432818D1*
X1470818Y2429444D1*
X1473621Y2425586D1*
X1475786Y2421335D1*
X1477261Y2416798D1*
X1478007Y2412086D1*
Y2407316D1*
X1477261Y2402604D1*
X1475786Y2398067D1*
X1473621Y2393816D1*
X1470818Y2389958D1*
X1467444Y2386584D1*
X1463586Y2383781D1*
X1459335Y2381616D1*
X1454798Y2380141D1*
X1450086Y2379395D1*
X1445316D1*
X1440604Y2380141D1*
X1436067Y2381616D1*
X1431816Y2383781D1*
X1427958Y2386584D1*
X1424584Y2389958D1*
X1421781Y2393816D1*
X1419616Y2398067D1*
X1418141Y2402604D1*
X1417395Y2407316D1*
Y2412086D1*
X1418141Y2416798D1*
X1419616Y2421335D1*
X1421781Y2425586D1*
X1424584Y2429444D1*
X1428097Y2432927D1*
X1425958Y2434584D1*
X1422584Y2437958D1*
X1419781Y2441816D1*
X1417616Y2446067D1*
X1416141Y2450604D1*
X1415395Y2455316D1*
Y2460086D1*
X1416141Y2464798D1*
X1417616Y2469335D1*
X1419781Y2473586D1*
X1422584Y2477444D1*
X1425958Y2480818D1*
X1428475Y2482725D1*
X1426614Y2485899D1*
X1424789Y2490307D1*
X1423675Y2494945D1*
X1423301Y2499701D1*
X1423675Y2504457D1*
X1424789Y2509095D1*
X1426614Y2513503D1*
X1429107Y2517570D1*
X1432205Y2521197D1*
X1435832Y2524295D1*
X1439899Y2526788D1*
X1444307Y2528613D1*
X1448945Y2529727D1*
X1453701Y2530101D1*
X1455201Y2530042D1*
X1462463Y2537314D1*
X928345Y2537301D1*
X666528Y2275473D1*
X669407Y2268246D1*
X670700Y2263660D1*
X671630Y2258988D1*
X672189Y2254257D1*
X672377Y2249496D1*
X672189Y2244735D1*
X671630Y2240004D1*
X670700Y2235332D1*
X669407Y2230747D1*
X667757Y2226277D1*
X665764Y2221950D1*
X663436Y2217793D1*
X660789Y2213832D1*
X657839Y2210091D1*
X654605Y2206592D1*
X651107Y2203358D1*
X647365Y2200408D1*
X643404Y2197761D1*
X639247Y2195433D1*
X634920Y2193440D1*
X630450Y2191790D1*
X625865Y2190498D1*
X621193Y2189567D1*
X616462Y2189008D1*
X611701Y2188820D1*
X606940Y2189008D1*
X602209Y2189567D1*
X597537Y2190498D1*
X592952Y2191790D1*
X588482Y2193440D1*
X584155Y2195433D1*
X579998Y2197761D1*
X576037Y2200408D1*
X572295Y2203358D1*
X568797Y2206592D1*
X565563Y2210091D1*
X562613Y2213832D1*
X559966Y2217793D1*
X557638Y2221950D1*
X555645Y2226277D1*
X553995Y2230747D1*
X552702Y2235332D1*
X551772Y2240004D1*
X551213Y2244735D1*
X551025Y2249496D1*
X551213Y2254257D1*
X551772Y2258988D1*
X552702Y2263660D1*
X553995Y2268246D1*
X555645Y2272715D1*
X557638Y2277042D1*
X559966Y2281200D1*
X562613Y2285160D1*
X565563Y2288902D1*
X568797Y2292400D1*
X572295Y2295634D1*
X576037Y2298584D1*
X579998Y2301231D1*
X584155Y2303559D1*
X588482Y2305553D1*
X592952Y2307202D1*
X597537Y2308495D1*
X602209Y2309425D1*
X606940Y2309984D1*
X611701Y2310172D1*
X616462Y2309984D1*
X621193Y2309425D1*
X625865Y2308495D1*
X630450Y2307202D1*
X634920Y2305553D1*
X637675Y2304284D1*
X905481Y2572126D1*
X907915Y2574205D1*
X910645Y2575878D1*
X913601Y2577103D1*
X916714Y2577849D1*
X920238Y2578088D1*
X1705159Y2578101D1*
X1707958Y2580818D1*
X1711816Y2583621D1*
X1715042Y2585315D1*
X700744Y2585301D1*
X666537Y2551074D1*
X669407Y2543836D1*
X670700Y2539251D1*
X671630Y2534579D1*
X672189Y2529848D1*
X672377Y2525087D1*
X672189Y2520326D1*
X671630Y2515595D1*
X670700Y2510923D1*
X669407Y2506337D1*
X667757Y2501868D1*
X665764Y2497541D1*
X663436Y2493383D1*
X660789Y2489423D1*
X657839Y2485681D1*
X654605Y2482183D1*
X651107Y2478949D1*
X647365Y2475999D1*
X643404Y2473352D1*
X639247Y2471024D1*
X634920Y2469030D1*
X630450Y2467381D1*
X625865Y2466088D1*
X621193Y2465158D1*
X616462Y2464599D1*
X611701Y2464411D1*
X606940Y2464599D1*
X602209Y2465158D1*
X597537Y2466088D1*
X592952Y2467381D1*
X588482Y2469030D1*
X584155Y2471024D1*
X579998Y2473352D1*
X576037Y2475999D1*
X572295Y2478949D1*
X568797Y2482183D1*
X565563Y2485681D1*
X562613Y2489423D1*
X559966Y2493383D1*
X557638Y2497541D1*
X555645Y2501868D1*
X553995Y2506337D1*
X552702Y2510923D1*
X551772Y2515595D1*
X551213Y2520326D1*
X551025Y2525087D1*
X551213Y2529848D1*
X551772Y2534579D1*
X552702Y2539251D1*
X553995Y2543836D1*
X555645Y2548306D1*
X557638Y2552633D1*
X559966Y2556790D1*
X562613Y2560751D1*
X565563Y2564492D1*
X568797Y2567991D1*
X572295Y2571225D1*
X576037Y2574175D1*
X579998Y2576822D1*
X584155Y2579150D1*
X588482Y2581143D1*
X592952Y2582793D1*
X597537Y2584086D1*
X602209Y2585016D1*
X606940Y2585575D1*
X611701Y2585763D1*
X616462Y2585575D1*
X621193Y2585016D1*
X625865Y2584086D1*
X630450Y2582793D1*
X634920Y2581143D1*
X637675Y2579874D1*
X679066Y2621213D1*
X681656Y2623095D1*
X684508Y2624549D1*
X687553Y2625537D1*
X690714Y2626038D1*
X702315Y2626101D1*
X1823302Y2626038D1*
X1826463Y2625537D1*
X1829508Y2624549D1*
X1832360Y2623095D1*
X1834950Y2621213D1*
X1843197Y2613055D1*
X1878180Y2578072D1*
X1882086Y2578007D1*
X1885416Y2577536D1*
X1885411Y3242495D1*
X1444570Y3683309D1*
X1440945Y3683675D1*
X1436307Y3684789D1*
X1431899Y3686614D1*
X1427832Y3689107D1*
X1424205Y3692205D1*
X1421107Y3695832D1*
X1418614Y3699899D1*
X1416789Y3704307D1*
X1415675Y3708945D1*
X1415301Y3713701D1*
X1415675Y3718457D1*
X1416789Y3723095D1*
X1418614Y3727503D1*
X1421107Y3731570D1*
X1424205Y3735197D1*
X1427832Y3738295D1*
X1431899Y3740788D1*
X1436307Y3742613D1*
X1440945Y3743727D1*
X1445701Y3744101D1*
X1450457Y3743727D1*
X1455095Y3742613D1*
X1459503Y3740788D1*
X1463570Y3738295D1*
X1467197Y3735197D1*
X1470295Y3731570D1*
X1472788Y3727503D1*
X1474613Y3723095D1*
X1475727Y3718457D1*
X1476055Y3714847D1*
X1923462Y3267462D1*
X1925734Y3264802D1*
X1927562Y3261820D1*
X1928900Y3258589D1*
X1929717Y3255188D1*
X1929978Y3251366D1*
X1929991Y3148205D1*
X1931781Y3151586D1*
X1934584Y3155444D1*
X1937958Y3158818D1*
X1941816Y3161621D1*
X1946067Y3163786D1*
X1950604Y3165261D1*
X1955316Y3166007D1*
X1960086D1*
X1964798Y3165261D1*
X1969335Y3163786D1*
X1973586Y3161621D1*
X1977444Y3158818D1*
X1980215Y3156095D1*
X3561626Y3156101D1*
X3559521Y3160322D1*
X2054803Y3160309D1*
X2051316Y3160583D1*
X2047915Y3161399D1*
X2044684Y3162738D1*
X2041702Y3164566D1*
X2038815Y3167083D1*
X1783940Y3421940D1*
X1781668Y3424600D1*
X1779840Y3427582D1*
X1778502Y3430813D1*
X1777685Y3434214D1*
X1777424Y3438036D1*
X1777411Y3631041D1*
X1775107Y3633832D1*
X1772614Y3637899D1*
X1770789Y3642307D1*
X1769675Y3646945D1*
X1769301Y3651701D1*
X1769675Y3656457D1*
X1770789Y3661095D1*
X1772614Y3665503D1*
X1775107Y3669570D1*
X1778205Y3673197D1*
X1781832Y3676295D1*
X1785899Y3678788D1*
X1790307Y3680613D1*
X1794945Y3681727D1*
X1799701Y3682101D1*
X1804457Y3681727D1*
X1809095Y3680613D1*
X1813503Y3678788D1*
X1817570Y3676295D1*
X1821197Y3673197D1*
X1824295Y3669570D1*
X1826788Y3665503D1*
X1828613Y3661095D1*
X1829727Y3656457D1*
X1830101Y3651701D1*
X1829727Y3646945D1*
X1828613Y3642307D1*
X1826788Y3637899D1*
X1824295Y3633832D1*
X1821975Y3631047D1*
X1821991Y3446916D1*
X2064041Y3204883D1*
X3589450Y3204819D1*
X3592904Y3204273D1*
X3596231Y3203192D1*
X3599348Y3201604D1*
X3602177Y3199547D1*
X3604883Y3196780D1*
X3604650Y3197075D1*
X3604883Y3196780D1*
X3605301Y3197701D1*
Y3201276D1*
X3562189Y3244452D1*
X3560307Y3247042D1*
X3558853Y3249894D1*
X3557865Y3252939D1*
X3557364Y3256100D1*
X3557301Y3267701D1*
Y3406118D1*
X3554584Y3408919D1*
X3551781Y3412777D1*
X3549616Y3417028D1*
X3548141Y3421565D1*
X3547395Y3426277D1*
Y3431046D1*
X3548141Y3435759D1*
X3549616Y3440295D1*
X3551781Y3444546D1*
X3554584Y3448404D1*
X3557958Y3451778D1*
X3561816Y3454582D1*
X3566067Y3456747D1*
X3570604Y3458222D1*
X3575316Y3458967D1*
X3580086D1*
X3584798Y3458222D1*
X3589335Y3456747D1*
X3593586Y3454582D1*
X3597444Y3451778D1*
X3600818Y3448404D1*
X3602777Y3445810D1*
X3605107Y3449570D1*
X3608205Y3453197D1*
X3611832Y3456295D1*
X3615899Y3458788D1*
X3620307Y3460613D1*
X3624945Y3461727D1*
X3629701Y3462101D1*
X3634457Y3461727D1*
X3639095Y3460613D1*
X3643503Y3458788D1*
X3647570Y3456295D1*
X3651197Y3453197D1*
X3654295Y3449570D1*
X3656788Y3445503D1*
X3658613Y3441095D1*
X3659727Y3436457D1*
X3660101Y3431701D1*
X3659727Y3426945D1*
X3658613Y3422307D1*
X3656788Y3417899D1*
X3654295Y3413832D1*
X3651197Y3410205D1*
X3650095Y3409187D1*
X3650101Y3274142D1*
X3683213Y3240950D1*
X3685095Y3238360D1*
X3686549Y3235508D1*
X3687537Y3232463D1*
X3688038Y3229302D1*
X3688101Y3217701D1*
X3688038Y3142100D1*
X3687537Y3138939D1*
X3686549Y3135894D1*
X3685095Y3133042D1*
X3683213Y3130452D1*
X3675055Y3122205D1*
X3634582Y3081898D1*
X3637701Y3081601D1*
X3725806D1*
X3725801Y3421612D1*
X3724141Y3426604D1*
X3723395Y3431316D1*
Y3436086D1*
X3724141Y3440798D1*
X3725616Y3445335D1*
X3727781Y3449586D1*
X3730584Y3453444D1*
X3733958Y3456818D1*
X3737816Y3459621D1*
X3742067Y3461786D1*
X3746604Y3463261D1*
X3751316Y3464007D1*
X3756086D1*
X3760798Y3463261D1*
X3765335Y3461786D1*
X3769586Y3459621D1*
X3773444Y3456818D1*
X3776818Y3453444D1*
X3779621Y3449586D1*
X3781786Y3445335D1*
X3783261Y3440798D1*
X3784007Y3436086D1*
Y3431316D1*
X3783261Y3426604D1*
X3781786Y3422067D1*
X3781588Y3421635D1*
X3781601Y2068701D1*
X3781515Y955512D1*
X3780830Y951188D1*
X3779478Y947024D1*
X3777490Y943124D1*
X3774916Y939582D1*
X3769894Y934437D1*
X3711820Y876486D1*
X3708278Y873912D1*
X3704378Y871924D1*
X3700214Y870572D1*
X3695890Y869887D1*
X3688701Y869801D1*
X2413252D1*
X2390093Y846637D1*
X2390105Y817638D1*
X2394307Y813914D1*
X2396727Y811297D1*
X2398935Y808496D1*
X2400915Y805533D1*
X2402656Y802423D1*
X2404149Y799185D1*
X2405383Y795840D1*
X2406351Y792410D1*
X2407046Y788914D1*
X2407465Y785373D1*
X2407605Y781811D1*
X2407465Y778250D1*
X2307465D2*
X2307046Y774709D1*
X2306351Y771213D1*
X2305383Y767782D1*
X2304149Y764437D1*
X2302656Y761200D1*
X2300915Y758089D1*
X2298935Y755126D1*
X2296727Y752326D1*
X2294307Y749709D1*
X2291691Y747289D1*
X2288890Y745082D1*
X2285927Y743101D1*
X2282816Y741360D1*
X2279579Y739868D1*
X2276234Y738633D1*
X2272803Y737666D1*
X2269307Y736970D1*
X2265767Y736551D1*
X2262205Y736411D1*
X2258643Y736551D1*
X2255103Y736970D1*
X2251607Y737666D1*
X2248176Y738633D1*
X2244831Y739868D1*
X2241593Y741360D1*
X2238483Y743101D1*
X2235520Y745082D1*
X2232719Y747289D1*
X2230103Y749709D1*
X2227683Y752326D1*
X2225475Y755126D1*
X2223495Y758089D1*
X2221753Y761200D1*
X2220261Y764437D1*
X2219026Y767782D1*
X2218059Y771213D1*
X2217364Y774709D1*
X2216945Y778250D1*
X2216805Y781811D1*
X2216945Y785373D1*
X2217364Y788914D1*
X2218059Y792410D1*
X2219026Y795840D1*
X2220261Y799185D1*
X2221753Y802423D1*
X2223495Y805533D1*
X2225475Y808496D1*
X2227683Y811297D1*
X2230103Y813914D1*
X2232719Y816334D1*
X2235520Y818541D1*
X2238483Y820521D1*
X2241593Y822263D1*
X2244831Y823755D1*
X2248176Y824990D1*
X2251607Y825957D1*
X2255103Y826652D1*
X2258643Y827071D1*
X2262205Y827211D1*
X2265767Y827071D1*
X2269307Y826652D1*
X2272803Y825957D1*
X2276234Y824990D1*
X2279579Y823755D1*
X2282816Y822263D1*
X2285927Y820521D1*
X2288890Y818541D1*
X2291691Y816334D1*
X2294307Y813914D1*
X2296727Y811297D1*
X2298935Y808496D1*
X2300915Y805533D1*
X2302656Y802423D1*
X2304149Y799185D1*
X2305383Y795840D1*
X2306351Y792410D1*
X2307046Y788914D1*
X2307465Y785373D1*
X2307605Y781811D1*
X2307465Y778250D1*
X556025Y2172377D2*
X672377D1*
Y2051025D1*
X551025D1*
Y2172377D1*
X556025D1*
X672369Y2386292D2*
X671973Y2380307D1*
X670990Y2374391D1*
X669425Y2368600D1*
X667298Y2362992D1*
X664629Y2357622D1*
X661441Y2352542D1*
X657767Y2347802D1*
X653643Y2343446D1*
X649109Y2339520D1*
X644210Y2336061D1*
X638994Y2333101D1*
X633511Y2330671D1*
X627814Y2328794D1*
X621961Y2327490D1*
X616007Y2326769D1*
X610011Y2326639D1*
X604030Y2327103D1*
X598126Y2328154D1*
X592353Y2329784D1*
X586771Y2331974D1*
X581432Y2334706D1*
X576387Y2337950D1*
X571689Y2341679D1*
X567381Y2345852D1*
X563507Y2350429D1*
X560103Y2355368D1*
X557204Y2360617D1*
X554836Y2366128D1*
X553024Y2371845D1*
X551786Y2377714D1*
X551133Y2383676D1*
X551072Y2389673D1*
X551604Y2395647D1*
X552722Y2401540D1*
X554416Y2407293D1*
X556671Y2412851D1*
X559463Y2418158D1*
X562765Y2423164D1*
X566546Y2427820D1*
X570768Y2432080D1*
X575390Y2435903D1*
X580366Y2439250D1*
X585650Y2442089D1*
X591187Y2444394D1*
X596924Y2446141D1*
X602806Y2447311D1*
X608776Y2447897D1*
X614773Y2447890D1*
X620740Y2447290D1*
X626620Y2446104D1*
X632353Y2444344D1*
X637885Y2442026D1*
X643160Y2439175D1*
X648129Y2435815D1*
X652742Y2431982D1*
X656953Y2427711D1*
X660722Y2423046D1*
X664013Y2418032D1*
X666793Y2412718D1*
X669033Y2407155D1*
X670714Y2401398D1*
X671819Y2395503D1*
X672335Y2389526D1*
X672369Y2386292D1*
X672189Y2658121D2*
X671630Y2653390D1*
X670700Y2648718D1*
X669407Y2644133D1*
X667757Y2639663D1*
X665764Y2635336D1*
X663436Y2631179D1*
X660789Y2627218D1*
X657839Y2623477D1*
X654605Y2619978D1*
X651107Y2616744D1*
X647365Y2613794D1*
X643404Y2611147D1*
X639247Y2608819D1*
X634920Y2606826D1*
X630450Y2605176D1*
X625865Y2603883D1*
X621193Y2602953D1*
X616462Y2602394D1*
X611701Y2602206D1*
X606940Y2602394D1*
X602209Y2602953D1*
X597537Y2603883D1*
X592952Y2605176D1*
X588482Y2606826D1*
X584155Y2608819D1*
X579998Y2611147D1*
X576037Y2613794D1*
X572295Y2616744D1*
X568797Y2619978D1*
X565563Y2623477D1*
X562613Y2627218D1*
X559966Y2631179D1*
X557638Y2635336D1*
X555645Y2639663D1*
X553995Y2644133D1*
X552702Y2648718D1*
X551772Y2653390D1*
X551213Y2658121D1*
X551025Y2662882D1*
X551213Y2667643D1*
X551772Y2672374D1*
X552702Y2677046D1*
X553995Y2681631D1*
X555645Y2686101D1*
X557638Y2690428D1*
X559966Y2694586D1*
X562613Y2698546D1*
X565563Y2702288D1*
X568797Y2705786D1*
X572295Y2709020D1*
X576037Y2711970D1*
X579998Y2714617D1*
X584155Y2716945D1*
X588482Y2718939D1*
X592952Y2720588D1*
X597537Y2721881D1*
X602209Y2722811D1*
X606940Y2723370D1*
X611701Y2723558D1*
X616462Y2723370D1*
X621193Y2722811D1*
X625865Y2721881D1*
X630450Y2720588D1*
X634920Y2718939D1*
X639247Y2716945D1*
X643404Y2714617D1*
X647365Y2711970D1*
X651107Y2709020D1*
X654605Y2705786D1*
X657839Y2702288D1*
X660789Y2698546D1*
X663436Y2694586D1*
X665764Y2690428D1*
X667757Y2686101D1*
X669407Y2681631D1*
X670700Y2677046D1*
X671630Y2672374D1*
X672189Y2667643D1*
X672377Y2662882D1*
X672189Y2658121D1*
Y2795916D2*
X671630Y2791185D1*
X670700Y2786513D1*
X669407Y2781928D1*
X667757Y2777458D1*
X666488Y2774704D1*
X763142Y2678087D1*
X1625282Y2678101D1*
X1718561Y2771411D1*
X1715899Y2772614D1*
X1711832Y2775107D1*
X1710711Y2775990D1*
X1707586Y2773781D1*
X1703335Y2771616D1*
X1698798Y2770141D1*
X1694086Y2769395D1*
X1689316D1*
X1684604Y2770141D1*
X1680067Y2771616D1*
X1675816Y2773781D1*
X1672711Y2775990D1*
X1669586Y2773781D1*
X1665335Y2771616D1*
X1660798Y2770141D1*
X1656086Y2769395D1*
X1651316D1*
X1646604Y2770141D1*
X1642067Y2771616D1*
X1637816Y2773781D1*
X1633958Y2776584D1*
X1630584Y2779958D1*
X1627781Y2783816D1*
X1625616Y2788067D1*
X1624141Y2792604D1*
X1623395Y2797316D1*
X1623360Y2801201D1*
X1495244Y2929307D1*
X1171885Y2929301D1*
X1169197Y2926205D1*
X1165570Y2923107D1*
X1161503Y2920614D1*
X1157095Y2918789D1*
X1152457Y2917675D1*
X1147701Y2917301D1*
X1142945Y2917675D1*
X1138307Y2918789D1*
X1133899Y2920614D1*
X1129832Y2923107D1*
X1126205Y2926205D1*
X1123107Y2929832D1*
X1120614Y2933899D1*
X1118789Y2938307D1*
X1117675Y2942945D1*
X1117301Y2947701D1*
X1117675Y2952457D1*
X1118789Y2957095D1*
X1120614Y2961503D1*
X1123107Y2965570D1*
X1126205Y2969197D1*
X1129832Y2972295D1*
X1133899Y2974788D1*
X1138307Y2976613D1*
X1142945Y2977727D1*
X1147701Y2978101D1*
X1152457Y2977727D1*
X1157095Y2976613D1*
X1161503Y2974788D1*
X1165570Y2972295D1*
X1168231Y2970089D1*
X1505302Y2970038D1*
X1508463Y2969537D1*
X1511508Y2968549D1*
X1514360Y2967095D1*
X1516950Y2965213D1*
X1525197Y2957055D1*
X1652187Y2830066D1*
X1656086Y2830007D1*
X1660798Y2829261D1*
X1665335Y2827786D1*
X1669586Y2825621D1*
X1671314Y2824466D1*
X1671301Y2977260D1*
X1071222Y3577330D1*
X1067316Y3577395D1*
X1062604Y3578141D1*
X1058067Y3579616D1*
X1053816Y3581781D1*
X1049958Y3584584D1*
X1046584Y3587958D1*
X1043781Y3591816D1*
X1041616Y3596067D1*
X1040141Y3600604D1*
X1039395Y3605316D1*
Y3610086D1*
X1040141Y3614798D1*
X1041616Y3619335D1*
X1043781Y3623586D1*
X1046584Y3627444D1*
X1049958Y3630818D1*
X1053816Y3633621D1*
X1058067Y3635786D1*
X1062604Y3637261D1*
X1067316Y3638007D1*
X1072086D1*
X1074941Y3637630D1*
X1069226Y3643326D1*
X1065316Y3643395D1*
X1060604Y3644141D1*
X1056067Y3645616D1*
X1051816Y3647781D1*
X1047958Y3650584D1*
X1044584Y3653958D1*
X1041781Y3657816D1*
X1039616Y3662067D1*
X1038141Y3666604D1*
X1037395Y3671316D1*
Y3676086D1*
X1038141Y3680798D1*
X1039616Y3685335D1*
X1041781Y3689586D1*
X1044584Y3693444D1*
X1047958Y3696818D1*
X1051816Y3699621D1*
X1056067Y3701786D1*
X1060604Y3703261D1*
X1065316Y3704007D1*
X1070086D1*
X1074798Y3703261D1*
X1079335Y3701786D1*
X1083586Y3699621D1*
X1087444Y3696818D1*
X1090818Y3693444D1*
X1093621Y3689586D1*
X1095786Y3685335D1*
X1097261Y3680798D1*
X1098007Y3676086D1*
X1098042Y3672201D1*
X1745213Y3024950D1*
X1747095Y3022360D1*
X1748549Y3019508D1*
X1749537Y3016463D1*
X1750038Y3013302D1*
X1750101Y3001701D1*
Y2822229D1*
X1752818Y2819444D1*
X1753309Y2818822D1*
X1755044Y2821507D1*
X1758142Y2825134D1*
X1761769Y2828232D1*
X1765836Y2830725D1*
X1770244Y2832550D1*
X1774882Y2833664D1*
X1779638Y2834038D1*
X1784394Y2833664D1*
X1789032Y2832550D1*
X1793440Y2830725D1*
X1797507Y2828232D1*
X1801134Y2825134D1*
X1804232Y2821507D1*
X1806725Y2817440D1*
X1808550Y2813032D1*
X1809664Y2808394D1*
X1810038Y2803638D1*
X1809664Y2798882D1*
X1808550Y2794244D1*
X1806725Y2789836D1*
X1804232Y2785769D1*
X1801134Y2782142D1*
X1797507Y2779044D1*
X1793440Y2776551D1*
X1789032Y2774726D1*
X1784394Y2773612D1*
X1779638Y2773238D1*
X1778138Y2773297D1*
X1646950Y2642189D1*
X1644360Y2640307D1*
X1641508Y2638853D1*
X1638463Y2637865D1*
X1635302Y2637364D1*
X1623701Y2637301D1*
X753076Y2637364D1*
X749915Y2637865D1*
X746870Y2638853D1*
X744019Y2640307D1*
X741428Y2642189D1*
X733181Y2650347D1*
X637680Y2745848D1*
X630450Y2742971D1*
X625865Y2741679D1*
X621193Y2740748D1*
X616462Y2740189D1*
X611701Y2740002D1*
X606940Y2740189D1*
X602209Y2740748D1*
X597537Y2741679D1*
X592952Y2742971D1*
X588482Y2744621D1*
X584155Y2746614D1*
X579998Y2748942D1*
X576037Y2751589D1*
X572295Y2754540D1*
X568797Y2757773D1*
X565563Y2761272D1*
X562613Y2765013D1*
X559966Y2768974D1*
X557638Y2773131D1*
X555645Y2777458D1*
X553995Y2781928D1*
X552702Y2786513D1*
X551772Y2791185D1*
X551213Y2795916D1*
X551025Y2800677D1*
X551213Y2805439D1*
X551772Y2810170D1*
X552702Y2814841D1*
X553995Y2819427D1*
X555645Y2823897D1*
X557638Y2828223D1*
X559966Y2832381D1*
X562613Y2836341D1*
X565563Y2840083D1*
X568797Y2843582D1*
X572295Y2846815D1*
X576037Y2849765D1*
X579998Y2852412D1*
X584155Y2854740D1*
X588482Y2856734D1*
X592952Y2858383D1*
X597537Y2859676D1*
X602209Y2860607D1*
X606940Y2861166D1*
X611701Y2861353D1*
X616462Y2861166D1*
X621193Y2860607D1*
X625865Y2859676D1*
X630450Y2858383D1*
X634920Y2856734D1*
X639247Y2854740D1*
X643404Y2852412D1*
X647365Y2849765D1*
X651107Y2846815D1*
X654605Y2843582D1*
X657839Y2840083D1*
X660789Y2836341D1*
X663436Y2832381D1*
X665764Y2828223D1*
X667757Y2823897D1*
X669407Y2819427D1*
X670700Y2814841D1*
X671630Y2810170D1*
X672189Y2805439D1*
X672377Y2800677D1*
X672189Y2795916D1*
X2237638Y4042721D2*
X2237320Y4036731D1*
X2236526Y4030785D1*
X2235264Y4024921D1*
X2233540Y4019176D1*
X2231364Y4013586D1*
X2228751Y4008187D1*
X2225718Y4003012D1*
X2222282Y3998095D1*
X2218467Y3993465D1*
X2214297Y3989154D1*
X2209797Y3985188D1*
X2204996Y3981592D1*
X2199924Y3978389D1*
X2194614Y3975597D1*
X2189100Y3973238D1*
X2183415Y3971324D1*
X2177596Y3969868D1*
X2171680Y3968878D1*
X2165704Y3968362D1*
X2159705Y3968323D1*
X2153723Y3968760D1*
X2147794Y3969671D1*
X2141956Y3971050D1*
X2136247Y3972889D1*
X2130701Y3975175D1*
X2125355Y3977894D1*
X2120240Y3981030D1*
X2115393Y3984562D1*
X2110840Y3988469D1*
X2106613Y3992725D1*
X2102738Y3997302D1*
X2099238Y4002173D1*
X2096135Y4007307D1*
X2093452Y4012672D1*
X2091202Y4018232D1*
X2089402Y4023954D1*
X2088061Y4029801D1*
X2087189Y4035736D1*
X2086792Y4041721D1*
X2086872Y4047719D1*
X2087428Y4053692D1*
X2088456Y4059601D1*
X2089950Y4065411D1*
X2091903Y4071083D1*
X2094298Y4076582D1*
X2097124Y4081873D1*
X2100361Y4086923D1*
X2103988Y4091700D1*
X2107984Y4096173D1*
X2112324Y4100315D1*
X2116978Y4104100D1*
X2121918Y4107502D1*
X2127113Y4110502D1*
X2132529Y4113078D1*
X2138134Y4115217D1*
X2143890Y4116903D1*
X2149763Y4118128D1*
X2155713Y4118881D1*
X2161705Y4119159D1*
X2167701Y4118960D1*
X2173660Y4118285D1*
X2179549Y4117139D1*
X2185327Y4115529D1*
X2190960Y4113465D1*
X2196410Y4110960D1*
X2201643Y4108030D1*
X2206629Y4104693D1*
X2211332Y4100971D1*
X2215726Y4096887D1*
X2219780Y4092466D1*
X2223471Y4087738D1*
X2226774Y4082731D1*
X2229670Y4077478D1*
X2232139Y4072011D1*
X2234166Y4066365D1*
X2235736Y4060576D1*
X2236844Y4054681D1*
X2237479Y4048717D1*
X2237638Y4042721D1*
X2637638Y4042815D2*
X2637320Y4036826D1*
X2636526Y4030879D1*
X2635264Y4025016D1*
X2633540Y4019271D1*
X2631364Y4013680D1*
X2628751Y4008281D1*
X2625718Y4003107D1*
X2622282Y3998189D1*
X2618467Y3993559D1*
X2614297Y3989248D1*
X2609797Y3985282D1*
X2604996Y3981687D1*
X2599924Y3978483D1*
X2594614Y3975692D1*
X2589100Y3973332D1*
X2583415Y3971419D1*
X2577596Y3969962D1*
X2571680Y3968973D1*
X2565704Y3968457D1*
X2559705Y3968418D1*
X2553723Y3968855D1*
X2547794Y3969765D1*
X2541956Y3971145D1*
X2536247Y3972983D1*
X2530701Y3975269D1*
X2525355Y3977988D1*
X2520240Y3981125D1*
X2515393Y3984656D1*
X2510840Y3988563D1*
X2506613Y3992819D1*
X2502738Y3997397D1*
X2499238Y4002268D1*
X2496135Y4007402D1*
X2493452Y4012767D1*
X2491202Y4018327D1*
X2489402Y4024049D1*
X2488061Y4029895D1*
X2487189Y4035831D1*
X2486792Y4041815D1*
X2486872Y4047814D1*
X2487428Y4053786D1*
X2488456Y4059696D1*
X2489950Y4065505D1*
X2491903Y4071177D1*
X2494298Y4076676D1*
X2497124Y4081967D1*
X2500361Y4087017D1*
X2503988Y4091794D1*
X2507984Y4096268D1*
X2512324Y4100410D1*
X2516978Y4104194D1*
X2521918Y4107596D1*
X2527113Y4110596D1*
X2532529Y4113172D1*
X2538134Y4115311D1*
X2543890Y4116998D1*
X2549763Y4118222D1*
X2555713Y4118975D1*
X2561705Y4119253D1*
X2567701Y4119054D1*
X2573660Y4118379D1*
X2579549Y4117234D1*
X2585327Y4115624D1*
X2590960Y4113559D1*
X2596410Y4111054D1*
X2601643Y4108125D1*
X2606629Y4104788D1*
X2611332Y4101066D1*
X2615726Y4096982D1*
X2619780Y4092561D1*
X2623471Y4087832D1*
X2626774Y4082826D1*
X2629670Y4077572D1*
X2632139Y4072105D1*
X2634166Y4066460D1*
X2635736Y4060671D1*
X2636844Y4054776D1*
X2637479Y4048811D1*
X2637638Y4042815D1*
X2412881Y3839717D2*
X2412412Y3835753D1*
X2411634Y3831839D1*
X2410550Y3827996D1*
X2409168Y3824252D1*
X2407498Y3820628D1*
X2405547Y3817145D1*
X2403330Y3813826D1*
X2400858Y3810692D1*
X2398150Y3807760D1*
X2395218Y3805051D1*
X2392084Y3802580D1*
X2388765Y3800362D1*
X2385282Y3798412D1*
X2381658Y3796742D1*
X2377914Y3795360D1*
X2374071Y3794276D1*
X2370156Y3793498D1*
X2366193Y3793029D1*
X2362205Y3792872D1*
X2358217Y3793029D1*
X2354253Y3793498D1*
X2350339Y3794276D1*
X2346496Y3795360D1*
X2342752Y3796742D1*
X2339128Y3798412D1*
X2335645Y3800362D1*
X2332326Y3802580D1*
X2329192Y3805051D1*
X2326260Y3807760D1*
X2323551Y3810692D1*
X2321080Y3813826D1*
X2318862Y3817145D1*
X2316912Y3820628D1*
X2315242Y3824252D1*
X2313860Y3827996D1*
X2312776Y3831839D1*
X2312219Y3834637D1*
X2311122Y3829881D1*
X2309528Y3825145D1*
X2307477Y3820587D1*
X2304988Y3816252D1*
X2302086Y3812184D1*
X2298797Y3808420D1*
X2295155Y3804998D1*
X2291194Y3801949D1*
X2286954Y3799303D1*
X2282474Y3797088D1*
X2277798Y3795323D1*
X2272971Y3794025D1*
X2268041Y3793208D1*
X2263053Y3792879D1*
X2258058Y3793041D1*
X2253103Y3793693D1*
X2248235Y3794830D1*
X2243503Y3796437D1*
X2238952Y3798502D1*
X2234625Y3801004D1*
X2230565Y3803919D1*
X2226811Y3807218D1*
X2223399Y3810870D1*
X2220362Y3814840D1*
X2217730Y3819088D1*
X2215528Y3823575D1*
X2213776Y3828256D1*
X2212494Y3833087D1*
X2211691Y3838020D1*
X2211377Y3843008D1*
X2211554Y3848003D1*
X2212221Y3852957D1*
X2213370Y3857820D1*
X2214994Y3862547D1*
X2217071Y3867093D1*
X2219587Y3871412D1*
X2222513Y3875463D1*
X2225824Y3879208D1*
X2229486Y3882609D1*
X2233465Y3885634D1*
X2237722Y3888253D1*
X2242214Y3890442D1*
X2246900Y3892180D1*
X2251735Y3893448D1*
X2256671Y3894236D1*
X2261660Y3894536D1*
X2266654Y3894343D1*
X2271605Y3893662D1*
X2276466Y3892496D1*
X2281188Y3890860D1*
X2285727Y3888768D1*
X2290040Y3886240D1*
X2294082Y3883302D1*
X2297816Y3879979D1*
X2301206Y3876307D1*
X2304219Y3872319D1*
X2306826Y3868055D1*
X2309002Y3863555D1*
X2310725Y3858864D1*
X2311979Y3854026D1*
X2312205Y3852864D1*
X2313860Y3859414D1*
X2315242Y3863158D1*
X2316912Y3866782D1*
X2318862Y3870265D1*
X2321080Y3873584D1*
X2323551Y3876718D1*
X2326260Y3879650D1*
X2329192Y3882358D1*
X2332326Y3884830D1*
X2335645Y3887047D1*
X2339128Y3888998D1*
X2342752Y3890668D1*
X2346496Y3892050D1*
X2350339Y3893134D1*
X2354253Y3893912D1*
X2358217Y3894381D1*
X2362205Y3894538D1*
X2366193Y3894381D1*
X2370156Y3893912D1*
X2374071Y3893134D1*
X2377914Y3892050D1*
X2381658Y3890668D1*
X2385282Y3888998D1*
X2388765Y3887047D1*
X2392084Y3884830D1*
X2395218Y3882358D1*
X2398150Y3879650D1*
X2400858Y3876718D1*
X2403330Y3873584D1*
X2405547Y3870265D1*
X2407498Y3866782D1*
X2409168Y3863158D1*
X2410550Y3859414D1*
X2411634Y3855571D1*
X2412412Y3851656D1*
X2412881Y3847693D1*
X2413038Y3843705D1*
X2412881Y3839717D1*
X1672007Y2211316D2*
X1671261Y2206604D1*
X1669786Y2202067D1*
X1667621Y2197816D1*
X1664818Y2193958D1*
X1661444Y2190584D1*
X1657586Y2187781D1*
X1653335Y2185616D1*
X1648798Y2184141D1*
X1644086Y2183395D1*
X1639316D1*
X1634604Y2184141D1*
X1630067Y2185616D1*
X1625816Y2187781D1*
X1621958Y2190584D1*
X1618584Y2193958D1*
X1615781Y2197816D1*
X1613616Y2202067D1*
X1612141Y2206604D1*
X1611395Y2211316D1*
Y2216086D1*
X1612141Y2220798D1*
X1613616Y2225335D1*
X1615781Y2229586D1*
X1618584Y2233444D1*
X1621958Y2236818D1*
X1625816Y2239621D1*
X1630067Y2241786D1*
X1634604Y2243261D1*
X1639316Y2244007D1*
X1644086D1*
X1648798Y2243261D1*
X1653335Y2241786D1*
X1657586Y2239621D1*
X1661444Y2236818D1*
X1664818Y2233444D1*
X1667621Y2229586D1*
X1669786Y2225335D1*
X1671261Y2220798D1*
X1672007Y2216086D1*
Y2211316D1*
X2016007Y2271316D2*
X2015261Y2266604D1*
X2013786Y2262067D1*
X2011621Y2257816D1*
X2008818Y2253958D1*
X2005444Y2250584D1*
X2001586Y2247781D1*
X1999575Y2246655D1*
X2161235Y2085017D1*
X2160141Y2088604D1*
X2159395Y2093316D1*
Y2098086D1*
X2160141Y2102798D1*
X2161616Y2107335D1*
X2163781Y2111586D1*
X2166584Y2115444D1*
X2169307Y2118215D1*
X2169301Y2251150D1*
X2166584Y2253958D1*
X2163781Y2257816D1*
X2161616Y2262067D1*
X2160141Y2266604D1*
X2159395Y2271316D1*
Y2276086D1*
X2160141Y2280798D1*
X2161616Y2285335D1*
X2163781Y2289586D1*
X2166584Y2293444D1*
X2169958Y2296818D1*
X2173816Y2299621D1*
X2178067Y2301786D1*
X2182869Y2303314D1*
X1997072Y2303301D1*
X1997335Y2301786D1*
X2001586Y2299621D1*
X2005444Y2296818D1*
X2008818Y2293444D1*
X2011621Y2289586D1*
X2013786Y2285335D1*
X2015261Y2280798D1*
X2016007Y2276086D1*
Y2271316D1*
X1554597Y2716852D2*
X1553852Y2712139D1*
X1552377Y2707603D1*
X1550211Y2703352D1*
X1547408Y2699494D1*
X1544034Y2696120D1*
X1540176Y2693316D1*
X1535925Y2691151D1*
X1531389Y2689676D1*
X1526676Y2688931D1*
X1521907D1*
X1517194Y2689676D1*
X1512658Y2691151D1*
X1508407Y2693316D1*
X1504549Y2696120D1*
X1501175Y2699494D1*
X1498372Y2703352D1*
X1496206Y2707603D1*
X1494731Y2712139D1*
X1493986Y2716852D1*
Y2721621D1*
X1494731Y2726334D1*
X1496206Y2730870D1*
X1498372Y2735121D1*
X1501175Y2738979D1*
X1504549Y2742353D1*
X1508407Y2745156D1*
X1512658Y2747322D1*
X1517194Y2748797D1*
X1521907Y2749542D1*
X1526676D1*
X1531389Y2748797D1*
X1535925Y2747322D1*
X1540176Y2745156D1*
X1544034Y2742353D1*
X1547408Y2738979D1*
X1550211Y2735121D1*
X1552377Y2730870D1*
X1553852Y2726334D1*
X1554597Y2721621D1*
Y2716852D1*
X2040007Y2687316D2*
X2039261Y2682604D1*
X2037786Y2678067D1*
X2035621Y2673816D1*
X2032818Y2669958D1*
X2029444Y2666584D1*
X2025586Y2663781D1*
X2021335Y2661616D1*
X2016798Y2660141D1*
X2012086Y2659395D1*
X2007316D1*
X2002604Y2660141D1*
X1998067Y2661616D1*
X1993816Y2663781D1*
X1989958Y2666584D1*
X1986584Y2669958D1*
X1983781Y2673816D1*
X1981616Y2678067D1*
X1980141Y2682604D1*
X1979395Y2687316D1*
Y2692086D1*
X1980141Y2696798D1*
X1981616Y2701335D1*
X1983781Y2705586D1*
X1986584Y2709444D1*
X1989958Y2712818D1*
X1993816Y2715621D1*
X1998067Y2717786D1*
X2002604Y2719261D1*
X2007316Y2720007D1*
X2012086D1*
X2016798Y2719261D1*
X2021335Y2717786D1*
X2025586Y2715621D1*
X2029444Y2712818D1*
X2032818Y2709444D1*
X2035621Y2705586D1*
X2037786Y2701335D1*
X2039261Y2696798D1*
X2040007Y2692086D1*
Y2687316D1*
X2394007Y1445316D2*
X2393261Y1440604D1*
X2391786Y1436067D1*
X2389621Y1431816D1*
X2386818Y1427958D1*
X2383444Y1424584D1*
X2379586Y1421781D1*
X2375335Y1419616D1*
X2370798Y1418141D1*
X2366086Y1417395D1*
X2361316D1*
X2356604Y1418141D1*
X2352067Y1419616D1*
X2347816Y1421781D1*
X2343958Y1424584D1*
X2340584Y1427958D1*
X2337781Y1431816D1*
X2335616Y1436067D1*
X2334141Y1440604D1*
X2333395Y1445316D1*
Y1450086D1*
X2334141Y1454798D1*
X2335616Y1459335D1*
X2337781Y1463586D1*
X2340584Y1467444D1*
X2343958Y1470818D1*
X2347816Y1473621D1*
X2352067Y1475786D1*
X2356604Y1477261D1*
X2361316Y1478007D1*
X2366086D1*
X2370798Y1477261D1*
X2375335Y1475786D1*
X2379586Y1473621D1*
X2383444Y1470818D1*
X2386818Y1467444D1*
X2389621Y1463586D1*
X2391786Y1459335D1*
X2393261Y1454798D1*
X2394007Y1450086D1*
Y1445316D1*
X1168007Y3851316D2*
X1167261Y3846604D1*
X1165786Y3842067D1*
X1163621Y3837816D1*
X1160818Y3833958D1*
X1157444Y3830584D1*
X1153586Y3827781D1*
X1149335Y3825616D1*
X1144798Y3824141D1*
X1140086Y3823395D1*
X1135316D1*
X1130604Y3824141D1*
X1126067Y3825616D1*
X1121816Y3827781D1*
X1117958Y3830584D1*
X1114584Y3833958D1*
X1111781Y3837816D1*
X1109616Y3842067D1*
X1108141Y3846604D1*
X1107395Y3851316D1*
Y3856086D1*
X1108141Y3860798D1*
X1109616Y3865335D1*
X1111781Y3869586D1*
X1114584Y3873444D1*
X1117958Y3876818D1*
X1121816Y3879621D1*
X1126067Y3881786D1*
X1130604Y3883261D1*
X1135316Y3884007D1*
X1140086D1*
X1144798Y3883261D1*
X1149335Y3881786D1*
X1153586Y3879621D1*
X1157444Y3876818D1*
X1160818Y3873444D1*
X1163621Y3869586D1*
X1165786Y3865335D1*
X1167261Y3860798D1*
X1168007Y3856086D1*
Y3851316D1*
X946007Y3619316D2*
X945261Y3614604D1*
X943786Y3610067D1*
X941621Y3605816D1*
X938818Y3601958D1*
X935444Y3598584D1*
X931586Y3595781D1*
X927335Y3593616D1*
X922798Y3592141D1*
X918086Y3591395D1*
X913316D1*
X908604Y3592141D1*
X904067Y3593616D1*
X899816Y3595781D1*
X895958Y3598584D1*
X892584Y3601958D1*
X889781Y3605816D1*
X887616Y3610067D1*
X886141Y3614604D1*
X885395Y3619316D1*
Y3624086D1*
X886141Y3628798D1*
X887616Y3633335D1*
X889781Y3637586D1*
X892584Y3641444D1*
X895958Y3644818D1*
X899816Y3647621D1*
X904067Y3649786D1*
X908604Y3651261D1*
X913316Y3652007D1*
X918086D1*
X922798Y3651261D1*
X927335Y3649786D1*
X931586Y3647621D1*
X935444Y3644818D1*
X938818Y3641444D1*
X941621Y3637586D1*
X943786Y3633335D1*
X945261Y3628798D1*
X946007Y3624086D1*
Y3619316D1*
X2330007Y1445316D2*
X2329261Y1440604D1*
X2327786Y1436067D1*
X2325621Y1431816D1*
X2322818Y1427958D1*
X2319444Y1424584D1*
X2315586Y1421781D1*
X2311335Y1419616D1*
X2306798Y1418141D1*
X2302086Y1417395D1*
X2297316D1*
X2292604Y1418141D1*
X2288067Y1419616D1*
X2283816Y1421781D1*
X2279958Y1424584D1*
X2276584Y1427958D1*
X2273781Y1431816D1*
X2271616Y1436067D1*
X2270141Y1440604D1*
X2269395Y1445316D1*
Y1450086D1*
X2270141Y1454798D1*
X2271616Y1459335D1*
X2273781Y1463586D1*
X2276584Y1467444D1*
X2279958Y1470818D1*
X2283816Y1473621D1*
X2288067Y1475786D1*
X2292604Y1477261D1*
X2297316Y1478007D1*
X2302086D1*
X2306798Y1477261D1*
X2311335Y1475786D1*
X2315586Y1473621D1*
X2319444Y1470818D1*
X2322818Y1467444D1*
X2325621Y1463586D1*
X2327786Y1459335D1*
X2329261Y1454798D1*
X2330007Y1450086D1*
Y1445316D1*
X2456007D2*
X2455261Y1440604D1*
X2453786Y1436067D1*
X2451621Y1431816D1*
X2448818Y1427958D1*
X2445444Y1424584D1*
X2441586Y1421781D1*
X2437335Y1419616D1*
X2432798Y1418141D1*
X2428086Y1417395D1*
X2423316D1*
X2418604Y1418141D1*
X2414067Y1419616D1*
X2409816Y1421781D1*
X2405958Y1424584D1*
X2402584Y1427958D1*
X2399781Y1431816D1*
X2397616Y1436067D1*
X2396141Y1440604D1*
X2395395Y1445316D1*
Y1450086D1*
X2396141Y1454798D1*
X2397616Y1459335D1*
X2399781Y1463586D1*
X2402584Y1467444D1*
X2405958Y1470818D1*
X2409816Y1473621D1*
X2414067Y1475786D1*
X2418604Y1477261D1*
X2423316Y1478007D1*
X2428086D1*
X2432798Y1477261D1*
X2437335Y1475786D1*
X2441586Y1473621D1*
X2445444Y1470818D1*
X2448818Y1467444D1*
X2451621Y1463586D1*
X2453786Y1459335D1*
X2455261Y1454798D1*
X2456007Y1450086D1*
Y1445316D1*
X2258007Y1513316D2*
X2257261Y1508604D1*
X2255786Y1504067D1*
X2253621Y1499816D1*
X2250818Y1495958D1*
X2247444Y1492584D1*
X2243586Y1489781D1*
X2239335Y1487616D1*
X2234798Y1486141D1*
X2230086Y1485395D1*
X2225316D1*
X2220604Y1486141D1*
X2216067Y1487616D1*
X2211816Y1489781D1*
X2207958Y1492584D1*
X2204584Y1495958D1*
X2201781Y1499816D1*
X2199616Y1504067D1*
X2198141Y1508604D1*
X2197395Y1513316D1*
Y1518086D1*
X2198141Y1522798D1*
X2199616Y1527335D1*
X2201781Y1531586D1*
X2204584Y1535444D1*
X2207958Y1538818D1*
X2211816Y1541621D1*
X2216067Y1543786D1*
X2220604Y1545261D1*
X2225316Y1546007D1*
X2230086D1*
X2234798Y1545261D1*
X2239335Y1543786D1*
X2243586Y1541621D1*
X2247444Y1538818D1*
X2250818Y1535444D1*
X2253621Y1531586D1*
X2255786Y1527335D1*
X2257261Y1522798D1*
X2258007Y1518086D1*
Y1513316D1*
X2524007Y1515316D2*
X2523261Y1510604D1*
X2521786Y1506067D1*
X2519621Y1501816D1*
X2516818Y1497958D1*
X2513444Y1494584D1*
X2509586Y1491781D1*
X2505335Y1489616D1*
X2500798Y1488141D1*
X2496086Y1487395D1*
X2491316D1*
X2486604Y1488141D1*
X2482067Y1489616D1*
X2477816Y1491781D1*
X2473958Y1494584D1*
X2470584Y1497958D1*
X2467781Y1501816D1*
X2465616Y1506067D1*
X2464141Y1510604D1*
X2463395Y1515316D1*
Y1520086D1*
X2464141Y1524798D1*
X2465616Y1529335D1*
X2467781Y1533586D1*
X2470584Y1537444D1*
X2473958Y1540818D1*
X2477816Y1543621D1*
X2482067Y1545786D1*
X2486604Y1547261D1*
X2491316Y1548007D1*
X2496086D1*
X2500798Y1547261D1*
X2505335Y1545786D1*
X2509586Y1543621D1*
X2513444Y1540818D1*
X2516818Y1537444D1*
X2519621Y1533586D1*
X2521786Y1529335D1*
X2523261Y1524798D1*
X2524007Y1520086D1*
Y1515316D1*
X2392007Y1513316D2*
X2391261Y1508604D1*
X2389786Y1504067D1*
X2387621Y1499816D1*
X2384818Y1495958D1*
X2381444Y1492584D1*
X2377586Y1489781D1*
X2373335Y1487616D1*
X2368798Y1486141D1*
X2364086Y1485395D1*
X2359316D1*
X2354604Y1486141D1*
X2350067Y1487616D1*
X2345816Y1489781D1*
X2341958Y1492584D1*
X2338584Y1495958D1*
X2335781Y1499816D1*
X2333616Y1504067D1*
X2332141Y1508604D1*
X2331395Y1513316D1*
Y1518086D1*
X2332141Y1522798D1*
X2333616Y1527335D1*
X2335781Y1531586D1*
X2338584Y1535444D1*
X2341958Y1538818D1*
X2345816Y1541621D1*
X2350067Y1543786D1*
X2354604Y1545261D1*
X2359316Y1546007D1*
X2364086D1*
X2368798Y1545261D1*
X2373335Y1543786D1*
X2377586Y1541621D1*
X2381444Y1538818D1*
X2384818Y1535444D1*
X2387621Y1531586D1*
X2389786Y1527335D1*
X2391261Y1522798D1*
X2392007Y1518086D1*
Y1513316D1*
X2270007Y1353316D2*
X2269261Y1348604D1*
X2267786Y1344067D1*
X2265621Y1339816D1*
X2262818Y1335958D1*
X2259444Y1332584D1*
X2255586Y1329781D1*
X2251335Y1327616D1*
X2246798Y1326141D1*
X2242086Y1325395D1*
X2237316D1*
X2232604Y1326141D1*
X2228067Y1327616D1*
X2223816Y1329781D1*
X2219958Y1332584D1*
X2216584Y1335958D1*
X2213781Y1339816D1*
X2211616Y1344067D1*
X2210141Y1348604D1*
X2209395Y1353316D1*
Y1358086D1*
X2210141Y1362798D1*
X2211616Y1367335D1*
X2213781Y1371586D1*
X2216584Y1375444D1*
X2219958Y1378818D1*
X2223816Y1381621D1*
X2228067Y1383786D1*
X2232604Y1385261D1*
X2237316Y1386007D1*
X2242086D1*
X2246798Y1385261D1*
X2251335Y1383786D1*
X2255586Y1381621D1*
X2259444Y1378818D1*
X2262818Y1375444D1*
X2265621Y1371586D1*
X2267786Y1367335D1*
X2269261Y1362798D1*
X2270007Y1358086D1*
Y1353316D1*
X2520007Y1347316D2*
X2519261Y1342604D1*
X2517786Y1338067D1*
X2515621Y1333816D1*
X2512818Y1329958D1*
X2509444Y1326584D1*
X2505586Y1323781D1*
X2501335Y1321616D1*
X2496798Y1320141D1*
X2492086Y1319395D1*
X2487316D1*
X2482604Y1320141D1*
X2478067Y1321616D1*
X2473816Y1323781D1*
X2469958Y1326584D1*
X2466584Y1329958D1*
X2463781Y1333816D1*
X2461616Y1338067D1*
X2460141Y1342604D1*
X2459395Y1347316D1*
Y1352086D1*
X2460141Y1356798D1*
X2461616Y1361335D1*
X2463781Y1365586D1*
X2466584Y1369444D1*
X2469958Y1372818D1*
X2473816Y1375621D1*
X2478067Y1377786D1*
X2482604Y1379261D1*
X2487316Y1380007D1*
X2492086D1*
X2496798Y1379261D1*
X2501335Y1377786D1*
X2505586Y1375621D1*
X2509444Y1372818D1*
X2512818Y1369444D1*
X2515621Y1365586D1*
X2517786Y1361335D1*
X2519261Y1356798D1*
X2520007Y1352086D1*
Y1347316D1*
X914007Y1889316D2*
X913261Y1884604D1*
X911786Y1880067D1*
X909621Y1875816D1*
X906818Y1871958D1*
X903444Y1868584D1*
X899586Y1865781D1*
X895335Y1863616D1*
X890798Y1862141D1*
X886086Y1861395D1*
X881316D1*
X876604Y1862141D1*
X872067Y1863616D1*
X867816Y1865781D1*
X863958Y1868584D1*
X860584Y1871958D1*
X857781Y1875816D1*
X855616Y1880067D1*
X854141Y1884604D1*
X853395Y1889316D1*
Y1894086D1*
X854141Y1898798D1*
X855616Y1903335D1*
X857781Y1907586D1*
X860584Y1911444D1*
X863958Y1914818D1*
X867816Y1917621D1*
X872067Y1919786D1*
X876604Y1921261D1*
X881316Y1922007D1*
X886086D1*
X890798Y1921261D1*
X895335Y1919786D1*
X899586Y1917621D1*
X903444Y1914818D1*
X906818Y1911444D1*
X909621Y1907586D1*
X911786Y1903335D1*
X913261Y1898798D1*
X914007Y1894086D1*
Y1889316D1*
X912007Y2755316D2*
X911261Y2750604D1*
X909786Y2746067D1*
X907621Y2741816D1*
X904818Y2737958D1*
X901444Y2734584D1*
X897586Y2731781D1*
X893335Y2729616D1*
X888798Y2728141D1*
X884086Y2727395D1*
X879316D1*
X874604Y2728141D1*
X870067Y2729616D1*
X865816Y2731781D1*
X861958Y2734584D1*
X858584Y2737958D1*
X855781Y2741816D1*
X853616Y2746067D1*
X852141Y2750604D1*
X851395Y2755316D1*
Y2760086D1*
X852141Y2764798D1*
X853616Y2769335D1*
X855781Y2773586D1*
X858584Y2777444D1*
X861958Y2780818D1*
X865816Y2783621D1*
X870067Y2785786D1*
X874604Y2787261D1*
X879316Y2788007D1*
X884086D1*
X888798Y2787261D1*
X893335Y2785786D1*
X897586Y2783621D1*
X901444Y2780818D1*
X904818Y2777444D1*
X907621Y2773586D1*
X909786Y2769335D1*
X911261Y2764798D1*
X912007Y2760086D1*
Y2755316D1*
X3320007Y2077316D2*
X3319261Y2072604D1*
X3317786Y2068067D1*
X3315621Y2063816D1*
X3312818Y2059958D1*
X3309444Y2056584D1*
X3305586Y2053781D1*
X3301335Y2051616D1*
X3296798Y2050141D1*
X3292086Y2049395D1*
X3287316D1*
X3282604Y2050141D1*
X3278067Y2051616D1*
X3273816Y2053781D1*
X3269958Y2056584D1*
X3266584Y2059958D1*
X3263781Y2063816D1*
X3261616Y2068067D1*
X3260141Y2072604D1*
X3259395Y2077316D1*
Y2082086D1*
X3260141Y2086798D1*
X3261616Y2091335D1*
X3263781Y2095586D1*
X3266584Y2099444D1*
X3269958Y2102818D1*
X3273816Y2105621D1*
X3278067Y2107786D1*
X3282604Y2109261D1*
X3287316Y2110007D1*
X3292086D1*
X3296798Y2109261D1*
X3301335Y2107786D1*
X3305586Y2105621D1*
X3309444Y2102818D1*
X3312818Y2099444D1*
X3315621Y2095586D1*
X3317786Y2091335D1*
X3319261Y2086798D1*
X3320007Y2082086D1*
Y2077316D1*
X3544007Y1561316D2*
X3543261Y1556604D1*
X3541786Y1552067D1*
X3539621Y1547816D1*
X3536818Y1543958D1*
X3533444Y1540584D1*
X3529586Y1537781D1*
X3525335Y1535616D1*
X3520798Y1534141D1*
X3516086Y1533395D1*
X3511316D1*
X3506604Y1534141D1*
X3502067Y1535616D1*
X3497816Y1537781D1*
X3493958Y1540584D1*
X3490584Y1543958D1*
X3487781Y1547816D1*
X3485616Y1552067D1*
X3484141Y1556604D1*
X3483395Y1561316D1*
Y1566086D1*
X3484141Y1570798D1*
X3485616Y1575335D1*
X3487781Y1579586D1*
X3490584Y1583444D1*
X3493958Y1586818D1*
X3497816Y1589621D1*
X3502067Y1591786D1*
X3506604Y1593261D1*
X3511316Y1594007D1*
X3516086D1*
X3520798Y1593261D1*
X3525335Y1591786D1*
X3529586Y1589621D1*
X3533444Y1586818D1*
X3536818Y1583444D1*
X3539621Y1579586D1*
X3541786Y1575335D1*
X3543261Y1570798D1*
X3544007Y1566086D1*
Y1561316D1*
X1378007Y3593316D2*
X1377261Y3588604D1*
X1375786Y3584067D1*
X1373621Y3579816D1*
X1370818Y3575958D1*
X1367444Y3572584D1*
X1363586Y3569781D1*
X1359335Y3567616D1*
X1354798Y3566141D1*
X1350086Y3565395D1*
X1345316D1*
X1340604Y3566141D1*
X1336067Y3567616D1*
X1331816Y3569781D1*
X1327958Y3572584D1*
X1324584Y3575958D1*
X1321781Y3579816D1*
X1319616Y3584067D1*
X1318141Y3588604D1*
X1317395Y3593316D1*
Y3598086D1*
X1318141Y3602798D1*
X1319616Y3607335D1*
X1321781Y3611586D1*
X1324584Y3615444D1*
X1327958Y3618818D1*
X1331816Y3621621D1*
X1336067Y3623786D1*
X1340604Y3625261D1*
X1345316Y3626007D1*
X1350086D1*
X1354798Y3625261D1*
X1359335Y3623786D1*
X1363586Y3621621D1*
X1367444Y3618818D1*
X1370818Y3615444D1*
X1373621Y3611586D1*
X1375786Y3607335D1*
X1377261Y3602798D1*
X1378007Y3598086D1*
Y3593316D1*
X2930110Y1742142D2*
X2980188Y1692065D1*
X2984086Y1692007D1*
X2988798Y1691261D1*
X2993335Y1689786D1*
X2997586Y1687621D1*
X3001444Y1684818D1*
X3004818Y1681444D1*
X3007621Y1677586D1*
X3009786Y1673335D1*
X3011261Y1668798D1*
X3012007Y1664086D1*
Y1659316D1*
X3011261Y1654604D1*
X3009786Y1650067D1*
X3007621Y1645816D1*
X3004818Y1641958D1*
X3001444Y1638584D1*
X2997586Y1635781D1*
X2993335Y1633616D1*
X2988798Y1632141D1*
X2984086Y1631395D1*
X2979316D1*
X2974604Y1632141D1*
X2970067Y1633616D1*
X2965816Y1635781D1*
X2961958Y1638584D1*
X2958584Y1641958D1*
X2955781Y1645816D1*
X2953616Y1650067D1*
X2952141Y1654604D1*
X2951395Y1659316D1*
X2951360Y1663201D1*
X2903070Y1711482D1*
X2899701Y1711301D1*
X2894945Y1711675D1*
X2890307Y1712789D1*
X2885899Y1714614D1*
X2881832Y1717107D1*
X2878205Y1720205D1*
X2875107Y1723832D1*
X2872614Y1727899D1*
X2870789Y1732307D1*
X2869675Y1736945D1*
X2869301Y1741701D1*
X2869675Y1746457D1*
X2870789Y1751095D1*
X2872614Y1755503D1*
X2875107Y1759570D1*
X2878205Y1763197D1*
X2881832Y1766295D1*
X2885899Y1768788D1*
X2890307Y1770613D1*
X2894945Y1771727D1*
X2899701Y1772101D1*
X2904457Y1771727D1*
X2909095Y1770613D1*
X2913503Y1768788D1*
X2917570Y1766295D1*
X2921197Y1763197D1*
X2924295Y1759570D1*
X2926788Y1755503D1*
X2928613Y1751095D1*
X2929727Y1746457D1*
X2930083Y1742158D1*
X2408221Y1728101D2*
X2551150D1*
X2553958Y1730818D1*
X2557816Y1733621D1*
X2562067Y1735786D1*
X2566604Y1737261D1*
X2571316Y1738007D1*
X2576086D1*
X2580798Y1737261D1*
X2585335Y1735786D1*
X2589586Y1733621D1*
X2593444Y1730818D1*
X2596818Y1727444D1*
X2599621Y1723586D1*
X2601786Y1719335D1*
X2603261Y1714798D1*
X2604007Y1710086D1*
Y1705316D1*
X2603261Y1700604D1*
X2601786Y1696067D1*
X2599621Y1691816D1*
X2596818Y1687958D1*
X2593444Y1684584D1*
X2589586Y1681781D1*
X2585335Y1679616D1*
X2580798Y1678141D1*
X2576086Y1677395D1*
X2571316D1*
X2566604Y1678141D1*
X2562067Y1679616D1*
X2557816Y1681781D1*
X2553958Y1684584D1*
X2551187Y1687307D1*
X2408252Y1687301D1*
X2405444Y1684584D1*
X2401586Y1681781D1*
X2397335Y1679616D1*
X2392798Y1678141D1*
X2388086Y1677395D1*
X2383316D1*
X2378604Y1678141D1*
X2374067Y1679616D1*
X2369816Y1681781D1*
X2365958Y1684584D1*
X2362584Y1687958D1*
X2359781Y1691816D1*
X2357616Y1696067D1*
X2356141Y1700604D1*
X2355395Y1705316D1*
Y1710086D1*
X2356141Y1714798D1*
X2357616Y1719335D1*
X2359781Y1723586D1*
X2362584Y1727444D1*
X2365958Y1730818D1*
X2369816Y1733621D1*
X2374067Y1735786D1*
X2378604Y1737261D1*
X2383316Y1738007D1*
X2388086D1*
X2392798Y1737261D1*
X2397335Y1735786D1*
X2401586Y1733621D1*
X2405444Y1730818D1*
X2408215Y1728095D1*
X3229314Y2646565D2*
X3194456Y2681423D1*
X2992353Y2681411D1*
X2989570Y2679107D1*
X2985503Y2676614D1*
X2981095Y2674789D1*
X2976457Y2673675D1*
X2971701Y2673301D1*
X2966945Y2673675D1*
X2962307Y2674789D1*
X2957899Y2676614D1*
X2953832Y2679107D1*
X2950205Y2682205D1*
X2947107Y2685832D1*
X2944614Y2689899D1*
X2942789Y2694307D1*
X2941675Y2698945D1*
X2941301Y2703701D1*
X2941675Y2708457D1*
X2942789Y2713095D1*
X2944614Y2717503D1*
X2947107Y2721570D1*
X2950205Y2725197D1*
X2953832Y2728295D1*
X2957899Y2730788D1*
X2962307Y2732613D1*
X2966945Y2733727D1*
X2971701Y2734101D1*
X2976457Y2733727D1*
X2981095Y2732613D1*
X2985503Y2730788D1*
X2989570Y2728295D1*
X2992355Y2725975D1*
X3205450Y2725923D1*
X3208904Y2725376D1*
X3212231Y2724294D1*
X3215348Y2722706D1*
X3218177Y2720650D1*
X3222998Y2715927D1*
X3260853Y2678072D1*
X3264457Y2677727D1*
X3269095Y2676613D1*
X3273503Y2674788D1*
X3277570Y2672295D1*
X3281197Y2669197D1*
X3284295Y2665570D1*
X3286788Y2661503D1*
X3288613Y2657095D1*
X3289727Y2652457D1*
X3290101Y2647701D1*
X3289727Y2642945D1*
X3288613Y2638307D1*
X3286788Y2633899D1*
X3284295Y2629832D1*
X3281197Y2626205D1*
X3277570Y2623107D1*
X3273503Y2620614D1*
X3269095Y2618789D1*
X3264457Y2617675D1*
X3259701Y2617301D1*
X3254945Y2617675D1*
X3250307Y2618789D1*
X3245899Y2620614D1*
X3241832Y2623107D1*
X3238205Y2626205D1*
X3235107Y2629832D1*
X3232614Y2633899D1*
X3230789Y2638307D1*
X3229675Y2642945D1*
X3229347Y2646555D1*
X3346565Y2676088D2*
X3389225Y2718650D1*
X3392054Y2720706D1*
X3395171Y2722294D1*
X3398498Y2723376D1*
X3401952Y2723923D1*
X3408701Y2723991D1*
X3617041D1*
X3619832Y2726295D1*
X3623899Y2728788D1*
X3628307Y2730613D1*
X3632945Y2731727D1*
X3637701Y2732101D1*
X3642457Y2731727D1*
X3647095Y2730613D1*
X3651503Y2728788D1*
X3655570Y2726295D1*
X3659197Y2723197D1*
X3662295Y2719570D1*
X3664788Y2715503D1*
X3666613Y2711095D1*
X3667727Y2706457D1*
X3668101Y2701701D1*
X3667727Y2696945D1*
X3666613Y2692307D1*
X3664788Y2687899D1*
X3662295Y2683832D1*
X3659197Y2680205D1*
X3655570Y2677107D1*
X3651503Y2674614D1*
X3647095Y2672789D1*
X3642457Y2671675D1*
X3637701Y2671301D1*
X3632945Y2671675D1*
X3628307Y2672789D1*
X3623899Y2674614D1*
X3619832Y2677107D1*
X3617047Y2679427D1*
X3412916Y2679411D1*
X3378072Y2644549D1*
X3377727Y2640945D1*
X3376613Y2636307D1*
X3374788Y2631899D1*
X3372295Y2627832D1*
X3369197Y2624205D1*
X3365570Y2621107D1*
X3361503Y2618614D1*
X3357095Y2616789D1*
X3352457Y2615675D1*
X3347701Y2615301D1*
X3342945Y2615675D1*
X3338307Y2616789D1*
X3333899Y2618614D1*
X3329832Y2621107D1*
X3326205Y2624205D1*
X3323107Y2627832D1*
X3320614Y2631899D1*
X3318789Y2636307D1*
X3317675Y2640945D1*
X3317301Y2645701D1*
X3317675Y2650457D1*
X3318789Y2655095D1*
X3320614Y2659503D1*
X3323107Y2663570D1*
X3326205Y2667197D1*
X3329832Y2670295D1*
X3333899Y2672788D1*
X3338307Y2674613D1*
X3342945Y2675727D1*
X3346555Y2676055D1*
X1796202Y2135352D2*
X1784950Y2124189D1*
X1782360Y2122307D1*
X1779508Y2120853D1*
X1776463Y2119865D1*
X1773302Y2119364D1*
X1761701Y2119301D1*
X906252D1*
X903444Y2116584D1*
X899586Y2113781D1*
X895335Y2111616D1*
X890798Y2110141D1*
X886086Y2109395D1*
X881316D1*
X876604Y2110141D1*
X872067Y2111616D1*
X867816Y2113781D1*
X863958Y2116584D1*
X860584Y2119958D1*
X857781Y2123816D1*
X855616Y2128067D1*
X854141Y2132604D1*
X853395Y2137316D1*
Y2142086D1*
X854141Y2146798D1*
X855616Y2151335D1*
X857781Y2155586D1*
X860584Y2159444D1*
X863958Y2162818D1*
X867816Y2165621D1*
X872067Y2167786D1*
X876604Y2169261D1*
X881316Y2170007D1*
X886086D1*
X890798Y2169261D1*
X895335Y2167786D1*
X899586Y2165621D1*
X903444Y2162818D1*
X906215Y2160095D1*
X1763252Y2160101D1*
X1767344Y2164194D1*
X1767395Y2168086D1*
X1768141Y2172798D1*
X1769616Y2177335D1*
X1771781Y2181586D1*
X1774584Y2185444D1*
X1777958Y2188818D1*
X1781816Y2191621D1*
X1786067Y2193786D1*
X1790604Y2195261D1*
X1795316Y2196007D1*
X1800086D1*
X1804798Y2195261D1*
X1809335Y2193786D1*
X1813586Y2191621D1*
X1817444Y2188818D1*
X1820818Y2185444D1*
X1823621Y2181586D1*
X1825786Y2177335D1*
X1827261Y2172798D1*
X1828007Y2168086D1*
Y2163316D1*
X1827261Y2158604D1*
X1825786Y2154067D1*
X1823621Y2149816D1*
X1820818Y2145958D1*
X1817444Y2142584D1*
X1813586Y2139781D1*
X1809335Y2137616D1*
X1804798Y2136141D1*
X1800086Y2135395D1*
X1796201Y2135360D1*
X2092221Y3380164D2*
X2943158D1*
X2945958Y3382881D1*
X2949816Y3385684D1*
X2954067Y3387849D1*
X2958604Y3389324D1*
X2963316Y3390070D1*
X2968086D1*
X2972798Y3389324D1*
X2977335Y3387849D1*
X2981586Y3385684D1*
X2985444Y3382881D1*
X2988818Y3379507D1*
X2991621Y3375649D1*
X2993786Y3371398D1*
X2995261Y3366861D1*
X2996007Y3362149D1*
Y3357379D1*
X2995261Y3352667D1*
X2993786Y3348130D1*
X2991621Y3343879D1*
X2988818Y3340021D1*
X2985444Y3336647D1*
X2981586Y3333844D1*
X2977335Y3331679D1*
X2972798Y3330204D1*
X2968086Y3329458D1*
X2963316D1*
X2958604Y3330204D1*
X2954067Y3331679D1*
X2949816Y3333844D1*
X2945958Y3336647D1*
X2943187Y3339370D1*
X2092244Y3339364D1*
X2089444Y3336647D1*
X2085586Y3333844D1*
X2081335Y3331679D1*
X2076798Y3330204D1*
X2072086Y3329458D1*
X2067316D1*
X2062604Y3330204D1*
X2058067Y3331679D1*
X2053816Y3333844D1*
X2049958Y3336647D1*
X2046584Y3340021D1*
X2043781Y3343879D1*
X2041616Y3348130D1*
X2040141Y3352667D1*
X2039395Y3357379D1*
Y3362149D1*
X2040141Y3366861D1*
X2041616Y3371398D1*
X2043781Y3375649D1*
X2046584Y3379507D1*
X2049958Y3382881D1*
X2053816Y3385684D1*
X2058067Y3387849D1*
X2062604Y3389324D1*
X2067316Y3390070D1*
X2072086D1*
X2076798Y3389324D1*
X2081335Y3387849D1*
X2085586Y3385684D1*
X2089444Y3382881D1*
X2092215Y3380158D1*
X3353125Y3493991D2*
X3420469D1*
X3458562Y3532084D1*
X3459814Y3534466D1*
X3461870Y3537295D1*
X3477200Y3552722D1*
X3501225Y3576650D1*
X3504054Y3578706D1*
X3507171Y3580294D1*
X3510498Y3581376D1*
X3513952Y3581921D1*
X3520701Y3581991D1*
X4025017D1*
X4027832Y3584295D1*
X4031899Y3586788D1*
X4036307Y3588613D1*
X4040945Y3589727D1*
X4045701Y3590101D1*
X4050457Y3589727D1*
X4055095Y3588613D1*
X4059503Y3586788D1*
X4063570Y3584295D1*
X4067197Y3581197D1*
X4070295Y3577570D1*
X4072788Y3573503D1*
X4074613Y3569095D1*
X4075727Y3564457D1*
X4076101Y3559701D1*
X4075727Y3554945D1*
X4074613Y3550307D1*
X4072788Y3545899D1*
X4070295Y3541832D1*
X4067197Y3538205D1*
X4063570Y3535107D1*
X4059503Y3532614D1*
X4055095Y3530789D1*
X4050457Y3529675D1*
X4045701Y3529301D1*
X4040945Y3529675D1*
X4036307Y3530789D1*
X4031899Y3532614D1*
X4027832Y3535107D1*
X4025047Y3537427D1*
X3524900Y3537411D1*
X3499076Y3511554D1*
X3497824Y3509172D1*
X3495768Y3506343D1*
X3480439Y3490916D1*
X3444177Y3454752D1*
X3441348Y3452696D1*
X3438231Y3451108D1*
X3434904Y3450026D1*
X3431450Y3449481D1*
X3424701Y3449411D1*
X3353118D1*
X3350310Y3447107D1*
X3346243Y3444614D1*
X3341835Y3442789D1*
X3337197Y3441675D1*
X3332441Y3441301D1*
X3327685Y3441675D1*
X3323047Y3442789D1*
X3318639Y3444614D1*
X3314572Y3447107D1*
X3310945Y3450205D1*
X3307847Y3453832D1*
X3305355Y3457899D1*
X3303529Y3462307D1*
X3302415Y3466945D1*
X3302041Y3471701D1*
X3302415Y3476457D1*
X3303529Y3481095D1*
X3305355Y3485503D1*
X3307847Y3489570D1*
X3310945Y3493197D1*
X3314572Y3496295D1*
X3318639Y3498788D1*
X3323047Y3500613D1*
X3327685Y3501727D1*
X3332441Y3502101D1*
X3337197Y3501727D1*
X3341835Y3500613D1*
X3346243Y3498788D1*
X3350310Y3496295D1*
X3353095Y3493975D1*
X428701Y423701D2*
X4300709D1*
Y4300709D1*
X423701D1*
Y423701D1*
X428701D1*
X611701Y2447948D2*
Y2326635D1*
X551045Y2387292D2*
X672357D1*
X2162205Y4119141D2*
Y3968301D1*
X2086785Y4043721D2*
X2237625D1*
X2562205Y4119235D2*
Y3968395D1*
X2486785Y4043815D2*
X2637625D1*
X2262205Y3894519D2*
Y3792891D1*
X2211391Y3843705D2*
X2262205D1*
D29*
X2462205Y781811D3*
D30*
X2362205D3*
X2262205D3*
D31*
X611701Y2111701D3*
D33*
Y2249496D3*
Y2387292D3*
Y2525087D3*
Y2662882D3*
Y2800677D3*
D34*
X2162205Y4043721D3*
X2562205Y4043815D3*
D36*
X2362205Y3843705D3*
X2262205D3*
M02*
