M48
INCH
T01C0.012
T02C0.0354
T03C0.038
T04C0.063
T05C0.0709
T06C0.0807
%
T03
X+008860Y+004040
T02
X+001665Y+004866
X+001665Y+003134
T04
X+001300Y+010920
T05
X+003072Y+010920
T03
X+008000Y+005440
X+008000Y+006440
X+008000Y+007440
T02
X+004280Y+000840
X+005280Y+000840
X+006280Y+000840
X+007280Y+000840
X+008280Y+000840
X+009280Y+000840
T06
X+002800Y+017460
X+002799Y+021460
T02
X+004800Y+019460
X+004800Y+018460
T03
X+013220Y+022780
T01
X+008020Y+010580
X+008020Y+009800
X+008020Y+009000
X+013320Y+004960
X+022220Y+000940
X+018240Y+001180
X+020120Y+003300
X+017040Y+008960
X+015760Y+004960
X+011580Y+001980
X+020320Y+010500
X+020340Y+013200
X+019600Y+003600
X+019440Y+010220
X+016300Y+007760
X+016180Y+006440
X+017340Y+005680
X+017020Y+008420
X+015300Y+009500
X+011620Y+005620
X+013980Y+002040
X+013820Y+003160
X+015700Y+002260
X+015020Y+005060
X+018780Y+004540
X+015980Y+020980
X+016620Y+020200
X+014740Y+019820
X+015640Y+018940
X+013300Y+019440
X+014940Y+015680
X+015680Y+017440
X+013960Y+017460
X+018420Y+017800
X+018540Y+017000
X+018920Y+020840
X+022140Y+013000
X+011400Y+011540
X+012780Y+008780
X+022320Y+003860
X+021380Y+010280
X+014940Y+012300
X+012240Y+001740
X+013240Y+004180
X+009460Y+021120
X+009200Y+016100
X+009060Y+011800
X+004660Y+006180
X+005260Y+003780
X+010260Y+003860
X+022740Y+001780
X+018040Y+012260
X+018480Y+022880
X+022120Y+018580
X+002900Y+015500
X+015720Y+000500
X+005060Y+021820
X+002180Y+010920
X+017360Y+002520
X+019540Y+001140
X+023340Y+010600
X+009160Y+010740
X+009180Y+008820
X+017239Y+004699
X+019160Y+005100
X+014300Y+003460
X+012900Y+011520
X+014540Y+004520
X+016320Y+009240
X+013560Y+007000
X+013660Y+021260
X+020720Y+004940
X+020360Y+019660
X+015600Y+006760
X+019480Y+005680
X+014140Y+021937
X+017140Y+017880
X+007960Y+021300
X+014140Y+018060
X+014780Y+007520
X+019460Y+007520
X+012600Y+015200
X+014510Y+015200
X+015350Y+015200
X+017240Y+015200
X+015120Y+003060
X+021040Y+014460
X+015300Y+007020
X+019480Y+006300
X+020740Y+011340
X+014220Y+005100
X+015040Y+007280
X+019480Y+006920
X+015840Y+003321
X+020800Y+009220
X+015560Y+021920
X+016600Y+021920
X+017760Y+020840
X+017780Y+018880
X+020702Y+002780
X+014720Y+002780
X+017260Y+021960
X+014900Y+000680
X+021300Y+002240
X+020330Y+021530
X+011920Y+001360
X+013300Y+006640
X+011900Y+020841
X+010780Y+014340
X+020740Y+018220
X+015100Y+022000
T00
M30
