G04 DipTrace 3.0.0.2*
G04 SDR_Transmitter.GTS*
%MOIN*%
G04 #@! TF.FileFunction,Soldermask,Top*
G04 #@! TF.Part,Single*
%AMOUTLINE1*5,1,4,0,0,0.066813,-135.0*%
%AMOUTLINE4*5,1,4,0,0,0.066813,-45.0*%
%AMOUTLINE7*5,1,4,0,0,0.066813,45.0*%
%AMOUTLINE10*
4,1,4,
-0.035433,-0.009843,
-0.035433,0.009843,
0.035433,0.009843,
0.035433,-0.009843,
-0.035433,-0.009843,
0*%
%AMOUTLINE13*
4,1,4,
0.009843,-0.035433,
-0.009843,-0.035433,
-0.009843,0.035433,
0.009843,0.035433,
0.009843,-0.035433,
0*%
%AMOUTLINE16*
4,1,10,
-0.023622,0.104331,
-0.023622,0.035095,
-0.047244,0.011473,
-0.047244,-0.078402,
-0.021316,-0.104331,
0.021316,-0.104331,
0.047244,-0.078402,
0.047244,0.011473,
0.023622,0.035095,
0.023622,0.104331,
-0.023622,0.104331,
0*%
%ADD38C,0.070866*%
%ADD57C,0.035433*%
%ADD58C,0.062992*%
%ADD64R,0.050787X0.041339*%
%ADD66R,0.047244X0.066929*%
%ADD68R,0.267717X0.267717*%
%ADD70O,0.041339X0.019685*%
%ADD72O,0.019685X0.041339*%
%ADD74R,0.09252X0.135827*%
%ADD76R,0.09252X0.045276*%
%ADD78R,0.019685X0.062992*%
%ADD80R,0.023622X0.07874*%
%ADD82R,0.047244X0.035433*%
%ADD84R,0.074803X0.03937*%
%ADD86R,0.070866X0.232283*%
%ADD89C,0.07874*%
%ADD93C,0.127953*%
%ADD95C,0.066929*%
%ADD99R,0.066929X0.066929*%
%ADD101R,0.067874X0.067874*%
%ADD103R,0.102362X0.11811*%
%ADD105R,0.165354X0.088583*%
%ADD107R,0.145669X0.088583*%
%ADD109R,0.096457X0.027559*%
%ADD111C,0.067874*%
%ADD113R,0.047244X0.051181*%
%ADD115R,0.051181X0.047244*%
%ADD117R,0.047244X0.047244*%
%ADD124OUTLINE1*%
%ADD127OUTLINE4*%
%ADD130OUTLINE7*%
%ADD133OUTLINE10*%
%ADD136OUTLINE13*%
%ADD139OUTLINE16*%
%FSLAX26Y26*%
G04*
G70*
G90*
G75*
G01*
G04 TopMask*
%LPD*%
D117*
X886000Y1412000D3*
X823008D3*
X690000Y1313008D3*
Y1376000D3*
X1018000Y1434000D3*
Y1371008D3*
X1756000Y1066000D3*
X1818992D3*
X1222000Y1040000D3*
Y977008D3*
X1756000Y938000D3*
X1818992D3*
X1756000Y1130000D3*
X1818992D3*
X688000Y704000D3*
X625008D3*
X688000Y644000D3*
X625008D3*
X687984Y584255D3*
X624992D3*
X688000Y524000D3*
X625008D3*
X1756000Y874000D3*
X1818992D3*
D124*
X1110000Y156000D3*
X1047008D3*
D117*
X1728000Y160000D3*
Y97008D3*
D127*
X1664000Y159999D3*
Y97007D3*
X1672000Y564001D3*
Y626993D3*
D117*
X2172000Y324000D3*
X2234992D3*
X1983504Y1466496D3*
Y1403504D3*
X1978000Y922000D3*
Y859008D3*
X1985000Y1134008D3*
Y1197000D3*
D127*
X1218000Y627999D3*
Y565007D3*
D130*
X1109999Y220000D3*
X1047007D3*
D117*
X1722000Y2249969D3*
Y2312961D3*
X1822000Y1886000D3*
X1884992D3*
X1934000Y1750000D3*
Y1687008D3*
X2118000Y1624000D3*
X2055008D3*
X1012000Y872000D3*
X1074992D3*
X2182000Y1748000D3*
Y1685008D3*
X1996000Y1750000D3*
Y1687008D3*
X1822000Y1826000D3*
X1884992D3*
X1444000Y2241969D3*
Y2304961D3*
X1348031Y1866000D3*
X1285039D3*
X1324102Y1347969D3*
X1387094D3*
X1324000Y1410000D3*
X1386992D3*
X1950000Y2008000D3*
X1887008D3*
X1886000Y1946000D3*
X1823008D3*
X796571Y2035815D3*
X859563D3*
X1304000Y1998000D3*
X1241008D3*
X962000Y1962709D3*
Y2025701D3*
X662634Y1961815D3*
X599642D3*
X1662000Y2249969D3*
Y2312961D3*
X1602000Y2249969D3*
Y2312961D3*
X1542000Y2249969D3*
Y2312961D3*
X1661031Y1348000D3*
X1598039D3*
X1660000Y1412000D3*
X1597008D3*
D115*
X2198000Y572000D3*
X2131071D3*
X2198000Y632000D3*
X2131071D3*
X2198000Y692000D3*
X2131071D3*
X2198000Y752000D3*
X2131071D3*
D113*
X1018000Y952000D3*
Y1018929D3*
D115*
X1068000Y2132000D3*
X1134929D3*
D111*
X886000Y404000D3*
D109*
X258000Y462992D3*
Y431496D3*
Y400000D3*
Y368504D3*
Y337008D3*
D107*
X258984Y593898D3*
Y206102D3*
D105*
X91661Y593898D3*
Y206102D3*
D57*
X166465Y486614D3*
Y313386D3*
D103*
X130000Y1308535D3*
X370157D3*
X130000Y875465D3*
X370157D3*
D58*
X130000Y1092000D3*
D38*
X307165D3*
D101*
X800000Y544000D3*
D111*
Y644000D3*
Y744000D3*
D99*
X428000Y84000D3*
D95*
X528000D3*
X628000D3*
X728000D3*
X828000D3*
X928000D3*
D93*
X280000Y1746000D3*
X279906Y2146000D3*
D89*
X480016Y1946000D3*
Y1846000D3*
D86*
X824000Y1624000D3*
X1009039D3*
D117*
X1264000Y1348000D3*
Y1410992D3*
X1446000Y1348000D3*
Y1410992D3*
X1722000Y1348000D3*
Y1410992D3*
X1538000Y1348000D3*
Y1410992D3*
D111*
X1322000Y2278000D3*
D117*
X690000Y1189969D3*
Y1252961D3*
X956000Y1432992D3*
Y1370000D3*
Y1314992D3*
Y1252000D3*
X1018000Y1316000D3*
Y1253008D3*
X1818000Y1002000D3*
X1755008D3*
X2165496Y157496D3*
Y94504D3*
X2102000Y158000D3*
Y95008D3*
X1923504Y1403504D3*
Y1466496D3*
X2054961Y572000D3*
X1991969D3*
X2056000Y632000D3*
X1993008D3*
X2056031Y692000D3*
X1993039D3*
X2056031Y752000D3*
X1993039D3*
X1925000Y1197000D3*
Y1134008D3*
X2120000Y1748000D3*
Y1685008D3*
X2056000Y1686000D3*
Y1748992D3*
X1076000Y1094000D3*
X1013008D3*
X1996000Y1624000D3*
X1933008D3*
X1262000Y1290000D3*
X1324992D3*
X1260000Y1470000D3*
X1322992D3*
X1388000Y1290000D3*
X1450992D3*
X1388000Y1470000D3*
X1450992D3*
X1948000Y1884000D3*
Y1946992D3*
X666571Y2035815D3*
X729563D3*
X1310000Y2134000D3*
X1247008D3*
X1086031Y2026740D3*
X1023039D3*
X1724228Y1290000D3*
X1661236D3*
X1724000Y1470000D3*
X1661008D3*
X1086000Y1896740D3*
Y1959732D3*
X1024000Y1896740D3*
Y1959732D3*
X1772000Y1642000D3*
Y1704992D3*
X1598228Y1290000D3*
X1535236D3*
X1598000Y1470000D3*
X1535008D3*
D84*
X2080000Y1232000D3*
Y1098142D3*
Y1500000D3*
Y1366142D3*
Y960000D3*
Y826142D3*
D82*
X778000Y1328000D3*
Y1290598D3*
Y1253197D3*
X864575D3*
Y1290598D3*
Y1328000D3*
D80*
X1326000Y870000D3*
X1351591D3*
X1377181D3*
X1402772D3*
X1428362D3*
X1453953D3*
X1479543D3*
X1505134D3*
X1530724D3*
X1556315D3*
X1581906D3*
X1607496D3*
X1633087D3*
X1658677D3*
Y1153472D3*
X1633087Y1153465D3*
X1607496D3*
X1581906D3*
X1556315D3*
X1530724D3*
X1505134D3*
X1479543D3*
X1453953D3*
X1428362D3*
X1402772D3*
X1377181D3*
X1351591D3*
X1326000D3*
D133*
X1666000Y214000D3*
Y233685D3*
Y253370D3*
Y273055D3*
Y292740D3*
Y312425D3*
Y332110D3*
Y351795D3*
Y371480D3*
Y391165D3*
Y410850D3*
Y430535D3*
Y450220D3*
Y469906D3*
Y489591D3*
Y509276D3*
D136*
X1589228Y586047D3*
X1569543D3*
X1549858D3*
X1530173D3*
X1510488D3*
X1490803D3*
X1471118D3*
X1451433D3*
X1431748D3*
X1412063D3*
X1392378D3*
X1372693D3*
X1353008D3*
X1333323D3*
X1313638D3*
X1293953D3*
D133*
X1217181Y509276D3*
Y489591D3*
Y469906D3*
Y450220D3*
Y430535D3*
Y410850D3*
Y391165D3*
Y371480D3*
Y351795D3*
Y332110D3*
Y312425D3*
Y292740D3*
Y273055D3*
Y253370D3*
Y233685D3*
Y214000D3*
D136*
X1293953Y137228D3*
X1313638D3*
X1333323D3*
X1353008D3*
X1372693D3*
X1392378D3*
X1412063D3*
X1431748D3*
X1451433D3*
X1471118D3*
X1490803D3*
X1510488D3*
X1530173D3*
X1549858D3*
X1569543D3*
X1589228D3*
D78*
X2011146Y222854D3*
X2030831D3*
X2050516D3*
X2070201D3*
X2089886D3*
Y396083D3*
X2070201D3*
X2050516D3*
X2030831D3*
X2011146D3*
D76*
X688000Y1072000D3*
Y981449D3*
Y890898D3*
D74*
X916346Y981449D3*
D72*
X1444000Y1838000D3*
X1463685D3*
X1483370D3*
X1503055D3*
X1522740D3*
X1542425D3*
X1562110D3*
X1581795D3*
X1601480D3*
X1621165D3*
X1640850D3*
X1660535D3*
X1680220D3*
X1699906D3*
D70*
X1729433Y1867528D3*
Y1887213D3*
Y1906898D3*
Y1926583D3*
Y1946268D3*
Y1965953D3*
Y1985638D3*
Y2005323D3*
Y2025008D3*
Y2044693D3*
Y2064378D3*
Y2084063D3*
Y2103748D3*
Y2123433D3*
D72*
X1699906Y2152961D3*
X1680220D3*
X1660535D3*
X1640850D3*
X1621165D3*
X1601480D3*
X1581795D3*
X1562110D3*
X1542425D3*
X1522740D3*
X1503055D3*
X1483370D3*
X1463685D3*
X1444000D3*
D70*
X1414467Y2123433D3*
X1414472Y2103748D3*
Y2084063D3*
Y2064378D3*
Y2044693D3*
Y2025008D3*
Y2005323D3*
Y1985638D3*
Y1965953D3*
Y1946268D3*
Y1926583D3*
Y1906898D3*
Y1887213D3*
Y1867528D3*
D68*
X1571950Y1995480D3*
D66*
X844000Y1962000D3*
D139*
X784945Y1891134D3*
D66*
X725890Y1962000D3*
D64*
X1894000Y186000D3*
Y293480D3*
X1823528D3*
Y186000D3*
M02*
