G04 DipTrace 3.0.0.2*
G04 SDR_Transmitter.GTO*
%MOIN*%
G04 #@! TF.FileFunction,Legend,Top*
G04 #@! TF.Part,Single*
%ADD10C,0.009843*%
%ADD20C,0.011811*%
%ADD24C,0.019705*%
%ADD41C,0.018742*%
%ADD44C,0.015713*%
%ADD48C,0.015403*%
%ADD51C,0.015749*%
%ADD55C,0.01542*%
%ADD126C,0.00772*%
%ADD127C,0.006176*%
%ADD128C,0.012351*%
%ADD129C,0.009264*%
%FSLAX26Y26*%
G04*
G70*
G90*
G75*
G01*
G04 TopSilk*
%LPD*%
X2727166Y2277449D2*
D10*
Y2245953D1*
X2725166Y2353449D2*
Y2321953D1*
Y2429449D2*
Y2397953D1*
Y2505449D2*
Y2473953D1*
X2987953Y3709166D2*
X3019449D1*
X3586614Y319882D2*
X3893701D1*
X3604323Y674213D2*
X3649618D1*
X3830697D2*
X3875992D1*
D24*
X3677179Y709638D3*
X3586614Y319882D2*
D10*
Y378944D1*
X3893701Y319882D2*
Y378944D1*
X807080Y926235D2*
X1031520D1*
X807080D2*
Y888827D1*
X1161425Y969528D2*
Y888827D1*
X807080Y758890D2*
Y648647D1*
X1161425Y758890D2*
Y648647D1*
X807080Y518769D2*
Y386851D1*
X1161425D1*
Y390813D2*
Y518769D1*
X1031520Y926235D2*
Y969528D1*
X1161425D1*
X2512205Y801811D2*
Y761811D1*
X2212205Y801811D2*
Y761811D1*
X2487305Y731811D2*
X2237105D1*
X2487305Y831811D2*
X2237105D1*
X2512205Y806811D2*
X2487305Y831811D1*
X2512205Y756811D2*
X2487305Y731811D1*
X2237105D2*
X2212205Y756811D1*
X2237105Y831811D2*
X2212205Y806811D1*
X556583Y2054614D2*
X666819D1*
Y2857764D1*
X556583D1*
Y2054614D1*
X2073205Y4333713D2*
X2650788D1*
Y3765862D1*
X2073205D1*
Y4333713D1*
X2165329Y5150866D2*
X2559067D1*
Y4678718D1*
X2165329D1*
Y5150866D1*
X2150197Y4675532D2*
Y4333713D1*
X2125996Y4678579D2*
X2598401D1*
Y4333713D1*
X2125996D1*
Y4678579D1*
X2574200Y4675532D2*
Y4333713D1*
X1545701Y1372931D2*
X1245701D1*
Y1685431D1*
X1545701D1*
Y1372931D1*
X854168Y2050240D2*
Y1983314D1*
X834488Y2075857D2*
Y1957734D1*
X932910Y2075857D2*
Y1957734D1*
X854168Y1983314D2*
X873859D1*
X854168Y2050240D2*
X873859D1*
X834488Y1957734D2*
X840400D1*
X834488Y2075857D2*
X840400D1*
X932910Y1957734D2*
X927011D1*
X932910Y2075857D2*
X927011D1*
X932910Y2050240D2*
X954572D1*
X962441Y2034493D1*
Y1999080D1*
X932910Y1983314D2*
X954572D1*
X962441Y1999080D1*
D20*
X883705Y2111297D3*
X842168Y2496240D2*
D10*
Y2429314D1*
X822488Y2521857D2*
Y2403734D1*
X920910Y2521857D2*
Y2403734D1*
X842168Y2429314D2*
X861859D1*
X842168Y2496240D2*
X861859D1*
X822488Y2403734D2*
X828400D1*
X822488Y2521857D2*
X828400D1*
X920910Y2403734D2*
X915011D1*
X920910Y2521857D2*
X915011D1*
X920910Y2496240D2*
X942572D1*
X950441Y2480493D1*
Y2445080D1*
X920910Y2429314D2*
X942572D1*
X950441Y2445080D1*
D20*
X871705Y2557297D3*
X852168Y2914240D2*
D10*
Y2847314D1*
X832488Y2939857D2*
Y2821734D1*
X930910Y2939857D2*
Y2821734D1*
X852168Y2847314D2*
X871859D1*
X852168Y2914240D2*
X871859D1*
X832488Y2821734D2*
X838400D1*
X832488Y2939857D2*
X838400D1*
X930910Y2821734D2*
X925011D1*
X930910Y2939857D2*
X925011D1*
X930910Y2914240D2*
X952572D1*
X960441Y2898493D1*
Y2863080D1*
X930910Y2847314D2*
X952572D1*
X960441Y2863080D1*
D20*
X881705Y2975297D3*
X973996Y1333057D2*
D10*
X1123988D1*
Y1195549D1*
X973996D1*
Y1333057D1*
D41*
X958360Y1348673D3*
X3099315Y1610935D2*
D10*
X3508764D1*
X3099315Y1799939D2*
X3508764D1*
Y1610935D2*
Y1799939D1*
X3099315Y1610935D2*
Y1677870D1*
Y1733005D2*
Y1799939D1*
Y1677870D2*
G03X3099315Y1733005I3711J27568D01*
G01*
X1572921Y2675252D2*
X1927299D1*
Y2320874D1*
X1572921D1*
Y2675252D1*
G36*
D2*
Y2643725D1*
X1604449Y2675252D1*
X1572921D1*
G37*
D44*
X1525707Y2673282D3*
X1216998Y3753389D2*
D10*
Y3635273D1*
X1303632D2*
Y3753389D1*
Y3635273D2*
X1216998D1*
Y3753389D2*
X1244559D1*
X1276071D2*
X1303632D1*
X1244559D2*
G03X1276071Y3753389I15756J11D01*
G01*
D48*
X2235372Y1093507D3*
X2234332Y1182756D2*
D10*
X2494162D1*
X2234332Y1292992D2*
X2494162D1*
Y1182756D2*
Y1292992D1*
X2234332Y1182756D2*
Y1292992D1*
X3529281Y3113701D2*
X3539142D1*
Y3123551D1*
X3224161Y3428663D2*
Y3418812D1*
Y3428663D2*
X3234021D1*
X3539142D2*
X3529281D1*
X3539142D2*
Y3418812D1*
X3234021Y3113701D2*
X3224161Y3123551D1*
D51*
X3253707Y3077287D3*
X2324318Y3264173D2*
D10*
X2225912D1*
Y3293713D1*
Y3411798D2*
Y3441339D1*
X2324318D1*
D55*
X2382948Y3255076D3*
X1060187Y3945711D2*
D10*
Y3758211D1*
X910183D1*
X897687D1*
Y3920717D1*
X922680Y3945711D1*
X1060187D1*
X1084455Y1464671D2*
D126*
X1082078Y1469424D1*
X1077270Y1474233D1*
X1072517Y1476609D1*
X1062955D1*
X1058147Y1474233D1*
X1053394Y1469424D1*
X1050962Y1464671D1*
X1048585Y1457486D1*
Y1445492D1*
X1050962Y1438363D1*
X1053394Y1433554D1*
X1058147Y1428801D1*
X1062955Y1426369D1*
X1072517D1*
X1077270Y1428801D1*
X1082078Y1433554D1*
X1084455Y1438363D1*
X1099894Y1466992D2*
X1104703Y1469424D1*
X1111888Y1476554D1*
Y1426369D1*
X814731Y1317705D2*
X809978Y1315329D1*
X805170Y1310520D1*
X802793Y1305767D1*
Y1296205D1*
X805169Y1291397D1*
X809978Y1286644D1*
X814731Y1284212D1*
X821916Y1281835D1*
X833910D1*
X841039Y1284212D1*
X845848Y1286644D1*
X850601Y1291397D1*
X853033Y1296205D1*
Y1305767D1*
X850601Y1310520D1*
X845848Y1315329D1*
X841039Y1317705D1*
X814786Y1335576D2*
X812410D1*
X807601Y1337953D1*
X805225Y1340329D1*
X802848Y1345138D1*
Y1354700D1*
X805225Y1359453D1*
X807601Y1361829D1*
X812410Y1364261D1*
X817163D1*
X821971Y1361829D1*
X829101Y1357076D1*
X853033Y1333144D1*
Y1366638D1*
X1473705Y1190671D2*
X1471329Y1195424D1*
X1466520Y1200233D1*
X1461767Y1202609D1*
X1452205D1*
X1447397Y1200233D1*
X1442644Y1195424D1*
X1440212Y1190671D1*
X1437835Y1183486D1*
Y1171492D1*
X1440212Y1164363D1*
X1442644Y1159554D1*
X1447397Y1154801D1*
X1452205Y1152369D1*
X1461767D1*
X1466520Y1154801D1*
X1471329Y1159554D1*
X1473705Y1164363D1*
X1493953Y1202554D2*
X1520206D1*
X1505891Y1183431D1*
X1513076D1*
X1517829Y1181054D1*
X1520206Y1178677D1*
X1522638Y1171492D1*
Y1166739D1*
X1520206Y1159554D1*
X1515453Y1154746D1*
X1508268Y1152369D1*
X1501083D1*
X1493953Y1154746D1*
X1491576Y1157178D1*
X1489144Y1161931D1*
X2248981Y478580D2*
X2244227Y476203D1*
X2239419Y471395D1*
X2237042Y466642D1*
Y457080D1*
X2239419Y452272D1*
X2244227Y447518D1*
X2248980Y445087D1*
X2256165Y442710D1*
X2268159D1*
X2275289Y445087D1*
X2280097Y447518D1*
X2284850Y452272D1*
X2287282Y457080D1*
Y466642D1*
X2284850Y471395D1*
X2280097Y476203D1*
X2275289Y478580D1*
X2287282Y517951D2*
X2237098D1*
X2270536Y494019D1*
Y529889D1*
X2318981Y479768D2*
X2314227Y477392D1*
X2309419Y472583D1*
X2307042Y467830D1*
Y458268D1*
X2309419Y453460D1*
X2314227Y448707D1*
X2318980Y446275D1*
X2326165Y443898D1*
X2338159D1*
X2345289Y446275D1*
X2350097Y448707D1*
X2354850Y453460D1*
X2357282Y458268D1*
Y467830D1*
X2354850Y472583D1*
X2350097Y477392D1*
X2345289Y479768D1*
X2307098Y523892D2*
Y500016D1*
X2328597Y497639D1*
X2326221Y500016D1*
X2323789Y507201D1*
Y514331D1*
X2326221Y521516D1*
X2330974Y526324D1*
X2338159Y528701D1*
X2342912D1*
X2350097Y526324D1*
X2354906Y521516D1*
X2357282Y514331D1*
Y507201D1*
X2354906Y500016D1*
X2352474Y497639D1*
X2347721Y495207D1*
X2388981Y480984D2*
X2384227Y478608D1*
X2379419Y473799D1*
X2377042Y469046D1*
Y459484D1*
X2379419Y454676D1*
X2384227Y449923D1*
X2388980Y447491D1*
X2396165Y445114D1*
X2408159D1*
X2415289Y447491D1*
X2420097Y449923D1*
X2424850Y454676D1*
X2427282Y459484D1*
Y469046D1*
X2424850Y473799D1*
X2420097Y478607D1*
X2415289Y480984D1*
X2384227Y525108D2*
X2379474Y522732D1*
X2377098Y515547D1*
Y510793D1*
X2379474Y503608D1*
X2386659Y498800D1*
X2398597Y496423D1*
X2410536D1*
X2420097Y498800D1*
X2424906Y503608D1*
X2427282Y510793D1*
Y513170D1*
X2424906Y520300D1*
X2420097Y525108D1*
X2412912Y527485D1*
X2410536D1*
X2403351Y525108D1*
X2398597Y520300D1*
X2396221Y513170D1*
Y510793D1*
X2398597Y503608D1*
X2403351Y498800D1*
X2410536Y496423D1*
X2458981Y479768D2*
X2454227Y477392D1*
X2449419Y472583D1*
X2447042Y467830D1*
Y458268D1*
X2449419Y453460D1*
X2454227Y448707D1*
X2458980Y446275D1*
X2466165Y443898D1*
X2478159D1*
X2485289Y446275D1*
X2490097Y448707D1*
X2494850Y453460D1*
X2497282Y458268D1*
Y467830D1*
X2494850Y472583D1*
X2490097Y477392D1*
X2485289Y479768D1*
X2497282Y504769D2*
X2447098Y528701D1*
Y495207D1*
X3402731Y1992662D2*
X3397978Y1990285D1*
X3393170Y1985477D1*
X3390793Y1980724D1*
Y1971162D1*
X3393169Y1966354D1*
X3397978Y1961601D1*
X3402731Y1959169D1*
X3409916Y1956792D1*
X3421910D1*
X3429039Y1959169D1*
X3433848Y1961601D1*
X3438601Y1966354D1*
X3441033Y1971162D1*
Y1980724D1*
X3438601Y1985477D1*
X3433848Y1990285D1*
X3429039Y1992662D1*
X3390848Y2020039D2*
X3393225Y2012910D1*
X3397978Y2010478D1*
X3402786D1*
X3407540Y2012910D1*
X3409971Y2017663D1*
X3412348Y2027224D1*
X3414725Y2034409D1*
X3419533Y2039163D1*
X3424286Y2041539D1*
X3431471D1*
X3436224Y2039163D1*
X3438656Y2036786D1*
X3441033Y2029601D1*
Y2020039D1*
X3438656Y2012910D1*
X3436224Y2010478D1*
X3431471Y2008101D1*
X3424286D1*
X3419533Y2010478D1*
X3414725Y2015286D1*
X3412348Y2022416D1*
X3409971Y2031978D1*
X3407540Y2036786D1*
X3402786Y2039163D1*
X3397978D1*
X3393225Y2036786D1*
X3390848Y2029601D1*
Y2020039D1*
X3054731Y1995823D2*
X3049978Y1993446D1*
X3045170Y1988638D1*
X3042793Y1983884D1*
Y1974323D1*
X3045169Y1969514D1*
X3049978Y1964761D1*
X3054731Y1962329D1*
X3061916Y1959953D1*
X3073910D1*
X3081039Y1962329D1*
X3085848Y1964761D1*
X3090601Y1969514D1*
X3093033Y1974323D1*
Y1983884D1*
X3090601Y1988638D1*
X3085848Y1993446D1*
X3081039Y1995823D1*
X3059540Y2042379D2*
X3066725Y2039947D1*
X3071533Y2035194D1*
X3073910Y2028008D1*
Y2025632D1*
X3071533Y2018447D1*
X3066725Y2013694D1*
X3059540Y2011262D1*
X3057163D1*
X3049978Y2013694D1*
X3045225Y2018447D1*
X3042848Y2025632D1*
Y2028009D1*
X3045225Y2035194D1*
X3049978Y2039947D1*
X3059540Y2042379D1*
X3071533D1*
X3083471Y2039947D1*
X3090656Y2035193D1*
X3093033Y2028008D1*
Y2023255D1*
X3090656Y2016070D1*
X3085848Y2013694D1*
X3208731Y1975989D2*
X3203978Y1973612D1*
X3199170Y1968804D1*
X3196793Y1964051D1*
Y1954489D1*
X3199169Y1949681D1*
X3203978Y1944927D1*
X3208731Y1942496D1*
X3215916Y1940119D1*
X3227910D1*
X3235039Y1942496D1*
X3239848Y1944927D1*
X3244601Y1949681D1*
X3247033Y1954489D1*
Y1964051D1*
X3244601Y1968804D1*
X3239848Y1973612D1*
X3235039Y1975989D1*
X3206410Y1991428D2*
X3203978Y1996237D1*
X3196848Y2003422D1*
X3247033Y2003421D1*
X3196848Y2033231D2*
X3199225Y2026046D1*
X3206410Y2021237D1*
X3218348Y2018861D1*
X3225533D1*
X3237471Y2021237D1*
X3244656Y2026046D1*
X3247033Y2033231D1*
Y2037984D1*
X3244656Y2045169D1*
X3237471Y2049922D1*
X3225533Y2052354D1*
X3218348D1*
X3206410Y2049922D1*
X3199225Y2045169D1*
X3196848Y2037984D1*
Y2033231D1*
X3206410Y2049922D2*
X3237471Y2021237D1*
X3586731Y1987668D2*
X3581978Y1985291D1*
X3577170Y1980483D1*
X3574793Y1975730D1*
Y1966168D1*
X3577169Y1961360D1*
X3581978Y1956606D1*
X3586731Y1954175D1*
X3593916Y1951798D1*
X3605910D1*
X3613039Y1954175D1*
X3617848Y1956606D1*
X3622601Y1961360D1*
X3625033Y1966168D1*
Y1975730D1*
X3622601Y1980483D1*
X3617848Y1985291D1*
X3613039Y1987668D1*
X3584410Y2003107D2*
X3581978Y2007916D1*
X3574848Y2015101D1*
X3625033D1*
X3584410Y2030540D2*
X3581978Y2035348D1*
X3574848Y2042533D1*
X3625033D1*
X1379791Y2889542D2*
X1377414Y2894295D1*
X1372606Y2899104D1*
X1367852Y2901481D1*
X1358291D1*
X1353482Y2899104D1*
X1348729Y2894295D1*
X1346297Y2889542D1*
X1343921Y2882357D1*
Y2870364D1*
X1346297Y2863234D1*
X1348729Y2858426D1*
X1353482Y2853672D1*
X1358291Y2851241D1*
X1367852D1*
X1372606Y2853672D1*
X1377414Y2858426D1*
X1379791Y2863234D1*
X1395230Y2891864D2*
X1400038Y2894295D1*
X1407223Y2901425D1*
Y2851241D1*
X1425094Y2889487D2*
Y2891864D1*
X1427471Y2896672D1*
X1429848Y2899049D1*
X1434656Y2901425D1*
X1444218D1*
X1448971Y2899049D1*
X1451347Y2896672D1*
X1453779Y2891864D1*
Y2887110D1*
X1451347Y2882302D1*
X1446594Y2875172D1*
X1422663Y2851241D1*
X1456156D1*
X3582918Y1504671D2*
X3580541Y1509424D1*
X3575733Y1514233D1*
X3570980Y1516609D1*
X3561418D1*
X3556610Y1514233D1*
X3551856Y1509424D1*
X3549425Y1504671D1*
X3547048Y1497486D1*
Y1485492D1*
X3549425Y1478363D1*
X3551856Y1473554D1*
X3556610Y1468801D1*
X3561418Y1466369D1*
X3570980D1*
X3575733Y1468801D1*
X3580541Y1473554D1*
X3582918Y1478363D1*
X3598357Y1506992D2*
X3603166Y1509424D1*
X3610351Y1516554D1*
Y1466369D1*
X3630598Y1516554D2*
X3656851D1*
X3642537Y1497431D1*
X3649722D1*
X3654475Y1495054D1*
X3656851Y1492677D1*
X3659283Y1485492D1*
Y1480739D1*
X3656851Y1473554D1*
X3652098Y1468746D1*
X3644913Y1466369D1*
X3637728D1*
X3630598Y1468746D1*
X3628222Y1471178D1*
X3625790Y1475931D1*
X2229730Y2730671D2*
X2227353Y2735424D1*
X2222545Y2740233D1*
X2217791Y2742609D1*
X2208230D1*
X2203421Y2740233D1*
X2198668Y2735424D1*
X2196236Y2730671D1*
X2193860Y2723486D1*
Y2711492D1*
X2196236Y2704363D1*
X2198668Y2699554D1*
X2203421Y2694801D1*
X2208230Y2692369D1*
X2217791D1*
X2222545Y2694801D1*
X2227353Y2699554D1*
X2229730Y2704363D1*
X2245169Y2732992D2*
X2249977Y2735424D1*
X2257162Y2742554D1*
Y2692369D1*
X2296533D2*
Y2742554D1*
X2272602Y2709116D1*
X2308471D1*
X1630731Y1971989D2*
X1625978Y1969612D1*
X1621170Y1964804D1*
X1618793Y1960051D1*
Y1950489D1*
X1621169Y1945681D1*
X1625978Y1940927D1*
X1630731Y1938496D1*
X1637916Y1936119D1*
X1649910D1*
X1657039Y1938496D1*
X1661848Y1940927D1*
X1666601Y1945681D1*
X1669033Y1950489D1*
Y1960051D1*
X1666601Y1964804D1*
X1661848Y1969612D1*
X1657039Y1971989D1*
X1628410Y1987428D2*
X1625978Y1992237D1*
X1618848Y1999422D1*
X1669033Y1999421D1*
X1618848Y2043546D2*
Y2019669D1*
X1640348Y2017293D1*
X1637971Y2019669D1*
X1635540Y2026854D1*
Y2033984D1*
X1637971Y2041169D1*
X1642725Y2045977D1*
X1649910Y2048354D1*
X1654663D1*
X1661848Y2045977D1*
X1666656Y2041169D1*
X1669033Y2033984D1*
Y2026854D1*
X1666656Y2019669D1*
X1664224Y2017293D1*
X1659471Y2014861D1*
X1974731Y2011205D2*
X1969978Y2008828D1*
X1965170Y2004020D1*
X1962793Y1999267D1*
Y1989705D1*
X1965169Y1984896D1*
X1969978Y1980143D1*
X1974731Y1977711D1*
X1981916Y1975335D1*
X1993910D1*
X2001039Y1977711D1*
X2005848Y1980143D1*
X2010601Y1984896D1*
X2013033Y1989705D1*
Y1999266D1*
X2010601Y2004020D1*
X2005848Y2008828D1*
X2001039Y2011205D1*
X1972410Y2026644D2*
X1969978Y2031452D1*
X1962848Y2038637D1*
X2013033D1*
X1969978Y2082762D2*
X1965225Y2080385D1*
X1962848Y2073200D1*
Y2068447D1*
X1965225Y2061262D1*
X1972410Y2056453D1*
X1984348Y2054077D1*
X1996286D1*
X2005848Y2056453D1*
X2010656Y2061262D1*
X2013033Y2068447D1*
Y2070823D1*
X2010656Y2077953D1*
X2005848Y2082762D1*
X1998663Y2085138D1*
X1996286D1*
X1989101Y2082762D1*
X1984348Y2077953D1*
X1981971Y2070823D1*
Y2068447D1*
X1984348Y2061262D1*
X1989101Y2056453D1*
X1996286Y2054077D1*
X1187989Y2486671D2*
X1185612Y2491424D1*
X1180804Y2496233D1*
X1176051Y2498609D1*
X1166489D1*
X1161680Y2496233D1*
X1156927Y2491424D1*
X1154495Y2486671D1*
X1152119Y2479486D1*
Y2467492D1*
X1154495Y2460363D1*
X1156927Y2455554D1*
X1161680Y2450801D1*
X1166489Y2448369D1*
X1176051D1*
X1180804Y2450801D1*
X1185612Y2455554D1*
X1187989Y2460363D1*
X1203428Y2488992D2*
X1208236Y2491424D1*
X1215421Y2498554D1*
Y2448369D1*
X1240422D2*
X1264354Y2498554D1*
X1230861D1*
X1188946Y2420671D2*
X1186569Y2425424D1*
X1181760Y2430233D1*
X1177007Y2432609D1*
X1167446D1*
X1162637Y2430233D1*
X1157884Y2425424D1*
X1155452Y2420671D1*
X1153076Y2413486D1*
Y2401492D1*
X1155452Y2394363D1*
X1157884Y2389554D1*
X1162637Y2384801D1*
X1167446Y2382369D1*
X1177007D1*
X1181760Y2384801D1*
X1186569Y2389554D1*
X1188946Y2394363D1*
X1204385Y2422992D2*
X1209193Y2425424D1*
X1216378Y2432554D1*
Y2382369D1*
X1243756Y2432554D2*
X1236626Y2430177D1*
X1234194Y2425424D1*
Y2420616D1*
X1236626Y2415862D1*
X1241379Y2413431D1*
X1250941Y2411054D1*
X1258126Y2408677D1*
X1262879Y2403869D1*
X1265256Y2399116D1*
Y2391931D1*
X1262879Y2387178D1*
X1260502Y2384746D1*
X1253317Y2382369D1*
X1243756D1*
X1236626Y2384746D1*
X1234194Y2387178D1*
X1231817Y2391931D1*
Y2399116D1*
X1234194Y2403869D1*
X1239003Y2408677D1*
X1246132Y2411054D1*
X1255694Y2413431D1*
X1260502Y2415862D1*
X1262879Y2420616D1*
Y2425424D1*
X1260502Y2430177D1*
X1253317Y2432554D1*
X1243756D1*
X1187177Y2354671D2*
X1184800Y2359424D1*
X1179992Y2364233D1*
X1175239Y2366609D1*
X1165677D1*
X1160869Y2364233D1*
X1156116Y2359424D1*
X1153684Y2354671D1*
X1151307Y2347486D1*
Y2335492D1*
X1153684Y2328363D1*
X1156116Y2323554D1*
X1160869Y2318801D1*
X1165677Y2316369D1*
X1175239D1*
X1179992Y2318801D1*
X1184800Y2323554D1*
X1187177Y2328363D1*
X1202616Y2356992D2*
X1207425Y2359424D1*
X1214610Y2366554D1*
Y2316369D1*
X1261166Y2349862D2*
X1258734Y2342677D1*
X1253981Y2337869D1*
X1246796Y2335492D1*
X1244419D1*
X1237234Y2337869D1*
X1232481Y2342677D1*
X1230049Y2349862D1*
Y2352239D1*
X1232481Y2359424D1*
X1237234Y2364177D1*
X1244419Y2366554D1*
X1246796D1*
X1253981Y2364177D1*
X1258734Y2359424D1*
X1261166Y2349862D1*
Y2337869D1*
X1258734Y2325931D1*
X1253981Y2318746D1*
X1246796Y2316369D1*
X1242043D1*
X1234857Y2318746D1*
X1232481Y2323554D1*
X1396731Y3475239D2*
X1391978Y3472862D1*
X1387170Y3468054D1*
X1384793Y3463301D1*
Y3453739D1*
X1387169Y3448931D1*
X1391978Y3444177D1*
X1396731Y3441746D1*
X1403916Y3439369D1*
X1415910D1*
X1423039Y3441746D1*
X1427848Y3444177D1*
X1432601Y3448931D1*
X1435033Y3453739D1*
Y3463301D1*
X1432601Y3468054D1*
X1427848Y3472862D1*
X1423039Y3475239D1*
X1396786Y3493110D2*
X1394410D1*
X1389601Y3495487D1*
X1387225Y3497863D1*
X1384848Y3502672D1*
Y3512233D1*
X1387225Y3516986D1*
X1389601Y3519363D1*
X1394410Y3521795D1*
X1399163D1*
X1403971Y3519363D1*
X1411101Y3514610D1*
X1435033Y3490678D1*
Y3524171D1*
X1384848Y3553981D2*
X1387225Y3546796D1*
X1394410Y3541987D1*
X1406348Y3539611D1*
X1413533D1*
X1425471Y3541987D1*
X1432656Y3546796D1*
X1435033Y3553981D1*
Y3558734D1*
X1432656Y3565919D1*
X1425471Y3570672D1*
X1413533Y3573104D1*
X1406348D1*
X1394410Y3570672D1*
X1387225Y3565919D1*
X1384848Y3558734D1*
Y3553981D1*
X1394410Y3570672D2*
X1425471Y3541987D1*
X1236918Y3944671D2*
X1234541Y3949424D1*
X1229733Y3954233D1*
X1224980Y3956609D1*
X1215418D1*
X1210610Y3954233D1*
X1205856Y3949424D1*
X1203425Y3944671D1*
X1201048Y3937486D1*
Y3925492D1*
X1203425Y3918363D1*
X1205856Y3913554D1*
X1210610Y3908801D1*
X1215418Y3906369D1*
X1224980D1*
X1229733Y3908801D1*
X1234541Y3913554D1*
X1236918Y3918363D1*
X1254789Y3944616D2*
Y3946992D1*
X1257166Y3951801D1*
X1259542Y3954177D1*
X1264351Y3956554D1*
X1273912D1*
X1278665Y3954177D1*
X1281042Y3951801D1*
X1283474Y3946992D1*
Y3942239D1*
X1281042Y3937431D1*
X1276289Y3930301D1*
X1252357Y3906369D1*
X1285850D1*
X1301290Y3946992D2*
X1306098Y3949424D1*
X1313283Y3956554D1*
Y3906369D1*
X708322Y1909365D2*
X703569Y1906988D1*
X698760Y1902180D1*
X696383Y1897427D1*
Y1887865D1*
X698760Y1883057D1*
X703568Y1878303D1*
X708322Y1875872D1*
X715507Y1873495D1*
X727500D1*
X734630Y1875872D1*
X739438Y1878303D1*
X744192Y1883057D1*
X746624Y1887865D1*
Y1897427D1*
X744192Y1902180D1*
X739438Y1906988D1*
X734630Y1909365D1*
X708377Y1927236D2*
X706000D1*
X701192Y1929613D1*
X698815Y1931989D1*
X696439Y1936798D1*
Y1946359D1*
X698815Y1951112D1*
X701192Y1953489D1*
X706000Y1955921D1*
X710754D1*
X715562Y1953489D1*
X722692Y1948736D1*
X746623Y1924804D1*
Y1958297D1*
X708377Y1976169D2*
X706000D1*
X701192Y1978545D1*
X698815Y1980922D1*
X696439Y1985730D1*
Y1995292D1*
X698815Y2000045D1*
X701192Y2002422D1*
X706000Y2004853D1*
X710754D1*
X715562Y2002422D1*
X722692Y1997668D1*
X746623Y1973737D1*
Y2007230D1*
X700731Y2425239D2*
X695978Y2422862D1*
X691170Y2418054D1*
X688793Y2413301D1*
Y2403739D1*
X691169Y2398931D1*
X695978Y2394177D1*
X700731Y2391746D1*
X707916Y2389369D1*
X719910D1*
X727039Y2391746D1*
X731848Y2394177D1*
X736601Y2398931D1*
X739033Y2403739D1*
Y2413301D1*
X736601Y2418054D1*
X731848Y2422862D1*
X727039Y2425239D1*
X700786Y2443110D2*
X698410D1*
X693601Y2445487D1*
X691225Y2447863D1*
X688848Y2452672D1*
Y2462233D1*
X691225Y2466986D1*
X693601Y2469363D1*
X698410Y2471795D1*
X703163D1*
X707971Y2469363D1*
X715101Y2464610D1*
X739033Y2440678D1*
Y2474171D1*
X688848Y2494419D2*
Y2520672D1*
X707971Y2506357D1*
Y2513542D1*
X710348Y2518296D1*
X712725Y2520672D1*
X719910Y2523104D1*
X724663D1*
X731848Y2520672D1*
X736656Y2515919D1*
X739033Y2508734D1*
Y2501549D1*
X736656Y2494419D1*
X734224Y2492043D1*
X729471Y2489611D1*
X698731Y2788051D2*
X693978Y2785674D1*
X689170Y2780866D1*
X686793Y2776112D1*
Y2766551D1*
X689169Y2761742D1*
X693978Y2756989D1*
X698731Y2754557D1*
X705916Y2752181D1*
X717910D1*
X725039Y2754557D1*
X729848Y2756989D1*
X734601Y2761742D1*
X737033Y2766551D1*
Y2776112D1*
X734601Y2780866D1*
X729848Y2785674D1*
X725039Y2788051D1*
X698786Y2805922D2*
X696410D1*
X691601Y2808298D1*
X689225Y2810675D1*
X686848Y2815483D1*
Y2825045D1*
X689225Y2829798D1*
X691601Y2832175D1*
X696410Y2834607D1*
X701163D1*
X705971Y2832175D1*
X713101Y2827422D1*
X737033Y2803490D1*
Y2836983D1*
Y2876354D2*
X686848D1*
X720286Y2852422D1*
Y2888292D1*
X1862731Y1949239D2*
X1857978Y1946862D1*
X1853170Y1942054D1*
X1850793Y1937301D1*
Y1927739D1*
X1853169Y1922931D1*
X1857978Y1918177D1*
X1862731Y1915746D1*
X1869916Y1913369D1*
X1881910D1*
X1889039Y1915746D1*
X1893848Y1918177D1*
X1898601Y1922931D1*
X1901033Y1927739D1*
Y1937301D1*
X1898601Y1942054D1*
X1893848Y1946862D1*
X1889039Y1949239D1*
X1862786Y1967110D2*
X1860410D1*
X1855601Y1969487D1*
X1853225Y1971863D1*
X1850848Y1976672D1*
Y1986233D1*
X1853225Y1990986D1*
X1855601Y1993363D1*
X1860410Y1995795D1*
X1865163D1*
X1869971Y1993363D1*
X1877101Y1988610D1*
X1901033Y1964678D1*
Y1998171D1*
X1850848Y2042296D2*
Y2018419D1*
X1872348Y2016043D1*
X1869971Y2018419D1*
X1867540Y2025604D1*
Y2032734D1*
X1869971Y2039919D1*
X1874725Y2044727D1*
X1881910Y2047104D1*
X1886663D1*
X1893848Y2044727D1*
X1898656Y2039919D1*
X1901033Y2032734D1*
Y2025604D1*
X1898656Y2018419D1*
X1896224Y2016043D1*
X1891471Y2013611D1*
X2231384Y2666671D2*
X2229007Y2671424D1*
X2224199Y2676233D1*
X2219446Y2678609D1*
X2209884D1*
X2205076Y2676233D1*
X2200322Y2671424D1*
X2197891Y2666671D1*
X2195514Y2659486D1*
Y2647492D1*
X2197891Y2640363D1*
X2200322Y2635554D1*
X2205076Y2630801D1*
X2209884Y2628369D1*
X2219446D1*
X2224199Y2630801D1*
X2229007Y2635554D1*
X2231384Y2640363D1*
X2249255Y2666616D2*
Y2668992D1*
X2251632Y2673801D1*
X2254008Y2676177D1*
X2258817Y2678554D1*
X2268378D1*
X2273131Y2676177D1*
X2275508Y2673801D1*
X2277940Y2668992D1*
Y2664239D1*
X2275508Y2659431D1*
X2270755Y2652301D1*
X2246823Y2628369D1*
X2280316D1*
X2324441Y2671424D2*
X2322064Y2676177D1*
X2314879Y2678554D1*
X2310126D1*
X2302941Y2676177D1*
X2298132Y2668992D1*
X2295756Y2657054D1*
Y2645116D1*
X2298132Y2635554D1*
X2302941Y2630746D1*
X2310126Y2628369D1*
X2312502D1*
X2319632Y2630746D1*
X2324441Y2635554D1*
X2326817Y2642739D1*
Y2645116D1*
X2324441Y2652301D1*
X2319632Y2657054D1*
X2312502Y2659431D1*
X2310126D1*
X2302941Y2657054D1*
X2298132Y2652301D1*
X2295756Y2645116D1*
X3298731Y3713664D2*
X3293978Y3711288D1*
X3289170Y3706479D1*
X3286793Y3701726D1*
Y3692164D1*
X3289169Y3687356D1*
X3293978Y3682603D1*
X3298731Y3680171D1*
X3305916Y3677794D1*
X3317910D1*
X3325039Y3680171D1*
X3329848Y3682603D1*
X3334601Y3687356D1*
X3337033Y3692164D1*
Y3701726D1*
X3334601Y3706479D1*
X3329848Y3711287D1*
X3325039Y3713664D1*
X3298786Y3731535D2*
X3296410D1*
X3291601Y3733912D1*
X3289225Y3736288D1*
X3286848Y3741097D1*
Y3750658D1*
X3289225Y3755412D1*
X3291601Y3757788D1*
X3296410Y3760220D1*
X3301163D1*
X3305971Y3757788D1*
X3313101Y3753035D1*
X3337033Y3729103D1*
Y3762597D1*
Y3787597D2*
X3286848Y3811529D1*
Y3778036D1*
X3824196Y3138671D2*
X3821819Y3143424D1*
X3817011Y3148233D1*
X3812257Y3150609D1*
X3802696D1*
X3797887Y3148233D1*
X3793134Y3143424D1*
X3790702Y3138671D1*
X3788326Y3131486D1*
Y3119492D1*
X3790702Y3112363D1*
X3793134Y3107554D1*
X3797887Y3102801D1*
X3802696Y3100369D1*
X3812257D1*
X3817011Y3102801D1*
X3821819Y3107554D1*
X3824196Y3112363D1*
X3842067Y3138616D2*
Y3140992D1*
X3844443Y3145801D1*
X3846820Y3148177D1*
X3851628Y3150554D1*
X3861190D1*
X3865943Y3148177D1*
X3868320Y3145801D1*
X3870752Y3140992D1*
Y3136239D1*
X3868320Y3131431D1*
X3863567Y3124301D1*
X3839635Y3100369D1*
X3873128D1*
X3900506Y3150554D2*
X3893376Y3148177D1*
X3890944Y3143424D1*
Y3138616D1*
X3893376Y3133862D1*
X3898129Y3131431D1*
X3907691Y3129054D1*
X3914876Y3126677D1*
X3919629Y3121869D1*
X3922005Y3117116D1*
Y3109931D1*
X3919629Y3105178D1*
X3917252Y3102746D1*
X3910067Y3100369D1*
X3900506D1*
X3893376Y3102746D1*
X3890944Y3105178D1*
X3888567Y3109931D1*
Y3117116D1*
X3890944Y3121869D1*
X3895752Y3126677D1*
X3902882Y3129054D1*
X3912444Y3131431D1*
X3917252Y3133862D1*
X3919629Y3138616D1*
Y3143424D1*
X3917252Y3148177D1*
X3910067Y3150554D1*
X3900506D1*
X3540731Y3714852D2*
X3535978Y3712476D1*
X3531170Y3707667D1*
X3528793Y3702914D1*
Y3693353D1*
X3531169Y3688544D1*
X3535978Y3683791D1*
X3540731Y3681359D1*
X3547916Y3678983D1*
X3559910D1*
X3567039Y3681359D1*
X3571848Y3683791D1*
X3576601Y3688544D1*
X3579033Y3693353D1*
Y3702914D1*
X3576601Y3707667D1*
X3571848Y3712476D1*
X3567039Y3714852D1*
X3540786Y3732723D2*
X3538410D1*
X3533601Y3735100D1*
X3531225Y3737477D1*
X3528848Y3742285D1*
Y3751847D1*
X3531225Y3756600D1*
X3533601Y3758976D1*
X3538410Y3761408D1*
X3543163D1*
X3547971Y3758976D1*
X3555101Y3754223D1*
X3579033Y3730292D1*
Y3763785D1*
X3545540Y3810341D2*
X3552725Y3807909D1*
X3557533Y3803156D1*
X3559910Y3795971D1*
Y3793594D1*
X3557533Y3786409D1*
X3552725Y3781656D1*
X3545540Y3779224D1*
X3543163D1*
X3535978Y3781656D1*
X3531225Y3786409D1*
X3528848Y3793594D1*
Y3795971D1*
X3531225Y3803156D1*
X3535978Y3807909D1*
X3545540Y3810341D1*
X3557533D1*
X3569471Y3807909D1*
X3576656Y3803156D1*
X3579033Y3795971D1*
Y3791218D1*
X3576656Y3784033D1*
X3571848Y3781656D1*
X3674168Y3300671D2*
X3671791Y3305424D1*
X3666983Y3310233D1*
X3662230Y3312609D1*
X3652668D1*
X3647860Y3310233D1*
X3643106Y3305424D1*
X3640675Y3300671D1*
X3638298Y3293486D1*
Y3281492D1*
X3640675Y3274363D1*
X3643106Y3269554D1*
X3647860Y3264801D1*
X3652668Y3262369D1*
X3662230D1*
X3666983Y3264801D1*
X3671791Y3269554D1*
X3674168Y3274363D1*
X3694416Y3312554D2*
X3720669D1*
X3706354Y3293431D1*
X3713539D1*
X3718292Y3291054D1*
X3720669Y3288677D1*
X3723101Y3281492D1*
Y3276739D1*
X3720669Y3269554D1*
X3715915Y3264746D1*
X3708730Y3262369D1*
X3701545D1*
X3694416Y3264746D1*
X3692039Y3267178D1*
X3689607Y3271931D1*
X3752910Y3312554D2*
X3745725Y3310177D1*
X3740916Y3302992D1*
X3738540Y3291054D1*
Y3283869D1*
X3740916Y3271931D1*
X3745725Y3264746D1*
X3752910Y3262369D1*
X3757663D1*
X3764848Y3264746D1*
X3769601Y3271931D1*
X3772033Y3283869D1*
Y3291054D1*
X3769601Y3302992D1*
X3764848Y3310177D1*
X3757663Y3312554D1*
X3752910D1*
X3769601Y3302992D2*
X3740916Y3271931D1*
X3828918Y3280671D2*
X3826541Y3285424D1*
X3821733Y3290233D1*
X3816980Y3292609D1*
X3807418D1*
X3802610Y3290233D1*
X3797856Y3285424D1*
X3795425Y3280671D1*
X3793048Y3273486D1*
Y3261492D1*
X3795425Y3254363D1*
X3797856Y3249554D1*
X3802610Y3244801D1*
X3807418Y3242369D1*
X3816980D1*
X3821733Y3244801D1*
X3826541Y3249554D1*
X3828918Y3254363D1*
X3849166Y3292554D2*
X3875419D1*
X3861104Y3273431D1*
X3868289D1*
X3873042Y3271054D1*
X3875419Y3268677D1*
X3877850Y3261492D1*
Y3256739D1*
X3875419Y3249554D1*
X3870665Y3244746D1*
X3863480Y3242369D1*
X3856295D1*
X3849166Y3244746D1*
X3846789Y3247178D1*
X3844357Y3251931D1*
X3893290Y3282992D2*
X3898098Y3285424D1*
X3905283Y3292554D1*
Y3242369D1*
X3831239Y3420671D2*
X3828862Y3425424D1*
X3824054Y3430233D1*
X3819301Y3432609D1*
X3809739D1*
X3804931Y3430233D1*
X3800177Y3425424D1*
X3797745Y3420671D1*
X3795369Y3413486D1*
Y3401492D1*
X3797745Y3394363D1*
X3800177Y3389554D1*
X3804931Y3384801D1*
X3809739Y3382369D1*
X3819301D1*
X3824054Y3384801D1*
X3828862Y3389554D1*
X3831239Y3394363D1*
X3851487Y3432554D2*
X3877740D1*
X3863425Y3413431D1*
X3870610D1*
X3875363Y3411054D1*
X3877740Y3408677D1*
X3880171Y3401492D1*
Y3396739D1*
X3877740Y3389554D1*
X3872986Y3384746D1*
X3865801Y3382369D1*
X3858616D1*
X3851487Y3384746D1*
X3849110Y3387178D1*
X3846678Y3391931D1*
X3898043Y3420616D2*
Y3422992D1*
X3900419Y3427801D1*
X3902796Y3430177D1*
X3907604Y3432554D1*
X3917166D1*
X3921919Y3430177D1*
X3924296Y3427801D1*
X3926727Y3422992D1*
Y3418239D1*
X3924296Y3413431D1*
X3919542Y3406301D1*
X3895611Y3382369D1*
X3929104D1*
X3831239Y3486671D2*
X3828862Y3491424D1*
X3824054Y3496233D1*
X3819301Y3498609D1*
X3809739D1*
X3804931Y3496233D1*
X3800177Y3491424D1*
X3797745Y3486671D1*
X3795369Y3479486D1*
Y3467492D1*
X3797745Y3460363D1*
X3800177Y3455554D1*
X3804931Y3450801D1*
X3809739Y3448369D1*
X3819301D1*
X3824054Y3450801D1*
X3828862Y3455554D1*
X3831239Y3460363D1*
X3851487Y3498554D2*
X3877740D1*
X3863425Y3479431D1*
X3870610D1*
X3875363Y3477054D1*
X3877740Y3474677D1*
X3880171Y3467492D1*
Y3462739D1*
X3877740Y3455554D1*
X3872986Y3450746D1*
X3865801Y3448369D1*
X3858616D1*
X3851487Y3450746D1*
X3849110Y3453178D1*
X3846678Y3457931D1*
X3900419Y3498554D2*
X3926672D1*
X3912357Y3479431D1*
X3919542D1*
X3924296Y3477054D1*
X3926672Y3474677D1*
X3929104Y3467492D1*
Y3462739D1*
X3926672Y3455554D1*
X3921919Y3450746D1*
X3914734Y3448369D1*
X3907549D1*
X3900419Y3450746D1*
X3898043Y3453178D1*
X3895611Y3457931D1*
X3826980Y3210671D2*
X3824603Y3215424D1*
X3819795Y3220233D1*
X3815041Y3222609D1*
X3805480D1*
X3800671Y3220233D1*
X3795918Y3215424D1*
X3793486Y3210671D1*
X3791110Y3203486D1*
Y3191492D1*
X3793486Y3184363D1*
X3795918Y3179554D1*
X3800671Y3174801D1*
X3805480Y3172369D1*
X3815041D1*
X3819795Y3174801D1*
X3824603Y3179554D1*
X3826980Y3184363D1*
X3847227Y3222554D2*
X3873480D1*
X3859166Y3203431D1*
X3866351D1*
X3871104Y3201054D1*
X3873480Y3198677D1*
X3875912Y3191492D1*
Y3186739D1*
X3873480Y3179554D1*
X3868727Y3174746D1*
X3861542Y3172369D1*
X3854357D1*
X3847227Y3174746D1*
X3844851Y3177178D1*
X3842419Y3181931D1*
X3915283Y3172369D2*
Y3222554D1*
X3891351Y3189116D1*
X3927221D1*
X2458451Y953356D2*
X2456075Y958109D1*
X2451266Y962918D1*
X2446513Y965294D1*
X2436952D1*
X2432143Y962918D1*
X2427390Y958109D1*
X2424958Y953356D1*
X2422581Y946171D1*
Y934177D1*
X2424958Y927048D1*
X2427390Y922239D1*
X2432143Y917486D1*
X2436952Y915054D1*
X2446513D1*
X2451266Y917486D1*
X2456075Y922239D1*
X2458451Y927048D1*
X2478699Y965239D2*
X2504952D1*
X2490637Y946116D1*
X2497822D1*
X2502576Y943739D1*
X2504952Y941362D1*
X2507384Y934177D1*
Y929424D1*
X2504952Y922239D1*
X2500199Y917431D1*
X2493014Y915054D1*
X2485829D1*
X2478699Y917431D1*
X2476323Y919863D1*
X2473891Y924616D1*
X2551508Y965239D2*
X2527632D1*
X2525255Y943739D1*
X2527632Y946116D1*
X2534817Y948547D1*
X2541947D1*
X2549132Y946116D1*
X2553940Y941362D1*
X2556317Y934177D1*
Y929424D1*
X2553940Y922239D1*
X2549132Y917431D1*
X2541947Y915054D1*
X2534817D1*
X2527632Y917431D1*
X2525255Y919863D1*
X2522823Y924616D1*
X2211507Y955870D2*
X2209131Y960624D1*
X2204322Y965432D1*
X2199569Y967809D1*
X2190007D1*
X2185199Y965432D1*
X2180446Y960624D1*
X2178014Y955870D1*
X2175637Y948685D1*
Y936692D1*
X2178014Y929562D1*
X2180446Y924754D1*
X2185199Y920000D1*
X2190007Y917569D1*
X2199569D1*
X2204322Y920000D1*
X2209131Y924754D1*
X2211507Y929562D1*
X2231755Y967753D2*
X2258008D1*
X2243693Y948630D1*
X2250878D1*
X2255631Y946253D1*
X2258008Y943877D1*
X2260440Y936692D1*
Y931939D1*
X2258008Y924754D1*
X2253255Y919945D1*
X2246070Y917569D1*
X2238885D1*
X2231755Y919945D1*
X2229378Y922377D1*
X2226946Y927130D1*
X2304564Y960624D2*
X2302187Y965377D1*
X2295002Y967753D1*
X2290249D1*
X2283064Y965377D1*
X2278256Y958192D1*
X2275879Y946253D1*
Y934315D1*
X2278256Y924754D1*
X2283064Y919945D1*
X2290249Y917569D1*
X2292626D1*
X2299756Y919945D1*
X2304564Y924754D1*
X2306941Y931939D1*
Y934315D1*
X2304564Y941500D1*
X2299756Y946253D1*
X2292626Y948630D1*
X2290249D1*
X2283064Y946253D1*
X2278256Y941500D1*
X2275879Y934315D1*
X3081239Y3232671D2*
X3078862Y3237424D1*
X3074054Y3242233D1*
X3069301Y3244609D1*
X3059739D1*
X3054931Y3242233D1*
X3050177Y3237424D1*
X3047745Y3232671D1*
X3045369Y3225486D1*
Y3213492D1*
X3047745Y3206363D1*
X3050177Y3201554D1*
X3054931Y3196801D1*
X3059739Y3194369D1*
X3069301D1*
X3074054Y3196801D1*
X3078862Y3201554D1*
X3081239Y3206363D1*
X3101487Y3244554D2*
X3127740D1*
X3113425Y3225431D1*
X3120610D1*
X3125363Y3223054D1*
X3127740Y3220677D1*
X3130171Y3213492D1*
Y3208739D1*
X3127740Y3201554D1*
X3122986Y3196746D1*
X3115801Y3194369D1*
X3108616D1*
X3101487Y3196746D1*
X3099110Y3199178D1*
X3096678Y3203931D1*
X3155172Y3194369D2*
X3179104Y3244554D1*
X3145611D1*
X3178731Y3664196D2*
X3173978Y3661819D1*
X3169170Y3657011D1*
X3166793Y3652257D1*
Y3642696D1*
X3169169Y3637887D1*
X3173978Y3633134D1*
X3178731Y3630702D1*
X3185916Y3628326D1*
X3197910D1*
X3205039Y3630702D1*
X3209848Y3633134D1*
X3214601Y3637887D1*
X3217033Y3642696D1*
Y3652257D1*
X3214601Y3657011D1*
X3209848Y3661819D1*
X3205039Y3664196D1*
X3166848Y3684443D2*
Y3710696D1*
X3185971Y3696382D1*
Y3703567D1*
X3188348Y3708320D1*
X3190725Y3710696D1*
X3197910Y3713128D1*
X3202663D1*
X3209848Y3710696D1*
X3214656Y3705943D1*
X3217033Y3698758D1*
Y3691573D1*
X3214656Y3684443D1*
X3212224Y3682067D1*
X3207471Y3679635D1*
X3166848Y3740506D2*
X3169225Y3733376D1*
X3173978Y3730944D1*
X3178786D1*
X3183540Y3733376D1*
X3185971Y3738129D1*
X3188348Y3747691D1*
X3190725Y3754876D1*
X3195533Y3759629D1*
X3200286Y3762005D1*
X3207471D1*
X3212224Y3759629D1*
X3214656Y3757252D1*
X3217033Y3750067D1*
Y3740506D1*
X3214656Y3733376D1*
X3212224Y3730944D1*
X3207471Y3728567D1*
X3200286D1*
X3195533Y3730944D1*
X3190725Y3735752D1*
X3188348Y3742882D1*
X3185971Y3752444D1*
X3183540Y3757252D1*
X3178786Y3759629D1*
X3173978D1*
X3169225Y3757252D1*
X3166848Y3750067D1*
Y3740506D1*
X3823356Y3064671D2*
X3820980Y3069424D1*
X3816171Y3074233D1*
X3811418Y3076609D1*
X3801856D1*
X3797048Y3074233D1*
X3792295Y3069424D1*
X3789863Y3064671D1*
X3787486Y3057486D1*
Y3045492D1*
X3789863Y3038363D1*
X3792295Y3033554D1*
X3797048Y3028801D1*
X3801856Y3026369D1*
X3811418D1*
X3816171Y3028801D1*
X3820980Y3033554D1*
X3823356Y3038363D1*
X3843604Y3076554D2*
X3869857D1*
X3855542Y3057431D1*
X3862727D1*
X3867480Y3055054D1*
X3869857Y3052677D1*
X3872289Y3045492D1*
Y3040739D1*
X3869857Y3033554D1*
X3865104Y3028746D1*
X3857919Y3026369D1*
X3850734D1*
X3843604Y3028746D1*
X3841227Y3031178D1*
X3838795Y3035931D1*
X3918845Y3059862D2*
X3916413Y3052677D1*
X3911660Y3047869D1*
X3904475Y3045492D1*
X3902098D1*
X3894913Y3047869D1*
X3890160Y3052677D1*
X3887728Y3059862D1*
Y3062239D1*
X3890160Y3069424D1*
X3894913Y3074177D1*
X3902098Y3076554D1*
X3904475D1*
X3911660Y3074177D1*
X3916413Y3069424D1*
X3918845Y3059862D1*
Y3047869D1*
X3916413Y3035931D1*
X3911660Y3028746D1*
X3904475Y3026369D1*
X3899722D1*
X3892537Y3028746D1*
X3890160Y3033554D1*
X2964980Y2464671D2*
X2962603Y2469424D1*
X2957795Y2474233D1*
X2953041Y2476609D1*
X2943480D1*
X2938671Y2474233D1*
X2933918Y2469424D1*
X2931486Y2464671D1*
X2929110Y2457486D1*
Y2445492D1*
X2931486Y2438363D1*
X2933918Y2433554D1*
X2938671Y2428801D1*
X2943480Y2426369D1*
X2953041D1*
X2957795Y2428801D1*
X2962603Y2433554D1*
X2964980Y2438363D1*
X3004351Y2426369D2*
Y2476554D1*
X2980419Y2443116D1*
X3016289D1*
X3046098Y2476554D2*
X3038913Y2474177D1*
X3034105Y2466992D1*
X3031728Y2455054D1*
Y2447869D1*
X3034105Y2435931D1*
X3038913Y2428746D1*
X3046098Y2426369D1*
X3050851D1*
X3058036Y2428746D1*
X3062790Y2435931D1*
X3065221Y2447869D1*
Y2455054D1*
X3062790Y2466992D1*
X3058036Y2474177D1*
X3050851Y2476554D1*
X3046098D1*
X3062790Y2466992D2*
X3034105Y2435931D1*
X2965730Y2654671D2*
X2963353Y2659424D1*
X2958545Y2664233D1*
X2953791Y2666609D1*
X2944230D1*
X2939421Y2664233D1*
X2934668Y2659424D1*
X2932236Y2654671D1*
X2929860Y2647486D1*
Y2635492D1*
X2932236Y2628363D1*
X2934668Y2623554D1*
X2939421Y2618801D1*
X2944230Y2616369D1*
X2953791D1*
X2958545Y2618801D1*
X2963353Y2623554D1*
X2965730Y2628363D1*
X3005101Y2616369D2*
Y2666554D1*
X2981169Y2633116D1*
X3017039D1*
X3032478Y2656992D2*
X3037286Y2659424D1*
X3044471Y2666554D1*
Y2616369D1*
X1534731Y3508980D2*
X1529978Y3506603D1*
X1525170Y3501795D1*
X1522793Y3497042D1*
Y3487480D1*
X1525169Y3482671D1*
X1529978Y3477918D1*
X1534731Y3475486D1*
X1541916Y3473110D1*
X1553910D1*
X1561039Y3475486D1*
X1565848Y3477918D1*
X1570601Y3482671D1*
X1573033Y3487480D1*
Y3497041D1*
X1570601Y3501795D1*
X1565848Y3506603D1*
X1561039Y3508980D1*
X1573033Y3548351D2*
X1522848D1*
X1556286Y3524419D1*
Y3560289D1*
X1534786Y3578160D2*
X1532410D1*
X1527601Y3580537D1*
X1525225Y3582913D1*
X1522848Y3587722D1*
Y3597283D1*
X1525225Y3602036D1*
X1527601Y3604413D1*
X1532410Y3606845D1*
X1537163D1*
X1541971Y3604413D1*
X1549101Y3599660D1*
X1573033Y3575728D1*
Y3609221D1*
X1676731Y3516051D2*
X1671978Y3513674D1*
X1667170Y3508866D1*
X1664793Y3504112D1*
Y3494551D1*
X1667169Y3489742D1*
X1671978Y3484989D1*
X1676731Y3482557D1*
X1683916Y3480181D1*
X1695910D1*
X1703039Y3482557D1*
X1707848Y3484989D1*
X1712601Y3489742D1*
X1715033Y3494551D1*
Y3504112D1*
X1712601Y3508866D1*
X1707848Y3513674D1*
X1703039Y3516051D1*
X1715033Y3555421D2*
X1664848Y3555422D1*
X1698286Y3531490D1*
Y3567360D1*
X1664848Y3587607D2*
Y3613860D1*
X1683971Y3599546D1*
Y3606731D1*
X1686348Y3611484D1*
X1688725Y3613860D1*
X1695910Y3616292D1*
X1700663D1*
X1707848Y3613860D1*
X1712656Y3609107D1*
X1715033Y3601922D1*
Y3594737D1*
X1712656Y3587607D1*
X1710224Y3585231D1*
X1705471Y3582799D1*
X2476862Y3388671D2*
X2474486Y3393424D1*
X2469677Y3398233D1*
X2464924Y3400609D1*
X2455362D1*
X2450554Y3398233D1*
X2445801Y3393424D1*
X2443369Y3388671D1*
X2440992Y3381486D1*
Y3369492D1*
X2443369Y3362363D1*
X2445801Y3357554D1*
X2450554Y3352801D1*
X2455362Y3350369D1*
X2464924D1*
X2469677Y3352801D1*
X2474486Y3357554D1*
X2476862Y3362363D1*
X2516233Y3350369D2*
Y3400554D1*
X2492301Y3367116D1*
X2528171D1*
X2567542Y3350369D2*
Y3400554D1*
X2543611Y3367116D1*
X2579481D1*
X2300051Y2920671D2*
X2297674Y2925424D1*
X2292865Y2930233D1*
X2288112Y2932609D1*
X2278551D1*
X2273742Y2930233D1*
X2268989Y2925424D1*
X2266557Y2920671D1*
X2264181Y2913486D1*
Y2901492D1*
X2266557Y2894363D1*
X2268989Y2889554D1*
X2273742Y2884801D1*
X2278551Y2882369D1*
X2288112D1*
X2292865Y2884801D1*
X2297674Y2889554D1*
X2300051Y2894363D1*
X2339421Y2882369D2*
Y2932554D1*
X2315490Y2899116D1*
X2351360D1*
X2395484Y2932554D2*
X2371607D1*
X2369231Y2911054D1*
X2371607Y2913431D1*
X2378792Y2915862D1*
X2385922D1*
X2393107Y2913431D1*
X2397916Y2908677D1*
X2400292Y2901492D1*
Y2896739D1*
X2397916Y2889554D1*
X2393107Y2884746D1*
X2385922Y2882369D1*
X2378792D1*
X2371607Y2884746D1*
X2369231Y2887178D1*
X2366799Y2891931D1*
X2440148Y3192986D2*
X2437772Y3197739D1*
X2432963Y3202547D1*
X2428210Y3204924D1*
X2418648D1*
X2413840Y3202547D1*
X2409087Y3197739D1*
X2406655Y3192986D1*
X2404278Y3185801D1*
Y3173807D1*
X2406655Y3166678D1*
X2409087Y3161869D1*
X2413840Y3157116D1*
X2418648Y3154684D1*
X2428210D1*
X2432963Y3157116D1*
X2437772Y3161869D1*
X2440148Y3166678D1*
X2479519Y3154684D2*
Y3204869D1*
X2455588Y3171431D1*
X2491458D1*
X2535582Y3197739D2*
X2533205Y3202492D1*
X2526020Y3204869D1*
X2521267D1*
X2514082Y3202492D1*
X2509273Y3195307D1*
X2506897Y3183369D1*
Y3171431D1*
X2509273Y3161869D1*
X2514082Y3157061D1*
X2521267Y3154684D1*
X2523643D1*
X2530773Y3157061D1*
X2535582Y3161869D1*
X2537958Y3169054D1*
Y3171431D1*
X2535582Y3178616D1*
X2530773Y3183369D1*
X2523643Y3185746D1*
X2521267D1*
X2514082Y3183369D1*
X2509273Y3178616D1*
X2506897Y3171431D1*
X2278731Y3528980D2*
X2273978Y3526603D1*
X2269170Y3521795D1*
X2266793Y3517042D1*
Y3507480D1*
X2269169Y3502671D1*
X2273978Y3497918D1*
X2278731Y3495486D1*
X2285916Y3493110D1*
X2297910D1*
X2305039Y3495486D1*
X2309848Y3497918D1*
X2314601Y3502671D1*
X2317033Y3507480D1*
Y3517041D1*
X2314601Y3521795D1*
X2309848Y3526603D1*
X2305039Y3528980D1*
X2317033Y3568351D2*
X2266848D1*
X2300286Y3544419D1*
Y3580289D1*
X2317033Y3605290D2*
X2266848Y3629221D1*
Y3595728D1*
X3478731Y3712503D2*
X3473978Y3710127D1*
X3469170Y3705318D1*
X3466793Y3700565D1*
Y3691004D1*
X3469169Y3686195D1*
X3473978Y3681442D1*
X3478731Y3679010D1*
X3485916Y3676634D1*
X3497910D1*
X3505039Y3679010D1*
X3509848Y3681442D1*
X3514601Y3686195D1*
X3517033Y3691004D1*
Y3700565D1*
X3514601Y3705318D1*
X3509848Y3710127D1*
X3505039Y3712503D1*
X3517033Y3751874D2*
X3466848D1*
X3500286Y3727943D1*
Y3763813D1*
X3466848Y3791190D2*
X3469225Y3784060D1*
X3473978Y3781628D1*
X3478786D1*
X3483540Y3784060D1*
X3485971Y3788813D1*
X3488348Y3798375D1*
X3490725Y3805560D1*
X3495533Y3810313D1*
X3500286Y3812690D1*
X3507471D1*
X3512224Y3810313D1*
X3514656Y3807937D1*
X3517033Y3800752D1*
Y3791190D1*
X3514656Y3784060D1*
X3512224Y3781628D1*
X3507471Y3779252D1*
X3500286D1*
X3495533Y3781628D1*
X3490725Y3786437D1*
X3488348Y3793567D1*
X3485971Y3803128D1*
X3483540Y3807937D1*
X3478786Y3810313D1*
X3473978D1*
X3469225Y3807937D1*
X3466848Y3800752D1*
Y3791190D1*
X3420731Y3713664D2*
X3415978Y3711288D1*
X3411170Y3706479D1*
X3408793Y3701726D1*
Y3692164D1*
X3411169Y3687356D1*
X3415978Y3682603D1*
X3420731Y3680171D1*
X3427916Y3677794D1*
X3439910D1*
X3447039Y3680171D1*
X3451848Y3682603D1*
X3456601Y3687356D1*
X3459033Y3692164D1*
Y3701726D1*
X3456601Y3706479D1*
X3451848Y3711287D1*
X3447039Y3713664D1*
X3459033Y3753035D2*
X3408848D1*
X3442286Y3729103D1*
Y3764973D1*
X3425540Y3811529D2*
X3432725Y3809097D1*
X3437533Y3804344D1*
X3439910Y3797159D1*
Y3794783D1*
X3437533Y3787597D1*
X3432725Y3782844D1*
X3425540Y3780412D1*
X3423163D1*
X3415978Y3782844D1*
X3411225Y3787598D1*
X3408848Y3794783D1*
Y3797159D1*
X3411225Y3804344D1*
X3415978Y3809097D1*
X3425540Y3811529D1*
X3437533D1*
X3449471Y3809097D1*
X3456656Y3804344D1*
X3459033Y3797159D1*
Y3792406D1*
X3456656Y3785221D1*
X3451848Y3782844D1*
X3360731Y3713664D2*
X3355978Y3711288D1*
X3351170Y3706479D1*
X3348793Y3701726D1*
Y3692164D1*
X3351169Y3687356D1*
X3355978Y3682603D1*
X3360731Y3680171D1*
X3367916Y3677794D1*
X3379910D1*
X3387039Y3680171D1*
X3391848Y3682603D1*
X3396601Y3687356D1*
X3399033Y3692164D1*
Y3701726D1*
X3396601Y3706479D1*
X3391848Y3711287D1*
X3387039Y3713664D1*
X3348848Y3757788D2*
Y3733912D1*
X3370348Y3731535D1*
X3367971Y3733912D1*
X3365540Y3741097D1*
Y3748227D1*
X3367971Y3755412D1*
X3372725Y3760220D1*
X3379910Y3762597D1*
X3384663D1*
X3391848Y3760220D1*
X3396656Y3755412D1*
X3399033Y3748227D1*
Y3741097D1*
X3396656Y3733912D1*
X3394224Y3731535D1*
X3389471Y3729103D1*
X3348848Y3792406D2*
X3351225Y3785221D1*
X3358410Y3780412D1*
X3370348Y3778036D1*
X3377533D1*
X3389471Y3780412D1*
X3396656Y3785221D1*
X3399033Y3792406D1*
Y3797159D1*
X3396656Y3804344D1*
X3389471Y3809097D1*
X3377533Y3811529D1*
X3370348D1*
X3358410Y3809097D1*
X3351225Y3804344D1*
X3348848Y3797159D1*
Y3792406D1*
X3358410Y3809097D2*
X3389471Y3780412D1*
X3600855Y2462702D2*
X3598478Y2467456D1*
X3593670Y2472264D1*
X3588917Y2474641D1*
X3579355D1*
X3574547Y2472264D1*
X3569793Y2467456D1*
X3567362Y2462702D1*
X3564985Y2455517D1*
Y2443524D1*
X3567362Y2436394D1*
X3569793Y2431586D1*
X3574547Y2426832D1*
X3579355Y2424401D1*
X3588917D1*
X3593670Y2426832D1*
X3598478Y2431586D1*
X3600855Y2436394D1*
X3644979Y2474585D2*
X3621103D1*
X3618726Y2453085D1*
X3621103Y2455462D1*
X3628288Y2457894D1*
X3635417D1*
X3642602Y2455462D1*
X3647411Y2450709D1*
X3649787Y2443524D1*
Y2438771D1*
X3647411Y2431586D1*
X3642602Y2426777D1*
X3635417Y2424401D1*
X3628288D1*
X3621103Y2426777D1*
X3618726Y2429209D1*
X3616294Y2433962D1*
X3665227Y2465024D2*
X3670035Y2467456D1*
X3677220Y2474585D1*
Y2424401D1*
X3569239Y2652702D2*
X3566862Y2657456D1*
X3562054Y2662264D1*
X3557301Y2664641D1*
X3547739D1*
X3542931Y2662264D1*
X3538177Y2657456D1*
X3535745Y2652702D1*
X3533369Y2645517D1*
Y2633524D1*
X3535745Y2626394D1*
X3538177Y2621586D1*
X3542931Y2616832D1*
X3547739Y2614401D1*
X3557301D1*
X3562054Y2616832D1*
X3566862Y2621586D1*
X3569239Y2626394D1*
X3613363Y2664585D2*
X3589487D1*
X3587110Y2643085D1*
X3589487Y2645462D1*
X3596672Y2647894D1*
X3603801D1*
X3610986Y2645462D1*
X3615795Y2640709D1*
X3618171Y2633524D1*
Y2628771D1*
X3615795Y2621586D1*
X3610986Y2616777D1*
X3603801Y2614401D1*
X3596672D1*
X3589487Y2616777D1*
X3587110Y2619209D1*
X3584678Y2623962D1*
X3636043Y2652647D2*
Y2655024D1*
X3638419Y2659832D1*
X3640796Y2662209D1*
X3645604Y2664585D1*
X3655166D1*
X3659919Y2662209D1*
X3662296Y2659832D1*
X3664727Y2655024D1*
Y2650271D1*
X3662296Y2645462D1*
X3657542Y2638332D1*
X3633611Y2614401D1*
X3667104D1*
X2749679Y2286609D2*
Y2236369D1*
X2766426D1*
X2773611Y2238801D1*
X2778419Y2243554D1*
X2780796Y2248363D1*
X2783172Y2255492D1*
Y2267486D1*
X2780796Y2274671D1*
X2778419Y2279424D1*
X2773611Y2284233D1*
X2766426Y2286609D1*
X2749679D1*
X2798611Y2276992D2*
X2803420Y2279424D1*
X2810605Y2286554D1*
Y2236369D1*
X2746929Y2364609D2*
Y2314369D1*
X2763676D1*
X2770861Y2316801D1*
X2775669Y2321554D1*
X2778046Y2326363D1*
X2780422Y2333492D1*
Y2345486D1*
X2778046Y2352671D1*
X2775669Y2357424D1*
X2770861Y2362233D1*
X2763676Y2364609D1*
X2746929D1*
X2798293Y2352616D2*
Y2354992D1*
X2800670Y2359801D1*
X2803047Y2362177D1*
X2807855Y2364554D1*
X2817417D1*
X2822170Y2362177D1*
X2824546Y2359801D1*
X2826978Y2354992D1*
Y2350239D1*
X2824546Y2345431D1*
X2819793Y2338301D1*
X2795862Y2314369D1*
X2829355D1*
X2746929Y2438609D2*
Y2388369D1*
X2763676D1*
X2770861Y2390801D1*
X2775669Y2395554D1*
X2778046Y2400363D1*
X2780422Y2407492D1*
Y2419486D1*
X2778046Y2426671D1*
X2775669Y2431424D1*
X2770861Y2436233D1*
X2763676Y2438609D1*
X2746929D1*
X2800670Y2438554D2*
X2826923D1*
X2812608Y2419431D1*
X2819793D1*
X2824546Y2417054D1*
X2826923Y2414677D1*
X2829355Y2407492D1*
Y2402739D1*
X2826923Y2395554D1*
X2822170Y2390746D1*
X2814985Y2388369D1*
X2807800D1*
X2800670Y2390746D1*
X2798293Y2393178D1*
X2795862Y2397931D1*
X2747741Y2516609D2*
Y2466369D1*
X2764487D1*
X2771672Y2468801D1*
X2776481Y2473554D1*
X2778857Y2478363D1*
X2781234Y2485492D1*
Y2497486D1*
X2778857Y2504671D1*
X2776481Y2509424D1*
X2771672Y2514233D1*
X2764487Y2516609D1*
X2747741D1*
X2820605Y2466369D2*
Y2516554D1*
X2796673Y2483116D1*
X2832543D1*
X2910793Y3606929D2*
X2961033D1*
Y3623676D1*
X2958601Y3630861D1*
X2953848Y3635669D1*
X2949039Y3638046D1*
X2941910Y3640422D1*
X2929916D1*
X2922731Y3638046D1*
X2917978Y3635669D1*
X2913170Y3630861D1*
X2910793Y3623676D1*
Y3606929D1*
X2910848Y3684547D2*
Y3660670D1*
X2932348Y3658293D1*
X2929971Y3660670D1*
X2927540Y3667855D1*
Y3674985D1*
X2929971Y3682170D1*
X2934725Y3686978D1*
X2941910Y3689355D1*
X2946663D1*
X2953848Y3686978D1*
X2958656Y3682170D1*
X2961033Y3674985D1*
Y3667855D1*
X2958656Y3660670D1*
X2956224Y3658293D1*
X2951471Y3655862D1*
X3738407Y792711D2*
Y754465D1*
X3736031Y747280D1*
X3733599Y744903D1*
X3728846Y742471D1*
X3724037D1*
X3719284Y744903D1*
X3716907Y747280D1*
X3714475Y754465D1*
Y759218D1*
X3753846Y783095D2*
X3758655Y785526D1*
X3765840Y792656D1*
Y742471D1*
X598012Y2930987D2*
Y2892741D1*
X595636Y2885556D1*
X593204Y2883179D1*
X588451Y2880747D1*
X583642D1*
X578889Y2883179D1*
X576512Y2885556D1*
X574081Y2892741D1*
Y2897494D1*
X637383Y2880747D2*
Y2930932D1*
X613452Y2897494D1*
X649321D1*
X2349496Y5224089D2*
Y5185842D1*
X2347119Y5178657D1*
X2344687Y5176281D1*
X2339934Y5173849D1*
X2335126D1*
X2330373Y5176281D1*
X2327996Y5178657D1*
X2325564Y5185842D1*
Y5190595D1*
X2393620Y5224034D2*
X2369744D1*
X2367367Y5202534D1*
X2369744Y5204910D1*
X2376929Y5207342D1*
X2384058D1*
X2391243Y5204910D1*
X2396052Y5200157D1*
X2398428Y5192972D1*
Y5188219D1*
X2396052Y5181034D1*
X2391243Y5176225D1*
X2384058Y5173849D1*
X2376929D1*
X2369744Y5176225D1*
X2367367Y5178657D1*
X2364935Y5183410D1*
X1576727Y1483123D2*
X1626967D1*
Y1511807D1*
X1586344Y1527247D2*
X1583912Y1532055D1*
X1576783Y1539240D1*
X1626967D1*
X3010793Y2506388D2*
X3061033D1*
Y2535073D1*
X3022786Y2552944D2*
X3020410D1*
X3015601Y2555321D1*
X3013225Y2557698D1*
X3010848Y2562506D1*
Y2572068D1*
X3013225Y2576821D1*
X3015601Y2579197D1*
X3020410Y2581629D1*
X3025163D1*
X3029971Y2579197D1*
X3037101Y2574444D1*
X3061033Y2550512D1*
Y2584006D1*
X3216793Y2506388D2*
X3267033D1*
Y2535073D1*
X3216848Y2555321D2*
Y2581574D1*
X3235971Y2567259D1*
Y2574444D1*
X3238348Y2579197D1*
X3240725Y2581574D1*
X3247910Y2584006D1*
X3252663D1*
X3259848Y2581574D1*
X3264656Y2576821D1*
X3267033Y2569636D1*
Y2562451D1*
X3264656Y2555321D1*
X3262224Y2552944D1*
X3257471Y2550513D1*
X3540793Y2505200D2*
X3591033D1*
Y2533885D1*
Y2573256D2*
X3540848D1*
X3574286Y2549324D1*
Y2585194D1*
X3344793Y2506388D2*
X3395033D1*
Y2535073D1*
X3344848Y2579197D2*
Y2555321D1*
X3366348Y2552944D1*
X3363971Y2555321D1*
X3361540Y2562506D1*
Y2569636D1*
X3363971Y2576821D1*
X3368725Y2581629D1*
X3375910Y2584006D1*
X3380663D1*
X3387848Y2581629D1*
X3392656Y2576821D1*
X3395033Y2569636D1*
Y2562506D1*
X3392656Y2555321D1*
X3390224Y2552944D1*
X3385471Y2550513D1*
X894725Y1282703D2*
Y1304202D1*
X892293Y1311388D1*
X889916Y1313819D1*
X885163Y1316196D1*
X880355D1*
X875601Y1313819D1*
X873170Y1311388D1*
X870793Y1304202D1*
Y1282703D1*
X921033D1*
X894725Y1299449D2*
X921033Y1316196D1*
X880410Y1331635D2*
X877978Y1336444D1*
X870848Y1343629D1*
X921033D1*
X1441023Y1246677D2*
X1462523D1*
X1469708Y1249109D1*
X1472140Y1251486D1*
X1474517Y1256239D1*
Y1261047D1*
X1472140Y1265801D1*
X1469708Y1268233D1*
X1462523Y1270609D1*
X1441023D1*
Y1220369D1*
X1457770Y1246677D2*
X1474517Y1220369D1*
X1492388Y1258616D2*
Y1260992D1*
X1494765Y1265801D1*
X1497141Y1268177D1*
X1501950Y1270554D1*
X1511511D1*
X1516264Y1268177D1*
X1518641Y1265801D1*
X1521073Y1260992D1*
Y1256239D1*
X1518641Y1251431D1*
X1513888Y1244301D1*
X1489956Y1220369D1*
X1523449D1*
X1260725Y1239953D2*
Y1261453D1*
X1258293Y1268638D1*
X1255916Y1271069D1*
X1251163Y1273446D1*
X1246355D1*
X1241601Y1271069D1*
X1239170Y1268638D1*
X1236793Y1261453D1*
Y1239953D1*
X1287033D1*
X1260725Y1256699D2*
X1287033Y1273446D1*
X1236848Y1293694D2*
Y1319947D1*
X1255971Y1305632D1*
Y1312817D1*
X1258348Y1317570D1*
X1260725Y1319947D1*
X1267910Y1322379D1*
X1272663D1*
X1279848Y1319947D1*
X1284656Y1315193D1*
X1287033Y1308008D1*
Y1300823D1*
X1284656Y1293694D1*
X1282224Y1291317D1*
X1277471Y1288885D1*
X1260725Y1109835D2*
Y1131335D1*
X1258293Y1138520D1*
X1255916Y1140952D1*
X1251163Y1143329D1*
X1246355D1*
X1241601Y1140952D1*
X1239170Y1138520D1*
X1236793Y1131335D1*
Y1109835D1*
X1287033D1*
X1260725Y1126582D2*
X1287033Y1143329D1*
Y1182699D2*
X1236848Y1182700D1*
X1270286Y1158768D1*
Y1194638D1*
X3668725Y1665953D2*
Y1687453D1*
X3666293Y1694638D1*
X3663916Y1697069D1*
X3659163Y1699446D1*
X3654355D1*
X3649601Y1697069D1*
X3647170Y1694638D1*
X3644793Y1687453D1*
Y1665953D1*
X3695033D1*
X3668725Y1682699D2*
X3695033Y1699446D1*
X3644848Y1743570D2*
Y1719694D1*
X3666348Y1717317D1*
X3663971Y1719694D1*
X3661540Y1726879D1*
Y1734008D1*
X3663971Y1741194D1*
X3668725Y1746002D1*
X3675910Y1748379D1*
X3680663D1*
X3687848Y1746002D1*
X3692656Y1741193D1*
X3695033Y1734008D1*
Y1726879D1*
X3692656Y1719694D1*
X3690224Y1717317D1*
X3685471Y1714885D1*
X724725Y2044240D2*
Y2065739D1*
X722293Y2072924D1*
X719916Y2075356D1*
X715163Y2077733D1*
X710355D1*
X705601Y2075356D1*
X703170Y2072924D1*
X700793Y2065739D1*
Y2044240D1*
X751033D1*
X724725Y2060986D2*
X751033Y2077733D1*
X707978Y2121857D2*
X703225Y2119480D1*
X700848Y2112295D1*
Y2107542D1*
X703225Y2100357D1*
X710410Y2095549D1*
X722348Y2093172D1*
X734286D1*
X743848Y2095549D1*
X748656Y2100357D1*
X751033Y2107542D1*
Y2109919D1*
X748656Y2117048D1*
X743848Y2121857D1*
X736663Y2124233D1*
X734286D1*
X727101Y2121857D1*
X722348Y2117048D1*
X719971Y2109919D1*
Y2107542D1*
X722348Y2100357D1*
X727101Y2095549D1*
X734286Y2093172D1*
X714725Y2925024D2*
Y2946523D1*
X712293Y2953708D1*
X709916Y2956140D1*
X705163Y2958517D1*
X700355D1*
X695601Y2956140D1*
X693170Y2953708D1*
X690793Y2946523D1*
Y2925024D1*
X741033D1*
X714725Y2941770D2*
X741033Y2958517D1*
Y2983518D2*
X690848Y3007449D1*
Y2973956D1*
X2333980Y2266677D2*
X2355480D1*
X2362665Y2269109D1*
X2365097Y2271486D1*
X2367474Y2276239D1*
Y2281047D1*
X2365097Y2285801D1*
X2362665Y2288233D1*
X2355480Y2290609D1*
X2333980D1*
Y2240369D1*
X2350727Y2266677D2*
X2367474Y2240369D1*
X2394851Y2290554D2*
X2387721Y2288177D1*
X2385289Y2283424D1*
Y2278616D1*
X2387721Y2273862D1*
X2392474Y2271431D1*
X2402036Y2269054D1*
X2409221Y2266677D1*
X2413974Y2261869D1*
X2416351Y2257116D1*
Y2249931D1*
X2413974Y2245178D1*
X2411598Y2242746D1*
X2404413Y2240369D1*
X2394851D1*
X2387721Y2242746D1*
X2385289Y2245178D1*
X2382913Y2249931D1*
Y2257116D1*
X2385289Y2261869D1*
X2390098Y2266677D1*
X2397228Y2269054D1*
X2406789Y2271431D1*
X2411598Y2273862D1*
X2413974Y2278616D1*
Y2283424D1*
X2411598Y2288177D1*
X2404413Y2290554D1*
X2394851D1*
X2334212Y2340677D2*
X2355712D1*
X2362897Y2343109D1*
X2365329Y2345486D1*
X2367705Y2350239D1*
Y2355047D1*
X2365329Y2359801D1*
X2362897Y2362233D1*
X2355712Y2364609D1*
X2334212D1*
Y2314369D1*
X2350958Y2340677D2*
X2367705Y2314369D1*
X2414261Y2347862D2*
X2411829Y2340677D1*
X2407076Y2335869D1*
X2399891Y2333492D1*
X2397514D1*
X2390329Y2335869D1*
X2385576Y2340677D1*
X2383144Y2347862D1*
Y2350239D1*
X2385576Y2357424D1*
X2390329Y2362177D1*
X2397514Y2364554D1*
X2399891D1*
X2407076Y2362177D1*
X2411829Y2357424D1*
X2414261Y2347862D1*
Y2335869D1*
X2411829Y2323931D1*
X2407076Y2316746D1*
X2399891Y2314369D1*
X2395138D1*
X2387953Y2316746D1*
X2385576Y2321554D1*
X2333307Y2410677D2*
X2354807D1*
X2361992Y2413109D1*
X2364424Y2415486D1*
X2366800Y2420239D1*
Y2425047D1*
X2364424Y2429801D1*
X2361992Y2432233D1*
X2354807Y2434609D1*
X2333307D1*
Y2384369D1*
X2350054Y2410677D2*
X2366800Y2384369D1*
X2382240Y2424992D2*
X2387048Y2427424D1*
X2394233Y2434554D1*
Y2384369D1*
X2424043Y2434554D2*
X2416857Y2432177D1*
X2412049Y2424992D1*
X2409672Y2413054D1*
Y2405869D1*
X2412049Y2393931D1*
X2416857Y2386746D1*
X2424043Y2384369D1*
X2428796D1*
X2435981Y2386746D1*
X2440734Y2393931D1*
X2443166Y2405869D1*
Y2413054D1*
X2440734Y2424992D1*
X2435981Y2432177D1*
X2428796Y2434554D1*
X2424043D1*
X2440734Y2424992D2*
X2412049Y2393931D1*
X2334057Y2490677D2*
X2355557D1*
X2362742Y2493109D1*
X2365174Y2495486D1*
X2367550Y2500239D1*
Y2505047D1*
X2365174Y2509801D1*
X2362742Y2512233D1*
X2355557Y2514609D1*
X2334057D1*
Y2464369D1*
X2350804Y2490677D2*
X2367550Y2464369D1*
X2382990Y2504992D2*
X2387798Y2507424D1*
X2394983Y2514554D1*
Y2464369D1*
X2410422Y2504992D2*
X2415231Y2507424D1*
X2422416Y2514554D1*
Y2464369D1*
X753307Y3564677D2*
X774807D1*
X781992Y3567109D1*
X784424Y3569486D1*
X786800Y3574239D1*
Y3579047D1*
X784424Y3583801D1*
X781992Y3586233D1*
X774807Y3588609D1*
X753307D1*
Y3538369D1*
X770054Y3564677D2*
X786800Y3538369D1*
X802240Y3578992D2*
X807048Y3581424D1*
X814233Y3588554D1*
Y3538369D1*
X832104Y3576616D2*
Y3578992D1*
X834481Y3583801D1*
X836857Y3586177D1*
X841666Y3588554D1*
X851228D1*
X855981Y3586177D1*
X858357Y3583801D1*
X860789Y3578992D1*
Y3574239D1*
X858357Y3569431D1*
X853604Y3562301D1*
X829672Y3538369D1*
X863166D1*
X753307Y3674677D2*
X774807D1*
X781992Y3677109D1*
X784424Y3679486D1*
X786800Y3684239D1*
Y3689047D1*
X784424Y3693801D1*
X781992Y3696233D1*
X774807Y3698609D1*
X753307D1*
Y3648369D1*
X770054Y3674677D2*
X786800Y3648369D1*
X802240Y3688992D2*
X807048Y3691424D1*
X814233Y3698554D1*
Y3648369D1*
X834481Y3698554D2*
X860734D1*
X846419Y3679431D1*
X853604D1*
X858357Y3677054D1*
X860734Y3674677D1*
X863166Y3667492D1*
Y3662739D1*
X860734Y3655554D1*
X855981Y3650746D1*
X848796Y3648369D1*
X841611D1*
X834481Y3650746D1*
X832104Y3653178D1*
X829672Y3657931D1*
X4182378Y3387019D2*
Y3408519D1*
X4179946Y3415704D1*
X4177570Y3418136D1*
X4172817Y3420513D1*
X4168008D1*
X4163255Y3418136D1*
X4160823Y3415704D1*
X4158446Y3408519D1*
Y3387019D1*
X4208686D1*
X4182378Y3403766D2*
X4208686Y3420512D1*
X4168063Y3435952D2*
X4165632Y3440760D1*
X4158502Y3447945D1*
X4208686D1*
Y3487316D2*
X4158502D1*
X4191940Y3463384D1*
Y3499254D1*
X3797307Y3338677D2*
X3818807D1*
X3825992Y3341109D1*
X3828424Y3343486D1*
X3830800Y3348239D1*
Y3353047D1*
X3828424Y3357801D1*
X3825992Y3360233D1*
X3818807Y3362609D1*
X3797307D1*
Y3312369D1*
X3814054Y3338677D2*
X3830800Y3312369D1*
X3846240Y3352992D2*
X3851048Y3355424D1*
X3858233Y3362554D1*
Y3312369D1*
X3902357Y3362554D2*
X3878481D1*
X3876104Y3341054D1*
X3878481Y3343431D1*
X3885666Y3345862D1*
X3892796D1*
X3899981Y3343431D1*
X3904789Y3338677D1*
X3907166Y3331492D1*
Y3326739D1*
X3904789Y3319554D1*
X3899981Y3314746D1*
X3892796Y3312369D1*
X3885666D1*
X3878481Y3314746D1*
X3876104Y3317178D1*
X3873672Y3321931D1*
X4175843Y3179137D2*
Y3200637D1*
X4173411Y3207822D1*
X4171034Y3210254D1*
X4166281Y3212631D1*
X4161473D1*
X4156719Y3210254D1*
X4154288Y3207822D1*
X4151911Y3200637D1*
Y3179137D1*
X4202151D1*
X4175843Y3195884D2*
X4202151Y3212631D1*
X4161528Y3228070D2*
X4159096Y3232878D1*
X4151966Y3240063D1*
X4202151D1*
X4159096Y3284187D2*
X4154343Y3281811D1*
X4151966Y3274626D1*
Y3269873D1*
X4154343Y3262688D1*
X4161528Y3257879D1*
X4173466Y3255503D1*
X4185404D1*
X4194966Y3257879D1*
X4199774Y3262688D1*
X4202151Y3269873D1*
Y3272249D1*
X4199774Y3279379D1*
X4194966Y3284187D1*
X4187781Y3286564D1*
X4185404D1*
X4178219Y3284187D1*
X4173466Y3279379D1*
X4171090Y3272249D1*
Y3269873D1*
X4173466Y3262688D1*
X4178219Y3257879D1*
X4185404Y3255503D1*
X3015370Y2322677D2*
X3036870D1*
X3044055Y2325109D1*
X3046487Y2327486D1*
X3048863Y2332239D1*
Y2337047D1*
X3046487Y2341801D1*
X3044055Y2344233D1*
X3036870Y2346609D1*
X3015370D1*
Y2296369D1*
X3032117Y2322677D2*
X3048863Y2296369D1*
X3064303Y2336992D2*
X3069111Y2339424D1*
X3076296Y2346554D1*
Y2296369D1*
X3101297D2*
X3125229Y2346554D1*
X3091735D1*
X3015335Y2772677D2*
X3036835D1*
X3044020Y2775109D1*
X3046451Y2777486D1*
X3048828Y2782239D1*
Y2787047D1*
X3046451Y2791801D1*
X3044020Y2794233D1*
X3036835Y2796609D1*
X3015335D1*
Y2746369D1*
X3032081Y2772677D2*
X3048828Y2746369D1*
X3064267Y2786992D2*
X3069076Y2789424D1*
X3076261Y2796554D1*
Y2746369D1*
X3103638Y2796554D2*
X3096509Y2794177D1*
X3094077Y2789424D1*
Y2784616D1*
X3096509Y2779862D1*
X3101262Y2777431D1*
X3110823Y2775054D1*
X3118008Y2772677D1*
X3122762Y2767869D1*
X3125138Y2763116D1*
Y2755931D1*
X3122762Y2751178D1*
X3120385Y2748746D1*
X3113200Y2746369D1*
X3103638D1*
X3096509Y2748746D1*
X3094077Y2751178D1*
X3091700Y2755931D1*
Y2763116D1*
X3094077Y2767869D1*
X3098885Y2772677D1*
X3106015Y2775054D1*
X3115576Y2777431D1*
X3120385Y2779862D1*
X3122762Y2784616D1*
Y2789424D1*
X3120385Y2794177D1*
X3113200Y2796554D1*
X3103638D1*
X3150558Y2322677D2*
X3172058D1*
X3179243Y2325109D1*
X3181675Y2327486D1*
X3184052Y2332239D1*
Y2337047D1*
X3181675Y2341801D1*
X3179243Y2344233D1*
X3172058Y2346609D1*
X3150558D1*
Y2296369D1*
X3167305Y2322677D2*
X3184052Y2296369D1*
X3199491Y2336992D2*
X3204299Y2339424D1*
X3211484Y2346554D1*
Y2296369D1*
X3258040Y2329862D2*
X3255609Y2322677D1*
X3250855Y2317869D1*
X3243670Y2315492D1*
X3241294D1*
X3234109Y2317869D1*
X3229356Y2322677D1*
X3226924Y2329862D1*
Y2332239D1*
X3229356Y2339424D1*
X3234109Y2344177D1*
X3241294Y2346554D1*
X3243670D1*
X3250855Y2344177D1*
X3255609Y2339424D1*
X3258040Y2329862D1*
Y2317869D1*
X3255609Y2305931D1*
X3250855Y2298746D1*
X3243670Y2296369D1*
X3238917D1*
X3231732Y2298746D1*
X3229356Y2303554D1*
X3148557Y2772677D2*
X3170057D1*
X3177242Y2775109D1*
X3179674Y2777486D1*
X3182051Y2782239D1*
Y2787047D1*
X3179674Y2791801D1*
X3177242Y2794233D1*
X3170057Y2796609D1*
X3148557D1*
Y2746369D1*
X3165304Y2772677D2*
X3182051Y2746369D1*
X3199922Y2784616D2*
Y2786992D1*
X3202298Y2791801D1*
X3204675Y2794177D1*
X3209483Y2796554D1*
X3219045D1*
X3223798Y2794177D1*
X3226175Y2791801D1*
X3228607Y2786992D1*
Y2782239D1*
X3226175Y2777431D1*
X3221421Y2770301D1*
X3197490Y2746369D1*
X3230983D1*
X3260792Y2796554D2*
X3253607Y2794177D1*
X3248799Y2786992D1*
X3246422Y2775054D1*
Y2767869D1*
X3248799Y2755931D1*
X3253607Y2748746D1*
X3260792Y2746369D1*
X3265546D1*
X3272731Y2748746D1*
X3277484Y2755931D1*
X3279916Y2767869D1*
Y2775054D1*
X3277484Y2786992D1*
X3272731Y2794177D1*
X3265546Y2796554D1*
X3260792D1*
X3277484Y2786992D2*
X3248799Y2755931D1*
X1616725Y3492236D2*
Y3513736D1*
X1614293Y3520921D1*
X1611916Y3523353D1*
X1607163Y3525730D1*
X1602355D1*
X1597601Y3523353D1*
X1595170Y3520921D1*
X1592793Y3513736D1*
Y3492236D1*
X1643033D1*
X1616725Y3508983D2*
X1643033Y3525730D1*
X1604786Y3543601D2*
X1602410D1*
X1597601Y3545977D1*
X1595225Y3548354D1*
X1592848Y3553162D1*
Y3562724D1*
X1595225Y3567477D1*
X1597601Y3569854D1*
X1602410Y3572286D1*
X1607163D1*
X1611971Y3569854D1*
X1619101Y3565101D1*
X1643033Y3541169D1*
Y3574662D1*
X1602410Y3590101D2*
X1599978Y3594910D1*
X1592848Y3602095D1*
X1643033D1*
X2451486Y3596677D2*
X2472986D1*
X2480171Y3599109D1*
X2482603Y3601486D1*
X2484980Y3606239D1*
Y3611047D1*
X2482603Y3615801D1*
X2480171Y3618233D1*
X2472986Y3620609D1*
X2451486D1*
Y3570369D1*
X2468233Y3596677D2*
X2484980Y3570369D1*
X2502851Y3608616D2*
Y3610992D1*
X2505227Y3615801D1*
X2507604Y3618177D1*
X2512412Y3620554D1*
X2521974D1*
X2526727Y3618177D1*
X2529104Y3615801D1*
X2531536Y3610992D1*
Y3606239D1*
X2529104Y3601431D1*
X2524351Y3594301D1*
X2500419Y3570369D1*
X2533912D1*
X2551783Y3608616D2*
Y3610992D1*
X2554160Y3615801D1*
X2556537Y3618177D1*
X2561345Y3620554D1*
X2570907D1*
X2575660Y3618177D1*
X2578036Y3615801D1*
X2580468Y3610992D1*
Y3606239D1*
X2578036Y3601431D1*
X2573283Y3594301D1*
X2549351Y3570369D1*
X2582845D1*
X2934725Y3433486D2*
Y3454986D1*
X2932293Y3462171D1*
X2929916Y3464603D1*
X2925163Y3466980D1*
X2920355D1*
X2915601Y3464603D1*
X2913170Y3462171D1*
X2910793Y3454986D1*
Y3433486D1*
X2961033D1*
X2934725Y3450233D2*
X2961033Y3466980D1*
X2922786Y3484851D2*
X2920410D1*
X2915601Y3487227D1*
X2913225Y3489604D1*
X2910848Y3494412D1*
Y3503974D1*
X2913225Y3508727D1*
X2915601Y3511104D1*
X2920410Y3513536D1*
X2925163D1*
X2929971Y3511104D1*
X2937101Y3506351D1*
X2961033Y3482419D1*
Y3515912D1*
X2910848Y3536160D2*
Y3562413D1*
X2929971Y3548098D1*
Y3555283D1*
X2932348Y3560036D1*
X2934725Y3562413D1*
X2941910Y3564845D1*
X2946663D1*
X2953848Y3562413D1*
X2958656Y3557660D1*
X2961033Y3550475D1*
Y3543290D1*
X2958656Y3536160D1*
X2956224Y3533783D1*
X2951471Y3531351D1*
X2226725Y3006298D2*
Y3027798D1*
X2224293Y3034983D1*
X2221916Y3037415D1*
X2217163Y3039791D1*
X2212355D1*
X2207601Y3037415D1*
X2205170Y3034983D1*
X2202793Y3027798D1*
Y3006298D1*
X2253033D1*
X2226725Y3023045D2*
X2253033Y3039791D1*
X2214786Y3057663D2*
X2212410D1*
X2207601Y3060039D1*
X2205225Y3062416D1*
X2202848Y3067224D1*
Y3076786D1*
X2205225Y3081539D1*
X2207601Y3083916D1*
X2212410Y3086347D1*
X2217163D1*
X2221971Y3083916D1*
X2229101Y3079162D1*
X2253033Y3055231D1*
Y3088724D1*
Y3128095D2*
X2202848D1*
X2236286Y3104163D1*
Y3140033D1*
X3482620Y2320709D2*
X3504120D1*
X3511305Y2323141D1*
X3513737Y2325517D1*
X3516114Y2330271D1*
Y2335079D1*
X3513737Y2339832D1*
X3511305Y2342264D1*
X3504120Y2344641D1*
X3482620D1*
Y2294401D1*
X3499367Y2320709D2*
X3516114Y2294401D1*
X3533985Y2332647D2*
Y2335024D1*
X3536361Y2339832D1*
X3538738Y2342209D1*
X3543546Y2344585D1*
X3553108D1*
X3557861Y2342209D1*
X3560238Y2339832D1*
X3562670Y2335024D1*
Y2330271D1*
X3560238Y2325462D1*
X3555484Y2318332D1*
X3531553Y2294401D1*
X3565046D1*
X3609170Y2344585D2*
X3585294D1*
X3582917Y2323085D1*
X3585294Y2325462D1*
X3592479Y2327894D1*
X3599609D1*
X3606794Y2325462D1*
X3611602Y2320709D1*
X3613979Y2313524D1*
Y2308771D1*
X3611602Y2301586D1*
X3606794Y2296777D1*
X3599609Y2294401D1*
X3592479D1*
X3585294Y2296777D1*
X3582917Y2299209D1*
X3580485Y2303962D1*
X3482702Y2770709D2*
X3504202D1*
X3511387Y2773141D1*
X3513819Y2775517D1*
X3516196Y2780271D1*
Y2785079D1*
X3513819Y2789832D1*
X3511387Y2792264D1*
X3504202Y2794641D1*
X3482702D1*
Y2744401D1*
X3499449Y2770709D2*
X3516196Y2744401D1*
X3534067Y2782647D2*
Y2785024D1*
X3536443Y2789832D1*
X3538820Y2792209D1*
X3543628Y2794585D1*
X3553190D1*
X3557943Y2792209D1*
X3560320Y2789832D1*
X3562752Y2785024D1*
Y2780271D1*
X3560320Y2775462D1*
X3555567Y2768332D1*
X3531635Y2744401D1*
X3565128D1*
X3609252Y2787456D2*
X3606876Y2792209D1*
X3599691Y2794585D1*
X3594937D1*
X3587752Y2792209D1*
X3582944Y2785024D1*
X3580567Y2773085D1*
Y2761147D1*
X3582944Y2751586D1*
X3587752Y2746777D1*
X3594937Y2744401D1*
X3597314D1*
X3604444Y2746777D1*
X3609252Y2751586D1*
X3611629Y2758771D1*
Y2761147D1*
X3609252Y2768332D1*
X3604444Y2773085D1*
X3597314Y2775462D1*
X3594937D1*
X3587752Y2773085D1*
X3582944Y2768332D1*
X3580567Y2761147D1*
X2486557Y3038677D2*
X2508057D1*
X2515242Y3041109D1*
X2517674Y3043486D1*
X2520051Y3048239D1*
Y3053047D1*
X2517674Y3057801D1*
X2515242Y3060233D1*
X2508057Y3062609D1*
X2486557D1*
Y3012369D1*
X2503304Y3038677D2*
X2520051Y3012369D1*
X2537922Y3050616D2*
Y3052992D1*
X2540298Y3057801D1*
X2542675Y3060177D1*
X2547483Y3062554D1*
X2557045D1*
X2561798Y3060177D1*
X2564175Y3057801D1*
X2566607Y3052992D1*
Y3048239D1*
X2564175Y3043431D1*
X2559421Y3036301D1*
X2535490Y3012369D1*
X2568983D1*
X2593984D2*
X2617916Y3062554D1*
X2584422D1*
X2486585Y3108677D2*
X2508085D1*
X2515270Y3111109D1*
X2517702Y3113486D1*
X2520078Y3118239D1*
Y3123047D1*
X2517702Y3127801D1*
X2515270Y3130233D1*
X2508085Y3132609D1*
X2486585D1*
Y3082369D1*
X2503331Y3108677D2*
X2520078Y3082369D1*
X2537949Y3120616D2*
Y3122992D1*
X2540326Y3127801D1*
X2542702Y3130177D1*
X2547511Y3132554D1*
X2557073D1*
X2561826Y3130177D1*
X2564202Y3127801D1*
X2566634Y3122992D1*
Y3118239D1*
X2564202Y3113431D1*
X2559449Y3106301D1*
X2535517Y3082369D1*
X2569011D1*
X2596388Y3132554D2*
X2589258Y3130177D1*
X2586827Y3125424D1*
Y3120616D1*
X2589258Y3115862D1*
X2594012Y3113431D1*
X2603573Y3111054D1*
X2610758Y3108677D1*
X2615511Y3103869D1*
X2617888Y3099116D1*
Y3091931D1*
X2615511Y3087178D1*
X2613135Y3084746D1*
X2605950Y3082369D1*
X2596388D1*
X2589258Y3084746D1*
X2586827Y3087178D1*
X2584450Y3091931D1*
Y3099116D1*
X2586827Y3103869D1*
X2591635Y3108677D1*
X2598765Y3111054D1*
X2608326Y3113431D1*
X2613135Y3115862D1*
X2615511Y3120616D1*
Y3125424D1*
X2613135Y3130177D1*
X2605950Y3132554D1*
X2596388D1*
X3740748Y2932677D2*
X3762248D1*
X3769433Y2935109D1*
X3771865Y2937486D1*
X3774241Y2942239D1*
Y2947047D1*
X3771865Y2951801D1*
X3769433Y2954233D1*
X3762248Y2956609D1*
X3740748D1*
Y2906369D1*
X3757495Y2932677D2*
X3774241Y2906369D1*
X3792113Y2944616D2*
Y2946992D1*
X3794489Y2951801D1*
X3796866Y2954177D1*
X3801674Y2956554D1*
X3811236D1*
X3815989Y2954177D1*
X3818366Y2951801D1*
X3820797Y2946992D1*
Y2942239D1*
X3818366Y2937431D1*
X3813612Y2930301D1*
X3789681Y2906369D1*
X3823174D1*
X3869730Y2939862D2*
X3867298Y2932677D1*
X3862545Y2927869D1*
X3855360Y2925492D1*
X3852983D1*
X3845798Y2927869D1*
X3841045Y2932677D1*
X3838613Y2939862D1*
Y2942239D1*
X3841045Y2949424D1*
X3845798Y2954177D1*
X3852983Y2956554D1*
X3855360D1*
X3862545Y2954177D1*
X3867298Y2949424D1*
X3869730Y2939862D1*
Y2927869D1*
X3867298Y2915931D1*
X3862545Y2908746D1*
X3855360Y2906369D1*
X3850607D1*
X3843422Y2908746D1*
X3841045Y2913554D1*
X3328620Y2320709D2*
X3350120D1*
X3357305Y2323141D1*
X3359737Y2325517D1*
X3362114Y2330271D1*
Y2335079D1*
X3359737Y2339832D1*
X3357305Y2342264D1*
X3350120Y2344641D1*
X3328620D1*
Y2294401D1*
X3345367Y2320709D2*
X3362114Y2294401D1*
X3382361Y2344585D2*
X3408614D1*
X3394299Y2325462D1*
X3401484D1*
X3406238Y2323085D1*
X3408614Y2320709D1*
X3411046Y2313524D1*
Y2308771D1*
X3408614Y2301586D1*
X3403861Y2296777D1*
X3396676Y2294401D1*
X3389491D1*
X3382361Y2296777D1*
X3379985Y2299209D1*
X3377553Y2303962D1*
X3440855Y2344585D2*
X3433670Y2342209D1*
X3428862Y2335024D1*
X3426485Y2323085D1*
Y2315900D1*
X3428862Y2303962D1*
X3433670Y2296777D1*
X3440855Y2294401D1*
X3445609D1*
X3452794Y2296777D1*
X3457547Y2303962D1*
X3459979Y2315900D1*
Y2323085D1*
X3457547Y2335024D1*
X3452794Y2342209D1*
X3445609Y2344585D1*
X3440855D1*
X3457547Y2335024D2*
X3428862Y2303962D1*
X3348236Y2770709D2*
X3369736D1*
X3376921Y2773141D1*
X3379353Y2775517D1*
X3381730Y2780271D1*
Y2785079D1*
X3379353Y2789832D1*
X3376921Y2792264D1*
X3369736Y2794641D1*
X3348236D1*
Y2744401D1*
X3364983Y2770709D2*
X3381730Y2744401D1*
X3401977Y2794585D2*
X3428230D1*
X3413915Y2775462D1*
X3421101D1*
X3425854Y2773085D1*
X3428230Y2770709D1*
X3430662Y2763524D1*
Y2758771D1*
X3428230Y2751586D1*
X3423477Y2746777D1*
X3416292Y2744401D1*
X3409107D1*
X3401977Y2746777D1*
X3399601Y2749209D1*
X3397169Y2753962D1*
X3446101Y2785024D2*
X3450910Y2787456D1*
X3458095Y2794585D1*
Y2744401D1*
X1011775Y1173522D2*
Y1137652D1*
X1014151Y1130467D1*
X1018960Y1125714D1*
X1026145Y1123282D1*
X1030898D1*
X1038083Y1125714D1*
X1042891Y1130467D1*
X1045268Y1137652D1*
Y1173522D1*
X1060707Y1163905D2*
X1065516Y1166337D1*
X1072701Y1173467D1*
Y1123282D1*
X3020817Y1661394D2*
X3056686D1*
X3063871Y1663770D1*
X3068625Y1668579D1*
X3071057Y1675764D1*
Y1680517D1*
X3068625Y1687702D1*
X3063872Y1692510D1*
X3056686Y1694887D1*
X3020817D1*
X3032810Y1712758D2*
X3030433D1*
X3025625Y1715135D1*
X3023248Y1717511D1*
X3020872Y1722320D1*
Y1731881D1*
X3023248Y1736634D1*
X3025625Y1739011D1*
X3030433Y1741443D1*
X3035187D1*
X3039995Y1739011D1*
X3047125Y1734258D1*
X3071057Y1710326D1*
Y1743819D1*
X1690897Y2873192D2*
Y2837322D1*
X1693274Y2830137D1*
X1698083Y2825384D1*
X1705268Y2822952D1*
X1710021D1*
X1717206Y2825384D1*
X1722014Y2830137D1*
X1724391Y2837322D1*
Y2873192D1*
X1744639Y2873137D2*
X1770892D1*
X1756577Y2854013D1*
X1763762D1*
X1768515Y2851637D1*
X1770892Y2849260D1*
X1773323Y2842075D1*
Y2837322D1*
X1770892Y2830137D1*
X1766138Y2825328D1*
X1758953Y2822952D1*
X1751768D1*
X1744639Y2825328D1*
X1742262Y2827760D1*
X1739830Y2832513D1*
X1217914Y3826612D2*
Y3790742D1*
X1220291Y3783557D1*
X1225099Y3778804D1*
X1232284Y3776372D1*
X1237037D1*
X1244222Y3778804D1*
X1249031Y3783557D1*
X1251407Y3790742D1*
Y3826612D1*
X1290778Y3776372D2*
Y3826557D1*
X1266847Y3793119D1*
X1302716D1*
X2119703Y1257593D2*
Y1221723D1*
X2122080Y1214538D1*
X2126888Y1209785D1*
X2134073Y1207353D1*
X2138827D1*
X2146012Y1209785D1*
X2150820Y1214538D1*
X2153197Y1221723D1*
Y1257593D1*
X2197321Y1257538D2*
X2173444D1*
X2171068Y1236038D1*
X2173444Y1238415D1*
X2180629Y1240847D1*
X2187759D1*
X2194944Y1238415D1*
X2199753Y1233662D1*
X2202129Y1226477D1*
Y1221723D1*
X2199753Y1214538D1*
X2194944Y1209730D1*
X2187759Y1207353D1*
X2180629D1*
X2173444Y1209730D1*
X2171068Y1212162D1*
X2168636Y1216915D1*
X3118428Y3305397D2*
X3154298D1*
X3161483Y3307774D1*
X3166236Y3312582D1*
X3168668Y3319767D1*
Y3324520D1*
X3166236Y3331705D1*
X3161483Y3336514D1*
X3154298Y3338890D1*
X3118428D1*
X3125613Y3383014D2*
X3120860Y3380638D1*
X3118483Y3373453D1*
Y3368700D1*
X3120860Y3361515D1*
X3128045Y3356706D1*
X3139983Y3354330D1*
X3151921D1*
X3161483Y3356706D1*
X3166292Y3361515D1*
X3168668Y3368700D1*
Y3371076D1*
X3166292Y3378206D1*
X3161483Y3383014D1*
X3154298Y3385391D1*
X3151921D1*
X3144736Y3383014D1*
X3139983Y3378206D1*
X3137607Y3371076D1*
Y3368700D1*
X3139983Y3361515D1*
X3144736Y3356706D1*
X3151921Y3354330D1*
X2116718Y3318644D2*
X2152588D1*
X2159773Y3321021D1*
X2164526Y3325829D1*
X2166958Y3333014D1*
Y3337768D1*
X2164526Y3344953D1*
X2159773Y3349761D1*
X2152588Y3352138D1*
X2116718D1*
X2166958Y3377138D2*
X2116773Y3401070D1*
Y3367577D1*
X948474Y4018934D2*
X981968Y3968694D1*
Y4018934D2*
X948474Y3968694D1*
X997407Y4009317D2*
X1002215Y4011749D1*
X1009400Y4018879D1*
Y3968694D1*
X2543701Y810602D2*
X2562824Y760362D1*
X2581948Y810602D1*
X2597387Y793855D2*
Y769924D1*
X2599764Y762794D1*
X2604572Y760362D1*
X2611757D1*
X2616510Y762794D1*
X2623695Y769924D1*
Y793855D2*
Y760362D1*
X2665443Y786670D2*
X2663066Y791479D1*
X2655881Y793855D1*
X2648696D1*
X2641511Y791479D1*
X2639135Y786670D1*
X2641511Y781917D1*
X2646320Y779485D1*
X2658258Y777109D1*
X2663066Y774732D1*
X2665443Y769924D1*
Y767547D1*
X2663066Y762794D1*
X2655881Y760362D1*
X2648696D1*
X2641511Y762794D1*
X2639135Y767547D1*
X2680882Y810602D2*
Y760362D1*
Y786670D2*
X2685691Y791479D1*
X2690444Y793855D1*
X2697629D1*
X2702382Y791479D1*
X2707190Y786670D1*
X2709567Y779485D1*
Y774732D1*
X2707190Y767547D1*
X2702382Y762794D1*
X2697629Y760362D1*
X2690444D1*
X2685691Y762794D1*
X2680882Y767547D1*
X2013701Y810602D2*
X2032824Y760362D1*
X2051948Y810602D1*
X2067387Y793855D2*
Y760362D1*
Y779485D2*
X2069819Y786670D1*
X2074572Y791479D1*
X2079380Y793855D1*
X2086566D1*
X2102005Y779485D2*
X2130690D1*
Y784294D1*
X2128313Y789102D1*
X2125936Y791479D1*
X2121128Y793855D1*
X2113943D1*
X2109190Y791479D1*
X2104381Y786670D1*
X2102005Y779485D1*
Y774732D1*
X2104381Y767547D1*
X2109190Y762794D1*
X2113943Y760362D1*
X2121128D1*
X2125936Y762794D1*
X2130690Y767547D1*
X2174814Y791479D2*
Y753177D1*
X2172437Y746047D1*
X2170061Y743615D1*
X2165252Y741239D1*
X2158067D1*
X2153314Y743615D1*
X2174814Y784294D2*
X2170061Y789047D1*
X2165252Y791479D1*
X2158067D1*
X2153314Y789047D1*
X2148505Y784294D1*
X2146129Y777109D1*
Y772300D1*
X2148505Y765170D1*
X2153314Y760362D1*
X2158067Y757985D1*
X2165252D1*
X2170061Y760362D1*
X2174814Y765170D1*
X1006461Y2361327D2*
X1006462Y2382827D1*
X1004030Y2390012D1*
X1001653Y2392444D1*
X996900Y2394821D1*
X992091D1*
X987338Y2392444D1*
X984906Y2390012D1*
X982530Y2382827D1*
Y2361327D1*
X1032770D1*
X1006462Y2378074D2*
X1032770Y2394821D1*
X1013647Y2410260D2*
Y2438945D1*
X1008838D1*
X1004030Y2436568D1*
X1001653Y2434192D1*
X999277Y2429383D1*
Y2422198D1*
X1001653Y2417445D1*
X1006462Y2412636D1*
X1013647Y2410260D1*
X1018400D1*
X1025585Y2412636D1*
X1030338Y2417445D1*
X1032770Y2422198D1*
Y2429383D1*
X1030338Y2434192D1*
X1025585Y2438945D1*
X1006462Y2480692D2*
X1001653Y2478316D1*
X999276Y2471131D1*
Y2463946D1*
X1001653Y2456761D1*
X1006462Y2454384D1*
X1011215Y2456761D1*
X1013647Y2461569D1*
X1016023Y2473507D1*
X1018400Y2478316D1*
X1023208Y2480692D1*
X1025585D1*
X1030338Y2478316D1*
X1032770Y2471131D1*
Y2463946D1*
X1030338Y2456761D1*
X1025585Y2454384D1*
X1013647Y2496131D2*
Y2524816D1*
X1008838D1*
X1004030Y2522440D1*
X1001653Y2520063D1*
X999276Y2515255D1*
Y2508070D1*
X1001653Y2503317D1*
X1006462Y2498508D1*
X1013647Y2496131D1*
X1018400D1*
X1025585Y2498508D1*
X1030338Y2503317D1*
X1032770Y2508070D1*
Y2515255D1*
X1030338Y2520063D1*
X1025585Y2524816D1*
X982530Y2547441D2*
X1023208D1*
X1030338Y2549817D1*
X1032770Y2554626D1*
Y2559379D1*
X999276Y2540256D2*
Y2557002D1*
X994530Y2775327D2*
X1044770D1*
Y2796882D1*
X1042338Y2804067D1*
X1039961Y2806444D1*
X1035208Y2808821D1*
X1028023D1*
X1023215Y2806444D1*
X1020838Y2804067D1*
X1018462Y2796882D1*
X1016030Y2804067D1*
X1013653Y2806444D1*
X1008900Y2808821D1*
X1004091D1*
X999338Y2806444D1*
X996906Y2804067D1*
X994530Y2796882D1*
Y2775327D1*
X1018461D2*
X1018462Y2796882D1*
X1011277Y2836198D2*
X1013653Y2831445D1*
X1018462Y2826636D1*
X1025647Y2824260D1*
X1030400D1*
X1037585Y2826636D1*
X1042338Y2831445D1*
X1044770Y2836198D1*
Y2843383D1*
X1042338Y2848192D1*
X1037585Y2852945D1*
X1030400Y2855377D1*
X1025647D1*
X1018462Y2852945D1*
X1013653Y2848192D1*
X1011277Y2843383D1*
Y2836198D1*
X1011276Y2882754D2*
X1013653Y2878001D1*
X1018462Y2873192D1*
X1025647Y2870816D1*
X1030400D1*
X1037585Y2873192D1*
X1042338Y2878001D1*
X1044770Y2882754D1*
Y2889939D1*
X1042338Y2894748D1*
X1037585Y2899501D1*
X1030400Y2901933D1*
X1025647D1*
X1018462Y2899501D1*
X1013653Y2894748D1*
X1011276Y2889939D1*
Y2882754D1*
X994530Y2924557D2*
X1035208D1*
X1042338Y2926933D1*
X1044770Y2931742D1*
Y2936495D1*
X1011276Y2917372D2*
Y2934118D1*
X994585Y2966304D2*
X996962Y2959119D1*
X1004147Y2954311D1*
X1016085Y2951934D1*
X1023270D1*
X1035208Y2954311D1*
X1042393Y2959119D1*
X1044770Y2966304D1*
Y2971058D1*
X1042393Y2978243D1*
X1035208Y2982996D1*
X1023270Y2985428D1*
X1016085D1*
X1004147Y2982996D1*
X996962Y2978243D1*
X994585Y2971058D1*
Y2966304D1*
X1004147Y2982996D2*
X1035208Y2954311D1*
X1018838Y1949327D2*
Y1970882D1*
X1016462Y1978012D1*
X1014030Y1980444D1*
X1009276Y1982821D1*
X1002091D1*
X997338Y1980444D1*
X994906Y1978012D1*
X992530Y1970882D1*
Y1949327D1*
X1042770D1*
X992530Y1998260D2*
X1042770D1*
Y2019815D1*
X1040338Y2027000D1*
X1037961Y2029377D1*
X1033208Y2031753D1*
X1026023D1*
X1021215Y2029377D1*
X1018838Y2027000D1*
X1016462Y2019815D1*
X1014030Y2027000D1*
X1011653Y2029377D1*
X1006900Y2031753D1*
X1002091D1*
X997338Y2029377D1*
X994906Y2027000D1*
X992530Y2019815D1*
Y1998260D1*
X1016462D2*
Y2019815D1*
X992585Y2061562D2*
X994962Y2054377D1*
X1002147Y2049569D1*
X1014085Y2047192D1*
X1021270D1*
X1033208Y2049569D1*
X1040393Y2054377D1*
X1042770Y2061562D1*
Y2066316D1*
X1040393Y2073501D1*
X1033208Y2078254D1*
X1021270Y2080686D1*
X1014085D1*
X1002147Y2078254D1*
X994962Y2073501D1*
X992585Y2066316D1*
Y2061562D1*
X1002147Y2078254D2*
X1033208Y2049569D1*
X465182Y2060402D2*
D127*
Y2081405D1*
X480481Y2069953D1*
Y2075701D1*
X482382Y2079503D1*
X484283Y2081405D1*
X490031Y2083350D1*
X493834D1*
X499582Y2081404D1*
X503429Y2077602D1*
X505330Y2071854D1*
Y2066106D1*
X503429Y2060402D1*
X501483Y2058501D1*
X497681Y2056555D1*
X465138Y2095701D2*
X505330Y2111000D1*
X465138Y2126299D1*
X465182Y2142497D2*
Y2163499D1*
X480481Y2152047D1*
Y2157795D1*
X482382Y2161598D1*
X484283Y2163499D1*
X490031Y2165445D1*
X493834D1*
X499582Y2163499D1*
X503429Y2159697D1*
X505330Y2153949D1*
Y2148201D1*
X503429Y2142497D1*
X501483Y2140595D1*
X497681Y2138650D1*
X474689Y2363251D2*
X470886Y2361350D1*
X467039Y2357503D1*
X465138Y2353701D1*
Y2346051D1*
X467039Y2342205D1*
X470886Y2338402D1*
X474689Y2336457D1*
X480437Y2334555D1*
X490031D1*
X495735Y2336457D1*
X499582Y2338402D1*
X503385Y2342205D1*
X505330Y2346051D1*
Y2353701D1*
X503385Y2357503D1*
X499582Y2361350D1*
X495735Y2363251D1*
X490031D1*
Y2353701D1*
X465138Y2402397D2*
X505330D1*
X465138Y2375603D1*
X505330D1*
X465138Y2414749D2*
X505330D1*
Y2428146D1*
X503385Y2433894D1*
X499582Y2437741D1*
X495735Y2439642D1*
X490031Y2441543D1*
X480437D1*
X474689Y2439642D1*
X470886Y2437741D1*
X467039Y2433894D1*
X465138Y2428146D1*
Y2414749D1*
X474689Y2223251D2*
X470886Y2221350D1*
X467039Y2217503D1*
X465138Y2213701D1*
Y2206051D1*
X467039Y2202205D1*
X470886Y2198402D1*
X474689Y2196457D1*
X480437Y2194555D1*
X490031D1*
X495735Y2196457D1*
X499582Y2198402D1*
X503385Y2202205D1*
X505330Y2206051D1*
Y2213701D1*
X503385Y2217503D1*
X499582Y2221350D1*
X495735Y2223251D1*
X465138Y2235603D2*
X505330D1*
Y2258551D1*
X465138Y2270902D2*
X505330D1*
X465138Y2297697D2*
X491933Y2270902D1*
X482338Y2280452D2*
X505330Y2297697D1*
X470886Y2771350D2*
X467039Y2767547D1*
X465138Y2761799D1*
Y2754150D1*
X467039Y2748402D1*
X470886Y2744555D1*
X474689D1*
X478535Y2746501D1*
X480437Y2748402D1*
X482338Y2752205D1*
X486185Y2763701D1*
X488086Y2767547D1*
X490031Y2769449D1*
X493834Y2771350D1*
X499582D1*
X503385Y2767547D1*
X505330Y2761799D1*
Y2754150D1*
X503385Y2748402D1*
X499582Y2744555D1*
X465138Y2783701D2*
X505330Y2793296D1*
X465138Y2802847D1*
X505330Y2812397D1*
X465138Y2821992D1*
Y2845840D2*
X467039Y2841993D1*
X470886Y2838190D1*
X474689Y2836245D1*
X480437Y2834343D1*
X490031D1*
X495735Y2836245D1*
X499582Y2838190D1*
X503385Y2841993D1*
X505330Y2845840D1*
Y2853489D1*
X503385Y2857291D1*
X499582Y2861138D1*
X495735Y2863039D1*
X490031Y2864941D1*
X480437D1*
X474689Y2863039D1*
X470886Y2861138D1*
X467039Y2857291D1*
X465138Y2853489D1*
Y2845840D1*
X484283Y2608555D2*
Y2625755D1*
X482338Y2631503D1*
X480437Y2633449D1*
X476634Y2635350D1*
X472787D1*
X468985Y2633449D1*
X467039Y2631503D1*
X465138Y2625755D1*
Y2608555D1*
X505330D1*
X484283Y2621953D2*
X505330Y2635350D1*
X470886Y2674496D2*
X467039Y2670694D1*
X465138Y2664945D1*
Y2657296D1*
X467039Y2651548D1*
X470886Y2647701D1*
X474689D1*
X478535Y2649647D1*
X480437Y2651548D1*
X482338Y2655351D1*
X486185Y2666847D1*
X488086Y2670693D1*
X490031Y2672595D1*
X493834Y2674496D1*
X499582D1*
X503385Y2670693D1*
X505330Y2664945D1*
Y2657296D1*
X503385Y2651548D1*
X499582Y2647701D1*
X465138Y2700245D2*
X505330D1*
X465138Y2686847D2*
Y2713642D1*
Y2482555D2*
X505330D1*
Y2495953D1*
X503385Y2501701D1*
X499582Y2505547D1*
X495735Y2507449D1*
X490031Y2509350D1*
X480437D1*
X474689Y2507449D1*
X470886Y2505547D1*
X467039Y2501701D1*
X465138Y2495953D1*
Y2482555D1*
Y2521701D2*
X505330D1*
X465138Y2545549D2*
X467039Y2541702D1*
X470886Y2537900D1*
X474689Y2535954D1*
X480437Y2534053D1*
X490031D1*
X495735Y2535954D1*
X499582Y2537899D1*
X503385Y2541702D1*
X505330Y2545549D1*
Y2553198D1*
X503385Y2557001D1*
X499582Y2560847D1*
X495735Y2562749D1*
X490031Y2564650D1*
X480437D1*
X474689Y2562749D1*
X470886Y2560847D1*
X467039Y2557001D1*
X465138Y2553198D1*
Y2545549D1*
X3903101Y1651738D2*
D128*
X3895496Y1647936D1*
X3887803Y1640242D1*
X3884000Y1632637D1*
Y1617339D1*
X3887803Y1609645D1*
X3895496Y1602040D1*
X3903101Y1598149D1*
X3914597Y1594347D1*
X3933787D1*
X3945195Y1598149D1*
X3952888Y1602040D1*
X3960493Y1609645D1*
X3964384Y1617339D1*
Y1632637D1*
X3960493Y1640242D1*
X3952888Y1647936D1*
X3945195Y1651738D1*
X3933787D1*
Y1632637D1*
X3926094Y1676441D2*
Y1710929D1*
X3922291Y1722337D1*
X3918400Y1726228D1*
X3910795Y1730031D1*
X3899299D1*
X3891694Y1726228D1*
X3887803Y1722337D1*
X3884000Y1710929D1*
Y1676441D1*
X3964384D1*
X3895496Y1808323D2*
X3887803Y1800718D1*
X3884000Y1789222D1*
Y1773923D1*
X3887803Y1762427D1*
X3895496Y1754733D1*
X3903101D1*
X3910795Y1758624D1*
X3914598Y1762427D1*
X3918400Y1770032D1*
X3926094Y1793024D1*
X3929896Y1800718D1*
X3933787Y1804520D1*
X3941392Y1808323D1*
X3952888D1*
X3960493Y1800718D1*
X3964384Y1789222D1*
Y1773923D1*
X3960493Y1762427D1*
X3952888Y1754733D1*
X3884000Y1833025D2*
X3964384D1*
Y1859820D1*
X3960493Y1871316D1*
X3952888Y1879010D1*
X3945195Y1882812D1*
X3933787Y1886615D1*
X3914598D1*
X3903101Y1882812D1*
X3895496Y1879010D1*
X3887803Y1871316D1*
X3884000Y1859820D1*
Y1833025D1*
Y1938112D2*
X3964384D1*
X3884000Y1911318D2*
Y1964907D1*
X3910795Y1989610D2*
X3964384Y2031703D1*
X3910795D2*
X3964384Y1989610D1*
X3924236Y2134167D2*
Y2178383D1*
X3922291Y2280847D2*
Y2315247D1*
X3918400Y2326743D1*
X3914597Y2330634D1*
X3906992Y2334437D1*
X3899299D1*
X3891694Y2330634D1*
X3887803Y2326743D1*
X3884000Y2315247D1*
Y2280847D1*
X3964384D1*
X3922291Y2307642D2*
X3964384Y2334437D1*
X3933787Y2359139D2*
Y2405035D1*
X3926094D1*
X3918400Y2401233D1*
X3914597Y2397430D1*
X3910795Y2389737D1*
Y2378241D1*
X3914597Y2370636D1*
X3922291Y2362942D1*
X3933787Y2359139D1*
X3941392D1*
X3952888Y2362942D1*
X3960493Y2370636D1*
X3964384Y2378241D1*
Y2389737D1*
X3960493Y2397430D1*
X3952888Y2405035D1*
X3910795Y2429738D2*
X3964384Y2452730D1*
X3910795Y2475634D1*
X3884089Y2601090D2*
X3887891Y2589594D1*
X3899387Y2581901D1*
X3918488Y2578098D1*
X3929985D1*
X3949086Y2581901D1*
X3960582Y2589594D1*
X3964384Y2601090D1*
Y2608695D1*
X3960582Y2620192D1*
X3949086Y2627797D1*
X3929985Y2631688D1*
X3918488D1*
X3899387Y2627797D1*
X3887891Y2620192D1*
X3884089Y2608695D1*
Y2601090D1*
X3899387Y2627797D2*
X3949086Y2581901D1*
X4055387Y1680347D2*
X4051496Y1688040D1*
X4040089Y1699536D1*
X4120384D1*
X4040089Y1747231D2*
X4043891Y1735735D1*
X4055387Y1728042D1*
X4074489Y1724239D1*
X4085985D1*
X4105086Y1728041D1*
X4116582Y1735735D1*
X4120384Y1747231D1*
Y1754836D1*
X4116582Y1766332D1*
X4105086Y1773937D1*
X4085985Y1777828D1*
X4074489D1*
X4055387Y1773937D1*
X4043891Y1766332D1*
X4040089Y1754836D1*
Y1747231D1*
X4055387Y1773937D2*
X4105086Y1728041D1*
X4040089Y1825523D2*
X4043891Y1814027D1*
X4055387Y1806334D1*
X4074489Y1802531D1*
X4085985D1*
X4105086Y1806334D1*
X4116582Y1814027D1*
X4120384Y1825523D1*
Y1833128D1*
X4116582Y1844624D1*
X4105086Y1852229D1*
X4085985Y1856120D1*
X4074488D1*
X4055387Y1852229D1*
X4043891Y1844624D1*
X4040089Y1833128D1*
Y1825523D1*
X4055387Y1852229D2*
X4105086Y1806334D1*
X4080237Y1880823D2*
Y1925039D1*
X4059190Y1953633D2*
X4055387D1*
X4047694Y1957435D1*
X4043891Y1961238D1*
X4040089Y1968931D1*
Y1984230D1*
X4043891Y1991835D1*
X4047694Y1995637D1*
X4055387Y1999528D1*
X4062992D1*
X4070686Y1995637D1*
X4082094Y1988032D1*
X4120384Y1949742D1*
Y2003331D1*
Y2066324D2*
X4040089D1*
X4093590Y2028034D1*
Y2085426D1*
X4040089Y2133121D2*
X4043891Y2121624D1*
X4055387Y2113931D1*
X4074488Y2110128D1*
X4085985D1*
X4105086Y2113931D1*
X4116582Y2121624D1*
X4120384Y2133121D1*
Y2140726D1*
X4116582Y2152222D1*
X4105086Y2159827D1*
X4085985Y2163718D1*
X4074488D1*
X4055387Y2159827D1*
X4043891Y2152222D1*
X4040089Y2140726D1*
Y2133121D1*
X4055387Y2159827D2*
X4105086Y2113931D1*
X4040089Y2211413D2*
X4043891Y2199917D1*
X4055387Y2192223D1*
X4074488Y2188421D1*
X4085985D1*
X4105086Y2192223D1*
X4116582Y2199917D1*
X4120384Y2211413D1*
Y2219018D1*
X4116582Y2230514D1*
X4105086Y2238119D1*
X4085985Y2242010D1*
X4074488D1*
X4055387Y2238119D1*
X4043891Y2230514D1*
X4040089Y2219018D1*
Y2211413D1*
X4055387Y2238119D2*
X4105086Y2192223D1*
X4120384Y2405669D2*
X4040000D1*
X4120384Y2375071D1*
X4040000Y2344474D1*
X4120384D1*
X4040000Y2430371D2*
X4120384D1*
X4040000Y2483961D2*
X4120384D1*
X4078291Y2430371D2*
Y2483961D1*
X4066795Y2508664D2*
Y2550757D1*
X4120384Y2508664D1*
Y2550757D1*
X1312088Y636782D2*
D129*
X1340806Y697003D1*
X1300614D1*
X1359333Y666893D2*
X1392494D1*
X1411022Y685529D2*
X1416792Y688448D1*
X1425414Y697003D1*
Y636782D1*
X1478363Y688448D2*
X1475511Y694151D1*
X1466889Y697003D1*
X1461185D1*
X1452563Y694151D1*
X1446793Y685529D1*
X1443941Y671204D1*
Y656878D1*
X1446793Y645404D1*
X1452563Y639634D1*
X1461185Y636782D1*
X1464037D1*
X1472593Y639634D1*
X1478363Y645404D1*
X1481215Y654026D1*
Y656878D1*
X1478363Y665500D1*
X1472593Y671204D1*
X1464037Y674055D1*
X1461185D1*
X1452563Y671204D1*
X1446793Y665500D1*
X1443941Y656878D1*
X1558063Y697070D2*
X1581011Y636782D1*
X1603959Y697070D1*
X1656908D2*
Y636782D1*
Y668352D2*
X1651204Y674122D1*
X1645434Y676974D1*
X1636812D1*
X1631108Y674122D1*
X1625338Y668352D1*
X1622486Y659730D1*
Y654026D1*
X1625338Y645404D1*
X1631108Y639700D1*
X1636812Y636782D1*
X1645434D1*
X1651204Y639700D1*
X1656908Y645404D1*
X1709923Y668352D2*
X1704153Y674122D1*
X1698383Y676974D1*
X1689827D1*
X1684057Y674122D1*
X1678353Y668352D1*
X1675435Y659730D1*
Y654026D1*
X1678353Y645404D1*
X1684057Y639700D1*
X1689827Y636782D1*
X1698383D1*
X1704153Y639700D1*
X1709923Y645404D1*
M02*
