G04 DipTrace 3.0.0.2*
G04 SDR_Transmitter.GL3*
%MOIN*%
G04 #@! TF.FileFunction,Copper,L3,Inr*
G04 #@! TF.Part,Single*
%ADD25C,0.06*%
%ADD33C,0.059055*%
%ADD36C,0.120079*%
%ADD38C,0.070866*%
G04 #@! TA.AperFunction,CopperBalancing*
%ADD14C,0.01*%
G04 #@! TA.AperFunction,ViaPad*
%ADD56C,0.024*%
%FSLAX26Y26*%
G04*
G70*
G90*
G75*
G01*
G04 Inner2_Plane*
%LPD*%
D56*
X1723906Y469906D3*
X1916000Y510000D3*
D3*
X1430000Y346000D3*
X1290000Y1152000D3*
X1454000Y452000D3*
X1632000Y924000D3*
X1356000Y700000D3*
X1366000Y2126000D3*
X2072000Y494000D3*
X2036000Y1966000D3*
X1560000Y676000D3*
X1948000Y568000D3*
X1414000Y2193682D3*
X1714000Y1788000D3*
X796000Y2130000D3*
X1414000Y2193682D3*
Y1806000D3*
X1478000Y752000D3*
X1946000D3*
X1260000Y1520000D3*
X1450992D3*
X1535008D3*
X1724000D3*
X1512000Y306000D3*
X2104000Y1446000D3*
X1530000Y702000D3*
X1948000Y630000D3*
X2074000Y1134008D3*
X1422000Y510000D3*
X1504000Y728000D3*
X1948000Y692000D3*
X1584000Y332110D3*
X2080000Y922000D3*
X1584000Y332110D3*
X1556000Y2192000D3*
X1660000D3*
X1776000Y2084000D3*
X1778000Y1888000D3*
X1776000Y2084000D3*
X1660000Y2192000D3*
X2070201Y278000D3*
X1472000D3*
X1726000Y2196000D3*
X2070201Y278000D3*
X1490000Y68000D3*
X2130000Y224000D3*
X2033039Y2152961D3*
X1192000Y136000D3*
X1330000Y664000D3*
X1190000Y2084063D3*
X1078000Y1434000D3*
X2074000Y1822000D3*
X1510000Y2200000D3*
X802000Y1058000D3*
Y980000D3*
Y900000D3*
X1332000Y496000D3*
X2222000Y94000D3*
X1824000Y118000D3*
X2012000Y330000D3*
X1704000Y896000D3*
X1576000Y496000D3*
X1158000Y198000D3*
X2032000Y1050000D3*
X2034000Y1320000D3*
X1960000Y360000D3*
X1944000Y1022000D3*
X1630000Y776000D3*
X1618000Y644000D3*
X1734000Y568000D3*
X1702000Y842000D3*
X1530000Y950000D3*
X1162000Y562000D3*
X1398000Y204000D3*
X1382000Y316000D3*
X1570000Y226000D3*
X1502000Y506000D3*
X1878000Y454000D3*
X1598000Y2098000D3*
X1662000Y2020000D3*
X1474000Y1982000D3*
X1564000Y1894000D3*
X1330000Y1944000D3*
X1494000Y1568000D3*
X1568000Y1744000D3*
X1396000Y1746000D3*
X1842000Y1780000D3*
X1854000Y1700000D3*
X1892000Y2084000D3*
X2214000Y1300000D3*
X1140000Y1154000D3*
X1278000Y878000D3*
X2232000Y386000D3*
X2138000Y1028000D3*
X1494000Y1230000D3*
X1224000Y174000D3*
X1324000Y418000D3*
X946000Y2112000D3*
X920000Y1610000D3*
X906000Y1180000D3*
X466000Y618000D3*
X526000Y378000D3*
X1026000Y386000D3*
X2274000Y178000D3*
X1804000Y1226000D3*
X1848000Y2288000D3*
X2212000Y1858000D3*
X290000Y1550000D3*
X1572000Y50000D3*
X506000Y2182000D3*
X218000Y1092000D3*
X1736000Y252000D3*
X1954000Y114000D3*
X2334000Y1060000D3*
X916000Y1074000D3*
X918000Y882000D3*
X19000Y2372131D2*
D14*
X2380995D1*
X19000Y2362262D2*
X2380995D1*
X19000Y2352394D2*
X2380995D1*
X19000Y2342525D2*
X2380995D1*
X19000Y2332656D2*
X2380995D1*
X19000Y2322787D2*
X1313572D1*
X1330436D2*
X2380995D1*
X19000Y2312919D2*
X1291991D1*
X1352017D2*
X1835604D1*
X1860396D2*
X2380995D1*
X19000Y2303050D2*
X1283143D1*
X1360865D2*
X1824100D1*
X1871900D2*
X2380995D1*
X19000Y2293181D2*
X1278220D1*
X1365787D2*
X1820096D1*
X1875904D2*
X2380995D1*
X19000Y2283312D2*
X1275916D1*
X1368092D2*
X1819999D1*
X1876001D2*
X2380995D1*
X19000Y2273444D2*
X1275837D1*
X1368169D2*
X1823787D1*
X1872213D2*
X2380995D1*
X19000Y2263575D2*
X1277948D1*
X1366041D2*
X1834588D1*
X1861412D2*
X2380995D1*
X19000Y2253706D2*
X1282655D1*
X1361353D2*
X2380995D1*
X19000Y2243837D2*
X1291092D1*
X1352896D2*
X2380995D1*
X19000Y2233969D2*
X1309940D1*
X1334068D2*
X2380995D1*
X19000Y2224100D2*
X1495955D1*
X1524029D2*
X2380995D1*
X19000Y2214231D2*
X246717D1*
X313092D2*
X1394881D1*
X1433131D2*
X1485584D1*
X1534420D2*
X1538987D1*
X1573013D2*
X1642987D1*
X1677017D2*
X1704549D1*
X1747448D2*
X2380995D1*
X19000Y2204362D2*
X231112D1*
X328697D2*
X489159D1*
X522837D2*
X1387772D1*
X1440240D2*
X1481951D1*
X1581451D2*
X1634549D1*
X1685455D2*
X1698904D1*
X1753092D2*
X2380995D1*
X19000Y2194493D2*
X221112D1*
X338697D2*
X480623D1*
X531392D2*
X1385604D1*
X1442388D2*
X1482167D1*
X1584283D2*
X1631717D1*
X1688287D2*
X1697635D1*
X1754361D2*
X2380995D1*
X19000Y2184625D2*
X214100D1*
X345709D2*
X477732D1*
X534283D2*
X1387147D1*
X1440865D2*
X1486327D1*
X1583385D2*
X1632615D1*
X1687388D2*
X1700076D1*
X1751920D2*
X2380995D1*
X19000Y2174756D2*
X209159D1*
X350651D2*
X478572D1*
X533424D2*
X1393181D1*
X1434811D2*
X1498337D1*
X1521647D2*
X1533709D1*
X1578287D2*
X1637713D1*
X1682291D2*
X1707693D1*
X1744303D2*
X2015428D1*
X2050651D2*
X2380995D1*
X19000Y2164887D2*
X205877D1*
X353951D2*
X483592D1*
X528404D2*
X1551052D1*
X1560963D2*
X1655037D1*
X1664948D2*
X2007381D1*
X2058717D2*
X2380995D1*
X19000Y2155018D2*
X204001D1*
X355807D2*
X500232D1*
X511764D2*
X783827D1*
X808169D2*
X2004724D1*
X2061353D2*
X2380995D1*
X19000Y2145150D2*
X203475D1*
X356333D2*
X772167D1*
X819831D2*
X1345408D1*
X1386588D2*
X2005780D1*
X2060299D2*
X2380995D1*
X19000Y2135281D2*
X204236D1*
X355572D2*
X768123D1*
X823892D2*
X930545D1*
X961451D2*
X1339217D1*
X1392780D2*
X2011112D1*
X2054967D2*
X2380995D1*
X19000Y2125412D2*
X206327D1*
X353483D2*
X767987D1*
X824009D2*
X921112D1*
X970885D2*
X1337615D1*
X1394400D2*
X2380995D1*
X19000Y2115543D2*
X209881D1*
X349928D2*
X771717D1*
X820280D2*
X917831D1*
X974167D2*
X1339667D1*
X1392331D2*
X1575955D1*
X1620045D2*
X2380995D1*
X19000Y2105675D2*
X215155D1*
X344655D2*
X782381D1*
X809615D2*
X918337D1*
X973659D2*
X1172167D1*
X1207837D2*
X1346619D1*
X1385377D2*
X1570701D1*
X1625299D2*
X1758240D1*
X1793756D2*
X1874236D1*
X1909772D2*
X2380995D1*
X19000Y2095806D2*
X222596D1*
X337213D2*
X922888D1*
X969108D2*
X1164236D1*
X1215748D2*
X1569685D1*
X1626315D2*
X1750272D1*
X1801724D2*
X1866268D1*
X1917720D2*
X2380995D1*
X19000Y2085937D2*
X233260D1*
X326549D2*
X936541D1*
X955455D2*
X1161659D1*
X1218327D2*
X1572400D1*
X1623600D2*
X1747673D1*
X1804323D2*
X1863669D1*
X1920337D2*
X2380995D1*
X19000Y2076068D2*
X250604D1*
X309205D2*
X1162791D1*
X1217213D2*
X1580584D1*
X1615416D2*
X1748768D1*
X1803228D2*
X1864764D1*
X1919224D2*
X2380995D1*
X19000Y2066199D2*
X1168220D1*
X1211783D2*
X1754177D1*
X1797837D2*
X1870173D1*
X1913833D2*
X2380995D1*
X19000Y2056331D2*
X2380995D1*
X19000Y2046462D2*
X1653885D1*
X1670104D2*
X2380995D1*
X19000Y2036593D2*
X1639197D1*
X1684811D2*
X2380995D1*
X19000Y2026724D2*
X1634432D1*
X1689556D2*
X2380995D1*
X19000Y2016856D2*
X1633787D1*
X1690220D2*
X2380995D1*
X19000Y2006987D2*
X1461756D1*
X1486236D2*
X1636892D1*
X1687115D2*
X2380995D1*
X19000Y1997118D2*
X1450155D1*
X1497857D2*
X1645936D1*
X1678072D2*
X2380995D1*
X19000Y1987249D2*
X449315D1*
X510728D2*
X1446112D1*
X1501900D2*
X2017693D1*
X2054303D2*
X2380995D1*
X19000Y1977381D2*
X439021D1*
X521001D2*
X1445995D1*
X1501999D2*
X2010076D1*
X2061920D2*
X2380995D1*
X19000Y1967512D2*
X432967D1*
X527076D2*
X1314940D1*
X1345064D2*
X1449744D1*
X1498248D2*
X2007635D1*
X2064361D2*
X2380995D1*
X19000Y1957643D2*
X429529D1*
X530495D2*
X1305232D1*
X1354772D2*
X1460448D1*
X1487545D2*
X2008904D1*
X2063092D2*
X2380995D1*
X19000Y1947774D2*
X428220D1*
X531823D2*
X1301853D1*
X1358131D2*
X2014549D1*
X2057467D2*
X2380995D1*
X19000Y1937906D2*
X428827D1*
X531197D2*
X1302283D1*
X1357720D2*
X2380995D1*
X19000Y1928037D2*
X431463D1*
X528560D2*
X1306736D1*
X1353268D2*
X2380995D1*
X19000Y1918168D2*
X436483D1*
X523560D2*
X1319861D1*
X1340143D2*
X1550096D1*
X1577916D2*
X2380995D1*
X19000Y1908299D2*
X444920D1*
X515104D2*
X1539627D1*
X1588365D2*
X1758592D1*
X1797408D2*
X2380995D1*
X19000Y1898430D2*
X461092D1*
X498932D2*
X1535955D1*
X1592037D2*
X1751659D1*
X1804341D2*
X2380995D1*
X19000Y1888562D2*
X451228D1*
X508815D2*
X1536151D1*
X1591861D2*
X1749608D1*
X1806392D2*
X2380995D1*
X19000Y1878693D2*
X440096D1*
X519948D2*
X1540272D1*
X1587720D2*
X1751228D1*
X1804772D2*
X2193045D1*
X2230963D2*
X2380995D1*
X19000Y1868824D2*
X433592D1*
X526432D2*
X1552185D1*
X1575807D2*
X1757420D1*
X1798580D2*
X2185837D1*
X2238169D2*
X2380995D1*
X19000Y1858955D2*
X429861D1*
X530163D2*
X2183612D1*
X2240377D2*
X2380995D1*
X19000Y1849087D2*
X428280D1*
X531764D2*
X2068865D1*
X2079127D2*
X2185096D1*
X2238912D2*
X2380995D1*
X19000Y1839218D2*
X428631D1*
X531392D2*
X2051677D1*
X2096315D2*
X2191052D1*
X2232955D2*
X2380995D1*
X19000Y1829349D2*
X430995D1*
X529049D2*
X1398669D1*
X1429341D2*
X2046600D1*
X2101392D2*
X2380995D1*
X19000Y1819480D2*
X261912D1*
X298072D2*
X435643D1*
X524381D2*
X1389139D1*
X1438853D2*
X2045720D1*
X2102291D2*
X2380995D1*
X19000Y1809612D2*
X238455D1*
X321549D2*
X443513D1*
X516509D2*
X1385837D1*
X1442155D2*
X1696151D1*
X1731841D2*
X2048552D1*
X2099440D2*
X2380995D1*
X19000Y1799743D2*
X226052D1*
X333932D2*
X457948D1*
X502096D2*
X1386327D1*
X1441685D2*
X1688240D1*
X1739752D2*
X1822009D1*
X1861999D2*
X2057029D1*
X2090983D2*
X2380995D1*
X19000Y1789874D2*
X217635D1*
X342369D2*
X1390857D1*
X1437155D2*
X1685663D1*
X1742331D2*
X1815448D1*
X1868560D2*
X2380995D1*
X19000Y1780005D2*
X211659D1*
X348345D2*
X1404333D1*
X1423659D2*
X1686795D1*
X1741217D2*
X1813592D1*
X1870396D2*
X2380995D1*
X19000Y1770136D2*
X207517D1*
X352467D2*
X1382029D1*
X1409967D2*
X1558768D1*
X1577232D2*
X1692224D1*
X1735768D2*
X1815428D1*
X1868560D2*
X2380995D1*
X19000Y1760268D2*
X204920D1*
X355084D2*
X1371600D1*
X1420396D2*
X1544959D1*
X1591041D2*
X1821991D1*
X1862017D2*
X2380995D1*
X19000Y1750399D2*
X203689D1*
X356315D2*
X1367948D1*
X1424049D2*
X1540349D1*
X1595651D2*
X2380995D1*
X19000Y1740530D2*
X203768D1*
X356236D2*
X1368143D1*
X1423853D2*
X1539823D1*
X1596177D2*
X2380995D1*
X19000Y1730661D2*
X205135D1*
X354869D2*
X1372303D1*
X1419713D2*
X1543064D1*
X1592936D2*
X2380995D1*
X19000Y1720793D2*
X207888D1*
X352096D2*
X1384256D1*
X1407740D2*
X1552440D1*
X1583560D2*
X1835155D1*
X1872837D2*
X2380995D1*
X19000Y1710924D2*
X212205D1*
X347780D2*
X1827869D1*
X1880123D2*
X2380995D1*
X19000Y1701055D2*
X218416D1*
X341588D2*
X1825623D1*
X1882388D2*
X2380995D1*
X19000Y1691186D2*
X227167D1*
X332837D2*
X1827049D1*
X1880944D2*
X2380995D1*
X19000Y1681318D2*
X240173D1*
X319831D2*
X1832967D1*
X1875045D2*
X2380995D1*
X19000Y1671449D2*
X267459D1*
X292545D2*
X2380995D1*
X19000Y1661580D2*
X2380995D1*
X19000Y1651711D2*
X2380995D1*
X19000Y1641843D2*
X2380995D1*
X19000Y1631974D2*
X902635D1*
X937369D2*
X2380995D1*
X19000Y1622105D2*
X894412D1*
X945572D2*
X2380995D1*
X19000Y1612236D2*
X891697D1*
X948307D2*
X2380995D1*
X19000Y1602367D2*
X892693D1*
X947311D2*
X2380995D1*
X19000Y1592499D2*
X897908D1*
X942076D2*
X1480720D1*
X1507272D2*
X2380995D1*
X19000Y1582630D2*
X1469841D1*
X1518169D2*
X2380995D1*
X19000Y1572761D2*
X273748D1*
X306256D2*
X1466013D1*
X1521979D2*
X2380995D1*
X19000Y1562892D2*
X264823D1*
X315181D2*
X1466072D1*
X1521920D2*
X2380995D1*
X19000Y1553024D2*
X261776D1*
X318228D2*
X1470056D1*
X1517936D2*
X2380995D1*
X19000Y1543155D2*
X262479D1*
X317525D2*
X1244353D1*
X1275651D2*
X1435349D1*
X1466647D2*
X1481444D1*
X1506549D2*
X1519353D1*
X1550651D2*
X1708357D1*
X1739655D2*
X2380995D1*
X19000Y1533286D2*
X267283D1*
X312720D2*
X1235037D1*
X1284967D2*
X1426033D1*
X1475963D2*
X1510037D1*
X1559967D2*
X1699041D1*
X1748971D2*
X2380995D1*
X19000Y1523417D2*
X282361D1*
X297643D2*
X1231815D1*
X1288189D2*
X1422811D1*
X1479185D2*
X1506815D1*
X1563189D2*
X1695819D1*
X1752193D2*
X2380995D1*
X19000Y1513549D2*
X1232361D1*
X1287623D2*
X1423357D1*
X1478619D2*
X1507381D1*
X1562643D2*
X1696365D1*
X1751627D2*
X2380995D1*
X19000Y1503680D2*
X1236991D1*
X1283013D2*
X1427987D1*
X1474009D2*
X1511991D1*
X1558013D2*
X1700995D1*
X1747017D2*
X2380995D1*
X19000Y1493811D2*
X1250936D1*
X1269049D2*
X1441932D1*
X1460045D2*
X1525955D1*
X1544068D2*
X1714940D1*
X1733052D2*
X2380995D1*
X19000Y1483942D2*
X2380995D1*
X19000Y1474073D2*
X2380995D1*
X19000Y1464205D2*
X2082517D1*
X2125475D2*
X2380995D1*
X19000Y1454336D2*
X1058631D1*
X1097369D2*
X2076892D1*
X2131100D2*
X2380995D1*
X19000Y1444467D2*
X1051677D1*
X1104323D2*
X2075643D1*
X2132349D2*
X2380995D1*
X19000Y1434598D2*
X1049608D1*
X1106392D2*
X2078084D1*
X2129908D2*
X2380995D1*
X19000Y1424730D2*
X1051209D1*
X1104791D2*
X2085720D1*
X2122272D2*
X2380995D1*
X19000Y1414861D2*
X1057400D1*
X1098600D2*
X2380995D1*
X19000Y1404992D2*
X2380995D1*
X19000Y1395123D2*
X2380995D1*
X19000Y1385255D2*
X2380995D1*
X19000Y1375386D2*
X2380995D1*
X19000Y1365517D2*
X2380995D1*
X19000Y1355648D2*
X2380995D1*
X19000Y1345780D2*
X2380995D1*
X19000Y1335911D2*
X2380995D1*
X19000Y1326042D2*
X2204491D1*
X2223521D2*
X2380995D1*
X19000Y1316173D2*
X2190877D1*
X2237115D2*
X2380995D1*
X19000Y1306304D2*
X2186327D1*
X2241667D2*
X2380995D1*
X19000Y1296436D2*
X2185837D1*
X2242173D2*
X2380995D1*
X19000Y1286567D2*
X2189119D1*
X2238873D2*
X2380995D1*
X19000Y1276698D2*
X2198592D1*
X2229420D2*
X2380995D1*
X19000Y1266829D2*
X2380995D1*
X19000Y1256961D2*
X1488123D1*
X1499888D2*
X2380995D1*
X19000Y1247092D2*
X1471580D1*
X1516412D2*
X1785505D1*
X1822487D2*
X2380995D1*
X19000Y1237223D2*
X1466560D1*
X1521432D2*
X1778005D1*
X1829987D2*
X2380995D1*
X19000Y1227354D2*
X1465720D1*
X1522272D2*
X1775643D1*
X1832369D2*
X2380995D1*
X19000Y1217486D2*
X1468631D1*
X1519381D2*
X1776951D1*
X1831041D2*
X2380995D1*
X19000Y1207617D2*
X1477205D1*
X1510807D2*
X1782673D1*
X1825319D2*
X2380995D1*
X19000Y1197748D2*
X884119D1*
X927877D2*
X2380995D1*
X19000Y1187879D2*
X878748D1*
X933248D2*
X2380995D1*
X19000Y1178010D2*
X877673D1*
X934323D2*
X1125799D1*
X1154205D2*
X1280388D1*
X1299615D2*
X2380995D1*
X19000Y1168142D2*
X880291D1*
X931705D2*
X1115525D1*
X1164459D2*
X1266853D1*
X1313131D2*
X2380995D1*
X19000Y1158273D2*
X888299D1*
X923697D2*
X1111932D1*
X1168072D2*
X1262323D1*
X1317681D2*
X2060272D1*
X2087720D2*
X2380995D1*
X19000Y1148404D2*
X107831D1*
X152173D2*
X284979D1*
X329341D2*
X1112185D1*
X1167819D2*
X1261833D1*
X1318169D2*
X2049685D1*
X2098307D2*
X2380995D1*
X19000Y1138535D2*
X90740D1*
X169264D2*
X267888D1*
X346432D2*
X1116385D1*
X1163619D2*
X1265135D1*
X1314869D2*
X2045975D1*
X2102017D2*
X2380995D1*
X19000Y1128667D2*
X81189D1*
X178815D2*
X258357D1*
X355963D2*
X1128552D1*
X1151432D2*
X1274627D1*
X1305357D2*
X2046131D1*
X2101881D2*
X2380995D1*
X19000Y1118798D2*
X75037D1*
X184967D2*
X211287D1*
X224713D2*
X252205D1*
X362135D2*
X2050213D1*
X2097799D2*
X2380995D1*
X19000Y1108929D2*
X71169D1*
X188815D2*
X195448D1*
X240552D2*
X248337D1*
X365983D2*
X2061971D1*
X2086041D2*
X2380995D1*
X19000Y1099060D2*
X69159D1*
X367995D2*
X2380995D1*
X19000Y1089192D2*
X68807D1*
X368345D2*
X2380995D1*
X19000Y1079323D2*
X70096D1*
X243287D2*
X247264D1*
X367056D2*
X2313572D1*
X2354420D2*
X2380995D1*
X19000Y1069454D2*
X73123D1*
X186881D2*
X201424D1*
X234576D2*
X250291D1*
X364029D2*
X2307283D1*
X2360709D2*
X2380995D1*
X19000Y1059585D2*
X78220D1*
X181783D2*
X255388D1*
X358951D2*
X2305604D1*
X2362388D2*
X2380995D1*
X19000Y1049717D2*
X86072D1*
X173912D2*
X263240D1*
X351080D2*
X2120291D1*
X2155709D2*
X2307596D1*
X2360396D2*
X2380995D1*
X19000Y1039848D2*
X98827D1*
X161177D2*
X275995D1*
X338327D2*
X1922205D1*
X1965787D2*
X2112303D1*
X2163697D2*
X2314432D1*
X2353560D2*
X2380995D1*
X19000Y1029979D2*
X1916795D1*
X1971217D2*
X2109667D1*
X2166333D2*
X2380995D1*
X19000Y1020110D2*
X1915663D1*
X1972331D2*
X2110760D1*
X2165240D2*
X2380995D1*
X19000Y1010241D2*
X1918260D1*
X1969752D2*
X2116131D1*
X2159869D2*
X2380995D1*
X19000Y1000373D2*
X1926169D1*
X1961823D2*
X2380995D1*
X19000Y990504D2*
X2380995D1*
X19000Y980635D2*
X2380995D1*
X19000Y970766D2*
X1511131D1*
X1548873D2*
X2380995D1*
X19000Y960898D2*
X1503865D1*
X1556139D2*
X2380995D1*
X19000Y951029D2*
X1501619D1*
X1558385D2*
X1626501D1*
X1637487D2*
X2380995D1*
X19000Y941160D2*
X1503064D1*
X1556940D2*
X1609647D1*
X1654361D2*
X2059412D1*
X2100592D2*
X2380995D1*
X19000Y931291D2*
X1508983D1*
X1551021D2*
X1604588D1*
X1659420D2*
X2053220D1*
X2106783D2*
X2380995D1*
X19000Y921423D2*
X1603728D1*
X1660280D2*
X2051600D1*
X2108385D2*
X2380995D1*
X19000Y911554D2*
X1606600D1*
X1657408D2*
X2053669D1*
X2106333D2*
X2380995D1*
X19000Y901685D2*
X1263220D1*
X1292780D2*
X1615096D1*
X1648892D2*
X2060623D1*
X2099381D2*
X2380995D1*
X19000Y891816D2*
X1253337D1*
X1302663D2*
X2380995D1*
X19000Y881948D2*
X1249881D1*
X1306119D2*
X2380995D1*
X19000Y872079D2*
X1250252D1*
X1305748D2*
X2380995D1*
X19000Y862210D2*
X1254608D1*
X1301392D2*
X1682499D1*
X1721509D2*
X2380995D1*
X19000Y852341D2*
X1267381D1*
X1288619D2*
X1675623D1*
X1728365D2*
X2380995D1*
X19000Y842472D2*
X1673612D1*
X1730396D2*
X2380995D1*
X19000Y832604D2*
X1675252D1*
X1728736D2*
X2380995D1*
X19000Y822735D2*
X1681521D1*
X1722487D2*
X2380995D1*
X19000Y812866D2*
X2380995D1*
X19000Y802997D2*
X1624315D1*
X1635669D2*
X2380995D1*
X19000Y793129D2*
X1607615D1*
X1652388D2*
X2380995D1*
X19000Y783260D2*
X776209D1*
X823795D2*
X1602576D1*
X1657428D2*
X2380995D1*
X19000Y773391D2*
X764392D1*
X835612D2*
X1459881D1*
X1496119D2*
X1601717D1*
X1658268D2*
X1927869D1*
X1964127D2*
X2380995D1*
X19000Y763522D2*
X758005D1*
X841979D2*
X1452147D1*
X1503853D2*
X1604608D1*
X1655396D2*
X1920135D1*
X1971861D2*
X2380995D1*
X19000Y753654D2*
X754647D1*
X845357D2*
X1449647D1*
X1514635D2*
X1613143D1*
X1646861D2*
X1917655D1*
X1974341D2*
X2380995D1*
X19000Y743785D2*
X753592D1*
X846392D2*
X1450857D1*
X1527388D2*
X1918865D1*
X1973131D2*
X2380995D1*
X19000Y733916D2*
X754724D1*
X845260D2*
X1456424D1*
X1531744D2*
X1924412D1*
X1967584D2*
X2380995D1*
X19000Y724047D2*
X758220D1*
X841783D2*
X1341873D1*
X1370143D2*
X1475896D1*
X1547272D2*
X2380995D1*
X19000Y714178D2*
X764764D1*
X835240D2*
X1331560D1*
X1380455D2*
X1479333D1*
X1555552D2*
X1930916D1*
X1965084D2*
X2380995D1*
X19000Y704310D2*
X776951D1*
X823033D2*
X1327948D1*
X1384068D2*
X1489236D1*
X1558307D2*
X1922517D1*
X1973483D2*
X2380995D1*
X19000Y694441D2*
X1328163D1*
X1383833D2*
X1502655D1*
X1581256D2*
X1919705D1*
X1976295D2*
X2380995D1*
X19000Y684572D2*
X778631D1*
X821373D2*
X1310896D1*
X1379635D2*
X1507849D1*
X1587017D2*
X1920623D1*
X1975377D2*
X2380995D1*
X19000Y674703D2*
X765564D1*
X834440D2*
X1303768D1*
X1367525D2*
X1526619D1*
X1588365D2*
X1925740D1*
X1970260D2*
X2380995D1*
X19000Y664835D2*
X758669D1*
X841333D2*
X1301619D1*
X1358385D2*
X1533983D1*
X1586021D2*
X1599197D1*
X1636803D2*
X1943416D1*
X1952575D2*
X2380995D1*
X19000Y654966D2*
X754940D1*
X845064D2*
X1303123D1*
X1356861D2*
X1541444D1*
X1578560D2*
X1591892D1*
X1644108D2*
X1935701D1*
X1960299D2*
X2380995D1*
X19000Y645097D2*
X460936D1*
X471060D2*
X753612D1*
X846392D2*
X1309159D1*
X1350827D2*
X1589627D1*
X1646373D2*
X1924139D1*
X1971861D2*
X2380995D1*
X19000Y635228D2*
X443689D1*
X488307D2*
X754451D1*
X845552D2*
X1591033D1*
X1644967D2*
X1920096D1*
X1975904D2*
X2380995D1*
X19000Y625360D2*
X438612D1*
X493385D2*
X757596D1*
X842388D2*
X1596912D1*
X1639088D2*
X1919999D1*
X1976001D2*
X2380995D1*
X19000Y615491D2*
X437713D1*
X494283D2*
X763669D1*
X836333D2*
X1923748D1*
X1972252D2*
X2380995D1*
X19000Y605622D2*
X440564D1*
X491451D2*
X774744D1*
X825260D2*
X1934491D1*
X1961509D2*
X2380995D1*
X19000Y595753D2*
X449001D1*
X482995D2*
X2380995D1*
X19000Y585885D2*
X781483D1*
X818521D2*
X1147576D1*
X1176432D2*
X1712244D1*
X1755768D2*
X1926248D1*
X1969752D2*
X2380995D1*
X19000Y576016D2*
X766815D1*
X833189D2*
X1137459D1*
X1186549D2*
X1706795D1*
X1761197D2*
X1920799D1*
X1975201D2*
X2380995D1*
X19000Y566147D2*
X759373D1*
X840631D2*
X1133924D1*
X1190084D2*
X1705663D1*
X1762331D2*
X1919667D1*
X1976333D2*
X2380995D1*
X19000Y556278D2*
X755291D1*
X844713D2*
X1134197D1*
X1189791D2*
X1708240D1*
X1759772D2*
X1922224D1*
X1973776D2*
X2380995D1*
X19000Y546409D2*
X753669D1*
X846333D2*
X1138475D1*
X1185533D2*
X1716131D1*
X1751861D2*
X1930135D1*
X1965865D2*
X2380995D1*
X19000Y536541D2*
X754217D1*
X845787D2*
X1150877D1*
X1173131D2*
X1414197D1*
X1429811D2*
X1908201D1*
X1923815D2*
X2380995D1*
X19000Y526672D2*
X757029D1*
X842955D2*
X1399256D1*
X1444752D2*
X1483025D1*
X1520983D2*
X1893260D1*
X1938736D2*
X2380995D1*
X19000Y516803D2*
X148436D1*
X184499D2*
X762655D1*
X837349D2*
X1394451D1*
X1449537D2*
X1475819D1*
X1528189D2*
X1888455D1*
X1943541D2*
X2055819D1*
X2088189D2*
X2380995D1*
X19000Y506934D2*
X137381D1*
X195533D2*
X772791D1*
X827213D2*
X1393768D1*
X1450220D2*
X1473612D1*
X1530377D2*
X1887772D1*
X1944224D2*
X2046853D1*
X2097155D2*
X2380995D1*
X19000Y497066D2*
X132420D1*
X200513D2*
X1396853D1*
X1447155D2*
X1475096D1*
X1528892D2*
X1719295D1*
X1728534D2*
X1890837D1*
X1941159D2*
X2043768D1*
X2100220D2*
X2380995D1*
X19000Y487197D2*
X130819D1*
X202115D2*
X1405819D1*
X1438189D2*
X1481072D1*
X1522936D2*
X1701659D1*
X1746159D2*
X1899803D1*
X1932193D2*
X2044451D1*
X2099537D2*
X2380995D1*
X19000Y477328D2*
X132068D1*
X200865D2*
X1442556D1*
X1465455D2*
X1696521D1*
X1751276D2*
X1862635D1*
X1893365D2*
X2049256D1*
X2094752D2*
X2380995D1*
X19000Y467459D2*
X136580D1*
X196353D2*
X1430369D1*
X1477623D2*
X1695623D1*
X1752193D2*
X1853143D1*
X1902857D2*
X2064197D1*
X2079811D2*
X2380995D1*
X19000Y457591D2*
X146521D1*
X186412D2*
X1426169D1*
X1481823D2*
X1698436D1*
X1749381D2*
X1849841D1*
X1906159D2*
X2380995D1*
X19000Y447722D2*
X872772D1*
X899224D2*
X1425936D1*
X1482056D2*
X1706815D1*
X1740983D2*
X1850331D1*
X1905669D2*
X2380995D1*
X19000Y437853D2*
X854744D1*
X917252D2*
X1304119D1*
X1343892D2*
X1429529D1*
X1478463D2*
X1854861D1*
X1901139D2*
X2380995D1*
X19000Y427984D2*
X846444D1*
X925552D2*
X1297479D1*
X1350513D2*
X1439803D1*
X1468189D2*
X1868396D1*
X1887604D2*
X2380995D1*
X19000Y418115D2*
X841853D1*
X930143D2*
X1295604D1*
X1352408D2*
X2380995D1*
X19000Y408247D2*
X839803D1*
X932193D2*
X1009001D1*
X1042995D2*
X1297400D1*
X1350612D2*
X2214999D1*
X2248991D2*
X2380995D1*
X19000Y398378D2*
X506677D1*
X545319D2*
X839959D1*
X932056D2*
X1000564D1*
X1051451D2*
X1303885D1*
X1344127D2*
X2206560D1*
X2257448D2*
X2380995D1*
X19000Y388509D2*
X499705D1*
X552311D2*
X842323D1*
X929673D2*
X997713D1*
X1054283D2*
X2203709D1*
X2260280D2*
X2380995D1*
X19000Y378640D2*
X497615D1*
X554400D2*
X847341D1*
X924655D2*
X998612D1*
X1053385D2*
X1938924D1*
X1981080D2*
X2204608D1*
X2259400D2*
X2380995D1*
X19000Y368772D2*
X499197D1*
X552799D2*
X856365D1*
X915631D2*
X1003689D1*
X1048307D2*
X1413768D1*
X1446236D2*
X1933045D1*
X1986959D2*
X2209685D1*
X2254303D2*
X2380995D1*
X19000Y358903D2*
X505349D1*
X546647D2*
X879764D1*
X892232D2*
X1020936D1*
X1031060D2*
X1404823D1*
X1455163D2*
X1577264D1*
X1590728D2*
X1931619D1*
X1988385D2*
X2226932D1*
X2237056D2*
X2380995D1*
X19000Y349034D2*
X1401776D1*
X1458228D2*
X1561444D1*
X1606549D2*
X1933885D1*
X1986119D2*
X2380995D1*
X19000Y339165D2*
X142303D1*
X190631D2*
X1366365D1*
X1397623D2*
X1402459D1*
X1457525D2*
X1556521D1*
X1611471D2*
X1941209D1*
X1978795D2*
X2380995D1*
X19000Y329297D2*
X134667D1*
X198248D2*
X1357049D1*
X1452720D2*
X1496580D1*
X1527428D2*
X1555740D1*
X1612252D2*
X2380995D1*
X19000Y319428D2*
X131345D1*
X201588D2*
X1353807D1*
X1410181D2*
X1422323D1*
X1437681D2*
X1487108D1*
X1536881D2*
X1558709D1*
X1609283D2*
X2380995D1*
X19000Y309559D2*
X131013D1*
X201920D2*
X1354373D1*
X1409635D2*
X1483827D1*
X1540163D2*
X1567440D1*
X1600572D2*
X2380995D1*
X19000Y299690D2*
X133631D1*
X199303D2*
X1358983D1*
X1405025D2*
X1454256D1*
X1539655D2*
X2052459D1*
X2087936D2*
X2380995D1*
X19000Y289822D2*
X140056D1*
X192877D2*
X1372908D1*
X1391080D2*
X1446287D1*
X1535123D2*
X2044491D1*
X2095924D2*
X2380995D1*
X19000Y279953D2*
X156327D1*
X176608D2*
X1443669D1*
X1521509D2*
X2041873D1*
X2098521D2*
X2380995D1*
X19000Y270084D2*
X1444764D1*
X1499224D2*
X1714412D1*
X1757584D2*
X2042967D1*
X2097428D2*
X2380995D1*
X19000Y260215D2*
X1450155D1*
X1493833D2*
X1708865D1*
X1763131D2*
X2048357D1*
X2092037D2*
X2380995D1*
X19000Y250346D2*
X1556424D1*
X1583560D2*
X1707655D1*
X1764341D2*
X2121483D1*
X2138521D2*
X2380995D1*
X19000Y240478D2*
X1545740D1*
X1594264D2*
X1710135D1*
X1761861D2*
X2107108D1*
X2152896D2*
X2380995D1*
X19000Y230609D2*
X1390467D1*
X1405533D2*
X1541991D1*
X1598013D2*
X1717869D1*
X1754127D2*
X2102400D1*
X2157584D2*
X2380995D1*
X19000Y220740D2*
X1375311D1*
X1420689D2*
X1542108D1*
X1597896D2*
X2101795D1*
X2158209D2*
X2380995D1*
X19000Y210871D2*
X1370467D1*
X1425533D2*
X1546151D1*
X1593853D2*
X2104959D1*
X2155045D2*
X2380995D1*
X19000Y201003D2*
X1218357D1*
X1229655D2*
X1369764D1*
X1426236D2*
X1557772D1*
X1582213D2*
X2114100D1*
X2145904D2*
X2258104D1*
X2289888D2*
X2380995D1*
X19000Y191134D2*
X1201619D1*
X1246373D2*
X1372811D1*
X1423189D2*
X2248944D1*
X2299049D2*
X2380995D1*
X19000Y181265D2*
X1196580D1*
X1251412D2*
X1381697D1*
X1414303D2*
X2245799D1*
X2302213D2*
X2380995D1*
X19000Y171396D2*
X1195720D1*
X1252272D2*
X2246404D1*
X2301588D2*
X2380995D1*
X19000Y161528D2*
X1181052D1*
X1249400D2*
X2251112D1*
X2296900D2*
X2380995D1*
X19000Y151659D2*
X1168513D1*
X1240865D2*
X2265467D1*
X2282545D2*
X2380995D1*
X19000Y141790D2*
X1164217D1*
X1219772D2*
X2380995D1*
X19000Y131921D2*
X1163904D1*
X1220104D2*
X1932283D1*
X1975728D2*
X2380995D1*
X19000Y122052D2*
X403123D1*
X452877D2*
X503123D1*
X552877D2*
X603123D1*
X652877D2*
X703123D1*
X752877D2*
X803123D1*
X852877D2*
X903123D1*
X952877D2*
X1167420D1*
X1216588D2*
X1926815D1*
X1981197D2*
X2380995D1*
X19000Y112184D2*
X392009D1*
X463991D2*
X492009D1*
X563991D2*
X592009D1*
X663991D2*
X692009D1*
X763991D2*
X792009D1*
X863991D2*
X892009D1*
X963991D2*
X1177459D1*
X1206549D2*
X1925663D1*
X1982331D2*
X2380995D1*
X19000Y102315D2*
X385975D1*
X470025D2*
X485975D1*
X570025D2*
X585975D1*
X670025D2*
X685975D1*
X770025D2*
X785975D1*
X870025D2*
X885975D1*
X970025D2*
X1928220D1*
X1979791D2*
X2380995D1*
X19000Y92446D2*
X382869D1*
X473131D2*
X482869D1*
X573131D2*
X582869D1*
X673131D2*
X682869D1*
X773131D2*
X782869D1*
X873131D2*
X882869D1*
X973131D2*
X1476619D1*
X1503365D2*
X1936092D1*
X1971920D2*
X2380995D1*
X19000Y82577D2*
X382088D1*
X473912D2*
X482088D1*
X573912D2*
X582088D1*
X673912D2*
X682088D1*
X773912D2*
X782088D1*
X873912D2*
X882088D1*
X973912D2*
X1465799D1*
X1514205D2*
X2380995D1*
X19000Y72709D2*
X383513D1*
X472487D2*
X483513D1*
X572487D2*
X583513D1*
X672487D2*
X683513D1*
X772487D2*
X783513D1*
X872487D2*
X883513D1*
X972487D2*
X1462009D1*
X1517995D2*
X1555663D1*
X1588327D2*
X2380995D1*
X19000Y62840D2*
X387361D1*
X468639D2*
X487361D1*
X568639D2*
X587361D1*
X668639D2*
X687361D1*
X768639D2*
X787361D1*
X868639D2*
X887361D1*
X968639D2*
X1462088D1*
X1517916D2*
X1546795D1*
X1597213D2*
X2380995D1*
X19000Y52971D2*
X394509D1*
X461491D2*
X494509D1*
X561491D2*
X594509D1*
X661491D2*
X694509D1*
X761491D2*
X794509D1*
X861491D2*
X894509D1*
X961491D2*
X1466092D1*
X1513912D2*
X1543768D1*
X1600240D2*
X2380995D1*
X19000Y43102D2*
X408396D1*
X447604D2*
X508396D1*
X547604D2*
X608396D1*
X647604D2*
X708396D1*
X747604D2*
X808396D1*
X847604D2*
X908396D1*
X947604D2*
X1477556D1*
X1502448D2*
X1544491D1*
X1599517D2*
X2380995D1*
X19000Y33234D2*
X1549333D1*
X1594673D2*
X2380995D1*
X19000Y23365D2*
X1564568D1*
X1579420D2*
X2380995D1*
X931260Y400438D2*
X930841Y396898D1*
X930146Y393402D1*
X929178Y389971D1*
X927944Y386626D1*
X926451Y383388D1*
X924710Y380278D1*
X922730Y377315D1*
X920522Y374514D1*
X918102Y371898D1*
X915486Y369478D1*
X912685Y367270D1*
X909722Y365290D1*
X906612Y363549D1*
X903374Y362056D1*
X900029Y360822D1*
X896598Y359854D1*
X893102Y359159D1*
X889562Y358740D1*
X886000Y358600D1*
X882438Y358740D1*
X878898Y359159D1*
X875402Y359854D1*
X871971Y360822D1*
X868626Y362056D1*
X865388Y363549D1*
X862278Y365290D1*
X859315Y367270D1*
X856514Y369478D1*
X853898Y371898D1*
X851478Y374514D1*
X849270Y377315D1*
X847290Y380278D1*
X845549Y383388D1*
X844056Y386626D1*
X842822Y389971D1*
X841854Y393402D1*
X841159Y396898D1*
X840740Y400438D1*
X840600Y404000D1*
X840740Y407562D1*
X841159Y411102D1*
X841854Y414598D1*
X842822Y418029D1*
X844056Y421374D1*
X845549Y424612D1*
X847290Y427722D1*
X849270Y430685D1*
X851478Y433486D1*
X853898Y436102D1*
X856514Y438522D1*
X859315Y440730D1*
X862278Y442710D1*
X865388Y444451D1*
X868626Y445944D1*
X871971Y447178D1*
X875402Y448146D1*
X878898Y448841D1*
X882438Y449260D1*
X886000Y449400D1*
X889562Y449260D1*
X893102Y448841D1*
X896598Y448146D1*
X900029Y447178D1*
X903374Y445944D1*
X906612Y444451D1*
X909722Y442710D1*
X912685Y440730D1*
X915486Y438522D1*
X918102Y436102D1*
X920522Y433486D1*
X922730Y430685D1*
X924710Y427722D1*
X926451Y424612D1*
X927944Y421374D1*
X929178Y418029D1*
X930146Y414598D1*
X930841Y411102D1*
X931260Y407562D1*
X931400Y404000D1*
X931260Y400438D1*
X201017Y483895D2*
X200165Y478524D1*
X198486Y473350D1*
X196016Y468505D1*
X192819Y464105D1*
X188974Y460260D1*
X184573Y457063D1*
X179728Y454593D1*
X174555Y452913D1*
X169184Y452062D1*
X163745D1*
X158374Y452913D1*
X153201Y454593D1*
X148356Y457063D1*
X143955Y460260D1*
X140110Y464105D1*
X136913Y468505D1*
X134444Y473350D1*
X132764Y478524D1*
X131912Y483895D1*
Y489333D1*
X132764Y494705D1*
X134444Y499878D1*
X136913Y504723D1*
X140110Y509123D1*
X143955Y512969D1*
X148356Y516165D1*
X153201Y518635D1*
X158374Y520315D1*
X163745Y521167D1*
X169184D1*
X174555Y520315D1*
X179728Y518635D1*
X184573Y516165D1*
X188974Y512969D1*
X192819Y509123D1*
X196016Y504723D1*
X198486Y499878D1*
X200165Y494705D1*
X201017Y489333D1*
Y483895D1*
Y310667D2*
X200165Y305295D1*
X198486Y300122D1*
X196016Y295277D1*
X192819Y290877D1*
X188974Y287031D1*
X184573Y283835D1*
X179728Y281365D1*
X174555Y279685D1*
X169184Y278833D1*
X163745D1*
X158374Y279685D1*
X153201Y281365D1*
X148356Y283835D1*
X143955Y287031D1*
X140110Y290877D1*
X136913Y295277D1*
X134444Y300122D1*
X132764Y305295D1*
X131912Y310667D1*
Y316105D1*
X132764Y321476D1*
X134444Y326650D1*
X136913Y331495D1*
X140110Y335895D1*
X143955Y339740D1*
X148356Y342937D1*
X153201Y345407D1*
X158374Y347087D1*
X163745Y347938D1*
X169184D1*
X174555Y347087D1*
X179728Y345407D1*
X184573Y342937D1*
X188974Y339740D1*
X192819Y335895D1*
X196016Y331495D1*
X198486Y326650D1*
X200165Y321476D1*
X201017Y316105D1*
Y310667D1*
X190063Y1087273D2*
X189508Y1082575D1*
X188585Y1077936D1*
X187301Y1073382D1*
X185663Y1068944D1*
X183682Y1064647D1*
X181371Y1060520D1*
X178743Y1056587D1*
X175814Y1052871D1*
X172602Y1049398D1*
X169129Y1046186D1*
X165413Y1043257D1*
X161480Y1040629D1*
X157353Y1038318D1*
X153056Y1036337D1*
X148618Y1034699D1*
X144064Y1033415D1*
X139425Y1032492D1*
X134727Y1031937D1*
X130000Y1031751D1*
X125273Y1031937D1*
X120575Y1032492D1*
X115936Y1033415D1*
X111382Y1034699D1*
X106944Y1036337D1*
X102647Y1038318D1*
X98520Y1040629D1*
X94587Y1043257D1*
X90871Y1046186D1*
X87398Y1049398D1*
X84186Y1052871D1*
X81257Y1056587D1*
X78629Y1060520D1*
X76318Y1064647D1*
X74337Y1068944D1*
X72699Y1073382D1*
X71415Y1077936D1*
X70492Y1082575D1*
X69937Y1087273D1*
X69751Y1092000D1*
X69937Y1096727D1*
X70492Y1101425D1*
X71415Y1106064D1*
X72699Y1110618D1*
X74337Y1115056D1*
X76318Y1119353D1*
X78629Y1123480D1*
X81257Y1127413D1*
X84186Y1131129D1*
X87398Y1134602D1*
X90871Y1137814D1*
X94587Y1140743D1*
X98520Y1143371D1*
X102647Y1145682D1*
X106944Y1147663D1*
X111382Y1149301D1*
X115936Y1150585D1*
X120575Y1151508D1*
X125273Y1152063D1*
X130000Y1152249D1*
X134727Y1152063D1*
X139425Y1151508D1*
X144064Y1150585D1*
X148618Y1149301D1*
X153056Y1147663D1*
X157353Y1145682D1*
X161480Y1143371D1*
X165413Y1140743D1*
X169129Y1137814D1*
X172602Y1134602D1*
X175814Y1131129D1*
X178743Y1127413D1*
X181371Y1123480D1*
X183682Y1119353D1*
X185663Y1115056D1*
X187301Y1110618D1*
X188585Y1106064D1*
X189508Y1101425D1*
X190063Y1096727D1*
X190249Y1092000D1*
X190063Y1087273D1*
X367228D2*
X366673Y1082575D1*
X365751Y1077936D1*
X364466Y1073382D1*
X362828Y1068944D1*
X360848Y1064647D1*
X358537Y1060520D1*
X355908Y1056587D1*
X352979Y1052871D1*
X349768Y1049398D1*
X346294Y1046186D1*
X342579Y1043257D1*
X338646Y1040629D1*
X334518Y1038318D1*
X330222Y1036337D1*
X325783Y1034699D1*
X321230Y1033415D1*
X316591Y1032492D1*
X311892Y1031937D1*
X307165Y1031751D1*
X302438Y1031937D1*
X297740Y1032492D1*
X293101Y1033415D1*
X288547Y1034699D1*
X284109Y1036337D1*
X279812Y1038318D1*
X275685Y1040629D1*
X271752Y1043257D1*
X268037Y1046186D1*
X264563Y1049398D1*
X261352Y1052871D1*
X258423Y1056587D1*
X255794Y1060520D1*
X253483Y1064647D1*
X251503Y1068944D1*
X249865Y1073382D1*
X248580Y1077936D1*
X247657Y1082575D1*
X247102Y1087273D1*
X246916Y1092000D1*
X247102Y1096727D1*
X247657Y1101425D1*
X248580Y1106064D1*
X249865Y1110618D1*
X251503Y1115056D1*
X253483Y1119353D1*
X255794Y1123480D1*
X258423Y1127413D1*
X261352Y1131129D1*
X264563Y1134602D1*
X268037Y1137814D1*
X271752Y1140743D1*
X275685Y1143371D1*
X279812Y1145682D1*
X284109Y1147663D1*
X288547Y1149301D1*
X293101Y1150585D1*
X297740Y1151508D1*
X302438Y1152063D1*
X307165Y1152249D1*
X311892Y1152063D1*
X316591Y1151508D1*
X321230Y1150585D1*
X325783Y1149301D1*
X330222Y1147663D1*
X334518Y1145682D1*
X338646Y1143371D1*
X342579Y1140743D1*
X346294Y1137814D1*
X349768Y1134602D1*
X352979Y1131129D1*
X355908Y1127413D1*
X358537Y1123480D1*
X360848Y1119353D1*
X362828Y1115056D1*
X364466Y1110618D1*
X365751Y1106064D1*
X366673Y1101425D1*
X367228Y1096727D1*
X367415Y1092000D1*
X367228Y1087273D1*
X845260Y540438D2*
X844841Y536898D1*
X844146Y533402D1*
X843178Y529971D1*
X841944Y526626D1*
X840451Y523388D1*
X838710Y520278D1*
X836730Y517315D1*
X834522Y514514D1*
X832102Y511898D1*
X829486Y509478D1*
X826685Y507270D1*
X823722Y505290D1*
X820612Y503549D1*
X817374Y502056D1*
X814029Y500822D1*
X810598Y499854D1*
X807102Y499159D1*
X803562Y498740D1*
X800000Y498600D1*
X796438Y498740D1*
X792898Y499159D1*
X789402Y499854D1*
X785971Y500822D1*
X782626Y502056D1*
X779388Y503549D1*
X776278Y505290D1*
X773315Y507270D1*
X770514Y509478D1*
X767898Y511898D1*
X765478Y514514D1*
X763270Y517315D1*
X761290Y520278D1*
X759549Y523388D1*
X758056Y526626D1*
X756822Y529971D1*
X755854Y533402D1*
X755159Y536898D1*
X754740Y540438D1*
X754600Y544000D1*
X754740Y547562D1*
X755159Y551102D1*
X755854Y554598D1*
X756822Y558029D1*
X758056Y561374D1*
X759549Y564612D1*
X761290Y567722D1*
X763270Y570685D1*
X765478Y573486D1*
X767898Y576102D1*
X770514Y578522D1*
X773315Y580730D1*
X776278Y582710D1*
X779388Y584451D1*
X782626Y585944D1*
X785971Y587178D1*
X789402Y588146D1*
X792898Y588841D1*
X796438Y589260D1*
X800000Y589400D1*
X803562Y589260D1*
X807102Y588841D1*
X810598Y588146D1*
X814029Y587178D1*
X817374Y585944D1*
X820612Y584451D1*
X823722Y582710D1*
X826685Y580730D1*
X829486Y578522D1*
X832102Y576102D1*
X834522Y573486D1*
X836730Y570685D1*
X838710Y567722D1*
X840451Y564612D1*
X841944Y561374D1*
X843178Y558029D1*
X844146Y554598D1*
X844841Y551102D1*
X845260Y547562D1*
X845400Y544000D1*
X845260Y540438D1*
Y640438D2*
X844841Y636898D1*
X844146Y633402D1*
X843178Y629971D1*
X841944Y626626D1*
X840451Y623388D1*
X838710Y620278D1*
X836730Y617315D1*
X834522Y614514D1*
X832102Y611898D1*
X829486Y609478D1*
X826685Y607270D1*
X823722Y605290D1*
X820612Y603549D1*
X817374Y602056D1*
X814029Y600822D1*
X810598Y599854D1*
X807102Y599159D1*
X803562Y598740D1*
X800000Y598600D1*
X796438Y598740D1*
X792898Y599159D1*
X789402Y599854D1*
X785971Y600822D1*
X782626Y602056D1*
X779388Y603549D1*
X776278Y605290D1*
X773315Y607270D1*
X770514Y609478D1*
X767898Y611898D1*
X765478Y614514D1*
X763270Y617315D1*
X761290Y620278D1*
X759549Y623388D1*
X758056Y626626D1*
X756822Y629971D1*
X755854Y633402D1*
X755159Y636898D1*
X754740Y640438D1*
X754600Y644000D1*
X754740Y647562D1*
X755159Y651102D1*
X755854Y654598D1*
X756822Y658029D1*
X758056Y661374D1*
X759549Y664612D1*
X761290Y667722D1*
X763270Y670685D1*
X765478Y673486D1*
X767898Y676102D1*
X770514Y678522D1*
X773315Y680730D1*
X776278Y682710D1*
X779388Y684451D1*
X782626Y685944D1*
X785971Y687178D1*
X789402Y688146D1*
X792898Y688841D1*
X796438Y689260D1*
X800000Y689400D1*
X803562Y689260D1*
X807102Y688841D1*
X810598Y688146D1*
X814029Y687178D1*
X817374Y685944D1*
X820612Y684451D1*
X823722Y682710D1*
X826685Y680730D1*
X829486Y678522D1*
X832102Y676102D1*
X834522Y673486D1*
X836730Y670685D1*
X838710Y667722D1*
X840451Y664612D1*
X841944Y661374D1*
X843178Y658029D1*
X844146Y654598D1*
X844841Y651102D1*
X845260Y647562D1*
X845400Y644000D1*
X845260Y640438D1*
Y740438D2*
X844841Y736898D1*
X844146Y733402D1*
X843178Y729971D1*
X841944Y726626D1*
X840451Y723388D1*
X838710Y720278D1*
X836730Y717315D1*
X834522Y714514D1*
X832102Y711898D1*
X829486Y709478D1*
X826685Y707270D1*
X823722Y705290D1*
X820612Y703549D1*
X817374Y702056D1*
X814029Y700822D1*
X810598Y699854D1*
X807102Y699159D1*
X803562Y698740D1*
X800000Y698600D1*
X796438Y698740D1*
X792898Y699159D1*
X789402Y699854D1*
X785971Y700822D1*
X782626Y702056D1*
X779388Y703549D1*
X776278Y705290D1*
X773315Y707270D1*
X770514Y709478D1*
X767898Y711898D1*
X765478Y714514D1*
X763270Y717315D1*
X761290Y720278D1*
X759549Y723388D1*
X758056Y726626D1*
X756822Y729971D1*
X755854Y733402D1*
X755159Y736898D1*
X754740Y740438D1*
X754600Y744000D1*
X754740Y747562D1*
X755159Y751102D1*
X755854Y754598D1*
X756822Y758029D1*
X758056Y761374D1*
X759549Y764612D1*
X761290Y767722D1*
X763270Y770685D1*
X765478Y773486D1*
X767898Y776102D1*
X770514Y778522D1*
X773315Y780730D1*
X776278Y782710D1*
X779388Y784451D1*
X782626Y785944D1*
X785971Y787178D1*
X789402Y788146D1*
X792898Y788841D1*
X796438Y789260D1*
X800000Y789400D1*
X803562Y789260D1*
X807102Y788841D1*
X810598Y788146D1*
X814029Y787178D1*
X817374Y785944D1*
X820612Y784451D1*
X823722Y782710D1*
X826685Y780730D1*
X829486Y778522D1*
X832102Y776102D1*
X834522Y773486D1*
X836730Y770685D1*
X838710Y767722D1*
X840451Y764612D1*
X841944Y761374D1*
X843178Y758029D1*
X844146Y754598D1*
X844841Y751102D1*
X845260Y747562D1*
X845400Y744000D1*
X845260Y740438D1*
X472916Y83000D2*
X472528Y78018D1*
X471588Y73109D1*
X470109Y68336D1*
X468109Y63756D1*
X465612Y59427D1*
X462650Y55402D1*
X459260Y51731D1*
X455483Y48458D1*
X451365Y45626D1*
X446959Y43269D1*
X442318Y41415D1*
X437500Y40088D1*
X432564Y39304D1*
X427572Y39075D1*
X422585Y39400D1*
X417665Y40277D1*
X412874Y41696D1*
X408269Y43636D1*
X403908Y46079D1*
X399845Y48988D1*
X396131Y52332D1*
X392811Y56067D1*
X389927Y60148D1*
X387513Y64524D1*
X385601Y69140D1*
X384213Y73942D1*
X383366Y78867D1*
X383072Y83856D1*
X383335Y88846D1*
X384150Y93777D1*
X385507Y98587D1*
X387390Y103215D1*
X389774Y107608D1*
X392633Y111706D1*
X395929Y115463D1*
X399622Y118831D1*
X403665Y121766D1*
X408010Y124235D1*
X412602Y126206D1*
X417386Y127656D1*
X422299Y128564D1*
X427283Y128921D1*
X432277Y128723D1*
X437218Y127971D1*
X442045Y126676D1*
X446697Y124852D1*
X451118Y122522D1*
X455255Y119717D1*
X459052Y116470D1*
X462466Y112820D1*
X465454Y108814D1*
X467978Y104500D1*
X470007Y99933D1*
X471517Y95169D1*
X472488Y90268D1*
X472909Y85287D1*
X472916Y83000D1*
X572789Y80475D2*
X572374Y76971D1*
X571686Y73512D1*
X570728Y70117D1*
X569508Y66807D1*
X568030Y63604D1*
X566307Y60525D1*
X564348Y57592D1*
X562163Y54822D1*
X559769Y52231D1*
X557178Y49837D1*
X554408Y47652D1*
X551475Y45693D1*
X548396Y43970D1*
X545193Y42492D1*
X541883Y41272D1*
X538488Y40314D1*
X535029Y39626D1*
X531525Y39211D1*
X528000Y39072D1*
X524475Y39211D1*
X520971Y39626D1*
X517512Y40314D1*
X514117Y41272D1*
X510807Y42492D1*
X507604Y43970D1*
X504525Y45693D1*
X501592Y47652D1*
X498822Y49837D1*
X496231Y52231D1*
X493837Y54822D1*
X491652Y57592D1*
X489693Y60525D1*
X487970Y63604D1*
X486492Y66807D1*
X485272Y70117D1*
X484314Y73512D1*
X483626Y76971D1*
X483211Y80475D1*
X483072Y84000D1*
X483211Y87525D1*
X483626Y91029D1*
X484314Y94488D1*
X485272Y97883D1*
X486492Y101193D1*
X487970Y104396D1*
X489693Y107475D1*
X491652Y110408D1*
X493837Y113178D1*
X496231Y115769D1*
X498822Y118163D1*
X501592Y120348D1*
X504525Y122307D1*
X507604Y124030D1*
X510807Y125508D1*
X514117Y126728D1*
X517512Y127686D1*
X520971Y128374D1*
X524475Y128789D1*
X528000Y128928D1*
X531525Y128789D1*
X535029Y128374D1*
X538488Y127686D1*
X541883Y126728D1*
X545193Y125508D1*
X548396Y124030D1*
X551475Y122307D1*
X554408Y120348D1*
X557178Y118163D1*
X559769Y115769D1*
X562163Y113178D1*
X564348Y110408D1*
X566307Y107475D1*
X568030Y104396D1*
X569508Y101193D1*
X570728Y97883D1*
X571686Y94488D1*
X572374Y91029D1*
X572789Y87525D1*
X572928Y84000D1*
X572789Y80475D1*
X672789D2*
X672374Y76971D1*
X671686Y73512D1*
X670728Y70117D1*
X669508Y66807D1*
X668030Y63604D1*
X666307Y60525D1*
X664348Y57592D1*
X662163Y54822D1*
X659769Y52231D1*
X657178Y49837D1*
X654408Y47652D1*
X651475Y45693D1*
X648396Y43970D1*
X645193Y42492D1*
X641883Y41272D1*
X638488Y40314D1*
X635029Y39626D1*
X631525Y39211D1*
X628000Y39072D1*
X624475Y39211D1*
X620971Y39626D1*
X617512Y40314D1*
X614117Y41272D1*
X610807Y42492D1*
X607604Y43970D1*
X604525Y45693D1*
X601592Y47652D1*
X598822Y49837D1*
X596231Y52231D1*
X593837Y54822D1*
X591652Y57592D1*
X589693Y60525D1*
X587970Y63604D1*
X586492Y66807D1*
X585272Y70117D1*
X584314Y73512D1*
X583626Y76971D1*
X583211Y80475D1*
X583072Y84000D1*
X583211Y87525D1*
X583626Y91029D1*
X584314Y94488D1*
X585272Y97883D1*
X586492Y101193D1*
X587970Y104396D1*
X589693Y107475D1*
X591652Y110408D1*
X593837Y113178D1*
X596231Y115769D1*
X598822Y118163D1*
X601592Y120348D1*
X604525Y122307D1*
X607604Y124030D1*
X610807Y125508D1*
X614117Y126728D1*
X617512Y127686D1*
X620971Y128374D1*
X624475Y128789D1*
X628000Y128928D1*
X631525Y128789D1*
X635029Y128374D1*
X638488Y127686D1*
X641883Y126728D1*
X645193Y125508D1*
X648396Y124030D1*
X651475Y122307D1*
X654408Y120348D1*
X657178Y118163D1*
X659769Y115769D1*
X662163Y113178D1*
X664348Y110408D1*
X666307Y107475D1*
X668030Y104396D1*
X669508Y101193D1*
X670728Y97883D1*
X671686Y94488D1*
X672374Y91029D1*
X672789Y87525D1*
X672928Y84000D1*
X672789Y80475D1*
X772789D2*
X772374Y76971D1*
X771686Y73512D1*
X770728Y70117D1*
X769508Y66807D1*
X768030Y63604D1*
X766307Y60525D1*
X764348Y57592D1*
X762163Y54822D1*
X759769Y52231D1*
X757178Y49837D1*
X754408Y47652D1*
X751475Y45693D1*
X748396Y43970D1*
X745193Y42492D1*
X741883Y41272D1*
X738488Y40314D1*
X735029Y39626D1*
X731525Y39211D1*
X728000Y39072D1*
X724475Y39211D1*
X720971Y39626D1*
X717512Y40314D1*
X714117Y41272D1*
X710807Y42492D1*
X707604Y43970D1*
X704525Y45693D1*
X701592Y47652D1*
X698822Y49837D1*
X696231Y52231D1*
X693837Y54822D1*
X691652Y57592D1*
X689693Y60525D1*
X687970Y63604D1*
X686492Y66807D1*
X685272Y70117D1*
X684314Y73512D1*
X683626Y76971D1*
X683211Y80475D1*
X683072Y84000D1*
X683211Y87525D1*
X683626Y91029D1*
X684314Y94488D1*
X685272Y97883D1*
X686492Y101193D1*
X687970Y104396D1*
X689693Y107475D1*
X691652Y110408D1*
X693837Y113178D1*
X696231Y115769D1*
X698822Y118163D1*
X701592Y120348D1*
X704525Y122307D1*
X707604Y124030D1*
X710807Y125508D1*
X714117Y126728D1*
X717512Y127686D1*
X720971Y128374D1*
X724475Y128789D1*
X728000Y128928D1*
X731525Y128789D1*
X735029Y128374D1*
X738488Y127686D1*
X741883Y126728D1*
X745193Y125508D1*
X748396Y124030D1*
X751475Y122307D1*
X754408Y120348D1*
X757178Y118163D1*
X759769Y115769D1*
X762163Y113178D1*
X764348Y110408D1*
X766307Y107475D1*
X768030Y104396D1*
X769508Y101193D1*
X770728Y97883D1*
X771686Y94488D1*
X772374Y91029D1*
X772789Y87525D1*
X772928Y84000D1*
X772789Y80475D1*
X872789D2*
X872374Y76971D1*
X871686Y73512D1*
X870728Y70117D1*
X869508Y66807D1*
X868030Y63604D1*
X866307Y60525D1*
X864348Y57592D1*
X862163Y54822D1*
X859769Y52231D1*
X857178Y49837D1*
X854408Y47652D1*
X851475Y45693D1*
X848396Y43970D1*
X845193Y42492D1*
X841883Y41272D1*
X838488Y40314D1*
X835029Y39626D1*
X831525Y39211D1*
X828000Y39072D1*
X824475Y39211D1*
X820971Y39626D1*
X817512Y40314D1*
X814117Y41272D1*
X810807Y42492D1*
X807604Y43970D1*
X804525Y45693D1*
X801592Y47652D1*
X798822Y49837D1*
X796231Y52231D1*
X793837Y54822D1*
X791652Y57592D1*
X789693Y60525D1*
X787970Y63604D1*
X786492Y66807D1*
X785272Y70117D1*
X784314Y73512D1*
X783626Y76971D1*
X783211Y80475D1*
X783072Y84000D1*
X783211Y87525D1*
X783626Y91029D1*
X784314Y94488D1*
X785272Y97883D1*
X786492Y101193D1*
X787970Y104396D1*
X789693Y107475D1*
X791652Y110408D1*
X793837Y113178D1*
X796231Y115769D1*
X798822Y118163D1*
X801592Y120348D1*
X804525Y122307D1*
X807604Y124030D1*
X810807Y125508D1*
X814117Y126728D1*
X817512Y127686D1*
X820971Y128374D1*
X824475Y128789D1*
X828000Y128928D1*
X831525Y128789D1*
X835029Y128374D1*
X838488Y127686D1*
X841883Y126728D1*
X845193Y125508D1*
X848396Y124030D1*
X851475Y122307D1*
X854408Y120348D1*
X857178Y118163D1*
X859769Y115769D1*
X862163Y113178D1*
X864348Y110408D1*
X866307Y107475D1*
X868030Y104396D1*
X869508Y101193D1*
X870728Y97883D1*
X871686Y94488D1*
X872374Y91029D1*
X872789Y87525D1*
X872928Y84000D1*
X872789Y80475D1*
X972789D2*
X972374Y76971D1*
X971686Y73512D1*
X970728Y70117D1*
X969508Y66807D1*
X968030Y63604D1*
X966307Y60525D1*
X964348Y57592D1*
X962163Y54822D1*
X959769Y52231D1*
X957178Y49837D1*
X954408Y47652D1*
X951475Y45693D1*
X948396Y43970D1*
X945193Y42492D1*
X941883Y41272D1*
X938488Y40314D1*
X935029Y39626D1*
X931525Y39211D1*
X928000Y39072D1*
X924475Y39211D1*
X920971Y39626D1*
X917512Y40314D1*
X914117Y41272D1*
X910807Y42492D1*
X907604Y43970D1*
X904525Y45693D1*
X901592Y47652D1*
X898822Y49837D1*
X896231Y52231D1*
X893837Y54822D1*
X891652Y57592D1*
X889693Y60525D1*
X887970Y63604D1*
X886492Y66807D1*
X885272Y70117D1*
X884314Y73512D1*
X883626Y76971D1*
X883211Y80475D1*
X883072Y84000D1*
X883211Y87525D1*
X883626Y91029D1*
X884314Y94488D1*
X885272Y97883D1*
X886492Y101193D1*
X887970Y104396D1*
X889693Y107475D1*
X891652Y110408D1*
X893837Y113178D1*
X896231Y115769D1*
X898822Y118163D1*
X901592Y120348D1*
X904525Y122307D1*
X907604Y124030D1*
X910807Y125508D1*
X914117Y126728D1*
X917512Y127686D1*
X920971Y128374D1*
X924475Y128789D1*
X928000Y128928D1*
X931525Y128789D1*
X935029Y128374D1*
X938488Y127686D1*
X941883Y126728D1*
X945193Y125508D1*
X948396Y124030D1*
X951475Y122307D1*
X954408Y120348D1*
X957178Y118163D1*
X959769Y115769D1*
X962163Y113178D1*
X964348Y110408D1*
X966307Y107475D1*
X968030Y104396D1*
X969508Y101193D1*
X970728Y97883D1*
X971686Y94488D1*
X972374Y91029D1*
X972789Y87525D1*
X972928Y84000D1*
X972789Y80475D1*
X355274Y1741004D2*
X354777Y1736029D1*
X353953Y1731098D1*
X352803Y1726234D1*
X351335Y1721455D1*
X349552Y1716785D1*
X347465Y1712243D1*
X345081Y1707848D1*
X342411Y1703622D1*
X339467Y1699581D1*
X336262Y1695744D1*
X332811Y1692129D1*
X329127Y1688749D1*
X325227Y1685621D1*
X321129Y1682759D1*
X316850Y1680173D1*
X312409Y1677877D1*
X307827Y1675881D1*
X303122Y1674192D1*
X298315Y1672818D1*
X293428Y1671765D1*
X288482Y1671039D1*
X283499Y1670642D1*
X278500Y1670576D1*
X273508Y1670840D1*
X268545Y1671436D1*
X263631Y1672358D1*
X258790Y1673604D1*
X254042Y1675168D1*
X249407Y1677042D1*
X244907Y1679219D1*
X240562Y1681690D1*
X236388Y1684444D1*
X232408Y1687467D1*
X228635Y1690748D1*
X225089Y1694270D1*
X221783Y1698021D1*
X218734Y1701982D1*
X215953Y1706136D1*
X213454Y1710466D1*
X211247Y1714951D1*
X209341Y1719573D1*
X207745Y1724311D1*
X206469Y1729144D1*
X205513Y1734051D1*
X204885Y1739010D1*
X204587Y1744000D1*
X204621Y1749000D1*
X204984Y1753986D1*
X205678Y1758936D1*
X206698Y1763829D1*
X208039Y1768646D1*
X209698Y1773362D1*
X211664Y1777958D1*
X213930Y1782413D1*
X216487Y1786710D1*
X219323Y1790827D1*
X222425Y1794747D1*
X225780Y1798453D1*
X229373Y1801929D1*
X233188Y1805159D1*
X237209Y1808129D1*
X241417Y1810827D1*
X245797Y1813240D1*
X250324Y1815357D1*
X254983Y1817171D1*
X259752Y1818671D1*
X264609Y1819853D1*
X269534Y1820710D1*
X274505Y1821239D1*
X279500Y1821438D1*
X284497Y1821306D1*
X289475Y1820843D1*
X294411Y1820050D1*
X299283Y1818933D1*
X304072Y1817496D1*
X308755Y1815744D1*
X313310Y1813686D1*
X317720Y1811332D1*
X321965Y1808690D1*
X326024Y1805774D1*
X329882Y1802594D1*
X333521Y1799167D1*
X336924Y1795505D1*
X340077Y1791626D1*
X342967Y1787547D1*
X345581Y1783286D1*
X347907Y1778860D1*
X349934Y1774290D1*
X351654Y1769597D1*
X353059Y1764799D1*
X354144Y1759920D1*
X354903Y1754978D1*
X355333Y1749997D1*
X355440Y1746000D1*
X355274Y1741004D1*
X355180Y2141004D2*
X354682Y2136029D1*
X353858Y2131098D1*
X352709Y2126234D1*
X351240Y2121455D1*
X349458Y2116785D1*
X347370Y2112243D1*
X344987Y2107848D1*
X342316Y2103622D1*
X339373Y2099581D1*
X336168Y2095744D1*
X332717Y2092129D1*
X329033Y2088749D1*
X325133Y2085621D1*
X321034Y2082759D1*
X316756Y2080173D1*
X312315Y2077877D1*
X307732Y2075881D1*
X303028Y2074192D1*
X298220Y2072818D1*
X293333Y2071765D1*
X288387Y2071039D1*
X283404Y2070642D1*
X278406Y2070576D1*
X273413Y2070840D1*
X268450Y2071436D1*
X263537Y2072358D1*
X258696Y2073604D1*
X253948Y2075168D1*
X249312Y2077042D1*
X244812Y2079219D1*
X240467Y2081690D1*
X236294Y2084444D1*
X232314Y2087467D1*
X228541Y2090748D1*
X224995Y2094270D1*
X221689Y2098021D1*
X218639Y2101982D1*
X215858Y2106136D1*
X213360Y2110466D1*
X211152Y2114951D1*
X209247Y2119573D1*
X207651Y2124311D1*
X206374Y2129144D1*
X205419Y2134051D1*
X204790Y2139010D1*
X204492Y2144000D1*
X204526Y2149000D1*
X204890Y2153986D1*
X205584Y2158936D1*
X206604Y2163829D1*
X207945Y2168646D1*
X209604Y2173362D1*
X211570Y2177958D1*
X213836Y2182413D1*
X216392Y2186710D1*
X219228Y2190827D1*
X222331Y2194747D1*
X225685Y2198453D1*
X229278Y2201929D1*
X233093Y2205159D1*
X237114Y2208129D1*
X241323Y2210827D1*
X245702Y2213240D1*
X250230Y2215357D1*
X254888Y2217171D1*
X259657Y2218671D1*
X264514Y2219853D1*
X269440Y2220710D1*
X274411Y2221239D1*
X279406Y2221438D1*
X284403Y2221306D1*
X289381Y2220843D1*
X294316Y2220050D1*
X299189Y2218933D1*
X303978Y2217496D1*
X308660Y2215744D1*
X313215Y2213686D1*
X317626Y2211332D1*
X321870Y2208690D1*
X325929Y2205774D1*
X329787Y2202594D1*
X333427Y2199167D1*
X336829Y2195505D1*
X339983Y2191626D1*
X342873Y2187547D1*
X345487Y2183286D1*
X347812Y2178860D1*
X349840Y2174290D1*
X351559Y2169597D1*
X352965Y2164799D1*
X354050Y2159920D1*
X354808Y2154978D1*
X355239Y2149997D1*
X355345Y2146000D1*
X355180Y2141004D1*
X530692Y1942012D2*
X530223Y1938049D1*
X529445Y1934134D1*
X528361Y1930291D1*
X526979Y1926547D1*
X525308Y1922923D1*
X523358Y1919440D1*
X521140Y1916121D1*
X518669Y1912987D1*
X515961Y1910055D1*
X513029Y1907346D1*
X509895Y1904875D1*
X506576Y1902657D1*
X503093Y1900707D1*
X499469Y1899037D1*
X495724Y1897655D1*
X491882Y1896571D1*
X489084Y1896014D1*
X495724Y1894345D1*
X499469Y1892963D1*
X503093Y1891293D1*
X506576Y1889343D1*
X509895Y1887125D1*
X513029Y1884654D1*
X515961Y1881945D1*
X518669Y1879013D1*
X521140Y1875879D1*
X523358Y1872560D1*
X525308Y1869077D1*
X526979Y1865453D1*
X528361Y1861709D1*
X529445Y1857866D1*
X530223Y1853951D1*
X530692Y1849988D1*
X530849Y1846000D1*
X530692Y1842012D1*
X530223Y1838049D1*
X529445Y1834134D1*
X528361Y1830291D1*
X526979Y1826547D1*
X525308Y1822923D1*
X523358Y1819440D1*
X521140Y1816121D1*
X518669Y1812987D1*
X515961Y1810055D1*
X513029Y1807346D1*
X509895Y1804875D1*
X506576Y1802657D1*
X503093Y1800707D1*
X499469Y1799037D1*
X495724Y1797655D1*
X491882Y1796571D1*
X487967Y1795793D1*
X484004Y1795324D1*
X480016Y1795167D1*
X476028Y1795324D1*
X472064Y1795793D1*
X468150Y1796571D1*
X464307Y1797655D1*
X460563Y1799037D1*
X456938Y1800707D1*
X453455Y1802657D1*
X450136Y1804875D1*
X447003Y1807346D1*
X444071Y1810055D1*
X441362Y1812987D1*
X438891Y1816121D1*
X436673Y1819440D1*
X434723Y1822923D1*
X433052Y1826547D1*
X431671Y1830291D1*
X430587Y1834134D1*
X429808Y1838049D1*
X429340Y1842012D1*
X429182Y1846000D1*
X429340Y1849988D1*
X429808Y1853951D1*
X430587Y1857866D1*
X431671Y1861709D1*
X433052Y1865453D1*
X434723Y1869077D1*
X436673Y1872560D1*
X438891Y1875879D1*
X441362Y1879013D1*
X444071Y1881945D1*
X447003Y1884654D1*
X450136Y1887125D1*
X453455Y1889343D1*
X456938Y1891293D1*
X460563Y1892963D1*
X464307Y1894345D1*
X468150Y1895429D1*
X470948Y1895986D1*
X464307Y1897655D1*
X460563Y1899037D1*
X456938Y1900707D1*
X453455Y1902657D1*
X450136Y1904875D1*
X447003Y1907346D1*
X444071Y1910055D1*
X441362Y1912987D1*
X438891Y1916121D1*
X436673Y1919440D1*
X434723Y1922923D1*
X433052Y1926547D1*
X431671Y1930291D1*
X430587Y1934134D1*
X429808Y1938049D1*
X429340Y1942012D1*
X429182Y1946000D1*
X429340Y1949988D1*
X429808Y1953951D1*
X430587Y1957866D1*
X431671Y1961709D1*
X433052Y1965453D1*
X434723Y1969077D1*
X436673Y1972560D1*
X438891Y1975879D1*
X441362Y1979013D1*
X444071Y1981945D1*
X447003Y1984654D1*
X450136Y1987125D1*
X453455Y1989343D1*
X456938Y1991293D1*
X460563Y1992963D1*
X464307Y1994345D1*
X468150Y1995429D1*
X472064Y1996207D1*
X476028Y1996676D1*
X480016Y1996833D1*
X484004Y1996676D1*
X487967Y1996207D1*
X491882Y1995429D1*
X495724Y1994345D1*
X499469Y1992963D1*
X503093Y1991293D1*
X506576Y1989343D1*
X509895Y1987125D1*
X513029Y1984654D1*
X515961Y1981945D1*
X518669Y1979013D1*
X521140Y1975879D1*
X523358Y1972560D1*
X525308Y1969077D1*
X526979Y1965453D1*
X528361Y1961709D1*
X529445Y1957866D1*
X530223Y1953951D1*
X530692Y1949988D1*
X530849Y1946000D1*
X530692Y1942012D1*
X1367260Y2274438D2*
X1366841Y2270898D1*
X1366146Y2267402D1*
X1365178Y2263971D1*
X1363944Y2260626D1*
X1362451Y2257388D1*
X1360710Y2254278D1*
X1358730Y2251315D1*
X1356522Y2248514D1*
X1354102Y2245898D1*
X1351486Y2243478D1*
X1348685Y2241270D1*
X1345722Y2239290D1*
X1342612Y2237549D1*
X1339374Y2236056D1*
X1336029Y2234822D1*
X1332598Y2233854D1*
X1329102Y2233159D1*
X1325562Y2232740D1*
X1322000Y2232600D1*
X1318438Y2232740D1*
X1314898Y2233159D1*
X1311402Y2233854D1*
X1307971Y2234822D1*
X1304626Y2236056D1*
X1301388Y2237549D1*
X1298278Y2239290D1*
X1295315Y2241270D1*
X1292514Y2243478D1*
X1289898Y2245898D1*
X1287478Y2248514D1*
X1285270Y2251315D1*
X1283290Y2254278D1*
X1281549Y2257388D1*
X1280056Y2260626D1*
X1278822Y2263971D1*
X1277854Y2267402D1*
X1277159Y2270898D1*
X1276740Y2274438D1*
X1276600Y2278000D1*
X1276740Y2281562D1*
X1277159Y2285102D1*
X1277854Y2288598D1*
X1278822Y2292029D1*
X1280056Y2295374D1*
X1281549Y2298612D1*
X1283290Y2301722D1*
X1285270Y2304685D1*
X1287478Y2307486D1*
X1289898Y2310102D1*
X1292514Y2312522D1*
X1295315Y2314730D1*
X1298278Y2316710D1*
X1301388Y2318451D1*
X1304626Y2319944D1*
X1307971Y2321178D1*
X1311402Y2322146D1*
X1314898Y2322841D1*
X1318438Y2323260D1*
X1322000Y2323400D1*
X1325562Y2323260D1*
X1329102Y2322841D1*
X1332598Y2322146D1*
X1336029Y2321178D1*
X1339374Y2319944D1*
X1342612Y2318451D1*
X1345722Y2316710D1*
X1348685Y2314730D1*
X1351486Y2312522D1*
X1354102Y2310102D1*
X1356522Y2307486D1*
X1358730Y2304685D1*
X1360710Y2301722D1*
X1362451Y2298612D1*
X1363944Y2295374D1*
X1365178Y2292029D1*
X1366146Y2288598D1*
X1366841Y2285102D1*
X1367260Y2281562D1*
X1367400Y2278000D1*
X1367260Y2274438D1*
X1987315Y357850D2*
X1986643Y353604D1*
X1985314Y349514D1*
X1983362Y345684D1*
X1980835Y342205D1*
X1977795Y339165D1*
X1974316Y336638D1*
X1970486Y334686D1*
X1966396Y333357D1*
X1962150Y332685D1*
X1957850D1*
X1953604Y333357D1*
X1949514Y334686D1*
X1945684Y336638D1*
X1942205Y339165D1*
X1939165Y342205D1*
X1936638Y345684D1*
X1934686Y349514D1*
X1933357Y353604D1*
X1932685Y357850D1*
Y362150D1*
X1933357Y366396D1*
X1934686Y370486D1*
X1936638Y374316D1*
X1939165Y377795D1*
X1942205Y380835D1*
X1945684Y383362D1*
X1949514Y385314D1*
X1953604Y386643D1*
X1957850Y387315D1*
X1962150D1*
X1966396Y386643D1*
X1970486Y385314D1*
X1974316Y383362D1*
X1977795Y380835D1*
X1980835Y377795D1*
X1983362Y374316D1*
X1985314Y370486D1*
X1986643Y366396D1*
X1987315Y362150D1*
Y357850D1*
X1971315Y1019850D2*
X1970643Y1015604D1*
X1969314Y1011514D1*
X1967362Y1007684D1*
X1964835Y1004205D1*
X1961795Y1001165D1*
X1958316Y998638D1*
X1954486Y996686D1*
X1950396Y995357D1*
X1946150Y994685D1*
X1941850D1*
X1937604Y995357D1*
X1933514Y996686D1*
X1929684Y998638D1*
X1926205Y1001165D1*
X1923165Y1004205D1*
X1920638Y1007684D1*
X1918686Y1011514D1*
X1917357Y1015604D1*
X1916685Y1019850D1*
Y1024150D1*
X1917357Y1028396D1*
X1918686Y1032486D1*
X1920638Y1036316D1*
X1923165Y1039795D1*
X1926205Y1042835D1*
X1929684Y1045362D1*
X1933514Y1047314D1*
X1937604Y1048643D1*
X1941850Y1049315D1*
X1946150D1*
X1950396Y1048643D1*
X1954486Y1047314D1*
X1958316Y1045362D1*
X1961795Y1042835D1*
X1964835Y1039795D1*
X1967362Y1036316D1*
X1969314Y1032486D1*
X1970643Y1028396D1*
X1971315Y1024150D1*
Y1019850D1*
X1657315Y773850D2*
X1656643Y769604D1*
X1655314Y765514D1*
X1653362Y761684D1*
X1650835Y758205D1*
X1647795Y755165D1*
X1644316Y752638D1*
X1640486Y750686D1*
X1636396Y749357D1*
X1632150Y748685D1*
X1627850D1*
X1623604Y749357D1*
X1619514Y750686D1*
X1615684Y752638D1*
X1612205Y755165D1*
X1609165Y758205D1*
X1606638Y761684D1*
X1604686Y765514D1*
X1603357Y769604D1*
X1602685Y773850D1*
Y778150D1*
X1603357Y782396D1*
X1604686Y786486D1*
X1606638Y790316D1*
X1609165Y793795D1*
X1612205Y796835D1*
X1615684Y799362D1*
X1619514Y801314D1*
X1623604Y802643D1*
X1627850Y803315D1*
X1632150D1*
X1636396Y802643D1*
X1640486Y801314D1*
X1644316Y799362D1*
X1647795Y796835D1*
X1650835Y793795D1*
X1653362Y790316D1*
X1655314Y786486D1*
X1656643Y782396D1*
X1657315Y778150D1*
Y773850D1*
X1645315Y641850D2*
X1644643Y637604D1*
X1643314Y633514D1*
X1641362Y629684D1*
X1638835Y626205D1*
X1635795Y623165D1*
X1632316Y620638D1*
X1628486Y618686D1*
X1624396Y617357D1*
X1620150Y616685D1*
X1615850D1*
X1611604Y617357D1*
X1607514Y618686D1*
X1603684Y620638D1*
X1600205Y623165D1*
X1597165Y626205D1*
X1594638Y629684D1*
X1592686Y633514D1*
X1591357Y637604D1*
X1590685Y641850D1*
Y646150D1*
X1591357Y650396D1*
X1592686Y654486D1*
X1594638Y658316D1*
X1597165Y661795D1*
X1600205Y664835D1*
X1603684Y667362D1*
X1607514Y669314D1*
X1611604Y670643D1*
X1615850Y671315D1*
X1620150D1*
X1624396Y670643D1*
X1628486Y669314D1*
X1632316Y667362D1*
X1635795Y664835D1*
X1638835Y661795D1*
X1641362Y658316D1*
X1643314Y654486D1*
X1644643Y650396D1*
X1645315Y646150D1*
Y641850D1*
X1761315Y565850D2*
X1760643Y561604D1*
X1759314Y557514D1*
X1757362Y553684D1*
X1754835Y550205D1*
X1751795Y547165D1*
X1748316Y544638D1*
X1744486Y542686D1*
X1740396Y541357D1*
X1736150Y540685D1*
X1731850D1*
X1727604Y541357D1*
X1723514Y542686D1*
X1719684Y544638D1*
X1716205Y547165D1*
X1713165Y550205D1*
X1710638Y553684D1*
X1708686Y557514D1*
X1707357Y561604D1*
X1706685Y565850D1*
Y570150D1*
X1707357Y574396D1*
X1708686Y578486D1*
X1710638Y582316D1*
X1713165Y585795D1*
X1716205Y588835D1*
X1719684Y591362D1*
X1723514Y593314D1*
X1727604Y594643D1*
X1731850Y595315D1*
X1736150D1*
X1740396Y594643D1*
X1744486Y593314D1*
X1748316Y591362D1*
X1751795Y588835D1*
X1754835Y585795D1*
X1757362Y582316D1*
X1759314Y578486D1*
X1760643Y574396D1*
X1761315Y570150D1*
Y565850D1*
X1729315Y839850D2*
X1728643Y835604D1*
X1727314Y831514D1*
X1725362Y827684D1*
X1722835Y824205D1*
X1719795Y821165D1*
X1716316Y818638D1*
X1712486Y816686D1*
X1708396Y815357D1*
X1704150Y814685D1*
X1699850D1*
X1695604Y815357D1*
X1691514Y816686D1*
X1687684Y818638D1*
X1684205Y821165D1*
X1681165Y824205D1*
X1678638Y827684D1*
X1676686Y831514D1*
X1675357Y835604D1*
X1674685Y839850D1*
Y844150D1*
X1675357Y848396D1*
X1676686Y852486D1*
X1678638Y856316D1*
X1681165Y859795D1*
X1684205Y862835D1*
X1687684Y865362D1*
X1691514Y867314D1*
X1695604Y868643D1*
X1699850Y869315D1*
X1704150D1*
X1708396Y868643D1*
X1712486Y867314D1*
X1716316Y865362D1*
X1719795Y862835D1*
X1722835Y859795D1*
X1725362Y856316D1*
X1727314Y852486D1*
X1728643Y848396D1*
X1729315Y844150D1*
Y839850D1*
X1557315Y947850D2*
X1556643Y943604D1*
X1555314Y939514D1*
X1553362Y935684D1*
X1550835Y932205D1*
X1547795Y929165D1*
X1544316Y926638D1*
X1540486Y924686D1*
X1536396Y923357D1*
X1532150Y922685D1*
X1527850D1*
X1523604Y923357D1*
X1519514Y924686D1*
X1515684Y926638D1*
X1512205Y929165D1*
X1509165Y932205D1*
X1506638Y935684D1*
X1504686Y939514D1*
X1503357Y943604D1*
X1502685Y947850D1*
Y952150D1*
X1503357Y956396D1*
X1504686Y960486D1*
X1506638Y964316D1*
X1509165Y967795D1*
X1512205Y970835D1*
X1515684Y973362D1*
X1519514Y975314D1*
X1523604Y976643D1*
X1527850Y977315D1*
X1532150D1*
X1536396Y976643D1*
X1540486Y975314D1*
X1544316Y973362D1*
X1547795Y970835D1*
X1550835Y967795D1*
X1553362Y964316D1*
X1555314Y960486D1*
X1556643Y956396D1*
X1557315Y952150D1*
Y947850D1*
X1189315Y559850D2*
X1188643Y555604D1*
X1187314Y551514D1*
X1185362Y547684D1*
X1182835Y544205D1*
X1179795Y541165D1*
X1176316Y538638D1*
X1172486Y536686D1*
X1168396Y535357D1*
X1164150Y534685D1*
X1159850D1*
X1155604Y535357D1*
X1151514Y536686D1*
X1147684Y538638D1*
X1144205Y541165D1*
X1141165Y544205D1*
X1138638Y547684D1*
X1136686Y551514D1*
X1135357Y555604D1*
X1134685Y559850D1*
Y564150D1*
X1135357Y568396D1*
X1136686Y572486D1*
X1138638Y576316D1*
X1141165Y579795D1*
X1144205Y582835D1*
X1147684Y585362D1*
X1151514Y587314D1*
X1155604Y588643D1*
X1159850Y589315D1*
X1164150D1*
X1168396Y588643D1*
X1172486Y587314D1*
X1176316Y585362D1*
X1179795Y582835D1*
X1182835Y579795D1*
X1185362Y576316D1*
X1187314Y572486D1*
X1188643Y568396D1*
X1189315Y564150D1*
Y559850D1*
X1425315Y201850D2*
X1424643Y197604D1*
X1423314Y193514D1*
X1421362Y189684D1*
X1418835Y186205D1*
X1415795Y183165D1*
X1412316Y180638D1*
X1408486Y178686D1*
X1404396Y177357D1*
X1400150Y176685D1*
X1395850D1*
X1391604Y177357D1*
X1387514Y178686D1*
X1383684Y180638D1*
X1380205Y183165D1*
X1377165Y186205D1*
X1374638Y189684D1*
X1372686Y193514D1*
X1371357Y197604D1*
X1370685Y201850D1*
Y206150D1*
X1371357Y210396D1*
X1372686Y214486D1*
X1374638Y218316D1*
X1377165Y221795D1*
X1380205Y224835D1*
X1383684Y227362D1*
X1387514Y229314D1*
X1391604Y230643D1*
X1395850Y231315D1*
X1400150D1*
X1404396Y230643D1*
X1408486Y229314D1*
X1412316Y227362D1*
X1415795Y224835D1*
X1418835Y221795D1*
X1421362Y218316D1*
X1423314Y214486D1*
X1424643Y210396D1*
X1425315Y206150D1*
Y201850D1*
X1409315Y313850D2*
X1408643Y309604D1*
X1407314Y305514D1*
X1405362Y301684D1*
X1402835Y298205D1*
X1399795Y295165D1*
X1396316Y292638D1*
X1392486Y290686D1*
X1388396Y289357D1*
X1384150Y288685D1*
X1379850D1*
X1375604Y289357D1*
X1371514Y290686D1*
X1367684Y292638D1*
X1364205Y295165D1*
X1361165Y298205D1*
X1358638Y301684D1*
X1356686Y305514D1*
X1355357Y309604D1*
X1354685Y313850D1*
Y318150D1*
X1355357Y322396D1*
X1356686Y326486D1*
X1358638Y330316D1*
X1361165Y333795D1*
X1364205Y336835D1*
X1367684Y339362D1*
X1371514Y341314D1*
X1375604Y342643D1*
X1379850Y343315D1*
X1384150D1*
X1388396Y342643D1*
X1392486Y341314D1*
X1396316Y339362D1*
X1399795Y336835D1*
X1402835Y333795D1*
X1405362Y330316D1*
X1407314Y326486D1*
X1408643Y322396D1*
X1409315Y318150D1*
Y313850D1*
X1597315Y223850D2*
X1596643Y219604D1*
X1595314Y215514D1*
X1593362Y211684D1*
X1590835Y208205D1*
X1587795Y205165D1*
X1584316Y202638D1*
X1580486Y200686D1*
X1576396Y199357D1*
X1572150Y198685D1*
X1567850D1*
X1563604Y199357D1*
X1559514Y200686D1*
X1555684Y202638D1*
X1552205Y205165D1*
X1549165Y208205D1*
X1546638Y211684D1*
X1544686Y215514D1*
X1543357Y219604D1*
X1542685Y223850D1*
Y228150D1*
X1543357Y232396D1*
X1544686Y236486D1*
X1546638Y240316D1*
X1549165Y243795D1*
X1552205Y246835D1*
X1555684Y249362D1*
X1559514Y251314D1*
X1563604Y252643D1*
X1567850Y253315D1*
X1572150D1*
X1576396Y252643D1*
X1580486Y251314D1*
X1584316Y249362D1*
X1587795Y246835D1*
X1590835Y243795D1*
X1593362Y240316D1*
X1595314Y236486D1*
X1596643Y232396D1*
X1597315Y228150D1*
Y223850D1*
X1529315Y503850D2*
X1528643Y499604D1*
X1527314Y495514D1*
X1525362Y491684D1*
X1522835Y488205D1*
X1519795Y485165D1*
X1516316Y482638D1*
X1512486Y480686D1*
X1508396Y479357D1*
X1504150Y478685D1*
X1499850D1*
X1495604Y479357D1*
X1491514Y480686D1*
X1487684Y482638D1*
X1484205Y485165D1*
X1481165Y488205D1*
X1478638Y491684D1*
X1476686Y495514D1*
X1475357Y499604D1*
X1474685Y503850D1*
Y508150D1*
X1475357Y512396D1*
X1476686Y516486D1*
X1478638Y520316D1*
X1481165Y523795D1*
X1484205Y526835D1*
X1487684Y529362D1*
X1491514Y531314D1*
X1495604Y532643D1*
X1499850Y533315D1*
X1504150D1*
X1508396Y532643D1*
X1512486Y531314D1*
X1516316Y529362D1*
X1519795Y526835D1*
X1522835Y523795D1*
X1525362Y520316D1*
X1527314Y516486D1*
X1528643Y512396D1*
X1529315Y508150D1*
Y503850D1*
X1905315Y451850D2*
X1904643Y447604D1*
X1903314Y443514D1*
X1901362Y439684D1*
X1898835Y436205D1*
X1895795Y433165D1*
X1892316Y430638D1*
X1888486Y428686D1*
X1884396Y427357D1*
X1880150Y426685D1*
X1875850D1*
X1871604Y427357D1*
X1867514Y428686D1*
X1863684Y430638D1*
X1860205Y433165D1*
X1857165Y436205D1*
X1854638Y439684D1*
X1852686Y443514D1*
X1851357Y447604D1*
X1850685Y451850D1*
Y456150D1*
X1851357Y460396D1*
X1852686Y464486D1*
X1854638Y468316D1*
X1857165Y471795D1*
X1860205Y474835D1*
X1863684Y477362D1*
X1867514Y479314D1*
X1871604Y480643D1*
X1875850Y481315D1*
X1880150D1*
X1884396Y480643D1*
X1888486Y479314D1*
X1892316Y477362D1*
X1895795Y474835D1*
X1898835Y471795D1*
X1901362Y468316D1*
X1903314Y464486D1*
X1904643Y460396D1*
X1905315Y456150D1*
Y451850D1*
X1625315Y2095850D2*
X1624643Y2091604D1*
X1623314Y2087514D1*
X1621362Y2083684D1*
X1618835Y2080205D1*
X1615795Y2077165D1*
X1612316Y2074638D1*
X1608486Y2072686D1*
X1604396Y2071357D1*
X1600150Y2070685D1*
X1595850D1*
X1591604Y2071357D1*
X1587514Y2072686D1*
X1583684Y2074638D1*
X1580205Y2077165D1*
X1577165Y2080205D1*
X1574638Y2083684D1*
X1572686Y2087514D1*
X1571357Y2091604D1*
X1570685Y2095850D1*
Y2100150D1*
X1571357Y2104396D1*
X1572686Y2108486D1*
X1574638Y2112316D1*
X1577165Y2115795D1*
X1580205Y2118835D1*
X1583684Y2121362D1*
X1587514Y2123314D1*
X1591604Y2124643D1*
X1595850Y2125315D1*
X1600150D1*
X1604396Y2124643D1*
X1608486Y2123314D1*
X1612316Y2121362D1*
X1615795Y2118835D1*
X1618835Y2115795D1*
X1621362Y2112316D1*
X1623314Y2108486D1*
X1624643Y2104396D1*
X1625315Y2100150D1*
Y2095850D1*
X1689315Y2017850D2*
X1688643Y2013604D1*
X1687314Y2009514D1*
X1685362Y2005684D1*
X1682835Y2002205D1*
X1679795Y1999165D1*
X1676316Y1996638D1*
X1672486Y1994686D1*
X1668396Y1993357D1*
X1664150Y1992685D1*
X1659850D1*
X1655604Y1993357D1*
X1651514Y1994686D1*
X1647684Y1996638D1*
X1644205Y1999165D1*
X1641165Y2002205D1*
X1638638Y2005684D1*
X1636686Y2009514D1*
X1635357Y2013604D1*
X1634685Y2017850D1*
Y2022150D1*
X1635357Y2026396D1*
X1636686Y2030486D1*
X1638638Y2034316D1*
X1641165Y2037795D1*
X1644205Y2040835D1*
X1647684Y2043362D1*
X1651514Y2045314D1*
X1655604Y2046643D1*
X1659850Y2047315D1*
X1664150D1*
X1668396Y2046643D1*
X1672486Y2045314D1*
X1676316Y2043362D1*
X1679795Y2040835D1*
X1682835Y2037795D1*
X1685362Y2034316D1*
X1687314Y2030486D1*
X1688643Y2026396D1*
X1689315Y2022150D1*
Y2017850D1*
X1501315Y1979850D2*
X1500643Y1975604D1*
X1499314Y1971514D1*
X1497362Y1967684D1*
X1494835Y1964205D1*
X1491795Y1961165D1*
X1488316Y1958638D1*
X1484486Y1956686D1*
X1480396Y1955357D1*
X1476150Y1954685D1*
X1471850D1*
X1467604Y1955357D1*
X1463514Y1956686D1*
X1459684Y1958638D1*
X1456205Y1961165D1*
X1453165Y1964205D1*
X1450638Y1967684D1*
X1448686Y1971514D1*
X1447357Y1975604D1*
X1446685Y1979850D1*
Y1984150D1*
X1447357Y1988396D1*
X1448686Y1992486D1*
X1450638Y1996316D1*
X1453165Y1999795D1*
X1456205Y2002835D1*
X1459684Y2005362D1*
X1463514Y2007314D1*
X1467604Y2008643D1*
X1471850Y2009315D1*
X1476150D1*
X1480396Y2008643D1*
X1484486Y2007314D1*
X1488316Y2005362D1*
X1491795Y2002835D1*
X1494835Y1999795D1*
X1497362Y1996316D1*
X1499314Y1992486D1*
X1500643Y1988396D1*
X1501315Y1984150D1*
Y1979850D1*
X1591315Y1891850D2*
X1590643Y1887604D1*
X1589314Y1883514D1*
X1587362Y1879684D1*
X1584835Y1876205D1*
X1581795Y1873165D1*
X1578316Y1870638D1*
X1574486Y1868686D1*
X1570396Y1867357D1*
X1566150Y1866685D1*
X1561850D1*
X1557604Y1867357D1*
X1553514Y1868686D1*
X1549684Y1870638D1*
X1546205Y1873165D1*
X1543165Y1876205D1*
X1540638Y1879684D1*
X1538686Y1883514D1*
X1537357Y1887604D1*
X1536685Y1891850D1*
Y1896150D1*
X1537357Y1900396D1*
X1538686Y1904486D1*
X1540638Y1908316D1*
X1543165Y1911795D1*
X1546205Y1914835D1*
X1549684Y1917362D1*
X1553514Y1919314D1*
X1557604Y1920643D1*
X1561850Y1921315D1*
X1566150D1*
X1570396Y1920643D1*
X1574486Y1919314D1*
X1578316Y1917362D1*
X1581795Y1914835D1*
X1584835Y1911795D1*
X1587362Y1908316D1*
X1589314Y1904486D1*
X1590643Y1900396D1*
X1591315Y1896150D1*
Y1891850D1*
X1357315Y1941850D2*
X1356643Y1937604D1*
X1355314Y1933514D1*
X1353362Y1929684D1*
X1350835Y1926205D1*
X1347795Y1923165D1*
X1344316Y1920638D1*
X1340486Y1918686D1*
X1336396Y1917357D1*
X1332150Y1916685D1*
X1327850D1*
X1323604Y1917357D1*
X1319514Y1918686D1*
X1315684Y1920638D1*
X1312205Y1923165D1*
X1309165Y1926205D1*
X1306638Y1929684D1*
X1304686Y1933514D1*
X1303357Y1937604D1*
X1302685Y1941850D1*
Y1946150D1*
X1303357Y1950396D1*
X1304686Y1954486D1*
X1306638Y1958316D1*
X1309165Y1961795D1*
X1312205Y1964835D1*
X1315684Y1967362D1*
X1319514Y1969314D1*
X1323604Y1970643D1*
X1327850Y1971315D1*
X1332150D1*
X1336396Y1970643D1*
X1340486Y1969314D1*
X1344316Y1967362D1*
X1347795Y1964835D1*
X1350835Y1961795D1*
X1353362Y1958316D1*
X1355314Y1954486D1*
X1356643Y1950396D1*
X1357315Y1946150D1*
Y1941850D1*
X1521315Y1565850D2*
X1520643Y1561604D1*
X1519314Y1557514D1*
X1517362Y1553684D1*
X1514835Y1550205D1*
X1511795Y1547165D1*
X1508316Y1544638D1*
X1504486Y1542686D1*
X1500396Y1541357D1*
X1496150Y1540685D1*
X1491850D1*
X1487604Y1541357D1*
X1483514Y1542686D1*
X1479684Y1544638D1*
X1476205Y1547165D1*
X1473165Y1550205D1*
X1470638Y1553684D1*
X1468686Y1557514D1*
X1467357Y1561604D1*
X1466685Y1565850D1*
Y1570150D1*
X1467357Y1574396D1*
X1468686Y1578486D1*
X1470638Y1582316D1*
X1473165Y1585795D1*
X1476205Y1588835D1*
X1479684Y1591362D1*
X1483514Y1593314D1*
X1487604Y1594643D1*
X1491850Y1595315D1*
X1496150D1*
X1500396Y1594643D1*
X1504486Y1593314D1*
X1508316Y1591362D1*
X1511795Y1588835D1*
X1514835Y1585795D1*
X1517362Y1582316D1*
X1519314Y1578486D1*
X1520643Y1574396D1*
X1521315Y1570150D1*
Y1565850D1*
X1595315Y1741850D2*
X1594643Y1737604D1*
X1593314Y1733514D1*
X1591362Y1729684D1*
X1588835Y1726205D1*
X1585795Y1723165D1*
X1582316Y1720638D1*
X1578486Y1718686D1*
X1574396Y1717357D1*
X1570150Y1716685D1*
X1565850D1*
X1561604Y1717357D1*
X1557514Y1718686D1*
X1553684Y1720638D1*
X1550205Y1723165D1*
X1547165Y1726205D1*
X1544638Y1729684D1*
X1542686Y1733514D1*
X1541357Y1737604D1*
X1540685Y1741850D1*
Y1746150D1*
X1541357Y1750396D1*
X1542686Y1754486D1*
X1544638Y1758316D1*
X1547165Y1761795D1*
X1550205Y1764835D1*
X1553684Y1767362D1*
X1557514Y1769314D1*
X1561604Y1770643D1*
X1565850Y1771315D1*
X1570150D1*
X1574396Y1770643D1*
X1578486Y1769314D1*
X1582316Y1767362D1*
X1585795Y1764835D1*
X1588835Y1761795D1*
X1591362Y1758316D1*
X1593314Y1754486D1*
X1594643Y1750396D1*
X1595315Y1746150D1*
Y1741850D1*
X1423315Y1743850D2*
X1422643Y1739604D1*
X1421314Y1735514D1*
X1419362Y1731684D1*
X1416835Y1728205D1*
X1413795Y1725165D1*
X1410316Y1722638D1*
X1406486Y1720686D1*
X1402396Y1719357D1*
X1398150Y1718685D1*
X1393850D1*
X1389604Y1719357D1*
X1385514Y1720686D1*
X1381684Y1722638D1*
X1378205Y1725165D1*
X1375165Y1728205D1*
X1372638Y1731684D1*
X1370686Y1735514D1*
X1369357Y1739604D1*
X1368685Y1743850D1*
Y1748150D1*
X1369357Y1752396D1*
X1370686Y1756486D1*
X1372638Y1760316D1*
X1375165Y1763795D1*
X1378205Y1766835D1*
X1381684Y1769362D1*
X1385514Y1771314D1*
X1389604Y1772643D1*
X1393850Y1773315D1*
X1398150D1*
X1402396Y1772643D1*
X1406486Y1771314D1*
X1410316Y1769362D1*
X1413795Y1766835D1*
X1416835Y1763795D1*
X1419362Y1760316D1*
X1421314Y1756486D1*
X1422643Y1752396D1*
X1423315Y1748150D1*
Y1743850D1*
X1869315Y1777850D2*
X1868643Y1773604D1*
X1867314Y1769514D1*
X1865362Y1765684D1*
X1862835Y1762205D1*
X1859795Y1759165D1*
X1856316Y1756638D1*
X1852486Y1754686D1*
X1848396Y1753357D1*
X1844150Y1752685D1*
X1839850D1*
X1835604Y1753357D1*
X1831514Y1754686D1*
X1827684Y1756638D1*
X1824205Y1759165D1*
X1821165Y1762205D1*
X1818638Y1765684D1*
X1816686Y1769514D1*
X1815357Y1773604D1*
X1814685Y1777850D1*
Y1782150D1*
X1815357Y1786396D1*
X1816686Y1790486D1*
X1818638Y1794316D1*
X1821165Y1797795D1*
X1824205Y1800835D1*
X1827684Y1803362D1*
X1831514Y1805314D1*
X1835604Y1806643D1*
X1839850Y1807315D1*
X1844150D1*
X1848396Y1806643D1*
X1852486Y1805314D1*
X1856316Y1803362D1*
X1859795Y1800835D1*
X1862835Y1797795D1*
X1865362Y1794316D1*
X1867314Y1790486D1*
X1868643Y1786396D1*
X1869315Y1782150D1*
Y1777850D1*
X1881315Y1697850D2*
X1880643Y1693604D1*
X1879314Y1689514D1*
X1877362Y1685684D1*
X1874835Y1682205D1*
X1871795Y1679165D1*
X1868316Y1676638D1*
X1864486Y1674686D1*
X1860396Y1673357D1*
X1856150Y1672685D1*
X1851850D1*
X1847604Y1673357D1*
X1843514Y1674686D1*
X1839684Y1676638D1*
X1836205Y1679165D1*
X1833165Y1682205D1*
X1830638Y1685684D1*
X1828686Y1689514D1*
X1827357Y1693604D1*
X1826685Y1697850D1*
Y1702150D1*
X1827357Y1706396D1*
X1828686Y1710486D1*
X1830638Y1714316D1*
X1833165Y1717795D1*
X1836205Y1720835D1*
X1839684Y1723362D1*
X1843514Y1725314D1*
X1847604Y1726643D1*
X1851850Y1727315D1*
X1856150D1*
X1860396Y1726643D1*
X1864486Y1725314D1*
X1868316Y1723362D1*
X1871795Y1720835D1*
X1874835Y1717795D1*
X1877362Y1714316D1*
X1879314Y1710486D1*
X1880643Y1706396D1*
X1881315Y1702150D1*
Y1697850D1*
X1919315Y2081850D2*
X1918643Y2077604D1*
X1917314Y2073514D1*
X1915362Y2069684D1*
X1912835Y2066205D1*
X1909795Y2063165D1*
X1906316Y2060638D1*
X1902486Y2058686D1*
X1898396Y2057357D1*
X1894150Y2056685D1*
X1889850D1*
X1885604Y2057357D1*
X1881514Y2058686D1*
X1877684Y2060638D1*
X1874205Y2063165D1*
X1871165Y2066205D1*
X1868638Y2069684D1*
X1866686Y2073514D1*
X1865357Y2077604D1*
X1864685Y2081850D1*
Y2086150D1*
X1865357Y2090396D1*
X1866686Y2094486D1*
X1868638Y2098316D1*
X1871165Y2101795D1*
X1874205Y2104835D1*
X1877684Y2107362D1*
X1881514Y2109314D1*
X1885604Y2110643D1*
X1889850Y2111315D1*
X1894150D1*
X1898396Y2110643D1*
X1902486Y2109314D1*
X1906316Y2107362D1*
X1909795Y2104835D1*
X1912835Y2101795D1*
X1915362Y2098316D1*
X1917314Y2094486D1*
X1918643Y2090396D1*
X1919315Y2086150D1*
Y2081850D1*
X2241315Y1297850D2*
X2240643Y1293604D1*
X2239314Y1289514D1*
X2237362Y1285684D1*
X2234835Y1282205D1*
X2231795Y1279165D1*
X2228316Y1276638D1*
X2224486Y1274686D1*
X2220396Y1273357D1*
X2216150Y1272685D1*
X2211850D1*
X2207604Y1273357D1*
X2203514Y1274686D1*
X2199684Y1276638D1*
X2196205Y1279165D1*
X2193165Y1282205D1*
X2190638Y1285684D1*
X2188686Y1289514D1*
X2187357Y1293604D1*
X2186685Y1297850D1*
Y1302150D1*
X2187357Y1306396D1*
X2188686Y1310486D1*
X2190638Y1314316D1*
X2193165Y1317795D1*
X2196205Y1320835D1*
X2199684Y1323362D1*
X2203514Y1325314D1*
X2207604Y1326643D1*
X2211850Y1327315D1*
X2216150D1*
X2220396Y1326643D1*
X2224486Y1325314D1*
X2228316Y1323362D1*
X2231795Y1320835D1*
X2234835Y1317795D1*
X2237362Y1314316D1*
X2239314Y1310486D1*
X2240643Y1306396D1*
X2241315Y1302150D1*
Y1297850D1*
X1167315Y1151850D2*
X1166643Y1147604D1*
X1165314Y1143514D1*
X1163362Y1139684D1*
X1160835Y1136205D1*
X1157795Y1133165D1*
X1154316Y1130638D1*
X1150486Y1128686D1*
X1146396Y1127357D1*
X1142150Y1126685D1*
X1137850D1*
X1133604Y1127357D1*
X1129514Y1128686D1*
X1125684Y1130638D1*
X1122205Y1133165D1*
X1119165Y1136205D1*
X1116638Y1139684D1*
X1114686Y1143514D1*
X1113357Y1147604D1*
X1112685Y1151850D1*
Y1156150D1*
X1113357Y1160396D1*
X1114686Y1164486D1*
X1116638Y1168316D1*
X1119165Y1171795D1*
X1122205Y1174835D1*
X1125684Y1177362D1*
X1129514Y1179314D1*
X1133604Y1180643D1*
X1137850Y1181315D1*
X1142150D1*
X1146396Y1180643D1*
X1150486Y1179314D1*
X1154316Y1177362D1*
X1157795Y1174835D1*
X1160835Y1171795D1*
X1163362Y1168316D1*
X1165314Y1164486D1*
X1166643Y1160396D1*
X1167315Y1156150D1*
Y1151850D1*
X1305315Y875850D2*
X1304643Y871604D1*
X1303314Y867514D1*
X1301362Y863684D1*
X1298835Y860205D1*
X1295795Y857165D1*
X1292316Y854638D1*
X1288486Y852686D1*
X1284396Y851357D1*
X1280150Y850685D1*
X1275850D1*
X1271604Y851357D1*
X1267514Y852686D1*
X1263684Y854638D1*
X1260205Y857165D1*
X1257165Y860205D1*
X1254638Y863684D1*
X1252686Y867514D1*
X1251357Y871604D1*
X1250685Y875850D1*
Y880150D1*
X1251357Y884396D1*
X1252686Y888486D1*
X1254638Y892316D1*
X1257165Y895795D1*
X1260205Y898835D1*
X1263684Y901362D1*
X1267514Y903314D1*
X1271604Y904643D1*
X1275850Y905315D1*
X1280150D1*
X1284396Y904643D1*
X1288486Y903314D1*
X1292316Y901362D1*
X1295795Y898835D1*
X1298835Y895795D1*
X1301362Y892316D1*
X1303314Y888486D1*
X1304643Y884396D1*
X1305315Y880150D1*
Y875850D1*
X2259315Y383850D2*
X2258643Y379604D1*
X2257314Y375514D1*
X2255362Y371684D1*
X2252835Y368205D1*
X2249795Y365165D1*
X2246316Y362638D1*
X2242486Y360686D1*
X2238396Y359357D1*
X2234150Y358685D1*
X2229850D1*
X2225604Y359357D1*
X2221514Y360686D1*
X2217684Y362638D1*
X2214205Y365165D1*
X2211165Y368205D1*
X2208638Y371684D1*
X2206686Y375514D1*
X2205357Y379604D1*
X2204685Y383850D1*
Y388150D1*
X2205357Y392396D1*
X2206686Y396486D1*
X2208638Y400316D1*
X2211165Y403795D1*
X2214205Y406835D1*
X2217684Y409362D1*
X2221514Y411314D1*
X2225604Y412643D1*
X2229850Y413315D1*
X2234150D1*
X2238396Y412643D1*
X2242486Y411314D1*
X2246316Y409362D1*
X2249795Y406835D1*
X2252835Y403795D1*
X2255362Y400316D1*
X2257314Y396486D1*
X2258643Y392396D1*
X2259315Y388150D1*
Y383850D1*
X2165315Y1025850D2*
X2164643Y1021604D1*
X2163314Y1017514D1*
X2161362Y1013684D1*
X2158835Y1010205D1*
X2155795Y1007165D1*
X2152316Y1004638D1*
X2148486Y1002686D1*
X2144396Y1001357D1*
X2140150Y1000685D1*
X2135850D1*
X2131604Y1001357D1*
X2127514Y1002686D1*
X2123684Y1004638D1*
X2120205Y1007165D1*
X2117165Y1010205D1*
X2114638Y1013684D1*
X2112686Y1017514D1*
X2111357Y1021604D1*
X2110685Y1025850D1*
Y1030150D1*
X2111357Y1034396D1*
X2112686Y1038486D1*
X2114638Y1042316D1*
X2117165Y1045795D1*
X2120205Y1048835D1*
X2123684Y1051362D1*
X2127514Y1053314D1*
X2131604Y1054643D1*
X2135850Y1055315D1*
X2140150D1*
X2144396Y1054643D1*
X2148486Y1053314D1*
X2152316Y1051362D1*
X2155795Y1048835D1*
X2158835Y1045795D1*
X2161362Y1042316D1*
X2163314Y1038486D1*
X2164643Y1034396D1*
X2165315Y1030150D1*
Y1025850D1*
X1521315Y1227850D2*
X1520643Y1223604D1*
X1519314Y1219514D1*
X1517362Y1215684D1*
X1514835Y1212205D1*
X1511795Y1209165D1*
X1508316Y1206638D1*
X1504486Y1204686D1*
X1500396Y1203357D1*
X1496150Y1202685D1*
X1491850D1*
X1487604Y1203357D1*
X1483514Y1204686D1*
X1479684Y1206638D1*
X1476205Y1209165D1*
X1473165Y1212205D1*
X1470638Y1215684D1*
X1468686Y1219514D1*
X1467357Y1223604D1*
X1466685Y1227850D1*
Y1232150D1*
X1467357Y1236396D1*
X1468686Y1240486D1*
X1470638Y1244316D1*
X1473165Y1247795D1*
X1476205Y1250835D1*
X1479684Y1253362D1*
X1483514Y1255314D1*
X1487604Y1256643D1*
X1491850Y1257315D1*
X1496150D1*
X1500396Y1256643D1*
X1504486Y1255314D1*
X1508316Y1253362D1*
X1511795Y1250835D1*
X1514835Y1247795D1*
X1517362Y1244316D1*
X1519314Y1240486D1*
X1520643Y1236396D1*
X1521315Y1232150D1*
Y1227850D1*
X1251315Y171850D2*
X1250643Y167604D1*
X1249314Y163514D1*
X1247362Y159684D1*
X1244835Y156205D1*
X1241795Y153165D1*
X1238316Y150638D1*
X1234486Y148686D1*
X1230396Y147357D1*
X1226150Y146685D1*
X1221850D1*
X1217604Y147357D1*
X1216835Y147573D1*
X1218059Y144467D1*
X1219063Y140286D1*
X1219400Y136000D1*
X1219063Y131714D1*
X1218059Y127533D1*
X1216413Y123560D1*
X1214167Y119895D1*
X1211375Y116625D1*
X1208105Y113833D1*
X1204440Y111587D1*
X1200467Y109941D1*
X1196286Y108937D1*
X1192000Y108600D1*
X1187714Y108937D1*
X1183533Y109941D1*
X1179560Y111587D1*
X1175895Y113833D1*
X1172625Y116625D1*
X1169833Y119895D1*
X1167587Y123560D1*
X1165941Y127533D1*
X1164937Y131714D1*
X1164600Y136000D1*
X1164937Y140286D1*
X1165941Y144467D1*
X1167587Y148440D1*
X1169833Y152105D1*
X1172625Y155375D1*
X1175895Y158167D1*
X1179560Y160413D1*
X1183533Y162059D1*
X1187714Y163063D1*
X1192000Y163400D1*
X1196286Y163063D1*
X1199165Y162427D1*
X1197941Y165533D1*
X1196937Y169714D1*
X1196600Y174000D1*
X1196937Y178286D1*
X1197941Y182467D1*
X1199587Y186440D1*
X1201833Y190105D1*
X1204625Y193375D1*
X1207895Y196167D1*
X1211560Y198413D1*
X1215533Y200059D1*
X1219714Y201063D1*
X1224000Y201400D1*
X1228286Y201063D1*
X1232467Y200059D1*
X1236440Y198413D1*
X1240105Y196167D1*
X1243375Y193375D1*
X1246167Y190105D1*
X1248413Y186440D1*
X1250059Y182467D1*
X1251063Y178286D1*
X1251400Y174000D1*
X1251315Y171850D1*
X1351315Y415850D2*
X1350643Y411604D1*
X1349314Y407514D1*
X1347362Y403684D1*
X1344835Y400205D1*
X1341795Y397165D1*
X1338316Y394638D1*
X1334486Y392686D1*
X1330396Y391357D1*
X1326150Y390685D1*
X1321850D1*
X1317604Y391357D1*
X1313514Y392686D1*
X1309684Y394638D1*
X1306205Y397165D1*
X1303165Y400205D1*
X1300638Y403684D1*
X1298686Y407514D1*
X1297357Y411604D1*
X1296685Y415850D1*
Y420150D1*
X1297357Y424396D1*
X1298686Y428486D1*
X1300638Y432316D1*
X1303165Y435795D1*
X1306205Y438835D1*
X1309684Y441362D1*
X1313514Y443314D1*
X1317604Y444643D1*
X1321850Y445315D1*
X1326150D1*
X1330396Y444643D1*
X1334486Y443314D1*
X1338316Y441362D1*
X1341795Y438835D1*
X1344835Y435795D1*
X1347362Y432316D1*
X1349314Y428486D1*
X1350643Y424396D1*
X1351315Y420150D1*
Y415850D1*
X973315Y2109850D2*
X972643Y2105604D1*
X971314Y2101514D1*
X969362Y2097684D1*
X966835Y2094205D1*
X963795Y2091165D1*
X960316Y2088638D1*
X956486Y2086686D1*
X952396Y2085357D1*
X948150Y2084685D1*
X943850D1*
X939604Y2085357D1*
X935514Y2086686D1*
X931684Y2088638D1*
X928205Y2091165D1*
X925165Y2094205D1*
X922638Y2097684D1*
X920686Y2101514D1*
X919357Y2105604D1*
X918685Y2109850D1*
Y2114150D1*
X919357Y2118396D1*
X920686Y2122486D1*
X922638Y2126316D1*
X925165Y2129795D1*
X928205Y2132835D1*
X931684Y2135362D1*
X935514Y2137314D1*
X939604Y2138643D1*
X943850Y2139315D1*
X948150D1*
X952396Y2138643D1*
X956486Y2137314D1*
X960316Y2135362D1*
X963795Y2132835D1*
X966835Y2129795D1*
X969362Y2126316D1*
X971314Y2122486D1*
X972643Y2118396D1*
X973315Y2114150D1*
Y2109850D1*
X947315Y1607850D2*
X946643Y1603604D1*
X945314Y1599514D1*
X943362Y1595684D1*
X940835Y1592205D1*
X937795Y1589165D1*
X934316Y1586638D1*
X930486Y1584686D1*
X926396Y1583357D1*
X922150Y1582685D1*
X917850D1*
X913604Y1583357D1*
X909514Y1584686D1*
X905684Y1586638D1*
X902205Y1589165D1*
X899165Y1592205D1*
X896638Y1595684D1*
X894686Y1599514D1*
X893357Y1603604D1*
X892685Y1607850D1*
Y1612150D1*
X893357Y1616396D1*
X894686Y1620486D1*
X896638Y1624316D1*
X899165Y1627795D1*
X902205Y1630835D1*
X905684Y1633362D1*
X909514Y1635314D1*
X913604Y1636643D1*
X917850Y1637315D1*
X922150D1*
X926396Y1636643D1*
X930486Y1635314D1*
X934316Y1633362D1*
X937795Y1630835D1*
X940835Y1627795D1*
X943362Y1624316D1*
X945314Y1620486D1*
X946643Y1616396D1*
X947315Y1612150D1*
Y1607850D1*
X933315Y1177850D2*
X932643Y1173604D1*
X931314Y1169514D1*
X929362Y1165684D1*
X926835Y1162205D1*
X923795Y1159165D1*
X920316Y1156638D1*
X916486Y1154686D1*
X912396Y1153357D1*
X908150Y1152685D1*
X903850D1*
X899604Y1153357D1*
X895514Y1154686D1*
X891684Y1156638D1*
X888205Y1159165D1*
X885165Y1162205D1*
X882638Y1165684D1*
X880686Y1169514D1*
X879357Y1173604D1*
X878685Y1177850D1*
Y1182150D1*
X879357Y1186396D1*
X880686Y1190486D1*
X882638Y1194316D1*
X885165Y1197795D1*
X888205Y1200835D1*
X891684Y1203362D1*
X895514Y1205314D1*
X899604Y1206643D1*
X903850Y1207315D1*
X908150D1*
X912396Y1206643D1*
X916486Y1205314D1*
X920316Y1203362D1*
X923795Y1200835D1*
X926835Y1197795D1*
X929362Y1194316D1*
X931314Y1190486D1*
X932643Y1186396D1*
X933315Y1182150D1*
Y1177850D1*
X493315Y615850D2*
X492643Y611604D1*
X491314Y607514D1*
X489362Y603684D1*
X486835Y600205D1*
X483795Y597165D1*
X480316Y594638D1*
X476486Y592686D1*
X472396Y591357D1*
X468150Y590685D1*
X463850D1*
X459604Y591357D1*
X455514Y592686D1*
X451684Y594638D1*
X448205Y597165D1*
X445165Y600205D1*
X442638Y603684D1*
X440686Y607514D1*
X439357Y611604D1*
X438685Y615850D1*
Y620150D1*
X439357Y624396D1*
X440686Y628486D1*
X442638Y632316D1*
X445165Y635795D1*
X448205Y638835D1*
X451684Y641362D1*
X455514Y643314D1*
X459604Y644643D1*
X463850Y645315D1*
X468150D1*
X472396Y644643D1*
X476486Y643314D1*
X480316Y641362D1*
X483795Y638835D1*
X486835Y635795D1*
X489362Y632316D1*
X491314Y628486D1*
X492643Y624396D1*
X493315Y620150D1*
Y615850D1*
X553315Y375850D2*
X552643Y371604D1*
X551314Y367514D1*
X549362Y363684D1*
X546835Y360205D1*
X543795Y357165D1*
X540316Y354638D1*
X536486Y352686D1*
X532396Y351357D1*
X528150Y350685D1*
X523850D1*
X519604Y351357D1*
X515514Y352686D1*
X511684Y354638D1*
X508205Y357165D1*
X505165Y360205D1*
X502638Y363684D1*
X500686Y367514D1*
X499357Y371604D1*
X498685Y375850D1*
Y380150D1*
X499357Y384396D1*
X500686Y388486D1*
X502638Y392316D1*
X505165Y395795D1*
X508205Y398835D1*
X511684Y401362D1*
X515514Y403314D1*
X519604Y404643D1*
X523850Y405315D1*
X528150D1*
X532396Y404643D1*
X536486Y403314D1*
X540316Y401362D1*
X543795Y398835D1*
X546835Y395795D1*
X549362Y392316D1*
X551314Y388486D1*
X552643Y384396D1*
X553315Y380150D1*
Y375850D1*
X1053315Y383850D2*
X1052643Y379604D1*
X1051314Y375514D1*
X1049362Y371684D1*
X1046835Y368205D1*
X1043795Y365165D1*
X1040316Y362638D1*
X1036486Y360686D1*
X1032396Y359357D1*
X1028150Y358685D1*
X1023850D1*
X1019604Y359357D1*
X1015514Y360686D1*
X1011684Y362638D1*
X1008205Y365165D1*
X1005165Y368205D1*
X1002638Y371684D1*
X1000686Y375514D1*
X999357Y379604D1*
X998685Y383850D1*
Y388150D1*
X999357Y392396D1*
X1000686Y396486D1*
X1002638Y400316D1*
X1005165Y403795D1*
X1008205Y406835D1*
X1011684Y409362D1*
X1015514Y411314D1*
X1019604Y412643D1*
X1023850Y413315D1*
X1028150D1*
X1032396Y412643D1*
X1036486Y411314D1*
X1040316Y409362D1*
X1043795Y406835D1*
X1046835Y403795D1*
X1049362Y400316D1*
X1051314Y396486D1*
X1052643Y392396D1*
X1053315Y388150D1*
Y383850D1*
X2301315Y175850D2*
X2300643Y171604D1*
X2299314Y167514D1*
X2297362Y163684D1*
X2294835Y160205D1*
X2291795Y157165D1*
X2288316Y154638D1*
X2284486Y152686D1*
X2280396Y151357D1*
X2276150Y150685D1*
X2271850D1*
X2267604Y151357D1*
X2263514Y152686D1*
X2259684Y154638D1*
X2256205Y157165D1*
X2253165Y160205D1*
X2250638Y163684D1*
X2248686Y167514D1*
X2247357Y171604D1*
X2246685Y175850D1*
Y180150D1*
X2247357Y184396D1*
X2248686Y188486D1*
X2250638Y192316D1*
X2253165Y195795D1*
X2256205Y198835D1*
X2259684Y201362D1*
X2263514Y203314D1*
X2267604Y204643D1*
X2271850Y205315D1*
X2276150D1*
X2280396Y204643D1*
X2284486Y203314D1*
X2288316Y201362D1*
X2291795Y198835D1*
X2294835Y195795D1*
X2297362Y192316D1*
X2299314Y188486D1*
X2300643Y184396D1*
X2301315Y180150D1*
Y175850D1*
X1831315Y1223850D2*
X1830643Y1219604D1*
X1829314Y1215514D1*
X1827362Y1211684D1*
X1824835Y1208205D1*
X1821795Y1205165D1*
X1818316Y1202638D1*
X1814486Y1200686D1*
X1810396Y1199357D1*
X1806150Y1198685D1*
X1801850D1*
X1797604Y1199357D1*
X1793514Y1200686D1*
X1789684Y1202638D1*
X1786205Y1205165D1*
X1783165Y1208205D1*
X1780638Y1211684D1*
X1778686Y1215514D1*
X1777357Y1219604D1*
X1776685Y1223850D1*
Y1228150D1*
X1777357Y1232396D1*
X1778686Y1236486D1*
X1780638Y1240316D1*
X1783165Y1243795D1*
X1786205Y1246835D1*
X1789684Y1249362D1*
X1793514Y1251314D1*
X1797604Y1252643D1*
X1801850Y1253315D1*
X1806150D1*
X1810396Y1252643D1*
X1814486Y1251314D1*
X1818316Y1249362D1*
X1821795Y1246835D1*
X1824835Y1243795D1*
X1827362Y1240316D1*
X1829314Y1236486D1*
X1830643Y1232396D1*
X1831315Y1228150D1*
Y1223850D1*
X1875315Y2285850D2*
X1874643Y2281604D1*
X1873314Y2277514D1*
X1871362Y2273684D1*
X1868835Y2270205D1*
X1865795Y2267165D1*
X1862316Y2264638D1*
X1858486Y2262686D1*
X1854396Y2261357D1*
X1850150Y2260685D1*
X1845850D1*
X1841604Y2261357D1*
X1837514Y2262686D1*
X1833684Y2264638D1*
X1830205Y2267165D1*
X1827165Y2270205D1*
X1824638Y2273684D1*
X1822686Y2277514D1*
X1821357Y2281604D1*
X1820685Y2285850D1*
Y2290150D1*
X1821357Y2294396D1*
X1822686Y2298486D1*
X1824638Y2302316D1*
X1827165Y2305795D1*
X1830205Y2308835D1*
X1833684Y2311362D1*
X1837514Y2313314D1*
X1841604Y2314643D1*
X1845850Y2315315D1*
X1850150D1*
X1854396Y2314643D1*
X1858486Y2313314D1*
X1862316Y2311362D1*
X1865795Y2308835D1*
X1868835Y2305795D1*
X1871362Y2302316D1*
X1873314Y2298486D1*
X1874643Y2294396D1*
X1875315Y2290150D1*
Y2285850D1*
X2239315Y1855850D2*
X2238643Y1851604D1*
X2237314Y1847514D1*
X2235362Y1843684D1*
X2232835Y1840205D1*
X2229795Y1837165D1*
X2226316Y1834638D1*
X2222486Y1832686D1*
X2218396Y1831357D1*
X2214150Y1830685D1*
X2209850D1*
X2205604Y1831357D1*
X2201514Y1832686D1*
X2197684Y1834638D1*
X2194205Y1837165D1*
X2191165Y1840205D1*
X2188638Y1843684D1*
X2186686Y1847514D1*
X2185357Y1851604D1*
X2184685Y1855850D1*
Y1860150D1*
X2185357Y1864396D1*
X2186686Y1868486D1*
X2188638Y1872316D1*
X2191165Y1875795D1*
X2194205Y1878835D1*
X2197684Y1881362D1*
X2201514Y1883314D1*
X2205604Y1884643D1*
X2209850Y1885315D1*
X2214150D1*
X2218396Y1884643D1*
X2222486Y1883314D1*
X2226316Y1881362D1*
X2229795Y1878835D1*
X2232835Y1875795D1*
X2235362Y1872316D1*
X2237314Y1868486D1*
X2238643Y1864396D1*
X2239315Y1860150D1*
Y1855850D1*
X317315Y1547850D2*
X316643Y1543604D1*
X315314Y1539514D1*
X313362Y1535684D1*
X310835Y1532205D1*
X307795Y1529165D1*
X304316Y1526638D1*
X300486Y1524686D1*
X296396Y1523357D1*
X292150Y1522685D1*
X287850D1*
X283604Y1523357D1*
X279514Y1524686D1*
X275684Y1526638D1*
X272205Y1529165D1*
X269165Y1532205D1*
X266638Y1535684D1*
X264686Y1539514D1*
X263357Y1543604D1*
X262685Y1547850D1*
Y1552150D1*
X263357Y1556396D1*
X264686Y1560486D1*
X266638Y1564316D1*
X269165Y1567795D1*
X272205Y1570835D1*
X275684Y1573362D1*
X279514Y1575314D1*
X283604Y1576643D1*
X287850Y1577315D1*
X292150D1*
X296396Y1576643D1*
X300486Y1575314D1*
X304316Y1573362D1*
X307795Y1570835D1*
X310835Y1567795D1*
X313362Y1564316D1*
X315314Y1560486D1*
X316643Y1556396D1*
X317315Y1552150D1*
Y1547850D1*
X1599315Y47850D2*
X1598643Y43604D1*
X1597314Y39514D1*
X1595362Y35684D1*
X1592835Y32205D1*
X1589795Y29165D1*
X1586316Y26638D1*
X1582486Y24686D1*
X1578396Y23357D1*
X1574150Y22685D1*
X1569850D1*
X1565604Y23357D1*
X1561514Y24686D1*
X1557684Y26638D1*
X1554205Y29165D1*
X1551165Y32205D1*
X1548638Y35684D1*
X1546686Y39514D1*
X1545357Y43604D1*
X1544685Y47850D1*
Y52150D1*
X1545357Y56396D1*
X1546686Y60486D1*
X1548638Y64316D1*
X1551165Y67795D1*
X1554205Y70835D1*
X1557684Y73362D1*
X1561514Y75314D1*
X1565604Y76643D1*
X1569850Y77315D1*
X1574150D1*
X1578396Y76643D1*
X1582486Y75314D1*
X1586316Y73362D1*
X1589795Y70835D1*
X1592835Y67795D1*
X1595362Y64316D1*
X1597314Y60486D1*
X1598643Y56396D1*
X1599315Y52150D1*
Y47850D1*
X533315Y2179850D2*
X532643Y2175604D1*
X531314Y2171514D1*
X529362Y2167684D1*
X526835Y2164205D1*
X523795Y2161165D1*
X520316Y2158638D1*
X516486Y2156686D1*
X512396Y2155357D1*
X508150Y2154685D1*
X503850D1*
X499604Y2155357D1*
X495514Y2156686D1*
X491684Y2158638D1*
X488205Y2161165D1*
X485165Y2164205D1*
X482638Y2167684D1*
X480686Y2171514D1*
X479357Y2175604D1*
X478685Y2179850D1*
Y2184150D1*
X479357Y2188396D1*
X480686Y2192486D1*
X482638Y2196316D1*
X485165Y2199795D1*
X488205Y2202835D1*
X491684Y2205362D1*
X495514Y2207314D1*
X499604Y2208643D1*
X503850Y2209315D1*
X508150D1*
X512396Y2208643D1*
X516486Y2207314D1*
X520316Y2205362D1*
X523795Y2202835D1*
X526835Y2199795D1*
X529362Y2196316D1*
X531314Y2192486D1*
X532643Y2188396D1*
X533315Y2184150D1*
Y2179850D1*
X245315Y1089850D2*
X244643Y1085604D1*
X243314Y1081514D1*
X241362Y1077684D1*
X238835Y1074205D1*
X235795Y1071165D1*
X232316Y1068638D1*
X228486Y1066686D1*
X224396Y1065357D1*
X220150Y1064685D1*
X215850D1*
X211604Y1065357D1*
X207514Y1066686D1*
X203684Y1068638D1*
X200205Y1071165D1*
X197165Y1074205D1*
X194638Y1077684D1*
X192686Y1081514D1*
X191357Y1085604D1*
X190685Y1089850D1*
Y1094150D1*
X191357Y1098396D1*
X192686Y1102486D1*
X194638Y1106316D1*
X197165Y1109795D1*
X200205Y1112835D1*
X203684Y1115362D1*
X207514Y1117314D1*
X211604Y1118643D1*
X215850Y1119315D1*
X220150D1*
X224396Y1118643D1*
X228486Y1117314D1*
X232316Y1115362D1*
X235795Y1112835D1*
X238835Y1109795D1*
X241362Y1106316D1*
X243314Y1102486D1*
X244643Y1098396D1*
X245315Y1094150D1*
Y1089850D1*
X1763315Y249850D2*
X1762643Y245604D1*
X1761314Y241514D1*
X1759362Y237684D1*
X1756835Y234205D1*
X1753795Y231165D1*
X1750316Y228638D1*
X1746486Y226686D1*
X1742396Y225357D1*
X1738150Y224685D1*
X1733850D1*
X1729604Y225357D1*
X1725514Y226686D1*
X1721684Y228638D1*
X1718205Y231165D1*
X1715165Y234205D1*
X1712638Y237684D1*
X1710686Y241514D1*
X1709357Y245604D1*
X1708685Y249850D1*
Y254150D1*
X1709357Y258396D1*
X1710686Y262486D1*
X1712638Y266316D1*
X1715165Y269795D1*
X1718205Y272835D1*
X1721684Y275362D1*
X1725514Y277314D1*
X1729604Y278643D1*
X1733850Y279315D1*
X1738150D1*
X1742396Y278643D1*
X1746486Y277314D1*
X1750316Y275362D1*
X1753795Y272835D1*
X1756835Y269795D1*
X1759362Y266316D1*
X1761314Y262486D1*
X1762643Y258396D1*
X1763315Y254150D1*
Y249850D1*
X1981315Y111850D2*
X1980643Y107604D1*
X1979314Y103514D1*
X1977362Y99684D1*
X1974835Y96205D1*
X1971795Y93165D1*
X1968316Y90638D1*
X1964486Y88686D1*
X1960396Y87357D1*
X1956150Y86685D1*
X1951850D1*
X1947604Y87357D1*
X1943514Y88686D1*
X1939684Y90638D1*
X1936205Y93165D1*
X1933165Y96205D1*
X1930638Y99684D1*
X1928686Y103514D1*
X1927357Y107604D1*
X1926685Y111850D1*
Y116150D1*
X1927357Y120396D1*
X1928686Y124486D1*
X1930638Y128316D1*
X1933165Y131795D1*
X1936205Y134835D1*
X1939684Y137362D1*
X1943514Y139314D1*
X1947604Y140643D1*
X1951850Y141315D1*
X1956150D1*
X1960396Y140643D1*
X1964486Y139314D1*
X1968316Y137362D1*
X1971795Y134835D1*
X1974835Y131795D1*
X1977362Y128316D1*
X1979314Y124486D1*
X1980643Y120396D1*
X1981315Y116150D1*
Y111850D1*
X2361315Y1057850D2*
X2360643Y1053604D1*
X2359314Y1049514D1*
X2357362Y1045684D1*
X2354835Y1042205D1*
X2351795Y1039165D1*
X2348316Y1036638D1*
X2344486Y1034686D1*
X2340396Y1033357D1*
X2336150Y1032685D1*
X2331850D1*
X2327604Y1033357D1*
X2323514Y1034686D1*
X2319684Y1036638D1*
X2316205Y1039165D1*
X2313165Y1042205D1*
X2310638Y1045684D1*
X2308686Y1049514D1*
X2307357Y1053604D1*
X2306685Y1057850D1*
Y1062150D1*
X2307357Y1066396D1*
X2308686Y1070486D1*
X2310638Y1074316D1*
X2313165Y1077795D1*
X2316205Y1080835D1*
X2319684Y1083362D1*
X2323514Y1085314D1*
X2327604Y1086643D1*
X2331850Y1087315D1*
X2336150D1*
X2340396Y1086643D1*
X2344486Y1085314D1*
X2348316Y1083362D1*
X2351795Y1080835D1*
X2354835Y1077795D1*
X2357362Y1074316D1*
X2359314Y1070486D1*
X2360643Y1066396D1*
X2361315Y1062150D1*
Y1057850D1*
X1751220Y467756D2*
X1750549Y463509D1*
X1749219Y459420D1*
X1747268Y455589D1*
X1744740Y452110D1*
X1741701Y449071D1*
X1738222Y446543D1*
X1734391Y444592D1*
X1730302Y443262D1*
X1726055Y442591D1*
X1721756D1*
X1717509Y443262D1*
X1713420Y444592D1*
X1709589Y446543D1*
X1706110Y449071D1*
X1703071Y452110D1*
X1700543Y455589D1*
X1698592Y459420D1*
X1697262Y463509D1*
X1696591Y467756D1*
Y472055D1*
X1697262Y476302D1*
X1698592Y480391D1*
X1700543Y484222D1*
X1703071Y487701D1*
X1706110Y490740D1*
X1709589Y493268D1*
X1713420Y495219D1*
X1717509Y496549D1*
X1721756Y497220D1*
X1726055D1*
X1730302Y496549D1*
X1734391Y495219D1*
X1738222Y493268D1*
X1741701Y490740D1*
X1744740Y487701D1*
X1747268Y484222D1*
X1749219Y480391D1*
X1750549Y476302D1*
X1751220Y472055D1*
Y467756D1*
X1943315Y507850D2*
X1942643Y503604D1*
X1941314Y499514D1*
X1939362Y495684D1*
X1936835Y492205D1*
X1933795Y489165D1*
X1930316Y486638D1*
X1926486Y484686D1*
X1922396Y483357D1*
X1918150Y482685D1*
X1913850D1*
X1909604Y483357D1*
X1905514Y484686D1*
X1901684Y486638D1*
X1898205Y489165D1*
X1895165Y492205D1*
X1892638Y495684D1*
X1890686Y499514D1*
X1889357Y503604D1*
X1888685Y507850D1*
Y512150D1*
X1889357Y516396D1*
X1890686Y520486D1*
X1892638Y524316D1*
X1895165Y527795D1*
X1898205Y530835D1*
X1901684Y533362D1*
X1905514Y535314D1*
X1909604Y536643D1*
X1913850Y537315D1*
X1918150D1*
X1922396Y536643D1*
X1926486Y535314D1*
X1930316Y533362D1*
X1933795Y530835D1*
X1936835Y527795D1*
X1939362Y524316D1*
X1941314Y520486D1*
X1942643Y516396D1*
X1943315Y512150D1*
Y507850D1*
X1942643Y503604D1*
X1941314Y499514D1*
X1939362Y495684D1*
X1936835Y492205D1*
X1933795Y489165D1*
X1930316Y486638D1*
X1926486Y484686D1*
X1922396Y483357D1*
X1918150Y482685D1*
X1913850D1*
X1909604Y483357D1*
X1905514Y484686D1*
X1901684Y486638D1*
X1898205Y489165D1*
X1895165Y492205D1*
X1892638Y495684D1*
X1890686Y499514D1*
X1889357Y503604D1*
X1888685Y507850D1*
Y512150D1*
X1889357Y516396D1*
X1890686Y520486D1*
X1892638Y524316D1*
X1895165Y527795D1*
X1898205Y530835D1*
X1901684Y533362D1*
X1905514Y535314D1*
X1909604Y536643D1*
X1913850Y537315D1*
X1918150D1*
X1922396Y536643D1*
X1926486Y535314D1*
X1930316Y533362D1*
X1933795Y530835D1*
X1936835Y527795D1*
X1939362Y524316D1*
X1941314Y520486D1*
X1942643Y516396D1*
X1943315Y512150D1*
Y507850D1*
X1457315Y343850D2*
X1456643Y339604D1*
X1455314Y335514D1*
X1453362Y331684D1*
X1450835Y328205D1*
X1447795Y325165D1*
X1444316Y322638D1*
X1440486Y320686D1*
X1436396Y319357D1*
X1432150Y318685D1*
X1427850D1*
X1423604Y319357D1*
X1419514Y320686D1*
X1415684Y322638D1*
X1412205Y325165D1*
X1409165Y328205D1*
X1406638Y331684D1*
X1404686Y335514D1*
X1403357Y339604D1*
X1402685Y343850D1*
Y348150D1*
X1403357Y352396D1*
X1404686Y356486D1*
X1406638Y360316D1*
X1409165Y363795D1*
X1412205Y366835D1*
X1415684Y369362D1*
X1419514Y371314D1*
X1423604Y372643D1*
X1427850Y373315D1*
X1432150D1*
X1436396Y372643D1*
X1440486Y371314D1*
X1444316Y369362D1*
X1447795Y366835D1*
X1450835Y363795D1*
X1453362Y360316D1*
X1455314Y356486D1*
X1456643Y352396D1*
X1457315Y348150D1*
Y343850D1*
X1317315Y1149850D2*
X1316643Y1145604D1*
X1315314Y1141514D1*
X1313362Y1137684D1*
X1310835Y1134205D1*
X1307795Y1131165D1*
X1304316Y1128638D1*
X1300486Y1126686D1*
X1296396Y1125357D1*
X1292150Y1124685D1*
X1287850D1*
X1283604Y1125357D1*
X1279514Y1126686D1*
X1275684Y1128638D1*
X1272205Y1131165D1*
X1269165Y1134205D1*
X1266638Y1137684D1*
X1264686Y1141514D1*
X1263357Y1145604D1*
X1262685Y1149850D1*
Y1154150D1*
X1263357Y1158396D1*
X1264686Y1162486D1*
X1266638Y1166316D1*
X1269165Y1169795D1*
X1272205Y1172835D1*
X1275684Y1175362D1*
X1279514Y1177314D1*
X1283604Y1178643D1*
X1287850Y1179315D1*
X1292150D1*
X1296396Y1178643D1*
X1300486Y1177314D1*
X1304316Y1175362D1*
X1307795Y1172835D1*
X1310835Y1169795D1*
X1313362Y1166316D1*
X1315314Y1162486D1*
X1316643Y1158396D1*
X1317315Y1154150D1*
Y1149850D1*
X1481315Y449850D2*
X1480643Y445604D1*
X1479314Y441514D1*
X1477362Y437684D1*
X1474835Y434205D1*
X1471795Y431165D1*
X1468316Y428638D1*
X1464486Y426686D1*
X1460396Y425357D1*
X1456150Y424685D1*
X1451850D1*
X1447604Y425357D1*
X1443514Y426686D1*
X1439684Y428638D1*
X1436205Y431165D1*
X1433165Y434205D1*
X1430638Y437684D1*
X1428686Y441514D1*
X1427357Y445604D1*
X1426685Y449850D1*
Y454150D1*
X1427357Y458396D1*
X1428686Y462486D1*
X1430638Y466316D1*
X1433165Y469795D1*
X1436205Y472835D1*
X1439684Y475362D1*
X1443514Y477314D1*
X1447604Y478643D1*
X1451850Y479315D1*
X1456150D1*
X1460396Y478643D1*
X1464486Y477314D1*
X1468316Y475362D1*
X1471795Y472835D1*
X1474835Y469795D1*
X1477362Y466316D1*
X1479314Y462486D1*
X1480643Y458396D1*
X1481315Y454150D1*
Y449850D1*
X1659315Y921850D2*
X1658643Y917604D1*
X1657314Y913514D1*
X1655362Y909684D1*
X1652835Y906205D1*
X1649795Y903165D1*
X1646316Y900638D1*
X1642486Y898686D1*
X1638396Y897357D1*
X1634150Y896685D1*
X1629850D1*
X1625604Y897357D1*
X1621514Y898686D1*
X1617684Y900638D1*
X1614205Y903165D1*
X1611165Y906205D1*
X1608638Y909684D1*
X1606686Y913514D1*
X1605357Y917604D1*
X1604685Y921850D1*
Y926150D1*
X1605357Y930396D1*
X1606686Y934486D1*
X1608638Y938316D1*
X1611165Y941795D1*
X1614205Y944835D1*
X1617684Y947362D1*
X1621514Y949314D1*
X1625604Y950643D1*
X1629850Y951315D1*
X1634150D1*
X1638396Y950643D1*
X1642486Y949314D1*
X1646316Y947362D1*
X1649795Y944835D1*
X1652835Y941795D1*
X1655362Y938316D1*
X1657314Y934486D1*
X1658643Y930396D1*
X1659315Y926150D1*
Y921850D1*
X1383315Y697850D2*
X1382643Y693604D1*
X1381314Y689514D1*
X1379362Y685684D1*
X1376835Y682205D1*
X1373795Y679165D1*
X1370316Y676638D1*
X1366486Y674686D1*
X1362396Y673357D1*
X1358150Y672685D1*
X1356008Y672600D1*
X1357063Y668286D1*
X1357400Y664000D1*
X1357063Y659714D1*
X1356059Y655533D1*
X1354413Y651560D1*
X1352167Y647895D1*
X1349375Y644625D1*
X1346105Y641833D1*
X1342440Y639587D1*
X1338467Y637941D1*
X1334286Y636937D1*
X1330000Y636600D1*
X1325714Y636937D1*
X1321533Y637941D1*
X1317560Y639587D1*
X1313895Y641833D1*
X1310625Y644625D1*
X1307833Y647895D1*
X1305587Y651560D1*
X1303941Y655533D1*
X1302937Y659714D1*
X1302600Y664000D1*
X1302937Y668286D1*
X1303941Y672467D1*
X1305587Y676440D1*
X1307833Y680105D1*
X1310625Y683375D1*
X1313895Y686167D1*
X1317560Y688413D1*
X1321533Y690059D1*
X1325714Y691063D1*
X1329992Y691400D1*
X1328937Y695714D1*
X1328600Y700000D1*
X1328937Y704286D1*
X1329941Y708467D1*
X1331587Y712440D1*
X1333833Y716105D1*
X1336625Y719375D1*
X1339895Y722167D1*
X1343560Y724413D1*
X1347533Y726059D1*
X1351714Y727063D1*
X1356000Y727400D1*
X1360286Y727063D1*
X1364467Y726059D1*
X1368440Y724413D1*
X1372105Y722167D1*
X1375375Y719375D1*
X1378167Y716105D1*
X1380413Y712440D1*
X1382059Y708467D1*
X1383063Y704286D1*
X1383400Y700000D1*
X1383315Y697850D1*
X1393315Y2123850D2*
X1392643Y2119604D1*
X1391314Y2115514D1*
X1389362Y2111684D1*
X1386835Y2108205D1*
X1383795Y2105165D1*
X1380316Y2102638D1*
X1376486Y2100686D1*
X1372396Y2099357D1*
X1368150Y2098685D1*
X1363850D1*
X1359604Y2099357D1*
X1355514Y2100686D1*
X1351684Y2102638D1*
X1348205Y2105165D1*
X1345165Y2108205D1*
X1342638Y2111684D1*
X1340686Y2115514D1*
X1339357Y2119604D1*
X1338685Y2123850D1*
Y2128150D1*
X1339357Y2132396D1*
X1340686Y2136486D1*
X1342638Y2140316D1*
X1345165Y2143795D1*
X1348205Y2146835D1*
X1351684Y2149362D1*
X1355514Y2151314D1*
X1359604Y2152643D1*
X1363850Y2153315D1*
X1368150D1*
X1372396Y2152643D1*
X1376486Y2151314D1*
X1380316Y2149362D1*
X1383795Y2146835D1*
X1386835Y2143795D1*
X1389362Y2140316D1*
X1391314Y2136486D1*
X1392643Y2132396D1*
X1393315Y2128150D1*
Y2123850D1*
X2099315Y491850D2*
X2098643Y487604D1*
X2097314Y483514D1*
X2095362Y479684D1*
X2092835Y476205D1*
X2089795Y473165D1*
X2086316Y470638D1*
X2082486Y468686D1*
X2078396Y467357D1*
X2074150Y466685D1*
X2069850D1*
X2065604Y467357D1*
X2061514Y468686D1*
X2057684Y470638D1*
X2054205Y473165D1*
X2051165Y476205D1*
X2048638Y479684D1*
X2046686Y483514D1*
X2045357Y487604D1*
X2044685Y491850D1*
Y496150D1*
X2045357Y500396D1*
X2046686Y504486D1*
X2048638Y508316D1*
X2051165Y511795D1*
X2054205Y514835D1*
X2057684Y517362D1*
X2061514Y519314D1*
X2065604Y520643D1*
X2069850Y521315D1*
X2074150D1*
X2078396Y520643D1*
X2082486Y519314D1*
X2086316Y517362D1*
X2089795Y514835D1*
X2092835Y511795D1*
X2095362Y508316D1*
X2097314Y504486D1*
X2098643Y500396D1*
X2099315Y496150D1*
Y491850D1*
X2063315Y1963850D2*
X2062643Y1959604D1*
X2061314Y1955514D1*
X2059362Y1951684D1*
X2056835Y1948205D1*
X2053795Y1945165D1*
X2050316Y1942638D1*
X2046486Y1940686D1*
X2042396Y1939357D1*
X2038150Y1938685D1*
X2033850D1*
X2029604Y1939357D1*
X2025514Y1940686D1*
X2021684Y1942638D1*
X2018205Y1945165D1*
X2015165Y1948205D1*
X2012638Y1951684D1*
X2010686Y1955514D1*
X2009357Y1959604D1*
X2008685Y1963850D1*
Y1968150D1*
X2009357Y1972396D1*
X2010686Y1976486D1*
X2012638Y1980316D1*
X2015165Y1983795D1*
X2018205Y1986835D1*
X2021684Y1989362D1*
X2025514Y1991314D1*
X2029604Y1992643D1*
X2033850Y1993315D1*
X2038150D1*
X2042396Y1992643D1*
X2046486Y1991314D1*
X2050316Y1989362D1*
X2053795Y1986835D1*
X2056835Y1983795D1*
X2059362Y1980316D1*
X2061314Y1976486D1*
X2062643Y1972396D1*
X2063315Y1968150D1*
Y1963850D1*
X1587315Y673850D2*
X1586643Y669604D1*
X1585314Y665514D1*
X1583362Y661684D1*
X1580835Y658205D1*
X1577795Y655165D1*
X1574316Y652638D1*
X1570486Y650686D1*
X1566396Y649357D1*
X1562150Y648685D1*
X1557850D1*
X1553604Y649357D1*
X1549514Y650686D1*
X1545684Y652638D1*
X1542205Y655165D1*
X1539165Y658205D1*
X1536638Y661684D1*
X1534686Y665514D1*
X1533357Y669604D1*
X1532685Y673850D1*
X1532650Y674732D1*
X1530000Y674600D1*
X1525714Y674937D1*
X1521533Y675941D1*
X1517560Y677587D1*
X1513895Y679833D1*
X1510625Y682625D1*
X1507833Y685895D1*
X1505587Y689560D1*
X1503941Y693533D1*
X1502937Y697714D1*
X1502654Y700631D1*
X1499714Y700937D1*
X1495533Y701941D1*
X1491560Y703587D1*
X1487895Y705833D1*
X1484625Y708625D1*
X1481833Y711895D1*
X1479587Y715560D1*
X1477941Y719533D1*
X1476937Y723714D1*
X1476829Y724623D1*
X1473714Y724937D1*
X1469533Y725941D1*
X1465560Y727587D1*
X1461895Y729833D1*
X1458625Y732625D1*
X1455833Y735895D1*
X1453587Y739560D1*
X1451941Y743533D1*
X1450937Y747714D1*
X1450600Y752000D1*
X1450937Y756286D1*
X1451941Y760467D1*
X1453587Y764440D1*
X1455833Y768105D1*
X1458625Y771375D1*
X1461895Y774167D1*
X1465560Y776413D1*
X1469533Y778059D1*
X1473714Y779063D1*
X1478000Y779400D1*
X1482286Y779063D1*
X1486467Y778059D1*
X1490440Y776413D1*
X1494105Y774167D1*
X1497375Y771375D1*
X1500167Y768105D1*
X1502413Y764440D1*
X1504059Y760467D1*
X1505063Y756286D1*
X1505171Y755377D1*
X1508286Y755063D1*
X1512467Y754059D1*
X1516440Y752413D1*
X1520105Y750167D1*
X1523375Y747375D1*
X1526167Y744105D1*
X1528413Y740440D1*
X1530059Y736467D1*
X1531063Y732286D1*
X1531346Y729369D1*
X1534286Y729063D1*
X1538467Y728059D1*
X1542440Y726413D1*
X1546105Y724167D1*
X1549375Y721375D1*
X1552167Y718105D1*
X1554413Y714440D1*
X1556059Y710467D1*
X1557063Y706286D1*
X1557350Y703268D1*
X1560000Y703400D1*
X1564286Y703063D1*
X1568467Y702059D1*
X1572440Y700413D1*
X1576105Y698167D1*
X1579375Y695375D1*
X1582167Y692105D1*
X1584413Y688440D1*
X1586059Y684467D1*
X1587063Y680286D1*
X1587400Y676000D1*
X1587315Y673850D1*
X1975315Y565850D2*
X1974643Y561604D1*
X1973314Y557514D1*
X1971362Y553684D1*
X1968835Y550205D1*
X1965795Y547165D1*
X1962316Y544638D1*
X1958486Y542686D1*
X1954396Y541357D1*
X1950150Y540685D1*
X1945850D1*
X1941604Y541357D1*
X1937514Y542686D1*
X1933684Y544638D1*
X1930205Y547165D1*
X1927165Y550205D1*
X1924638Y553684D1*
X1922686Y557514D1*
X1921357Y561604D1*
X1920685Y565850D1*
Y570150D1*
X1921357Y574396D1*
X1922686Y578486D1*
X1924638Y582316D1*
X1927165Y585795D1*
X1930205Y588835D1*
X1933684Y591362D1*
X1937514Y593314D1*
X1941604Y594643D1*
X1945850Y595315D1*
X1950150D1*
X1954396Y594643D1*
X1958486Y593314D1*
X1962316Y591362D1*
X1965795Y588835D1*
X1968835Y585795D1*
X1971362Y582316D1*
X1973314Y578486D1*
X1974643Y574396D1*
X1975315Y570150D1*
Y565850D1*
X1441315Y2191533D2*
X1440643Y2187286D1*
X1439314Y2183197D1*
X1437362Y2179366D1*
X1434835Y2175887D1*
X1431795Y2172848D1*
X1428316Y2170320D1*
X1424486Y2168369D1*
X1420396Y2167039D1*
X1416150Y2166367D1*
X1411850D1*
X1407604Y2167039D1*
X1403514Y2168369D1*
X1399684Y2170320D1*
X1396205Y2172848D1*
X1393165Y2175887D1*
X1390638Y2179366D1*
X1388686Y2183197D1*
X1387357Y2187286D1*
X1386685Y2191533D1*
Y2195832D1*
X1387357Y2200079D1*
X1388686Y2204168D1*
X1390638Y2207999D1*
X1393165Y2211478D1*
X1396205Y2214517D1*
X1399684Y2217045D1*
X1403514Y2218996D1*
X1407604Y2220325D1*
X1411850Y2220997D1*
X1416150D1*
X1420396Y2220325D1*
X1424486Y2218996D1*
X1428316Y2217045D1*
X1431795Y2214517D1*
X1434835Y2211478D1*
X1437362Y2207999D1*
X1439314Y2204168D1*
X1440643Y2200079D1*
X1441315Y2195832D1*
Y2191533D1*
X1741315Y1785850D2*
X1740643Y1781604D1*
X1739314Y1777514D1*
X1737362Y1773684D1*
X1734835Y1770205D1*
X1731795Y1767165D1*
X1728316Y1764638D1*
X1724486Y1762686D1*
X1720396Y1761357D1*
X1716150Y1760685D1*
X1711850D1*
X1707604Y1761357D1*
X1703514Y1762686D1*
X1699684Y1764638D1*
X1696205Y1767165D1*
X1693165Y1770205D1*
X1690638Y1773684D1*
X1688686Y1777514D1*
X1687357Y1781604D1*
X1686685Y1785850D1*
Y1790150D1*
X1687357Y1794396D1*
X1688686Y1798486D1*
X1690638Y1802316D1*
X1693165Y1805795D1*
X1696205Y1808835D1*
X1699684Y1811362D1*
X1703514Y1813314D1*
X1707604Y1814643D1*
X1711850Y1815315D1*
X1716150D1*
X1720396Y1814643D1*
X1724486Y1813314D1*
X1728316Y1811362D1*
X1731795Y1808835D1*
X1734835Y1805795D1*
X1737362Y1802316D1*
X1739314Y1798486D1*
X1740643Y1794396D1*
X1741315Y1790150D1*
Y1785850D1*
X823315Y2127850D2*
X822643Y2123604D1*
X821314Y2119514D1*
X819362Y2115684D1*
X816835Y2112205D1*
X813795Y2109165D1*
X810316Y2106638D1*
X806486Y2104686D1*
X802396Y2103357D1*
X798150Y2102685D1*
X793850D1*
X789604Y2103357D1*
X785514Y2104686D1*
X781684Y2106638D1*
X778205Y2109165D1*
X775165Y2112205D1*
X772638Y2115684D1*
X770686Y2119514D1*
X769357Y2123604D1*
X768685Y2127850D1*
Y2132150D1*
X769357Y2136396D1*
X770686Y2140486D1*
X772638Y2144316D1*
X775165Y2147795D1*
X778205Y2150835D1*
X781684Y2153362D1*
X785514Y2155314D1*
X789604Y2156643D1*
X793850Y2157315D1*
X798150D1*
X802396Y2156643D1*
X806486Y2155314D1*
X810316Y2153362D1*
X813795Y2150835D1*
X816835Y2147795D1*
X819362Y2144316D1*
X821314Y2140486D1*
X822643Y2136396D1*
X823315Y2132150D1*
Y2127850D1*
X1441315Y2191533D2*
X1440643Y2187286D1*
X1439314Y2183197D1*
X1437362Y2179366D1*
X1434835Y2175887D1*
X1431795Y2172848D1*
X1428316Y2170320D1*
X1424486Y2168369D1*
X1420396Y2167039D1*
X1416150Y2166367D1*
X1411850D1*
X1407604Y2167039D1*
X1403514Y2168369D1*
X1399684Y2170320D1*
X1396205Y2172848D1*
X1393165Y2175887D1*
X1390638Y2179366D1*
X1388686Y2183197D1*
X1387357Y2187286D1*
X1386685Y2191533D1*
Y2195832D1*
X1387357Y2200079D1*
X1388686Y2204168D1*
X1390638Y2207999D1*
X1393165Y2211478D1*
X1396205Y2214517D1*
X1399684Y2217045D1*
X1403514Y2218996D1*
X1407604Y2220325D1*
X1411850Y2220997D1*
X1416150D1*
X1420396Y2220325D1*
X1424486Y2218996D1*
X1428316Y2217045D1*
X1431795Y2214517D1*
X1434835Y2211478D1*
X1437362Y2207999D1*
X1439314Y2204168D1*
X1440643Y2200079D1*
X1441315Y2195832D1*
Y2191533D1*
Y1803850D2*
X1440643Y1799604D1*
X1439314Y1795514D1*
X1437362Y1791684D1*
X1434835Y1788205D1*
X1431795Y1785165D1*
X1428316Y1782638D1*
X1424486Y1780686D1*
X1420396Y1779357D1*
X1416150Y1778685D1*
X1411850D1*
X1407604Y1779357D1*
X1403514Y1780686D1*
X1399684Y1782638D1*
X1396205Y1785165D1*
X1393165Y1788205D1*
X1390638Y1791684D1*
X1388686Y1795514D1*
X1387357Y1799604D1*
X1386685Y1803850D1*
Y1808150D1*
X1387357Y1812396D1*
X1388686Y1816486D1*
X1390638Y1820316D1*
X1393165Y1823795D1*
X1396205Y1826835D1*
X1399684Y1829362D1*
X1403514Y1831314D1*
X1407604Y1832643D1*
X1411850Y1833315D1*
X1416150D1*
X1420396Y1832643D1*
X1424486Y1831314D1*
X1428316Y1829362D1*
X1431795Y1826835D1*
X1434835Y1823795D1*
X1437362Y1820316D1*
X1439314Y1816486D1*
X1440643Y1812396D1*
X1441315Y1808150D1*
Y1803850D1*
X1973315Y749850D2*
X1972643Y745604D1*
X1971314Y741514D1*
X1969362Y737684D1*
X1966835Y734205D1*
X1963795Y731165D1*
X1960316Y728638D1*
X1956486Y726686D1*
X1952396Y725357D1*
X1948150Y724685D1*
X1943850D1*
X1939604Y725357D1*
X1935514Y726686D1*
X1931684Y728638D1*
X1928205Y731165D1*
X1925165Y734205D1*
X1922638Y737684D1*
X1920686Y741514D1*
X1919357Y745604D1*
X1918685Y749850D1*
Y754150D1*
X1919357Y758396D1*
X1920686Y762486D1*
X1922638Y766316D1*
X1925165Y769795D1*
X1928205Y772835D1*
X1931684Y775362D1*
X1935514Y777314D1*
X1939604Y778643D1*
X1943850Y779315D1*
X1948150D1*
X1952396Y778643D1*
X1956486Y777314D1*
X1960316Y775362D1*
X1963795Y772835D1*
X1966835Y769795D1*
X1969362Y766316D1*
X1971314Y762486D1*
X1972643Y758396D1*
X1973315Y754150D1*
Y749850D1*
X1287315Y1517850D2*
X1286643Y1513604D1*
X1285314Y1509514D1*
X1283362Y1505684D1*
X1280835Y1502205D1*
X1277795Y1499165D1*
X1274316Y1496638D1*
X1270486Y1494686D1*
X1266396Y1493357D1*
X1262150Y1492685D1*
X1257850D1*
X1253604Y1493357D1*
X1249514Y1494686D1*
X1245684Y1496638D1*
X1242205Y1499165D1*
X1239165Y1502205D1*
X1236638Y1505684D1*
X1234686Y1509514D1*
X1233357Y1513604D1*
X1232685Y1517850D1*
Y1522150D1*
X1233357Y1526396D1*
X1234686Y1530486D1*
X1236638Y1534316D1*
X1239165Y1537795D1*
X1242205Y1540835D1*
X1245684Y1543362D1*
X1249514Y1545314D1*
X1253604Y1546643D1*
X1257850Y1547315D1*
X1262150D1*
X1266396Y1546643D1*
X1270486Y1545314D1*
X1274316Y1543362D1*
X1277795Y1540835D1*
X1280835Y1537795D1*
X1283362Y1534316D1*
X1285314Y1530486D1*
X1286643Y1526396D1*
X1287315Y1522150D1*
Y1517850D1*
X1478307D2*
X1477635Y1513604D1*
X1476306Y1509514D1*
X1474354Y1505684D1*
X1471827Y1502205D1*
X1468787Y1499165D1*
X1465308Y1496638D1*
X1461478Y1494686D1*
X1457388Y1493357D1*
X1453142Y1492685D1*
X1448843D1*
X1444596Y1493357D1*
X1440507Y1494686D1*
X1436676Y1496638D1*
X1433197Y1499165D1*
X1430157Y1502205D1*
X1427630Y1505684D1*
X1425678Y1509514D1*
X1424349Y1513604D1*
X1423677Y1517850D1*
Y1522150D1*
X1424349Y1526396D1*
X1425678Y1530486D1*
X1427630Y1534316D1*
X1430157Y1537795D1*
X1433197Y1540835D1*
X1436676Y1543362D1*
X1440507Y1545314D1*
X1444596Y1546643D1*
X1448843Y1547315D1*
X1453142D1*
X1457388Y1546643D1*
X1461478Y1545314D1*
X1465308Y1543362D1*
X1468787Y1540835D1*
X1471827Y1537795D1*
X1474354Y1534316D1*
X1476306Y1530486D1*
X1477635Y1526396D1*
X1478307Y1522150D1*
Y1517850D1*
X1562323D2*
X1561651Y1513604D1*
X1560322Y1509514D1*
X1558370Y1505684D1*
X1555843Y1502205D1*
X1552803Y1499165D1*
X1549324Y1496638D1*
X1545493Y1494686D1*
X1541404Y1493357D1*
X1537157Y1492685D1*
X1532858D1*
X1528612Y1493357D1*
X1524522Y1494686D1*
X1520692Y1496638D1*
X1517213Y1499165D1*
X1514173Y1502205D1*
X1511646Y1505684D1*
X1509694Y1509514D1*
X1508365Y1513604D1*
X1507693Y1517850D1*
Y1522150D1*
X1508365Y1526396D1*
X1509694Y1530486D1*
X1511646Y1534316D1*
X1514173Y1537795D1*
X1517213Y1540835D1*
X1520692Y1543362D1*
X1524522Y1545314D1*
X1528612Y1546643D1*
X1532858Y1547315D1*
X1537157D1*
X1541404Y1546643D1*
X1545493Y1545314D1*
X1549324Y1543362D1*
X1552803Y1540835D1*
X1555843Y1537795D1*
X1558370Y1534316D1*
X1560322Y1530486D1*
X1561651Y1526396D1*
X1562323Y1522150D1*
Y1517850D1*
X1751315D2*
X1750643Y1513604D1*
X1749314Y1509514D1*
X1747362Y1505684D1*
X1744835Y1502205D1*
X1741795Y1499165D1*
X1738316Y1496638D1*
X1734486Y1494686D1*
X1730396Y1493357D1*
X1726150Y1492685D1*
X1721850D1*
X1717604Y1493357D1*
X1713514Y1494686D1*
X1709684Y1496638D1*
X1706205Y1499165D1*
X1703165Y1502205D1*
X1700638Y1505684D1*
X1698686Y1509514D1*
X1697357Y1513604D1*
X1696685Y1517850D1*
Y1522150D1*
X1697357Y1526396D1*
X1698686Y1530486D1*
X1700638Y1534316D1*
X1703165Y1537795D1*
X1706205Y1540835D1*
X1709684Y1543362D1*
X1713514Y1545314D1*
X1717604Y1546643D1*
X1721850Y1547315D1*
X1726150D1*
X1730396Y1546643D1*
X1734486Y1545314D1*
X1738316Y1543362D1*
X1741795Y1540835D1*
X1744835Y1537795D1*
X1747362Y1534316D1*
X1749314Y1530486D1*
X1750643Y1526396D1*
X1751315Y1522150D1*
Y1517850D1*
X1539315Y303850D2*
X1538643Y299604D1*
X1537314Y295514D1*
X1535362Y291684D1*
X1532835Y288205D1*
X1529795Y285165D1*
X1526316Y282638D1*
X1522486Y280686D1*
X1518396Y279357D1*
X1514150Y278685D1*
X1509850D1*
X1505604Y279357D1*
X1501514Y280686D1*
X1499129Y281828D1*
X1499400Y278000D1*
X1499063Y273714D1*
X1498059Y269533D1*
X1496413Y265560D1*
X1494167Y261895D1*
X1491375Y258625D1*
X1488105Y255833D1*
X1484440Y253587D1*
X1480467Y251941D1*
X1476286Y250937D1*
X1472000Y250600D1*
X1467714Y250937D1*
X1463533Y251941D1*
X1459560Y253587D1*
X1455895Y255833D1*
X1452625Y258625D1*
X1449833Y261895D1*
X1447587Y265560D1*
X1445941Y269533D1*
X1444937Y273714D1*
X1444600Y278000D1*
X1444937Y282286D1*
X1445941Y286467D1*
X1447587Y290440D1*
X1449833Y294105D1*
X1452625Y297375D1*
X1455895Y300167D1*
X1459560Y302413D1*
X1463533Y304059D1*
X1467714Y305063D1*
X1472000Y305400D1*
X1476286Y305063D1*
X1480467Y304059D1*
X1484440Y302413D1*
X1484871Y302172D1*
X1484600Y306000D1*
X1484937Y310286D1*
X1485941Y314467D1*
X1487587Y318440D1*
X1489833Y322105D1*
X1492625Y325375D1*
X1495895Y328167D1*
X1499560Y330413D1*
X1503533Y332059D1*
X1507714Y333063D1*
X1512000Y333400D1*
X1516286Y333063D1*
X1520467Y332059D1*
X1524440Y330413D1*
X1528105Y328167D1*
X1531375Y325375D1*
X1534167Y322105D1*
X1536413Y318440D1*
X1538059Y314467D1*
X1539063Y310286D1*
X1539400Y306000D1*
X1539315Y303850D1*
X2131315Y1443850D2*
X2130643Y1439604D1*
X2129314Y1435514D1*
X2127362Y1431684D1*
X2124835Y1428205D1*
X2121795Y1425165D1*
X2118316Y1422638D1*
X2114486Y1420686D1*
X2110396Y1419357D1*
X2106150Y1418685D1*
X2101850D1*
X2097604Y1419357D1*
X2093514Y1420686D1*
X2089684Y1422638D1*
X2086205Y1425165D1*
X2083165Y1428205D1*
X2080638Y1431684D1*
X2078686Y1435514D1*
X2077357Y1439604D1*
X2076685Y1443850D1*
Y1448150D1*
X2077357Y1452396D1*
X2078686Y1456486D1*
X2080638Y1460316D1*
X2083165Y1463795D1*
X2086205Y1466835D1*
X2089684Y1469362D1*
X2093514Y1471314D1*
X2097604Y1472643D1*
X2101850Y1473315D1*
X2106150D1*
X2110396Y1472643D1*
X2114486Y1471314D1*
X2118316Y1469362D1*
X2121795Y1466835D1*
X2124835Y1463795D1*
X2127362Y1460316D1*
X2129314Y1456486D1*
X2130643Y1452396D1*
X2131315Y1448150D1*
Y1443850D1*
X1975315Y627850D2*
X1974643Y623604D1*
X1973314Y619514D1*
X1971362Y615684D1*
X1968835Y612205D1*
X1965795Y609165D1*
X1962316Y606638D1*
X1958486Y604686D1*
X1954396Y603357D1*
X1950150Y602685D1*
X1945850D1*
X1941604Y603357D1*
X1937514Y604686D1*
X1933684Y606638D1*
X1930205Y609165D1*
X1927165Y612205D1*
X1924638Y615684D1*
X1922686Y619514D1*
X1921357Y623604D1*
X1920685Y627850D1*
Y632150D1*
X1921357Y636396D1*
X1922686Y640486D1*
X1924638Y644316D1*
X1927165Y647795D1*
X1930205Y650835D1*
X1933684Y653362D1*
X1937514Y655314D1*
X1941604Y656643D1*
X1945850Y657315D1*
X1950150D1*
X1954396Y656643D1*
X1958486Y655314D1*
X1962316Y653362D1*
X1965795Y650835D1*
X1968835Y647795D1*
X1971362Y644316D1*
X1973314Y640486D1*
X1974643Y636396D1*
X1975315Y632150D1*
Y627850D1*
X2101315Y1131858D2*
X2100643Y1127612D1*
X2099314Y1123522D1*
X2097362Y1119692D1*
X2094835Y1116213D1*
X2091795Y1113173D1*
X2088316Y1110646D1*
X2084486Y1108694D1*
X2080396Y1107365D1*
X2076150Y1106693D1*
X2071850D1*
X2067604Y1107365D1*
X2063514Y1108694D1*
X2059684Y1110646D1*
X2056205Y1113173D1*
X2053165Y1116213D1*
X2050638Y1119692D1*
X2048686Y1123522D1*
X2047357Y1127612D1*
X2046685Y1131858D1*
Y1136157D1*
X2047357Y1140404D1*
X2048686Y1144493D1*
X2050638Y1148324D1*
X2053165Y1151803D1*
X2056205Y1154843D1*
X2059684Y1157370D1*
X2063514Y1159322D1*
X2067604Y1160651D1*
X2071850Y1161323D1*
X2076150D1*
X2080396Y1160651D1*
X2084486Y1159322D1*
X2088316Y1157370D1*
X2091795Y1154843D1*
X2094835Y1151803D1*
X2097362Y1148324D1*
X2099314Y1144493D1*
X2100643Y1140404D1*
X2101315Y1136157D1*
Y1131858D1*
X1449315Y507850D2*
X1448643Y503604D1*
X1447314Y499514D1*
X1445362Y495684D1*
X1442835Y492205D1*
X1439795Y489165D1*
X1436316Y486638D1*
X1432486Y484686D1*
X1428396Y483357D1*
X1424150Y482685D1*
X1419850D1*
X1415604Y483357D1*
X1411514Y484686D1*
X1407684Y486638D1*
X1404205Y489165D1*
X1401165Y492205D1*
X1398638Y495684D1*
X1396686Y499514D1*
X1395357Y503604D1*
X1394685Y507850D1*
Y512150D1*
X1395357Y516396D1*
X1396686Y520486D1*
X1398638Y524316D1*
X1401165Y527795D1*
X1404205Y530835D1*
X1407684Y533362D1*
X1411514Y535314D1*
X1415604Y536643D1*
X1419850Y537315D1*
X1424150D1*
X1428396Y536643D1*
X1432486Y535314D1*
X1436316Y533362D1*
X1439795Y530835D1*
X1442835Y527795D1*
X1445362Y524316D1*
X1447314Y520486D1*
X1448643Y516396D1*
X1449315Y512150D1*
Y507850D1*
X1975315Y689850D2*
X1974643Y685604D1*
X1973314Y681514D1*
X1971362Y677684D1*
X1968835Y674205D1*
X1965795Y671165D1*
X1962316Y668638D1*
X1958486Y666686D1*
X1954396Y665357D1*
X1950150Y664685D1*
X1945850D1*
X1941604Y665357D1*
X1937514Y666686D1*
X1933684Y668638D1*
X1930205Y671165D1*
X1927165Y674205D1*
X1924638Y677684D1*
X1922686Y681514D1*
X1921357Y685604D1*
X1920685Y689850D1*
Y694150D1*
X1921357Y698396D1*
X1922686Y702486D1*
X1924638Y706316D1*
X1927165Y709795D1*
X1930205Y712835D1*
X1933684Y715362D1*
X1937514Y717314D1*
X1941604Y718643D1*
X1945850Y719315D1*
X1950150D1*
X1954396Y718643D1*
X1958486Y717314D1*
X1962316Y715362D1*
X1965795Y712835D1*
X1968835Y709795D1*
X1971362Y706316D1*
X1973314Y702486D1*
X1974643Y698396D1*
X1975315Y694150D1*
Y689850D1*
X1611315Y329961D2*
X1610643Y325714D1*
X1609314Y321625D1*
X1607362Y317794D1*
X1604835Y314315D1*
X1601795Y311276D1*
X1598316Y308748D1*
X1594486Y306797D1*
X1590396Y305467D1*
X1586150Y304795D1*
X1581850D1*
X1577604Y305467D1*
X1573514Y306797D1*
X1569684Y308748D1*
X1566205Y311276D1*
X1563165Y314315D1*
X1560638Y317794D1*
X1558686Y321625D1*
X1557357Y325714D1*
X1556685Y329961D1*
Y334260D1*
X1557357Y338507D1*
X1558686Y342596D1*
X1560638Y346427D1*
X1563165Y349906D1*
X1566205Y352945D1*
X1569684Y355472D1*
X1573514Y357424D1*
X1577604Y358753D1*
X1581850Y359425D1*
X1586150D1*
X1590396Y358753D1*
X1594486Y357424D1*
X1598316Y355472D1*
X1601795Y352945D1*
X1604835Y349906D1*
X1607362Y346427D1*
X1609314Y342596D1*
X1610643Y338507D1*
X1611315Y334260D1*
Y329961D1*
X2107315Y919850D2*
X2106643Y915604D1*
X2105314Y911514D1*
X2103362Y907684D1*
X2100835Y904205D1*
X2097795Y901165D1*
X2094316Y898638D1*
X2090486Y896686D1*
X2086396Y895357D1*
X2082150Y894685D1*
X2077850D1*
X2073604Y895357D1*
X2069514Y896686D1*
X2065684Y898638D1*
X2062205Y901165D1*
X2059165Y904205D1*
X2056638Y907684D1*
X2054686Y911514D1*
X2053357Y915604D1*
X2052685Y919850D1*
Y924150D1*
X2053357Y928396D1*
X2054686Y932486D1*
X2056638Y936316D1*
X2059165Y939795D1*
X2062205Y942835D1*
X2065684Y945362D1*
X2069514Y947314D1*
X2073604Y948643D1*
X2077850Y949315D1*
X2082150D1*
X2086396Y948643D1*
X2090486Y947314D1*
X2094316Y945362D1*
X2097795Y942835D1*
X2100835Y939795D1*
X2103362Y936316D1*
X2105314Y932486D1*
X2106643Y928396D1*
X2107315Y924150D1*
Y919850D1*
X1611315Y329961D2*
X1610643Y325714D1*
X1609314Y321625D1*
X1607362Y317794D1*
X1604835Y314315D1*
X1601795Y311276D1*
X1598316Y308748D1*
X1594486Y306797D1*
X1590396Y305467D1*
X1586150Y304795D1*
X1581850D1*
X1577604Y305467D1*
X1573514Y306797D1*
X1569684Y308748D1*
X1566205Y311276D1*
X1563165Y314315D1*
X1560638Y317794D1*
X1558686Y321625D1*
X1557357Y325714D1*
X1556685Y329961D1*
Y334260D1*
X1557357Y338507D1*
X1558686Y342596D1*
X1560638Y346427D1*
X1563165Y349906D1*
X1566205Y352945D1*
X1569684Y355472D1*
X1573514Y357424D1*
X1577604Y358753D1*
X1581850Y359425D1*
X1586150D1*
X1590396Y358753D1*
X1594486Y357424D1*
X1598316Y355472D1*
X1601795Y352945D1*
X1604835Y349906D1*
X1607362Y346427D1*
X1609314Y342596D1*
X1610643Y338507D1*
X1611315Y334260D1*
Y329961D1*
X1583315Y2189850D2*
X1582643Y2185604D1*
X1581314Y2181514D1*
X1579362Y2177684D1*
X1576835Y2174205D1*
X1573795Y2171165D1*
X1570316Y2168638D1*
X1566486Y2166686D1*
X1562396Y2165357D1*
X1558150Y2164685D1*
X1553850D1*
X1549604Y2165357D1*
X1545514Y2166686D1*
X1541684Y2168638D1*
X1538205Y2171165D1*
X1535165Y2174205D1*
X1532638Y2177684D1*
X1530686Y2181514D1*
X1530549Y2181885D1*
X1527795Y2179165D1*
X1524316Y2176638D1*
X1520486Y2174686D1*
X1516396Y2173357D1*
X1512150Y2172685D1*
X1507850D1*
X1503604Y2173357D1*
X1499514Y2174686D1*
X1495684Y2176638D1*
X1492205Y2179165D1*
X1489165Y2182205D1*
X1486638Y2185684D1*
X1484686Y2189514D1*
X1483357Y2193604D1*
X1482685Y2197850D1*
Y2202150D1*
X1483357Y2206396D1*
X1484686Y2210486D1*
X1486638Y2214316D1*
X1489165Y2217795D1*
X1492205Y2220835D1*
X1495684Y2223362D1*
X1499514Y2225314D1*
X1503604Y2226643D1*
X1507850Y2227315D1*
X1512150D1*
X1516396Y2226643D1*
X1520486Y2225314D1*
X1524316Y2223362D1*
X1527795Y2220835D1*
X1530835Y2217795D1*
X1533362Y2214316D1*
X1535314Y2210486D1*
X1535451Y2210115D1*
X1538205Y2212835D1*
X1541684Y2215362D1*
X1545514Y2217314D1*
X1549604Y2218643D1*
X1553850Y2219315D1*
X1558150D1*
X1562396Y2218643D1*
X1566486Y2217314D1*
X1570316Y2215362D1*
X1573795Y2212835D1*
X1576835Y2209795D1*
X1579362Y2206316D1*
X1581314Y2202486D1*
X1582643Y2198396D1*
X1583315Y2194150D1*
Y2189850D1*
X1687315D2*
X1686643Y2185604D1*
X1685314Y2181514D1*
X1683362Y2177684D1*
X1680835Y2174205D1*
X1677795Y2171165D1*
X1674316Y2168638D1*
X1670486Y2166686D1*
X1666396Y2165357D1*
X1662150Y2164685D1*
X1657850D1*
X1653604Y2165357D1*
X1649514Y2166686D1*
X1645684Y2168638D1*
X1642205Y2171165D1*
X1639165Y2174205D1*
X1636638Y2177684D1*
X1634686Y2181514D1*
X1633357Y2185604D1*
X1632685Y2189850D1*
Y2194150D1*
X1633357Y2198396D1*
X1634686Y2202486D1*
X1636638Y2206316D1*
X1639165Y2209795D1*
X1642205Y2212835D1*
X1645684Y2215362D1*
X1649514Y2217314D1*
X1653604Y2218643D1*
X1657850Y2219315D1*
X1662150D1*
X1666396Y2218643D1*
X1670486Y2217314D1*
X1674316Y2215362D1*
X1677795Y2212835D1*
X1680835Y2209795D1*
X1683362Y2206316D1*
X1685314Y2202486D1*
X1686643Y2198396D1*
X1687315Y2194150D1*
Y2189850D1*
X1803315Y2081850D2*
X1802643Y2077604D1*
X1801314Y2073514D1*
X1799362Y2069684D1*
X1796835Y2066205D1*
X1793795Y2063165D1*
X1790316Y2060638D1*
X1786486Y2058686D1*
X1782396Y2057357D1*
X1778150Y2056685D1*
X1773850D1*
X1769604Y2057357D1*
X1765514Y2058686D1*
X1761684Y2060638D1*
X1758205Y2063165D1*
X1755165Y2066205D1*
X1752638Y2069684D1*
X1750686Y2073514D1*
X1749357Y2077604D1*
X1748685Y2081850D1*
Y2086150D1*
X1749357Y2090396D1*
X1750686Y2094486D1*
X1752638Y2098316D1*
X1755165Y2101795D1*
X1758205Y2104835D1*
X1761684Y2107362D1*
X1765514Y2109314D1*
X1769604Y2110643D1*
X1773850Y2111315D1*
X1778150D1*
X1782396Y2110643D1*
X1786486Y2109314D1*
X1790316Y2107362D1*
X1793795Y2104835D1*
X1796835Y2101795D1*
X1799362Y2098316D1*
X1801314Y2094486D1*
X1802643Y2090396D1*
X1803315Y2086150D1*
Y2081850D1*
X1805315Y1885850D2*
X1804643Y1881604D1*
X1803314Y1877514D1*
X1801362Y1873684D1*
X1798835Y1870205D1*
X1795795Y1867165D1*
X1792316Y1864638D1*
X1788486Y1862686D1*
X1784396Y1861357D1*
X1780150Y1860685D1*
X1775850D1*
X1771604Y1861357D1*
X1767514Y1862686D1*
X1763684Y1864638D1*
X1760205Y1867165D1*
X1757165Y1870205D1*
X1754638Y1873684D1*
X1752686Y1877514D1*
X1751357Y1881604D1*
X1750685Y1885850D1*
Y1890150D1*
X1751357Y1894396D1*
X1752686Y1898486D1*
X1754638Y1902316D1*
X1757165Y1905795D1*
X1760205Y1908835D1*
X1763684Y1911362D1*
X1767514Y1913314D1*
X1771604Y1914643D1*
X1775850Y1915315D1*
X1780150D1*
X1784396Y1914643D1*
X1788486Y1913314D1*
X1792316Y1911362D1*
X1795795Y1908835D1*
X1798835Y1905795D1*
X1801362Y1902316D1*
X1803314Y1898486D1*
X1804643Y1894396D1*
X1805315Y1890150D1*
Y1885850D1*
X1803315Y2081850D2*
X1802643Y2077604D1*
X1801314Y2073514D1*
X1799362Y2069684D1*
X1796835Y2066205D1*
X1793795Y2063165D1*
X1790316Y2060638D1*
X1786486Y2058686D1*
X1782396Y2057357D1*
X1778150Y2056685D1*
X1773850D1*
X1769604Y2057357D1*
X1765514Y2058686D1*
X1761684Y2060638D1*
X1758205Y2063165D1*
X1755165Y2066205D1*
X1752638Y2069684D1*
X1750686Y2073514D1*
X1749357Y2077604D1*
X1748685Y2081850D1*
Y2086150D1*
X1749357Y2090396D1*
X1750686Y2094486D1*
X1752638Y2098316D1*
X1755165Y2101795D1*
X1758205Y2104835D1*
X1761684Y2107362D1*
X1765514Y2109314D1*
X1769604Y2110643D1*
X1773850Y2111315D1*
X1778150D1*
X1782396Y2110643D1*
X1786486Y2109314D1*
X1790316Y2107362D1*
X1793795Y2104835D1*
X1796835Y2101795D1*
X1799362Y2098316D1*
X1801314Y2094486D1*
X1802643Y2090396D1*
X1803315Y2086150D1*
Y2081850D1*
X1687315Y2189850D2*
X1686643Y2185604D1*
X1685314Y2181514D1*
X1683362Y2177684D1*
X1680835Y2174205D1*
X1677795Y2171165D1*
X1674316Y2168638D1*
X1670486Y2166686D1*
X1666396Y2165357D1*
X1662150Y2164685D1*
X1657850D1*
X1653604Y2165357D1*
X1649514Y2166686D1*
X1645684Y2168638D1*
X1642205Y2171165D1*
X1639165Y2174205D1*
X1636638Y2177684D1*
X1634686Y2181514D1*
X1633357Y2185604D1*
X1632685Y2189850D1*
Y2194150D1*
X1633357Y2198396D1*
X1634686Y2202486D1*
X1636638Y2206316D1*
X1639165Y2209795D1*
X1642205Y2212835D1*
X1645684Y2215362D1*
X1649514Y2217314D1*
X1653604Y2218643D1*
X1657850Y2219315D1*
X1662150D1*
X1666396Y2218643D1*
X1670486Y2217314D1*
X1674316Y2215362D1*
X1677795Y2212835D1*
X1680835Y2209795D1*
X1683362Y2206316D1*
X1685314Y2202486D1*
X1686643Y2198396D1*
X1687315Y2194150D1*
Y2189850D1*
X2097516Y275850D2*
X2096844Y271604D1*
X2095514Y267514D1*
X2093563Y263684D1*
X2091035Y260205D1*
X2087996Y257165D1*
X2084517Y254638D1*
X2080686Y252686D1*
X2076597Y251357D1*
X2072350Y250685D1*
X2068051D1*
X2063804Y251357D1*
X2059715Y252686D1*
X2055885Y254638D1*
X2052406Y257165D1*
X2049366Y260205D1*
X2046839Y263684D1*
X2044887Y267514D1*
X2043558Y271604D1*
X2042886Y275850D1*
Y280150D1*
X2043558Y284396D1*
X2044887Y288486D1*
X2046839Y292316D1*
X2049366Y295795D1*
X2052406Y298835D1*
X2055885Y301362D1*
X2059715Y303314D1*
X2063804Y304643D1*
X2068051Y305315D1*
X2072350D1*
X2076597Y304643D1*
X2080686Y303314D1*
X2084517Y301362D1*
X2087996Y298835D1*
X2091035Y295795D1*
X2093563Y292316D1*
X2095514Y288486D1*
X2096844Y284396D1*
X2097516Y280150D1*
Y275850D1*
X1753315Y2193850D2*
X1752643Y2189604D1*
X1751314Y2185514D1*
X1749362Y2181684D1*
X1746835Y2178205D1*
X1743795Y2175165D1*
X1740316Y2172638D1*
X1736486Y2170686D1*
X1732396Y2169357D1*
X1728150Y2168685D1*
X1723850D1*
X1719604Y2169357D1*
X1715514Y2170686D1*
X1711684Y2172638D1*
X1708205Y2175165D1*
X1705165Y2178205D1*
X1702638Y2181684D1*
X1700686Y2185514D1*
X1699357Y2189604D1*
X1698685Y2193850D1*
Y2198150D1*
X1699357Y2202396D1*
X1700686Y2206486D1*
X1702638Y2210316D1*
X1705165Y2213795D1*
X1708205Y2216835D1*
X1711684Y2219362D1*
X1715514Y2221314D1*
X1719604Y2222643D1*
X1723850Y2223315D1*
X1728150D1*
X1732396Y2222643D1*
X1736486Y2221314D1*
X1740316Y2219362D1*
X1743795Y2216835D1*
X1746835Y2213795D1*
X1749362Y2210316D1*
X1751314Y2206486D1*
X1752643Y2202396D1*
X1753315Y2198150D1*
Y2193850D1*
X2097516Y275850D2*
X2096844Y271604D1*
X2095514Y267514D1*
X2093563Y263684D1*
X2091035Y260205D1*
X2087996Y257165D1*
X2084517Y254638D1*
X2080686Y252686D1*
X2076597Y251357D1*
X2072350Y250685D1*
X2068051D1*
X2063804Y251357D1*
X2059715Y252686D1*
X2055885Y254638D1*
X2052406Y257165D1*
X2049366Y260205D1*
X2046839Y263684D1*
X2044887Y267514D1*
X2043558Y271604D1*
X2042886Y275850D1*
Y280150D1*
X2043558Y284396D1*
X2044887Y288486D1*
X2046839Y292316D1*
X2049366Y295795D1*
X2052406Y298835D1*
X2055885Y301362D1*
X2059715Y303314D1*
X2063804Y304643D1*
X2068051Y305315D1*
X2072350D1*
X2076597Y304643D1*
X2080686Y303314D1*
X2084517Y301362D1*
X2087996Y298835D1*
X2091035Y295795D1*
X2093563Y292316D1*
X2095514Y288486D1*
X2096844Y284396D1*
X2097516Y280150D1*
Y275850D1*
X1517315Y65850D2*
X1516643Y61604D1*
X1515314Y57514D1*
X1513362Y53684D1*
X1510835Y50205D1*
X1507795Y47165D1*
X1504316Y44638D1*
X1500486Y42686D1*
X1496396Y41357D1*
X1492150Y40685D1*
X1487850D1*
X1483604Y41357D1*
X1479514Y42686D1*
X1475684Y44638D1*
X1472205Y47165D1*
X1469165Y50205D1*
X1466638Y53684D1*
X1464686Y57514D1*
X1463357Y61604D1*
X1462685Y65850D1*
Y70150D1*
X1463357Y74396D1*
X1464686Y78486D1*
X1466638Y82316D1*
X1469165Y85795D1*
X1472205Y88835D1*
X1475684Y91362D1*
X1479514Y93314D1*
X1483604Y94643D1*
X1487850Y95315D1*
X1492150D1*
X1496396Y94643D1*
X1500486Y93314D1*
X1504316Y91362D1*
X1507795Y88835D1*
X1510835Y85795D1*
X1513362Y82316D1*
X1515314Y78486D1*
X1516643Y74396D1*
X1517315Y70150D1*
Y65850D1*
X2157315Y221850D2*
X2156643Y217604D1*
X2155314Y213514D1*
X2153362Y209684D1*
X2150835Y206205D1*
X2147795Y203165D1*
X2144316Y200638D1*
X2140486Y198686D1*
X2136396Y197357D1*
X2132150Y196685D1*
X2127850D1*
X2123604Y197357D1*
X2119514Y198686D1*
X2115684Y200638D1*
X2112205Y203165D1*
X2109165Y206205D1*
X2106638Y209684D1*
X2104686Y213514D1*
X2103357Y217604D1*
X2102685Y221850D1*
Y226150D1*
X2103357Y230396D1*
X2104686Y234486D1*
X2106638Y238316D1*
X2109165Y241795D1*
X2112205Y244835D1*
X2115684Y247362D1*
X2119514Y249314D1*
X2123604Y250643D1*
X2127850Y251315D1*
X2132150D1*
X2136396Y250643D1*
X2140486Y249314D1*
X2144316Y247362D1*
X2147795Y244835D1*
X2150835Y241795D1*
X2153362Y238316D1*
X2155314Y234486D1*
X2156643Y230396D1*
X2157315Y226150D1*
Y221850D1*
X2060354Y2150811D2*
X2059682Y2146564D1*
X2058353Y2142475D1*
X2056402Y2138644D1*
X2053874Y2135165D1*
X2050835Y2132126D1*
X2047356Y2129598D1*
X2043525Y2127647D1*
X2039436Y2126318D1*
X2035189Y2125646D1*
X2030890D1*
X2026643Y2126318D1*
X2022554Y2127647D1*
X2018723Y2129598D1*
X2015244Y2132126D1*
X2012205Y2135165D1*
X2009677Y2138644D1*
X2007726Y2142475D1*
X2006396Y2146564D1*
X2005724Y2150811D1*
Y2155110D1*
X2006396Y2159357D1*
X2007726Y2163446D1*
X2009677Y2167277D1*
X2012205Y2170756D1*
X2015244Y2173795D1*
X2018723Y2176323D1*
X2022554Y2178274D1*
X2026643Y2179604D1*
X2030890Y2180276D1*
X2035189D1*
X2039436Y2179604D1*
X2043525Y2178274D1*
X2047356Y2176323D1*
X2050835Y2173795D1*
X2053874Y2170756D1*
X2056402Y2167277D1*
X2058353Y2163446D1*
X2059682Y2159357D1*
X2060354Y2155110D1*
Y2150811D1*
X1217315Y2081913D2*
X1216643Y2077667D1*
X1215314Y2073577D1*
X1213362Y2069747D1*
X1210835Y2066268D1*
X1207795Y2063228D1*
X1204316Y2060701D1*
X1200486Y2058749D1*
X1196396Y2057420D1*
X1192150Y2056748D1*
X1187850D1*
X1183604Y2057420D1*
X1179514Y2058749D1*
X1175684Y2060701D1*
X1172205Y2063228D1*
X1169165Y2066268D1*
X1166638Y2069747D1*
X1164686Y2073577D1*
X1163357Y2077667D1*
X1162685Y2081913D1*
Y2086213D1*
X1163357Y2090459D1*
X1164686Y2094549D1*
X1166638Y2098379D1*
X1169165Y2101858D1*
X1172205Y2104898D1*
X1175684Y2107425D1*
X1179514Y2109377D1*
X1183604Y2110706D1*
X1187850Y2111378D1*
X1192150D1*
X1196396Y2110706D1*
X1200486Y2109377D1*
X1204316Y2107425D1*
X1207795Y2104898D1*
X1210835Y2101858D1*
X1213362Y2098379D1*
X1215314Y2094549D1*
X1216643Y2090459D1*
X1217315Y2086213D1*
Y2081913D1*
X1105315Y1431850D2*
X1104643Y1427604D1*
X1103314Y1423514D1*
X1101362Y1419684D1*
X1098835Y1416205D1*
X1095795Y1413165D1*
X1092316Y1410638D1*
X1088486Y1408686D1*
X1084396Y1407357D1*
X1080150Y1406685D1*
X1075850D1*
X1071604Y1407357D1*
X1067514Y1408686D1*
X1063684Y1410638D1*
X1060205Y1413165D1*
X1057165Y1416205D1*
X1054638Y1419684D1*
X1052686Y1423514D1*
X1051357Y1427604D1*
X1050685Y1431850D1*
Y1436150D1*
X1051357Y1440396D1*
X1052686Y1444486D1*
X1054638Y1448316D1*
X1057165Y1451795D1*
X1060205Y1454835D1*
X1063684Y1457362D1*
X1067514Y1459314D1*
X1071604Y1460643D1*
X1075850Y1461315D1*
X1080150D1*
X1084396Y1460643D1*
X1088486Y1459314D1*
X1092316Y1457362D1*
X1095795Y1454835D1*
X1098835Y1451795D1*
X1101362Y1448316D1*
X1103314Y1444486D1*
X1104643Y1440396D1*
X1105315Y1436150D1*
Y1431850D1*
X2101315Y1819850D2*
X2100643Y1815604D1*
X2099314Y1811514D1*
X2097362Y1807684D1*
X2094835Y1804205D1*
X2091795Y1801165D1*
X2088316Y1798638D1*
X2084486Y1796686D1*
X2080396Y1795357D1*
X2076150Y1794685D1*
X2071850D1*
X2067604Y1795357D1*
X2063514Y1796686D1*
X2059684Y1798638D1*
X2056205Y1801165D1*
X2053165Y1804205D1*
X2050638Y1807684D1*
X2048686Y1811514D1*
X2047357Y1815604D1*
X2046685Y1819850D1*
Y1824150D1*
X2047357Y1828396D1*
X2048686Y1832486D1*
X2050638Y1836316D1*
X2053165Y1839795D1*
X2056205Y1842835D1*
X2059684Y1845362D1*
X2063514Y1847314D1*
X2067604Y1848643D1*
X2071850Y1849315D1*
X2076150D1*
X2080396Y1848643D1*
X2084486Y1847314D1*
X2088316Y1845362D1*
X2091795Y1842835D1*
X2094835Y1839795D1*
X2097362Y1836316D1*
X2099314Y1832486D1*
X2100643Y1828396D1*
X2101315Y1824150D1*
Y1819850D1*
X23000Y18000D2*
X2382000D1*
Y2382000D1*
X18000D1*
Y18000D1*
X23000D1*
X428000Y128908D2*
Y39092D1*
X383092Y84000D2*
X472908D1*
D25*
X886000Y404000D3*
X800000Y544000D3*
Y644000D3*
Y744000D3*
D33*
X428000Y84000D3*
X528000D3*
X628000D3*
X728000D3*
X828000D3*
X928000D3*
D36*
X280000Y1746000D3*
X279906Y2146000D3*
D38*
X480016Y1946000D3*
Y1846000D3*
D25*
X1322000Y2278000D3*
M02*
